<?xml version="1.0" encoding="utf-8" standalone="no"?>
<!DOCTYPE svg PUBLIC "-//W3C//DTD SVG 1.1//EN"
  "http://www.w3.org/Graphics/SVG/1.1/DTD/svg11.dtd">
<!-- Created with matplotlib (https://matplotlib.org/) -->
<svg height="216pt" version="1.1" viewBox="0 0 384.6 216" width="384.6pt" xmlns="http://www.w3.org/2000/svg" xmlns:xlink="http://www.w3.org/1999/xlink">
 <metadata>
  <rdf:RDF xmlns:cc="http://creativecommons.org/ns#" xmlns:dc="http://purl.org/dc/elements/1.1/" xmlns:rdf="http://www.w3.org/1999/02/22-rdf-syntax-ns#">
   <cc:Work>
    <dc:type rdf:resource="http://purl.org/dc/dcmitype/StillImage"/>
    <dc:date>2021-04-23T13:02:16.288086</dc:date>
    <dc:format>image/svg+xml</dc:format>
    <dc:creator>
     <cc:Agent>
      <dc:title>Matplotlib v3.3.4, https://matplotlib.org/</dc:title>
     </cc:Agent>
    </dc:creator>
   </cc:Work>
  </rdf:RDF>
 </metadata>
 <defs>
  <style type="text/css">*{stroke-linecap:butt;stroke-linejoin:round;}</style>
 </defs>
 <g id="figure_1">
  <g id="patch_1">
   <path d="M 0 216 
L 384.6 216 
L 384.6 0 
L 0 0 
z
" style="fill:#ffffff;"/>
  </g>
  <g id="axes_1">
   <g id="patch_2">
    <path d="M 38.46 172.8 
L 187.213858 172.8 
L 187.213858 43.2 
L 38.46 43.2 
z
" style="fill:#ffffff;"/>
   </g>
   <g id="matplotlib.axis_1">
    <g id="xtick_1">
     <g id="line2d_1">
      <defs>
       <path d="M 0 0 
L 0 3.5 
" id="m90e9bdfe6a" style="stroke:#000000;stroke-width:0.25;"/>
      </defs>
      <g>
       <use style="stroke:#000000;stroke-width:0.25;" x="38.46" xlink:href="#m90e9bdfe6a" y="172.8"/>
      </g>
     </g>
     <g id="text_1">
      <text style="font-family:DejaVu Sans;font-size:6px;font-stretch:normal;font-style:normal;font-weight:normal;text-anchor:middle;" transform="rotate(-0, 38.46, 184.359063)" x="38.46" y="184.359063">0.0</text>
     </g>
    </g>
    <g id="xtick_2">
     <g id="line2d_2">
      <g>
       <use style="stroke:#000000;stroke-width:0.25;" x="68.210772" xlink:href="#m90e9bdfe6a" y="172.8"/>
      </g>
     </g>
     <g id="text_2">
      <text style="font-family:DejaVu Sans;font-size:6px;font-stretch:normal;font-style:normal;font-weight:normal;text-anchor:middle;" transform="rotate(-0, 68.210772, 184.359063)" x="68.210772" y="184.359063">0.2</text>
     </g>
    </g>
    <g id="xtick_3">
     <g id="line2d_3">
      <g>
       <use style="stroke:#000000;stroke-width:0.25;" x="97.961543" xlink:href="#m90e9bdfe6a" y="172.8"/>
      </g>
     </g>
     <g id="text_3">
      <text style="font-family:DejaVu Sans;font-size:6px;font-stretch:normal;font-style:normal;font-weight:normal;text-anchor:middle;" transform="rotate(-0, 97.961543, 184.359063)" x="97.961543" y="184.359063">0.4</text>
     </g>
    </g>
    <g id="xtick_4">
     <g id="line2d_4">
      <g>
       <use style="stroke:#000000;stroke-width:0.25;" x="127.712315" xlink:href="#m90e9bdfe6a" y="172.8"/>
      </g>
     </g>
     <g id="text_4">
      <text style="font-family:DejaVu Sans;font-size:6px;font-stretch:normal;font-style:normal;font-weight:normal;text-anchor:middle;" transform="rotate(-0, 127.712315, 184.359063)" x="127.712315" y="184.359063">0.6</text>
     </g>
    </g>
    <g id="xtick_5">
     <g id="line2d_5">
      <g>
       <use style="stroke:#000000;stroke-width:0.25;" x="157.463086" xlink:href="#m90e9bdfe6a" y="172.8"/>
      </g>
     </g>
     <g id="text_5">
      <text style="font-family:DejaVu Sans;font-size:6px;font-stretch:normal;font-style:normal;font-weight:normal;text-anchor:middle;" transform="rotate(-0, 157.463086, 184.359063)" x="157.463086" y="184.359063">0.8</text>
     </g>
    </g>
    <g id="xtick_6">
     <g id="line2d_6">
      <g>
       <use style="stroke:#000000;stroke-width:0.25;" x="187.213858" xlink:href="#m90e9bdfe6a" y="172.8"/>
      </g>
     </g>
     <g id="text_6">
      <text style="font-family:DejaVu Sans;font-size:6px;font-stretch:normal;font-style:normal;font-weight:normal;text-anchor:middle;" transform="rotate(-0, 187.213858, 184.359063)" x="187.213858" y="184.359063">1.0</text>
     </g>
    </g>
    <g id="text_7">
     <text style="font-family:DejaVu Sans;font-size:6px;font-stretch:normal;font-style:normal;font-weight:normal;text-anchor:middle;" transform="rotate(-0, 112.836929, 194.165938)" x="112.836929" y="194.165938">value</text>
    </g>
   </g>
   <g id="matplotlib.axis_2">
    <g id="ytick_1">
     <g id="line2d_7">
      <defs>
       <path d="M 0 0 
L -3.5 0 
" id="m0913741ed8" style="stroke:#000000;stroke-width:0.25;"/>
      </defs>
      <g>
       <use style="stroke:#000000;stroke-width:0.25;" x="38.46" xlink:href="#m0913741ed8" y="172.8"/>
      </g>
     </g>
     <g id="text_8">
      <text style="font-family:DejaVu Sans;font-size:6px;font-stretch:normal;font-style:normal;font-weight:normal;text-anchor:end;" transform="rotate(-0, 31.46, 175.079531)" x="31.46" y="175.079531">0.0</text>
     </g>
    </g>
    <g id="ytick_2">
     <g id="line2d_8">
      <g>
       <use style="stroke:#000000;stroke-width:0.25;" x="38.46" xlink:href="#m0913741ed8" y="146.88"/>
      </g>
     </g>
     <g id="text_9">
      <text style="font-family:DejaVu Sans;font-size:6px;font-stretch:normal;font-style:normal;font-weight:normal;text-anchor:end;" transform="rotate(-0, 31.46, 149.159531)" x="31.46" y="149.159531">0.2</text>
     </g>
    </g>
    <g id="ytick_3">
     <g id="line2d_9">
      <g>
       <use style="stroke:#000000;stroke-width:0.25;" x="38.46" xlink:href="#m0913741ed8" y="120.96"/>
      </g>
     </g>
     <g id="text_10">
      <text style="font-family:DejaVu Sans;font-size:6px;font-stretch:normal;font-style:normal;font-weight:normal;text-anchor:end;" transform="rotate(-0, 31.46, 123.239531)" x="31.46" y="123.239531">0.4</text>
     </g>
    </g>
    <g id="ytick_4">
     <g id="line2d_10">
      <g>
       <use style="stroke:#000000;stroke-width:0.25;" x="38.46" xlink:href="#m0913741ed8" y="95.04"/>
      </g>
     </g>
     <g id="text_11">
      <text style="font-family:DejaVu Sans;font-size:6px;font-stretch:normal;font-style:normal;font-weight:normal;text-anchor:end;" transform="rotate(-0, 31.46, 97.319531)" x="31.46" y="97.319531">0.6</text>
     </g>
    </g>
    <g id="ytick_5">
     <g id="line2d_11">
      <g>
       <use style="stroke:#000000;stroke-width:0.25;" x="38.46" xlink:href="#m0913741ed8" y="69.12"/>
      </g>
     </g>
     <g id="text_12">
      <text style="font-family:DejaVu Sans;font-size:6px;font-stretch:normal;font-style:normal;font-weight:normal;text-anchor:end;" transform="rotate(-0, 31.46, 71.399531)" x="31.46" y="71.399531">0.8</text>
     </g>
    </g>
    <g id="ytick_6">
     <g id="line2d_12">
      <g>
       <use style="stroke:#000000;stroke-width:0.25;" x="38.46" xlink:href="#m0913741ed8" y="43.2"/>
      </g>
     </g>
     <g id="text_13">
      <text style="font-family:DejaVu Sans;font-size:6px;font-stretch:normal;font-style:normal;font-weight:normal;text-anchor:end;" transform="rotate(-0, 31.46, 45.479531)" x="31.46" y="45.479531">1.0</text>
     </g>
    </g>
    <g id="text_14">
     <text style="font-family:DejaVu Sans;font-size:6px;font-stretch:normal;font-style:normal;font-weight:normal;text-anchor:middle;" transform="rotate(-90, 16.670313, 108)" x="16.670313" y="108">Proportion</text>
    </g>
   </g>
   <g id="line2d_13">
    <path clip-path="url(#p29512aef14)" d="M 55.272591 172.8 
L 55.272591 172.419941 
L 63.475959 172.419941 
L 63.475959 172.039883 
L 67.512771 172.039883 
L 67.512771 171.659824 
L 69.922155 171.659824 
L 69.948423 170.899707 
L 70.089849 170.899707 
L 70.1679 169.759531 
L 78.227869 169.759531 
L 78.227869 169.379472 
L 80.090183 169.379472 
L 80.090183 168.999413 
L 81.153383 168.999413 
L 81.153383 168.619355 
L 83.900159 168.619355 
L 83.900159 168.239296 
L 84.757077 168.239296 
L 84.757077 167.859238 
L 90.388765 167.859238 
L 90.388765 167.479179 
L 93.60645 167.479179 
L 93.60645 167.09912 
L 94.606597 167.09912 
L 94.606597 166.719062 
L 97.633358 166.719062 
L 97.633358 166.339003 
L 97.750051 166.339003 
L 97.750051 165.958944 
L 99.377221 165.958944 
L 99.377221 165.578886 
L 100.176043 165.578886 
L 100.277051 164.818768 
L 100.374921 164.818768 
L 100.374921 164.43871 
L 100.920702 164.43871 
L 100.920702 164.058651 
L 101.372808 164.058651 
L 101.372808 163.678592 
L 102.402482 163.678592 
L 102.439322 162.538416 
L 102.912393 162.538416 
L 102.912393 162.158358 
L 104.827183 162.158358 
L 104.926002 161.39824 
L 105.214011 161.39824 
L 105.214011 161.018182 
L 106.008129 161.018182 
L 106.008129 160.638123 
L 106.962988 160.638123 
L 106.962988 160.258065 
L 107.595473 160.258065 
L 107.595473 159.878006 
L 107.744458 159.878006 
L 107.744458 159.497947 
L 107.983507 159.497947 
L 108.092114 158.73783 
L 108.151182 158.73783 
L 108.151182 158.357771 
L 108.606447 158.357771 
L 108.707453 156.837537 
L 109.308261 156.837537 
L 109.308261 156.457478 
L 109.629702 156.457478 
L 109.629702 156.077419 
L 109.763272 156.077419 
L 109.763272 155.697361 
L 109.987812 155.697361 
L 109.987812 155.317302 
L 110.110816 155.317302 
L 110.110816 154.937243 
L 110.390729 154.937243 
L 110.390729 154.557185 
L 110.54245 154.557185 
L 110.54245 154.177126 
L 110.801172 154.177126 
L 110.828244 153.417009 
L 110.941116 153.417009 
L 110.941116 153.03695 
L 111.260999 153.03695 
L 111.358588 152.276833 
L 111.475686 152.276833 
L 111.492024 150.756598 
L 111.714802 150.756598 
L 111.768445 149.616422 
L 111.920243 149.616422 
L 111.920243 149.236364 
L 112.090583 149.236364 
L 112.172049 148.476246 
L 112.307041 148.476246 
L 112.323095 147.716129 
L 112.422858 147.716129 
L 112.497999 146.956012 
L 112.568436 146.956012 
L 112.570132 146.195894 
L 112.731435 146.195894 
L 112.731435 145.815836 
L 112.872615 145.815836 
L 112.935435 145.055718 
L 113.015028 145.055718 
L 113.105525 144.295601 
L 113.196879 144.295601 
L 113.202701 143.535484 
L 113.722554 143.535484 
L 113.828455 142.015249 
L 113.880624 142.015249 
L 113.910831 141.255132 
L 114.020636 141.255132 
L 114.020636 140.875073 
L 114.171472 140.875073 
L 114.171472 140.495015 
L 114.422791 140.495015 
L 114.509588 139.354839 
L 114.792489 139.354839 
L 114.809905 138.594721 
L 115.012381 138.594721 
L 115.019515 137.834604 
L 115.224991 137.834604 
L 115.224991 137.454545 
L 115.3539 137.454545 
L 115.3539 137.074487 
L 115.498125 137.074487 
L 115.498125 136.694428 
L 115.613818 136.694428 
L 115.700373 135.554252 
L 116.124509 135.554252 
L 116.138442 134.794135 
L 116.24082 134.794135 
L 116.334547 134.034018 
L 116.373687 134.034018 
L 116.457578 133.2739 
L 116.506545 133.2739 
L 116.528844 132.513783 
L 116.67571 132.513783 
L 116.67571 132.133724 
L 116.989159 132.133724 
L 116.989159 131.753666 
L 117.338533 131.753666 
L 117.381941 130.993548 
L 117.519177 130.993548 
L 117.527822 130.233431 
L 117.674545 130.233431 
L 117.769458 129.473314 
L 117.911 129.473314 
L 117.986496 128.713196 
L 118.075085 128.713196 
L 118.184701 127.953079 
L 118.411453 127.953079 
L 118.516822 127.192962 
L 118.535739 127.192962 
L 118.535739 126.812903 
L 118.68315 126.812903 
L 118.76308 126.052786 
L 118.835741 126.052786 
L 118.943889 125.292669 
L 119.042692 125.292669 
L 119.117116 124.532551 
L 119.201711 124.532551 
L 119.201711 124.152493 
L 119.313513 124.152493 
L 119.349953 123.012317 
L 119.518773 123.012317 
L 119.525515 122.252199 
L 119.75317 122.252199 
L 119.846484 120.731965 
L 119.868832 120.731965 
L 119.868832 120.351906 
L 119.991729 120.351906 
L 119.991729 119.971848 
L 120.368357 119.971848 
L 120.368357 119.591789 
L 120.508927 119.591789 
L 120.508927 119.21173 
L 120.626955 119.21173 
L 120.681678 118.071554 
L 120.869339 118.071554 
L 120.880715 117.311437 
L 121.111199 117.311437 
L 121.111199 116.931378 
L 121.222661 116.931378 
L 121.222661 116.55132 
L 121.410555 116.55132 
L 121.457621 115.791202 
L 121.605134 115.791202 
L 121.689391 114.270968 
L 121.739336 114.270968 
L 121.83555 113.51085 
L 121.913968 113.51085 
L 121.913968 113.130792 
L 122.226626 113.130792 
L 122.261432 112.370674 
L 122.3581 112.370674 
L 122.469005 111.230499 
L 122.562749 111.230499 
L 122.562749 110.85044 
L 122.953515 110.85044 
L 122.963276 110.090323 
L 123.098613 110.090323 
L 123.098613 109.710264 
L 123.40988 109.710264 
L 123.489937 108.950147 
L 123.704742 108.950147 
L 123.782258 108.190029 
L 123.91463 108.190029 
L 123.98062 107.429912 
L 124.146575 107.429912 
L 124.193986 106.289736 
L 124.309456 106.289736 
L 124.309456 105.909677 
L 124.547899 105.909677 
L 124.547899 105.529619 
L 124.848631 105.529619 
L 124.934807 104.389443 
L 125.05354 104.389443 
L 125.08833 103.629326 
L 125.168475 103.629326 
L 125.168475 103.249267 
L 125.292603 103.249267 
L 125.35888 102.109091 
L 125.452019 102.109091 
L 125.452019 101.729032 
L 125.703402 101.729032 
L 125.747263 100.968915 
L 126.004965 100.968915 
L 126.074167 100.208798 
L 126.450565 100.208798 
L 126.450565 99.828739 
L 126.615031 99.828739 
L 126.724096 99.068622 
L 127.783697 99.068622 
L 127.804193 98.308504 
L 128.019834 98.308504 
L 128.019834 97.928446 
L 128.17574 97.928446 
L 128.272863 97.168328 
L 128.327703 97.168328 
L 128.436529 96.028152 
L 128.50013 96.028152 
L 128.50013 95.648094 
L 129.112991 95.648094 
L 129.175705 94.887977 
L 129.292869 94.887977 
L 129.37899 94.127859 
L 129.61719 94.127859 
L 129.71653 92.987683 
L 129.896265 92.987683 
L 129.968915 92.227566 
L 130.749303 92.227566 
L 130.749303 91.847507 
L 131.210707 91.847507 
L 131.303765 90.707331 
L 131.597419 90.707331 
L 131.665357 89.947214 
L 132.022712 89.947214 
L 132.022712 89.567155 
L 132.163456 89.567155 
L 132.163456 89.187097 
L 132.325982 89.187097 
L 132.325982 88.807038 
L 132.767792 88.807038 
L 132.767792 88.426979 
L 133.397913 88.426979 
L 133.397913 88.046921 
L 133.555624 88.046921 
L 133.555624 87.666862 
L 133.696296 87.666862 
L 133.806255 86.146628 
L 134.497027 86.146628 
L 134.588047 85.38651 
L 135.089208 85.38651 
L 135.089208 85.006452 
L 135.476805 85.006452 
L 135.500289 84.246334 
L 135.627824 84.246334 
L 135.627824 83.866276 
L 136.306693 83.866276 
L 136.344911 83.106158 
L 136.485722 83.106158 
L 136.485722 82.7261 
L 136.639252 82.7261 
L 136.742788 81.585924 
L 136.788439 81.585924 
L 136.876601 80.825806 
L 137.015634 80.825806 
L 137.109063 80.065689 
L 137.169091 80.065689 
L 137.277115 78.925513 
L 137.446064 78.925513 
L 137.458921 78.165396 
L 137.860138 78.165396 
L 137.860138 77.785337 
L 138.067201 77.785337 
L 138.067201 77.405279 
L 138.490564 77.405279 
L 138.490564 77.02522 
L 138.761356 77.02522 
L 138.761356 76.645161 
L 139.040349 76.645161 
L 139.128261 75.885044 
L 139.332022 75.885044 
L 139.332022 75.504985 
L 139.551533 75.504985 
L 139.551533 75.124927 
L 139.837213 75.124927 
L 139.901724 74.364809 
L 140.046255 74.364809 
L 140.046255 73.984751 
L 140.556554 73.984751 
L 140.663179 73.224633 
L 140.844088 73.224633 
L 140.844088 72.844575 
L 141.036964 72.844575 
L 141.111252 72.084457 
L 141.374357 72.084457 
L 141.475446 71.32434 
L 141.566326 71.32434 
L 141.613305 70.564223 
L 141.864176 70.564223 
L 141.891909 69.804106 
L 142.19962 69.804106 
L 142.309512 68.283871 
L 142.380166 68.283871 
L 142.380166 67.903812 
L 142.589492 67.903812 
L 142.637302 67.143695 
L 142.846044 67.143695 
L 142.947174 66.003519 
L 143.102051 66.003519 
L 143.102051 65.62346 
L 143.336197 65.62346 
L 143.336197 65.243402 
L 143.709424 65.243402 
L 143.709424 64.863343 
L 144.111572 64.863343 
L 144.165419 63.343109 
L 144.302862 63.343109 
L 144.382034 62.202933 
L 144.479332 62.202933 
L 144.479332 61.822874 
L 144.612981 61.822874 
L 144.705001 60.682698 
L 145.057187 60.682698 
L 145.113077 59.542522 
L 145.187818 59.542522 
L 145.187818 59.162463 
L 145.428739 59.162463 
L 145.428739 58.782405 
L 145.580746 58.782405 
L 145.668962 58.022287 
L 145.803054 58.022287 
L 145.89128 56.882111 
L 145.94216 56.882111 
L 145.94216 56.502053 
L 146.07304 56.502053 
L 146.07304 56.121994 
L 146.186065 56.121994 
L 146.281546 54.60176 
L 146.405143 54.60176 
L 146.405143 54.221701 
L 146.558065 54.221701 
L 146.663761 53.081525 
L 147.260931 53.081525 
L 147.260931 52.701466 
L 147.443893 52.701466 
L 147.524081 51.181232 
L 147.579717 51.181232 
L 147.579717 50.801173 
L 147.698711 50.801173 
L 147.794966 50.041056 
L 147.837481 50.041056 
L 147.947501 48.520821 
L 147.969924 48.520821 
L 147.977494 47.000587 
L 148.313887 47.000587 
L 148.334586 46.240469 
L 149.090125 46.240469 
L 149.090125 45.860411 
L 151.417922 45.860411 
L 151.417922 45.480352 
L 151.944494 45.480352 
L 151.944494 45.100293 
L 152.056389 45.100293 
L 152.056389 44.720235 
L 152.311315 44.720235 
L 152.311315 44.340176 
L 152.534103 44.340176 
L 152.609801 43.2 
L 152.609801 43.2 
" style="fill:none;stroke:#ff00ff;stroke-linecap:square;stroke-width:1.5;"/>
   </g>
   <g id="line2d_14">
    <path clip-path="url(#p29512aef14)" d="M 50.679036 172.8 
L 50.679036 172.357679 
L 52.089232 172.357679 
L 52.089232 171.915358 
L 53.970382 171.915358 
L 53.970382 171.473038 
L 57.291872 171.473038 
L 57.291872 171.030717 
L 57.789303 171.030717 
L 57.806913 170.146075 
L 61.803759 170.146075 
L 61.803759 169.703754 
L 62.089331 169.703754 
L 62.089331 169.261433 
L 63.417725 169.261433 
L 63.417725 168.819113 
L 63.65891 168.819113 
L 63.65891 168.376792 
L 64.477605 168.376792 
L 64.538822 167.49215 
L 64.605141 167.49215 
L 64.605141 167.049829 
L 67.185466 167.049829 
L 67.185466 166.607509 
L 69.992147 166.607509 
L 69.992147 166.165188 
L 75.266576 166.165188 
L 75.266576 165.722867 
L 75.760863 165.722867 
L 75.760863 165.280546 
L 77.070684 165.280546 
L 77.070684 164.838225 
L 78.409172 164.838225 
L 78.409172 164.395904 
L 83.442235 164.395904 
L 83.442235 163.953584 
L 85.25381 163.953584 
L 85.25381 163.511263 
L 85.370072 163.511263 
L 85.370072 163.068942 
L 85.913395 163.068942 
L 85.913395 162.626621 
L 86.655043 162.626621 
L 86.655043 162.1843 
L 87.306278 162.1843 
L 87.306278 161.74198 
L 87.923836 161.74198 
L 87.923836 161.299659 
L 88.380173 161.299659 
L 88.380173 160.857338 
L 88.775268 160.857338 
L 88.775268 160.415017 
L 90.921293 160.415017 
L 90.921293 159.972696 
L 92.391928 159.972696 
L 92.454168 159.088055 
L 92.563561 159.088055 
L 92.563561 158.645734 
L 93.081166 158.645734 
L 93.081166 158.203413 
L 93.57111 158.203413 
L 93.57111 157.761092 
L 95.326401 157.761092 
L 95.326401 157.318771 
L 96.423549 157.318771 
L 96.423549 156.876451 
L 96.671675 156.876451 
L 96.671675 156.43413 
L 96.904496 156.43413 
L 96.978049 155.549488 
L 97.889742 155.549488 
L 97.889742 155.107167 
L 98.40516 155.107167 
L 98.40516 154.664846 
L 98.597442 154.664846 
L 98.597442 154.222526 
L 99.091916 154.222526 
L 99.091916 153.780205 
L 100.596183 153.780205 
L 100.596183 153.337884 
L 100.734972 153.337884 
L 100.734972 152.895563 
L 100.935 152.895563 
L 100.935 152.453242 
L 101.391756 152.453242 
L 101.391756 152.010922 
L 102.04347 152.010922 
L 102.04347 151.568601 
L 104.760534 151.568601 
L 104.818521 150.683959 
L 105.073317 150.683959 
L 105.073317 150.241638 
L 105.350463 150.241638 
L 105.350463 149.799317 
L 105.903446 149.799317 
L 105.997219 148.914676 
L 106.326922 148.914676 
L 106.326922 148.472355 
L 106.846285 148.472355 
L 106.846285 148.030034 
L 107.259221 148.030034 
L 107.259221 147.587713 
L 107.6186 147.587713 
L 107.6186 147.145392 
L 107.886715 147.145392 
L 107.886715 146.703072 
L 108.425161 146.703072 
L 108.425161 146.260751 
L 108.802014 146.260751 
L 108.802014 145.81843 
L 109.054187 145.81843 
L 109.0957 144.933788 
L 109.313026 144.933788 
L 109.313026 144.491468 
L 109.640434 144.491468 
L 109.640434 144.049147 
L 109.926564 144.049147 
L 109.926564 143.606826 
L 110.071258 143.606826 
L 110.071258 143.164505 
L 110.72166 143.164505 
L 110.723796 142.279863 
L 111.135863 142.279863 
L 111.135863 141.837543 
L 111.338187 141.837543 
L 111.448875 140.51058 
L 111.557787 140.51058 
L 111.557787 140.068259 
L 111.77976 140.068259 
L 111.8269 138.741297 
L 112.024899 138.741297 
L 112.120633 137.856655 
L 112.221635 137.856655 
L 112.316058 136.972014 
L 112.354081 136.972014 
L 112.381452 135.20273 
L 112.49615 135.20273 
L 112.531815 134.318089 
L 112.767616 134.318089 
L 112.767616 133.875768 
L 112.890531 133.875768 
L 112.890531 133.433447 
L 113.12448 133.433447 
L 113.12448 132.991126 
L 113.326476 132.991126 
L 113.386001 132.106485 
L 113.637737 132.106485 
L 113.639031 131.221843 
L 113.869519 131.221843 
L 113.869519 130.779522 
L 114.39421 130.779522 
L 114.44679 129.45256 
L 114.512217 129.45256 
L 114.571482 128.567918 
L 114.656871 128.567918 
L 114.656871 128.125597 
L 114.806304 128.125597 
L 114.902372 126.798635 
L 115.054508 126.798635 
L 115.13401 125.913993 
L 115.2246 125.913993 
L 115.2246 125.471672 
L 115.400642 125.471672 
L 115.506489 124.14471 
L 115.606632 124.14471 
L 115.682975 123.260068 
L 115.808372 123.260068 
L 115.808372 122.817747 
L 116.131912 122.817747 
L 116.131912 122.375427 
L 116.2485 122.375427 
L 116.2485 121.933106 
L 116.366886 121.933106 
L 116.366886 121.490785 
L 116.576751 121.490785 
L 116.576751 121.048464 
L 116.780143 121.048464 
L 116.826363 120.163823 
L 116.973173 120.163823 
L 117.065362 119.279181 
L 117.154538 119.279181 
L 117.216359 118.394539 
L 117.353861 118.394539 
L 117.353861 117.952218 
L 117.526476 117.952218 
L 117.57333 116.625256 
L 117.648452 116.625256 
L 117.742291 114.855973 
L 117.877333 114.855973 
L 117.914338 113.971331 
L 118.070444 113.971331 
L 118.168327 113.086689 
L 118.276115 113.086689 
L 118.357128 112.202048 
L 118.531375 112.202048 
L 118.62206 111.317406 
L 118.829445 111.317406 
L 118.901194 109.105802 
L 119.035224 109.105802 
L 119.035224 108.663481 
L 119.35398 108.663481 
L 119.35398 108.22116 
L 119.505368 108.22116 
L 119.596693 106.894198 
L 119.842123 106.894198 
L 119.89588 106.009556 
L 120.046157 106.009556 
L 120.064526 105.124915 
L 120.412333 105.124915 
L 120.412333 104.682594 
L 121.016481 104.682594 
L 121.016481 104.240273 
L 121.17929 104.240273 
L 121.191545 103.355631 
L 121.4975 103.355631 
L 121.577855 102.47099 
L 121.642425 102.47099 
L 121.674583 101.586348 
L 122.261477 101.586348 
L 122.261477 101.144027 
L 122.415293 101.144027 
L 122.50895 100.259386 
L 122.680555 100.259386 
L 122.680555 99.817065 
L 123.35951 99.817065 
L 123.35951 99.374744 
L 123.58367 99.374744 
L 123.58415 98.490102 
L 123.994396 98.490102 
L 123.994396 98.047782 
L 124.257029 98.047782 
L 124.257029 97.605461 
L 124.498815 97.605461 
L 124.566719 96.720819 
L 124.704455 96.720819 
L 124.704455 96.278498 
L 125.172615 96.278498 
L 125.172615 95.836177 
L 125.724094 95.836177 
L 125.724094 95.393857 
L 126.044711 95.393857 
L 126.063384 94.509215 
L 126.256464 94.509215 
L 126.256464 94.066894 
L 126.392282 94.066894 
L 126.392282 93.624573 
L 126.523722 93.624573 
L 126.523722 93.182253 
L 126.782683 93.182253 
L 126.782683 92.739932 
L 126.910458 92.739932 
L 126.997212 91.412969 
L 127.423819 91.412969 
L 127.447278 90.528328 
L 127.614291 90.528328 
L 127.680752 88.316724 
L 127.834743 88.316724 
L 127.874224 87.432082 
L 128.141537 87.432082 
L 128.141537 86.989761 
L 128.296133 86.989761 
L 128.296133 86.54744 
L 128.524774 86.54744 
L 128.524774 86.105119 
L 128.948455 86.105119 
L 128.948455 85.662799 
L 129.08118 85.662799 
L 129.08118 85.220478 
L 129.195466 85.220478 
L 129.195466 84.778157 
L 129.348904 84.778157 
L 129.348904 84.335836 
L 129.569055 84.335836 
L 129.584795 83.451195 
L 129.825941 83.451195 
L 129.825941 83.008874 
L 131.200611 83.008874 
L 131.271068 82.124232 
L 131.396406 82.124232 
L 131.396406 81.681911 
L 131.972886 81.681911 
L 131.972886 81.23959 
L 132.247009 81.23959 
L 132.297941 80.354949 
L 132.885847 80.354949 
L 132.885847 79.912628 
L 133.252122 79.912628 
L 133.311886 79.027986 
L 133.375301 79.027986 
L 133.375301 78.585666 
L 133.523517 78.585666 
L 133.523517 78.143345 
L 134.074375 78.143345 
L 134.074375 77.701024 
L 134.552241 77.701024 
L 134.583049 76.816382 
L 134.694942 76.816382 
L 134.694942 76.374061 
L 134.817198 76.374061 
L 134.827929 75.48942 
L 135.017873 75.48942 
L 135.047784 74.604778 
L 135.559096 74.604778 
L 135.669878 73.720137 
L 136.046734 73.720137 
L 136.141087 72.835495 
L 136.233728 72.835495 
L 136.235828 71.950853 
L 137.011827 71.950853 
L 137.098353 71.066212 
L 137.478533 71.066212 
L 137.478533 70.623891 
L 137.652239 70.623891 
L 137.652239 70.18157 
L 137.784856 70.18157 
L 137.893619 69.296928 
L 138.156533 69.296928 
L 138.156533 68.854608 
L 138.415115 68.854608 
L 138.523846 67.969966 
L 138.629544 67.969966 
L 138.64934 66.643003 
L 139.000513 66.643003 
L 139.000513 66.200683 
L 139.131793 66.200683 
L 139.131793 65.758362 
L 139.527285 65.758362 
L 139.527285 65.316041 
L 139.70333 65.316041 
L 139.70333 64.87372 
L 140.161563 64.87372 
L 140.161563 64.431399 
L 140.312419 64.431399 
L 140.371879 63.546758 
L 140.926084 63.546758 
L 140.926084 63.104437 
L 141.557558 63.104437 
L 141.557558 62.662116 
L 141.811053 62.662116 
L 141.900335 61.335154 
L 141.938609 61.335154 
L 141.938609 60.892833 
L 142.228404 60.892833 
L 142.336686 60.008191 
L 142.386358 60.008191 
L 142.386358 59.56587 
L 143.234595 59.56587 
L 143.283603 58.681229 
L 143.993803 58.681229 
L 143.993803 58.238908 
L 144.24205 58.238908 
L 144.286686 57.354266 
L 144.677922 57.354266 
L 144.714532 56.469625 
L 144.946835 56.469625 
L 144.987981 55.584983 
L 145.083178 55.584983 
L 145.083178 55.142662 
L 145.373519 55.142662 
L 145.408928 54.25802 
L 145.895673 54.25802 
L 145.895673 53.8157 
L 146.21211 53.8157 
L 146.309054 52.046416 
L 146.584232 52.046416 
L 146.584232 51.604096 
L 147.203957 51.604096 
L 147.311906 50.719454 
L 147.564146 50.719454 
L 147.597649 49.834812 
L 147.94333 49.834812 
L 147.998555 48.950171 
L 148.61153 48.950171 
L 148.61153 48.50785 
L 150.568573 48.50785 
L 150.568573 48.065529 
L 150.95706 48.065529 
L 150.95706 47.623208 
L 151.068627 47.623208 
L 151.163764 46.738567 
L 151.389143 46.738567 
L 151.389143 46.296246 
L 151.53113 46.296246 
L 151.53113 45.853925 
L 152.16203 45.853925 
L 152.16203 45.411604 
L 152.533692 45.411604 
L 152.533692 44.969283 
L 153.571392 44.969283 
L 153.571392 44.526962 
L 153.822612 44.526962 
L 153.822612 44.084642 
L 154.395013 44.084642 
L 154.395013 43.642321 
L 155.342686 43.642321 
L 155.342686 43.2 
L 155.342686 43.2 
" style="fill:none;stroke:#ffa500;stroke-linecap:square;stroke-width:1.5;"/>
   </g>
   <g id="line2d_15">
    <path clip-path="url(#p29512aef14)" d="M 47.482935 172.8 
L 47.482935 171.477551 
L 51.159266 171.477551 
L 51.159266 170.155102 
L 55.751237 170.155102 
L 55.751237 168.832653 
L 60.277139 168.832653 
L 60.277139 167.510204 
L 61.243535 167.510204 
L 61.243535 166.187755 
L 63.955728 166.187755 
L 63.955728 164.865306 
L 65.62667 164.865306 
L 65.62667 163.542857 
L 66.854016 163.542857 
L 66.880866 160.897959 
L 70.349193 160.897959 
L 70.349193 159.57551 
L 71.843534 159.57551 
L 71.843534 158.253061 
L 72.139664 158.253061 
L 72.139664 156.930612 
L 72.738558 156.930612 
L 72.738558 155.608163 
L 74.238488 155.608163 
L 74.238488 154.285714 
L 75.143068 154.285714 
L 75.143068 152.963265 
L 78.596119 152.963265 
L 78.596119 151.640816 
L 81.582975 151.640816 
L 81.582975 150.318367 
L 84.115333 150.318367 
L 84.115333 148.995918 
L 86.898822 148.995918 
L 86.898822 147.673469 
L 88.255071 147.673469 
L 88.255071 146.35102 
L 90.910665 146.35102 
L 90.92314 143.706122 
L 91.707001 143.706122 
L 91.707001 142.383673 
L 93.089204 142.383673 
L 93.089204 141.061224 
L 96.784827 141.061224 
L 96.784827 139.738776 
L 97.674219 139.738776 
L 97.674219 138.416327 
L 97.937153 138.416327 
L 97.937153 137.093878 
L 98.258425 137.093878 
L 98.258425 135.771429 
L 98.464096 135.771429 
L 98.464096 134.44898 
L 99.941058 134.44898 
L 99.941058 133.126531 
L 100.698783 133.126531 
L 100.698783 131.804082 
L 102.568844 131.804082 
L 102.568844 130.481633 
L 103.146144 130.481633 
L 103.146144 129.159184 
L 103.933521 129.159184 
L 104.044411 126.514286 
L 104.103935 126.514286 
L 104.103935 125.191837 
L 104.392079 125.191837 
L 104.392079 123.869388 
L 104.764463 123.869388 
L 104.764463 122.546939 
L 107.447057 122.546939 
L 107.447057 121.22449 
L 108.178794 121.22449 
L 108.178794 119.902041 
L 108.32671 119.902041 
L 108.395309 117.257143 
L 109.008597 117.257143 
L 109.008597 115.934694 
L 110.181571 115.934694 
L 110.206706 113.289796 
L 110.778329 113.289796 
L 110.851946 110.644898 
L 111.115649 110.644898 
L 111.115649 109.322449 
L 111.567368 109.322449 
L 111.567368 108 
L 111.68657 108 
L 111.68657 106.677551 
L 111.869037 106.677551 
L 111.869037 105.355102 
L 113.59084 105.355102 
L 113.59084 104.032653 
L 113.734143 104.032653 
L 113.819544 100.065306 
L 113.93652 100.065306 
L 114.025375 97.420408 
L 114.429484 97.420408 
L 114.429484 96.097959 
L 115.887399 96.097959 
L 115.887399 94.77551 
L 116.264444 94.77551 
L 116.364319 92.130612 
L 116.475252 92.130612 
L 116.475252 90.808163 
L 116.636455 90.808163 
L 116.636455 89.485714 
L 116.81951 89.485714 
L 116.81951 88.163265 
L 117.216676 88.163265 
L 117.216676 86.840816 
L 117.459636 86.840816 
L 117.459636 85.518367 
L 117.751916 85.518367 
L 117.751916 84.195918 
L 118.028848 84.195918 
L 118.029008 81.55102 
L 118.957432 81.55102 
L 118.957432 80.228571 
L 119.82116 80.228571 
L 119.82116 78.906122 
L 120.91821 78.906122 
L 120.91821 77.583673 
L 121.185382 77.583673 
L 121.185382 76.261224 
L 122.43787 76.261224 
L 122.43787 74.938776 
L 123.897051 74.938776 
L 123.897051 73.616327 
L 124.501397 73.616327 
L 124.501397 72.293878 
L 124.941797 72.293878 
L 124.941797 70.971429 
L 126.336484 70.971429 
L 126.336484 69.64898 
L 127.570539 69.64898 
L 127.625516 67.004082 
L 127.972961 67.004082 
L 127.972961 65.681633 
L 128.098484 65.681633 
L 128.206602 63.036735 
L 130.384378 63.036735 
L 130.384378 61.714286 
L 131.543059 61.714286 
L 131.543059 60.391837 
L 133.439714 60.391837 
L 133.439714 59.069388 
L 133.844484 59.069388 
L 133.938357 56.42449 
L 133.971922 56.42449 
L 133.971922 55.102041 
L 134.444475 55.102041 
L 134.444475 53.779592 
L 137.270733 53.779592 
L 137.270733 52.457143 
L 138.107303 52.457143 
L 138.107303 51.134694 
L 138.240799 51.134694 
L 138.240799 49.812245 
L 140.638484 49.812245 
L 140.638484 48.489796 
L 142.599757 48.489796 
L 142.599757 47.167347 
L 142.877875 47.167347 
L 142.877875 45.844898 
L 143.01169 45.844898 
L 143.01169 44.522449 
L 145.685292 44.522449 
L 145.685292 43.2 
L 145.685292 43.2 
" style="fill:none;stroke:#1e90ff;stroke-linecap:square;stroke-width:1.5;"/>
   </g>
   <g id="patch_3">
    <path d="M 38.46 172.8 
L 38.46 43.2 
" style="fill:none;stroke:#000000;stroke-linecap:square;stroke-linejoin:miter;stroke-width:0.25;"/>
   </g>
   <g id="patch_4">
    <path d="M 38.46 172.8 
L 187.213858 172.8 
" style="fill:none;stroke:#000000;stroke-linecap:square;stroke-linejoin:miter;stroke-width:0.25;"/>
   </g>
   <g id="text_15">
    <text style="font-family:DejaVu Sans;font-size:6px;font-stretch:normal;font-style:normal;font-weight:normal;text-anchor:middle;" transform="rotate(-0, 112.836929, 37.2)" x="112.836929" y="37.2">ori_metric = asi</text>
   </g>
  </g>
  <g id="axes_2">
   <g id="patch_5">
    <path d="M 197.386142 172.8 
L 346.14 172.8 
L 346.14 43.2 
L 197.386142 43.2 
z
" style="fill:#ffffff;"/>
   </g>
   <g id="matplotlib.axis_3">
    <g id="xtick_7">
     <g id="line2d_16">
      <g>
       <use style="stroke:#000000;stroke-width:0.25;" x="197.386142" xlink:href="#m90e9bdfe6a" y="172.8"/>
      </g>
     </g>
     <g id="text_16">
      <text style="font-family:DejaVu Sans;font-size:6px;font-stretch:normal;font-style:normal;font-weight:normal;text-anchor:middle;" transform="rotate(-0, 197.386142, 184.359063)" x="197.386142" y="184.359063">0.0</text>
     </g>
    </g>
    <g id="xtick_8">
     <g id="line2d_17">
      <g>
       <use style="stroke:#000000;stroke-width:0.25;" x="227.136914" xlink:href="#m90e9bdfe6a" y="172.8"/>
      </g>
     </g>
     <g id="text_17">
      <text style="font-family:DejaVu Sans;font-size:6px;font-stretch:normal;font-style:normal;font-weight:normal;text-anchor:middle;" transform="rotate(-0, 227.136914, 184.359063)" x="227.136914" y="184.359063">0.2</text>
     </g>
    </g>
    <g id="xtick_9">
     <g id="line2d_18">
      <g>
       <use style="stroke:#000000;stroke-width:0.25;" x="256.887685" xlink:href="#m90e9bdfe6a" y="172.8"/>
      </g>
     </g>
     <g id="text_18">
      <text style="font-family:DejaVu Sans;font-size:6px;font-stretch:normal;font-style:normal;font-weight:normal;text-anchor:middle;" transform="rotate(-0, 256.887685, 184.359063)" x="256.887685" y="184.359063">0.4</text>
     </g>
    </g>
    <g id="xtick_10">
     <g id="line2d_19">
      <g>
       <use style="stroke:#000000;stroke-width:0.25;" x="286.638457" xlink:href="#m90e9bdfe6a" y="172.8"/>
      </g>
     </g>
     <g id="text_19">
      <text style="font-family:DejaVu Sans;font-size:6px;font-stretch:normal;font-style:normal;font-weight:normal;text-anchor:middle;" transform="rotate(-0, 286.638457, 184.359063)" x="286.638457" y="184.359063">0.6</text>
     </g>
    </g>
    <g id="xtick_11">
     <g id="line2d_20">
      <g>
       <use style="stroke:#000000;stroke-width:0.25;" x="316.389228" xlink:href="#m90e9bdfe6a" y="172.8"/>
      </g>
     </g>
     <g id="text_20">
      <text style="font-family:DejaVu Sans;font-size:6px;font-stretch:normal;font-style:normal;font-weight:normal;text-anchor:middle;" transform="rotate(-0, 316.389228, 184.359063)" x="316.389228" y="184.359063">0.8</text>
     </g>
    </g>
    <g id="xtick_12">
     <g id="line2d_21">
      <g>
       <use style="stroke:#000000;stroke-width:0.25;" x="346.14" xlink:href="#m90e9bdfe6a" y="172.8"/>
      </g>
     </g>
     <g id="text_21">
      <text style="font-family:DejaVu Sans;font-size:6px;font-stretch:normal;font-style:normal;font-weight:normal;text-anchor:middle;" transform="rotate(-0, 346.14, 184.359063)" x="346.14" y="184.359063">1.0</text>
     </g>
    </g>
    <g id="text_22">
     <text style="font-family:DejaVu Sans;font-size:6px;font-stretch:normal;font-style:normal;font-weight:normal;text-anchor:middle;" transform="rotate(-0, 271.763071, 194.165938)" x="271.763071" y="194.165938">value</text>
    </g>
   </g>
   <g id="matplotlib.axis_4">
    <g id="ytick_7">
     <g id="line2d_22">
      <g>
       <use style="stroke:#000000;stroke-width:0.25;" x="197.386142" xlink:href="#m0913741ed8" y="172.8"/>
      </g>
     </g>
    </g>
    <g id="ytick_8">
     <g id="line2d_23">
      <g>
       <use style="stroke:#000000;stroke-width:0.25;" x="197.386142" xlink:href="#m0913741ed8" y="146.88"/>
      </g>
     </g>
    </g>
    <g id="ytick_9">
     <g id="line2d_24">
      <g>
       <use style="stroke:#000000;stroke-width:0.25;" x="197.386142" xlink:href="#m0913741ed8" y="120.96"/>
      </g>
     </g>
    </g>
    <g id="ytick_10">
     <g id="line2d_25">
      <g>
       <use style="stroke:#000000;stroke-width:0.25;" x="197.386142" xlink:href="#m0913741ed8" y="95.04"/>
      </g>
     </g>
    </g>
    <g id="ytick_11">
     <g id="line2d_26">
      <g>
       <use style="stroke:#000000;stroke-width:0.25;" x="197.386142" xlink:href="#m0913741ed8" y="69.12"/>
      </g>
     </g>
    </g>
    <g id="ytick_12">
     <g id="line2d_27">
      <g>
       <use style="stroke:#000000;stroke-width:0.25;" x="197.386142" xlink:href="#m0913741ed8" y="43.2"/>
      </g>
     </g>
    </g>
   </g>
   <g id="line2d_28">
    <path clip-path="url(#p4dce31eb3a)" d="M 202.141986 172.8 
L 202.141986 172.419941 
L 203.790819 172.419941 
L 203.790819 172.039883 
L 204.190384 172.039883 
L 204.190384 171.659824 
L 204.392754 171.659824 
L 204.392754 171.279765 
L 205.767818 171.279765 
L 205.767818 170.899707 
L 206.137696 170.899707 
L 206.137696 170.519648 
L 206.65653 170.519648 
L 206.688863 169.759531 
L 207.131314 169.759531 
L 207.131314 169.379472 
L 207.446712 169.379472 
L 207.446712 168.999413 
L 208.488873 168.999413 
L 208.489033 168.239296 
L 208.621384 168.239296 
L 208.621384 167.859238 
L 208.880244 167.859238 
L 208.880244 167.479179 
L 209.349395 167.479179 
L 209.349395 167.09912 
L 209.745912 167.09912 
L 209.780974 166.339003 
L 210.043014 166.339003 
L 210.043014 165.958944 
L 210.220657 165.958944 
L 210.298583 165.198827 
L 210.36999 165.198827 
L 210.436388 164.43871 
L 210.666611 164.43871 
L 210.666611 164.058651 
L 210.906818 164.058651 
L 211.012647 162.918475 
L 211.100381 162.918475 
L 211.126391 162.158358 
L 211.243022 162.158358 
L 211.243022 161.778299 
L 211.697396 161.778299 
L 211.730258 161.018182 
L 212.396328 161.018182 
L 212.433771 160.258065 
L 212.574588 160.258065 
L 212.574588 159.878006 
L 212.772249 159.878006 
L 212.857676 159.117889 
L 213.02678 159.117889 
L 213.086582 158.357771 
L 213.342259 158.357771 
L 213.342259 157.977713 
L 214.004 157.977713 
L 214.004 157.597654 
L 214.160408 157.597654 
L 214.160408 157.217595 
L 214.314711 157.217595 
L 214.314711 156.837537 
L 214.535615 156.837537 
L 214.618276 155.697361 
L 214.755454 155.697361 
L 214.788941 154.937243 
L 214.898931 154.937243 
L 214.99059 153.03695 
L 215.111043 153.03695 
L 215.111043 152.656891 
L 215.45199 152.656891 
L 215.45199 152.276833 
L 215.566073 152.276833 
L 215.566073 151.896774 
L 215.80704 151.896774 
L 215.80704 151.516716 
L 215.987682 151.516716 
L 216.081067 150.37654 
L 216.165365 150.37654 
L 216.165365 149.996481 
L 216.285548 149.996481 
L 216.285548 149.616422 
L 216.429846 149.616422 
L 216.506996 148.856305 
L 216.551885 148.856305 
L 216.57713 148.096188 
L 216.709982 148.096188 
L 216.709982 147.716129 
L 216.903197 147.716129 
L 216.977864 146.956012 
L 217.071484 146.956012 
L 217.18161 145.815836 
L 217.213096 145.815836 
L 217.213096 145.435777 
L 217.467824 145.435777 
L 217.517403 144.67566 
L 217.682871 144.67566 
L 217.725795 143.915543 
L 217.983798 143.915543 
L 218.061991 143.155425 
L 218.278325 143.155425 
L 218.291778 142.395308 
L 218.419307 142.395308 
L 218.419307 142.015249 
L 218.65606 142.015249 
L 218.665057 141.255132 
L 218.809359 141.255132 
L 218.809359 140.875073 
L 219.127023 140.875073 
L 219.132975 140.114956 
L 219.403634 140.114956 
L 219.494464 138.594721 
L 219.620778 138.594721 
L 219.620778 138.214663 
L 219.818991 138.214663 
L 219.818991 137.834604 
L 219.93962 137.834604 
L 219.93962 137.454545 
L 220.202576 137.454545 
L 220.202576 137.074487 
L 220.421134 137.074487 
L 220.500867 136.31437 
L 220.773276 136.31437 
L 220.846809 135.174194 
L 221.021524 135.174194 
L 221.082692 134.414076 
L 221.189024 134.414076 
L 221.19627 133.653959 
L 221.354131 133.653959 
L 221.354131 133.2739 
L 221.493926 133.2739 
L 221.584828 132.513783 
L 221.860251 132.513783 
L 221.914321 131.753666 
L 222.148559 131.753666 
L 222.149245 130.993548 
L 222.269388 130.993548 
L 222.320177 130.233431 
L 222.480183 130.233431 
L 222.480183 129.853372 
L 222.663858 129.853372 
L 222.663858 129.473314 
L 222.898639 129.473314 
L 222.911499 128.713196 
L 223.126668 128.713196 
L 223.23111 127.953079 
L 223.303826 127.953079 
L 223.303826 127.573021 
L 223.664883 127.573021 
L 223.664883 127.192962 
L 223.777165 127.192962 
L 223.838071 126.052786 
L 224.002254 126.052786 
L 224.002254 125.672727 
L 224.171792 125.672727 
L 224.22592 124.532551 
L 224.378403 124.532551 
L 224.416504 123.772434 
L 225.055407 123.772434 
L 225.055407 123.392375 
L 225.177208 123.392375 
L 225.269995 122.632258 
L 225.515007 122.632258 
L 225.580732 121.872141 
L 225.639641 121.872141 
L 225.639641 121.492082 
L 225.960358 121.492082 
L 225.960358 121.112023 
L 226.227483 121.112023 
L 226.227483 120.731965 
L 226.411893 120.731965 
L 226.480495 119.971848 
L 226.612072 119.971848 
L 226.612072 119.591789 
L 226.864598 119.591789 
L 226.864598 119.21173 
L 226.987654 119.21173 
L 226.987654 118.831672 
L 227.100082 118.831672 
L 227.100082 118.451613 
L 227.54278 118.451613 
L 227.65036 117.691496 
L 227.706646 117.691496 
L 227.706646 117.311437 
L 227.821046 117.311437 
L 227.821046 116.931378 
L 227.945828 116.931378 
L 227.945828 116.55132 
L 228.155261 116.55132 
L 228.20018 115.791202 
L 229.149186 115.791202 
L 229.206581 115.031085 
L 229.380617 115.031085 
L 229.426759 113.890909 
L 229.743014 113.890909 
L 229.837535 112.750733 
L 229.868344 112.750733 
L 229.868344 112.370674 
L 230.06385 112.370674 
L 230.06385 111.990616 
L 230.187471 111.990616 
L 230.187471 111.610557 
L 230.342773 111.610557 
L 230.342773 111.230499 
L 230.601834 111.230499 
L 230.601834 110.85044 
L 230.808606 110.85044 
L 230.808606 110.470381 
L 230.936263 110.470381 
L 230.95938 109.710264 
L 231.175869 109.710264 
L 231.175869 109.330205 
L 231.433418 109.330205 
L 231.480743 108.570088 
L 231.555161 108.570088 
L 231.555161 108.190029 
L 232.256079 108.190029 
L 232.256079 107.809971 
L 232.378907 107.809971 
L 232.450607 107.049853 
L 232.84785 107.049853 
L 232.888342 106.289736 
L 233.024413 106.289736 
L 233.024413 105.909677 
L 233.534457 105.909677 
L 233.611522 105.14956 
L 234.01106 105.14956 
L 234.01106 104.769501 
L 234.251029 104.769501 
L 234.357262 104.009384 
L 234.781614 104.009384 
L 234.781614 103.629326 
L 234.975724 103.629326 
L 235.05299 102.48915 
L 235.152387 102.48915 
L 235.187304 101.729032 
L 235.742801 101.729032 
L 235.769588 100.968915 
L 236.116873 100.968915 
L 236.188948 100.208798 
L 236.507893 100.208798 
L 236.507893 99.828739 
L 236.788764 99.828739 
L 236.788764 99.44868 
L 237.068975 99.44868 
L 237.068975 99.068622 
L 237.486176 99.068622 
L 237.486176 98.688563 
L 237.598871 98.688563 
L 237.598871 98.308504 
L 238.131669 98.308504 
L 238.131669 97.928446 
L 238.598252 97.928446 
L 238.598252 97.548387 
L 238.785982 97.548387 
L 238.810371 96.408211 
L 239.208521 96.408211 
L 239.208521 96.028152 
L 239.75029 96.028152 
L 239.756475 95.268035 
L 240.307529 95.268035 
L 240.307529 94.887977 
L 240.455577 94.887977 
L 240.476032 94.127859 
L 240.704953 94.127859 
L 240.704953 93.747801 
L 241.063789 93.747801 
L 241.063789 93.367742 
L 241.479262 93.367742 
L 241.479262 92.987683 
L 241.724198 92.987683 
L 241.724198 92.607625 
L 241.849031 92.607625 
L 241.849031 92.227566 
L 242.029295 92.227566 
L 242.123994 91.467449 
L 242.281694 91.467449 
L 242.281694 91.08739 
L 243.274744 91.08739 
L 243.274744 90.707331 
L 243.740738 90.707331 
L 243.740738 90.327273 
L 243.879722 90.327273 
L 243.879722 89.947214 
L 244.250558 89.947214 
L 244.250558 89.567155 
L 245.044455 89.567155 
L 245.044455 89.187097 
L 246.078043 89.187097 
L 246.171084 88.426979 
L 246.631618 88.426979 
L 246.631618 88.046921 
L 246.818419 88.046921 
L 246.818419 87.666862 
L 247.901554 87.666862 
L 247.901554 87.286804 
L 248.034646 87.286804 
L 248.06943 86.526686 
L 248.972481 86.526686 
L 248.972481 86.146628 
L 249.088256 86.146628 
L 249.088256 85.766569 
L 249.244542 85.766569 
L 249.244542 85.38651 
L 249.379348 85.38651 
L 249.379348 85.006452 
L 250.157744 85.006452 
L 250.157744 84.626393 
L 250.344462 84.626393 
L 250.392434 83.866276 
L 250.645667 83.866276 
L 250.753879 83.106158 
L 251.183931 83.106158 
L 251.183931 82.7261 
L 251.366607 82.7261 
L 251.366607 82.346041 
L 251.479851 82.346041 
L 251.479851 81.965982 
L 251.89825 81.965982 
L 251.89825 81.585924 
L 252.161257 81.585924 
L 252.161257 81.205865 
L 252.483159 81.205865 
L 252.570735 80.445748 
L 253.242305 80.445748 
L 253.242305 80.065689 
L 253.48842 80.065689 
L 253.48842 79.68563 
L 253.694908 79.68563 
L 253.79645 78.925513 
L 254.190101 78.925513 
L 254.190101 78.545455 
L 254.806836 78.545455 
L 254.823783 77.785337 
L 254.962055 77.785337 
L 254.985201 77.02522 
L 255.082533 77.02522 
L 255.082533 76.645161 
L 256.108655 76.645161 
L 256.183316 75.885044 
L 256.311261 75.885044 
L 256.311261 75.504985 
L 256.43777 75.504985 
L 256.43777 75.124927 
L 256.789588 75.124927 
L 256.789588 74.744868 
L 258.783279 74.744868 
L 258.783279 74.364809 
L 258.927242 74.364809 
L 258.927242 73.984751 
L 259.076697 73.984751 
L 259.076697 73.604692 
L 259.819776 73.604692 
L 259.890852 72.464516 
L 260.451171 72.464516 
L 260.451171 72.084457 
L 261.314623 72.084457 
L 261.314623 71.704399 
L 262.044009 71.704399 
L 262.086206 70.944282 
L 263.107424 70.944282 
L 263.107424 70.564223 
L 264.401569 70.564223 
L 264.493917 69.804106 
L 265.154305 69.804106 
L 265.154305 69.424047 
L 265.991531 69.424047 
L 265.991531 69.043988 
L 266.28462 69.043988 
L 266.28462 68.66393 
L 267.289088 68.66393 
L 267.289088 68.283871 
L 267.590728 68.283871 
L 267.590728 67.903812 
L 267.780554 67.903812 
L 267.832931 67.143695 
L 267.995219 67.143695 
L 267.995219 66.763636 
L 268.642525 66.763636 
L 268.642525 66.383578 
L 268.792378 66.383578 
L 268.792378 66.003519 
L 269.774896 66.003519 
L 269.774896 65.62346 
L 270.022573 65.62346 
L 270.107228 64.863343 
L 270.323927 64.863343 
L 270.323927 64.483284 
L 270.530877 64.483284 
L 270.530877 64.103226 
L 270.718437 64.103226 
L 270.718437 63.723167 
L 271.046488 63.723167 
L 271.046488 63.343109 
L 271.323745 63.343109 
L 271.323745 62.96305 
L 271.632214 62.96305 
L 271.632214 62.582991 
L 271.974703 62.582991 
L 272.00128 61.822874 
L 272.752653 61.822874 
L 272.752653 61.442815 
L 272.898007 61.442815 
L 272.997754 60.682698 
L 273.500745 60.682698 
L 273.500745 60.302639 
L 273.704959 60.302639 
L 273.704959 59.922581 
L 274.602784 59.922581 
L 274.700525 58.782405 
L 275.658644 58.782405 
L 275.706149 58.022287 
L 275.960957 58.022287 
L 276.023132 57.26217 
L 277.091021 57.26217 
L 277.091021 56.882111 
L 277.320678 56.882111 
L 277.320678 56.502053 
L 277.668858 56.502053 
L 277.668858 56.121994 
L 277.87167 56.121994 
L 277.87167 55.741935 
L 278.371359 55.741935 
L 278.371359 55.361877 
L 279.14939 55.361877 
L 279.14939 54.981818 
L 279.266917 54.981818 
L 279.266917 54.60176 
L 280.2802 54.60176 
L 280.2802 54.221701 
L 281.748229 54.221701 
L 281.748229 53.841642 
L 282.387881 53.841642 
L 282.464006 53.081525 
L 282.813673 53.081525 
L 282.813673 52.701466 
L 283.423054 52.701466 
L 283.423054 52.321408 
L 285.143493 52.321408 
L 285.143493 51.941349 
L 286.831167 51.941349 
L 286.831167 51.56129 
L 287.252519 51.56129 
L 287.252519 51.181232 
L 287.373108 51.181232 
L 287.373108 50.801173 
L 287.555977 50.801173 
L 287.555977 50.421114 
L 287.740537 50.421114 
L 287.740537 50.041056 
L 288.447615 50.041056 
L 288.535155 48.90088 
L 288.702105 48.90088 
L 288.702105 48.520821 
L 290.651904 48.520821 
L 290.651904 48.140762 
L 292.056172 48.140762 
L 292.056172 47.760704 
L 292.796622 47.760704 
L 292.796622 47.380645 
L 296.681253 47.380645 
L 296.681253 47.000587 
L 297.481289 47.000587 
L 297.481289 46.620528 
L 298.743656 46.620528 
L 298.743656 46.240469 
L 299.746576 46.240469 
L 299.746576 45.860411 
L 302.15724 45.860411 
L 302.15724 45.480352 
L 302.565304 45.480352 
L 302.565304 45.100293 
L 303.836598 45.100293 
L 303.836598 44.720235 
L 306.6948 44.720235 
L 306.6948 44.340176 
L 315.360858 44.340176 
L 315.360858 43.960117 
L 316.401415 43.960117 
L 316.401415 43.580059 
L 319.597312 43.580059 
L 319.597312 43.2 
L 319.597312 43.2 
" style="fill:none;stroke:#ff00ff;stroke-linecap:square;stroke-width:1.5;"/>
   </g>
   <g id="line2d_29">
    <path clip-path="url(#p4dce31eb3a)" d="M 201.968855 172.8 
L 201.968855 172.357679 
L 203.286826 172.357679 
L 203.286826 171.915358 
L 203.64033 171.915358 
L 203.64033 171.473038 
L 205.848479 171.473038 
L 205.848479 171.030717 
L 206.084172 171.030717 
L 206.084172 170.588396 
L 206.735118 170.588396 
L 206.735118 170.146075 
L 207.084883 170.146075 
L 207.084883 169.703754 
L 207.416835 169.703754 
L 207.416835 169.261433 
L 207.960278 169.261433 
L 207.960278 168.819113 
L 208.077719 168.819113 
L 208.135993 167.934471 
L 208.728207 167.934471 
L 208.728207 167.49215 
L 209.502057 167.49215 
L 209.565756 166.607509 
L 210.779169 166.607509 
L 210.779169 166.165188 
L 211.650459 166.165188 
L 211.650459 165.722867 
L 212.036696 165.722867 
L 212.067823 164.838225 
L 212.190013 164.838225 
L 212.278782 163.511263 
L 212.337381 163.511263 
L 212.3919 162.626621 
L 212.571045 162.626621 
L 212.571045 162.1843 
L 213.271368 162.1843 
L 213.350887 161.299659 
L 213.526177 161.299659 
L 213.526177 160.857338 
L 213.738184 160.857338 
L 213.797327 159.530375 
L 214.086442 159.530375 
L 214.086442 159.088055 
L 214.203966 159.088055 
L 214.203966 158.645734 
L 214.558289 158.645734 
L 214.558289 158.203413 
L 214.695577 158.203413 
L 214.695577 157.761092 
L 215.128853 157.761092 
L 215.144286 156.876451 
L 215.827062 156.876451 
L 215.827062 156.43413 
L 216.012324 156.43413 
L 216.012324 155.991809 
L 216.134925 155.991809 
L 216.134925 155.549488 
L 216.281032 155.549488 
L 216.356542 154.222526 
L 216.443467 154.222526 
L 216.46141 153.337884 
L 216.90616 153.337884 
L 216.962015 152.453242 
L 217.060572 152.453242 
L 217.145247 151.568601 
L 217.299594 151.568601 
L 217.357837 150.683959 
L 217.422017 150.683959 
L 217.422017 150.241638 
L 217.591641 150.241638 
L 217.591641 149.799317 
L 217.856488 149.799317 
L 217.856488 149.356997 
L 218.181049 149.356997 
L 218.229637 148.472355 
L 218.294955 148.472355 
L 218.389365 147.587713 
L 218.506873 147.587713 
L 218.513288 146.703072 
L 218.937849 146.703072 
L 218.937849 146.260751 
L 219.076542 146.260751 
L 219.076542 145.81843 
L 219.245276 145.81843 
L 219.245276 145.376109 
L 220.202073 145.376109 
L 220.202073 144.933788 
L 220.653475 144.933788 
L 220.757406 144.049147 
L 220.861993 144.049147 
L 220.970008 143.164505 
L 221.087251 143.164505 
L 221.177981 142.279863 
L 221.644002 142.279863 
L 221.644002 141.837543 
L 221.831889 141.837543 
L 221.831889 141.395222 
L 222.112537 141.395222 
L 222.112537 140.952901 
L 222.328457 140.952901 
L 222.328457 140.51058 
L 222.484056 140.51058 
L 222.484056 140.068259 
L 222.720039 140.068259 
L 222.720039 139.625939 
L 222.887919 139.625939 
L 222.947771 138.741297 
L 223.461451 138.741297 
L 223.503283 137.856655 
L 223.706618 137.856655 
L 223.706618 137.414334 
L 223.842085 137.414334 
L 223.842085 136.972014 
L 224.486944 136.972014 
L 224.486944 136.529693 
L 224.653709 136.529693 
L 224.653709 136.087372 
L 224.853099 136.087372 
L 224.853099 135.645051 
L 225.282164 135.645051 
L 225.282164 135.20273 
L 225.557729 135.20273 
L 225.577991 134.318089 
L 225.905182 134.318089 
L 225.905182 133.875768 
L 226.835805 133.875768 
L 226.835805 133.433447 
L 227.093641 133.433447 
L 227.106734 132.548805 
L 227.74436 132.548805 
L 227.74436 132.106485 
L 227.92115 132.106485 
L 228.029815 130.779522 
L 228.573465 130.779522 
L 228.573465 130.337201 
L 228.954871 130.337201 
L 228.954871 129.894881 
L 229.188658 129.894881 
L 229.188658 129.45256 
L 229.514711 129.45256 
L 229.514711 129.010239 
L 230.014986 129.010239 
L 230.014986 128.567918 
L 230.14214 128.567918 
L 230.153059 127.683276 
L 230.625204 127.683276 
L 230.625204 127.240956 
L 230.78826 127.240956 
L 230.882815 126.356314 
L 230.965921 126.356314 
L 231.075224 125.029352 
L 231.085572 125.029352 
L 231.085572 124.587031 
L 231.322988 124.587031 
L 231.322988 124.14471 
L 231.518301 124.14471 
L 231.518301 123.702389 
L 231.939823 123.702389 
L 231.939823 123.260068 
L 233.735309 123.260068 
L 233.735309 122.817747 
L 234.523035 122.817747 
L 234.523035 122.375427 
L 235.509014 122.375427 
L 235.509014 121.933106 
L 235.843844 121.933106 
L 235.916765 121.048464 
L 235.961408 121.048464 
L 235.961408 120.606143 
L 236.094238 120.606143 
L 236.094238 120.163823 
L 236.253165 120.163823 
L 236.308961 118.83686 
L 237.056368 118.83686 
L 237.056368 118.394539 
L 237.195857 118.394539 
L 237.195857 117.952218 
L 237.457292 117.952218 
L 237.46986 117.067577 
L 238.199195 117.067577 
L 238.251765 116.182935 
L 238.349267 116.182935 
L 238.349267 115.740614 
L 238.530276 115.740614 
L 238.540434 114.855973 
L 238.689482 114.855973 
L 238.689482 114.413652 
L 238.865676 114.413652 
L 238.963878 113.52901 
L 240.077979 113.52901 
L 240.077979 113.086689 
L 240.765906 113.086689 
L 240.855114 112.202048 
L 241.608409 112.202048 
L 241.702091 110.875085 
L 242.200948 110.875085 
L 242.200948 110.432765 
L 242.361458 110.432765 
L 242.361458 109.990444 
L 242.908817 109.990444 
L 242.908817 109.548123 
L 243.749327 109.548123 
L 243.784419 108.663481 
L 244.354364 108.663481 
L 244.414659 107.77884 
L 244.739557 107.77884 
L 244.739557 107.336519 
L 244.909493 107.336519 
L 244.909493 106.894198 
L 245.953085 106.894198 
L 245.953085 106.451877 
L 246.413694 106.451877 
L 246.413694 106.009556 
L 246.704961 106.009556 
L 246.704961 105.567235 
L 247.25582 105.567235 
L 247.348162 104.682594 
L 248.110835 104.682594 
L 248.110835 104.240273 
L 248.245756 104.240273 
L 248.245756 103.797952 
L 249.131479 103.797952 
L 249.191102 102.913311 
L 250.1049 102.913311 
L 250.1049 102.47099 
L 250.305397 102.47099 
L 250.305397 102.028669 
L 250.743954 102.028669 
L 250.743954 101.586348 
L 251.601533 101.586348 
L 251.601533 101.144027 
L 251.729978 101.144027 
L 251.729978 100.701706 
L 251.846894 100.701706 
L 251.846894 100.259386 
L 252.321836 100.259386 
L 252.381773 99.374744 
L 252.933733 99.374744 
L 252.959814 98.490102 
L 253.474175 98.490102 
L 253.474175 98.047782 
L 253.611915 98.047782 
L 253.611915 97.605461 
L 253.794369 97.605461 
L 253.794369 97.16314 
L 254.06531 97.16314 
L 254.06531 96.720819 
L 254.562794 96.720819 
L 254.562794 96.278498 
L 254.856433 96.278498 
L 254.856433 95.836177 
L 255.484664 95.836177 
L 255.484664 95.393857 
L 255.640687 95.393857 
L 255.640687 94.951536 
L 255.889115 94.951536 
L 255.889115 94.509215 
L 256.040453 94.509215 
L 256.040453 94.066894 
L 256.739352 94.066894 
L 256.739352 93.624573 
L 256.986873 93.624573 
L 256.986873 93.182253 
L 257.478987 93.182253 
L 257.478987 92.739932 
L 259.318799 92.739932 
L 259.318799 92.297611 
L 259.63075 92.297611 
L 259.63075 91.85529 
L 260.296763 91.85529 
L 260.296763 91.412969 
L 260.466288 91.412969 
L 260.466288 90.970648 
L 261.078162 90.970648 
L 261.078162 90.528328 
L 261.631194 90.528328 
L 261.631194 90.086007 
L 262.38033 90.086007 
L 262.38033 89.643686 
L 262.649605 89.643686 
L 262.649605 89.201365 
L 263.704527 89.201365 
L 263.704527 88.759044 
L 264.178654 88.759044 
L 264.178654 88.316724 
L 264.38619 88.316724 
L 264.38619 87.874403 
L 264.649014 87.874403 
L 264.649014 87.432082 
L 264.988344 87.432082 
L 265.072697 86.54744 
L 265.13897 86.54744 
L 265.13897 86.105119 
L 265.398969 86.105119 
L 265.398969 85.662799 
L 265.579836 85.662799 
L 265.579836 85.220478 
L 265.749481 85.220478 
L 265.749481 84.778157 
L 266.558718 84.778157 
L 266.615318 83.451195 
L 266.78629 83.451195 
L 266.78629 83.008874 
L 267.194833 83.008874 
L 267.194833 82.566553 
L 268.032938 82.566553 
L 268.129869 81.681911 
L 268.229456 81.681911 
L 268.229456 81.23959 
L 268.449379 81.23959 
L 268.551674 80.354949 
L 269.253328 80.354949 
L 269.253328 79.912628 
L 269.488587 79.912628 
L 269.488587 79.470307 
L 269.634902 79.470307 
L 269.634902 79.027986 
L 269.989934 79.027986 
L 269.989934 78.585666 
L 270.136952 78.585666 
L 270.136952 78.143345 
L 270.288237 78.143345 
L 270.288237 77.701024 
L 270.893874 77.701024 
L 270.893874 77.258703 
L 271.362355 77.258703 
L 271.423318 76.374061 
L 272.35479 76.374061 
L 272.365914 75.48942 
L 272.545909 75.48942 
L 272.605395 74.604778 
L 273.079531 74.604778 
L 273.079531 74.162457 
L 273.670971 74.162457 
L 273.670971 73.720137 
L 274.257968 73.720137 
L 274.257968 73.277816 
L 274.472172 73.277816 
L 274.472172 72.835495 
L 274.858763 72.835495 
L 274.906747 71.950853 
L 275.251922 71.950853 
L 275.251922 71.508532 
L 275.49718 71.508532 
L 275.49718 71.066212 
L 275.940493 71.066212 
L 275.940493 70.623891 
L 276.750577 70.623891 
L 276.750577 70.18157 
L 277.156061 70.18157 
L 277.156061 69.739249 
L 277.289947 69.739249 
L 277.289947 69.296928 
L 277.401807 69.296928 
L 277.401807 68.854608 
L 277.651559 68.854608 
L 277.651559 68.412287 
L 278.449356 68.412287 
L 278.495995 67.527645 
L 278.895558 67.527645 
L 278.895558 67.085324 
L 280.064867 67.085324 
L 280.140184 66.200683 
L 280.316435 66.200683 
L 280.316435 65.758362 
L 280.49719 65.758362 
L 280.542066 64.87372 
L 281.827653 64.87372 
L 281.827653 64.431399 
L 282.500422 64.431399 
L 282.500422 63.989078 
L 282.880982 63.989078 
L 282.886306 63.104437 
L 284.100477 63.104437 
L 284.100477 62.662116 
L 284.818475 62.662116 
L 284.818475 62.219795 
L 285.643059 62.219795 
L 285.643059 61.777474 
L 286.325231 61.777474 
L 286.325231 61.335154 
L 286.774887 61.335154 
L 286.774887 60.892833 
L 287.086557 60.892833 
L 287.123994 60.008191 
L 287.256013 60.008191 
L 287.256013 59.56587 
L 287.490349 59.56587 
L 287.490349 59.123549 
L 287.770247 59.123549 
L 287.770247 58.681229 
L 288.959498 58.681229 
L 288.959498 58.238908 
L 289.105455 58.238908 
L 289.105455 57.796587 
L 290.651272 57.796587 
L 290.651272 57.354266 
L 291.235946 57.354266 
L 291.235946 56.911945 
L 291.416164 56.911945 
L 291.464196 56.027304 
L 292.415424 56.027304 
L 292.415424 55.584983 
L 292.800702 55.584983 
L 292.800702 55.142662 
L 293.322593 55.142662 
L 293.322593 54.700341 
L 293.745277 54.700341 
L 293.745277 54.25802 
L 294.630233 54.25802 
L 294.630233 53.8157 
L 294.828933 53.8157 
L 294.828933 53.373379 
L 295.671287 53.373379 
L 295.671287 52.931058 
L 296.733796 52.931058 
L 296.777364 52.046416 
L 299.672931 52.046416 
L 299.672931 51.604096 
L 300.687395 51.604096 
L 300.687395 51.161775 
L 301.581799 51.161775 
L 301.631696 50.277133 
L 302.300851 50.277133 
L 302.300851 49.834812 
L 303.350477 49.834812 
L 303.350477 49.392491 
L 304.323636 49.392491 
L 304.423281 48.50785 
L 304.500177 48.50785 
L 304.500177 48.065529 
L 305.115825 48.065529 
L 305.115825 47.623208 
L 305.458219 47.623208 
L 305.458219 47.180887 
L 314.27221 47.180887 
L 314.27221 46.738567 
L 314.953834 46.738567 
L 314.953834 46.296246 
L 317.414046 46.296246 
L 317.421766 45.411604 
L 317.639214 45.411604 
L 317.639214 44.969283 
L 320.976784 44.969283 
L 320.976784 44.526962 
L 326.536132 44.526962 
L 326.536132 44.084642 
L 330.795097 44.084642 
L 330.795097 43.642321 
L 331.07023 43.642321 
L 331.07023 43.2 
L 331.07023 43.2 
" style="fill:none;stroke:#ffa500;stroke-linecap:square;stroke-width:1.5;"/>
   </g>
   <g id="line2d_30">
    <path clip-path="url(#p4dce31eb3a)" d="M 213.38717 172.8 
L 213.38717 171.477551 
L 214.605307 171.477551 
L 214.605307 170.155102 
L 220.389874 170.155102 
L 220.389874 168.832653 
L 222.639723 168.832653 
L 222.639723 167.510204 
L 223.973105 167.510204 
L 223.973105 166.187755 
L 225.690373 166.187755 
L 225.690373 164.865306 
L 226.32465 164.865306 
L 226.32465 163.542857 
L 226.999609 163.542857 
L 226.999609 162.220408 
L 227.174868 162.220408 
L 227.264887 159.57551 
L 229.901549 159.57551 
L 229.901549 158.253061 
L 230.364576 158.253061 
L 230.364576 156.930612 
L 230.660193 156.930612 
L 230.660193 155.608163 
L 231.268274 155.608163 
L 231.268274 154.285714 
L 234.80658 154.285714 
L 234.80658 152.963265 
L 237.435506 152.963265 
L 237.435506 151.640816 
L 238.005954 151.640816 
L 238.005954 150.318367 
L 239.060248 150.318367 
L 239.060248 148.995918 
L 241.613355 148.995918 
L 241.613355 147.673469 
L 241.832817 147.673469 
L 241.832817 146.35102 
L 246.286603 146.35102 
L 246.286603 145.028571 
L 248.572048 145.028571 
L 248.572048 143.706122 
L 249.658561 143.706122 
L 249.764565 141.061224 
L 250.42939 141.061224 
L 250.42939 139.738776 
L 251.571021 139.738776 
L 251.571021 138.416327 
L 251.997777 138.416327 
L 252.025885 135.771429 
L 252.218479 135.771429 
L 252.218479 134.44898 
L 252.783114 134.44898 
L 252.783114 133.126531 
L 254.126667 133.126531 
L 254.126667 131.804082 
L 255.850341 131.804082 
L 255.850341 130.481633 
L 256.039134 130.481633 
L 256.039134 129.159184 
L 257.518483 129.159184 
L 257.518483 127.836735 
L 257.816775 127.836735 
L 257.816775 126.514286 
L 258.790735 126.514286 
L 258.790735 125.191837 
L 259.403781 125.191837 
L 259.403781 123.869388 
L 259.601894 123.869388 
L 259.601894 122.546939 
L 260.638535 122.546939 
L 260.638535 121.22449 
L 260.804437 121.22449 
L 260.804437 119.902041 
L 261.774684 119.902041 
L 261.794658 117.257143 
L 262.243087 117.257143 
L 262.243087 115.934694 
L 262.641718 115.934694 
L 262.726552 113.289796 
L 262.903339 113.289796 
L 262.903339 111.967347 
L 264.666547 111.967347 
L 264.666547 110.644898 
L 270.046735 110.644898 
L 270.046735 109.322449 
L 270.857747 109.322449 
L 270.857747 108 
L 271.726024 108 
L 271.726024 106.677551 
L 272.853342 106.677551 
L 272.853342 105.355102 
L 273.761913 105.355102 
L 273.761913 104.032653 
L 274.017838 104.032653 
L 274.017838 102.710204 
L 274.238413 102.710204 
L 274.238413 101.387755 
L 274.376007 101.387755 
L 274.376007 100.065306 
L 274.992406 100.065306 
L 274.992406 98.742857 
L 275.377408 98.742857 
L 275.377408 97.420408 
L 275.747427 97.420408 
L 275.747427 96.097959 
L 276.770023 96.097959 
L 276.770023 94.77551 
L 276.89387 94.77551 
L 276.89387 93.453061 
L 277.048354 93.453061 
L 277.048354 92.130612 
L 277.43449 92.130612 
L 277.43449 90.808163 
L 279.408075 90.808163 
L 279.512095 88.163265 
L 280.273337 88.163265 
L 280.273337 86.840816 
L 280.593457 86.840816 
L 280.593457 85.518367 
L 282.319736 85.518367 
L 282.319736 84.195918 
L 283.618736 84.195918 
L 283.618736 82.873469 
L 284.470605 82.873469 
L 284.470605 81.55102 
L 285.397606 81.55102 
L 285.397606 80.228571 
L 286.45951 80.228571 
L 286.45951 78.906122 
L 286.71295 78.906122 
L 286.71295 77.583673 
L 286.900321 77.583673 
L 286.900321 76.261224 
L 287.169041 76.261224 
L 287.169041 74.938776 
L 287.658453 74.938776 
L 287.658453 73.616327 
L 289.081648 73.616327 
L 289.145359 70.971429 
L 289.72016 70.971429 
L 289.72016 69.64898 
L 291.605878 69.64898 
L 291.605878 68.326531 
L 292.045233 68.326531 
L 292.045233 67.004082 
L 292.724353 67.004082 
L 292.724353 65.681633 
L 294.101363 65.681633 
L 294.101363 64.359184 
L 295.527744 64.359184 
L 295.527744 63.036735 
L 296.785093 63.036735 
L 296.785093 61.714286 
L 297.324736 61.714286 
L 297.324736 60.391837 
L 297.615206 60.391837 
L 297.615206 59.069388 
L 298.028611 59.069388 
L 298.028611 57.746939 
L 298.324902 57.746939 
L 298.324902 56.42449 
L 298.532569 56.42449 
L 298.532569 55.102041 
L 298.991841 55.102041 
L 298.991841 53.779592 
L 299.626102 53.779592 
L 299.626102 52.457143 
L 301.213065 52.457143 
L 301.213065 51.134694 
L 304.935886 51.134694 
L 304.935886 49.812245 
L 305.128678 49.812245 
L 305.128678 48.489796 
L 307.649666 48.489796 
L 307.649666 47.167347 
L 307.793278 47.167347 
L 307.793278 45.844898 
L 309.000866 45.844898 
L 309.000866 44.522449 
L 321.049363 44.522449 
L 321.049363 43.2 
L 321.049363 43.2 
" style="fill:none;stroke:#1e90ff;stroke-linecap:square;stroke-width:1.5;"/>
   </g>
   <g id="patch_6">
    <path d="M 197.386142 172.8 
L 197.386142 43.2 
" style="fill:none;stroke:#000000;stroke-linecap:square;stroke-linejoin:miter;stroke-width:0.25;"/>
   </g>
   <g id="patch_7">
    <path d="M 197.386142 172.8 
L 346.14 172.8 
" style="fill:none;stroke:#000000;stroke-linecap:square;stroke-linejoin:miter;stroke-width:0.25;"/>
   </g>
   <g id="text_23">
    <text style="font-family:DejaVu Sans;font-size:6px;font-stretch:normal;font-style:normal;font-weight:normal;text-anchor:middle;" transform="rotate(-0, 271.763071, 37.2)" x="271.763071" y="37.2">ori_metric = dsi</text>
   </g>
  </g>
  <g id="text_24">
   <text style="font-family:DejaVu Sans;font-size:6px;font-stretch:normal;font-style:normal;font-weight:normal;text-anchor:start;" transform="rotate(-0, 0, 21.6)" x="0" y="21.6">CDFs, gof=0.50</text>
  </g>
  <g id="text_25">
   <text style="font-family:DejaVu Sans;font-size:8px;font-stretch:normal;font-style:normal;font-weight:normal;text-anchor:start;" transform="rotate(-0, 0, 6.11375)" x="0" y="6.11375">traces001|fit-dff_responsive-nstds-2.50-thr10.00_boot-1000-resample-20</text>
  </g>
  <g id="legend_1">
   <g id="text_26">
    <text style="font-family:DejaVu Sans;font-size:6px;font-stretch:normal;font-style:normal;font-weight:normal;text-anchor:start;" transform="rotate(-0, 345.332813, 96.361875)" x="345.332813" y="96.361875">visual_area</text>
   </g>
   <g id="line2d_31">
    <path d="M 349.272656 103.235625 
L 361.272656 103.235625 
" style="fill:none;stroke:#1e90ff;stroke-linecap:square;stroke-width:1.5;"/>
   </g>
   <g id="line2d_32"/>
   <g id="text_27">
    <text style="font-family:DejaVu Sans;font-size:6px;font-stretch:normal;font-style:normal;font-weight:normal;text-anchor:start;" transform="rotate(-0, 366.072656, 105.335625)" x="366.072656" y="105.335625">Li</text>
   </g>
   <g id="line2d_33">
    <path d="M 349.272656 112.0425 
L 361.272656 112.0425 
" style="fill:none;stroke:#ffa500;stroke-linecap:square;stroke-width:1.5;"/>
   </g>
   <g id="line2d_34"/>
   <g id="text_28">
    <text style="font-family:DejaVu Sans;font-size:6px;font-stretch:normal;font-style:normal;font-weight:normal;text-anchor:start;" transform="rotate(-0, 366.072656, 114.1425)" x="366.072656" y="114.1425">Lm</text>
   </g>
   <g id="line2d_35">
    <path d="M 349.272656 120.849375 
L 361.272656 120.849375 
" style="fill:none;stroke:#ff00ff;stroke-linecap:square;stroke-width:1.5;"/>
   </g>
   <g id="line2d_36"/>
   <g id="text_29">
    <text style="font-family:DejaVu Sans;font-size:6px;font-stretch:normal;font-style:normal;font-weight:normal;text-anchor:start;" transform="rotate(-0, 366.072656, 122.949375)" x="366.072656" y="122.949375">V1</text>
   </g>
  </g>
 </g>
 <defs>
  <clipPath id="p29512aef14">
   <rect height="129.6" width="148.753858" x="38.46" y="43.2"/>
  </clipPath>
  <clipPath id="p4dce31eb3a">
   <rect height="129.6" width="148.753858" x="197.386142" y="43.2"/>
  </clipPath>
 </defs>
</svg>
