<?xml version="1.0" encoding="utf-8" standalone="no"?>
<!DOCTYPE svg PUBLIC "-//W3C//DTD SVG 1.1//EN"
  "http://www.w3.org/Graphics/SVG/1.1/DTD/svg11.dtd">
<!-- Created with matplotlib (http://matplotlib.org/) -->
<svg height="216pt" version="1.1" viewBox="0 0 576 216" width="576pt" xmlns="http://www.w3.org/2000/svg" xmlns:xlink="http://www.w3.org/1999/xlink">
 <defs>
  <style type="text/css">
*{stroke-linecap:butt;stroke-linejoin:round;}
  </style>
 </defs>
 <g id="figure_1">
  <g id="patch_1">
   <path d="M 0 216 
L 576 216 
L 576 0 
L 0 0 
z
" style="fill:none;opacity:0;"/>
  </g>
  <g id="axes_1">
   <g id="patch_2">
    <path d="M 57.6 192.24 
L 193.129412 192.24 
L 193.129412 64.8 
L 57.6 64.8 
z
" style="fill:#ffffff;"/>
   </g>
   <g id="patch_3">
    <path clip-path="url(#pb2c33b9f92)" d="M 66.176005 192.24 
L 66.176005 189.384202 
L 78.255303 189.384202 
L 78.255303 187.00437 
L 90.334601 187.00437 
L 90.334601 177.961008 
L 102.413899 177.961008 
L 102.413899 167.965714 
L 114.493197 167.965714 
L 114.493197 147.023193 
L 126.572495 147.023193 
L 126.572495 104.662185 
L 138.651793 104.662185 
L 138.651793 156.066555 
L 150.73109 156.066555 
L 150.73109 177.961008 
L 162.810388 177.961008 
L 162.810388 185.576471 
L 174.889686 185.576471 
L 174.889686 188.432269 
L 186.968984 188.432269 
L 186.968984 192.24 
" style="fill:none;opacity:0.7;stroke:#ff8c00;stroke-linejoin:miter;stroke-width:3;"/>
   </g>
   <g id="patch_4">
    <path clip-path="url(#pb2c33b9f92)" d="M 65.756578 192.24 
L 65.756578 186.243417 
L 77.848251 186.243417 
L 77.848251 187.242848 
L 89.939923 187.242848 
L 89.939923 184.744272 
L 102.031596 184.744272 
L 102.031596 169.253099 
L 114.123269 169.253099 
L 114.123269 148.764775 
L 126.214941 148.764775 
L 126.214941 140.769331 
L 138.306614 140.769331 
L 138.306614 147.765345 
L 150.398287 147.765345 
L 150.398287 162.257086 
L 162.489959 162.257086 
L 162.489959 173.750537 
L 174.581632 173.750537 
L 174.581632 181.246265 
L 186.673305 181.246265 
L 186.673305 192.24 
" style="fill:none;opacity:0.7;stroke:#8b008b;stroke-linejoin:miter;stroke-width:3;"/>
   </g>
   <g id="patch_5">
    <path clip-path="url(#pb2c33b9f92)" d="M 63.760428 192.24 
L 63.760428 190.128465 
L 76.033945 190.128465 
L 76.033945 187.665008 
L 88.307462 187.665008 
L 88.307462 184.145784 
L 100.580978 184.145784 
L 100.580978 178.866947 
L 112.854495 178.866947 
L 112.854495 158.103524 
L 125.128012 158.103524 
L 125.128012 148.95354 
L 137.401529 148.95354 
L 137.401529 133.11703 
L 149.675046 133.11703 
L 149.675046 150.009307 
L 161.948563 150.009307 
L 161.948563 170.068886 
L 174.22208 170.068886 
L 174.22208 180.978482 
L 186.495597 180.978482 
L 186.495597 192.24 
" style="fill:none;opacity:0.7;stroke:#000080;stroke-linejoin:miter;stroke-width:3;"/>
   </g>
   <g id="matplotlib.axis_1">
    <g id="xtick_1">
     <g id="line2d_1">
      <defs>
       <path d="M 0 0 
L 0 3.5 
" id="m410644d021" style="stroke:#000000;stroke-width:0.8;"/>
      </defs>
      <g>
       <use style="stroke:#000000;stroke-width:0.8;" x="61.004951" xlink:href="#m410644d021" y="194.24"/>
      </g>
     </g>
     <g id="text_1">
      <!-- 0.5 -->
      <defs>
       <path d="M 31.78125 66.40625 
Q 24.171875 66.40625 20.328125 58.90625 
Q 16.5 51.421875 16.5 36.375 
Q 16.5 21.390625 20.328125 13.890625 
Q 24.171875 6.390625 31.78125 6.390625 
Q 39.453125 6.390625 43.28125 13.890625 
Q 47.125 21.390625 47.125 36.375 
Q 47.125 51.421875 43.28125 58.90625 
Q 39.453125 66.40625 31.78125 66.40625 
z
M 31.78125 74.21875 
Q 44.046875 74.21875 50.515625 64.515625 
Q 56.984375 54.828125 56.984375 36.375 
Q 56.984375 17.96875 50.515625 8.265625 
Q 44.046875 -1.421875 31.78125 -1.421875 
Q 19.53125 -1.421875 13.0625 8.265625 
Q 6.59375 17.96875 6.59375 36.375 
Q 6.59375 54.828125 13.0625 64.515625 
Q 19.53125 74.21875 31.78125 74.21875 
z
" id="DejaVuSans-30"/>
       <path d="M 10.6875 12.40625 
L 21 12.40625 
L 21 0 
L 10.6875 0 
z
" id="DejaVuSans-2e"/>
       <path d="M 10.796875 72.90625 
L 49.515625 72.90625 
L 49.515625 64.59375 
L 19.828125 64.59375 
L 19.828125 46.734375 
Q 21.96875 47.46875 24.109375 47.828125 
Q 26.265625 48.1875 28.421875 48.1875 
Q 40.625 48.1875 47.75 41.5 
Q 54.890625 34.8125 54.890625 23.390625 
Q 54.890625 11.625 47.5625 5.09375 
Q 40.234375 -1.421875 26.90625 -1.421875 
Q 22.3125 -1.421875 17.546875 -0.640625 
Q 12.796875 0.140625 7.71875 1.703125 
L 7.71875 11.625 
Q 12.109375 9.234375 16.796875 8.0625 
Q 21.484375 6.890625 26.703125 6.890625 
Q 35.15625 6.890625 40.078125 11.328125 
Q 45.015625 15.765625 45.015625 23.390625 
Q 45.015625 31 40.078125 35.4375 
Q 35.15625 39.890625 26.703125 39.890625 
Q 22.75 39.890625 18.8125 39.015625 
Q 14.890625 38.140625 10.796875 36.28125 
z
" id="DejaVuSans-35"/>
      </defs>
      <g transform="translate(51.463076 210.358125)scale(0.12 -0.12)">
       <use xlink:href="#DejaVuSans-30"/>
       <use x="63.623047" xlink:href="#DejaVuSans-2e"/>
       <use x="95.410156" xlink:href="#DejaVuSans-35"/>
      </g>
     </g>
    </g>
    <g id="xtick_2">
     <g id="line2d_2">
      <g>
       <use style="stroke:#000000;stroke-width:0.8;" x="123.987484" xlink:href="#m410644d021" y="194.24"/>
      </g>
     </g>
    </g>
    <g id="xtick_3">
     <g id="line2d_3">
      <g>
       <use style="stroke:#000000;stroke-width:0.8;" x="186.970016" xlink:href="#m410644d021" y="194.24"/>
      </g>
     </g>
     <g id="text_2">
      <!-- 0.1 -->
      <defs>
       <path d="M 12.40625 8.296875 
L 28.515625 8.296875 
L 28.515625 63.921875 
L 10.984375 60.40625 
L 10.984375 69.390625 
L 28.421875 72.90625 
L 38.28125 72.90625 
L 38.28125 8.296875 
L 54.390625 8.296875 
L 54.390625 0 
L 12.40625 0 
z
" id="DejaVuSans-31"/>
      </defs>
      <g transform="translate(177.428141 210.358125)scale(0.12 -0.12)">
       <use xlink:href="#DejaVuSans-30"/>
       <use x="63.623047" xlink:href="#DejaVuSans-2e"/>
       <use x="95.410156" xlink:href="#DejaVuSans-31"/>
      </g>
     </g>
    </g>
   </g>
   <g id="matplotlib.axis_2">
    <g id="ytick_1">
     <g id="line2d_4">
      <defs>
       <path d="M 0 0 
L -3.5 0 
" id="m03af592a0a" style="stroke:#000000;stroke-width:0.8;"/>
      </defs>
      <g>
       <use style="stroke:#000000;stroke-width:0.8;" x="55.6" xlink:href="#m03af592a0a" y="192.24"/>
      </g>
     </g>
     <g id="text_3">
      <!-- 0.0 -->
      <g transform="translate(29.51625 196.799062)scale(0.12 -0.12)">
       <use xlink:href="#DejaVuSans-30"/>
       <use x="63.623047" xlink:href="#DejaVuSans-2e"/>
       <use x="95.410156" xlink:href="#DejaVuSans-30"/>
      </g>
     </g>
    </g>
    <g id="ytick_2">
     <g id="line2d_5">
      <g>
       <use style="stroke:#000000;stroke-width:0.8;" x="55.6" xlink:href="#m03af592a0a" y="168.203697"/>
      </g>
     </g>
     <g id="text_4">
      <!-- 0.1 -->
      <g transform="translate(29.51625 172.76276)scale(0.12 -0.12)">
       <use xlink:href="#DejaVuSans-30"/>
       <use x="63.623047" xlink:href="#DejaVuSans-2e"/>
       <use x="95.410156" xlink:href="#DejaVuSans-31"/>
      </g>
     </g>
    </g>
    <g id="ytick_3">
     <g id="line2d_6">
      <g>
       <use style="stroke:#000000;stroke-width:0.8;" x="55.6" xlink:href="#m03af592a0a" y="144.167395"/>
      </g>
     </g>
     <g id="text_5">
      <!-- 0.2 -->
      <defs>
       <path d="M 19.1875 8.296875 
L 53.609375 8.296875 
L 53.609375 0 
L 7.328125 0 
L 7.328125 8.296875 
Q 12.9375 14.109375 22.625 23.890625 
Q 32.328125 33.6875 34.8125 36.53125 
Q 39.546875 41.84375 41.421875 45.53125 
Q 43.3125 49.21875 43.3125 52.78125 
Q 43.3125 58.59375 39.234375 62.25 
Q 35.15625 65.921875 28.609375 65.921875 
Q 23.96875 65.921875 18.8125 64.3125 
Q 13.671875 62.703125 7.8125 59.421875 
L 7.8125 69.390625 
Q 13.765625 71.78125 18.9375 73 
Q 24.125 74.21875 28.421875 74.21875 
Q 39.75 74.21875 46.484375 68.546875 
Q 53.21875 62.890625 53.21875 53.421875 
Q 53.21875 48.921875 51.53125 44.890625 
Q 49.859375 40.875 45.40625 35.40625 
Q 44.1875 33.984375 37.640625 27.21875 
Q 31.109375 20.453125 19.1875 8.296875 
z
" id="DejaVuSans-32"/>
      </defs>
      <g transform="translate(29.51625 148.726457)scale(0.12 -0.12)">
       <use xlink:href="#DejaVuSans-30"/>
       <use x="63.623047" xlink:href="#DejaVuSans-2e"/>
       <use x="95.410156" xlink:href="#DejaVuSans-32"/>
      </g>
     </g>
    </g>
    <g id="ytick_4">
     <g id="line2d_7">
      <g>
       <use style="stroke:#000000;stroke-width:0.8;" x="55.6" xlink:href="#m03af592a0a" y="120.131092"/>
      </g>
     </g>
     <g id="text_6">
      <!-- 0.3 -->
      <defs>
       <path d="M 40.578125 39.3125 
Q 47.65625 37.796875 51.625 33 
Q 55.609375 28.21875 55.609375 21.1875 
Q 55.609375 10.40625 48.1875 4.484375 
Q 40.765625 -1.421875 27.09375 -1.421875 
Q 22.515625 -1.421875 17.65625 -0.515625 
Q 12.796875 0.390625 7.625 2.203125 
L 7.625 11.71875 
Q 11.71875 9.328125 16.59375 8.109375 
Q 21.484375 6.890625 26.8125 6.890625 
Q 36.078125 6.890625 40.9375 10.546875 
Q 45.796875 14.203125 45.796875 21.1875 
Q 45.796875 27.640625 41.28125 31.265625 
Q 36.765625 34.90625 28.71875 34.90625 
L 20.21875 34.90625 
L 20.21875 43.015625 
L 29.109375 43.015625 
Q 36.375 43.015625 40.234375 45.921875 
Q 44.09375 48.828125 44.09375 54.296875 
Q 44.09375 59.90625 40.109375 62.90625 
Q 36.140625 65.921875 28.71875 65.921875 
Q 24.65625 65.921875 20.015625 65.03125 
Q 15.375 64.15625 9.8125 62.3125 
L 9.8125 71.09375 
Q 15.4375 72.65625 20.34375 73.4375 
Q 25.25 74.21875 29.59375 74.21875 
Q 40.828125 74.21875 47.359375 69.109375 
Q 53.90625 64.015625 53.90625 55.328125 
Q 53.90625 49.265625 50.4375 45.09375 
Q 46.96875 40.921875 40.578125 39.3125 
z
" id="DejaVuSans-33"/>
      </defs>
      <g transform="translate(29.51625 124.690155)scale(0.12 -0.12)">
       <use xlink:href="#DejaVuSans-30"/>
       <use x="63.623047" xlink:href="#DejaVuSans-2e"/>
       <use x="95.410156" xlink:href="#DejaVuSans-33"/>
      </g>
     </g>
    </g>
    <g id="ytick_5">
     <g id="line2d_8">
      <g>
       <use style="stroke:#000000;stroke-width:0.8;" x="55.6" xlink:href="#m03af592a0a" y="96.09479"/>
      </g>
     </g>
     <g id="text_7">
      <!-- 0.4 -->
      <defs>
       <path d="M 37.796875 64.3125 
L 12.890625 25.390625 
L 37.796875 25.390625 
z
M 35.203125 72.90625 
L 47.609375 72.90625 
L 47.609375 25.390625 
L 58.015625 25.390625 
L 58.015625 17.1875 
L 47.609375 17.1875 
L 47.609375 0 
L 37.796875 0 
L 37.796875 17.1875 
L 4.890625 17.1875 
L 4.890625 26.703125 
z
" id="DejaVuSans-34"/>
      </defs>
      <g transform="translate(29.51625 100.653852)scale(0.12 -0.12)">
       <use xlink:href="#DejaVuSans-30"/>
       <use x="63.623047" xlink:href="#DejaVuSans-2e"/>
       <use x="95.410156" xlink:href="#DejaVuSans-34"/>
      </g>
     </g>
    </g>
    <g id="ytick_6">
     <g id="line2d_9">
      <g>
       <use style="stroke:#000000;stroke-width:0.8;" x="55.6" xlink:href="#m03af592a0a" y="72.058487"/>
      </g>
     </g>
     <g id="text_8">
      <!-- 0.5 -->
      <g transform="translate(29.51625 76.61755)scale(0.12 -0.12)">
       <use xlink:href="#DejaVuSans-30"/>
       <use x="63.623047" xlink:href="#DejaVuSans-2e"/>
       <use x="95.410156" xlink:href="#DejaVuSans-35"/>
      </g>
     </g>
    </g>
   </g>
   <g id="patch_6">
    <path d="M 55.6 192.24 
L 55.6 72.058487 
" style="fill:none;stroke:#000000;stroke-linecap:square;stroke-linejoin:miter;stroke-width:0.8;"/>
   </g>
   <g id="patch_7">
    <path d="M 61.004951 194.24 
L 186.970016 194.24 
" style="fill:none;stroke:#000000;stroke-linecap:square;stroke-linejoin:miter;stroke-width:0.8;"/>
   </g>
   <g id="text_9">
    <!-- sf -->
    <defs>
     <path d="M 44.28125 53.078125 
L 44.28125 44.578125 
Q 40.484375 46.53125 36.375 47.5 
Q 32.28125 48.484375 27.875 48.484375 
Q 21.1875 48.484375 17.84375 46.4375 
Q 14.5 44.390625 14.5 40.28125 
Q 14.5 37.15625 16.890625 35.375 
Q 19.28125 33.59375 26.515625 31.984375 
L 29.59375 31.296875 
Q 39.15625 29.25 43.1875 25.515625 
Q 47.21875 21.78125 47.21875 15.09375 
Q 47.21875 7.46875 41.1875 3.015625 
Q 35.15625 -1.421875 24.609375 -1.421875 
Q 20.21875 -1.421875 15.453125 -0.5625 
Q 10.6875 0.296875 5.421875 2 
L 5.421875 11.28125 
Q 10.40625 8.6875 15.234375 7.390625 
Q 20.0625 6.109375 24.8125 6.109375 
Q 31.15625 6.109375 34.5625 8.28125 
Q 37.984375 10.453125 37.984375 14.40625 
Q 37.984375 18.0625 35.515625 20.015625 
Q 33.0625 21.96875 24.703125 23.78125 
L 21.578125 24.515625 
Q 13.234375 26.265625 9.515625 29.90625 
Q 5.8125 33.546875 5.8125 39.890625 
Q 5.8125 47.609375 11.28125 51.796875 
Q 16.75 56 26.8125 56 
Q 31.78125 56 36.171875 55.265625 
Q 40.578125 54.546875 44.28125 53.078125 
z
" id="DejaVuSans-73"/>
     <path d="M 37.109375 75.984375 
L 37.109375 68.5 
L 28.515625 68.5 
Q 23.6875 68.5 21.796875 66.546875 
Q 19.921875 64.59375 19.921875 59.515625 
L 19.921875 54.6875 
L 34.71875 54.6875 
L 34.71875 47.703125 
L 19.921875 47.703125 
L 19.921875 0 
L 10.890625 0 
L 10.890625 47.703125 
L 2.296875 47.703125 
L 2.296875 54.6875 
L 10.890625 54.6875 
L 10.890625 58.5 
Q 10.890625 67.625 15.140625 71.796875 
Q 19.390625 75.984375 28.609375 75.984375 
z
" id="DejaVuSans-66"/>
    </defs>
    <g transform="translate(120.126893 58.8)scale(0.12 -0.12)">
     <use xlink:href="#DejaVuSans-73"/>
     <use x="52.099609" xlink:href="#DejaVuSans-66"/>
    </g>
   </g>
  </g>
  <g id="axes_2">
   <g id="patch_8">
    <path d="M 220.235294 192.24 
L 355.764706 192.24 
L 355.764706 64.8 
L 220.235294 64.8 
z
" style="fill:#ffffff;"/>
   </g>
   <g id="patch_9">
    <path clip-path="url(#pdda6b12b40)" d="M 226.395722 192.24 
L 226.395722 189.384202 
L 238.693436 189.384202 
L 238.693436 181.768739 
L 250.991149 181.768739 
L 250.991149 182.720672 
L 263.288863 182.720672 
L 263.288863 177.485042 
L 275.586577 177.485042 
L 275.586577 149.403025 
L 287.884291 149.403025 
L 287.884291 137.027899 
L 300.182004 137.027899 
L 300.182004 137.979832 
L 312.479718 137.979832 
L 312.479718 161.302185 
L 324.777432 161.302185 
L 324.777432 180.34084 
L 337.075146 180.34084 
L 337.075146 184.624538 
L 349.372859 184.624538 
L 349.372859 192.24 
" style="fill:none;opacity:0.7;stroke:#ff8c00;stroke-linejoin:miter;stroke-width:3;"/>
   </g>
   <g id="patch_10">
    <path clip-path="url(#pdda6b12b40)" d="M 227.16205 192.24 
L 227.16205 185.243987 
L 239.362172 185.243987 
L 239.362172 181.74598 
L 251.562295 181.74598 
L 251.562295 175.749397 
L 263.762417 175.749397 
L 263.762417 167.254239 
L 275.96254 167.254239 
L 275.96254 148.764775 
L 288.162662 148.764775 
L 288.162662 153.761927 
L 300.362784 153.761927 
L 300.362784 148.764775 
L 312.562907 148.764775 
L 312.562907 160.258225 
L 324.763029 160.258225 
L 324.763029 178.747689 
L 336.963151 178.747689 
L 336.963151 181.74598 
L 349.163274 181.74598 
L 349.163274 192.24 
" style="fill:none;opacity:0.7;stroke:#8b008b;stroke-linejoin:miter;stroke-width:3;"/>
   </g>
   <g id="patch_11">
    <path clip-path="url(#pdda6b12b40)" d="M 227.629632 192.24 
L 227.629632 190.480388 
L 239.827096 190.480388 
L 239.827096 189.42462 
L 252.024561 189.42462 
L 252.024561 189.42462 
L 264.222026 189.42462 
L 264.222026 183.793861 
L 276.41949 183.793861 
L 276.41949 179.21887 
L 288.616955 179.21887 
L 288.616955 175.699645 
L 300.81442 175.699645 
L 300.81442 151.065075 
L 313.011884 151.065075 
L 313.011884 142.618936 
L 325.209349 142.618936 
L 325.209349 138.395867 
L 337.406813 138.395867 
L 337.406813 141.915091 
L 349.604278 141.915091 
L 349.604278 192.24 
" style="fill:none;opacity:0.7;stroke:#000080;stroke-linejoin:miter;stroke-width:3;"/>
   </g>
   <g id="matplotlib.axis_3">
    <g id="xtick_4">
     <g id="line2d_10">
      <g>
       <use style="stroke:#000000;stroke-width:0.8;" x="226.336593" xlink:href="#m410644d021" y="194.24"/>
      </g>
     </g>
     <g id="text_10">
      <!-- 200 -->
      <g transform="translate(214.884093 210.358125)scale(0.12 -0.12)">
       <use xlink:href="#DejaVuSans-32"/>
       <use x="63.623047" xlink:href="#DejaVuSans-30"/>
       <use x="127.246094" xlink:href="#DejaVuSans-30"/>
      </g>
     </g>
    </g>
    <g id="xtick_5">
     <g id="line2d_11">
      <g>
       <use style="stroke:#000000;stroke-width:0.8;" x="288.000452" xlink:href="#m410644d021" y="194.24"/>
      </g>
     </g>
    </g>
    <g id="xtick_6">
     <g id="line2d_12">
      <g>
       <use style="stroke:#000000;stroke-width:0.8;" x="349.66431" xlink:href="#m410644d021" y="194.24"/>
      </g>
     </g>
     <g id="text_11">
      <!-- 20 -->
      <g transform="translate(342.02931 210.358125)scale(0.12 -0.12)">
       <use xlink:href="#DejaVuSans-32"/>
       <use x="63.623047" xlink:href="#DejaVuSans-30"/>
      </g>
     </g>
    </g>
   </g>
   <g id="matplotlib.axis_4">
    <g id="ytick_7">
     <g id="line2d_13">
      <g>
       <use style="stroke:#000000;stroke-width:0.8;" x="218.235294" xlink:href="#m03af592a0a" y="192.24"/>
      </g>
     </g>
    </g>
    <g id="ytick_8">
     <g id="line2d_14">
      <g>
       <use style="stroke:#000000;stroke-width:0.8;" x="218.235294" xlink:href="#m03af592a0a" y="168.203697"/>
      </g>
     </g>
    </g>
    <g id="ytick_9">
     <g id="line2d_15">
      <g>
       <use style="stroke:#000000;stroke-width:0.8;" x="218.235294" xlink:href="#m03af592a0a" y="144.167395"/>
      </g>
     </g>
    </g>
    <g id="ytick_10">
     <g id="line2d_16">
      <g>
       <use style="stroke:#000000;stroke-width:0.8;" x="218.235294" xlink:href="#m03af592a0a" y="120.131092"/>
      </g>
     </g>
    </g>
    <g id="ytick_11">
     <g id="line2d_17">
      <g>
       <use style="stroke:#000000;stroke-width:0.8;" x="218.235294" xlink:href="#m03af592a0a" y="96.09479"/>
      </g>
     </g>
    </g>
    <g id="ytick_12">
     <g id="line2d_18">
      <g>
       <use style="stroke:#000000;stroke-width:0.8;" x="218.235294" xlink:href="#m03af592a0a" y="72.058487"/>
      </g>
     </g>
    </g>
   </g>
   <g id="patch_12">
    <path d="M 218.235294 192.24 
L 218.235294 72.058487 
" style="fill:none;stroke:#000000;stroke-linecap:square;stroke-linejoin:miter;stroke-width:0.8;"/>
   </g>
   <g id="patch_13">
    <path d="M 226.336593 194.24 
L 349.66431 194.24 
" style="fill:none;stroke:#000000;stroke-linecap:square;stroke-linejoin:miter;stroke-width:0.8;"/>
   </g>
   <g id="text_12">
    <!-- size -->
    <defs>
     <path d="M 9.421875 54.6875 
L 18.40625 54.6875 
L 18.40625 0 
L 9.421875 0 
z
M 9.421875 75.984375 
L 18.40625 75.984375 
L 18.40625 64.59375 
L 9.421875 64.59375 
z
" id="DejaVuSans-69"/>
     <path d="M 5.515625 54.6875 
L 48.1875 54.6875 
L 48.1875 46.484375 
L 14.40625 7.171875 
L 48.1875 7.171875 
L 48.1875 0 
L 4.296875 0 
L 4.296875 8.203125 
L 38.09375 47.515625 
L 5.515625 47.515625 
z
" id="DejaVuSans-7a"/>
     <path d="M 56.203125 29.59375 
L 56.203125 25.203125 
L 14.890625 25.203125 
Q 15.484375 15.921875 20.484375 11.0625 
Q 25.484375 6.203125 34.421875 6.203125 
Q 39.59375 6.203125 44.453125 7.46875 
Q 49.3125 8.734375 54.109375 11.28125 
L 54.109375 2.78125 
Q 49.265625 0.734375 44.1875 -0.34375 
Q 39.109375 -1.421875 33.890625 -1.421875 
Q 20.796875 -1.421875 13.15625 6.1875 
Q 5.515625 13.8125 5.515625 26.8125 
Q 5.515625 40.234375 12.765625 48.109375 
Q 20.015625 56 32.328125 56 
Q 43.359375 56 49.78125 48.890625 
Q 56.203125 41.796875 56.203125 29.59375 
z
M 47.21875 32.234375 
Q 47.125 39.59375 43.09375 43.984375 
Q 39.0625 48.390625 32.421875 48.390625 
Q 24.90625 48.390625 20.390625 44.140625 
Q 15.875 39.890625 15.1875 32.171875 
z
" id="DejaVuSans-65"/>
    </defs>
    <g transform="translate(276.366562 58.8)scale(0.12 -0.12)">
     <use xlink:href="#DejaVuSans-73"/>
     <use x="52.099609" xlink:href="#DejaVuSans-69"/>
     <use x="79.882812" xlink:href="#DejaVuSans-7a"/>
     <use x="132.373047" xlink:href="#DejaVuSans-65"/>
    </g>
   </g>
  </g>
  <g id="axes_3">
   <g id="patch_14">
    <path d="M 382.870588 192.24 
L 518.4 192.24 
L 518.4 64.8 
L 382.870588 64.8 
z
" style="fill:#ffffff;"/>
   </g>
   <g id="patch_15">
    <path clip-path="url(#pf8f3cb5fae)" d="M 393.873994 192.24 
L 393.873994 190.336134 
L 405.445626 190.336134 
L 405.445626 190.812101 
L 417.017258 190.812101 
L 417.017258 188.908235 
L 428.58889 188.908235 
L 428.58889 185.100504 
L 440.160522 185.100504 
L 440.160522 143.215462 
L 451.732154 143.215462 
L 451.732154 70.868571 
L 463.303786 70.868571 
L 463.303786 148.927059 
L 474.875418 148.927059 
L 474.875418 185.576471 
L 486.44705 185.576471 
L 486.44705 187.956303 
L 498.018682 187.956303 
L 498.018682 190.336134 
L 509.590314 190.336134 
L 509.590314 192.24 
" style="fill:none;opacity:0.7;stroke:#ff8c00;stroke-linejoin:miter;stroke-width:3;"/>
   </g>
   <g id="patch_16">
    <path clip-path="url(#pf8f3cb5fae)" d="M 389.031016 192.24 
L 389.031016 187.742563 
L 401.351872 187.742563 
L 401.351872 187.742563 
L 413.672727 187.742563 
L 413.672727 186.243417 
L 425.993583 186.243417 
L 425.993583 175.249682 
L 438.314439 175.249682 
L 438.314439 138.77047 
L 450.635294 138.77047 
L 450.635294 94.79553 
L 462.95615 94.79553 
L 462.95615 153.761927 
L 475.277005 153.761927 
L 475.277005 180.246835 
L 487.597861 180.246835 
L 487.597861 190.740854 
L 499.918717 190.740854 
L 499.918717 186.743132 
L 512.239572 186.743132 
L 512.239572 192.24 
" style="fill:none;opacity:0.7;stroke:#8b008b;stroke-linejoin:miter;stroke-width:3;"/>
   </g>
   <g id="patch_17">
    <path clip-path="url(#pf8f3cb5fae)" d="M 397.269837 192.24 
L 397.269837 190.480388 
L 408.249749 190.480388 
L 408.249749 190.480388 
L 419.22966 190.480388 
L 419.22966 189.072698 
L 430.209572 189.072698 
L 430.209572 183.793861 
L 441.189484 183.793861 
L 441.189484 146.842005 
L 452.169395 146.842005 
L 452.169395 71.882526 
L 463.149307 71.882526 
L 463.149307 146.842005 
L 474.129218 146.842005 
L 474.129218 182.738094 
L 485.10913 182.738094 
L 485.10913 189.42462 
L 496.089041 189.42462 
L 496.089041 190.480388 
L 507.068953 190.480388 
L 507.068953 192.24 
" style="fill:none;opacity:0.7;stroke:#000080;stroke-linejoin:miter;stroke-width:3;"/>
   </g>
   <g id="matplotlib.axis_5">
    <g id="xtick_7">
     <g id="line2d_19">
      <g>
       <use style="stroke:#000000;stroke-width:0.8;" x="388.36237" xlink:href="#m410644d021" y="194.24"/>
      </g>
     </g>
     <g id="text_13">
      <!-- 20 -->
      <g transform="translate(380.72737 210.358125)scale(0.12 -0.12)">
       <use xlink:href="#DejaVuSans-32"/>
       <use x="63.623047" xlink:href="#DejaVuSans-30"/>
      </g>
     </g>
    </g>
    <g id="xtick_8">
     <g id="line2d_20">
      <g>
       <use style="stroke:#000000;stroke-width:0.8;" x="450.437969" xlink:href="#m410644d021" y="194.24"/>
      </g>
     </g>
    </g>
    <g id="xtick_9">
     <g id="line2d_21">
      <g>
       <use style="stroke:#000000;stroke-width:0.8;" x="512.513569" xlink:href="#m410644d021" y="194.24"/>
      </g>
     </g>
     <g id="text_14">
      <!-- 10 -->
      <g transform="translate(504.878569 210.358125)scale(0.12 -0.12)">
       <use xlink:href="#DejaVuSans-31"/>
       <use x="63.623047" xlink:href="#DejaVuSans-30"/>
      </g>
     </g>
    </g>
   </g>
   <g id="matplotlib.axis_6">
    <g id="ytick_13">
     <g id="line2d_22">
      <g>
       <use style="stroke:#000000;stroke-width:0.8;" x="380.870588" xlink:href="#m03af592a0a" y="192.24"/>
      </g>
     </g>
    </g>
    <g id="ytick_14">
     <g id="line2d_23">
      <g>
       <use style="stroke:#000000;stroke-width:0.8;" x="380.870588" xlink:href="#m03af592a0a" y="168.203697"/>
      </g>
     </g>
    </g>
    <g id="ytick_15">
     <g id="line2d_24">
      <g>
       <use style="stroke:#000000;stroke-width:0.8;" x="380.870588" xlink:href="#m03af592a0a" y="144.167395"/>
      </g>
     </g>
    </g>
    <g id="ytick_16">
     <g id="line2d_25">
      <g>
       <use style="stroke:#000000;stroke-width:0.8;" x="380.870588" xlink:href="#m03af592a0a" y="120.131092"/>
      </g>
     </g>
    </g>
    <g id="ytick_17">
     <g id="line2d_26">
      <g>
       <use style="stroke:#000000;stroke-width:0.8;" x="380.870588" xlink:href="#m03af592a0a" y="96.09479"/>
      </g>
     </g>
    </g>
    <g id="ytick_18">
     <g id="line2d_27">
      <g>
       <use style="stroke:#000000;stroke-width:0.8;" x="380.870588" xlink:href="#m03af592a0a" y="72.058487"/>
      </g>
     </g>
    </g>
   </g>
   <g id="patch_18">
    <path d="M 380.870588 192.24 
L 380.870588 72.058487 
" style="fill:none;stroke:#000000;stroke-linecap:square;stroke-linejoin:miter;stroke-width:0.8;"/>
   </g>
   <g id="patch_19">
    <path d="M 388.36237 194.24 
L 512.513569 194.24 
" style="fill:none;stroke:#000000;stroke-linecap:square;stroke-linejoin:miter;stroke-width:0.8;"/>
   </g>
   <g id="text_15">
    <!-- speed -->
    <defs>
     <path d="M 18.109375 8.203125 
L 18.109375 -20.796875 
L 9.078125 -20.796875 
L 9.078125 54.6875 
L 18.109375 54.6875 
L 18.109375 46.390625 
Q 20.953125 51.265625 25.265625 53.625 
Q 29.59375 56 35.59375 56 
Q 45.5625 56 51.78125 48.09375 
Q 58.015625 40.1875 58.015625 27.296875 
Q 58.015625 14.40625 51.78125 6.484375 
Q 45.5625 -1.421875 35.59375 -1.421875 
Q 29.59375 -1.421875 25.265625 0.953125 
Q 20.953125 3.328125 18.109375 8.203125 
z
M 48.6875 27.296875 
Q 48.6875 37.203125 44.609375 42.84375 
Q 40.53125 48.484375 33.40625 48.484375 
Q 26.265625 48.484375 22.1875 42.84375 
Q 18.109375 37.203125 18.109375 27.296875 
Q 18.109375 17.390625 22.1875 11.75 
Q 26.265625 6.109375 33.40625 6.109375 
Q 40.53125 6.109375 44.609375 11.75 
Q 48.6875 17.390625 48.6875 27.296875 
z
" id="DejaVuSans-70"/>
     <path d="M 45.40625 46.390625 
L 45.40625 75.984375 
L 54.390625 75.984375 
L 54.390625 0 
L 45.40625 0 
L 45.40625 8.203125 
Q 42.578125 3.328125 38.25 0.953125 
Q 33.9375 -1.421875 27.875 -1.421875 
Q 17.96875 -1.421875 11.734375 6.484375 
Q 5.515625 14.40625 5.515625 27.296875 
Q 5.515625 40.1875 11.734375 48.09375 
Q 17.96875 56 27.875 56 
Q 33.9375 56 38.25 53.625 
Q 42.578125 51.265625 45.40625 46.390625 
z
M 14.796875 27.296875 
Q 14.796875 17.390625 18.875 11.75 
Q 22.953125 6.109375 30.078125 6.109375 
Q 37.203125 6.109375 41.296875 11.75 
Q 45.40625 17.390625 45.40625 27.296875 
Q 45.40625 37.203125 41.296875 42.84375 
Q 37.203125 48.484375 30.078125 48.484375 
Q 22.953125 48.484375 18.875 42.84375 
Q 14.796875 37.203125 14.796875 27.296875 
z
" id="DejaVuSans-64"/>
    </defs>
    <g transform="translate(432.507794 58.8)scale(0.12 -0.12)">
     <use xlink:href="#DejaVuSans-73"/>
     <use x="52.099609" xlink:href="#DejaVuSans-70"/>
     <use x="115.576172" xlink:href="#DejaVuSans-65"/>
     <use x="177.099609" xlink:href="#DejaVuSans-65"/>
     <use x="238.623047" xlink:href="#DejaVuSans-64"/>
    </g>
   </g>
   <g id="legend_1">
    <g id="patch_20">
     <path d="M 384.470588 38.7075 
L 536.169338 38.7075 
Q 537.769338 38.7075 537.769338 37.1075 
L 537.769338 2.68 
Q 537.769338 1.08 536.169338 1.08 
L 384.470588 1.08 
Q 382.870588 1.08 382.870588 2.68 
L 382.870588 37.1075 
Q 382.870588 38.7075 384.470588 38.7075 
z
" style="fill:#ffffff;opacity:0.8;stroke:#cccccc;stroke-linejoin:miter;"/>
    </g>
    <g id="patch_21">
     <path d="M 386.070588 10.35875 
L 402.070588 10.35875 
L 402.070588 4.75875 
L 386.070588 4.75875 
z
" style="fill:none;opacity:0.7;stroke:#ff8c00;stroke-linejoin:miter;stroke-width:3;"/>
    </g>
    <g id="text_16">
     <!-- Li (n=6 rats, 11 fovs, 505 cells) -->
     <defs>
      <path d="M 9.8125 72.90625 
L 19.671875 72.90625 
L 19.671875 8.296875 
L 55.171875 8.296875 
L 55.171875 0 
L 9.8125 0 
z
" id="DejaVuSans-4c"/>
      <path id="DejaVuSans-20"/>
      <path d="M 31 75.875 
Q 24.46875 64.65625 21.28125 53.65625 
Q 18.109375 42.671875 18.109375 31.390625 
Q 18.109375 20.125 21.3125 9.0625 
Q 24.515625 -2 31 -13.1875 
L 23.1875 -13.1875 
Q 15.875 -1.703125 12.234375 9.375 
Q 8.59375 20.453125 8.59375 31.390625 
Q 8.59375 42.28125 12.203125 53.3125 
Q 15.828125 64.359375 23.1875 75.875 
z
" id="DejaVuSans-28"/>
      <path d="M 54.890625 33.015625 
L 54.890625 0 
L 45.90625 0 
L 45.90625 32.71875 
Q 45.90625 40.484375 42.875 44.328125 
Q 39.84375 48.1875 33.796875 48.1875 
Q 26.515625 48.1875 22.3125 43.546875 
Q 18.109375 38.921875 18.109375 30.90625 
L 18.109375 0 
L 9.078125 0 
L 9.078125 54.6875 
L 18.109375 54.6875 
L 18.109375 46.1875 
Q 21.34375 51.125 25.703125 53.5625 
Q 30.078125 56 35.796875 56 
Q 45.21875 56 50.046875 50.171875 
Q 54.890625 44.34375 54.890625 33.015625 
z
" id="DejaVuSans-6e"/>
      <path d="M 10.59375 45.40625 
L 73.1875 45.40625 
L 73.1875 37.203125 
L 10.59375 37.203125 
z
M 10.59375 25.484375 
L 73.1875 25.484375 
L 73.1875 17.1875 
L 10.59375 17.1875 
z
" id="DejaVuSans-3d"/>
      <path d="M 33.015625 40.375 
Q 26.375 40.375 22.484375 35.828125 
Q 18.609375 31.296875 18.609375 23.390625 
Q 18.609375 15.53125 22.484375 10.953125 
Q 26.375 6.390625 33.015625 6.390625 
Q 39.65625 6.390625 43.53125 10.953125 
Q 47.40625 15.53125 47.40625 23.390625 
Q 47.40625 31.296875 43.53125 35.828125 
Q 39.65625 40.375 33.015625 40.375 
z
M 52.59375 71.296875 
L 52.59375 62.3125 
Q 48.875 64.0625 45.09375 64.984375 
Q 41.3125 65.921875 37.59375 65.921875 
Q 27.828125 65.921875 22.671875 59.328125 
Q 17.53125 52.734375 16.796875 39.40625 
Q 19.671875 43.65625 24.015625 45.921875 
Q 28.375 48.1875 33.59375 48.1875 
Q 44.578125 48.1875 50.953125 41.515625 
Q 57.328125 34.859375 57.328125 23.390625 
Q 57.328125 12.15625 50.6875 5.359375 
Q 44.046875 -1.421875 33.015625 -1.421875 
Q 20.359375 -1.421875 13.671875 8.265625 
Q 6.984375 17.96875 6.984375 36.375 
Q 6.984375 53.65625 15.1875 63.9375 
Q 23.390625 74.21875 37.203125 74.21875 
Q 40.921875 74.21875 44.703125 73.484375 
Q 48.484375 72.75 52.59375 71.296875 
z
" id="DejaVuSans-36"/>
      <path d="M 41.109375 46.296875 
Q 39.59375 47.171875 37.8125 47.578125 
Q 36.03125 48 33.890625 48 
Q 26.265625 48 22.1875 43.046875 
Q 18.109375 38.09375 18.109375 28.8125 
L 18.109375 0 
L 9.078125 0 
L 9.078125 54.6875 
L 18.109375 54.6875 
L 18.109375 46.1875 
Q 20.953125 51.171875 25.484375 53.578125 
Q 30.03125 56 36.53125 56 
Q 37.453125 56 38.578125 55.875 
Q 39.703125 55.765625 41.0625 55.515625 
z
" id="DejaVuSans-72"/>
      <path d="M 34.28125 27.484375 
Q 23.390625 27.484375 19.1875 25 
Q 14.984375 22.515625 14.984375 16.5 
Q 14.984375 11.71875 18.140625 8.90625 
Q 21.296875 6.109375 26.703125 6.109375 
Q 34.1875 6.109375 38.703125 11.40625 
Q 43.21875 16.703125 43.21875 25.484375 
L 43.21875 27.484375 
z
M 52.203125 31.203125 
L 52.203125 0 
L 43.21875 0 
L 43.21875 8.296875 
Q 40.140625 3.328125 35.546875 0.953125 
Q 30.953125 -1.421875 24.3125 -1.421875 
Q 15.921875 -1.421875 10.953125 3.296875 
Q 6 8.015625 6 15.921875 
Q 6 25.140625 12.171875 29.828125 
Q 18.359375 34.515625 30.609375 34.515625 
L 43.21875 34.515625 
L 43.21875 35.40625 
Q 43.21875 41.609375 39.140625 45 
Q 35.0625 48.390625 27.6875 48.390625 
Q 23 48.390625 18.546875 47.265625 
Q 14.109375 46.140625 10.015625 43.890625 
L 10.015625 52.203125 
Q 14.9375 54.109375 19.578125 55.046875 
Q 24.21875 56 28.609375 56 
Q 40.484375 56 46.34375 49.84375 
Q 52.203125 43.703125 52.203125 31.203125 
z
" id="DejaVuSans-61"/>
      <path d="M 18.3125 70.21875 
L 18.3125 54.6875 
L 36.8125 54.6875 
L 36.8125 47.703125 
L 18.3125 47.703125 
L 18.3125 18.015625 
Q 18.3125 11.328125 20.140625 9.421875 
Q 21.96875 7.515625 27.59375 7.515625 
L 36.8125 7.515625 
L 36.8125 0 
L 27.59375 0 
Q 17.1875 0 13.234375 3.875 
Q 9.28125 7.765625 9.28125 18.015625 
L 9.28125 47.703125 
L 2.6875 47.703125 
L 2.6875 54.6875 
L 9.28125 54.6875 
L 9.28125 70.21875 
z
" id="DejaVuSans-74"/>
      <path d="M 11.71875 12.40625 
L 22.015625 12.40625 
L 22.015625 4 
L 14.015625 -11.625 
L 7.71875 -11.625 
L 11.71875 4 
z
" id="DejaVuSans-2c"/>
      <path d="M 30.609375 48.390625 
Q 23.390625 48.390625 19.1875 42.75 
Q 14.984375 37.109375 14.984375 27.296875 
Q 14.984375 17.484375 19.15625 11.84375 
Q 23.34375 6.203125 30.609375 6.203125 
Q 37.796875 6.203125 41.984375 11.859375 
Q 46.1875 17.53125 46.1875 27.296875 
Q 46.1875 37.015625 41.984375 42.703125 
Q 37.796875 48.390625 30.609375 48.390625 
z
M 30.609375 56 
Q 42.328125 56 49.015625 48.375 
Q 55.71875 40.765625 55.71875 27.296875 
Q 55.71875 13.875 49.015625 6.21875 
Q 42.328125 -1.421875 30.609375 -1.421875 
Q 18.84375 -1.421875 12.171875 6.21875 
Q 5.515625 13.875 5.515625 27.296875 
Q 5.515625 40.765625 12.171875 48.375 
Q 18.84375 56 30.609375 56 
z
" id="DejaVuSans-6f"/>
      <path d="M 2.984375 54.6875 
L 12.5 54.6875 
L 29.59375 8.796875 
L 46.6875 54.6875 
L 56.203125 54.6875 
L 35.6875 0 
L 23.484375 0 
z
" id="DejaVuSans-76"/>
      <path d="M 48.78125 52.59375 
L 48.78125 44.1875 
Q 44.96875 46.296875 41.140625 47.34375 
Q 37.3125 48.390625 33.40625 48.390625 
Q 24.65625 48.390625 19.8125 42.84375 
Q 14.984375 37.3125 14.984375 27.296875 
Q 14.984375 17.28125 19.8125 11.734375 
Q 24.65625 6.203125 33.40625 6.203125 
Q 37.3125 6.203125 41.140625 7.25 
Q 44.96875 8.296875 48.78125 10.40625 
L 48.78125 2.09375 
Q 45.015625 0.34375 40.984375 -0.53125 
Q 36.96875 -1.421875 32.421875 -1.421875 
Q 20.0625 -1.421875 12.78125 6.34375 
Q 5.515625 14.109375 5.515625 27.296875 
Q 5.515625 40.671875 12.859375 48.328125 
Q 20.21875 56 33.015625 56 
Q 37.15625 56 41.109375 55.140625 
Q 45.0625 54.296875 48.78125 52.59375 
z
" id="DejaVuSans-63"/>
      <path d="M 9.421875 75.984375 
L 18.40625 75.984375 
L 18.40625 0 
L 9.421875 0 
z
" id="DejaVuSans-6c"/>
      <path d="M 8.015625 75.875 
L 15.828125 75.875 
Q 23.140625 64.359375 26.78125 53.3125 
Q 30.421875 42.28125 30.421875 31.390625 
Q 30.421875 20.453125 26.78125 9.375 
Q 23.140625 -1.703125 15.828125 -13.1875 
L 8.015625 -13.1875 
Q 14.5 -2 17.703125 9.0625 
Q 20.90625 20.125 20.90625 31.390625 
Q 20.90625 42.671875 17.703125 53.65625 
Q 14.5 64.65625 8.015625 75.875 
z
" id="DejaVuSans-29"/>
     </defs>
     <g transform="translate(408.470588 10.35875)scale(0.08 -0.08)">
      <use xlink:href="#DejaVuSans-4c"/>
      <use x="55.712891" xlink:href="#DejaVuSans-69"/>
      <use x="83.496094" xlink:href="#DejaVuSans-20"/>
      <use x="115.283203" xlink:href="#DejaVuSans-28"/>
      <use x="154.296875" xlink:href="#DejaVuSans-6e"/>
      <use x="217.675781" xlink:href="#DejaVuSans-3d"/>
      <use x="301.464844" xlink:href="#DejaVuSans-36"/>
      <use x="365.087891" xlink:href="#DejaVuSans-20"/>
      <use x="396.875" xlink:href="#DejaVuSans-72"/>
      <use x="437.988281" xlink:href="#DejaVuSans-61"/>
      <use x="499.267578" xlink:href="#DejaVuSans-74"/>
      <use x="538.476562" xlink:href="#DejaVuSans-73"/>
      <use x="590.576172" xlink:href="#DejaVuSans-2c"/>
      <use x="622.363281" xlink:href="#DejaVuSans-20"/>
      <use x="654.150391" xlink:href="#DejaVuSans-31"/>
      <use x="717.773438" xlink:href="#DejaVuSans-31"/>
      <use x="781.396484" xlink:href="#DejaVuSans-20"/>
      <use x="813.183594" xlink:href="#DejaVuSans-66"/>
      <use x="848.388672" xlink:href="#DejaVuSans-6f"/>
      <use x="909.570312" xlink:href="#DejaVuSans-76"/>
      <use x="968.75" xlink:href="#DejaVuSans-73"/>
      <use x="1020.849609" xlink:href="#DejaVuSans-2c"/>
      <use x="1052.636719" xlink:href="#DejaVuSans-20"/>
      <use x="1084.423828" xlink:href="#DejaVuSans-35"/>
      <use x="1148.046875" xlink:href="#DejaVuSans-30"/>
      <use x="1211.669922" xlink:href="#DejaVuSans-35"/>
      <use x="1275.292969" xlink:href="#DejaVuSans-20"/>
      <use x="1307.080078" xlink:href="#DejaVuSans-63"/>
      <use x="1362.060547" xlink:href="#DejaVuSans-65"/>
      <use x="1423.583984" xlink:href="#DejaVuSans-6c"/>
      <use x="1451.367188" xlink:href="#DejaVuSans-6c"/>
      <use x="1479.150391" xlink:href="#DejaVuSans-73"/>
      <use x="1531.25" xlink:href="#DejaVuSans-29"/>
     </g>
    </g>
    <g id="patch_22">
     <path d="M 386.070588 22.10125 
L 402.070588 22.10125 
L 402.070588 16.50125 
L 386.070588 16.50125 
z
" style="fill:none;opacity:0.7;stroke:#8b008b;stroke-linejoin:miter;stroke-width:3;"/>
    </g>
    <g id="text_17">
     <!-- Lm (n=5 rats, 5 fovs, 481 cells) -->
     <defs>
      <path d="M 52 44.1875 
Q 55.375 50.25 60.0625 53.125 
Q 64.75 56 71.09375 56 
Q 79.640625 56 84.28125 50.015625 
Q 88.921875 44.046875 88.921875 33.015625 
L 88.921875 0 
L 79.890625 0 
L 79.890625 32.71875 
Q 79.890625 40.578125 77.09375 44.375 
Q 74.3125 48.1875 68.609375 48.1875 
Q 61.625 48.1875 57.5625 43.546875 
Q 53.515625 38.921875 53.515625 30.90625 
L 53.515625 0 
L 44.484375 0 
L 44.484375 32.71875 
Q 44.484375 40.625 41.703125 44.40625 
Q 38.921875 48.1875 33.109375 48.1875 
Q 26.21875 48.1875 22.15625 43.53125 
Q 18.109375 38.875 18.109375 30.90625 
L 18.109375 0 
L 9.078125 0 
L 9.078125 54.6875 
L 18.109375 54.6875 
L 18.109375 46.1875 
Q 21.1875 51.21875 25.484375 53.609375 
Q 29.78125 56 35.6875 56 
Q 41.65625 56 45.828125 52.96875 
Q 50 49.953125 52 44.1875 
z
" id="DejaVuSans-6d"/>
      <path d="M 31.78125 34.625 
Q 24.75 34.625 20.71875 30.859375 
Q 16.703125 27.09375 16.703125 20.515625 
Q 16.703125 13.921875 20.71875 10.15625 
Q 24.75 6.390625 31.78125 6.390625 
Q 38.8125 6.390625 42.859375 10.171875 
Q 46.921875 13.96875 46.921875 20.515625 
Q 46.921875 27.09375 42.890625 30.859375 
Q 38.875 34.625 31.78125 34.625 
z
M 21.921875 38.8125 
Q 15.578125 40.375 12.03125 44.71875 
Q 8.5 49.078125 8.5 55.328125 
Q 8.5 64.0625 14.71875 69.140625 
Q 20.953125 74.21875 31.78125 74.21875 
Q 42.671875 74.21875 48.875 69.140625 
Q 55.078125 64.0625 55.078125 55.328125 
Q 55.078125 49.078125 51.53125 44.71875 
Q 48 40.375 41.703125 38.8125 
Q 48.828125 37.15625 52.796875 32.3125 
Q 56.78125 27.484375 56.78125 20.515625 
Q 56.78125 9.90625 50.3125 4.234375 
Q 43.84375 -1.421875 31.78125 -1.421875 
Q 19.734375 -1.421875 13.25 4.234375 
Q 6.78125 9.90625 6.78125 20.515625 
Q 6.78125 27.484375 10.78125 32.3125 
Q 14.796875 37.15625 21.921875 38.8125 
z
M 18.3125 54.390625 
Q 18.3125 48.734375 21.84375 45.5625 
Q 25.390625 42.390625 31.78125 42.390625 
Q 38.140625 42.390625 41.71875 45.5625 
Q 45.3125 48.734375 45.3125 54.390625 
Q 45.3125 60.0625 41.71875 63.234375 
Q 38.140625 66.40625 31.78125 66.40625 
Q 25.390625 66.40625 21.84375 63.234375 
Q 18.3125 60.0625 18.3125 54.390625 
z
" id="DejaVuSans-38"/>
     </defs>
     <g transform="translate(408.470588 22.10125)scale(0.08 -0.08)">
      <use xlink:href="#DejaVuSans-4c"/>
      <use x="55.712891" xlink:href="#DejaVuSans-6d"/>
      <use x="153.125" xlink:href="#DejaVuSans-20"/>
      <use x="184.912109" xlink:href="#DejaVuSans-28"/>
      <use x="223.925781" xlink:href="#DejaVuSans-6e"/>
      <use x="287.304688" xlink:href="#DejaVuSans-3d"/>
      <use x="371.09375" xlink:href="#DejaVuSans-35"/>
      <use x="434.716797" xlink:href="#DejaVuSans-20"/>
      <use x="466.503906" xlink:href="#DejaVuSans-72"/>
      <use x="507.617188" xlink:href="#DejaVuSans-61"/>
      <use x="568.896484" xlink:href="#DejaVuSans-74"/>
      <use x="608.105469" xlink:href="#DejaVuSans-73"/>
      <use x="660.205078" xlink:href="#DejaVuSans-2c"/>
      <use x="691.992188" xlink:href="#DejaVuSans-20"/>
      <use x="723.779297" xlink:href="#DejaVuSans-35"/>
      <use x="787.402344" xlink:href="#DejaVuSans-20"/>
      <use x="819.189453" xlink:href="#DejaVuSans-66"/>
      <use x="854.394531" xlink:href="#DejaVuSans-6f"/>
      <use x="915.576172" xlink:href="#DejaVuSans-76"/>
      <use x="974.755859" xlink:href="#DejaVuSans-73"/>
      <use x="1026.855469" xlink:href="#DejaVuSans-2c"/>
      <use x="1058.642578" xlink:href="#DejaVuSans-20"/>
      <use x="1090.429688" xlink:href="#DejaVuSans-34"/>
      <use x="1154.052734" xlink:href="#DejaVuSans-38"/>
      <use x="1217.675781" xlink:href="#DejaVuSans-31"/>
      <use x="1281.298828" xlink:href="#DejaVuSans-20"/>
      <use x="1313.085938" xlink:href="#DejaVuSans-63"/>
      <use x="1368.066406" xlink:href="#DejaVuSans-65"/>
      <use x="1429.589844" xlink:href="#DejaVuSans-6c"/>
      <use x="1457.373047" xlink:href="#DejaVuSans-6c"/>
      <use x="1485.15625" xlink:href="#DejaVuSans-73"/>
      <use x="1537.255859" xlink:href="#DejaVuSans-29"/>
     </g>
    </g>
    <g id="patch_23">
     <path d="M 386.070588 33.84375 
L 402.070588 33.84375 
L 402.070588 28.24375 
L 386.070588 28.24375 
z
" style="fill:none;opacity:0.7;stroke:#000080;stroke-linejoin:miter;stroke-width:3;"/>
    </g>
    <g id="text_18">
     <!-- V1 (n=4 rats, 6 fovs, 683 cells) -->
     <defs>
      <path d="M 28.609375 0 
L 0.78125 72.90625 
L 11.078125 72.90625 
L 34.1875 11.53125 
L 57.328125 72.90625 
L 67.578125 72.90625 
L 39.796875 0 
z
" id="DejaVuSans-56"/>
     </defs>
     <g transform="translate(408.470588 33.84375)scale(0.08 -0.08)">
      <use xlink:href="#DejaVuSans-56"/>
      <use x="68.408203" xlink:href="#DejaVuSans-31"/>
      <use x="132.03125" xlink:href="#DejaVuSans-20"/>
      <use x="163.818359" xlink:href="#DejaVuSans-28"/>
      <use x="202.832031" xlink:href="#DejaVuSans-6e"/>
      <use x="266.210938" xlink:href="#DejaVuSans-3d"/>
      <use x="350" xlink:href="#DejaVuSans-34"/>
      <use x="413.623047" xlink:href="#DejaVuSans-20"/>
      <use x="445.410156" xlink:href="#DejaVuSans-72"/>
      <use x="486.523438" xlink:href="#DejaVuSans-61"/>
      <use x="547.802734" xlink:href="#DejaVuSans-74"/>
      <use x="587.011719" xlink:href="#DejaVuSans-73"/>
      <use x="639.111328" xlink:href="#DejaVuSans-2c"/>
      <use x="670.898438" xlink:href="#DejaVuSans-20"/>
      <use x="702.685547" xlink:href="#DejaVuSans-36"/>
      <use x="766.308594" xlink:href="#DejaVuSans-20"/>
      <use x="798.095703" xlink:href="#DejaVuSans-66"/>
      <use x="833.300781" xlink:href="#DejaVuSans-6f"/>
      <use x="894.482422" xlink:href="#DejaVuSans-76"/>
      <use x="953.662109" xlink:href="#DejaVuSans-73"/>
      <use x="1005.761719" xlink:href="#DejaVuSans-2c"/>
      <use x="1037.548828" xlink:href="#DejaVuSans-20"/>
      <use x="1069.335938" xlink:href="#DejaVuSans-36"/>
      <use x="1132.958984" xlink:href="#DejaVuSans-38"/>
      <use x="1196.582031" xlink:href="#DejaVuSans-33"/>
      <use x="1260.205078" xlink:href="#DejaVuSans-20"/>
      <use x="1291.992188" xlink:href="#DejaVuSans-63"/>
      <use x="1346.972656" xlink:href="#DejaVuSans-65"/>
      <use x="1408.496094" xlink:href="#DejaVuSans-6c"/>
      <use x="1436.279297" xlink:href="#DejaVuSans-6c"/>
      <use x="1464.0625" xlink:href="#DejaVuSans-73"/>
      <use x="1516.162109" xlink:href="#DejaVuSans-29"/>
     </g>
    </g>
   </g>
  </g>
  <g id="text_19">
   <!-- traces001-dff_nstds-10.00 -->
   <defs>
    <path d="M 4.890625 31.390625 
L 31.203125 31.390625 
L 31.203125 23.390625 
L 4.890625 23.390625 
z
" id="DejaVuSans-2d"/>
    <path d="M 50.984375 -16.609375 
L 50.984375 -23.578125 
L -0.984375 -23.578125 
L -0.984375 -16.609375 
z
" id="DejaVuSans-5f"/>
   </defs>
   <g transform="translate(0 6.07875)scale(0.08 -0.08)">
    <use xlink:href="#DejaVuSans-74"/>
    <use x="39.208984" xlink:href="#DejaVuSans-72"/>
    <use x="80.322266" xlink:href="#DejaVuSans-61"/>
    <use x="141.601562" xlink:href="#DejaVuSans-63"/>
    <use x="196.582031" xlink:href="#DejaVuSans-65"/>
    <use x="258.105469" xlink:href="#DejaVuSans-73"/>
    <use x="310.205078" xlink:href="#DejaVuSans-30"/>
    <use x="373.828125" xlink:href="#DejaVuSans-30"/>
    <use x="437.451172" xlink:href="#DejaVuSans-31"/>
    <use x="501.074219" xlink:href="#DejaVuSans-2d"/>
    <use x="537.158203" xlink:href="#DejaVuSans-64"/>
    <use x="600.634766" xlink:href="#DejaVuSans-66"/>
    <use x="635.839844" xlink:href="#DejaVuSans-66"/>
    <use x="671.044922" xlink:href="#DejaVuSans-5f"/>
    <use x="721.044922" xlink:href="#DejaVuSans-6e"/>
    <use x="784.423828" xlink:href="#DejaVuSans-73"/>
    <use x="836.523438" xlink:href="#DejaVuSans-74"/>
    <use x="875.732422" xlink:href="#DejaVuSans-64"/>
    <use x="939.208984" xlink:href="#DejaVuSans-73"/>
    <use x="991.308594" xlink:href="#DejaVuSans-2d"/>
    <use x="1027.392578" xlink:href="#DejaVuSans-31"/>
    <use x="1091.015625" xlink:href="#DejaVuSans-30"/>
    <use x="1154.638672" xlink:href="#DejaVuSans-2e"/>
    <use x="1186.425781" xlink:href="#DejaVuSans-30"/>
    <use x="1250.048828" xlink:href="#DejaVuSans-30"/>
   </g>
  </g>
 </g>
 <defs>
  <clipPath id="pb2c33b9f92">
   <rect height="127.44" width="135.529412" x="57.6" y="64.8"/>
  </clipPath>
  <clipPath id="pdda6b12b40">
   <rect height="127.44" width="135.529412" x="220.235294" y="64.8"/>
  </clipPath>
  <clipPath id="pf8f3cb5fae">
   <rect height="127.44" width="135.529412" x="382.870588" y="64.8"/>
  </clipPath>
 </defs>
</svg>
