<?xml version="1.0" encoding="utf-8" standalone="no"?>
<!DOCTYPE svg PUBLIC "-//W3C//DTD SVG 1.1//EN"
  "http://www.w3.org/Graphics/SVG/1.1/DTD/svg11.dtd">
<!-- Created with matplotlib (https://matplotlib.org/) -->
<svg height="216pt" version="1.1" viewBox="0 0 720 216" width="720pt" xmlns="http://www.w3.org/2000/svg" xmlns:xlink="http://www.w3.org/1999/xlink">
 <metadata>
  <rdf:RDF xmlns:cc="http://creativecommons.org/ns#" xmlns:dc="http://purl.org/dc/elements/1.1/" xmlns:rdf="http://www.w3.org/1999/02/22-rdf-syntax-ns#">
   <cc:Work>
    <dc:type rdf:resource="http://purl.org/dc/dcmitype/StillImage"/>
    <dc:date>2021-04-26T14:33:31.746997</dc:date>
    <dc:format>image/svg+xml</dc:format>
    <dc:creator>
     <cc:Agent>
      <dc:title>Matplotlib v3.3.4, https://matplotlib.org/</dc:title>
     </cc:Agent>
    </dc:creator>
   </cc:Work>
  </rdf:RDF>
 </metadata>
 <defs>
  <style type="text/css">*{stroke-linecap:butt;stroke-linejoin:round;}</style>
 </defs>
 <g id="figure_1">
  <g id="patch_1">
   <path d="M 0 216 
L 720 216 
L 720 0 
L 0 0 
z
" style="fill:#ffffff;"/>
  </g>
  <g id="axes_1">
   <g id="patch_2">
    <path d="M 72 162.514286 
L 159.428571 162.514286 
L 159.428571 75.085714 
L 72 75.085714 
z
" style="fill:#ffffff;"/>
   </g>
   <g id="matplotlib.axis_1">
    <g id="xtick_1">
     <g id="line2d_1">
      <defs>
       <path d="M 0 0 
L 0 3.5 
" id="m6748a81b61" style="stroke:#000000;stroke-width:0.25;"/>
      </defs>
      <g>
       <use style="stroke:#000000;stroke-width:0.25;" x="75.974026" xlink:href="#m6748a81b61" y="162.514286"/>
      </g>
     </g>
     <g id="text_1">
      <text style="font-family:DejaVu Sans;font-size:6px;font-stretch:normal;font-style:normal;font-weight:normal;text-anchor:middle;" transform="rotate(-0, 75.974026, 174.073348)" x="75.974026" y="174.073348">0.0</text>
     </g>
    </g>
    <g id="xtick_2">
     <g id="line2d_2">
      <g>
       <use style="stroke:#000000;stroke-width:0.25;" x="115.714286" xlink:href="#m6748a81b61" y="162.514286"/>
      </g>
     </g>
     <g id="text_2">
      <text style="font-family:DejaVu Sans;font-size:6px;font-stretch:normal;font-style:normal;font-weight:normal;text-anchor:middle;" transform="rotate(-0, 115.714286, 174.073348)" x="115.714286" y="174.073348">0.5</text>
     </g>
    </g>
    <g id="xtick_3">
     <g id="line2d_3">
      <g>
       <use style="stroke:#000000;stroke-width:0.25;" x="155.454545" xlink:href="#m6748a81b61" y="162.514286"/>
      </g>
     </g>
     <g id="text_3">
      <text style="font-family:DejaVu Sans;font-size:6px;font-stretch:normal;font-style:normal;font-weight:normal;text-anchor:middle;" transform="rotate(-0, 155.454545, 174.073348)" x="155.454545" y="174.073348">1.0</text>
     </g>
    </g>
    <g id="text_4">
     <text style="font-family:DejaVu Sans;font-size:6px;font-stretch:normal;font-style:normal;font-weight:normal;text-anchor:middle;" transform="rotate(-0, 115.714286, 183.880223)" x="115.714286" y="183.880223">p(F)</text>
    </g>
   </g>
   <g id="matplotlib.axis_2">
    <g id="ytick_1">
     <g id="line2d_4">
      <defs>
       <path d="M 0 0 
L -3.5 0 
" id="me2c5052b33" style="stroke:#000000;stroke-width:0.25;"/>
      </defs>
      <g>
       <use style="stroke:#000000;stroke-width:0.25;" x="72" xlink:href="#me2c5052b33" y="158.54026"/>
      </g>
     </g>
     <g id="text_5">
      <text style="font-family:DejaVu Sans;font-size:6px;font-stretch:normal;font-style:normal;font-weight:normal;text-anchor:end;" transform="rotate(-0, 65, 160.819791)" x="65" y="160.819791">0.0</text>
     </g>
    </g>
    <g id="ytick_2">
     <g id="line2d_5">
      <g>
       <use style="stroke:#000000;stroke-width:0.25;" x="72" xlink:href="#me2c5052b33" y="142.644156"/>
      </g>
     </g>
     <g id="text_6">
      <text style="font-family:DejaVu Sans;font-size:6px;font-stretch:normal;font-style:normal;font-weight:normal;text-anchor:end;" transform="rotate(-0, 65, 144.923687)" x="65" y="144.923687">0.2</text>
     </g>
    </g>
    <g id="ytick_3">
     <g id="line2d_6">
      <g>
       <use style="stroke:#000000;stroke-width:0.25;" x="72" xlink:href="#me2c5052b33" y="126.748052"/>
      </g>
     </g>
     <g id="text_7">
      <text style="font-family:DejaVu Sans;font-size:6px;font-stretch:normal;font-style:normal;font-weight:normal;text-anchor:end;" transform="rotate(-0, 65, 129.027583)" x="65" y="129.027583">0.4</text>
     </g>
    </g>
    <g id="ytick_4">
     <g id="line2d_7">
      <g>
       <use style="stroke:#000000;stroke-width:0.25;" x="72" xlink:href="#me2c5052b33" y="110.851948"/>
      </g>
     </g>
     <g id="text_8">
      <text style="font-family:DejaVu Sans;font-size:6px;font-stretch:normal;font-style:normal;font-weight:normal;text-anchor:end;" transform="rotate(-0, 65, 113.131479)" x="65" y="113.131479">0.6</text>
     </g>
    </g>
    <g id="ytick_5">
     <g id="line2d_8">
      <g>
       <use style="stroke:#000000;stroke-width:0.25;" x="72" xlink:href="#me2c5052b33" y="94.955844"/>
      </g>
     </g>
     <g id="text_9">
      <text style="font-family:DejaVu Sans;font-size:6px;font-stretch:normal;font-style:normal;font-weight:normal;text-anchor:end;" transform="rotate(-0, 65, 97.235375)" x="65" y="97.235375">0.8</text>
     </g>
    </g>
    <g id="ytick_6">
     <g id="line2d_9">
      <g>
       <use style="stroke:#000000;stroke-width:0.25;" x="72" xlink:href="#me2c5052b33" y="79.05974"/>
      </g>
     </g>
     <g id="text_10">
      <text style="font-family:DejaVu Sans;font-size:6px;font-stretch:normal;font-style:normal;font-weight:normal;text-anchor:end;" transform="rotate(-0, 65, 81.339272)" x="65" y="81.339272">1.0</text>
     </g>
    </g>
    <g id="text_11">
     <text style="font-family:DejaVu Sans;font-size:6px;font-stretch:normal;font-style:normal;font-weight:normal;text-anchor:middle;" transform="rotate(-90, 50.210313, 118.8)" x="50.210313" y="118.8">p(H)</text>
    </g>
   </g>
   <g id="line2d_10">
    <path clip-path="url(#pd5fb1d4aa9)" d="M 155.454545 79.05974 
L 155.454545 79.05974 
L 155.454545 79.05974 
L 155.454545 84.358442 
L 155.454545 84.358442 
L 155.454545 84.358442 
L 155.454545 84.358442 
L 150.155844 89.657143 
L 144.857143 105.553247 
L 128.961039 116.150649 
L 113.064935 126.748052 
L 81.272727 147.942857 
L 75.974026 147.942857 
L 75.974026 158.54026 
L 75.974026 158.54026 
L 75.974026 158.54026 
L 75.974026 158.54026 
L 75.974026 158.54026 
L 75.974026 158.54026 
L 75.974026 158.54026 
L 75.974026 158.54026 
L 75.974026 158.54026 
L 75.974026 158.54026 
L 75.974026 158.54026 
L 75.974026 158.54026 
L 75.974026 158.54026 
L 75.974026 158.54026 
L 75.974026 158.54026 
L 75.974026 158.54026 
L 75.974026 158.54026 
L 75.974026 158.54026 
L 75.974026 158.54026 
L 75.974026 158.54026 
L 75.974026 158.54026 
L 75.974026 158.54026 
L 75.974026 158.54026 
L 75.974026 158.54026 
L 75.974026 158.54026 
L 75.974026 158.54026 
L 75.974026 158.54026 
L 75.974026 158.54026 
L 75.974026 158.54026 
L 75.974026 158.54026 
L 75.974026 158.54026 
L 75.974026 158.54026 
L 75.974026 158.54026 
L 75.974026 158.54026 
L 75.974026 158.54026 
L 75.974026 158.54026 
L 75.974026 158.54026 
" style="fill:none;stroke:#ab3c37;stroke-linecap:square;stroke-width:0.5;"/>
   </g>
   <g id="line2d_11">
    <path clip-path="url(#pd5fb1d4aa9)" d="M 75.974026 158.54026 
L 155.454545 79.05974 
" style="fill:none;stroke:#000000;stroke-dasharray:1,1.65;stroke-dashoffset:0;"/>
   </g>
   <g id="line2d_12">
    <path clip-path="url(#pd5fb1d4aa9)" d="M 155.454545 79.05974 
L 155.454545 79.05974 
L 155.454545 79.05974 
L 155.454545 79.05974 
L 155.454545 79.05974 
L 155.454545 79.05974 
L 152.805195 79.05974 
L 152.805195 81.709091 
L 147.506494 81.709091 
L 142.207792 105.553247 
L 113.064935 121.449351 
L 91.87013 153.241558 
L 78.623377 155.890909 
L 78.623377 155.890909 
L 75.974026 158.54026 
L 75.974026 158.54026 
L 75.974026 158.54026 
L 75.974026 158.54026 
L 75.974026 158.54026 
L 75.974026 158.54026 
L 75.974026 158.54026 
L 75.974026 158.54026 
L 75.974026 158.54026 
L 75.974026 158.54026 
L 75.974026 158.54026 
L 75.974026 158.54026 
L 75.974026 158.54026 
L 75.974026 158.54026 
L 75.974026 158.54026 
L 75.974026 158.54026 
L 75.974026 158.54026 
L 75.974026 158.54026 
L 75.974026 158.54026 
L 75.974026 158.54026 
L 75.974026 158.54026 
L 75.974026 158.54026 
L 75.974026 158.54026 
L 75.974026 158.54026 
L 75.974026 158.54026 
L 75.974026 158.54026 
L 75.974026 158.54026 
L 75.974026 158.54026 
L 75.974026 158.54026 
L 75.974026 158.54026 
L 75.974026 158.54026 
L 75.974026 158.54026 
L 75.974026 158.54026 
L 75.974026 158.54026 
L 75.974026 158.54026 
L 75.974026 158.54026 
" style="fill:none;stroke:#d29c82;stroke-linecap:square;stroke-width:0.5;"/>
   </g>
   <g id="line2d_13">
    <path clip-path="url(#pd5fb1d4aa9)" d="M 75.974026 158.54026 
L 155.454545 79.05974 
" style="fill:none;stroke:#000000;stroke-dasharray:1,1.65;stroke-dashoffset:0;"/>
   </g>
   <g id="line2d_14">
    <path clip-path="url(#pd5fb1d4aa9)" d="M 155.454545 79.05974 
L 152.805195 79.05974 
L 152.805195 79.05974 
L 152.805195 79.05974 
L 152.805195 79.05974 
L 152.805195 79.05974 
L 152.805195 79.05974 
L 150.155844 81.709091 
L 147.506494 87.007792 
L 123.662338 105.553247 
L 107.766234 124.098701 
L 83.922078 142.644156 
L 81.272727 147.942857 
L 75.974026 153.241558 
L 75.974026 158.54026 
L 75.974026 158.54026 
L 75.974026 158.54026 
L 75.974026 158.54026 
L 75.974026 158.54026 
L 75.974026 158.54026 
L 75.974026 158.54026 
L 75.974026 158.54026 
L 75.974026 158.54026 
L 75.974026 158.54026 
L 75.974026 158.54026 
L 75.974026 158.54026 
L 75.974026 158.54026 
L 75.974026 158.54026 
L 75.974026 158.54026 
L 75.974026 158.54026 
L 75.974026 158.54026 
L 75.974026 158.54026 
L 75.974026 158.54026 
L 75.974026 158.54026 
L 75.974026 158.54026 
L 75.974026 158.54026 
L 75.974026 158.54026 
L 75.974026 158.54026 
L 75.974026 158.54026 
L 75.974026 158.54026 
L 75.974026 158.54026 
L 75.974026 158.54026 
L 75.974026 158.54026 
L 75.974026 158.54026 
L 75.974026 158.54026 
L 75.974026 158.54026 
L 75.974026 158.54026 
L 75.974026 158.54026 
L 75.974026 158.54026 
L 75.974026 158.54026 
" style="fill:none;stroke:#d1d2d2;stroke-linecap:square;stroke-width:0.5;"/>
   </g>
   <g id="line2d_15">
    <path clip-path="url(#pd5fb1d4aa9)" d="M 75.974026 158.54026 
L 155.454545 79.05974 
" style="fill:none;stroke:#000000;stroke-dasharray:1,1.65;stroke-dashoffset:0;"/>
   </g>
   <g id="line2d_16">
    <path clip-path="url(#pd5fb1d4aa9)" d="M 155.454545 79.05974 
L 155.454545 79.05974 
L 155.454545 79.05974 
L 155.454545 79.05974 
L 155.454545 79.05974 
L 155.454545 79.05974 
L 155.454545 79.05974 
L 150.155844 87.007792 
L 142.207792 87.007792 
L 134.25974 97.605195 
L 115.714286 124.098701 
L 86.571429 137.345455 
L 81.272727 150.592208 
L 78.623377 153.241558 
L 78.623377 155.890909 
L 75.974026 155.890909 
L 75.974026 158.54026 
L 75.974026 158.54026 
L 75.974026 158.54026 
L 75.974026 158.54026 
L 75.974026 158.54026 
L 75.974026 158.54026 
L 75.974026 158.54026 
L 75.974026 158.54026 
L 75.974026 158.54026 
L 75.974026 158.54026 
L 75.974026 158.54026 
L 75.974026 158.54026 
L 75.974026 158.54026 
L 75.974026 158.54026 
L 75.974026 158.54026 
L 75.974026 158.54026 
L 75.974026 158.54026 
L 75.974026 158.54026 
L 75.974026 158.54026 
L 75.974026 158.54026 
L 75.974026 158.54026 
L 75.974026 158.54026 
L 75.974026 158.54026 
L 75.974026 158.54026 
L 75.974026 158.54026 
L 75.974026 158.54026 
L 75.974026 158.54026 
L 75.974026 158.54026 
L 75.974026 158.54026 
L 75.974026 158.54026 
L 75.974026 158.54026 
L 75.974026 158.54026 
L 75.974026 158.54026 
L 75.974026 158.54026 
" style="fill:none;stroke:#8eb1c2;stroke-linecap:square;stroke-width:0.5;"/>
   </g>
   <g id="line2d_17">
    <path clip-path="url(#pd5fb1d4aa9)" d="M 75.974026 158.54026 
L 155.454545 79.05974 
" style="fill:none;stroke:#000000;stroke-dasharray:1,1.65;stroke-dashoffset:0;"/>
   </g>
   <g id="line2d_18">
    <path clip-path="url(#pd5fb1d4aa9)" d="M 155.454545 79.05974 
L 155.454545 79.05974 
L 155.454545 79.05974 
L 155.454545 79.05974 
L 155.454545 79.05974 
L 155.454545 79.05974 
L 152.805195 79.05974 
L 150.155844 79.05974 
L 150.155844 81.709091 
L 136.909091 94.955844 
L 121.012987 121.449351 
L 102.467532 137.345455 
L 89.220779 153.241558 
L 86.571429 158.54026 
L 75.974026 158.54026 
L 75.974026 158.54026 
L 75.974026 158.54026 
L 75.974026 158.54026 
L 75.974026 158.54026 
L 75.974026 158.54026 
L 75.974026 158.54026 
L 75.974026 158.54026 
L 75.974026 158.54026 
L 75.974026 158.54026 
L 75.974026 158.54026 
L 75.974026 158.54026 
L 75.974026 158.54026 
L 75.974026 158.54026 
L 75.974026 158.54026 
L 75.974026 158.54026 
L 75.974026 158.54026 
L 75.974026 158.54026 
L 75.974026 158.54026 
L 75.974026 158.54026 
L 75.974026 158.54026 
L 75.974026 158.54026 
L 75.974026 158.54026 
L 75.974026 158.54026 
L 75.974026 158.54026 
L 75.974026 158.54026 
L 75.974026 158.54026 
L 75.974026 158.54026 
L 75.974026 158.54026 
L 75.974026 158.54026 
L 75.974026 158.54026 
L 75.974026 158.54026 
L 75.974026 158.54026 
L 75.974026 158.54026 
L 75.974026 158.54026 
L 75.974026 158.54026 
" style="fill:none;stroke:#2f6f9f;stroke-linecap:square;stroke-width:0.5;"/>
   </g>
   <g id="line2d_19">
    <path clip-path="url(#pd5fb1d4aa9)" d="M 75.974026 158.54026 
L 155.454545 79.05974 
" style="fill:none;stroke:#000000;stroke-dasharray:1,1.65;stroke-dashoffset:0;"/>
   </g>
   <g id="patch_3">
    <path d="M 72 162.514286 
L 72 75.085714 
" style="fill:none;stroke:#000000;stroke-linecap:square;stroke-linejoin:miter;stroke-width:0.25;"/>
   </g>
   <g id="patch_4">
    <path d="M 159.428571 162.514286 
L 159.428571 75.085714 
" style="fill:none;stroke:#000000;stroke-linecap:square;stroke-linejoin:miter;stroke-width:0.25;"/>
   </g>
   <g id="patch_5">
    <path d="M 72 162.514286 
L 159.428571 162.514286 
" style="fill:none;stroke:#000000;stroke-linecap:square;stroke-linejoin:miter;stroke-width:0.25;"/>
   </g>
   <g id="patch_6">
    <path d="M 72 75.085714 
L 159.428571 75.085714 
" style="fill:none;stroke:#000000;stroke-linecap:square;stroke-linejoin:miter;stroke-width:0.25;"/>
   </g>
   <g id="text_12">
    <text style="font-family:DejaVu Sans;font-size:7.2px;font-stretch:normal;font-style:normal;font-weight:normal;text-anchor:middle;" transform="rotate(-0, 115.714286, 69.085714)" x="115.714286" y="69.085714">10.0</text>
   </g>
  </g>
  <g id="axes_2">
   <g id="patch_7">
    <path d="M 203.142857 162.514286 
L 290.571429 162.514286 
L 290.571429 75.085714 
L 203.142857 75.085714 
z
" style="fill:#ffffff;"/>
   </g>
   <g id="matplotlib.axis_3">
    <g id="xtick_4">
     <g id="line2d_20">
      <g>
       <use style="stroke:#000000;stroke-width:0.25;" x="207.116883" xlink:href="#m6748a81b61" y="162.514286"/>
      </g>
     </g>
     <g id="text_13">
      <text style="font-family:DejaVu Sans;font-size:6px;font-stretch:normal;font-style:normal;font-weight:normal;text-anchor:middle;" transform="rotate(-0, 207.116883, 174.073348)" x="207.116883" y="174.073348">0.0</text>
     </g>
    </g>
    <g id="xtick_5">
     <g id="line2d_21">
      <g>
       <use style="stroke:#000000;stroke-width:0.25;" x="246.857143" xlink:href="#m6748a81b61" y="162.514286"/>
      </g>
     </g>
     <g id="text_14">
      <text style="font-family:DejaVu Sans;font-size:6px;font-stretch:normal;font-style:normal;font-weight:normal;text-anchor:middle;" transform="rotate(-0, 246.857143, 174.073348)" x="246.857143" y="174.073348">0.5</text>
     </g>
    </g>
    <g id="xtick_6">
     <g id="line2d_22">
      <g>
       <use style="stroke:#000000;stroke-width:0.25;" x="286.597403" xlink:href="#m6748a81b61" y="162.514286"/>
      </g>
     </g>
     <g id="text_15">
      <text style="font-family:DejaVu Sans;font-size:6px;font-stretch:normal;font-style:normal;font-weight:normal;text-anchor:middle;" transform="rotate(-0, 286.597403, 174.073348)" x="286.597403" y="174.073348">1.0</text>
     </g>
    </g>
    <g id="text_16">
     <text style="font-family:DejaVu Sans;font-size:6px;font-stretch:normal;font-style:normal;font-weight:normal;text-anchor:middle;" transform="rotate(-0, 246.857143, 183.880223)" x="246.857143" y="183.880223">p(F)</text>
    </g>
   </g>
   <g id="matplotlib.axis_4">
    <g id="ytick_7">
     <g id="line2d_23">
      <g>
       <use style="stroke:#000000;stroke-width:0.25;" x="203.142857" xlink:href="#me2c5052b33" y="158.54026"/>
      </g>
     </g>
     <g id="text_17">
      <text style="font-family:DejaVu Sans;font-size:6px;font-stretch:normal;font-style:normal;font-weight:normal;text-anchor:end;" transform="rotate(-0, 196.142857, 160.819791)" x="196.142857" y="160.819791">0.0</text>
     </g>
    </g>
    <g id="ytick_8">
     <g id="line2d_24">
      <g>
       <use style="stroke:#000000;stroke-width:0.25;" x="203.142857" xlink:href="#me2c5052b33" y="142.644156"/>
      </g>
     </g>
     <g id="text_18">
      <text style="font-family:DejaVu Sans;font-size:6px;font-stretch:normal;font-style:normal;font-weight:normal;text-anchor:end;" transform="rotate(-0, 196.142857, 144.923687)" x="196.142857" y="144.923687">0.2</text>
     </g>
    </g>
    <g id="ytick_9">
     <g id="line2d_25">
      <g>
       <use style="stroke:#000000;stroke-width:0.25;" x="203.142857" xlink:href="#me2c5052b33" y="126.748052"/>
      </g>
     </g>
     <g id="text_19">
      <text style="font-family:DejaVu Sans;font-size:6px;font-stretch:normal;font-style:normal;font-weight:normal;text-anchor:end;" transform="rotate(-0, 196.142857, 129.027583)" x="196.142857" y="129.027583">0.4</text>
     </g>
    </g>
    <g id="ytick_10">
     <g id="line2d_26">
      <g>
       <use style="stroke:#000000;stroke-width:0.25;" x="203.142857" xlink:href="#me2c5052b33" y="110.851948"/>
      </g>
     </g>
     <g id="text_20">
      <text style="font-family:DejaVu Sans;font-size:6px;font-stretch:normal;font-style:normal;font-weight:normal;text-anchor:end;" transform="rotate(-0, 196.142857, 113.131479)" x="196.142857" y="113.131479">0.6</text>
     </g>
    </g>
    <g id="ytick_11">
     <g id="line2d_27">
      <g>
       <use style="stroke:#000000;stroke-width:0.25;" x="203.142857" xlink:href="#me2c5052b33" y="94.955844"/>
      </g>
     </g>
     <g id="text_21">
      <text style="font-family:DejaVu Sans;font-size:6px;font-stretch:normal;font-style:normal;font-weight:normal;text-anchor:end;" transform="rotate(-0, 196.142857, 97.235375)" x="196.142857" y="97.235375">0.8</text>
     </g>
    </g>
    <g id="ytick_12">
     <g id="line2d_28">
      <g>
       <use style="stroke:#000000;stroke-width:0.25;" x="203.142857" xlink:href="#me2c5052b33" y="79.05974"/>
      </g>
     </g>
     <g id="text_22">
      <text style="font-family:DejaVu Sans;font-size:6px;font-stretch:normal;font-style:normal;font-weight:normal;text-anchor:end;" transform="rotate(-0, 196.142857, 81.339272)" x="196.142857" y="81.339272">1.0</text>
     </g>
    </g>
    <g id="text_23">
     <text style="font-family:DejaVu Sans;font-size:6px;font-stretch:normal;font-style:normal;font-weight:normal;text-anchor:middle;" transform="rotate(-90, 181.35317, 118.8)" x="181.35317" y="118.8">p(H)</text>
    </g>
   </g>
   <g id="line2d_29">
    <path clip-path="url(#p09c7777301)" d="M 286.597403 79.05974 
L 286.597403 79.05974 
L 286.597403 79.05974 
L 286.597403 79.05974 
L 286.597403 79.05974 
L 286.597403 79.05974 
L 286.597403 79.05974 
L 286.597403 79.05974 
L 276 79.05974 
L 265.402597 84.358442 
L 249.506494 84.358442 
L 233.61039 116.150649 
L 228.311688 137.345455 
L 228.311688 142.644156 
L 223.012987 147.942857 
L 223.012987 153.241558 
L 217.714286 158.54026 
L 217.714286 158.54026 
L 217.714286 158.54026 
L 217.714286 158.54026 
L 212.415584 158.54026 
L 207.116883 158.54026 
L 207.116883 158.54026 
L 207.116883 158.54026 
L 207.116883 158.54026 
L 207.116883 158.54026 
L 207.116883 158.54026 
L 207.116883 158.54026 
L 207.116883 158.54026 
L 207.116883 158.54026 
L 207.116883 158.54026 
L 207.116883 158.54026 
L 207.116883 158.54026 
L 207.116883 158.54026 
L 207.116883 158.54026 
L 207.116883 158.54026 
L 207.116883 158.54026 
L 207.116883 158.54026 
L 207.116883 158.54026 
L 207.116883 158.54026 
L 207.116883 158.54026 
L 207.116883 158.54026 
L 207.116883 158.54026 
L 207.116883 158.54026 
L 207.116883 158.54026 
L 207.116883 158.54026 
L 207.116883 158.54026 
L 207.116883 158.54026 
L 207.116883 158.54026 
L 207.116883 158.54026 
" style="fill:none;stroke:#ab3c37;stroke-linecap:square;stroke-width:0.5;"/>
   </g>
   <g id="line2d_30">
    <path clip-path="url(#p09c7777301)" d="M 207.116883 158.54026 
L 286.597403 79.05974 
" style="fill:none;stroke:#000000;stroke-dasharray:1,1.65;stroke-dashoffset:0;"/>
   </g>
   <g id="line2d_31">
    <path clip-path="url(#p09c7777301)" d="M 286.597403 79.05974 
L 286.597403 79.05974 
L 286.597403 79.05974 
L 286.597403 79.05974 
L 286.597403 79.05974 
L 286.597403 79.05974 
L 286.597403 79.05974 
L 286.597403 81.709091 
L 283.948052 89.657143 
L 273.350649 92.306494 
L 257.454545 108.202597 
L 233.61039 137.345455 
L 217.714286 145.293506 
L 215.064935 150.592208 
L 212.415584 153.241558 
L 212.415584 153.241558 
L 209.766234 155.890909 
L 209.766234 158.54026 
L 209.766234 158.54026 
L 209.766234 158.54026 
L 207.116883 158.54026 
L 207.116883 158.54026 
L 207.116883 158.54026 
L 207.116883 158.54026 
L 207.116883 158.54026 
L 207.116883 158.54026 
L 207.116883 158.54026 
L 207.116883 158.54026 
L 207.116883 158.54026 
L 207.116883 158.54026 
L 207.116883 158.54026 
L 207.116883 158.54026 
L 207.116883 158.54026 
L 207.116883 158.54026 
L 207.116883 158.54026 
L 207.116883 158.54026 
L 207.116883 158.54026 
L 207.116883 158.54026 
L 207.116883 158.54026 
L 207.116883 158.54026 
L 207.116883 158.54026 
L 207.116883 158.54026 
L 207.116883 158.54026 
L 207.116883 158.54026 
L 207.116883 158.54026 
L 207.116883 158.54026 
L 207.116883 158.54026 
L 207.116883 158.54026 
L 207.116883 158.54026 
L 207.116883 158.54026 
" style="fill:none;stroke:#d29c82;stroke-linecap:square;stroke-width:0.5;"/>
   </g>
   <g id="line2d_32">
    <path clip-path="url(#p09c7777301)" d="M 207.116883 158.54026 
L 286.597403 79.05974 
" style="fill:none;stroke:#000000;stroke-dasharray:1,1.65;stroke-dashoffset:0;"/>
   </g>
   <g id="line2d_33">
    <path clip-path="url(#p09c7777301)" d="M 286.597403 79.05974 
L 286.597403 79.05974 
L 286.597403 79.05974 
L 286.597403 79.05974 
L 286.597403 79.05974 
L 286.597403 79.05974 
L 286.597403 79.05974 
L 283.948052 79.05974 
L 283.948052 81.709091 
L 268.051948 81.709091 
L 252.155844 84.358442 
L 225.662338 108.202597 
L 217.714286 121.449351 
L 215.064935 124.098701 
L 215.064935 124.098701 
L 212.415584 132.046753 
L 209.766234 139.994805 
L 207.116883 145.293506 
L 207.116883 147.942857 
L 207.116883 150.592208 
L 207.116883 150.592208 
L 207.116883 153.241558 
L 207.116883 153.241558 
L 207.116883 153.241558 
L 207.116883 153.241558 
L 207.116883 155.890909 
L 207.116883 155.890909 
L 207.116883 158.54026 
L 207.116883 158.54026 
L 207.116883 158.54026 
L 207.116883 158.54026 
L 207.116883 158.54026 
L 207.116883 158.54026 
L 207.116883 158.54026 
L 207.116883 158.54026 
L 207.116883 158.54026 
L 207.116883 158.54026 
L 207.116883 158.54026 
L 207.116883 158.54026 
L 207.116883 158.54026 
L 207.116883 158.54026 
L 207.116883 158.54026 
L 207.116883 158.54026 
L 207.116883 158.54026 
L 207.116883 158.54026 
L 207.116883 158.54026 
L 207.116883 158.54026 
L 207.116883 158.54026 
L 207.116883 158.54026 
L 207.116883 158.54026 
" style="fill:none;stroke:#d1d2d2;stroke-linecap:square;stroke-width:0.5;"/>
   </g>
   <g id="line2d_34">
    <path clip-path="url(#p09c7777301)" d="M 207.116883 158.54026 
L 286.597403 79.05974 
" style="fill:none;stroke:#000000;stroke-dasharray:1,1.65;stroke-dashoffset:0;"/>
   </g>
   <g id="line2d_35">
    <path clip-path="url(#p09c7777301)" d="M 286.597403 79.05974 
L 286.597403 79.05974 
L 286.597403 79.05974 
L 286.597403 79.05974 
L 286.597403 79.05974 
L 286.597403 79.05974 
L 286.597403 79.05974 
L 286.597403 79.05974 
L 281.298701 79.05974 
L 276 84.358442 
L 257.454545 92.306494 
L 249.506494 97.605195 
L 230.961039 108.202597 
L 212.415584 113.501299 
L 209.766234 126.748052 
L 207.116883 132.046753 
L 207.116883 137.345455 
L 207.116883 137.345455 
L 207.116883 142.644156 
L 207.116883 142.644156 
L 207.116883 145.293506 
L 207.116883 150.592208 
L 207.116883 153.241558 
L 207.116883 153.241558 
L 207.116883 153.241558 
L 207.116883 153.241558 
L 207.116883 153.241558 
L 207.116883 155.890909 
L 207.116883 155.890909 
L 207.116883 155.890909 
L 207.116883 155.890909 
L 207.116883 155.890909 
L 207.116883 155.890909 
L 207.116883 155.890909 
L 207.116883 155.890909 
L 207.116883 158.54026 
L 207.116883 158.54026 
L 207.116883 158.54026 
L 207.116883 158.54026 
L 207.116883 158.54026 
L 207.116883 158.54026 
L 207.116883 158.54026 
L 207.116883 158.54026 
L 207.116883 158.54026 
L 207.116883 158.54026 
L 207.116883 158.54026 
L 207.116883 158.54026 
L 207.116883 158.54026 
L 207.116883 158.54026 
L 207.116883 158.54026 
" style="fill:none;stroke:#8eb1c2;stroke-linecap:square;stroke-width:0.5;"/>
   </g>
   <g id="line2d_36">
    <path clip-path="url(#p09c7777301)" d="M 207.116883 158.54026 
L 286.597403 79.05974 
" style="fill:none;stroke:#000000;stroke-dasharray:1,1.65;stroke-dashoffset:0;"/>
   </g>
   <g id="line2d_37">
    <path clip-path="url(#p09c7777301)" d="M 286.597403 79.05974 
L 286.597403 79.05974 
L 286.597403 79.05974 
L 286.597403 79.05974 
L 286.597403 79.05974 
L 286.597403 79.05974 
L 286.597403 79.05974 
L 286.597403 79.05974 
L 281.298701 79.05974 
L 278.649351 81.709091 
L 265.402597 84.358442 
L 252.155844 89.657143 
L 228.311688 102.903896 
L 215.064935 113.501299 
L 212.415584 118.8 
L 209.766234 124.098701 
L 207.116883 132.046753 
L 207.116883 134.696104 
L 207.116883 134.696104 
L 207.116883 139.994805 
L 207.116883 142.644156 
L 207.116883 145.293506 
L 207.116883 145.293506 
L 207.116883 147.942857 
L 207.116883 150.592208 
L 207.116883 150.592208 
L 207.116883 153.241558 
L 207.116883 155.890909 
L 207.116883 155.890909 
L 207.116883 155.890909 
L 207.116883 155.890909 
L 207.116883 155.890909 
L 207.116883 155.890909 
L 207.116883 155.890909 
L 207.116883 155.890909 
L 207.116883 155.890909 
L 207.116883 155.890909 
L 207.116883 158.54026 
L 207.116883 158.54026 
L 207.116883 158.54026 
L 207.116883 158.54026 
L 207.116883 158.54026 
L 207.116883 158.54026 
L 207.116883 158.54026 
L 207.116883 158.54026 
L 207.116883 158.54026 
L 207.116883 158.54026 
L 207.116883 158.54026 
L 207.116883 158.54026 
L 207.116883 158.54026 
" style="fill:none;stroke:#2f6f9f;stroke-linecap:square;stroke-width:0.5;"/>
   </g>
   <g id="line2d_38">
    <path clip-path="url(#p09c7777301)" d="M 207.116883 158.54026 
L 286.597403 79.05974 
" style="fill:none;stroke:#000000;stroke-dasharray:1,1.65;stroke-dashoffset:0;"/>
   </g>
   <g id="patch_8">
    <path d="M 203.142857 162.514286 
L 203.142857 75.085714 
" style="fill:none;stroke:#000000;stroke-linecap:square;stroke-linejoin:miter;stroke-width:0.25;"/>
   </g>
   <g id="patch_9">
    <path d="M 290.571429 162.514286 
L 290.571429 75.085714 
" style="fill:none;stroke:#000000;stroke-linecap:square;stroke-linejoin:miter;stroke-width:0.25;"/>
   </g>
   <g id="patch_10">
    <path d="M 203.142857 162.514286 
L 290.571429 162.514286 
" style="fill:none;stroke:#000000;stroke-linecap:square;stroke-linejoin:miter;stroke-width:0.25;"/>
   </g>
   <g id="patch_11">
    <path d="M 203.142857 75.085714 
L 290.571429 75.085714 
" style="fill:none;stroke:#000000;stroke-linecap:square;stroke-linejoin:miter;stroke-width:0.25;"/>
   </g>
   <g id="text_24">
    <text style="font-family:DejaVu Sans;font-size:7.2px;font-stretch:normal;font-style:normal;font-weight:normal;text-anchor:middle;" transform="rotate(-0, 246.857143, 69.085714)" x="246.857143" y="69.085714">20.0</text>
   </g>
  </g>
  <g id="axes_3">
   <g id="patch_12">
    <path d="M 334.285714 162.514286 
L 421.714286 162.514286 
L 421.714286 75.085714 
L 334.285714 75.085714 
z
" style="fill:#ffffff;"/>
   </g>
   <g id="matplotlib.axis_5">
    <g id="xtick_7">
     <g id="line2d_39">
      <g>
       <use style="stroke:#000000;stroke-width:0.25;" x="338.25974" xlink:href="#m6748a81b61" y="162.514286"/>
      </g>
     </g>
     <g id="text_25">
      <text style="font-family:DejaVu Sans;font-size:6px;font-stretch:normal;font-style:normal;font-weight:normal;text-anchor:middle;" transform="rotate(-0, 338.25974, 174.073348)" x="338.25974" y="174.073348">0.0</text>
     </g>
    </g>
    <g id="xtick_8">
     <g id="line2d_40">
      <g>
       <use style="stroke:#000000;stroke-width:0.25;" x="378" xlink:href="#m6748a81b61" y="162.514286"/>
      </g>
     </g>
     <g id="text_26">
      <text style="font-family:DejaVu Sans;font-size:6px;font-stretch:normal;font-style:normal;font-weight:normal;text-anchor:middle;" transform="rotate(-0, 378, 174.073348)" x="378" y="174.073348">0.5</text>
     </g>
    </g>
    <g id="xtick_9">
     <g id="line2d_41">
      <g>
       <use style="stroke:#000000;stroke-width:0.25;" x="417.74026" xlink:href="#m6748a81b61" y="162.514286"/>
      </g>
     </g>
     <g id="text_27">
      <text style="font-family:DejaVu Sans;font-size:6px;font-stretch:normal;font-style:normal;font-weight:normal;text-anchor:middle;" transform="rotate(-0, 417.74026, 174.073348)" x="417.74026" y="174.073348">1.0</text>
     </g>
    </g>
    <g id="text_28">
     <text style="font-family:DejaVu Sans;font-size:6px;font-stretch:normal;font-style:normal;font-weight:normal;text-anchor:middle;" transform="rotate(-0, 378, 183.880223)" x="378" y="183.880223">p(F)</text>
    </g>
   </g>
   <g id="matplotlib.axis_6">
    <g id="ytick_13">
     <g id="line2d_42">
      <g>
       <use style="stroke:#000000;stroke-width:0.25;" x="334.285714" xlink:href="#me2c5052b33" y="158.54026"/>
      </g>
     </g>
     <g id="text_29">
      <text style="font-family:DejaVu Sans;font-size:6px;font-stretch:normal;font-style:normal;font-weight:normal;text-anchor:end;" transform="rotate(-0, 327.285714, 160.819791)" x="327.285714" y="160.819791">0.0</text>
     </g>
    </g>
    <g id="ytick_14">
     <g id="line2d_43">
      <g>
       <use style="stroke:#000000;stroke-width:0.25;" x="334.285714" xlink:href="#me2c5052b33" y="142.644156"/>
      </g>
     </g>
     <g id="text_30">
      <text style="font-family:DejaVu Sans;font-size:6px;font-stretch:normal;font-style:normal;font-weight:normal;text-anchor:end;" transform="rotate(-0, 327.285714, 144.923687)" x="327.285714" y="144.923687">0.2</text>
     </g>
    </g>
    <g id="ytick_15">
     <g id="line2d_44">
      <g>
       <use style="stroke:#000000;stroke-width:0.25;" x="334.285714" xlink:href="#me2c5052b33" y="126.748052"/>
      </g>
     </g>
     <g id="text_31">
      <text style="font-family:DejaVu Sans;font-size:6px;font-stretch:normal;font-style:normal;font-weight:normal;text-anchor:end;" transform="rotate(-0, 327.285714, 129.027583)" x="327.285714" y="129.027583">0.4</text>
     </g>
    </g>
    <g id="ytick_16">
     <g id="line2d_45">
      <g>
       <use style="stroke:#000000;stroke-width:0.25;" x="334.285714" xlink:href="#me2c5052b33" y="110.851948"/>
      </g>
     </g>
     <g id="text_32">
      <text style="font-family:DejaVu Sans;font-size:6px;font-stretch:normal;font-style:normal;font-weight:normal;text-anchor:end;" transform="rotate(-0, 327.285714, 113.131479)" x="327.285714" y="113.131479">0.6</text>
     </g>
    </g>
    <g id="ytick_17">
     <g id="line2d_46">
      <g>
       <use style="stroke:#000000;stroke-width:0.25;" x="334.285714" xlink:href="#me2c5052b33" y="94.955844"/>
      </g>
     </g>
     <g id="text_33">
      <text style="font-family:DejaVu Sans;font-size:6px;font-stretch:normal;font-style:normal;font-weight:normal;text-anchor:end;" transform="rotate(-0, 327.285714, 97.235375)" x="327.285714" y="97.235375">0.8</text>
     </g>
    </g>
    <g id="ytick_18">
     <g id="line2d_47">
      <g>
       <use style="stroke:#000000;stroke-width:0.25;" x="334.285714" xlink:href="#me2c5052b33" y="79.05974"/>
      </g>
     </g>
     <g id="text_34">
      <text style="font-family:DejaVu Sans;font-size:6px;font-stretch:normal;font-style:normal;font-weight:normal;text-anchor:end;" transform="rotate(-0, 327.285714, 81.339272)" x="327.285714" y="81.339272">1.0</text>
     </g>
    </g>
    <g id="text_35">
     <text style="font-family:DejaVu Sans;font-size:6px;font-stretch:normal;font-style:normal;font-weight:normal;text-anchor:middle;" transform="rotate(-90, 312.496027, 118.8)" x="312.496027" y="118.8">p(H)</text>
    </g>
   </g>
   <g id="line2d_48">
    <path clip-path="url(#p979d600a01)" d="M 417.74026 79.05974 
L 417.74026 79.05974 
L 417.74026 79.05974 
L 417.74026 79.05974 
L 417.74026 79.05974 
L 417.74026 79.05974 
L 417.74026 79.05974 
L 417.74026 79.05974 
L 417.74026 84.358442 
L 412.441558 94.955844 
L 407.142857 100.254545 
L 396.545455 105.553247 
L 391.246753 105.553247 
L 380.649351 121.449351 
L 375.350649 137.345455 
L 364.753247 142.644156 
L 359.454545 142.644156 
L 354.155844 147.942857 
L 343.558442 147.942857 
L 343.558442 153.241558 
L 343.558442 153.241558 
L 343.558442 153.241558 
L 343.558442 153.241558 
L 343.558442 153.241558 
L 343.558442 158.54026 
L 343.558442 158.54026 
L 343.558442 158.54026 
L 343.558442 158.54026 
L 343.558442 158.54026 
L 338.25974 158.54026 
L 338.25974 158.54026 
L 338.25974 158.54026 
L 338.25974 158.54026 
L 338.25974 158.54026 
L 338.25974 158.54026 
L 338.25974 158.54026 
L 338.25974 158.54026 
L 338.25974 158.54026 
L 338.25974 158.54026 
L 338.25974 158.54026 
L 338.25974 158.54026 
L 338.25974 158.54026 
L 338.25974 158.54026 
L 338.25974 158.54026 
L 338.25974 158.54026 
L 338.25974 158.54026 
L 338.25974 158.54026 
L 338.25974 158.54026 
L 338.25974 158.54026 
L 338.25974 158.54026 
" style="fill:none;stroke:#ab3c37;stroke-linecap:square;stroke-width:0.5;"/>
   </g>
   <g id="line2d_49">
    <path clip-path="url(#p979d600a01)" d="M 338.25974 158.54026 
L 417.74026 79.05974 
" style="fill:none;stroke:#000000;stroke-dasharray:1,1.65;stroke-dashoffset:0;"/>
   </g>
   <g id="line2d_50">
    <path clip-path="url(#p979d600a01)" d="M 417.74026 79.05974 
L 417.74026 79.05974 
L 417.74026 79.05974 
L 417.74026 79.05974 
L 417.74026 79.05974 
L 417.74026 79.05974 
L 417.74026 79.05974 
L 415.090909 79.05974 
L 415.090909 79.05974 
L 412.441558 79.05974 
L 409.792208 79.05974 
L 399.194805 84.358442 
L 380.649351 94.955844 
L 367.402597 108.202597 
L 364.753247 110.851948 
L 354.155844 113.501299 
L 343.558442 118.8 
L 343.558442 129.397403 
L 343.558442 132.046753 
L 338.25974 139.994805 
L 338.25974 150.592208 
L 338.25974 153.241558 
L 338.25974 155.890909 
L 338.25974 155.890909 
L 338.25974 155.890909 
L 338.25974 155.890909 
L 338.25974 155.890909 
L 338.25974 155.890909 
L 338.25974 155.890909 
L 338.25974 158.54026 
L 338.25974 158.54026 
L 338.25974 158.54026 
L 338.25974 158.54026 
L 338.25974 158.54026 
L 338.25974 158.54026 
L 338.25974 158.54026 
L 338.25974 158.54026 
L 338.25974 158.54026 
L 338.25974 158.54026 
L 338.25974 158.54026 
L 338.25974 158.54026 
L 338.25974 158.54026 
L 338.25974 158.54026 
L 338.25974 158.54026 
L 338.25974 158.54026 
L 338.25974 158.54026 
L 338.25974 158.54026 
L 338.25974 158.54026 
L 338.25974 158.54026 
L 338.25974 158.54026 
" style="fill:none;stroke:#d29c82;stroke-linecap:square;stroke-width:0.5;"/>
   </g>
   <g id="line2d_51">
    <path clip-path="url(#p979d600a01)" d="M 338.25974 158.54026 
L 417.74026 79.05974 
" style="fill:none;stroke:#000000;stroke-dasharray:1,1.65;stroke-dashoffset:0;"/>
   </g>
   <g id="line2d_52">
    <path clip-path="url(#p979d600a01)" d="M 417.74026 79.05974 
L 417.74026 79.05974 
L 417.74026 79.05974 
L 417.74026 79.05974 
L 417.74026 79.05974 
L 417.74026 79.05974 
L 417.74026 79.05974 
L 415.090909 79.05974 
L 415.090909 79.05974 
L 409.792208 79.05974 
L 401.844156 79.05974 
L 391.246753 81.709091 
L 367.402597 89.657143 
L 356.805195 97.605195 
L 348.857143 97.605195 
L 343.558442 97.605195 
L 340.909091 108.202597 
L 340.909091 110.851948 
L 338.25974 113.501299 
L 338.25974 116.150649 
L 338.25974 116.150649 
L 338.25974 124.098701 
L 338.25974 129.397403 
L 338.25974 132.046753 
L 338.25974 137.345455 
L 338.25974 137.345455 
L 338.25974 137.345455 
L 338.25974 139.994805 
L 338.25974 139.994805 
L 338.25974 145.293506 
L 338.25974 147.942857 
L 338.25974 147.942857 
L 338.25974 150.592208 
L 338.25974 150.592208 
L 338.25974 153.241558 
L 338.25974 153.241558 
L 338.25974 153.241558 
L 338.25974 153.241558 
L 338.25974 153.241558 
L 338.25974 153.241558 
L 338.25974 153.241558 
L 338.25974 155.890909 
L 338.25974 155.890909 
L 338.25974 155.890909 
L 338.25974 155.890909 
L 338.25974 158.54026 
L 338.25974 158.54026 
L 338.25974 158.54026 
L 338.25974 158.54026 
L 338.25974 158.54026 
" style="fill:none;stroke:#d1d2d2;stroke-linecap:square;stroke-width:0.5;"/>
   </g>
   <g id="line2d_53">
    <path clip-path="url(#p979d600a01)" d="M 338.25974 158.54026 
L 417.74026 79.05974 
" style="fill:none;stroke:#000000;stroke-dasharray:1,1.65;stroke-dashoffset:0;"/>
   </g>
   <g id="line2d_54">
    <path clip-path="url(#p979d600a01)" d="M 417.74026 79.05974 
L 417.74026 79.05974 
L 417.74026 79.05974 
L 417.74026 79.05974 
L 417.74026 79.05974 
L 417.74026 79.05974 
L 417.74026 79.05974 
L 417.74026 79.05974 
L 417.74026 79.05974 
L 409.792208 81.709091 
L 401.844156 81.709091 
L 380.649351 84.358442 
L 362.103896 89.657143 
L 348.857143 92.306494 
L 343.558442 94.955844 
L 340.909091 94.955844 
L 340.909091 102.903896 
L 340.909091 102.903896 
L 338.25974 105.553247 
L 338.25974 105.553247 
L 338.25974 108.202597 
L 338.25974 110.851948 
L 338.25974 113.501299 
L 338.25974 121.449351 
L 338.25974 126.748052 
L 338.25974 129.397403 
L 338.25974 132.046753 
L 338.25974 142.644156 
L 338.25974 142.644156 
L 338.25974 147.942857 
L 338.25974 150.592208 
L 338.25974 150.592208 
L 338.25974 150.592208 
L 338.25974 150.592208 
L 338.25974 150.592208 
L 338.25974 153.241558 
L 338.25974 155.890909 
L 338.25974 155.890909 
L 338.25974 155.890909 
L 338.25974 155.890909 
L 338.25974 155.890909 
L 338.25974 155.890909 
L 338.25974 155.890909 
L 338.25974 155.890909 
L 338.25974 158.54026 
L 338.25974 158.54026 
L 338.25974 158.54026 
L 338.25974 158.54026 
L 338.25974 158.54026 
L 338.25974 158.54026 
" style="fill:none;stroke:#8eb1c2;stroke-linecap:square;stroke-width:0.5;"/>
   </g>
   <g id="line2d_55">
    <path clip-path="url(#p979d600a01)" d="M 338.25974 158.54026 
L 417.74026 79.05974 
" style="fill:none;stroke:#000000;stroke-dasharray:1,1.65;stroke-dashoffset:0;"/>
   </g>
   <g id="line2d_56">
    <path clip-path="url(#p979d600a01)" d="M 417.74026 79.05974 
L 417.74026 79.05974 
L 417.74026 79.05974 
L 417.74026 79.05974 
L 417.74026 79.05974 
L 417.74026 79.05974 
L 417.74026 79.05974 
L 417.74026 79.05974 
L 412.441558 79.05974 
L 409.792208 79.05974 
L 391.246753 81.709091 
L 380.649351 81.709091 
L 364.753247 87.007792 
L 348.857143 92.306494 
L 348.857143 97.605195 
L 348.857143 97.605195 
L 346.207792 97.605195 
L 340.909091 100.254545 
L 340.909091 100.254545 
L 338.25974 100.254545 
L 338.25974 100.254545 
L 338.25974 100.254545 
L 338.25974 102.903896 
L 338.25974 102.903896 
L 338.25974 105.553247 
L 338.25974 110.851948 
L 338.25974 118.8 
L 338.25974 121.449351 
L 338.25974 124.098701 
L 338.25974 126.748052 
L 338.25974 129.397403 
L 338.25974 132.046753 
L 338.25974 134.696104 
L 338.25974 137.345455 
L 338.25974 137.345455 
L 338.25974 139.994805 
L 338.25974 139.994805 
L 338.25974 139.994805 
L 338.25974 139.994805 
L 338.25974 147.942857 
L 338.25974 147.942857 
L 338.25974 147.942857 
L 338.25974 150.592208 
L 338.25974 150.592208 
L 338.25974 155.890909 
L 338.25974 155.890909 
L 338.25974 155.890909 
L 338.25974 155.890909 
L 338.25974 158.54026 
L 338.25974 158.54026 
" style="fill:none;stroke:#2f6f9f;stroke-linecap:square;stroke-width:0.5;"/>
   </g>
   <g id="line2d_57">
    <path clip-path="url(#p979d600a01)" d="M 338.25974 158.54026 
L 417.74026 79.05974 
" style="fill:none;stroke:#000000;stroke-dasharray:1,1.65;stroke-dashoffset:0;"/>
   </g>
   <g id="patch_13">
    <path d="M 334.285714 162.514286 
L 334.285714 75.085714 
" style="fill:none;stroke:#000000;stroke-linecap:square;stroke-linejoin:miter;stroke-width:0.25;"/>
   </g>
   <g id="patch_14">
    <path d="M 421.714286 162.514286 
L 421.714286 75.085714 
" style="fill:none;stroke:#000000;stroke-linecap:square;stroke-linejoin:miter;stroke-width:0.25;"/>
   </g>
   <g id="patch_15">
    <path d="M 334.285714 162.514286 
L 421.714286 162.514286 
" style="fill:none;stroke:#000000;stroke-linecap:square;stroke-linejoin:miter;stroke-width:0.25;"/>
   </g>
   <g id="patch_16">
    <path d="M 334.285714 75.085714 
L 421.714286 75.085714 
" style="fill:none;stroke:#000000;stroke-linecap:square;stroke-linejoin:miter;stroke-width:0.25;"/>
   </g>
   <g id="text_36">
    <text style="font-family:DejaVu Sans;font-size:7.2px;font-stretch:normal;font-style:normal;font-weight:normal;text-anchor:middle;" transform="rotate(-0, 378, 69.085714)" x="378" y="69.085714">30.0</text>
   </g>
  </g>
  <g id="axes_4">
   <g id="patch_17">
    <path d="M 465.428571 162.514286 
L 552.857143 162.514286 
L 552.857143 75.085714 
L 465.428571 75.085714 
z
" style="fill:#ffffff;"/>
   </g>
   <g id="matplotlib.axis_7">
    <g id="xtick_10">
     <g id="line2d_58">
      <g>
       <use style="stroke:#000000;stroke-width:0.25;" x="469.402597" xlink:href="#m6748a81b61" y="162.514286"/>
      </g>
     </g>
     <g id="text_37">
      <text style="font-family:DejaVu Sans;font-size:6px;font-stretch:normal;font-style:normal;font-weight:normal;text-anchor:middle;" transform="rotate(-0, 469.402597, 174.073348)" x="469.402597" y="174.073348">0.0</text>
     </g>
    </g>
    <g id="xtick_11">
     <g id="line2d_59">
      <g>
       <use style="stroke:#000000;stroke-width:0.25;" x="509.142857" xlink:href="#m6748a81b61" y="162.514286"/>
      </g>
     </g>
     <g id="text_38">
      <text style="font-family:DejaVu Sans;font-size:6px;font-stretch:normal;font-style:normal;font-weight:normal;text-anchor:middle;" transform="rotate(-0, 509.142857, 174.073348)" x="509.142857" y="174.073348">0.5</text>
     </g>
    </g>
    <g id="xtick_12">
     <g id="line2d_60">
      <g>
       <use style="stroke:#000000;stroke-width:0.25;" x="548.883117" xlink:href="#m6748a81b61" y="162.514286"/>
      </g>
     </g>
     <g id="text_39">
      <text style="font-family:DejaVu Sans;font-size:6px;font-stretch:normal;font-style:normal;font-weight:normal;text-anchor:middle;" transform="rotate(-0, 548.883117, 174.073348)" x="548.883117" y="174.073348">1.0</text>
     </g>
    </g>
    <g id="text_40">
     <text style="font-family:DejaVu Sans;font-size:6px;font-stretch:normal;font-style:normal;font-weight:normal;text-anchor:middle;" transform="rotate(-0, 509.142857, 183.880223)" x="509.142857" y="183.880223">p(F)</text>
    </g>
   </g>
   <g id="matplotlib.axis_8">
    <g id="ytick_19">
     <g id="line2d_61">
      <g>
       <use style="stroke:#000000;stroke-width:0.25;" x="465.428571" xlink:href="#me2c5052b33" y="158.54026"/>
      </g>
     </g>
     <g id="text_41">
      <text style="font-family:DejaVu Sans;font-size:6px;font-stretch:normal;font-style:normal;font-weight:normal;text-anchor:end;" transform="rotate(-0, 458.428571, 160.819791)" x="458.428571" y="160.819791">0.0</text>
     </g>
    </g>
    <g id="ytick_20">
     <g id="line2d_62">
      <g>
       <use style="stroke:#000000;stroke-width:0.25;" x="465.428571" xlink:href="#me2c5052b33" y="142.644156"/>
      </g>
     </g>
     <g id="text_42">
      <text style="font-family:DejaVu Sans;font-size:6px;font-stretch:normal;font-style:normal;font-weight:normal;text-anchor:end;" transform="rotate(-0, 458.428571, 144.923687)" x="458.428571" y="144.923687">0.2</text>
     </g>
    </g>
    <g id="ytick_21">
     <g id="line2d_63">
      <g>
       <use style="stroke:#000000;stroke-width:0.25;" x="465.428571" xlink:href="#me2c5052b33" y="126.748052"/>
      </g>
     </g>
     <g id="text_43">
      <text style="font-family:DejaVu Sans;font-size:6px;font-stretch:normal;font-style:normal;font-weight:normal;text-anchor:end;" transform="rotate(-0, 458.428571, 129.027583)" x="458.428571" y="129.027583">0.4</text>
     </g>
    </g>
    <g id="ytick_22">
     <g id="line2d_64">
      <g>
       <use style="stroke:#000000;stroke-width:0.25;" x="465.428571" xlink:href="#me2c5052b33" y="110.851948"/>
      </g>
     </g>
     <g id="text_44">
      <text style="font-family:DejaVu Sans;font-size:6px;font-stretch:normal;font-style:normal;font-weight:normal;text-anchor:end;" transform="rotate(-0, 458.428571, 113.131479)" x="458.428571" y="113.131479">0.6</text>
     </g>
    </g>
    <g id="ytick_23">
     <g id="line2d_65">
      <g>
       <use style="stroke:#000000;stroke-width:0.25;" x="465.428571" xlink:href="#me2c5052b33" y="94.955844"/>
      </g>
     </g>
     <g id="text_45">
      <text style="font-family:DejaVu Sans;font-size:6px;font-stretch:normal;font-style:normal;font-weight:normal;text-anchor:end;" transform="rotate(-0, 458.428571, 97.235375)" x="458.428571" y="97.235375">0.8</text>
     </g>
    </g>
    <g id="ytick_24">
     <g id="line2d_66">
      <g>
       <use style="stroke:#000000;stroke-width:0.25;" x="465.428571" xlink:href="#me2c5052b33" y="79.05974"/>
      </g>
     </g>
     <g id="text_46">
      <text style="font-family:DejaVu Sans;font-size:6px;font-stretch:normal;font-style:normal;font-weight:normal;text-anchor:end;" transform="rotate(-0, 458.428571, 81.339272)" x="458.428571" y="81.339272">1.0</text>
     </g>
    </g>
    <g id="text_47">
     <text style="font-family:DejaVu Sans;font-size:6px;font-stretch:normal;font-style:normal;font-weight:normal;text-anchor:middle;" transform="rotate(-90, 443.638884, 118.8)" x="443.638884" y="118.8">p(H)</text>
    </g>
   </g>
   <g id="line2d_67">
    <path clip-path="url(#p82da799bfe)" d="M 548.883117 79.05974 
L 548.883117 79.05974 
L 548.883117 79.05974 
L 548.883117 79.05974 
L 548.883117 79.05974 
L 548.883117 79.05974 
L 548.883117 84.358442 
L 548.883117 89.657143 
L 548.883117 89.657143 
L 543.584416 89.657143 
L 543.584416 100.254545 
L 538.285714 100.254545 
L 522.38961 116.150649 
L 511.792208 121.449351 
L 495.896104 132.046753 
L 480 137.345455 
L 480 147.942857 
L 474.701299 153.241558 
L 469.402597 153.241558 
L 469.402597 158.54026 
L 469.402597 158.54026 
L 469.402597 158.54026 
L 469.402597 158.54026 
L 469.402597 158.54026 
L 469.402597 158.54026 
L 469.402597 158.54026 
L 469.402597 158.54026 
L 469.402597 158.54026 
L 469.402597 158.54026 
L 469.402597 158.54026 
L 469.402597 158.54026 
L 469.402597 158.54026 
L 469.402597 158.54026 
L 469.402597 158.54026 
L 469.402597 158.54026 
L 469.402597 158.54026 
L 469.402597 158.54026 
L 469.402597 158.54026 
L 469.402597 158.54026 
L 469.402597 158.54026 
L 469.402597 158.54026 
L 469.402597 158.54026 
L 469.402597 158.54026 
L 469.402597 158.54026 
L 469.402597 158.54026 
L 469.402597 158.54026 
L 469.402597 158.54026 
L 469.402597 158.54026 
L 469.402597 158.54026 
L 469.402597 158.54026 
" style="fill:none;stroke:#ab3c37;stroke-linecap:square;stroke-width:0.5;"/>
   </g>
   <g id="line2d_68">
    <path clip-path="url(#p82da799bfe)" d="M 469.402597 158.54026 
L 548.883117 79.05974 
" style="fill:none;stroke:#000000;stroke-dasharray:1,1.65;stroke-dashoffset:0;"/>
   </g>
   <g id="line2d_69">
    <path clip-path="url(#p82da799bfe)" d="M 548.883117 79.05974 
L 548.883117 79.05974 
L 548.883117 79.05974 
L 548.883117 79.05974 
L 548.883117 79.05974 
L 548.883117 79.05974 
L 548.883117 79.05974 
L 548.883117 79.05974 
L 548.883117 79.05974 
L 543.584416 79.05974 
L 532.987013 81.709091 
L 501.194805 87.007792 
L 487.948052 87.007792 
L 482.649351 97.605195 
L 482.649351 105.553247 
L 477.350649 110.851948 
L 474.701299 113.501299 
L 469.402597 116.150649 
L 469.402597 118.8 
L 469.402597 134.696104 
L 469.402597 139.994805 
L 469.402597 142.644156 
L 469.402597 145.293506 
L 469.402597 145.293506 
L 469.402597 147.942857 
L 469.402597 150.592208 
L 469.402597 153.241558 
L 469.402597 158.54026 
L 469.402597 158.54026 
L 469.402597 158.54026 
L 469.402597 158.54026 
L 469.402597 158.54026 
L 469.402597 158.54026 
L 469.402597 158.54026 
L 469.402597 158.54026 
L 469.402597 158.54026 
L 469.402597 158.54026 
L 469.402597 158.54026 
L 469.402597 158.54026 
L 469.402597 158.54026 
L 469.402597 158.54026 
L 469.402597 158.54026 
L 469.402597 158.54026 
L 469.402597 158.54026 
L 469.402597 158.54026 
L 469.402597 158.54026 
L 469.402597 158.54026 
L 469.402597 158.54026 
L 469.402597 158.54026 
L 469.402597 158.54026 
" style="fill:none;stroke:#d29c82;stroke-linecap:square;stroke-width:0.5;"/>
   </g>
   <g id="line2d_70">
    <path clip-path="url(#p82da799bfe)" d="M 469.402597 158.54026 
L 548.883117 79.05974 
" style="fill:none;stroke:#000000;stroke-dasharray:1,1.65;stroke-dashoffset:0;"/>
   </g>
   <g id="line2d_71">
    <path clip-path="url(#p82da799bfe)" d="M 548.883117 79.05974 
L 548.883117 79.05974 
L 548.883117 79.05974 
L 548.883117 79.05974 
L 548.883117 79.05974 
L 548.883117 79.05974 
L 548.883117 79.05974 
L 548.883117 79.05974 
L 546.233766 79.05974 
L 540.935065 79.05974 
L 519.74026 81.709091 
L 501.194805 84.358442 
L 480 89.657143 
L 472.051948 94.955844 
L 472.051948 102.903896 
L 469.402597 105.553247 
L 469.402597 105.553247 
L 469.402597 110.851948 
L 469.402597 121.449351 
L 469.402597 124.098701 
L 469.402597 124.098701 
L 469.402597 124.098701 
L 469.402597 132.046753 
L 469.402597 132.046753 
L 469.402597 132.046753 
L 469.402597 137.345455 
L 469.402597 139.994805 
L 469.402597 139.994805 
L 469.402597 142.644156 
L 469.402597 147.942857 
L 469.402597 150.592208 
L 469.402597 153.241558 
L 469.402597 155.890909 
L 469.402597 155.890909 
L 469.402597 155.890909 
L 469.402597 155.890909 
L 469.402597 158.54026 
L 469.402597 158.54026 
L 469.402597 158.54026 
L 469.402597 158.54026 
L 469.402597 158.54026 
L 469.402597 158.54026 
L 469.402597 158.54026 
L 469.402597 158.54026 
L 469.402597 158.54026 
L 469.402597 158.54026 
L 469.402597 158.54026 
L 469.402597 158.54026 
L 469.402597 158.54026 
L 469.402597 158.54026 
" style="fill:none;stroke:#d1d2d2;stroke-linecap:square;stroke-width:0.5;"/>
   </g>
   <g id="line2d_72">
    <path clip-path="url(#p82da799bfe)" d="M 469.402597 158.54026 
L 548.883117 79.05974 
" style="fill:none;stroke:#000000;stroke-dasharray:1,1.65;stroke-dashoffset:0;"/>
   </g>
   <g id="line2d_73">
    <path clip-path="url(#p82da799bfe)" d="M 548.883117 79.05974 
L 548.883117 79.05974 
L 548.883117 79.05974 
L 548.883117 79.05974 
L 548.883117 79.05974 
L 548.883117 79.05974 
L 548.883117 79.05974 
L 548.883117 79.05974 
L 546.233766 79.05974 
L 540.935065 79.05974 
L 532.987013 79.05974 
L 503.844156 79.05974 
L 485.298701 79.05974 
L 480 81.709091 
L 472.051948 84.358442 
L 472.051948 87.007792 
L 469.402597 89.657143 
L 469.402597 92.306494 
L 469.402597 92.306494 
L 469.402597 94.955844 
L 469.402597 94.955844 
L 469.402597 102.903896 
L 469.402597 102.903896 
L 469.402597 108.202597 
L 469.402597 113.501299 
L 469.402597 118.8 
L 469.402597 121.449351 
L 469.402597 124.098701 
L 469.402597 124.098701 
L 469.402597 126.748052 
L 469.402597 126.748052 
L 469.402597 134.696104 
L 469.402597 137.345455 
L 469.402597 139.994805 
L 469.402597 147.942857 
L 469.402597 150.592208 
L 469.402597 153.241558 
L 469.402597 158.54026 
L 469.402597 158.54026 
L 469.402597 158.54026 
L 469.402597 158.54026 
L 469.402597 158.54026 
L 469.402597 158.54026 
L 469.402597 158.54026 
L 469.402597 158.54026 
L 469.402597 158.54026 
L 469.402597 158.54026 
L 469.402597 158.54026 
L 469.402597 158.54026 
L 469.402597 158.54026 
" style="fill:none;stroke:#8eb1c2;stroke-linecap:square;stroke-width:0.5;"/>
   </g>
   <g id="line2d_74">
    <path clip-path="url(#p82da799bfe)" d="M 469.402597 158.54026 
L 548.883117 79.05974 
" style="fill:none;stroke:#000000;stroke-dasharray:1,1.65;stroke-dashoffset:0;"/>
   </g>
   <g id="line2d_75">
    <path clip-path="url(#p82da799bfe)" d="M 548.883117 79.05974 
L 548.883117 79.05974 
L 548.883117 79.05974 
L 548.883117 79.05974 
L 548.883117 79.05974 
L 548.883117 79.05974 
L 548.883117 79.05974 
L 540.935065 79.05974 
L 530.337662 79.05974 
L 525.038961 79.05974 
L 517.090909 79.05974 
L 498.545455 79.05974 
L 482.649351 79.05974 
L 472.051948 79.05974 
L 472.051948 84.358442 
L 472.051948 84.358442 
L 469.402597 84.358442 
L 469.402597 87.007792 
L 469.402597 89.657143 
L 469.402597 89.657143 
L 469.402597 97.605195 
L 469.402597 102.903896 
L 469.402597 102.903896 
L 469.402597 102.903896 
L 469.402597 105.553247 
L 469.402597 110.851948 
L 469.402597 110.851948 
L 469.402597 118.8 
L 469.402597 118.8 
L 469.402597 121.449351 
L 469.402597 121.449351 
L 469.402597 121.449351 
L 469.402597 129.397403 
L 469.402597 134.696104 
L 469.402597 139.994805 
L 469.402597 142.644156 
L 469.402597 145.293506 
L 469.402597 147.942857 
L 469.402597 147.942857 
L 469.402597 147.942857 
L 469.402597 147.942857 
L 469.402597 150.592208 
L 469.402597 150.592208 
L 469.402597 153.241558 
L 469.402597 153.241558 
L 469.402597 153.241558 
L 469.402597 155.890909 
L 469.402597 155.890909 
L 469.402597 155.890909 
L 469.402597 158.54026 
" style="fill:none;stroke:#2f6f9f;stroke-linecap:square;stroke-width:0.5;"/>
   </g>
   <g id="line2d_76">
    <path clip-path="url(#p82da799bfe)" d="M 469.402597 158.54026 
L 548.883117 79.05974 
" style="fill:none;stroke:#000000;stroke-dasharray:1,1.65;stroke-dashoffset:0;"/>
   </g>
   <g id="patch_18">
    <path d="M 465.428571 162.514286 
L 465.428571 75.085714 
" style="fill:none;stroke:#000000;stroke-linecap:square;stroke-linejoin:miter;stroke-width:0.25;"/>
   </g>
   <g id="patch_19">
    <path d="M 552.857143 162.514286 
L 552.857143 75.085714 
" style="fill:none;stroke:#000000;stroke-linecap:square;stroke-linejoin:miter;stroke-width:0.25;"/>
   </g>
   <g id="patch_20">
    <path d="M 465.428571 162.514286 
L 552.857143 162.514286 
" style="fill:none;stroke:#000000;stroke-linecap:square;stroke-linejoin:miter;stroke-width:0.25;"/>
   </g>
   <g id="patch_21">
    <path d="M 465.428571 75.085714 
L 552.857143 75.085714 
" style="fill:none;stroke:#000000;stroke-linecap:square;stroke-linejoin:miter;stroke-width:0.25;"/>
   </g>
   <g id="text_48">
    <text style="font-family:DejaVu Sans;font-size:7.2px;font-stretch:normal;font-style:normal;font-weight:normal;text-anchor:middle;" transform="rotate(-0, 509.142857, 69.085714)" x="509.142857" y="69.085714">40.0</text>
   </g>
  </g>
  <g id="axes_5">
   <g id="patch_22">
    <path d="M 596.571429 162.514286 
L 684 162.514286 
L 684 75.085714 
L 596.571429 75.085714 
z
" style="fill:#ffffff;"/>
   </g>
   <g id="matplotlib.axis_9">
    <g id="xtick_13">
     <g id="line2d_77">
      <g>
       <use style="stroke:#000000;stroke-width:0.25;" x="600.545455" xlink:href="#m6748a81b61" y="162.514286"/>
      </g>
     </g>
     <g id="text_49">
      <text style="font-family:DejaVu Sans;font-size:6px;font-stretch:normal;font-style:normal;font-weight:normal;text-anchor:middle;" transform="rotate(-0, 600.545455, 174.073348)" x="600.545455" y="174.073348">0.0</text>
     </g>
    </g>
    <g id="xtick_14">
     <g id="line2d_78">
      <g>
       <use style="stroke:#000000;stroke-width:0.25;" x="640.285714" xlink:href="#m6748a81b61" y="162.514286"/>
      </g>
     </g>
     <g id="text_50">
      <text style="font-family:DejaVu Sans;font-size:6px;font-stretch:normal;font-style:normal;font-weight:normal;text-anchor:middle;" transform="rotate(-0, 640.285714, 174.073348)" x="640.285714" y="174.073348">0.5</text>
     </g>
    </g>
    <g id="xtick_15">
     <g id="line2d_79">
      <g>
       <use style="stroke:#000000;stroke-width:0.25;" x="680.025974" xlink:href="#m6748a81b61" y="162.514286"/>
      </g>
     </g>
     <g id="text_51">
      <text style="font-family:DejaVu Sans;font-size:6px;font-stretch:normal;font-style:normal;font-weight:normal;text-anchor:middle;" transform="rotate(-0, 680.025974, 174.073348)" x="680.025974" y="174.073348">1.0</text>
     </g>
    </g>
    <g id="text_52">
     <text style="font-family:DejaVu Sans;font-size:6px;font-stretch:normal;font-style:normal;font-weight:normal;text-anchor:middle;" transform="rotate(-0, 640.285714, 183.880223)" x="640.285714" y="183.880223">p(F)</text>
    </g>
   </g>
   <g id="matplotlib.axis_10">
    <g id="ytick_25">
     <g id="line2d_80">
      <g>
       <use style="stroke:#000000;stroke-width:0.25;" x="596.571429" xlink:href="#me2c5052b33" y="158.54026"/>
      </g>
     </g>
     <g id="text_53">
      <text style="font-family:DejaVu Sans;font-size:6px;font-stretch:normal;font-style:normal;font-weight:normal;text-anchor:end;" transform="rotate(-0, 589.571429, 160.819791)" x="589.571429" y="160.819791">0.0</text>
     </g>
    </g>
    <g id="ytick_26">
     <g id="line2d_81">
      <g>
       <use style="stroke:#000000;stroke-width:0.25;" x="596.571429" xlink:href="#me2c5052b33" y="142.644156"/>
      </g>
     </g>
     <g id="text_54">
      <text style="font-family:DejaVu Sans;font-size:6px;font-stretch:normal;font-style:normal;font-weight:normal;text-anchor:end;" transform="rotate(-0, 589.571429, 144.923687)" x="589.571429" y="144.923687">0.2</text>
     </g>
    </g>
    <g id="ytick_27">
     <g id="line2d_82">
      <g>
       <use style="stroke:#000000;stroke-width:0.25;" x="596.571429" xlink:href="#me2c5052b33" y="126.748052"/>
      </g>
     </g>
     <g id="text_55">
      <text style="font-family:DejaVu Sans;font-size:6px;font-stretch:normal;font-style:normal;font-weight:normal;text-anchor:end;" transform="rotate(-0, 589.571429, 129.027583)" x="589.571429" y="129.027583">0.4</text>
     </g>
    </g>
    <g id="ytick_28">
     <g id="line2d_83">
      <g>
       <use style="stroke:#000000;stroke-width:0.25;" x="596.571429" xlink:href="#me2c5052b33" y="110.851948"/>
      </g>
     </g>
     <g id="text_56">
      <text style="font-family:DejaVu Sans;font-size:6px;font-stretch:normal;font-style:normal;font-weight:normal;text-anchor:end;" transform="rotate(-0, 589.571429, 113.131479)" x="589.571429" y="113.131479">0.6</text>
     </g>
    </g>
    <g id="ytick_29">
     <g id="line2d_84">
      <g>
       <use style="stroke:#000000;stroke-width:0.25;" x="596.571429" xlink:href="#me2c5052b33" y="94.955844"/>
      </g>
     </g>
     <g id="text_57">
      <text style="font-family:DejaVu Sans;font-size:6px;font-stretch:normal;font-style:normal;font-weight:normal;text-anchor:end;" transform="rotate(-0, 589.571429, 97.235375)" x="589.571429" y="97.235375">0.8</text>
     </g>
    </g>
    <g id="ytick_30">
     <g id="line2d_85">
      <g>
       <use style="stroke:#000000;stroke-width:0.25;" x="596.571429" xlink:href="#me2c5052b33" y="79.05974"/>
      </g>
     </g>
     <g id="text_58">
      <text style="font-family:DejaVu Sans;font-size:6px;font-stretch:normal;font-style:normal;font-weight:normal;text-anchor:end;" transform="rotate(-0, 589.571429, 81.339272)" x="589.571429" y="81.339272">1.0</text>
     </g>
    </g>
    <g id="text_59">
     <text style="font-family:DejaVu Sans;font-size:6px;font-stretch:normal;font-style:normal;font-weight:normal;text-anchor:middle;" transform="rotate(-90, 574.781741, 118.8)" x="574.781741" y="118.8">p(H)</text>
    </g>
   </g>
   <g id="line2d_86">
    <path clip-path="url(#p8b3dd02b08)" d="M 680.025974 79.05974 
L 680.025974 79.05974 
L 680.025974 79.05974 
L 680.025974 79.05974 
L 680.025974 79.05974 
L 680.025974 79.05974 
L 680.025974 79.05974 
L 680.025974 79.05974 
L 674.727273 84.358442 
L 674.727273 94.955844 
L 664.12987 100.254545 
L 637.636364 110.851948 
L 621.74026 132.046753 
L 611.142857 142.644156 
L 605.844156 158.54026 
L 600.545455 158.54026 
L 600.545455 158.54026 
L 600.545455 158.54026 
L 600.545455 158.54026 
L 600.545455 158.54026 
L 600.545455 158.54026 
L 600.545455 158.54026 
L 600.545455 158.54026 
L 600.545455 158.54026 
L 600.545455 158.54026 
L 600.545455 158.54026 
L 600.545455 158.54026 
L 600.545455 158.54026 
L 600.545455 158.54026 
L 600.545455 158.54026 
L 600.545455 158.54026 
L 600.545455 158.54026 
L 600.545455 158.54026 
L 600.545455 158.54026 
L 600.545455 158.54026 
L 600.545455 158.54026 
L 600.545455 158.54026 
L 600.545455 158.54026 
L 600.545455 158.54026 
L 600.545455 158.54026 
L 600.545455 158.54026 
L 600.545455 158.54026 
L 600.545455 158.54026 
L 600.545455 158.54026 
L 600.545455 158.54026 
L 600.545455 158.54026 
L 600.545455 158.54026 
L 600.545455 158.54026 
L 600.545455 158.54026 
L 600.545455 158.54026 
" style="fill:none;stroke:#ab3c37;stroke-linecap:square;stroke-width:0.5;"/>
   </g>
   <g id="line2d_87">
    <path clip-path="url(#p8b3dd02b08)" d="M 600.545455 158.54026 
L 680.025974 79.05974 
" style="fill:none;stroke:#000000;stroke-dasharray:1,1.65;stroke-dashoffset:0;"/>
   </g>
   <g id="line2d_88">
    <path clip-path="url(#p8b3dd02b08)" d="M 680.025974 79.05974 
L 680.025974 79.05974 
L 680.025974 79.05974 
L 680.025974 79.05974 
L 680.025974 79.05974 
L 680.025974 79.05974 
L 680.025974 81.709091 
L 680.025974 81.709091 
L 674.727273 84.358442 
L 669.428571 87.007792 
L 656.181818 94.955844 
L 634.987013 102.903896 
L 608.493506 118.8 
L 605.844156 132.046753 
L 600.545455 139.994805 
L 600.545455 139.994805 
L 600.545455 145.293506 
L 600.545455 150.592208 
L 600.545455 150.592208 
L 600.545455 158.54026 
L 600.545455 158.54026 
L 600.545455 158.54026 
L 600.545455 158.54026 
L 600.545455 158.54026 
L 600.545455 158.54026 
L 600.545455 158.54026 
L 600.545455 158.54026 
L 600.545455 158.54026 
L 600.545455 158.54026 
L 600.545455 158.54026 
L 600.545455 158.54026 
L 600.545455 158.54026 
L 600.545455 158.54026 
L 600.545455 158.54026 
L 600.545455 158.54026 
L 600.545455 158.54026 
L 600.545455 158.54026 
L 600.545455 158.54026 
L 600.545455 158.54026 
L 600.545455 158.54026 
L 600.545455 158.54026 
L 600.545455 158.54026 
L 600.545455 158.54026 
L 600.545455 158.54026 
L 600.545455 158.54026 
L 600.545455 158.54026 
L 600.545455 158.54026 
L 600.545455 158.54026 
L 600.545455 158.54026 
L 600.545455 158.54026 
" style="fill:none;stroke:#d29c82;stroke-linecap:square;stroke-width:0.5;"/>
   </g>
   <g id="line2d_89">
    <path clip-path="url(#p8b3dd02b08)" d="M 600.545455 158.54026 
L 680.025974 79.05974 
" style="fill:none;stroke:#000000;stroke-dasharray:1,1.65;stroke-dashoffset:0;"/>
   </g>
   <g id="line2d_90">
    <path clip-path="url(#p8b3dd02b08)" d="M 680.025974 81.709091 
L 680.025974 81.709091 
L 680.025974 81.709091 
L 680.025974 81.709091 
L 680.025974 81.709091 
L 677.376623 81.709091 
L 672.077922 81.709091 
L 669.428571 81.709091 
L 664.12987 81.709091 
L 653.532468 84.358442 
L 634.987013 89.657143 
L 608.493506 92.306494 
L 605.844156 97.605195 
L 603.194805 105.553247 
L 603.194805 108.202597 
L 603.194805 108.202597 
L 603.194805 113.501299 
L 600.545455 121.449351 
L 600.545455 124.098701 
L 600.545455 126.748052 
L 600.545455 132.046753 
L 600.545455 137.345455 
L 600.545455 139.994805 
L 600.545455 145.293506 
L 600.545455 145.293506 
L 600.545455 145.293506 
L 600.545455 147.942857 
L 600.545455 153.241558 
L 600.545455 155.890909 
L 600.545455 155.890909 
L 600.545455 155.890909 
L 600.545455 155.890909 
L 600.545455 155.890909 
L 600.545455 158.54026 
L 600.545455 158.54026 
L 600.545455 158.54026 
L 600.545455 158.54026 
L 600.545455 158.54026 
L 600.545455 158.54026 
L 600.545455 158.54026 
L 600.545455 158.54026 
L 600.545455 158.54026 
L 600.545455 158.54026 
L 600.545455 158.54026 
L 600.545455 158.54026 
L 600.545455 158.54026 
L 600.545455 158.54026 
L 600.545455 158.54026 
L 600.545455 158.54026 
L 600.545455 158.54026 
" style="fill:none;stroke:#d1d2d2;stroke-linecap:square;stroke-width:0.5;"/>
   </g>
   <g id="line2d_91">
    <path clip-path="url(#p8b3dd02b08)" d="M 600.545455 158.54026 
L 680.025974 79.05974 
" style="fill:none;stroke:#000000;stroke-dasharray:1,1.65;stroke-dashoffset:0;"/>
   </g>
   <g id="line2d_92">
    <path clip-path="url(#p8b3dd02b08)" d="M 680.025974 79.05974 
L 680.025974 79.05974 
L 680.025974 79.05974 
L 680.025974 79.05974 
L 680.025974 79.05974 
L 680.025974 79.05974 
L 680.025974 79.05974 
L 677.376623 79.05974 
L 674.727273 79.05974 
L 664.12987 79.05974 
L 642.935065 79.05974 
L 616.441558 81.709091 
L 603.194805 87.007792 
L 600.545455 89.657143 
L 600.545455 89.657143 
L 600.545455 92.306494 
L 600.545455 97.605195 
L 600.545455 97.605195 
L 600.545455 100.254545 
L 600.545455 105.553247 
L 600.545455 108.202597 
L 600.545455 113.501299 
L 600.545455 116.150649 
L 600.545455 129.397403 
L 600.545455 129.397403 
L 600.545455 132.046753 
L 600.545455 137.345455 
L 600.545455 139.994805 
L 600.545455 142.644156 
L 600.545455 142.644156 
L 600.545455 150.592208 
L 600.545455 153.241558 
L 600.545455 153.241558 
L 600.545455 153.241558 
L 600.545455 158.54026 
L 600.545455 158.54026 
L 600.545455 158.54026 
L 600.545455 158.54026 
L 600.545455 158.54026 
L 600.545455 158.54026 
L 600.545455 158.54026 
L 600.545455 158.54026 
L 600.545455 158.54026 
L 600.545455 158.54026 
L 600.545455 158.54026 
L 600.545455 158.54026 
L 600.545455 158.54026 
L 600.545455 158.54026 
L 600.545455 158.54026 
L 600.545455 158.54026 
" style="fill:none;stroke:#8eb1c2;stroke-linecap:square;stroke-width:0.5;"/>
   </g>
   <g id="line2d_93">
    <path clip-path="url(#p8b3dd02b08)" d="M 600.545455 158.54026 
L 680.025974 79.05974 
" style="fill:none;stroke:#000000;stroke-dasharray:1,1.65;stroke-dashoffset:0;"/>
   </g>
   <g id="line2d_94">
    <path clip-path="url(#p8b3dd02b08)" d="M 680.025974 79.05974 
L 680.025974 79.05974 
L 680.025974 79.05974 
L 680.025974 79.05974 
L 680.025974 79.05974 
L 680.025974 79.05974 
L 680.025974 79.05974 
L 680.025974 79.05974 
L 672.077922 79.05974 
L 669.428571 79.05974 
L 629.688312 79.05974 
L 608.493506 84.358442 
L 605.844156 84.358442 
L 603.194805 87.007792 
L 600.545455 89.657143 
L 600.545455 92.306494 
L 600.545455 92.306494 
L 600.545455 97.605195 
L 600.545455 97.605195 
L 600.545455 100.254545 
L 600.545455 102.903896 
L 600.545455 105.553247 
L 600.545455 110.851948 
L 600.545455 110.851948 
L 600.545455 118.8 
L 600.545455 124.098701 
L 600.545455 126.748052 
L 600.545455 129.397403 
L 600.545455 132.046753 
L 600.545455 137.345455 
L 600.545455 139.994805 
L 600.545455 139.994805 
L 600.545455 142.644156 
L 600.545455 145.293506 
L 600.545455 147.942857 
L 600.545455 153.241558 
L 600.545455 155.890909 
L 600.545455 155.890909 
L 600.545455 158.54026 
L 600.545455 158.54026 
L 600.545455 158.54026 
L 600.545455 158.54026 
L 600.545455 158.54026 
L 600.545455 158.54026 
L 600.545455 158.54026 
L 600.545455 158.54026 
L 600.545455 158.54026 
L 600.545455 158.54026 
L 600.545455 158.54026 
L 600.545455 158.54026 
" style="fill:none;stroke:#2f6f9f;stroke-linecap:square;stroke-width:0.5;"/>
   </g>
   <g id="line2d_95">
    <path clip-path="url(#p8b3dd02b08)" d="M 600.545455 158.54026 
L 680.025974 79.05974 
" style="fill:none;stroke:#000000;stroke-dasharray:1,1.65;stroke-dashoffset:0;"/>
   </g>
   <g id="patch_23">
    <path d="M 596.571429 162.514286 
L 596.571429 75.085714 
" style="fill:none;stroke:#000000;stroke-linecap:square;stroke-linejoin:miter;stroke-width:0.25;"/>
   </g>
   <g id="patch_24">
    <path d="M 684 162.514286 
L 684 75.085714 
" style="fill:none;stroke:#000000;stroke-linecap:square;stroke-linejoin:miter;stroke-width:0.25;"/>
   </g>
   <g id="patch_25">
    <path d="M 596.571429 162.514286 
L 684 162.514286 
" style="fill:none;stroke:#000000;stroke-linecap:square;stroke-linejoin:miter;stroke-width:0.25;"/>
   </g>
   <g id="patch_26">
    <path d="M 596.571429 75.085714 
L 684 75.085714 
" style="fill:none;stroke:#000000;stroke-linecap:square;stroke-linejoin:miter;stroke-width:0.25;"/>
   </g>
   <g id="text_60">
    <text style="font-family:DejaVu Sans;font-size:7.2px;font-stretch:normal;font-style:normal;font-weight:normal;text-anchor:middle;" transform="rotate(-0, 640.285714, 69.085714)" x="640.285714" y="69.085714">50.0</text>
   </g>
   <g id="legend_1">
    <g id="patch_27">
     <path d="M 526.3125 50.228571 
L 679.8 50.228571 
Q 681 50.228571 681 49.028571 
L 681 32.014821 
Q 681 30.814821 679.8 30.814821 
L 526.3125 30.814821 
Q 525.1125 30.814821 525.1125 32.014821 
L 525.1125 49.028571 
Q 525.1125 50.228571 526.3125 50.228571 
z
" style="fill:#ffffff;opacity:0.8;stroke:#cccccc;stroke-linejoin:miter;"/>
    </g>
    <g id="text_61">
     <text style="font-family:DejaVu Sans;font-size:6px;font-stretch:normal;font-style:normal;font-weight:normal;text-anchor:start;" transform="rotate(-0, 586.77, 37.773884)" x="586.77" y="37.773884">morphstep</text>
    </g>
    <g id="line2d_96">
     <path d="M 527.5125 44.480759 
L 539.5125 44.480759 
" style="fill:none;stroke:#ab3c37;stroke-linecap:square;stroke-width:0.5;"/>
    </g>
    <g id="line2d_97"/>
    <g id="text_62">
     <text style="font-family:DejaVu Sans;font-size:6px;font-stretch:normal;font-style:normal;font-weight:normal;text-anchor:start;" transform="rotate(-0, 544.3125, 46.580759)" x="544.3125" y="46.580759">0</text>
    </g>
    <g id="line2d_98">
     <path d="M 560.13 44.480759 
L 572.13 44.480759 
" style="fill:none;stroke:#d29c82;stroke-linecap:square;stroke-width:0.5;"/>
    </g>
    <g id="line2d_99"/>
    <g id="text_63">
     <text style="font-family:DejaVu Sans;font-size:6px;font-stretch:normal;font-style:normal;font-weight:normal;text-anchor:start;" transform="rotate(-0, 576.93, 46.580759)" x="576.93" y="46.580759">1</text>
    </g>
    <g id="line2d_100">
     <path d="M 592.7475 44.480759 
L 604.7475 44.480759 
" style="fill:none;stroke:#d1d2d2;stroke-linecap:square;stroke-width:0.5;"/>
    </g>
    <g id="line2d_101"/>
    <g id="text_64">
     <text style="font-family:DejaVu Sans;font-size:6px;font-stretch:normal;font-style:normal;font-weight:normal;text-anchor:start;" transform="rotate(-0, 609.5475, 46.580759)" x="609.5475" y="46.580759">2</text>
    </g>
    <g id="line2d_102">
     <path d="M 625.365 44.480759 
L 637.365 44.480759 
" style="fill:none;stroke:#8eb1c2;stroke-linecap:square;stroke-width:0.5;"/>
    </g>
    <g id="line2d_103"/>
    <g id="text_65">
     <text style="font-family:DejaVu Sans;font-size:6px;font-stretch:normal;font-style:normal;font-weight:normal;text-anchor:start;" transform="rotate(-0, 642.165, 46.580759)" x="642.165" y="46.580759">3</text>
    </g>
    <g id="line2d_104">
     <path d="M 657.9825 44.480759 
L 669.9825 44.480759 
" style="fill:none;stroke:#2f6f9f;stroke-linecap:square;stroke-width:0.5;"/>
    </g>
    <g id="line2d_105"/>
    <g id="text_66">
     <text style="font-family:DejaVu Sans;font-size:6px;font-stretch:normal;font-style:normal;font-weight:normal;text-anchor:start;" transform="rotate(-0, 674.7825, 46.580759)" x="674.7825" y="46.580759">4</text>
    </g>
   </g>
  </g>
  <g id="text_67">
   <text style="font-family:DejaVu Sans;font-size:12px;font-stretch:normal;font-style:normal;font-weight:normal;text-anchor:start;" transform="rotate(-0, 36, 32.4)" x="36" y="32.4">Cell 8 (20190507_JC083_fov1, V1)</text>
  </g>
  <g id="text_68">
   <text style="font-family:DejaVu Sans;font-size:8px;font-stretch:normal;font-style:normal;font-weight:normal;text-anchor:start;" transform="rotate(-0, 0, 6.07875)" x="0" y="6.07875">neuraldata_traces001_dff_ROC-thr-0.05_plushalf_noRF</text>
  </g>
 </g>
 <defs>
  <clipPath id="pd5fb1d4aa9">
   <rect height="87.428571" width="87.428571" x="72" y="75.085714"/>
  </clipPath>
  <clipPath id="p09c7777301">
   <rect height="87.428571" width="87.428571" x="203.142857" y="75.085714"/>
  </clipPath>
  <clipPath id="p979d600a01">
   <rect height="87.428571" width="87.428571" x="334.285714" y="75.085714"/>
  </clipPath>
  <clipPath id="p82da799bfe">
   <rect height="87.428571" width="87.428571" x="465.428571" y="75.085714"/>
  </clipPath>
  <clipPath id="p8b3dd02b08">
   <rect height="87.428571" width="87.428571" x="596.571429" y="75.085714"/>
  </clipPath>
 </defs>
</svg>
