<?xml version="1.0" encoding="utf-8" standalone="no"?>
<!DOCTYPE svg PUBLIC "-//W3C//DTD SVG 1.1//EN"
  "http://www.w3.org/Graphics/SVG/1.1/DTD/svg11.dtd">
<!-- Created with matplotlib (http://matplotlib.org/) -->
<svg height="360pt" version="1.1" viewBox="0 0 432 360" width="432pt" xmlns="http://www.w3.org/2000/svg" xmlns:xlink="http://www.w3.org/1999/xlink">
 <defs>
  <style type="text/css">
*{stroke-linecap:butt;stroke-linejoin:round;}
  </style>
 </defs>
 <g id="figure_1">
  <g id="patch_1">
   <path d="M 0 360 
L 432 360 
L 432 0 
L 0 0 
z
" style="fill:none;opacity:0;"/>
  </g>
  <g id="axes_1">
   <g id="patch_2">
    <path d="M 54 320.4 
L 345.6 320.4 
L 345.6 43.2 
L 54 43.2 
z
" style="fill:#ffffff;"/>
   </g>
   <g id="PathCollection_1">
    <defs>
     <path d="M 0 5 
C 1.326016 5 2.597899 4.473168 3.535534 3.535534 
C 4.473168 2.597899 5 1.326016 5 0 
C 5 -1.326016 4.473168 -2.597899 3.535534 -3.535534 
C 2.597899 -4.473168 1.326016 -5 0 -5 
C -1.326016 -5 -2.597899 -4.473168 -3.535534 -3.535534 
C -4.473168 -2.597899 -5 -1.326016 -5 0 
C -5 1.326016 -4.473168 2.597899 -3.535534 3.535534 
C -2.597899 4.473168 -1.326016 5 0 5 
z
" id="C0_0_19de5cbe0b"/>
    </defs>
    <g clip-path="url(#pb2c4ae837d)">
     <use style="fill:#3778bf;" x="83.16" xlink:href="#C0_0_19de5cbe0b" y="300.049667"/>
    </g>
    <g clip-path="url(#pb2c4ae837d)">
     <use style="fill:#3778bf;" x="83.16" xlink:href="#C0_0_19de5cbe0b" y="270.449184"/>
    </g>
    <g clip-path="url(#pb2c4ae837d)">
     <use style="fill:#3778bf;" x="83.16" xlink:href="#C0_0_19de5cbe0b" y="259.349002"/>
    </g>
    <g clip-path="url(#pb2c4ae837d)">
     <use style="fill:#3778bf;" x="75.405015" xlink:href="#C0_0_19de5cbe0b" y="253.798912"/>
    </g>
    <g clip-path="url(#pb2c4ae837d)">
     <use style="fill:#3778bf;" x="83.16" xlink:href="#C0_0_19de5cbe0b" y="238.99867"/>
    </g>
    <g clip-path="url(#pb2c4ae837d)">
     <use style="fill:#3778bf;" x="76.689564" xlink:href="#C0_0_19de5cbe0b" y="231.598549"/>
    </g>
    <g clip-path="url(#pb2c4ae837d)">
     <use style="fill:#3778bf;" x="83.16" xlink:href="#C0_0_19de5cbe0b" y="216.798307"/>
    </g>
    <g clip-path="url(#pb2c4ae837d)">
     <use style="fill:#3778bf;" x="83.16" xlink:href="#C0_0_19de5cbe0b" y="196.447975"/>
    </g>
    <g clip-path="url(#pb2c4ae837d)">
     <use style="fill:#3778bf;" x="83.16" xlink:href="#C0_0_19de5cbe0b" y="155.74731"/>
    </g>
    <g clip-path="url(#pb2c4ae837d)">
     <use style="fill:#3778bf;" x="83.16" xlink:href="#C0_0_19de5cbe0b" y="131.696917"/>
    </g>
    <g clip-path="url(#pb2c4ae837d)">
     <use style="fill:#3778bf;" x="83.16" xlink:href="#C0_0_19de5cbe0b" y="79.89607"/>
    </g>
   </g>
   <g id="PathCollection_2">
    <defs>
     <path d="M 0 5 
C 1.326016 5 2.597899 4.473168 3.535534 3.535534 
C 4.473168 2.597899 5 1.326016 5 0 
C 5 -1.326016 4.473168 -2.597899 3.535534 -3.535534 
C 2.597899 -4.473168 1.326016 -5 0 -5 
C -1.326016 -5 -2.597899 -4.473168 -3.535534 -3.535534 
C -4.473168 -2.597899 -5 -1.326016 -5 0 
C -5 1.326016 -4.473168 2.597899 -3.535534 3.535534 
C -2.597899 4.473168 -1.326016 5 0 5 
z
" id="C1_0_fc8b3d74c3"/>
    </defs>
    <g clip-path="url(#pb2c4ae837d)">
     <use style="fill:#feb308;" x="122.04" xlink:href="#C1_0_fc8b3d74c3" y="281.549365"/>
    </g>
    <g clip-path="url(#pb2c4ae837d)">
     <use style="fill:#feb308;" x="122.04" xlink:href="#C1_0_fc8b3d74c3" y="198.298005"/>
    </g>
    <g clip-path="url(#pb2c4ae837d)">
     <use style="fill:#feb308;" x="122.04" xlink:href="#C1_0_fc8b3d74c3" y="176.097642"/>
    </g>
    <g clip-path="url(#pb2c4ae837d)">
     <use style="fill:#feb308;" x="122.04" xlink:href="#C1_0_fc8b3d74c3" y="159.44737"/>
    </g>
    <g clip-path="url(#pb2c4ae837d)">
     <use style="fill:#feb308;" x="122.04" xlink:href="#C1_0_fc8b3d74c3" y="122.446766"/>
    </g>
    <g clip-path="url(#pb2c4ae837d)">
     <use style="fill:#feb308;" x="122.04" xlink:href="#C1_0_fc8b3d74c3" y="107.646524"/>
    </g>
    <g clip-path="url(#pb2c4ae837d)">
     <use style="fill:#feb308;" x="114.285015" xlink:href="#C1_0_fc8b3d74c3" y="102.096433"/>
    </g>
    <g clip-path="url(#pb2c4ae837d)">
     <use style="fill:#feb308;" x="122.04" xlink:href="#C1_0_fc8b3d74c3" y="78.04604"/>
    </g>
    <g clip-path="url(#pb2c4ae837d)">
     <use style="fill:#feb308;" x="122.04" xlink:href="#C1_0_fc8b3d74c3" y="59.545738"/>
    </g>
   </g>
   <g id="PathCollection_3">
    <defs>
     <path d="M 0 5 
C 1.326016 5 2.597899 4.473168 3.535534 3.535534 
C 4.473168 2.597899 5 1.326016 5 0 
C 5 -1.326016 4.473168 -2.597899 3.535534 -3.535534 
C 2.597899 -4.473168 1.326016 -5 0 -5 
C -1.326016 -5 -2.597899 -4.473168 -3.535534 -3.535534 
C -4.473168 -2.597899 -5 -1.326016 -5 0 
C -5 1.326016 -4.473168 2.597899 -3.535534 3.535534 
C -2.597899 4.473168 -1.326016 5 0 5 
z
" id="C2_0_3f90bc8df2"/>
    </defs>
    <g clip-path="url(#pb2c4ae837d)">
     <use style="fill:#3778bf;" x="180.36" xlink:href="#C2_0_3f90bc8df2" y="303.749728"/>
    </g>
    <g clip-path="url(#pb2c4ae837d)">
     <use style="fill:#3778bf;" x="173.889564" xlink:href="#C2_0_3f90bc8df2" y="296.349607"/>
    </g>
    <g clip-path="url(#pb2c4ae837d)">
     <use style="fill:#3778bf;" x="184.646298" xlink:href="#C2_0_3f90bc8df2" y="294.499577"/>
    </g>
    <g clip-path="url(#pb2c4ae837d)">
     <use style="fill:#3778bf;" x="193.647604" xlink:href="#C2_0_3f90bc8df2" y="292.649547"/>
    </g>
    <g clip-path="url(#pb2c4ae837d)">
     <use style="fill:#3778bf;" x="165.334325" xlink:href="#C2_0_3f90bc8df2" y="292.649547"/>
    </g>
    <g clip-path="url(#pb2c4ae837d)">
     <use style="fill:#3778bf;" x="180.36" xlink:href="#C2_0_3f90bc8df2" y="285.249426"/>
    </g>
    <g clip-path="url(#pb2c4ae837d)">
     <use style="fill:#3778bf;" x="173.889564" xlink:href="#C2_0_3f90bc8df2" y="277.849305"/>
    </g>
    <g clip-path="url(#pb2c4ae837d)">
     <use style="fill:#3778bf;" x="180.36" xlink:href="#C2_0_3f90bc8df2" y="263.049063"/>
    </g>
    <g clip-path="url(#pb2c4ae837d)">
     <use style="fill:#3778bf;" x="176.073702" xlink:href="#C2_0_3f90bc8df2" y="253.798912"/>
    </g>
    <g clip-path="url(#pb2c4ae837d)">
     <use style="fill:#3778bf;" x="184.628941" xlink:href="#C2_0_3f90bc8df2" y="250.098851"/>
    </g>
    <g clip-path="url(#pb2c4ae837d)">
     <use style="fill:#3778bf;" x="180.36" xlink:href="#C2_0_3f90bc8df2" y="226.048458"/>
    </g>
    <g clip-path="url(#pb2c4ae837d)">
     <use style="fill:#3778bf;" x="180.36" xlink:href="#C2_0_3f90bc8df2" y="214.948277"/>
    </g>
    <g clip-path="url(#pb2c4ae837d)">
     <use style="fill:#3778bf;" x="180.36" xlink:href="#C2_0_3f90bc8df2" y="190.897884"/>
    </g>
   </g>
   <g id="PathCollection_4">
    <defs>
     <path d="M 0 5 
C 1.326016 5 2.597899 4.473168 3.535534 3.535534 
C 4.473168 2.597899 5 1.326016 5 0 
C 5 -1.326016 4.473168 -2.597899 3.535534 -3.535534 
C 2.597899 -4.473168 1.326016 -5 0 -5 
C -1.326016 -5 -2.597899 -4.473168 -3.535534 -3.535534 
C -4.473168 -2.597899 -5 -1.326016 -5 0 
C -5 1.326016 -4.473168 2.597899 -3.535534 3.535534 
C -2.597899 4.473168 -1.326016 5 0 5 
z
" id="C3_0_57ed30f315"/>
    </defs>
    <g clip-path="url(#pb2c4ae837d)">
     <use style="fill:#feb308;" x="219.24" xlink:href="#C3_0_57ed30f315" y="316.69994"/>
    </g>
    <g clip-path="url(#pb2c4ae837d)">
     <use style="fill:#feb308;" x="219.24" xlink:href="#C3_0_57ed30f315" y="305.599758"/>
    </g>
    <g clip-path="url(#pb2c4ae837d)">
     <use style="fill:#feb308;" x="211.485015" xlink:href="#C3_0_57ed30f315" y="300.049667"/>
    </g>
    <g clip-path="url(#pb2c4ae837d)">
     <use style="fill:#feb308;" x="219.24" xlink:href="#C3_0_57ed30f315" y="287.099456"/>
    </g>
    <g clip-path="url(#pb2c4ae837d)">
     <use style="fill:#feb308;" x="210.238694" xlink:href="#C3_0_57ed30f315" y="285.249426"/>
    </g>
    <g clip-path="url(#pb2c4ae837d)">
     <use style="fill:#feb308;" x="219.24" xlink:href="#C3_0_57ed30f315" y="268.599154"/>
    </g>
    <g clip-path="url(#pb2c4ae837d)">
     <use style="fill:#feb308;" x="219.24" xlink:href="#C3_0_57ed30f315" y="257.498972"/>
    </g>
    <g clip-path="url(#pb2c4ae837d)">
     <use style="fill:#feb308;" x="219.24" xlink:href="#C3_0_57ed30f315" y="233.448579"/>
    </g>
    <g clip-path="url(#pb2c4ae837d)">
     <use style="fill:#feb308;" x="211.485015" xlink:href="#C3_0_57ed30f315" y="227.898489"/>
    </g>
   </g>
   <g id="PathCollection_5">
    <defs>
     <path d="M 0 5 
C 1.326016 5 2.597899 4.473168 3.535534 3.535534 
C 4.473168 2.597899 5 1.326016 5 0 
C 5 -1.326016 4.473168 -2.597899 3.535534 -3.535534 
C 2.597899 -4.473168 1.326016 -5 0 -5 
C -1.326016 -5 -2.597899 -4.473168 -3.535534 -3.535534 
C -4.473168 -2.597899 -5 -1.326016 -5 0 
C -5 1.326016 -4.473168 2.597899 -3.535534 3.535534 
C -2.597899 4.473168 -1.326016 5 0 5 
z
" id="C4_0_0ffcb730d3"/>
    </defs>
    <g clip-path="url(#pb2c4ae837d)">
     <use style="fill:#3778bf;" x="277.56" xlink:href="#C4_0_0ffcb730d3" y="314.849909"/>
    </g>
    <g clip-path="url(#pb2c4ae837d)">
     <use style="fill:#3778bf;" x="277.56" xlink:href="#C4_0_0ffcb730d3" y="298.199637"/>
    </g>
    <g clip-path="url(#pb2c4ae837d)">
     <use style="fill:#3778bf;" x="277.56" xlink:href="#C4_0_0ffcb730d3" y="285.249426"/>
    </g>
    <g clip-path="url(#pb2c4ae837d)">
     <use style="fill:#3778bf;" x="268.414839" xlink:href="#C4_0_0ffcb730d3" y="285.249426"/>
    </g>
    <g clip-path="url(#pb2c4ae837d)">
     <use style="fill:#3778bf;" x="277.56" xlink:href="#C4_0_0ffcb730d3" y="244.548761"/>
    </g>
   </g>
   <g id="PathCollection_6">
    <defs>
     <path d="M 0 5 
C 1.326016 5 2.597899 4.473168 3.535534 3.535534 
C 4.473168 2.597899 5 1.326016 5 0 
C 5 -1.326016 4.473168 -2.597899 3.535534 -3.535534 
C 2.597899 -4.473168 1.326016 -5 0 -5 
C -1.326016 -5 -2.597899 -4.473168 -3.535534 -3.535534 
C -4.473168 -2.597899 -5 -1.326016 -5 0 
C -5 1.326016 -4.473168 2.597899 -3.535534 3.535534 
C -2.597899 4.473168 -1.326016 5 0 5 
z
" id="C5_0_2cee16bed9"/>
    </defs>
    <g clip-path="url(#pb2c4ae837d)">
     <use style="fill:#feb308;" x="316.44" xlink:href="#C5_0_2cee16bed9" y="314.849909"/>
    </g>
    <g clip-path="url(#pb2c4ae837d)">
     <use style="fill:#feb308;" x="307.438694" xlink:href="#C5_0_2cee16bed9" y="312.999879"/>
    </g>
    <g clip-path="url(#pb2c4ae837d)">
     <use style="fill:#feb308;" x="324.194985" xlink:href="#C5_0_2cee16bed9" y="309.299819"/>
    </g>
    <g clip-path="url(#pb2c4ae837d)">
     <use style="fill:#feb308;" x="299.683709" xlink:href="#C5_0_2cee16bed9" y="307.449788"/>
    </g>
    <g clip-path="url(#pb2c4ae837d)">
     <use style="fill:#feb308;" x="316.44" xlink:href="#C5_0_2cee16bed9" y="301.899698"/>
    </g>
    <g clip-path="url(#pb2c4ae837d)">
     <use style="fill:#feb308;" x="307.438694" xlink:href="#C5_0_2cee16bed9" y="300.049667"/>
    </g>
    <g clip-path="url(#pb2c4ae837d)">
     <use style="fill:#feb308;" x="328.481283" xlink:href="#C5_0_2cee16bed9" y="300.049667"/>
    </g>
    <g clip-path="url(#pb2c4ae837d)">
     <use style="fill:#feb308;" x="298.883455" xlink:href="#C5_0_2cee16bed9" y="296.349607"/>
    </g>
    <g clip-path="url(#pb2c4ae837d)">
     <use style="fill:#feb308;" x="335.4912" xlink:href="#C5_0_2cee16bed9" y="294.499577"/>
    </g>
    <g clip-path="url(#pb2c4ae837d)">
     <use style="fill:#feb308;" x="316.44" xlink:href="#C5_0_2cee16bed9" y="288.949486"/>
    </g>
    <g clip-path="url(#pb2c4ae837d)">
     <use style="fill:#feb308;" x="324.995239" xlink:href="#C5_0_2cee16bed9" y="285.249426"/>
    </g>
    <g clip-path="url(#pb2c4ae837d)">
     <use style="fill:#feb308;" x="308.685015" xlink:href="#C5_0_2cee16bed9" y="283.399395"/>
    </g>
    <g clip-path="url(#pb2c4ae837d)">
     <use style="fill:#feb308;" x="299.683709" xlink:href="#C5_0_2cee16bed9" y="281.549365"/>
    </g>
    <g clip-path="url(#pb2c4ae837d)">
     <use style="fill:#feb308;" x="316.44" xlink:href="#C5_0_2cee16bed9" y="268.599154"/>
    </g>
    <g clip-path="url(#pb2c4ae837d)">
     <use style="fill:#feb308;" x="309.969564" xlink:href="#C5_0_2cee16bed9" y="261.199033"/>
    </g>
    <g clip-path="url(#pb2c4ae837d)">
     <use style="fill:#feb308;" x="316.44" xlink:href="#C5_0_2cee16bed9" y="250.098851"/>
    </g>
    <g clip-path="url(#pb2c4ae837d)">
     <use style="fill:#feb308;" x="307.884761" xlink:href="#C5_0_2cee16bed9" y="246.398791"/>
    </g>
    <g clip-path="url(#pb2c4ae837d)">
     <use style="fill:#feb308;" x="322.910436" xlink:href="#C5_0_2cee16bed9" y="242.69873"/>
    </g>
    <g clip-path="url(#pb2c4ae837d)">
     <use style="fill:#feb308;" x="332.055597" xlink:href="#C5_0_2cee16bed9" y="242.69873"/>
    </g>
    <g clip-path="url(#pb2c4ae837d)">
     <use style="fill:#feb308;" x="316.44" xlink:href="#C5_0_2cee16bed9" y="235.29861"/>
    </g>
    <g clip-path="url(#pb2c4ae837d)">
     <use style="fill:#feb308;" x="316.44" xlink:href="#C5_0_2cee16bed9" y="192.747914"/>
    </g>
    <g clip-path="url(#pb2c4ae837d)">
     <use style="fill:#feb308;" x="308.685015" xlink:href="#C5_0_2cee16bed9" y="187.197824"/>
    </g>
    <g clip-path="url(#pb2c4ae837d)">
     <use style="fill:#feb308;" x="316.44" xlink:href="#C5_0_2cee16bed9" y="137.247007"/>
    </g>
   </g>
   <g id="PathCollection_7"/>
   <g id="PathCollection_8"/>
   <g id="patch_3">
    <path clip-path="url(#pb2c4ae837d)" d="M 63.72 320.4 
L 102.6 320.4 
L 102.6 212.257324 
L 63.72 212.257324 
z
" style="fill:none;stroke:#000000;stroke-linejoin:miter;stroke-width:2.5;"/>
   </g>
   <g id="patch_4">
    <path clip-path="url(#pb2c4ae837d)" d="M 160.92 320.4 
L 199.8 320.4 
L 199.8 264.756783 
L 160.92 264.756783 
z
" style="fill:none;stroke:#000000;stroke-linejoin:miter;stroke-width:2.5;"/>
   </g>
   <g id="patch_5">
    <path clip-path="url(#pb2c4ae837d)" d="M 258.12 320.4 
L 297 320.4 
L 297 285.619432 
L 258.12 285.619432 
z
" style="fill:none;stroke:#000000;stroke-linejoin:miter;stroke-width:2.5;"/>
   </g>
   <g id="patch_6">
    <path clip-path="url(#pb2c4ae837d)" d="M 102.6 320.4 
L 141.48 320.4 
L 141.48 142.797098 
L 102.6 142.797098 
z
" style="fill:none;stroke:#000000;stroke-linejoin:miter;stroke-width:2.5;"/>
   </g>
   <g id="patch_7">
    <path clip-path="url(#pb2c4ae837d)" d="M 199.8 320.4 
L 238.68 320.4 
L 238.68 275.793716 
L 199.8 275.793716 
z
" style="fill:none;stroke:#000000;stroke-linejoin:miter;stroke-width:2.5;"/>
   </g>
   <g id="patch_8">
    <path clip-path="url(#pb2c4ae837d)" d="M 297 320.4 
L 335.88 320.4 
L 335.88 266.990432 
L 297 266.990432 
z
" style="fill:none;stroke:#000000;stroke-linejoin:miter;stroke-width:2.5;"/>
   </g>
   <g id="matplotlib.axis_1">
    <g id="xtick_1">
     <g id="line2d_1"/>
     <g id="text_1">
      <!-- V1 -->
      <defs>
       <path d="M 28.609375 0 
L 0.78125 72.90625 
L 11.078125 72.90625 
L 34.1875 11.53125 
L 57.328125 72.90625 
L 67.578125 72.90625 
L 39.796875 0 
z
" id="DejaVuSans-56"/>
       <path d="M 12.40625 8.296875 
L 28.515625 8.296875 
L 28.515625 63.921875 
L 10.984375 60.40625 
L 10.984375 69.390625 
L 28.421875 72.90625 
L 38.28125 72.90625 
L 38.28125 8.296875 
L 54.390625 8.296875 
L 54.390625 0 
L 12.40625 0 
z
" id="DejaVuSans-31"/>
      </defs>
      <g transform="translate(94.678125 333.018125)scale(0.12 -0.12)">
       <use xlink:href="#DejaVuSans-56"/>
       <use x="68.408203" xlink:href="#DejaVuSans-31"/>
      </g>
     </g>
    </g>
    <g id="xtick_2">
     <g id="line2d_2"/>
     <g id="text_2">
      <!-- Lm -->
      <defs>
       <path d="M 9.8125 72.90625 
L 19.671875 72.90625 
L 19.671875 8.296875 
L 55.171875 8.296875 
L 55.171875 0 
L 9.8125 0 
z
" id="DejaVuSans-4c"/>
       <path d="M 52 44.1875 
Q 55.375 50.25 60.0625 53.125 
Q 64.75 56 71.09375 56 
Q 79.640625 56 84.28125 50.015625 
Q 88.921875 44.046875 88.921875 33.015625 
L 88.921875 0 
L 79.890625 0 
L 79.890625 32.71875 
Q 79.890625 40.578125 77.09375 44.375 
Q 74.3125 48.1875 68.609375 48.1875 
Q 61.625 48.1875 57.5625 43.546875 
Q 53.515625 38.921875 53.515625 30.90625 
L 53.515625 0 
L 44.484375 0 
L 44.484375 32.71875 
Q 44.484375 40.625 41.703125 44.40625 
Q 38.921875 48.1875 33.109375 48.1875 
Q 26.21875 48.1875 22.15625 43.53125 
Q 18.109375 38.875 18.109375 30.90625 
L 18.109375 0 
L 9.078125 0 
L 9.078125 54.6875 
L 18.109375 54.6875 
L 18.109375 46.1875 
Q 21.1875 51.21875 25.484375 53.609375 
Q 29.78125 56 35.6875 56 
Q 41.65625 56 45.828125 52.96875 
Q 50 49.953125 52 44.1875 
z
" id="DejaVuSans-6d"/>
      </defs>
      <g transform="translate(190.6125 333.018125)scale(0.12 -0.12)">
       <use xlink:href="#DejaVuSans-4c"/>
       <use x="55.712891" xlink:href="#DejaVuSans-6d"/>
      </g>
     </g>
    </g>
    <g id="xtick_3">
     <g id="line2d_3"/>
     <g id="text_3">
      <!-- Li -->
      <defs>
       <path d="M 9.421875 54.6875 
L 18.40625 54.6875 
L 18.40625 0 
L 9.421875 0 
z
M 9.421875 75.984375 
L 18.40625 75.984375 
L 18.40625 64.59375 
L 9.421875 64.59375 
z
" id="DejaVuSans-69"/>
      </defs>
      <g transform="translate(291.99 333.018125)scale(0.12 -0.12)">
       <use xlink:href="#DejaVuSans-4c"/>
       <use x="55.712891" xlink:href="#DejaVuSans-69"/>
      </g>
     </g>
    </g>
    <g id="text_4">
     <!-- visual_area -->
     <defs>
      <path d="M 2.984375 54.6875 
L 12.5 54.6875 
L 29.59375 8.796875 
L 46.6875 54.6875 
L 56.203125 54.6875 
L 35.6875 0 
L 23.484375 0 
z
" id="DejaVuSans-76"/>
      <path d="M 44.28125 53.078125 
L 44.28125 44.578125 
Q 40.484375 46.53125 36.375 47.5 
Q 32.28125 48.484375 27.875 48.484375 
Q 21.1875 48.484375 17.84375 46.4375 
Q 14.5 44.390625 14.5 40.28125 
Q 14.5 37.15625 16.890625 35.375 
Q 19.28125 33.59375 26.515625 31.984375 
L 29.59375 31.296875 
Q 39.15625 29.25 43.1875 25.515625 
Q 47.21875 21.78125 47.21875 15.09375 
Q 47.21875 7.46875 41.1875 3.015625 
Q 35.15625 -1.421875 24.609375 -1.421875 
Q 20.21875 -1.421875 15.453125 -0.5625 
Q 10.6875 0.296875 5.421875 2 
L 5.421875 11.28125 
Q 10.40625 8.6875 15.234375 7.390625 
Q 20.0625 6.109375 24.8125 6.109375 
Q 31.15625 6.109375 34.5625 8.28125 
Q 37.984375 10.453125 37.984375 14.40625 
Q 37.984375 18.0625 35.515625 20.015625 
Q 33.0625 21.96875 24.703125 23.78125 
L 21.578125 24.515625 
Q 13.234375 26.265625 9.515625 29.90625 
Q 5.8125 33.546875 5.8125 39.890625 
Q 5.8125 47.609375 11.28125 51.796875 
Q 16.75 56 26.8125 56 
Q 31.78125 56 36.171875 55.265625 
Q 40.578125 54.546875 44.28125 53.078125 
z
" id="DejaVuSans-73"/>
      <path d="M 8.5 21.578125 
L 8.5 54.6875 
L 17.484375 54.6875 
L 17.484375 21.921875 
Q 17.484375 14.15625 20.5 10.265625 
Q 23.53125 6.390625 29.59375 6.390625 
Q 36.859375 6.390625 41.078125 11.03125 
Q 45.3125 15.671875 45.3125 23.6875 
L 45.3125 54.6875 
L 54.296875 54.6875 
L 54.296875 0 
L 45.3125 0 
L 45.3125 8.40625 
Q 42.046875 3.421875 37.71875 1 
Q 33.40625 -1.421875 27.6875 -1.421875 
Q 18.265625 -1.421875 13.375 4.4375 
Q 8.5 10.296875 8.5 21.578125 
z
M 31.109375 56 
z
" id="DejaVuSans-75"/>
      <path d="M 34.28125 27.484375 
Q 23.390625 27.484375 19.1875 25 
Q 14.984375 22.515625 14.984375 16.5 
Q 14.984375 11.71875 18.140625 8.90625 
Q 21.296875 6.109375 26.703125 6.109375 
Q 34.1875 6.109375 38.703125 11.40625 
Q 43.21875 16.703125 43.21875 25.484375 
L 43.21875 27.484375 
z
M 52.203125 31.203125 
L 52.203125 0 
L 43.21875 0 
L 43.21875 8.296875 
Q 40.140625 3.328125 35.546875 0.953125 
Q 30.953125 -1.421875 24.3125 -1.421875 
Q 15.921875 -1.421875 10.953125 3.296875 
Q 6 8.015625 6 15.921875 
Q 6 25.140625 12.171875 29.828125 
Q 18.359375 34.515625 30.609375 34.515625 
L 43.21875 34.515625 
L 43.21875 35.40625 
Q 43.21875 41.609375 39.140625 45 
Q 35.0625 48.390625 27.6875 48.390625 
Q 23 48.390625 18.546875 47.265625 
Q 14.109375 46.140625 10.015625 43.890625 
L 10.015625 52.203125 
Q 14.9375 54.109375 19.578125 55.046875 
Q 24.21875 56 28.609375 56 
Q 40.484375 56 46.34375 49.84375 
Q 52.203125 43.703125 52.203125 31.203125 
z
" id="DejaVuSans-61"/>
      <path d="M 9.421875 75.984375 
L 18.40625 75.984375 
L 18.40625 0 
L 9.421875 0 
z
" id="DejaVuSans-6c"/>
      <path d="M 50.984375 -16.609375 
L 50.984375 -23.578125 
L -0.984375 -23.578125 
L -0.984375 -16.609375 
z
" id="DejaVuSans-5f"/>
      <path d="M 41.109375 46.296875 
Q 39.59375 47.171875 37.8125 47.578125 
Q 36.03125 48 33.890625 48 
Q 26.265625 48 22.1875 43.046875 
Q 18.109375 38.09375 18.109375 28.8125 
L 18.109375 0 
L 9.078125 0 
L 9.078125 54.6875 
L 18.109375 54.6875 
L 18.109375 46.1875 
Q 20.953125 51.171875 25.484375 53.578125 
Q 30.03125 56 36.53125 56 
Q 37.453125 56 38.578125 55.875 
Q 39.703125 55.765625 41.0625 55.515625 
z
" id="DejaVuSans-72"/>
      <path d="M 56.203125 29.59375 
L 56.203125 25.203125 
L 14.890625 25.203125 
Q 15.484375 15.921875 20.484375 11.0625 
Q 25.484375 6.203125 34.421875 6.203125 
Q 39.59375 6.203125 44.453125 7.46875 
Q 49.3125 8.734375 54.109375 11.28125 
L 54.109375 2.78125 
Q 49.265625 0.734375 44.1875 -0.34375 
Q 39.109375 -1.421875 33.890625 -1.421875 
Q 20.796875 -1.421875 13.15625 6.1875 
Q 5.515625 13.8125 5.515625 26.8125 
Q 5.515625 40.234375 12.765625 48.109375 
Q 20.015625 56 32.328125 56 
Q 43.359375 56 49.78125 48.890625 
Q 56.203125 41.796875 56.203125 29.59375 
z
M 47.21875 32.234375 
Q 47.125 39.59375 43.09375 43.984375 
Q 39.0625 48.390625 32.421875 48.390625 
Q 24.90625 48.390625 20.390625 44.140625 
Q 15.875 39.890625 15.1875 32.171875 
z
" id="DejaVuSans-65"/>
     </defs>
     <g transform="translate(154.46625 351.67125)scale(0.16 -0.16)">
      <use xlink:href="#DejaVuSans-76"/>
      <use x="59.179688" xlink:href="#DejaVuSans-69"/>
      <use x="86.962891" xlink:href="#DejaVuSans-73"/>
      <use x="139.0625" xlink:href="#DejaVuSans-75"/>
      <use x="202.441406" xlink:href="#DejaVuSans-61"/>
      <use x="263.720703" xlink:href="#DejaVuSans-6c"/>
      <use x="291.503906" xlink:href="#DejaVuSans-5f"/>
      <use x="341.503906" xlink:href="#DejaVuSans-61"/>
      <use x="402.783203" xlink:href="#DejaVuSans-72"/>
      <use x="443.865234" xlink:href="#DejaVuSans-65"/>
      <use x="505.388672" xlink:href="#DejaVuSans-61"/>
     </g>
    </g>
   </g>
   <g id="matplotlib.axis_2">
    <g id="ytick_1">
     <g id="line2d_4">
      <defs>
       <path d="M 0 0 
L -3.5 0 
" id="m80d235aa6c" style="stroke:#000000;stroke-width:0.8;"/>
      </defs>
      <g>
       <use style="stroke:#000000;stroke-width:0.8;" x="54" xlink:href="#m80d235aa6c" y="320.4"/>
      </g>
     </g>
     <g id="text_5">
      <!-- 0 -->
      <defs>
       <path d="M 31.78125 66.40625 
Q 24.171875 66.40625 20.328125 58.90625 
Q 16.5 51.421875 16.5 36.375 
Q 16.5 21.390625 20.328125 13.890625 
Q 24.171875 6.390625 31.78125 6.390625 
Q 39.453125 6.390625 43.28125 13.890625 
Q 47.125 21.390625 47.125 36.375 
Q 47.125 51.421875 43.28125 58.90625 
Q 39.453125 66.40625 31.78125 66.40625 
z
M 31.78125 74.21875 
Q 44.046875 74.21875 50.515625 64.515625 
Q 56.984375 54.828125 56.984375 36.375 
Q 56.984375 17.96875 50.515625 8.265625 
Q 44.046875 -1.421875 31.78125 -1.421875 
Q 19.53125 -1.421875 13.0625 8.265625 
Q 6.59375 17.96875 6.59375 36.375 
Q 6.59375 54.828125 13.0625 64.515625 
Q 19.53125 74.21875 31.78125 74.21875 
z
" id="DejaVuSans-30"/>
      </defs>
      <g transform="translate(39.365 324.959063)scale(0.12 -0.12)">
       <use xlink:href="#DejaVuSans-30"/>
      </g>
     </g>
    </g>
    <g id="ytick_2">
     <g id="line2d_5">
      <g>
       <use style="stroke:#000000;stroke-width:0.8;" x="54" xlink:href="#m80d235aa6c" y="283.399395"/>
      </g>
     </g>
     <g id="text_6">
      <!-- 20 -->
      <defs>
       <path d="M 19.1875 8.296875 
L 53.609375 8.296875 
L 53.609375 0 
L 7.328125 0 
L 7.328125 8.296875 
Q 12.9375 14.109375 22.625 23.890625 
Q 32.328125 33.6875 34.8125 36.53125 
Q 39.546875 41.84375 41.421875 45.53125 
Q 43.3125 49.21875 43.3125 52.78125 
Q 43.3125 58.59375 39.234375 62.25 
Q 35.15625 65.921875 28.609375 65.921875 
Q 23.96875 65.921875 18.8125 64.3125 
Q 13.671875 62.703125 7.8125 59.421875 
L 7.8125 69.390625 
Q 13.765625 71.78125 18.9375 73 
Q 24.125 74.21875 28.421875 74.21875 
Q 39.75 74.21875 46.484375 68.546875 
Q 53.21875 62.890625 53.21875 53.421875 
Q 53.21875 48.921875 51.53125 44.890625 
Q 49.859375 40.875 45.40625 35.40625 
Q 44.1875 33.984375 37.640625 27.21875 
Q 31.109375 20.453125 19.1875 8.296875 
z
" id="DejaVuSans-32"/>
      </defs>
      <g transform="translate(31.73 287.958458)scale(0.12 -0.12)">
       <use xlink:href="#DejaVuSans-32"/>
       <use x="63.623047" xlink:href="#DejaVuSans-30"/>
      </g>
     </g>
    </g>
    <g id="ytick_3">
     <g id="line2d_6">
      <g>
       <use style="stroke:#000000;stroke-width:0.8;" x="54" xlink:href="#m80d235aa6c" y="246.398791"/>
      </g>
     </g>
     <g id="text_7">
      <!-- 40 -->
      <defs>
       <path d="M 37.796875 64.3125 
L 12.890625 25.390625 
L 37.796875 25.390625 
z
M 35.203125 72.90625 
L 47.609375 72.90625 
L 47.609375 25.390625 
L 58.015625 25.390625 
L 58.015625 17.1875 
L 47.609375 17.1875 
L 47.609375 0 
L 37.796875 0 
L 37.796875 17.1875 
L 4.890625 17.1875 
L 4.890625 26.703125 
z
" id="DejaVuSans-34"/>
      </defs>
      <g transform="translate(31.73 250.957853)scale(0.12 -0.12)">
       <use xlink:href="#DejaVuSans-34"/>
       <use x="63.623047" xlink:href="#DejaVuSans-30"/>
      </g>
     </g>
    </g>
    <g id="ytick_4">
     <g id="line2d_7">
      <g>
       <use style="stroke:#000000;stroke-width:0.8;" x="54" xlink:href="#m80d235aa6c" y="209.398186"/>
      </g>
     </g>
     <g id="text_8">
      <!-- 60 -->
      <defs>
       <path d="M 33.015625 40.375 
Q 26.375 40.375 22.484375 35.828125 
Q 18.609375 31.296875 18.609375 23.390625 
Q 18.609375 15.53125 22.484375 10.953125 
Q 26.375 6.390625 33.015625 6.390625 
Q 39.65625 6.390625 43.53125 10.953125 
Q 47.40625 15.53125 47.40625 23.390625 
Q 47.40625 31.296875 43.53125 35.828125 
Q 39.65625 40.375 33.015625 40.375 
z
M 52.59375 71.296875 
L 52.59375 62.3125 
Q 48.875 64.0625 45.09375 64.984375 
Q 41.3125 65.921875 37.59375 65.921875 
Q 27.828125 65.921875 22.671875 59.328125 
Q 17.53125 52.734375 16.796875 39.40625 
Q 19.671875 43.65625 24.015625 45.921875 
Q 28.375 48.1875 33.59375 48.1875 
Q 44.578125 48.1875 50.953125 41.515625 
Q 57.328125 34.859375 57.328125 23.390625 
Q 57.328125 12.15625 50.6875 5.359375 
Q 44.046875 -1.421875 33.015625 -1.421875 
Q 20.359375 -1.421875 13.671875 8.265625 
Q 6.984375 17.96875 6.984375 36.375 
Q 6.984375 53.65625 15.1875 63.9375 
Q 23.390625 74.21875 37.203125 74.21875 
Q 40.921875 74.21875 44.703125 73.484375 
Q 48.484375 72.75 52.59375 71.296875 
z
" id="DejaVuSans-36"/>
      </defs>
      <g transform="translate(31.73 213.957249)scale(0.12 -0.12)">
       <use xlink:href="#DejaVuSans-36"/>
       <use x="63.623047" xlink:href="#DejaVuSans-30"/>
      </g>
     </g>
    </g>
    <g id="ytick_5">
     <g id="line2d_8">
      <g>
       <use style="stroke:#000000;stroke-width:0.8;" x="54" xlink:href="#m80d235aa6c" y="172.397582"/>
      </g>
     </g>
     <g id="text_9">
      <!-- 80 -->
      <defs>
       <path d="M 31.78125 34.625 
Q 24.75 34.625 20.71875 30.859375 
Q 16.703125 27.09375 16.703125 20.515625 
Q 16.703125 13.921875 20.71875 10.15625 
Q 24.75 6.390625 31.78125 6.390625 
Q 38.8125 6.390625 42.859375 10.171875 
Q 46.921875 13.96875 46.921875 20.515625 
Q 46.921875 27.09375 42.890625 30.859375 
Q 38.875 34.625 31.78125 34.625 
z
M 21.921875 38.8125 
Q 15.578125 40.375 12.03125 44.71875 
Q 8.5 49.078125 8.5 55.328125 
Q 8.5 64.0625 14.71875 69.140625 
Q 20.953125 74.21875 31.78125 74.21875 
Q 42.671875 74.21875 48.875 69.140625 
Q 55.078125 64.0625 55.078125 55.328125 
Q 55.078125 49.078125 51.53125 44.71875 
Q 48 40.375 41.703125 38.8125 
Q 48.828125 37.15625 52.796875 32.3125 
Q 56.78125 27.484375 56.78125 20.515625 
Q 56.78125 9.90625 50.3125 4.234375 
Q 43.84375 -1.421875 31.78125 -1.421875 
Q 19.734375 -1.421875 13.25 4.234375 
Q 6.78125 9.90625 6.78125 20.515625 
Q 6.78125 27.484375 10.78125 32.3125 
Q 14.796875 37.15625 21.921875 38.8125 
z
M 18.3125 54.390625 
Q 18.3125 48.734375 21.84375 45.5625 
Q 25.390625 42.390625 31.78125 42.390625 
Q 38.140625 42.390625 41.71875 45.5625 
Q 45.3125 48.734375 45.3125 54.390625 
Q 45.3125 60.0625 41.71875 63.234375 
Q 38.140625 66.40625 31.78125 66.40625 
Q 25.390625 66.40625 21.84375 63.234375 
Q 18.3125 60.0625 18.3125 54.390625 
z
" id="DejaVuSans-38"/>
      </defs>
      <g transform="translate(31.73 176.956644)scale(0.12 -0.12)">
       <use xlink:href="#DejaVuSans-38"/>
       <use x="63.623047" xlink:href="#DejaVuSans-30"/>
      </g>
     </g>
    </g>
    <g id="ytick_6">
     <g id="line2d_9">
      <g>
       <use style="stroke:#000000;stroke-width:0.8;" x="54" xlink:href="#m80d235aa6c" y="135.396977"/>
      </g>
     </g>
     <g id="text_10">
      <!-- 100 -->
      <g transform="translate(24.095 139.95604)scale(0.12 -0.12)">
       <use xlink:href="#DejaVuSans-31"/>
       <use x="63.623047" xlink:href="#DejaVuSans-30"/>
       <use x="127.246094" xlink:href="#DejaVuSans-30"/>
      </g>
     </g>
    </g>
    <g id="ytick_7">
     <g id="line2d_10">
      <g>
       <use style="stroke:#000000;stroke-width:0.8;" x="54" xlink:href="#m80d235aa6c" y="98.396373"/>
      </g>
     </g>
     <g id="text_11">
      <!-- 120 -->
      <g transform="translate(24.095 102.955435)scale(0.12 -0.12)">
       <use xlink:href="#DejaVuSans-31"/>
       <use x="63.623047" xlink:href="#DejaVuSans-32"/>
       <use x="127.246094" xlink:href="#DejaVuSans-30"/>
      </g>
     </g>
    </g>
    <g id="ytick_8">
     <g id="line2d_11">
      <g>
       <use style="stroke:#000000;stroke-width:0.8;" x="54" xlink:href="#m80d235aa6c" y="61.395768"/>
      </g>
     </g>
     <g id="text_12">
      <!-- 140 -->
      <g transform="translate(24.095 65.954831)scale(0.12 -0.12)">
       <use xlink:href="#DejaVuSans-31"/>
       <use x="63.623047" xlink:href="#DejaVuSans-34"/>
       <use x="127.246094" xlink:href="#DejaVuSans-30"/>
      </g>
     </g>
    </g>
    <g id="text_13">
     <!-- n_cells -->
     <defs>
      <path d="M 54.890625 33.015625 
L 54.890625 0 
L 45.90625 0 
L 45.90625 32.71875 
Q 45.90625 40.484375 42.875 44.328125 
Q 39.84375 48.1875 33.796875 48.1875 
Q 26.515625 48.1875 22.3125 43.546875 
Q 18.109375 38.921875 18.109375 30.90625 
L 18.109375 0 
L 9.078125 0 
L 9.078125 54.6875 
L 18.109375 54.6875 
L 18.109375 46.1875 
Q 21.34375 51.125 25.703125 53.5625 
Q 30.078125 56 35.796875 56 
Q 45.21875 56 50.046875 50.171875 
Q 54.890625 44.34375 54.890625 33.015625 
z
" id="DejaVuSans-6e"/>
      <path d="M 48.78125 52.59375 
L 48.78125 44.1875 
Q 44.96875 46.296875 41.140625 47.34375 
Q 37.3125 48.390625 33.40625 48.390625 
Q 24.65625 48.390625 19.8125 42.84375 
Q 14.984375 37.3125 14.984375 27.296875 
Q 14.984375 17.28125 19.8125 11.734375 
Q 24.65625 6.203125 33.40625 6.203125 
Q 37.3125 6.203125 41.140625 7.25 
Q 44.96875 8.296875 48.78125 10.40625 
L 48.78125 2.09375 
Q 45.015625 0.34375 40.984375 -0.53125 
Q 36.96875 -1.421875 32.421875 -1.421875 
Q 20.0625 -1.421875 12.78125 6.34375 
Q 5.515625 14.109375 5.515625 27.296875 
Q 5.515625 40.671875 12.859375 48.328125 
Q 20.21875 56 33.015625 56 
Q 37.15625 56 41.109375 55.140625 
Q 45.0625 54.296875 48.78125 52.59375 
z
" id="DejaVuSans-63"/>
     </defs>
     <g transform="translate(16.3225 208.80375)rotate(-90)scale(0.16 -0.16)">
      <use xlink:href="#DejaVuSans-6e"/>
      <use x="63.378906" xlink:href="#DejaVuSans-5f"/>
      <use x="113.378906" xlink:href="#DejaVuSans-63"/>
      <use x="168.359375" xlink:href="#DejaVuSans-65"/>
      <use x="229.882812" xlink:href="#DejaVuSans-6c"/>
      <use x="257.666016" xlink:href="#DejaVuSans-6c"/>
      <use x="285.449219" xlink:href="#DejaVuSans-73"/>
     </g>
    </g>
   </g>
   <g id="line2d_12">
    <path clip-path="url(#pb2c4ae837d)" d="M 83.16 246.903345 
L 83.16 173.730444 
" style="fill:none;stroke:#000000;stroke-linecap:square;stroke-width:2.7;"/>
   </g>
   <g id="line2d_13">
    <path clip-path="url(#pb2c4ae837d)" d="M 180.36 281.552923 
L 180.36 245.256753 
" style="fill:none;stroke:#000000;stroke-linecap:square;stroke-width:2.7;"/>
   </g>
   <g id="line2d_14">
    <path clip-path="url(#pb2c4ae837d)" d="M 277.56 303.009716 
L 277.56 260.829027 
" style="fill:none;stroke:#000000;stroke-linecap:square;stroke-width:2.7;"/>
   </g>
   <g id="line2d_15">
    <path clip-path="url(#pb2c4ae837d)" d="M 122.04 187.608941 
L 122.04 103.946463 
" style="fill:none;stroke:#000000;stroke-linecap:square;stroke-width:2.7;"/>
   </g>
   <g id="line2d_16">
    <path clip-path="url(#pb2c4ae837d)" d="M 219.24 294.504716 
L 219.24 256.466039 
" style="fill:none;stroke:#000000;stroke-linecap:square;stroke-width:2.7;"/>
   </g>
   <g id="line2d_17">
    <path clip-path="url(#pb2c4ae837d)" d="M 316.44 282.677481 
L 316.44 247.764194 
" style="fill:none;stroke:#000000;stroke-linecap:square;stroke-width:2.7;"/>
   </g>
   <g id="patch_9">
    <path d="M 54 320.4 
L 54 61.395768 
" style="fill:none;stroke:#000000;stroke-linecap:square;stroke-linejoin:miter;stroke-width:0.8;"/>
   </g>
   <g id="legend_1">
    <g id="patch_10">
     <path d="M 339.354375 109.9125 
L 396.92 109.9125 
Q 398.92 109.9125 398.92 107.9125 
L 398.92 50.2 
Q 398.92 48.2 396.92 48.2 
L 339.354375 48.2 
Q 337.354375 48.2 337.354375 50.2 
L 337.354375 107.9125 
Q 337.354375 109.9125 339.354375 109.9125 
z
" style="fill:#ffffff;opacity:0.8;stroke:#cccccc;stroke-linejoin:miter;"/>
    </g>
    <g id="PathCollection_9">
     <defs>
      <path d="M 0 3.872983 
C 1.027127 3.872983 2.012324 3.464901 2.738613 2.738613 
C 3.464901 2.012324 3.872983 1.027127 3.872983 0 
C 3.872983 -1.027127 3.464901 -2.012324 2.738613 -2.738613 
C 2.012324 -3.464901 1.027127 -3.872983 0 -3.872983 
C -1.027127 -3.872983 -2.012324 -3.464901 -2.738613 -2.738613 
C -3.464901 -2.012324 -3.872983 -1.027127 -3.872983 0 
C -3.872983 1.027127 -3.464901 2.012324 -2.738613 2.738613 
C -2.012324 3.464901 -1.027127 3.872983 0 3.872983 
z
" id="m8de80e05bc" style="stroke:#3778bf;"/>
     </defs>
     <g>
      <use style="fill:#3778bf;stroke:#3778bf;" x="351.354375" xlink:href="#m8de80e05bc" y="57.173437"/>
     </g>
    </g>
    <g id="text_14">
     <!-- rfs -->
     <defs>
      <path d="M 37.109375 75.984375 
L 37.109375 68.5 
L 28.515625 68.5 
Q 23.6875 68.5 21.796875 66.546875 
Q 19.921875 64.59375 19.921875 59.515625 
L 19.921875 54.6875 
L 34.71875 54.6875 
L 34.71875 47.703125 
L 19.921875 47.703125 
L 19.921875 0 
L 10.890625 0 
L 10.890625 47.703125 
L 2.296875 47.703125 
L 2.296875 54.6875 
L 10.890625 54.6875 
L 10.890625 58.5 
Q 10.890625 67.625 15.140625 71.796875 
Q 19.390625 75.984375 28.609375 75.984375 
z
" id="DejaVuSans-66"/>
     </defs>
     <g transform="translate(369.354375 59.798437)scale(0.1 -0.1)">
      <use xlink:href="#DejaVuSans-72"/>
      <use x="41.113281" xlink:href="#DejaVuSans-66"/>
      <use x="76.318359" xlink:href="#DejaVuSans-73"/>
     </g>
    </g>
    <g id="PathCollection_10">
     <defs>
      <path d="M 0 3.872983 
C 1.027127 3.872983 2.012324 3.464901 2.738613 2.738613 
C 3.464901 2.012324 3.872983 1.027127 3.872983 0 
C 3.872983 -1.027127 3.464901 -2.012324 2.738613 -2.738613 
C 2.012324 -3.464901 1.027127 -3.872983 0 -3.872983 
C -1.027127 -3.872983 -2.012324 -3.464901 -2.738613 -2.738613 
C -3.464901 -2.012324 -3.872983 -1.027127 -3.872983 0 
C -3.872983 1.027127 -3.464901 2.012324 -2.738613 2.738613 
C -2.012324 3.464901 -1.027127 3.872983 0 3.872983 
z
" id="m81f051818e" style="stroke:#feb308;"/>
     </defs>
     <g>
      <use style="fill:#feb308;stroke:#feb308;" x="351.354375" xlink:href="#m81f051818e" y="71.851562"/>
     </g>
    </g>
    <g id="text_15">
     <!-- rfs10 -->
     <g transform="translate(369.354375 74.476562)scale(0.1 -0.1)">
      <use xlink:href="#DejaVuSans-72"/>
      <use x="41.113281" xlink:href="#DejaVuSans-66"/>
      <use x="76.318359" xlink:href="#DejaVuSans-73"/>
      <use x="128.417969" xlink:href="#DejaVuSans-31"/>
      <use x="192.041016" xlink:href="#DejaVuSans-30"/>
     </g>
    </g>
    <g id="patch_11">
     <path d="M 341.354375 89.154687 
L 361.354375 89.154687 
L 361.354375 82.154687 
L 341.354375 82.154687 
z
" style="fill:none;stroke:#000000;stroke-linejoin:miter;stroke-width:2.5;"/>
    </g>
    <g id="text_16">
     <!-- rfs -->
     <g transform="translate(369.354375 89.154687)scale(0.1 -0.1)">
      <use xlink:href="#DejaVuSans-72"/>
      <use x="41.113281" xlink:href="#DejaVuSans-66"/>
      <use x="76.318359" xlink:href="#DejaVuSans-73"/>
     </g>
    </g>
    <g id="patch_12">
     <path d="M 341.354375 103.832812 
L 361.354375 103.832812 
L 361.354375 96.832812 
L 341.354375 96.832812 
z
" style="fill:none;stroke:#000000;stroke-linejoin:miter;stroke-width:2.5;"/>
    </g>
    <g id="text_17">
     <!-- rfs10 -->
     <g transform="translate(369.354375 103.832812)scale(0.1 -0.1)">
      <use xlink:href="#DejaVuSans-72"/>
      <use x="41.113281" xlink:href="#DejaVuSans-66"/>
      <use x="76.318359" xlink:href="#DejaVuSans-73"/>
      <use x="128.417969" xlink:href="#DejaVuSans-31"/>
      <use x="192.041016" xlink:href="#DejaVuSans-30"/>
     </g>
    </g>
   </g>
  </g>
  <g id="text_18">
   <!-- traces001-fit-2dgaus_dff-no-cutoff|fit-2dgaus_dff-no-cutoff-thr-0.50 -->
   <defs>
    <path d="M 18.3125 70.21875 
L 18.3125 54.6875 
L 36.8125 54.6875 
L 36.8125 47.703125 
L 18.3125 47.703125 
L 18.3125 18.015625 
Q 18.3125 11.328125 20.140625 9.421875 
Q 21.96875 7.515625 27.59375 7.515625 
L 36.8125 7.515625 
L 36.8125 0 
L 27.59375 0 
Q 17.1875 0 13.234375 3.875 
Q 9.28125 7.765625 9.28125 18.015625 
L 9.28125 47.703125 
L 2.6875 47.703125 
L 2.6875 54.6875 
L 9.28125 54.6875 
L 9.28125 70.21875 
z
" id="DejaVuSans-74"/>
    <path d="M 4.890625 31.390625 
L 31.203125 31.390625 
L 31.203125 23.390625 
L 4.890625 23.390625 
z
" id="DejaVuSans-2d"/>
    <path d="M 45.40625 46.390625 
L 45.40625 75.984375 
L 54.390625 75.984375 
L 54.390625 0 
L 45.40625 0 
L 45.40625 8.203125 
Q 42.578125 3.328125 38.25 0.953125 
Q 33.9375 -1.421875 27.875 -1.421875 
Q 17.96875 -1.421875 11.734375 6.484375 
Q 5.515625 14.40625 5.515625 27.296875 
Q 5.515625 40.1875 11.734375 48.09375 
Q 17.96875 56 27.875 56 
Q 33.9375 56 38.25 53.625 
Q 42.578125 51.265625 45.40625 46.390625 
z
M 14.796875 27.296875 
Q 14.796875 17.390625 18.875 11.75 
Q 22.953125 6.109375 30.078125 6.109375 
Q 37.203125 6.109375 41.296875 11.75 
Q 45.40625 17.390625 45.40625 27.296875 
Q 45.40625 37.203125 41.296875 42.84375 
Q 37.203125 48.484375 30.078125 48.484375 
Q 22.953125 48.484375 18.875 42.84375 
Q 14.796875 37.203125 14.796875 27.296875 
z
" id="DejaVuSans-64"/>
    <path d="M 45.40625 27.984375 
Q 45.40625 37.75 41.375 43.109375 
Q 37.359375 48.484375 30.078125 48.484375 
Q 22.859375 48.484375 18.828125 43.109375 
Q 14.796875 37.75 14.796875 27.984375 
Q 14.796875 18.265625 18.828125 12.890625 
Q 22.859375 7.515625 30.078125 7.515625 
Q 37.359375 7.515625 41.375 12.890625 
Q 45.40625 18.265625 45.40625 27.984375 
z
M 54.390625 6.78125 
Q 54.390625 -7.171875 48.1875 -13.984375 
Q 42 -20.796875 29.203125 -20.796875 
Q 24.46875 -20.796875 20.265625 -20.09375 
Q 16.0625 -19.390625 12.109375 -17.921875 
L 12.109375 -9.1875 
Q 16.0625 -11.328125 19.921875 -12.34375 
Q 23.78125 -13.375 27.78125 -13.375 
Q 36.625 -13.375 41.015625 -8.765625 
Q 45.40625 -4.15625 45.40625 5.171875 
L 45.40625 9.625 
Q 42.625 4.78125 38.28125 2.390625 
Q 33.9375 0 27.875 0 
Q 17.828125 0 11.671875 7.65625 
Q 5.515625 15.328125 5.515625 27.984375 
Q 5.515625 40.671875 11.671875 48.328125 
Q 17.828125 56 27.875 56 
Q 33.9375 56 38.28125 53.609375 
Q 42.625 51.21875 45.40625 46.390625 
L 45.40625 54.6875 
L 54.390625 54.6875 
z
" id="DejaVuSans-67"/>
    <path d="M 30.609375 48.390625 
Q 23.390625 48.390625 19.1875 42.75 
Q 14.984375 37.109375 14.984375 27.296875 
Q 14.984375 17.484375 19.15625 11.84375 
Q 23.34375 6.203125 30.609375 6.203125 
Q 37.796875 6.203125 41.984375 11.859375 
Q 46.1875 17.53125 46.1875 27.296875 
Q 46.1875 37.015625 41.984375 42.703125 
Q 37.796875 48.390625 30.609375 48.390625 
z
M 30.609375 56 
Q 42.328125 56 49.015625 48.375 
Q 55.71875 40.765625 55.71875 27.296875 
Q 55.71875 13.875 49.015625 6.21875 
Q 42.328125 -1.421875 30.609375 -1.421875 
Q 18.84375 -1.421875 12.171875 6.21875 
Q 5.515625 13.875 5.515625 27.296875 
Q 5.515625 40.765625 12.171875 48.375 
Q 18.84375 56 30.609375 56 
z
" id="DejaVuSans-6f"/>
    <path d="M 21 76.421875 
L 21 -23.578125 
L 12.703125 -23.578125 
L 12.703125 76.421875 
z
" id="DejaVuSans-7c"/>
    <path d="M 54.890625 33.015625 
L 54.890625 0 
L 45.90625 0 
L 45.90625 32.71875 
Q 45.90625 40.484375 42.875 44.328125 
Q 39.84375 48.1875 33.796875 48.1875 
Q 26.515625 48.1875 22.3125 43.546875 
Q 18.109375 38.921875 18.109375 30.90625 
L 18.109375 0 
L 9.078125 0 
L 9.078125 75.984375 
L 18.109375 75.984375 
L 18.109375 46.1875 
Q 21.34375 51.125 25.703125 53.5625 
Q 30.078125 56 35.796875 56 
Q 45.21875 56 50.046875 50.171875 
Q 54.890625 44.34375 54.890625 33.015625 
z
" id="DejaVuSans-68"/>
    <path d="M 10.6875 12.40625 
L 21 12.40625 
L 21 0 
L 10.6875 0 
z
" id="DejaVuSans-2e"/>
    <path d="M 10.796875 72.90625 
L 49.515625 72.90625 
L 49.515625 64.59375 
L 19.828125 64.59375 
L 19.828125 46.734375 
Q 21.96875 47.46875 24.109375 47.828125 
Q 26.265625 48.1875 28.421875 48.1875 
Q 40.625 48.1875 47.75 41.5 
Q 54.890625 34.8125 54.890625 23.390625 
Q 54.890625 11.625 47.5625 5.09375 
Q 40.234375 -1.421875 26.90625 -1.421875 
Q 22.3125 -1.421875 17.546875 -0.640625 
Q 12.796875 0.140625 7.71875 1.703125 
L 7.71875 11.625 
Q 12.109375 9.234375 16.796875 8.0625 
Q 21.484375 6.890625 26.703125 6.890625 
Q 35.15625 6.890625 40.078125 11.328125 
Q 45.015625 15.765625 45.015625 23.390625 
Q 45.015625 31 40.078125 35.4375 
Q 35.15625 39.890625 26.703125 39.890625 
Q 22.75 39.890625 18.8125 39.015625 
Q 14.890625 38.140625 10.796875 36.28125 
z
" id="DejaVuSans-35"/>
   </defs>
   <g transform="translate(0 6.11375)scale(0.08 -0.08)">
    <use xlink:href="#DejaVuSans-74"/>
    <use x="39.208984" xlink:href="#DejaVuSans-72"/>
    <use x="80.322266" xlink:href="#DejaVuSans-61"/>
    <use x="141.601562" xlink:href="#DejaVuSans-63"/>
    <use x="196.582031" xlink:href="#DejaVuSans-65"/>
    <use x="258.105469" xlink:href="#DejaVuSans-73"/>
    <use x="310.205078" xlink:href="#DejaVuSans-30"/>
    <use x="373.828125" xlink:href="#DejaVuSans-30"/>
    <use x="437.451172" xlink:href="#DejaVuSans-31"/>
    <use x="501.074219" xlink:href="#DejaVuSans-2d"/>
    <use x="537.158203" xlink:href="#DejaVuSans-66"/>
    <use x="572.363281" xlink:href="#DejaVuSans-69"/>
    <use x="600.146484" xlink:href="#DejaVuSans-74"/>
    <use x="639.355469" xlink:href="#DejaVuSans-2d"/>
    <use x="675.439453" xlink:href="#DejaVuSans-32"/>
    <use x="739.0625" xlink:href="#DejaVuSans-64"/>
    <use x="802.539062" xlink:href="#DejaVuSans-67"/>
    <use x="866.015625" xlink:href="#DejaVuSans-61"/>
    <use x="927.294922" xlink:href="#DejaVuSans-75"/>
    <use x="990.673828" xlink:href="#DejaVuSans-73"/>
    <use x="1042.773438" xlink:href="#DejaVuSans-5f"/>
    <use x="1092.773438" xlink:href="#DejaVuSans-64"/>
    <use x="1156.25" xlink:href="#DejaVuSans-66"/>
    <use x="1191.455078" xlink:href="#DejaVuSans-66"/>
    <use x="1226.582031" xlink:href="#DejaVuSans-2d"/>
    <use x="1262.666016" xlink:href="#DejaVuSans-6e"/>
    <use x="1326.044922" xlink:href="#DejaVuSans-6f"/>
    <use x="1387.242188" xlink:href="#DejaVuSans-2d"/>
    <use x="1423.326172" xlink:href="#DejaVuSans-63"/>
    <use x="1478.306641" xlink:href="#DejaVuSans-75"/>
    <use x="1541.685547" xlink:href="#DejaVuSans-74"/>
    <use x="1580.894531" xlink:href="#DejaVuSans-6f"/>
    <use x="1642.076172" xlink:href="#DejaVuSans-66"/>
    <use x="1677.28125" xlink:href="#DejaVuSans-66"/>
    <use x="1712.486328" xlink:href="#DejaVuSans-7c"/>
    <use x="1746.177734" xlink:href="#DejaVuSans-66"/>
    <use x="1781.382812" xlink:href="#DejaVuSans-69"/>
    <use x="1809.166016" xlink:href="#DejaVuSans-74"/>
    <use x="1848.375" xlink:href="#DejaVuSans-2d"/>
    <use x="1884.458984" xlink:href="#DejaVuSans-32"/>
    <use x="1948.082031" xlink:href="#DejaVuSans-64"/>
    <use x="2011.558594" xlink:href="#DejaVuSans-67"/>
    <use x="2075.035156" xlink:href="#DejaVuSans-61"/>
    <use x="2136.314453" xlink:href="#DejaVuSans-75"/>
    <use x="2199.693359" xlink:href="#DejaVuSans-73"/>
    <use x="2251.792969" xlink:href="#DejaVuSans-5f"/>
    <use x="2301.792969" xlink:href="#DejaVuSans-64"/>
    <use x="2365.269531" xlink:href="#DejaVuSans-66"/>
    <use x="2400.474609" xlink:href="#DejaVuSans-66"/>
    <use x="2435.601562" xlink:href="#DejaVuSans-2d"/>
    <use x="2471.685547" xlink:href="#DejaVuSans-6e"/>
    <use x="2535.064453" xlink:href="#DejaVuSans-6f"/>
    <use x="2596.261719" xlink:href="#DejaVuSans-2d"/>
    <use x="2632.345703" xlink:href="#DejaVuSans-63"/>
    <use x="2687.326172" xlink:href="#DejaVuSans-75"/>
    <use x="2750.705078" xlink:href="#DejaVuSans-74"/>
    <use x="2789.914062" xlink:href="#DejaVuSans-6f"/>
    <use x="2851.095703" xlink:href="#DejaVuSans-66"/>
    <use x="2886.300781" xlink:href="#DejaVuSans-66"/>
    <use x="2921.427734" xlink:href="#DejaVuSans-2d"/>
    <use x="2957.511719" xlink:href="#DejaVuSans-74"/>
    <use x="2996.720703" xlink:href="#DejaVuSans-68"/>
    <use x="3060.099609" xlink:href="#DejaVuSans-72"/>
    <use x="3101.119141" xlink:href="#DejaVuSans-2d"/>
    <use x="3137.203125" xlink:href="#DejaVuSans-30"/>
    <use x="3200.826172" xlink:href="#DejaVuSans-2e"/>
    <use x="3232.613281" xlink:href="#DejaVuSans-35"/>
    <use x="3296.236328" xlink:href="#DejaVuSans-30"/>
   </g>
  </g>
 </g>
 <defs>
  <clipPath id="pb2c4ae837d">
   <rect height="277.2" width="291.6" x="54" y="43.2"/>
  </clipPath>
 </defs>
</svg>
