<?xml version="1.0" encoding="utf-8" standalone="no"?>
<!DOCTYPE svg PUBLIC "-//W3C//DTD SVG 1.1//EN"
  "http://www.w3.org/Graphics/SVG/1.1/DTD/svg11.dtd">
<!-- Created with matplotlib (http://matplotlib.org/) -->
<svg height="216pt" version="1.1" viewBox="0 0 432 216" width="432pt" xmlns="http://www.w3.org/2000/svg" xmlns:xlink="http://www.w3.org/1999/xlink">
 <defs>
  <style type="text/css">
*{stroke-linecap:butt;stroke-linejoin:round;}
  </style>
 </defs>
 <g id="figure_1">
  <g id="patch_1">
   <path d="M 0 216 
L 432 216 
L 432 0 
L 0 0 
z
" style="fill:none;opacity:0;"/>
  </g>
  <g id="axes_1">
   <g id="patch_2">
    <path clip-path="url(#p889c0cd370)" d="M 82.339439 136.500416 
C 78.58327 132.988948 75.588377 128.742837 73.540992 124.026118 
C 71.493606 119.309399 70.437064 114.221908 70.437064 109.08 
C 70.437064 103.938092 71.493606 98.850601 73.540992 94.133882 
C 75.588377 89.417163 78.58327 85.171052 82.339439 81.659584 
C 76.231921 83.195411 70.809175 86.728623 66.936939 91.695144 
C 63.064703 96.661666 60.960628 102.782338 60.960628 109.08 
C 60.960628 115.377662 63.064703 121.498334 66.936939 126.464856 
C 70.809175 131.431377 76.231921 134.964589 82.339439 136.500416 
" style="fill:#bf00bf;opacity:0.4;"/>
   </g>
   <g id="patch_3">
    <path clip-path="url(#p889c0cd370)" d="M 82.339439 81.659584 
C 86.509468 80.610967 90.864277 80.527288 95.071511 81.414934 
C 99.278745 82.302579 103.228581 84.138377 106.619572 86.782223 
C 110.010562 89.426068 112.75419 92.808947 114.641064 96.672681 
C 116.527938 100.536415 117.508805 104.780147 117.508805 109.08 
C 117.508805 113.379853 116.527938 117.623585 114.641064 121.487319 
C 112.75419 125.351053 110.010562 128.733932 106.619572 131.377777 
C 103.228581 134.021623 99.278745 135.857421 95.071511 136.745066 
C 90.864277 137.632712 86.509468 137.549033 82.339439 136.500416 
C 87.683506 141.496336 94.373286 144.82265 101.582073 146.068301 
C 108.79086 147.313952 116.208949 146.425425 122.91963 143.512521 
C 129.630312 140.599616 135.34528 135.78748 139.358294 129.670784 
C 143.371309 123.554087 145.50996 116.395617 145.50996 109.08 
C 145.50996 101.764383 143.371309 94.605913 139.358294 88.489216 
C 135.34528 82.37252 129.630312 77.560384 122.91963 74.647479 
C 116.208949 71.734575 108.79086 70.846048 101.582073 72.091699 
C 94.373286 73.33735 87.683506 76.663664 82.339439 81.659584 
" style="fill:#00bfbf;opacity:0.4;"/>
   </g>
   <g id="patch_4">
    <path clip-path="url(#p889c0cd370)" d="M 82.339439 136.500416 
C 86.509468 137.549033 90.864277 137.632712 95.071511 136.745066 
C 99.278745 135.857421 103.228581 134.021623 106.619572 131.377777 
C 110.010562 128.733932 112.75419 125.351053 114.641064 121.487319 
C 116.527938 117.623585 117.508805 113.379853 117.508805 109.08 
C 117.508805 104.780147 116.527938 100.536415 114.641064 96.672681 
C 112.75419 92.808947 110.010562 89.426068 106.619572 86.782223 
C 103.228581 84.138377 99.278745 82.302579 95.071511 81.414934 
C 90.864277 80.527288 86.509468 80.610967 82.339439 81.659584 
C 78.58327 85.171052 75.588377 89.417163 73.540992 94.133882 
C 71.493606 98.850601 70.437064 103.938092 70.437064 109.08 
C 70.437064 114.221908 71.493606 119.309399 73.540992 124.026118 
C 75.588377 128.742837 78.58327 132.988948 82.339439 136.500416 
" style="fill:#8686ff;opacity:0.4;"/>
   </g>
   <g id="text_1">
    <text style="font-family:DejaVu Sans;font-size:10px;font-style:normal;font-weight:normal;text-anchor:middle;" transform="rotate(-0, 65.698846, 111.839375)" x="65.698846" y="111.839375">40</text>
   </g>
   <g id="text_2">
    <text style="font-family:DejaVu Sans;font-size:10px;font-style:normal;font-weight:normal;text-anchor:middle;" transform="rotate(-0, 131.509382, 111.839375)" x="131.509382" y="111.839375">223</text>
   </g>
   <g id="text_3">
    <text style="font-family:DejaVu Sans;font-size:10px;font-style:normal;font-weight:normal;text-anchor:middle;" transform="rotate(-0, 93.972935, 111.839375)" x="93.972935" y="111.839375">200</text>
   </g>
   <g id="text_4">
    <text style="font-family:DejaVu Sans;font-size:12px;font-style:normal;font-weight:normal;text-anchor:end;" transform="rotate(-0, 89.234716, 149.76274)" x="89.234716" y="149.76274">5deg</text>
   </g>
   <g id="text_5">
    <text style="font-family:DejaVu Sans;font-size:12px;font-style:normal;font-weight:normal;text-anchor:start;" transform="rotate(-0, 107.973512, 159.0251)" x="107.973512" y="159.0251">10deg</text>
   </g>
   <g id="text_6">
    <text style="font-family:DejaVu Sans;font-size:12px;font-style:normal;font-weight:normal;text-anchor:middle;" transform="rotate(-0, 103.235294, 58.582924)" x="103.235294" y="58.582924">V1</text>
   </g>
  </g>
  <g id="axes_2">
   <g id="patch_5">
    <path clip-path="url(#p1a1b575b2f)" d="M 203.464712 134.720738 
C 200.022049 131.39656 197.283869 127.41283 195.413861 123.007702 
C 193.543853 118.602573 192.580041 113.865612 192.580041 109.08 
C 192.580041 104.294388 193.543853 99.557427 195.413861 95.152298 
C 197.283869 90.74717 200.022049 86.76344 203.464712 83.439262 
C 196.862965 83.731545 190.622611 86.562463 186.054405 91.337395 
C 181.486199 96.112327 178.934064 102.471787 178.934064 109.08 
C 178.934064 115.688213 181.486199 122.047673 186.054405 126.822605 
C 190.622611 131.597537 196.862965 134.428455 203.464712 134.720738 
" style="fill:#bf00bf;opacity:0.4;"/>
   </g>
   <g id="patch_6">
    <path clip-path="url(#p1a1b575b2f)" d="M 203.464712 83.439262 
C 206.927293 83.285961 210.385317 83.835628 213.629701 85.05503 
C 216.874086 86.274431 219.838098 88.138485 222.342525 90.534485 
C 224.846952 92.930485 226.84028 95.809149 228.201988 98.996424 
C 229.563697 102.183699 230.265775 105.614027 230.265775 109.08 
C 230.265775 112.545973 229.563697 115.976301 228.201988 119.163576 
C 226.84028 122.350851 224.846952 125.229515 222.342525 127.625515 
C 219.838098 130.021515 216.874086 131.885569 213.629701 133.10497 
C 210.385317 134.324372 206.927293 134.874039 203.464712 134.720738 
C 208.49716 139.579988 214.850538 142.851809 221.729007 144.126368 
C 228.607477 145.400927 235.711319 144.622685 242.15069 141.889127 
C 248.590061 139.155569 254.084376 134.585806 257.945404 128.752257 
C 261.806433 122.918707 263.865936 116.075559 263.865936 109.08 
C 263.865936 102.084441 261.806433 95.241293 257.945404 89.407743 
C 254.084376 83.574194 248.590061 79.004431 242.15069 76.270873 
C 235.711319 73.537315 228.607477 72.759073 221.729007 74.033632 
C 214.850538 75.308191 208.49716 78.580012 203.464712 83.439262 
" style="fill:#00bfbf;opacity:0.4;"/>
   </g>
   <g id="patch_7">
    <path clip-path="url(#p1a1b575b2f)" d="M 203.464712 134.720738 
C 206.927293 134.874039 210.385317 134.324372 213.629701 133.10497 
C 216.874086 131.885569 219.838098 130.021515 222.342525 127.625515 
C 224.846952 125.229515 226.84028 122.350851 228.201988 119.163576 
C 229.563697 115.976301 230.265775 112.545973 230.265775 109.08 
C 230.265775 105.614027 229.563697 102.183699 228.201988 98.996424 
C 226.84028 95.809149 224.846952 92.930485 222.342525 90.534485 
C 219.838098 88.138485 216.874086 86.274431 213.629701 85.05503 
C 210.385317 83.835628 206.927293 83.285961 203.464712 83.439262 
C 200.022049 86.76344 197.283869 90.74717 195.413861 95.152298 
C 193.543853 99.557427 192.580041 104.294388 192.580041 109.08 
C 192.580041 113.865612 193.543853 118.602573 195.413861 123.007702 
C 197.283869 127.41283 200.022049 131.39656 203.464712 134.720738 
" style="fill:#8686ff;opacity:0.4;"/>
   </g>
   <g id="text_7">
    <text style="font-family:DejaVu Sans;font-size:10px;font-style:normal;font-weight:normal;text-anchor:middle;" transform="rotate(-0, 185.757053, 111.839375)" x="185.757053" y="111.839375">4</text>
   </g>
   <g id="text_8">
    <text style="font-family:DejaVu Sans;font-size:10px;font-style:normal;font-weight:normal;text-anchor:middle;" transform="rotate(-0, 247.065856, 111.839375)" x="247.065856" y="111.839375">17</text>
   </g>
   <g id="text_9">
    <text style="font-family:DejaVu Sans;font-size:10px;font-style:normal;font-weight:normal;text-anchor:middle;" transform="rotate(-0, 211.422908, 111.839375)" x="211.422908" y="111.839375">10</text>
   </g>
   <g id="text_10">
    <text style="font-family:DejaVu Sans;font-size:12px;font-style:normal;font-weight:normal;text-anchor:end;" transform="rotate(-0, 204.59992, 146.929421)" x="204.59992" y="146.929421">5deg</text>
   </g>
   <g id="text_11">
    <text style="font-family:DejaVu Sans;font-size:12px;font-style:normal;font-weight:normal;text-anchor:start;" transform="rotate(-0, 228.222988, 156.906513)" x="228.222988" y="156.906513">10deg</text>
   </g>
   <g id="text_12">
    <text style="font-family:DejaVu Sans;font-size:12px;font-style:normal;font-weight:normal;text-anchor:middle;" transform="rotate(-0, 221.4, 60.667694)" x="221.4" y="60.667694">Lm</text>
   </g>
  </g>
  <g id="axes_3">
   <g id="patch_8">
    <path clip-path="url(#p6dbcbc4c94)" d="M 324.013971 135.067523 
C 320.355528 131.798607 317.428265 127.793699 315.424229 123.315546 
C 313.420193 118.837394 312.384191 113.98612 312.384191 109.08 
C 312.384191 104.17388 313.420193 99.322606 315.424229 94.844454 
C 317.428265 90.366301 320.355528 86.361393 324.013971 83.092477 
C 320.520237 82.962879 317.035979 83.539143 313.770018 84.78673 
C 310.504058 86.034318 307.522972 87.927797 305.005428 90.353687 
C 302.487883 92.779576 300.485199 95.688423 299.117403 98.905892 
C 297.749607 102.123361 297.044582 105.583863 297.044582 109.08 
C 297.044582 112.576137 297.749607 116.036639 299.117403 119.254108 
C 300.485199 122.471577 302.487883 125.380424 305.005428 127.806313 
C 307.522972 130.232203 310.504058 132.125682 313.770018 133.37327 
C 317.035979 134.620857 320.520237 135.197121 324.013971 135.067523 
" style="fill:#bf00bf;opacity:0.4;"/>
   </g>
   <g id="patch_9">
    <path clip-path="url(#p6dbcbc4c94)" d="M 324.013971 83.092477 
C 330.737156 83.34187 337.108018 86.190799 341.776291 91.03545 
C 346.444565 95.880101 349.055374 102.352191 349.055374 109.08 
C 349.055374 115.807809 346.444565 122.279899 341.776291 127.12455 
C 337.108018 131.969201 330.737156 134.81813 324.013971 135.067523 
C 329.029015 139.548597 335.235576 142.483608 341.881132 143.516697 
C 348.526688 144.549786 355.331343 143.637441 361.470056 140.890281 
C 367.60877 138.143121 372.822993 133.67685 376.480519 128.032987 
C 380.138046 122.389124 382.08483 115.805376 382.08483 109.08 
C 382.08483 102.354624 380.138046 95.770876 376.480519 90.127013 
C 372.822993 84.48315 367.60877 80.016879 361.470056 77.269719 
C 355.331343 74.522559 348.526688 73.610214 341.881132 74.643303 
C 335.235576 75.676392 329.029015 78.611403 324.013971 83.092477 
" style="fill:#00bfbf;opacity:0.4;"/>
   </g>
   <g id="patch_10">
    <path clip-path="url(#p6dbcbc4c94)" d="M 324.013971 135.067523 
C 330.737156 134.81813 337.108018 131.969201 341.776291 127.12455 
C 346.444565 122.279899 349.055374 115.807809 349.055374 109.08 
C 349.055374 102.352191 346.444565 95.880101 341.776291 91.03545 
C 337.108018 86.190799 330.737156 83.34187 324.013971 83.092477 
C 320.355528 86.361393 317.428265 90.366301 315.424229 94.844454 
C 313.420193 99.322606 312.384191 104.17388 312.384191 109.08 
C 312.384191 113.98612 313.420193 118.837394 315.424229 123.315546 
C 317.428265 127.793699 320.355528 131.798607 324.013971 135.067523 
" style="fill:#8686ff;opacity:0.4;"/>
   </g>
   <g id="text_13">
    <text style="font-family:DejaVu Sans;font-size:10px;font-style:normal;font-weight:normal;text-anchor:middle;" transform="rotate(-0, 304.714386, 111.839375)" x="304.714386" y="111.839375">16</text>
   </g>
   <g id="text_14">
    <text style="font-family:DejaVu Sans;font-size:10px;font-style:normal;font-weight:normal;text-anchor:middle;" transform="rotate(-0, 365.570102, 111.839375)" x="365.570102" y="111.839375">55</text>
   </g>
   <g id="text_15">
    <text style="font-family:DejaVu Sans;font-size:10px;font-style:normal;font-weight:normal;text-anchor:middle;" transform="rotate(-0, 330.719782, 111.839375)" x="330.719782" y="111.839375">33</text>
   </g>
   <g id="text_16">
    <text style="font-family:DejaVu Sans;font-size:12px;font-style:normal;font-weight:normal;text-anchor:end;" transform="rotate(-0, 323.049978, 147.246307)" x="323.049978" y="147.246307">5deg</text>
   </g>
   <g id="text_17">
    <text style="font-family:DejaVu Sans;font-size:12px;font-style:normal;font-weight:normal;text-anchor:start;" transform="rotate(-0, 347.23451, 156.09123)" x="347.23451" y="156.09123">10deg</text>
   </g>
   <g id="text_18">
    <text style="font-family:DejaVu Sans;font-size:12px;font-style:normal;font-weight:normal;text-anchor:middle;" transform="rotate(-0, 339.564706, 61.51451)" x="339.564706" y="61.51451">Li</text>
   </g>
  </g>
  <g id="text_19">
   <text style="font-family:DejaVu Sans;font-size:10px;font-style:normal;font-weight:normal;text-anchor:start;" transform="rotate(-0, 4.32, 21.6)" x="4.32" y="21.6">FOVs with both sizes tested</text>
  </g>
  <g id="text_20">
   <text style="font-family:DejaVu Sans;font-size:8px;font-style:normal;font-weight:normal;text-anchor:start;" transform="rotate(-0, 0, 6.11375)" x="0" y="6.11375">traces001|fit-2dgaus_dff-no-cutoff-thr-0.50|drop_repeats</text>
  </g>
 </g>
 <defs>
  <clipPath id="p889c0cd370">
   <rect height="88.994152" width="98.470588" x="54" y="64.582924"/>
  </clipPath>
  <clipPath id="p1a1b575b2f">
   <rect height="84.824612" width="98.470588" x="172.164706" y="66.667694"/>
  </clipPath>
  <clipPath id="p6dbcbc4c94">
   <rect height="83.13098" width="98.470588" x="290.329412" y="67.51451"/>
  </clipPath>
 </defs>
</svg>
