<?xml version="1.0" encoding="utf-8" standalone="no"?>
<!DOCTYPE svg PUBLIC "-//W3C//DTD SVG 1.1//EN"
  "http://www.w3.org/Graphics/SVG/1.1/DTD/svg11.dtd">
<!-- Created with matplotlib (http://matplotlib.org/) -->
<svg height="288pt" version="1.1" viewBox="0 0 288 288" width="288pt" xmlns="http://www.w3.org/2000/svg" xmlns:xlink="http://www.w3.org/1999/xlink">
 <defs>
  <style type="text/css">
*{stroke-linecap:butt;stroke-linejoin:round;}
  </style>
 </defs>
 <g id="figure_1">
  <g id="patch_1">
   <path d="M 0 288 
L 288 288 
L 288 0 
L 0 0 
z
" style="fill:#ffffff;"/>
  </g>
  <g id="axes_1">
   <g id="patch_2">
    <path d="M 43.2 230.4 
L 259.2 230.4 
L 259.2 57.6 
L 43.2 57.6 
z
" style="fill:#ffffff;"/>
   </g>
   <g id="PathCollection_1"/>
   <g id="PathCollection_2"/>
   <g id="PathCollection_3"/>
   <g id="patch_3">
    <path clip-path="url(#pdb8eff7cf6)" d="M 53.018182 230.4 
L 109.122078 230.4 
L 109.122078 175.594589 
L 53.018182 175.594589 
z
" style="fill:none;stroke:#000000;stroke-linejoin:miter;stroke-width:0.25;"/>
   </g>
   <g id="patch_4">
    <path clip-path="url(#pdb8eff7cf6)" d="M 123.148052 230.4 
L 179.251948 230.4 
L 179.251948 152.15312 
L 123.148052 152.15312 
z
" style="fill:none;stroke:#000000;stroke-linejoin:miter;stroke-width:0.25;"/>
   </g>
   <g id="patch_5">
    <path clip-path="url(#pdb8eff7cf6)" d="M 193.277922 230.4 
L 249.381818 230.4 
L 249.381818 148.376656 
L 193.277922 148.376656 
z
" style="fill:none;stroke:#000000;stroke-linejoin:miter;stroke-width:0.25;"/>
   </g>
   <g id="matplotlib.axis_1">
    <g id="xtick_1">
     <g id="line2d_1"/>
     <g id="text_1">
      <text style="font-family:DejaVu Sans;font-size:6px;font-style:normal;font-weight:normal;text-anchor:middle;" transform="rotate(-0, 81.07013, 238.459063)" x="81.07013" y="238.459063">V1</text>
     </g>
    </g>
    <g id="xtick_2">
     <g id="line2d_2"/>
     <g id="text_2">
      <text style="font-family:DejaVu Sans;font-size:6px;font-style:normal;font-weight:normal;text-anchor:middle;" transform="rotate(-0, 151.2, 238.459063)" x="151.2" y="238.459063">Lm</text>
     </g>
    </g>
    <g id="xtick_3">
     <g id="line2d_3"/>
     <g id="text_3">
      <text style="font-family:DejaVu Sans;font-size:6px;font-style:normal;font-weight:normal;text-anchor:middle;" transform="rotate(-0, 221.32987, 238.459063)" x="221.32987" y="238.459063">Li</text>
     </g>
    </g>
   </g>
   <g id="matplotlib.axis_2">
    <g id="ytick_1">
     <g id="line2d_4">
      <defs>
       <path d="M 0 0 
L -3.5 0 
" id="m686f6de258" style="stroke:#000000;stroke-width:0.25;"/>
      </defs>
      <g>
       <use style="stroke:#000000;stroke-width:0.25;" x="43.2" xlink:href="#m686f6de258" y="230.4"/>
      </g>
     </g>
     <g id="text_4">
      <text style="font-family:DejaVu Sans;font-size:6px;font-style:normal;font-weight:normal;text-anchor:end;" transform="rotate(-0, 36.2, 232.679531)" x="36.2" y="232.679531">0</text>
     </g>
    </g>
    <g id="ytick_2">
     <g id="line2d_5">
      <g>
       <use style="stroke:#000000;stroke-width:0.25;" x="43.2" xlink:href="#m686f6de258" y="200.477922"/>
      </g>
     </g>
     <g id="text_5">
      <text style="font-family:DejaVu Sans;font-size:6px;font-style:normal;font-weight:normal;text-anchor:end;" transform="rotate(-0, 36.2, 202.757453)" x="36.2" y="202.757453">1</text>
     </g>
    </g>
    <g id="ytick_3">
     <g id="line2d_6">
      <g>
       <use style="stroke:#000000;stroke-width:0.25;" x="43.2" xlink:href="#m686f6de258" y="170.555844"/>
      </g>
     </g>
     <g id="text_6">
      <text style="font-family:DejaVu Sans;font-size:6px;font-style:normal;font-weight:normal;text-anchor:end;" transform="rotate(-0, 36.2, 172.835375)" x="36.2" y="172.835375">2</text>
     </g>
    </g>
    <g id="ytick_4">
     <g id="line2d_7">
      <g>
       <use style="stroke:#000000;stroke-width:0.25;" x="43.2" xlink:href="#m686f6de258" y="140.633766"/>
      </g>
     </g>
     <g id="text_7">
      <text style="font-family:DejaVu Sans;font-size:6px;font-style:normal;font-weight:normal;text-anchor:end;" transform="rotate(-0, 36.2, 142.913297)" x="36.2" y="142.913297">3</text>
     </g>
    </g>
    <g id="ytick_5">
     <g id="line2d_8">
      <g>
       <use style="stroke:#000000;stroke-width:0.25;" x="43.2" xlink:href="#m686f6de258" y="110.711688"/>
      </g>
     </g>
     <g id="text_8">
      <text style="font-family:DejaVu Sans;font-size:6px;font-style:normal;font-weight:normal;text-anchor:end;" transform="rotate(-0, 36.2, 112.99122)" x="36.2" y="112.99122">4</text>
     </g>
    </g>
    <g id="ytick_6">
     <g id="line2d_9">
      <g>
       <use style="stroke:#000000;stroke-width:0.25;" x="43.2" xlink:href="#m686f6de258" y="80.78961"/>
      </g>
     </g>
     <g id="text_9">
      <text style="font-family:DejaVu Sans;font-size:6px;font-style:normal;font-weight:normal;text-anchor:end;" transform="rotate(-0, 36.2, 83.069142)" x="36.2" y="83.069142">5</text>
     </g>
    </g>
    <g id="text_10">
     <text style="font-family:DejaVu Sans;font-size:8px;font-style:normal;font-weight:normal;text-anchor:middle;" transform="rotate(-90, 26.49625, 144)" x="26.49625" y="144">ratio_el_az</text>
    </g>
   </g>
   <g id="line2d_10">
    <path clip-path="url(#pdb8eff7cf6)" d="M 81.07013 181.271023 
L 81.07013 169.734858 
" style="fill:none;stroke:#000000;stroke-linecap:square;stroke-width:2.7;"/>
   </g>
   <g id="line2d_11">
    <path clip-path="url(#pdb8eff7cf6)" d="M 151.2 168.856549 
L 151.2 134.991208 
" style="fill:none;stroke:#000000;stroke-linecap:square;stroke-width:2.7;"/>
   </g>
   <g id="line2d_12">
    <path clip-path="url(#pdb8eff7cf6)" d="M 221.32987 160.113971 
L 221.32987 131.460898 
" style="fill:none;stroke:#000000;stroke-linecap:square;stroke-width:2.7;"/>
   </g>
   <g id="line2d_13">
    <path clip-path="url(#pdb8eff7cf6)" d="M 81.07013 80.78961 
L 81.07013 80.78961 
L 151.2 80.78961 
L 151.2 80.78961 
" style="fill:none;stroke:#000000;stroke-linecap:square;"/>
   </g>
   <g id="line2d_14">
    <path clip-path="url(#pdb8eff7cf6)" d="M 81.07013 65.828571 
L 81.07013 65.828571 
L 221.32987 65.828571 
L 221.32987 65.828571 
" style="fill:none;stroke:#000000;stroke-linecap:square;"/>
   </g>
   <g id="patch_6">
    <path d="M 43.2 230.4 
L 43.2 80.78961 
" style="fill:none;stroke:#000000;stroke-linecap:square;stroke-linejoin:miter;stroke-width:0.25;"/>
   </g>
   <g id="PathCollection_4">
    <defs>
     <path d="M 0 2.5 
C 0.663008 2.5 1.29895 2.236584 1.767767 1.767767 
C 2.236584 1.29895 2.5 0.663008 2.5 0 
C 2.5 -0.663008 2.236584 -1.29895 1.767767 -1.767767 
C 1.29895 -2.236584 0.663008 -2.5 0 -2.5 
C -0.663008 -2.5 -1.29895 -2.236584 -1.767767 -1.767767 
C -2.236584 -1.29895 -2.5 -0.663008 -2.5 0 
C -2.5 0.663008 -2.236584 1.29895 -1.767767 1.767767 
C -1.29895 2.236584 -0.663008 2.5 0 2.5 
z
" id="C0_0_30184bb255"/>
    </defs>
    <g clip-path="url(#pdb8eff7cf6)">
     <use x="79.204785" xlink:href="#C0_0_30184bb255" y="170.466291"/>
    </g>
    <g clip-path="url(#pdb8eff7cf6)">
     <use x="74.094522" xlink:href="#C0_0_30184bb255" y="172.536643"/>
    </g>
    <g clip-path="url(#pdb8eff7cf6)">
     <use x="83.274325" xlink:href="#C0_0_30184bb255" y="157.330344"/>
    </g>
    <g clip-path="url(#pdb8eff7cf6)">
     <use x="74.755523" xlink:href="#C0_0_30184bb255" y="176.311079"/>
    </g>
    <g clip-path="url(#pdb8eff7cf6)">
     <use x="75.427906" xlink:href="#C0_0_30184bb255" y="176.090657"/>
    </g>
    <g clip-path="url(#pdb8eff7cf6)">
     <use x="83.58635" xlink:href="#C0_0_30184bb255" y="188.314996"/>
    </g>
    <g clip-path="url(#pdb8eff7cf6)">
     <use x="74.781772" xlink:href="#C0_0_30184bb255" y="176.632565"/>
    </g>
    <g clip-path="url(#pdb8eff7cf6)">
     <use x="76.865708" xlink:href="#C0_0_30184bb255" y="173.280542"/>
    </g>
    <g clip-path="url(#pdb8eff7cf6)">
     <use x="80.663163" xlink:href="#C0_0_30184bb255" y="189.388187"/>
    </g>
   </g>
   <g id="PathCollection_5">
    <defs>
     <path d="M 0 2.5 
C 0.663008 2.5 1.29895 2.236584 1.767767 1.767767 
C 2.236584 1.29895 2.5 0.663008 2.5 0 
C 2.5 -0.663008 2.236584 -1.29895 1.767767 -1.767767 
C 1.29895 -2.236584 0.663008 -2.5 0 -2.5 
C -0.663008 -2.5 -1.29895 -2.236584 -1.767767 -1.767767 
C -2.236584 -1.29895 -2.5 -0.663008 -2.5 0 
C -2.5 0.663008 -2.236584 1.29895 -1.767767 1.767767 
C -1.29895 2.236584 -0.663008 2.5 0 2.5 
z
" id="C1_0_e1ecea22e4"/>
    </defs>
    <g clip-path="url(#pdb8eff7cf6)">
     <use x="150.419787" xlink:href="#C1_0_e1ecea22e4" y="157.530087"/>
    </g>
    <g clip-path="url(#pdb8eff7cf6)">
     <use x="145.892855" xlink:href="#C1_0_e1ecea22e4" y="187.732756"/>
    </g>
    <g clip-path="url(#pdb8eff7cf6)">
     <use x="153.985282" xlink:href="#C1_0_e1ecea22e4" y="150.88653"/>
    </g>
    <g clip-path="url(#pdb8eff7cf6)">
     <use x="155.102072" xlink:href="#C1_0_e1ecea22e4" y="101.925261"/>
    </g>
    <g clip-path="url(#pdb8eff7cf6)">
     <use x="151.491515" xlink:href="#C1_0_e1ecea22e4" y="158.417227"/>
    </g>
    <g clip-path="url(#pdb8eff7cf6)">
     <use x="144.338259" xlink:href="#C1_0_e1ecea22e4" y="184.35001"/>
    </g>
    <g clip-path="url(#pdb8eff7cf6)">
     <use x="155.36761" xlink:href="#C1_0_e1ecea22e4" y="126.415763"/>
    </g>
    <g clip-path="url(#pdb8eff7cf6)">
     <use x="154.506501" xlink:href="#C1_0_e1ecea22e4" y="170.395082"/>
    </g>
    <g clip-path="url(#pdb8eff7cf6)">
     <use x="156.927583" xlink:href="#C1_0_e1ecea22e4" y="131.725361"/>
    </g>
   </g>
   <g id="PathCollection_6">
    <defs>
     <path d="M 0 2.5 
C 0.663008 2.5 1.29895 2.236584 1.767767 1.767767 
C 2.236584 1.29895 2.5 0.663008 2.5 0 
C 2.5 -0.663008 2.236584 -1.29895 1.767767 -1.767767 
C 1.29895 -2.236584 0.663008 -2.5 0 -2.5 
C -0.663008 -2.5 -1.29895 -2.236584 -1.767767 -1.767767 
C -2.236584 -1.29895 -2.5 -0.663008 -2.5 0 
C -2.5 0.663008 -2.236584 1.29895 -1.767767 1.767767 
C -1.29895 2.236584 -0.663008 2.5 0 2.5 
z
" id="C2_0_8de54994d8"/>
    </defs>
    <g clip-path="url(#pdb8eff7cf6)">
     <use x="223.018681" xlink:href="#C2_0_8de54994d8" y="163.460119"/>
    </g>
    <g clip-path="url(#pdb8eff7cf6)">
     <use x="226.305132" xlink:href="#C2_0_8de54994d8" y="89.551039"/>
    </g>
    <g clip-path="url(#pdb8eff7cf6)">
     <use x="218.608881" xlink:href="#C2_0_8de54994d8" y="152.06361"/>
    </g>
    <g clip-path="url(#pdb8eff7cf6)">
     <use x="225.555649" xlink:href="#C2_0_8de54994d8" y="153.904675"/>
    </g>
    <g clip-path="url(#pdb8eff7cf6)">
     <use x="227.548704" xlink:href="#C2_0_8de54994d8" y="161.75918"/>
    </g>
    <g clip-path="url(#pdb8eff7cf6)">
     <use x="223.134405" xlink:href="#C2_0_8de54994d8" y="155.13021"/>
    </g>
    <g clip-path="url(#pdb8eff7cf6)">
     <use x="219.870233" xlink:href="#C2_0_8de54994d8" y="136.405401"/>
    </g>
    <g clip-path="url(#pdb8eff7cf6)">
     <use x="224.043" xlink:href="#C2_0_8de54994d8" y="151.355034"/>
    </g>
    <g clip-path="url(#pdb8eff7cf6)">
     <use x="215.534665" xlink:href="#C2_0_8de54994d8" y="171.760639"/>
    </g>
   </g>
   <g id="text_11">
    <text style="font-family:DejaVu Sans;font-size:8px;font-style:normal;font-weight:normal;text-anchor:middle;" transform="rotate(-0, 81.07013, 222.6075)" x="81.07013" y="222.6075">1.83</text>
   </g>
   <g id="text_12">
    <text style="font-family:DejaVu Sans;font-size:8px;font-style:normal;font-weight:normal;text-anchor:middle;" transform="rotate(-0, 151.2, 222.6075)" x="151.2" y="222.6075">2.62</text>
   </g>
   <g id="text_13">
    <text style="font-family:DejaVu Sans;font-size:8px;font-style:normal;font-weight:normal;text-anchor:middle;" transform="rotate(-0, 221.32987, 222.6075)" x="221.32987" y="222.6075">2.74</text>
   </g>
   <g id="text_14">
    <text style="font-family:DejaVu Sans;font-size:8px;font-style:normal;font-weight:normal;text-anchor:middle;" transform="rotate(-0, 81.07013, 222.6075)" x="81.07013" y="222.6075">1.83</text>
   </g>
   <g id="text_15">
    <text style="font-family:DejaVu Sans;font-size:8px;font-style:normal;font-weight:normal;text-anchor:middle;" transform="rotate(-0, 151.2, 222.6075)" x="151.2" y="222.6075">2.62</text>
   </g>
   <g id="text_16">
    <text style="font-family:DejaVu Sans;font-size:8px;font-style:normal;font-weight:normal;text-anchor:middle;" transform="rotate(-0, 221.32987, 222.6075)" x="221.32987" y="222.6075">2.74</text>
   </g>
   <g id="text_17">
    <text style="font-family:DejaVu Sans;font-size:8px;font-style:normal;font-weight:normal;text-anchor:middle;" transform="rotate(-0, 81.07013, 222.6075)" x="81.07013" y="222.6075">1.83</text>
   </g>
   <g id="text_18">
    <text style="font-family:DejaVu Sans;font-size:8px;font-style:normal;font-weight:normal;text-anchor:middle;" transform="rotate(-0, 151.2, 222.6075)" x="151.2" y="222.6075">2.62</text>
   </g>
   <g id="text_19">
    <text style="font-family:DejaVu Sans;font-size:8px;font-style:normal;font-weight:normal;text-anchor:middle;" transform="rotate(-0, 221.32987, 222.6075)" x="221.32987" y="222.6075">2.74</text>
   </g>
   <g id="text_20">
    <text style="font-family:DejaVu Sans;font-size:8px;font-style:normal;font-weight:normal;text-anchor:middle;" transform="rotate(-0, 81.07013, 222.6075)" x="81.07013" y="222.6075">1.83</text>
   </g>
   <g id="text_21">
    <text style="font-family:DejaVu Sans;font-size:8px;font-style:normal;font-weight:normal;text-anchor:middle;" transform="rotate(-0, 151.2, 222.6075)" x="151.2" y="222.6075">2.62</text>
   </g>
   <g id="text_22">
    <text style="font-family:DejaVu Sans;font-size:8px;font-style:normal;font-weight:normal;text-anchor:middle;" transform="rotate(-0, 221.32987, 222.6075)" x="221.32987" y="222.6075">2.74</text>
   </g>
   <g id="text_23">
    <text style="font-family:DejaVu Sans;font-size:8px;font-style:normal;font-weight:normal;text-anchor:middle;" transform="rotate(-0, 81.07013, 222.6075)" x="81.07013" y="222.6075">1.83</text>
   </g>
   <g id="text_24">
    <text style="font-family:DejaVu Sans;font-size:8px;font-style:normal;font-weight:normal;text-anchor:middle;" transform="rotate(-0, 151.2, 222.6075)" x="151.2" y="222.6075">2.62</text>
   </g>
   <g id="text_25">
    <text style="font-family:DejaVu Sans;font-size:8px;font-style:normal;font-weight:normal;text-anchor:middle;" transform="rotate(-0, 221.32987, 222.6075)" x="221.32987" y="222.6075">2.74</text>
   </g>
   <g id="text_26">
    <text style="font-family:DejaVu Sans;font-size:8px;font-style:normal;font-weight:normal;text-anchor:middle;" transform="rotate(-0, 81.07013, 222.6075)" x="81.07013" y="222.6075">1.83</text>
   </g>
   <g id="text_27">
    <text style="font-family:DejaVu Sans;font-size:8px;font-style:normal;font-weight:normal;text-anchor:middle;" transform="rotate(-0, 151.2, 222.6075)" x="151.2" y="222.6075">2.62</text>
   </g>
   <g id="text_28">
    <text style="font-family:DejaVu Sans;font-size:8px;font-style:normal;font-weight:normal;text-anchor:middle;" transform="rotate(-0, 221.32987, 222.6075)" x="221.32987" y="222.6075">2.74</text>
   </g>
   <g id="text_29">
    <text style="font-family:DejaVu Sans;font-size:8px;font-style:normal;font-weight:normal;text-anchor:middle;" transform="rotate(-0, 81.07013, 222.6075)" x="81.07013" y="222.6075">1.83</text>
   </g>
   <g id="text_30">
    <text style="font-family:DejaVu Sans;font-size:8px;font-style:normal;font-weight:normal;text-anchor:middle;" transform="rotate(-0, 151.2, 222.6075)" x="151.2" y="222.6075">2.62</text>
   </g>
   <g id="text_31">
    <text style="font-family:DejaVu Sans;font-size:8px;font-style:normal;font-weight:normal;text-anchor:middle;" transform="rotate(-0, 221.32987, 222.6075)" x="221.32987" y="222.6075">2.74</text>
   </g>
   <g id="text_32">
    <text style="font-family:DejaVu Sans;font-size:8px;font-style:normal;font-weight:normal;text-anchor:middle;" transform="rotate(-0, 81.07013, 222.6075)" x="81.07013" y="222.6075">1.83</text>
   </g>
   <g id="text_33">
    <text style="font-family:DejaVu Sans;font-size:8px;font-style:normal;font-weight:normal;text-anchor:middle;" transform="rotate(-0, 151.2, 222.6075)" x="151.2" y="222.6075">2.62</text>
   </g>
   <g id="text_34">
    <text style="font-family:DejaVu Sans;font-size:8px;font-style:normal;font-weight:normal;text-anchor:middle;" transform="rotate(-0, 221.32987, 222.6075)" x="221.32987" y="222.6075">2.74</text>
   </g>
   <g id="text_35">
    <text style="font-family:DejaVu Sans;font-size:8px;font-style:normal;font-weight:normal;text-anchor:middle;" transform="rotate(-0, 81.07013, 222.6075)" x="81.07013" y="222.6075">1.83</text>
   </g>
   <g id="text_36">
    <text style="font-family:DejaVu Sans;font-size:8px;font-style:normal;font-weight:normal;text-anchor:middle;" transform="rotate(-0, 151.2, 222.6075)" x="151.2" y="222.6075">2.62</text>
   </g>
   <g id="text_37">
    <text style="font-family:DejaVu Sans;font-size:8px;font-style:normal;font-weight:normal;text-anchor:middle;" transform="rotate(-0, 221.32987, 222.6075)" x="221.32987" y="222.6075">2.74</text>
   </g>
   <g id="text_38">
    <text style="font-family:DejaVu Sans;font-size:8px;font-style:normal;font-weight:normal;text-anchor:middle;" transform="rotate(-0, 81.07013, 222.6075)" x="81.07013" y="222.6075">1.83</text>
   </g>
   <g id="text_39">
    <text style="font-family:DejaVu Sans;font-size:8px;font-style:normal;font-weight:normal;text-anchor:middle;" transform="rotate(-0, 151.2, 222.6075)" x="151.2" y="222.6075">2.62</text>
   </g>
   <g id="text_40">
    <text style="font-family:DejaVu Sans;font-size:8px;font-style:normal;font-weight:normal;text-anchor:middle;" transform="rotate(-0, 221.32987, 222.6075)" x="221.32987" y="222.6075">2.74</text>
   </g>
   <g id="text_41">
    <text style="font-family:DejaVu Sans;font-size:8px;font-style:normal;font-weight:normal;text-anchor:middle;" transform="rotate(-0, 81.07013, 222.6075)" x="81.07013" y="222.6075">1.83</text>
   </g>
   <g id="text_42">
    <text style="font-family:DejaVu Sans;font-size:8px;font-style:normal;font-weight:normal;text-anchor:middle;" transform="rotate(-0, 151.2, 222.6075)" x="151.2" y="222.6075">2.62</text>
   </g>
   <g id="text_43">
    <text style="font-family:DejaVu Sans;font-size:8px;font-style:normal;font-weight:normal;text-anchor:middle;" transform="rotate(-0, 221.32987, 222.6075)" x="221.32987" y="222.6075">2.74</text>
   </g>
   <g id="text_44">
    <text style="font-family:DejaVu Sans;font-size:8px;font-style:normal;font-weight:normal;text-anchor:middle;" transform="rotate(-0, 81.07013, 222.6075)" x="81.07013" y="222.6075">1.83</text>
   </g>
   <g id="text_45">
    <text style="font-family:DejaVu Sans;font-size:8px;font-style:normal;font-weight:normal;text-anchor:middle;" transform="rotate(-0, 151.2, 222.6075)" x="151.2" y="222.6075">2.62</text>
   </g>
   <g id="text_46">
    <text style="font-family:DejaVu Sans;font-size:8px;font-style:normal;font-weight:normal;text-anchor:middle;" transform="rotate(-0, 221.32987, 222.6075)" x="221.32987" y="222.6075">2.74</text>
   </g>
   <g id="text_47">
    <text style="font-family:DejaVu Sans;font-size:8px;font-style:normal;font-weight:normal;text-anchor:middle;" transform="rotate(-0, 81.07013, 222.6075)" x="81.07013" y="222.6075">1.83</text>
   </g>
   <g id="text_48">
    <text style="font-family:DejaVu Sans;font-size:8px;font-style:normal;font-weight:normal;text-anchor:middle;" transform="rotate(-0, 151.2, 222.6075)" x="151.2" y="222.6075">2.62</text>
   </g>
   <g id="text_49">
    <text style="font-family:DejaVu Sans;font-size:8px;font-style:normal;font-weight:normal;text-anchor:middle;" transform="rotate(-0, 221.32987, 222.6075)" x="221.32987" y="222.6075">2.74</text>
   </g>
   <g id="text_50">
    <text style="font-family:DejaVu Sans;font-size:8px;font-style:normal;font-weight:normal;text-anchor:middle;" transform="rotate(-0, 81.07013, 222.6075)" x="81.07013" y="222.6075">1.83</text>
   </g>
   <g id="text_51">
    <text style="font-family:DejaVu Sans;font-size:8px;font-style:normal;font-weight:normal;text-anchor:middle;" transform="rotate(-0, 151.2, 222.6075)" x="151.2" y="222.6075">2.62</text>
   </g>
   <g id="text_52">
    <text style="font-family:DejaVu Sans;font-size:8px;font-style:normal;font-weight:normal;text-anchor:middle;" transform="rotate(-0, 221.32987, 222.6075)" x="221.32987" y="222.6075">2.74</text>
   </g>
   <g id="text_53">
    <text style="font-family:DejaVu Sans;font-size:8px;font-style:normal;font-weight:normal;text-anchor:middle;" transform="rotate(-0, 81.07013, 222.6075)" x="81.07013" y="222.6075">1.83</text>
   </g>
   <g id="text_54">
    <text style="font-family:DejaVu Sans;font-size:8px;font-style:normal;font-weight:normal;text-anchor:middle;" transform="rotate(-0, 151.2, 222.6075)" x="151.2" y="222.6075">2.62</text>
   </g>
   <g id="text_55">
    <text style="font-family:DejaVu Sans;font-size:8px;font-style:normal;font-weight:normal;text-anchor:middle;" transform="rotate(-0, 221.32987, 222.6075)" x="221.32987" y="222.6075">2.74</text>
   </g>
   <g id="text_56">
    <text style="font-family:DejaVu Sans;font-size:8px;font-style:normal;font-weight:normal;text-anchor:middle;" transform="rotate(-0, 81.07013, 222.6075)" x="81.07013" y="222.6075">1.83</text>
   </g>
   <g id="text_57">
    <text style="font-family:DejaVu Sans;font-size:8px;font-style:normal;font-weight:normal;text-anchor:middle;" transform="rotate(-0, 151.2, 222.6075)" x="151.2" y="222.6075">2.62</text>
   </g>
   <g id="text_58">
    <text style="font-family:DejaVu Sans;font-size:8px;font-style:normal;font-weight:normal;text-anchor:middle;" transform="rotate(-0, 221.32987, 222.6075)" x="221.32987" y="222.6075">2.74</text>
   </g>
   <g id="text_59">
    <text style="font-family:DejaVu Sans;font-size:8px;font-style:normal;font-weight:normal;text-anchor:middle;" transform="rotate(-0, 81.07013, 222.6075)" x="81.07013" y="222.6075">1.83</text>
   </g>
   <g id="text_60">
    <text style="font-family:DejaVu Sans;font-size:8px;font-style:normal;font-weight:normal;text-anchor:middle;" transform="rotate(-0, 151.2, 222.6075)" x="151.2" y="222.6075">2.62</text>
   </g>
   <g id="text_61">
    <text style="font-family:DejaVu Sans;font-size:8px;font-style:normal;font-weight:normal;text-anchor:middle;" transform="rotate(-0, 221.32987, 222.6075)" x="221.32987" y="222.6075">2.74</text>
   </g>
   <g id="text_62">
    <text style="font-family:DejaVu Sans;font-size:8px;font-style:normal;font-weight:normal;text-anchor:middle;" transform="rotate(-0, 81.07013, 222.6075)" x="81.07013" y="222.6075">1.83</text>
   </g>
   <g id="text_63">
    <text style="font-family:DejaVu Sans;font-size:8px;font-style:normal;font-weight:normal;text-anchor:middle;" transform="rotate(-0, 151.2, 222.6075)" x="151.2" y="222.6075">2.62</text>
   </g>
   <g id="text_64">
    <text style="font-family:DejaVu Sans;font-size:8px;font-style:normal;font-weight:normal;text-anchor:middle;" transform="rotate(-0, 221.32987, 222.6075)" x="221.32987" y="222.6075">2.74</text>
   </g>
   <g id="text_65">
    <text style="font-family:DejaVu Sans;font-size:8px;font-style:normal;font-weight:normal;text-anchor:middle;" transform="rotate(-0, 81.07013, 222.6075)" x="81.07013" y="222.6075">1.83</text>
   </g>
   <g id="text_66">
    <text style="font-family:DejaVu Sans;font-size:8px;font-style:normal;font-weight:normal;text-anchor:middle;" transform="rotate(-0, 151.2, 222.6075)" x="151.2" y="222.6075">2.62</text>
   </g>
   <g id="text_67">
    <text style="font-family:DejaVu Sans;font-size:8px;font-style:normal;font-weight:normal;text-anchor:middle;" transform="rotate(-0, 221.32987, 222.6075)" x="221.32987" y="222.6075">2.74</text>
   </g>
   <g id="text_68">
    <text style="font-family:DejaVu Sans;font-size:8px;font-style:normal;font-weight:normal;text-anchor:middle;" transform="rotate(-0, 81.07013, 222.6075)" x="81.07013" y="222.6075">1.83</text>
   </g>
   <g id="text_69">
    <text style="font-family:DejaVu Sans;font-size:8px;font-style:normal;font-weight:normal;text-anchor:middle;" transform="rotate(-0, 151.2, 222.6075)" x="151.2" y="222.6075">2.62</text>
   </g>
   <g id="text_70">
    <text style="font-family:DejaVu Sans;font-size:8px;font-style:normal;font-weight:normal;text-anchor:middle;" transform="rotate(-0, 221.32987, 222.6075)" x="221.32987" y="222.6075">2.74</text>
   </g>
   <g id="text_71">
    <text style="font-family:DejaVu Sans;font-size:8px;font-style:normal;font-weight:normal;text-anchor:middle;" transform="rotate(-0, 81.07013, 222.6075)" x="81.07013" y="222.6075">1.83</text>
   </g>
   <g id="text_72">
    <text style="font-family:DejaVu Sans;font-size:8px;font-style:normal;font-weight:normal;text-anchor:middle;" transform="rotate(-0, 151.2, 222.6075)" x="151.2" y="222.6075">2.62</text>
   </g>
   <g id="text_73">
    <text style="font-family:DejaVu Sans;font-size:8px;font-style:normal;font-weight:normal;text-anchor:middle;" transform="rotate(-0, 221.32987, 222.6075)" x="221.32987" y="222.6075">2.74</text>
   </g>
   <g id="text_74">
    <text style="font-family:DejaVu Sans;font-size:8px;font-style:normal;font-weight:normal;text-anchor:middle;" transform="rotate(-0, 81.07013, 222.6075)" x="81.07013" y="222.6075">1.83</text>
   </g>
   <g id="text_75">
    <text style="font-family:DejaVu Sans;font-size:8px;font-style:normal;font-weight:normal;text-anchor:middle;" transform="rotate(-0, 151.2, 222.6075)" x="151.2" y="222.6075">2.62</text>
   </g>
   <g id="text_76">
    <text style="font-family:DejaVu Sans;font-size:8px;font-style:normal;font-weight:normal;text-anchor:middle;" transform="rotate(-0, 221.32987, 222.6075)" x="221.32987" y="222.6075">2.74</text>
   </g>
   <g id="text_77">
    <text style="font-family:DejaVu Sans;font-size:8px;font-style:normal;font-weight:normal;text-anchor:middle;" transform="rotate(-0, 81.07013, 222.6075)" x="81.07013" y="222.6075">1.83</text>
   </g>
   <g id="text_78">
    <text style="font-family:DejaVu Sans;font-size:8px;font-style:normal;font-weight:normal;text-anchor:middle;" transform="rotate(-0, 151.2, 222.6075)" x="151.2" y="222.6075">2.62</text>
   </g>
   <g id="text_79">
    <text style="font-family:DejaVu Sans;font-size:8px;font-style:normal;font-weight:normal;text-anchor:middle;" transform="rotate(-0, 221.32987, 222.6075)" x="221.32987" y="222.6075">2.74</text>
   </g>
   <g id="text_80">
    <text style="font-family:DejaVu Sans;font-size:8px;font-style:normal;font-weight:normal;text-anchor:middle;" transform="rotate(-0, 81.07013, 222.6075)" x="81.07013" y="222.6075">1.83</text>
   </g>
   <g id="text_81">
    <text style="font-family:DejaVu Sans;font-size:8px;font-style:normal;font-weight:normal;text-anchor:middle;" transform="rotate(-0, 151.2, 222.6075)" x="151.2" y="222.6075">2.62</text>
   </g>
   <g id="text_82">
    <text style="font-family:DejaVu Sans;font-size:8px;font-style:normal;font-weight:normal;text-anchor:middle;" transform="rotate(-0, 221.32987, 222.6075)" x="221.32987" y="222.6075">2.74</text>
   </g>
   <g id="text_83">
    <text style="font-family:DejaVu Sans;font-size:8px;font-style:normal;font-weight:normal;text-anchor:middle;" transform="rotate(-0, 81.07013, 222.6075)" x="81.07013" y="222.6075">1.83</text>
   </g>
   <g id="text_84">
    <text style="font-family:DejaVu Sans;font-size:8px;font-style:normal;font-weight:normal;text-anchor:middle;" transform="rotate(-0, 151.2, 222.6075)" x="151.2" y="222.6075">2.62</text>
   </g>
   <g id="text_85">
    <text style="font-family:DejaVu Sans;font-size:8px;font-style:normal;font-weight:normal;text-anchor:middle;" transform="rotate(-0, 221.32987, 222.6075)" x="221.32987" y="222.6075">2.74</text>
   </g>
   <g id="text_86">
    <text style="font-family:DejaVu Sans;font-size:8px;font-style:normal;font-weight:normal;text-anchor:middle;" transform="rotate(-0, 81.07013, 222.6075)" x="81.07013" y="222.6075">1.83</text>
   </g>
   <g id="text_87">
    <text style="font-family:DejaVu Sans;font-size:8px;font-style:normal;font-weight:normal;text-anchor:middle;" transform="rotate(-0, 151.2, 222.6075)" x="151.2" y="222.6075">2.62</text>
   </g>
   <g id="text_88">
    <text style="font-family:DejaVu Sans;font-size:8px;font-style:normal;font-weight:normal;text-anchor:middle;" transform="rotate(-0, 221.32987, 222.6075)" x="221.32987" y="222.6075">2.74</text>
   </g>
   <g id="text_89">
    <text style="font-family:DejaVu Sans;font-size:8px;font-style:normal;font-weight:normal;text-anchor:middle;" transform="rotate(-0, 81.07013, 222.6075)" x="81.07013" y="222.6075">1.83</text>
   </g>
   <g id="text_90">
    <text style="font-family:DejaVu Sans;font-size:8px;font-style:normal;font-weight:normal;text-anchor:middle;" transform="rotate(-0, 151.2, 222.6075)" x="151.2" y="222.6075">2.62</text>
   </g>
   <g id="text_91">
    <text style="font-family:DejaVu Sans;font-size:8px;font-style:normal;font-weight:normal;text-anchor:middle;" transform="rotate(-0, 221.32987, 222.6075)" x="221.32987" y="222.6075">2.74</text>
   </g>
   <g id="text_92">
    <text style="font-family:DejaVu Sans;font-size:10px;font-style:normal;font-weight:normal;text-anchor:start;" transform="rotate(-0, 116.135065, 78.919481)" x="116.135065" y="78.919481">*</text>
   </g>
   <g id="text_93">
    <text style="font-family:DejaVu Sans;font-size:10px;font-style:normal;font-weight:normal;text-anchor:start;" transform="rotate(-0, 151.2, 63.958442)" x="151.2" y="63.958442">**</text>
   </g>
   <g id="legend_1">
    <g id="patch_7">
     <path d="M 171.849375 54.6 
L 255 54.6 
Q 256.2 54.6 256.2 53.4 
L 256.2 27.579375 
Q 256.2 26.379375 255 26.379375 
L 171.849375 26.379375 
Q 170.649375 26.379375 170.649375 27.579375 
L 170.649375 53.4 
Q 170.649375 54.6 171.849375 54.6 
z
" style="fill:#ffffff;opacity:0.8;stroke:#cccccc;stroke-linejoin:miter;"/>
    </g>
    <g id="line2d_15">
     <path d="M 173.049375 31.238437 
L 185.049375 31.238437 
" style="fill:none;stroke:#000000;stroke-linecap:square;"/>
    </g>
    <g id="line2d_16">
     <defs>
      <path d="M 5 0 
L -5 -0 
" id="md729a4c772" style="stroke:#000000;"/>
     </defs>
     <g>
      <use style="stroke:#000000;" x="179.049375" xlink:href="#md729a4c772" y="31.238437"/>
     </g>
    </g>
    <g id="text_94">
     <text style="font-family:DejaVu Sans;font-size:6px;font-style:normal;font-weight:normal;text-anchor:start;" transform="rotate(-0, 189.849375, 33.338437)" x="189.849375" y="33.338437">V1 (n=7 rats, 9 fovs)</text>
    </g>
    <g id="line2d_17">
     <path d="M 173.049375 40.045312 
L 185.049375 40.045312 
" style="fill:none;stroke:#000000;stroke-linecap:square;"/>
    </g>
    <g id="line2d_18">
     <g>
      <use style="stroke:#000000;" x="179.049375" xlink:href="#md729a4c772" y="40.045312"/>
     </g>
    </g>
    <g id="text_95">
     <text style="font-family:DejaVu Sans;font-size:6px;font-style:normal;font-weight:normal;text-anchor:start;" transform="rotate(-0, 189.849375, 42.145312)" x="189.849375" y="42.145312">Lm (n=7 rats, 9 fovs)</text>
    </g>
    <g id="line2d_19">
     <path d="M 173.049375 48.852188 
L 185.049375 48.852188 
" style="fill:none;stroke:#000000;stroke-linecap:square;"/>
    </g>
    <g id="line2d_20">
     <g>
      <use style="stroke:#000000;" x="179.049375" xlink:href="#md729a4c772" y="48.852188"/>
     </g>
    </g>
    <g id="text_96">
     <text style="font-family:DejaVu Sans;font-size:6px;font-style:normal;font-weight:normal;text-anchor:start;" transform="rotate(-0, 189.849375, 50.952188)" x="189.849375" y="50.952188">Li (n=6 rats, 9 fovs)</text>
    </g>
   </g>
  </g>
  <g id="text_97">
   <text style="font-family:DejaVu Sans;font-size:8px;font-style:normal;font-weight:normal;text-anchor:start;" transform="rotate(-0, 0, 28.8)" x="0" y="28.8">Ratio of EL to AZ, cortical mag.</text>
  </g>
  <g id="text_98">
   <text style="font-family:DejaVu Sans;font-size:8px;font-style:normal;font-weight:normal;" transform="translate(0 6.07875)">retinobar_pixels-thr-0.002</text>
   <text style="font-family:DejaVu Sans;font-size:8px;font-style:normal;font-weight:normal;" transform="translate(0 15.3015)">drop_repeats|gradient R2&gt;0.50</text>
  </g>
 </g>
 <defs>
  <clipPath id="pdb8eff7cf6">
   <rect height="172.8" width="216" x="43.2" y="57.6"/>
  </clipPath>
 </defs>
</svg>
