<?xml version="1.0" encoding="utf-8" standalone="no"?>
<!DOCTYPE svg PUBLIC "-//W3C//DTD SVG 1.1//EN"
  "http://www.w3.org/Graphics/SVG/1.1/DTD/svg11.dtd">
<!-- Created with matplotlib (https://matplotlib.org/) -->
<svg height="576pt" version="1.1" viewBox="0 0 576 576" width="576pt" xmlns="http://www.w3.org/2000/svg" xmlns:xlink="http://www.w3.org/1999/xlink">
 <metadata>
  <rdf:RDF xmlns:cc="http://creativecommons.org/ns#" xmlns:dc="http://purl.org/dc/elements/1.1/" xmlns:rdf="http://www.w3.org/1999/02/22-rdf-syntax-ns#">
   <cc:Work>
    <dc:type rdf:resource="http://purl.org/dc/dcmitype/StillImage"/>
    <dc:date>2021-05-10T19:33:56.265359</dc:date>
    <dc:format>image/svg+xml</dc:format>
    <dc:creator>
     <cc:Agent>
      <dc:title>Matplotlib v3.3.4, https://matplotlib.org/</dc:title>
     </cc:Agent>
    </dc:creator>
   </cc:Work>
  </rdf:RDF>
 </metadata>
 <defs>
  <style type="text/css">*{stroke-linecap:butt;stroke-linejoin:round;}</style>
 </defs>
 <g id="figure_1">
  <g id="axes_1">
   <g id="patch_1">
    <path d="M 30.644321 164.571429 
L 118.321196 164.571429 
L 118.321196 115.2 
L 30.644321 115.2 
z
" style="fill:#b2b2b2;"/>
   </g>
   <g id="patch_2">
    <path clip-path="url(#pd61db72f26)" d="M 34.148422 161.886262 
L 114.817096 161.886262 
L 114.817096 117.885167 
L 34.148422 117.885167 
z
" style="fill:none;stroke:#000000;stroke-linejoin:miter;stroke-width:0.5;"/>
   </g>
   <g id="patch_3">
    <path clip-path="url(#pd61db72f26)" d="M 83.388943 147.698089 
C 85.078178 145.930461 86.095096 143.658392 86.215731 141.382281 
C 86.336367 139.10617 85.550873 137.01185 84.032243 135.560572 
C 82.513613 134.109293 80.385838 133.419546 78.117536 133.643239 
C 75.849233 133.866933 73.6256 134.985803 71.936365 136.753431 
C 70.247131 138.52106 69.230213 140.793128 69.109577 143.06924 
C 68.988941 145.345351 69.774436 147.43967 71.293066 148.890949 
C 72.811695 150.342228 74.93947 151.031975 77.207773 150.808281 
C 79.476075 150.584588 81.699709 149.465718 83.388943 147.698089 
z
" style="fill:none;stroke:#ff0000;stroke-linejoin:miter;"/>
   </g>
   <g id="patch_4">
    <path clip-path="url(#pd61db72f26)" d="M 34.148422 161.886262 
L 114.817096 161.886262 
L 114.817096 117.885167 
L 34.148422 117.885167 
z
" style="fill:none;stroke:#000000;stroke-linejoin:miter;stroke-width:0.5;"/>
   </g>
   <g id="patch_5">
    <path clip-path="url(#pd61db72f26)" d="M 86.329625 150.298386 
C 88.598106 147.924629 89.967831 144.877378 90.137135 141.827755 
C 90.306439 138.778132 89.261498 135.975125 87.232448 134.036064 
C 85.203399 132.097003 82.355904 131.180203 79.317091 131.487579 
C 76.278278 131.794955 73.296253 133.301411 71.027772 135.675167 
C 68.759291 138.048924 67.389566 141.096175 67.220262 144.145798 
C 67.050958 147.195421 68.095899 149.998428 70.124949 151.937489 
C 72.153998 153.87655 75.001493 154.79335 78.040306 154.485974 
C 81.079119 154.178598 84.061144 152.672142 86.329625 150.298386 
z
" style="fill:none;stroke:#0000ff;stroke-linejoin:miter;"/>
   </g>
   <g id="matplotlib.axis_1"/>
   <g id="matplotlib.axis_2"/>
   <g id="patch_6">
    <path d="M 30.644321 164.571429 
L 30.644321 115.2 
" style="fill:none;stroke:#000000;stroke-linecap:square;stroke-linejoin:miter;stroke-width:0.25;"/>
   </g>
   <g id="patch_7">
    <path d="M 118.321196 164.571429 
L 118.321196 115.2 
" style="fill:none;stroke:#000000;stroke-linecap:square;stroke-linejoin:miter;stroke-width:0.25;"/>
   </g>
   <g id="patch_8">
    <path d="M 30.644321 164.571429 
L 118.321196 164.571429 
" style="fill:none;stroke:#000000;stroke-linecap:square;stroke-linejoin:miter;stroke-width:0.25;"/>
   </g>
   <g id="patch_9">
    <path d="M 30.644321 115.2 
L 118.321196 115.2 
" style="fill:none;stroke:#000000;stroke-linecap:square;stroke-linejoin:miter;stroke-width:0.25;"/>
   </g>
   <g id="text_1">
    <text style="font-family:DejaVu Sans;font-size:4px;font-stretch:normal;font-style:normal;font-weight:normal;text-anchor:start;" transform="rotate(-0, 30.644321, 109.2)" x="30.644321" y="109.2">248</text>
   </g>
  </g>
  <g id="axes_2">
   <g id="patch_10">
    <path d="M 140.282942 164.571429 
L 227.959817 164.571429 
L 227.959817 115.2 
L 140.282942 115.2 
z
" style="fill:#b2b2b2;"/>
   </g>
   <g id="patch_11">
    <path clip-path="url(#pa7a1fb3107)" d="M 143.787042 161.886262 
L 224.455716 161.886262 
L 224.455716 117.885167 
L 143.787042 117.885167 
z
" style="fill:none;stroke:#000000;stroke-linejoin:miter;stroke-width:0.5;"/>
   </g>
   <g id="patch_12">
    <path clip-path="url(#pa7a1fb3107)" d="M 183.585189 143.602422 
C 186.073636 144.211152 188.661109 143.974946 190.777747 142.945825 
C 192.894386 141.916705 194.367376 140.178692 194.872308 138.114565 
C 195.377241 136.050438 194.87289 133.828723 193.470333 131.938727 
C 192.067777 130.048731 189.881528 128.644765 187.393081 128.036034 
C 184.904634 127.427304 182.317161 127.66351 180.200523 128.69263 
C 178.083884 129.721751 176.610894 131.459764 176.105962 133.523891 
C 175.601029 135.588018 176.10538 137.809733 177.507937 139.699728 
C 178.910493 141.589724 181.096743 142.993691 183.585189 143.602422 
z
" style="fill:none;stroke:#ff0000;stroke-linejoin:miter;"/>
   </g>
   <g id="patch_13">
    <path clip-path="url(#pa7a1fb3107)" d="M 143.787042 161.886262 
L 224.455716 161.886262 
L 224.455716 117.885167 
L 143.787042 117.885167 
z
" style="fill:none;stroke:#000000;stroke-linejoin:miter;stroke-width:0.5;"/>
   </g>
   <g id="patch_14">
    <path clip-path="url(#pa7a1fb3107)" d="M 183.35183 144.587179 
C 186.703721 145.407128 190.184377 145.107855 193.027224 143.755274 
C 195.870071 142.402692 197.843003 140.107233 198.511505 137.374445 
C 199.180007 134.641657 198.489499 131.69466 196.592056 129.182495 
C 194.694614 126.670331 191.745155 124.798107 188.393264 123.978158 
C 185.041373 123.15821 181.560717 123.457482 178.71787 124.810064 
C 175.875023 126.162645 173.90209 128.458104 173.233588 131.190893 
C 172.565086 133.923681 173.255595 136.870678 175.153038 139.382842 
C 177.05048 141.895006 179.999939 143.76723 183.35183 144.587179 
z
" style="fill:none;stroke:#0000ff;stroke-linejoin:miter;"/>
   </g>
   <g id="matplotlib.axis_3"/>
   <g id="matplotlib.axis_4"/>
   <g id="patch_15">
    <path d="M 140.282942 164.571429 
L 140.282942 115.2 
" style="fill:none;stroke:#000000;stroke-linecap:square;stroke-linejoin:miter;stroke-width:0.25;"/>
   </g>
   <g id="patch_16">
    <path d="M 227.959817 164.571429 
L 227.959817 115.2 
" style="fill:none;stroke:#000000;stroke-linecap:square;stroke-linejoin:miter;stroke-width:0.25;"/>
   </g>
   <g id="patch_17">
    <path d="M 140.282942 164.571429 
L 227.959817 164.571429 
" style="fill:none;stroke:#000000;stroke-linecap:square;stroke-linejoin:miter;stroke-width:0.25;"/>
   </g>
   <g id="patch_18">
    <path d="M 140.282942 115.2 
L 227.959817 115.2 
" style="fill:none;stroke:#000000;stroke-linecap:square;stroke-linejoin:miter;stroke-width:0.25;"/>
   </g>
   <g id="text_2">
    <text style="font-family:DejaVu Sans;font-size:4px;font-stretch:normal;font-style:normal;font-weight:normal;text-anchor:start;" transform="rotate(-0, 140.282942, 109.2)" x="140.282942" y="109.2">234</text>
   </g>
  </g>
  <g id="axes_3">
   <g id="patch_19">
    <path d="M 249.921562 164.571429 
L 337.598438 164.571429 
L 337.598438 115.2 
L 249.921562 115.2 
z
" style="fill:#b2b2b2;"/>
   </g>
   <g id="patch_20">
    <path clip-path="url(#p20b9e03019)" d="M 253.425663 161.886262 
L 334.094337 161.886262 
L 334.094337 117.885167 
L 253.425663 117.885167 
z
" style="fill:none;stroke:#000000;stroke-linejoin:miter;stroke-width:0.5;"/>
   </g>
   <g id="patch_21">
    <path clip-path="url(#p20b9e03019)" d="M 321.28501 163.600338 
C 325.013224 164.182902 328.751848 163.701054 331.677495 162.260916 
C 334.603141 160.820779 336.476944 158.539932 336.88622 155.920706 
C 337.295495 153.301479 336.206828 150.557722 333.859985 148.293715 
C 331.513142 146.029707 328.099731 144.430295 324.371518 143.847731 
C 320.643304 143.265167 316.90468 143.747015 313.979033 145.187152 
C 311.053386 146.62729 309.179584 148.908137 308.770308 151.527363 
C 308.361032 154.146589 309.449699 156.890347 311.796543 159.154354 
C 314.143386 161.418362 317.556797 163.017774 321.28501 163.600338 
z
" style="fill:none;stroke:#ff0000;stroke-linejoin:miter;"/>
   </g>
   <g id="patch_22">
    <path clip-path="url(#p20b9e03019)" d="M 253.425663 161.886262 
L 334.094337 161.886262 
L 334.094337 117.885167 
L 253.425663 117.885167 
z
" style="fill:none;stroke:#000000;stroke-linejoin:miter;stroke-width:0.5;"/>
   </g>
   <g id="patch_23">
    <path clip-path="url(#p20b9e03019)" d="M 324.188993 162.238244 
C 326.87386 162.657777 329.59997 162.094816 331.766928 160.673348 
C 333.933887 159.25188 335.364772 157.087961 335.744447 154.658169 
C 336.124122 152.228377 335.421588 149.731094 333.791571 147.716317 
C 332.161554 145.701541 329.737137 144.333768 327.05227 143.914235 
C 324.367402 143.494703 321.641292 144.057663 319.474334 145.479131 
C 317.307375 146.900599 315.876491 149.064518 315.496816 151.49431 
C 315.117141 153.924102 315.819674 156.421386 317.449691 158.436162 
C 319.079708 160.450939 321.504125 161.818712 324.188993 162.238244 
z
" style="fill:none;stroke:#0000ff;stroke-linejoin:miter;"/>
   </g>
   <g id="matplotlib.axis_5"/>
   <g id="matplotlib.axis_6"/>
   <g id="patch_24">
    <path d="M 249.921562 164.571429 
L 249.921562 115.2 
" style="fill:none;stroke:#000000;stroke-linecap:square;stroke-linejoin:miter;stroke-width:0.25;"/>
   </g>
   <g id="patch_25">
    <path d="M 337.598438 164.571429 
L 337.598438 115.2 
" style="fill:none;stroke:#000000;stroke-linecap:square;stroke-linejoin:miter;stroke-width:0.25;"/>
   </g>
   <g id="patch_26">
    <path d="M 249.921562 164.571429 
L 337.598438 164.571429 
" style="fill:none;stroke:#000000;stroke-linecap:square;stroke-linejoin:miter;stroke-width:0.25;"/>
   </g>
   <g id="patch_27">
    <path d="M 249.921562 115.2 
L 337.598438 115.2 
" style="fill:none;stroke:#000000;stroke-linecap:square;stroke-linejoin:miter;stroke-width:0.25;"/>
   </g>
   <g id="text_3">
    <text style="font-family:DejaVu Sans;font-size:4px;font-stretch:normal;font-style:normal;font-weight:normal;text-anchor:start;" transform="rotate(-0, 249.921562, 109.2)" x="249.921562" y="109.2">343</text>
   </g>
  </g>
  <g id="axes_4">
   <g id="patch_28">
    <path d="M 359.560183 164.571429 
L 447.237058 164.571429 
L 447.237058 115.2 
L 359.560183 115.2 
z
" style="fill:#b2b2b2;"/>
   </g>
   <g id="patch_29">
    <path clip-path="url(#pce4a9ccded)" d="M 363.064284 161.886262 
L 443.732958 161.886262 
L 443.732958 117.885167 
L 363.064284 117.885167 
z
" style="fill:none;stroke:#000000;stroke-linejoin:miter;stroke-width:0.5;"/>
   </g>
   <g id="patch_30">
    <path clip-path="url(#pce4a9ccded)" d="M 400.815039 153.216341 
C 402.019374 151.190961 401.80701 148.435097 400.224718 145.555697 
C 398.642426 142.676297 395.819393 139.90845 392.37736 137.861742 
C 388.935327 135.815035 385.15532 134.656572 381.869842 134.641491 
C 378.584364 134.626411 376.061659 135.755943 374.857324 137.781323 
C 373.65299 139.806703 373.865354 142.562567 375.447646 145.441967 
C 377.029938 148.321368 379.85297 151.089215 383.295003 153.135922 
C 386.737037 155.182629 390.517044 156.341092 393.802522 156.356173 
C 397.088 156.371254 399.610704 155.241721 400.815039 153.216341 
z
" style="fill:none;stroke:#ff0000;stroke-linejoin:miter;"/>
   </g>
   <g id="patch_31">
    <path clip-path="url(#pce4a9ccded)" d="M 363.064284 161.886262 
L 443.732958 161.886262 
L 443.732958 117.885167 
L 363.064284 117.885167 
z
" style="fill:none;stroke:#000000;stroke-linejoin:miter;stroke-width:0.5;"/>
   </g>
   <g id="patch_32">
    <path clip-path="url(#pce4a9ccded)" d="M 398.641039 155.400409 
C 399.963987 153.175553 399.651217 150.101003 397.771614 146.853893 
C 395.892011 143.606782 392.599036 140.452223 388.617929 138.084971 
C 384.636822 135.717719 380.292622 134.331049 376.542089 134.230359 
C 372.791557 134.129669 369.940905 135.323181 368.617958 137.548037 
C 367.295011 139.772892 367.607781 142.847442 369.487384 146.094553 
C 371.366986 149.341664 374.659961 152.496222 378.641068 154.863475 
C 382.622175 157.230727 386.966375 158.617397 390.716908 158.718087 
C 394.467441 158.818776 397.318092 157.625265 398.641039 155.400409 
z
" style="fill:none;stroke:#0000ff;stroke-linejoin:miter;"/>
   </g>
   <g id="matplotlib.axis_7"/>
   <g id="matplotlib.axis_8"/>
   <g id="patch_33">
    <path d="M 359.560183 164.571429 
L 359.560183 115.2 
" style="fill:none;stroke:#000000;stroke-linecap:square;stroke-linejoin:miter;stroke-width:0.25;"/>
   </g>
   <g id="patch_34">
    <path d="M 447.237058 164.571429 
L 447.237058 115.2 
" style="fill:none;stroke:#000000;stroke-linecap:square;stroke-linejoin:miter;stroke-width:0.25;"/>
   </g>
   <g id="patch_35">
    <path d="M 359.560183 164.571429 
L 447.237058 164.571429 
" style="fill:none;stroke:#000000;stroke-linecap:square;stroke-linejoin:miter;stroke-width:0.25;"/>
   </g>
   <g id="patch_36">
    <path d="M 359.560183 115.2 
L 447.237058 115.2 
" style="fill:none;stroke:#000000;stroke-linecap:square;stroke-linejoin:miter;stroke-width:0.25;"/>
   </g>
   <g id="text_4">
    <text style="font-family:DejaVu Sans;font-size:4px;font-stretch:normal;font-style:normal;font-weight:normal;text-anchor:start;" transform="rotate(-0, 359.560183, 109.2)" x="359.560183" y="109.2">211</text>
   </g>
  </g>
  <g id="axes_5">
   <g id="patch_37">
    <path d="M 469.198804 164.571429 
L 556.875679 164.571429 
L 556.875679 115.2 
L 469.198804 115.2 
z
" style="fill:#b2b2b2;"/>
   </g>
   <g id="patch_38">
    <path clip-path="url(#p71e6edda55)" d="M 472.702904 161.886262 
L 553.371578 161.886262 
L 553.371578 117.885167 
L 472.702904 117.885167 
z
" style="fill:none;stroke:#000000;stroke-linejoin:miter;stroke-width:0.5;"/>
   </g>
   <g id="patch_39">
    <path clip-path="url(#p71e6edda55)" d="M 483.071035 130.810419 
C 486.342684 134.093424 490.659488 136.067771 495.070721 136.298634 
C 499.481954 136.529497 503.627459 134.998027 506.594236 132.041512 
C 509.561012 129.084997 511.106837 124.944824 510.89126 120.532817 
C 510.675682 116.120811 508.716304 111.797192 505.444655 108.514187 
C 502.173006 105.231183 497.856202 103.256835 493.444969 103.025972 
C 489.033736 102.795109 484.888231 104.32658 481.921454 107.283095 
C 478.954678 110.239609 477.408853 114.379783 477.624431 118.791789 
C 477.840008 123.203796 479.799386 127.527415 483.071035 130.810419 
z
" style="fill:none;stroke:#ff0000;stroke-linejoin:miter;"/>
   </g>
   <g id="patch_40">
    <path clip-path="url(#p71e6edda55)" d="M 472.702904 161.886262 
L 553.371578 161.886262 
L 553.371578 117.885167 
L 472.702904 117.885167 
z
" style="fill:none;stroke:#000000;stroke-linejoin:miter;stroke-width:0.5;"/>
   </g>
   <g id="patch_41">
    <path clip-path="url(#p71e6edda55)" d="M 0 -1 
z
" style="fill:none;stroke:#0000ff;stroke-linejoin:miter;"/>
   </g>
   <g id="matplotlib.axis_9"/>
   <g id="matplotlib.axis_10"/>
   <g id="patch_42">
    <path d="M 469.198804 164.571429 
L 469.198804 115.2 
" style="fill:none;stroke:#000000;stroke-linecap:square;stroke-linejoin:miter;stroke-width:0.25;"/>
   </g>
   <g id="patch_43">
    <path d="M 556.875679 164.571429 
L 556.875679 115.2 
" style="fill:none;stroke:#000000;stroke-linecap:square;stroke-linejoin:miter;stroke-width:0.25;"/>
   </g>
   <g id="patch_44">
    <path d="M 469.198804 164.571429 
L 556.875679 164.571429 
" style="fill:none;stroke:#000000;stroke-linecap:square;stroke-linejoin:miter;stroke-width:0.25;"/>
   </g>
   <g id="patch_45">
    <path d="M 469.198804 115.2 
L 556.875679 115.2 
" style="fill:none;stroke:#000000;stroke-linecap:square;stroke-linejoin:miter;stroke-width:0.25;"/>
   </g>
   <g id="text_5">
    <text style="font-family:DejaVu Sans;font-size:4px;font-stretch:normal;font-style:normal;font-weight:normal;text-anchor:start;" transform="rotate(-0, 469.198804, 109.2)" x="469.198804" y="109.2">227</text>
   </g>
  </g>
  <g id="axes_6">
   <g id="patch_46">
    <path d="M 30.644321 223.817143 
L 118.321196 223.817143 
L 118.321196 174.445714 
L 30.644321 174.445714 
z
" style="fill:#b2b2b2;"/>
   </g>
   <g id="patch_47">
    <path clip-path="url(#p2421e4416f)" d="M 34.148422 221.131976 
L 114.817096 221.131976 
L 114.817096 177.130881 
L 34.148422 177.130881 
z
" style="fill:none;stroke:#000000;stroke-linejoin:miter;stroke-width:0.5;"/>
   </g>
   <g id="patch_48">
    <path clip-path="url(#p2421e4416f)" d="M 77.067905 222.972529 
C 80.000717 221.865955 82.437221 219.806477 83.840805 217.24767 
C 85.244388 214.688863 85.500455 211.839642 84.55261 209.327515 
C 83.604765 206.815389 81.530395 204.84546 78.786355 203.851584 
C 76.042316 202.857708 72.852647 202.921029 69.919834 204.027602 
C 66.987022 205.134176 64.550518 207.193654 63.146935 209.752461 
C 61.743351 212.311268 61.487284 215.160489 62.435129 217.672616 
C 63.382974 220.184742 65.457344 222.154671 68.201384 223.148547 
C 70.945423 224.142423 74.135093 224.079102 77.067905 222.972529 
z
" style="fill:none;stroke:#ff0000;stroke-linejoin:miter;"/>
   </g>
   <g id="patch_49">
    <path clip-path="url(#p2421e4416f)" d="M 34.148422 221.131976 
L 114.817096 221.131976 
L 114.817096 177.130881 
L 34.148422 177.130881 
z
" style="fill:none;stroke:#000000;stroke-linejoin:miter;stroke-width:0.5;"/>
   </g>
   <g id="patch_50">
    <path clip-path="url(#p2421e4416f)" d="M 0 -1 
z
" style="fill:none;stroke:#0000ff;stroke-linejoin:miter;"/>
   </g>
   <g id="matplotlib.axis_11"/>
   <g id="matplotlib.axis_12"/>
   <g id="patch_51">
    <path d="M 30.644321 223.817143 
L 30.644321 174.445714 
" style="fill:none;stroke:#000000;stroke-linecap:square;stroke-linejoin:miter;stroke-width:0.25;"/>
   </g>
   <g id="patch_52">
    <path d="M 118.321196 223.817143 
L 118.321196 174.445714 
" style="fill:none;stroke:#000000;stroke-linecap:square;stroke-linejoin:miter;stroke-width:0.25;"/>
   </g>
   <g id="patch_53">
    <path d="M 30.644321 223.817143 
L 118.321196 223.817143 
" style="fill:none;stroke:#000000;stroke-linecap:square;stroke-linejoin:miter;stroke-width:0.25;"/>
   </g>
   <g id="patch_54">
    <path d="M 30.644321 174.445714 
L 118.321196 174.445714 
" style="fill:none;stroke:#000000;stroke-linecap:square;stroke-linejoin:miter;stroke-width:0.25;"/>
   </g>
   <g id="text_6">
    <text style="font-family:DejaVu Sans;font-size:4px;font-stretch:normal;font-style:normal;font-weight:normal;text-anchor:start;" transform="rotate(-0, 30.644321, 168.445714)" x="30.644321" y="168.445714">316</text>
   </g>
  </g>
  <g id="axes_7">
   <g id="patch_55">
    <path d="M 140.282942 223.817143 
L 227.959817 223.817143 
L 227.959817 174.445714 
L 140.282942 174.445714 
z
" style="fill:#b2b2b2;"/>
   </g>
   <g id="patch_56">
    <path clip-path="url(#p0f3a5e6389)" d="M 143.787042 221.131976 
L 224.455716 221.131976 
L 224.455716 177.130881 
L 143.787042 177.130881 
z
" style="fill:none;stroke:#000000;stroke-linejoin:miter;stroke-width:0.5;"/>
   </g>
   <g id="patch_57">
    <path clip-path="url(#p0f3a5e6389)" d="M 198.21653 220.510669 
C 202.070455 219.578152 205.545629 217.7686 207.876685 215.480546 
C 210.20774 213.192492 211.204358 210.612745 210.647043 208.309464 
C 210.089729 206.006184 208.023985 204.167422 204.904768 203.198146 
C 201.78555 202.22887 197.86753 202.208216 194.013605 203.140733 
C 190.159679 204.073249 186.684505 205.882801 184.35345 208.170856 
C 182.022394 210.45891 181.025776 213.038657 181.583091 215.341938 
C 182.140405 217.645218 184.206149 219.48398 187.325367 220.453256 
C 190.444584 221.422532 194.362605 221.443186 198.21653 220.510669 
z
" style="fill:none;stroke:#ff0000;stroke-linejoin:miter;"/>
   </g>
   <g id="patch_58">
    <path clip-path="url(#p0f3a5e6389)" d="M 143.787042 221.131976 
L 224.455716 221.131976 
L 224.455716 177.130881 
L 143.787042 177.130881 
z
" style="fill:none;stroke:#000000;stroke-linejoin:miter;stroke-width:0.5;"/>
   </g>
   <g id="patch_59">
    <path clip-path="url(#p0f3a5e6389)" d="M 201.814159 223.584343 
C 206.461338 222.459886 210.683926 220.410613 213.551947 217.887853 
C 216.419967 215.365092 217.699259 212.574817 217.108073 210.131552 
C 216.516888 207.688287 214.103492 205.791514 210.399408 204.858976 
C 206.695325 203.926438 202.002976 204.034272 197.355796 205.158729 
C 192.708617 206.283186 188.486029 208.332459 185.618009 210.85522 
C 182.749988 213.37798 181.470696 216.168256 182.061882 218.611521 
C 182.653068 221.054786 185.066464 222.951558 188.770547 223.884096 
C 192.474631 224.816634 197.16698 224.7088 201.814159 223.584343 
z
" style="fill:none;stroke:#0000ff;stroke-linejoin:miter;"/>
   </g>
   <g id="matplotlib.axis_13"/>
   <g id="matplotlib.axis_14"/>
   <g id="patch_60">
    <path d="M 140.282942 223.817143 
L 140.282942 174.445714 
" style="fill:none;stroke:#000000;stroke-linecap:square;stroke-linejoin:miter;stroke-width:0.25;"/>
   </g>
   <g id="patch_61">
    <path d="M 227.959817 223.817143 
L 227.959817 174.445714 
" style="fill:none;stroke:#000000;stroke-linecap:square;stroke-linejoin:miter;stroke-width:0.25;"/>
   </g>
   <g id="patch_62">
    <path d="M 140.282942 223.817143 
L 227.959817 223.817143 
" style="fill:none;stroke:#000000;stroke-linecap:square;stroke-linejoin:miter;stroke-width:0.25;"/>
   </g>
   <g id="patch_63">
    <path d="M 140.282942 174.445714 
L 227.959817 174.445714 
" style="fill:none;stroke:#000000;stroke-linecap:square;stroke-linejoin:miter;stroke-width:0.25;"/>
   </g>
   <g id="text_7">
    <text style="font-family:DejaVu Sans;font-size:4px;font-stretch:normal;font-style:normal;font-weight:normal;text-anchor:start;" transform="rotate(-0, 140.282942, 168.445714)" x="140.282942" y="168.445714">333</text>
   </g>
  </g>
  <g id="axes_8">
   <g id="patch_64">
    <path d="M 249.921562 223.817143 
L 337.598438 223.817143 
L 337.598438 174.445714 
L 249.921562 174.445714 
z
" style="fill:#b2b2b2;"/>
   </g>
   <g id="patch_65">
    <path clip-path="url(#p2327c4d88e)" d="M 253.425663 221.131976 
L 334.094337 221.131976 
L 334.094337 177.130881 
L 253.425663 177.130881 
z
" style="fill:none;stroke:#000000;stroke-linejoin:miter;stroke-width:0.5;"/>
   </g>
   <g id="patch_66">
    <path clip-path="url(#p2327c4d88e)" d="M 313.349906 195.119034 
C 315.6749 193.741818 317.280402 191.366419 317.812819 188.515989 
C 318.345235 185.665559 317.761096 182.572825 316.189052 179.918925 
C 314.617008 177.265024 312.18541 175.266637 309.429787 174.363885 
C 306.674165 173.461133 303.819504 173.727721 301.494509 175.104937 
C 299.169515 176.482152 297.564013 178.857552 297.031597 181.707982 
C 296.49918 184.558411 297.083319 187.651146 298.655363 190.305046 
C 300.227407 192.958946 302.659006 194.957334 305.414628 195.860086 
C 308.17025 196.762838 311.024912 196.49625 313.349906 195.119034 
z
" style="fill:none;stroke:#ff0000;stroke-linejoin:miter;"/>
   </g>
   <g id="patch_67">
    <path clip-path="url(#p2327c4d88e)" d="M 253.425663 221.131976 
L 334.094337 221.131976 
L 334.094337 177.130881 
L 253.425663 177.130881 
z
" style="fill:none;stroke:#000000;stroke-linejoin:miter;stroke-width:0.5;"/>
   </g>
   <g id="patch_68">
    <path clip-path="url(#p2327c4d88e)" d="M 318.158517 194.183727 
C 320.604757 192.734691 322.223369 190.116208 322.657874 186.904967 
C 323.092379 183.693726 322.3073 180.151912 320.475543 177.059568 
C 318.643786 173.967224 315.914905 171.576825 312.889904 170.414831 
C 309.864903 169.252836 306.790761 169.414117 304.344521 170.863153 
C 301.898281 172.312188 300.279668 174.930672 299.845164 178.141913 
C 299.410659 181.353153 300.195737 184.894968 302.027494 187.987312 
C 303.859252 191.079656 306.588133 193.470054 309.613134 194.632049 
C 312.638135 195.794044 315.712277 195.632763 318.158517 194.183727 
z
" style="fill:none;stroke:#0000ff;stroke-linejoin:miter;"/>
   </g>
   <g id="matplotlib.axis_15"/>
   <g id="matplotlib.axis_16"/>
   <g id="patch_69">
    <path d="M 249.921562 223.817143 
L 249.921562 174.445714 
" style="fill:none;stroke:#000000;stroke-linecap:square;stroke-linejoin:miter;stroke-width:0.25;"/>
   </g>
   <g id="patch_70">
    <path d="M 337.598438 223.817143 
L 337.598438 174.445714 
" style="fill:none;stroke:#000000;stroke-linecap:square;stroke-linejoin:miter;stroke-width:0.25;"/>
   </g>
   <g id="patch_71">
    <path d="M 249.921562 223.817143 
L 337.598438 223.817143 
" style="fill:none;stroke:#000000;stroke-linecap:square;stroke-linejoin:miter;stroke-width:0.25;"/>
   </g>
   <g id="patch_72">
    <path d="M 249.921562 174.445714 
L 337.598438 174.445714 
" style="fill:none;stroke:#000000;stroke-linecap:square;stroke-linejoin:miter;stroke-width:0.25;"/>
   </g>
   <g id="text_8">
    <text style="font-family:DejaVu Sans;font-size:4px;font-stretch:normal;font-style:normal;font-weight:normal;text-anchor:start;" transform="rotate(-0, 249.921562, 168.445714)" x="249.921562" y="168.445714">46</text>
   </g>
  </g>
  <g id="axes_9">
   <g id="patch_73">
    <path d="M 359.560183 223.817143 
L 447.237058 223.817143 
L 447.237058 174.445714 
L 359.560183 174.445714 
z
" style="fill:#b2b2b2;"/>
   </g>
   <g id="patch_74">
    <path clip-path="url(#pde2d362fe9)" d="M 363.064284 221.131976 
L 443.732958 221.131976 
L 443.732958 177.130881 
L 363.064284 177.130881 
z
" style="fill:none;stroke:#000000;stroke-linejoin:miter;stroke-width:0.5;"/>
   </g>
   <g id="patch_75">
    <path clip-path="url(#pde2d362fe9)" d="M 402.02327 214.243086 
C 404.06937 215.981218 406.927549 216.594102 409.968327 215.946756 
C 413.009104 215.299411 415.984215 213.444689 418.238424 210.791072 
C 420.492634 208.137456 421.841897 204.901599 421.989053 201.796164 
C 422.136209 198.690728 421.069244 195.969258 419.023145 194.231126 
C 416.977045 192.492994 414.118867 191.88011 411.078089 192.527455 
C 408.037311 193.174801 405.062201 195.029522 402.807991 197.683139 
C 400.553781 200.336756 399.204519 203.572612 399.057362 206.678048 
C 398.910206 209.783484 399.977171 212.504954 402.02327 214.243086 
z
" style="fill:none;stroke:#ff0000;stroke-linejoin:miter;"/>
   </g>
   <g id="patch_76">
    <path clip-path="url(#pde2d362fe9)" d="M 363.064284 221.131976 
L 443.732958 221.131976 
L 443.732958 177.130881 
L 363.064284 177.130881 
z
" style="fill:none;stroke:#000000;stroke-linejoin:miter;stroke-width:0.5;"/>
   </g>
   <g id="patch_77">
    <path clip-path="url(#pde2d362fe9)" d="M 401.96121 218.645761 
C 404.557836 220.851558 408.202766 221.60848 412.093247 220.749824 
C 415.983727 219.891168 419.802117 217.487038 422.707461 214.066918 
C 425.612805 210.646797 427.367893 206.489923 427.586189 202.511798 
C 427.804485 198.533674 426.468166 195.059095 423.871539 192.853298 
C 421.274913 190.647501 417.629982 189.890578 413.739502 190.749235 
C 409.849021 191.607891 406.030631 194.01202 403.125288 197.432141 
C 400.219944 200.852262 398.464855 205.009136 398.246559 208.98726 
C 398.028263 212.965385 399.364583 216.439964 401.96121 218.645761 
z
" style="fill:none;stroke:#0000ff;stroke-linejoin:miter;"/>
   </g>
   <g id="matplotlib.axis_17"/>
   <g id="matplotlib.axis_18"/>
   <g id="patch_78">
    <path d="M 359.560183 223.817143 
L 359.560183 174.445714 
" style="fill:none;stroke:#000000;stroke-linecap:square;stroke-linejoin:miter;stroke-width:0.25;"/>
   </g>
   <g id="patch_79">
    <path d="M 447.237058 223.817143 
L 447.237058 174.445714 
" style="fill:none;stroke:#000000;stroke-linecap:square;stroke-linejoin:miter;stroke-width:0.25;"/>
   </g>
   <g id="patch_80">
    <path d="M 359.560183 223.817143 
L 447.237058 223.817143 
" style="fill:none;stroke:#000000;stroke-linecap:square;stroke-linejoin:miter;stroke-width:0.25;"/>
   </g>
   <g id="patch_81">
    <path d="M 359.560183 174.445714 
L 447.237058 174.445714 
" style="fill:none;stroke:#000000;stroke-linecap:square;stroke-linejoin:miter;stroke-width:0.25;"/>
   </g>
   <g id="text_9">
    <text style="font-family:DejaVu Sans;font-size:4px;font-stretch:normal;font-style:normal;font-weight:normal;text-anchor:start;" transform="rotate(-0, 359.560183, 168.445714)" x="359.560183" y="168.445714">257</text>
   </g>
  </g>
  <g id="axes_10">
   <g id="patch_82">
    <path d="M 469.198804 223.817143 
L 556.875679 223.817143 
L 556.875679 174.445714 
L 469.198804 174.445714 
z
" style="fill:#b2b2b2;"/>
   </g>
   <g id="patch_83">
    <path clip-path="url(#p36f147f9c5)" d="M 472.702904 221.131976 
L 553.371578 221.131976 
L 553.371578 177.130881 
L 472.702904 177.130881 
z
" style="fill:none;stroke:#000000;stroke-linejoin:miter;stroke-width:0.5;"/>
   </g>
   <g id="patch_84">
    <path clip-path="url(#p36f147f9c5)" d="M 526.44249 208.695178 
C 525.547972 206.992772 523.859865 205.796037 521.749954 205.368539 
C 519.640044 204.941042 517.280595 205.317685 515.191248 206.415519 
C 513.101902 207.513352 511.453245 209.242742 510.608374 211.22281 
C 509.763503 213.202878 509.791398 215.271961 510.685916 216.974367 
C 511.580434 218.676773 513.268542 219.873508 515.378452 220.301005 
C 517.488363 220.728503 519.847812 220.351859 521.937158 219.254026 
C 524.026504 218.156193 525.675162 216.426803 526.520033 214.446735 
C 527.364904 212.466667 527.337008 210.397584 526.44249 208.695178 
z
" style="fill:none;stroke:#ff0000;stroke-linejoin:miter;"/>
   </g>
   <g id="patch_85">
    <path clip-path="url(#p36f147f9c5)" d="M 472.702904 221.131976 
L 553.371578 221.131976 
L 553.371578 177.130881 
L 472.702904 177.130881 
z
" style="fill:none;stroke:#000000;stroke-linejoin:miter;stroke-width:0.5;"/>
   </g>
   <g id="patch_86">
    <path clip-path="url(#p36f147f9c5)" d="M 530.699773 210.888832 
C 529.679833 208.947728 527.616241 207.656124 524.96348 207.298479 
C 522.310719 206.940835 519.285374 207.54635 516.553744 208.981668 
C 513.822113 210.416985 511.607222 212.564917 510.396873 214.952408 
C 509.186525 217.339898 509.07954 219.772017 510.09948 221.713121 
C 511.11942 223.654224 513.183012 224.945828 515.835773 225.303473 
C 518.488534 225.661118 521.513879 225.055602 524.245509 223.620285 
C 526.97714 222.184967 529.192031 220.037035 530.40238 217.649545 
C 531.612728 215.262055 531.719713 212.829935 530.699773 210.888832 
z
" style="fill:none;stroke:#0000ff;stroke-linejoin:miter;"/>
   </g>
   <g id="matplotlib.axis_19"/>
   <g id="matplotlib.axis_20"/>
   <g id="patch_87">
    <path d="M 469.198804 223.817143 
L 469.198804 174.445714 
" style="fill:none;stroke:#000000;stroke-linecap:square;stroke-linejoin:miter;stroke-width:0.25;"/>
   </g>
   <g id="patch_88">
    <path d="M 556.875679 223.817143 
L 556.875679 174.445714 
" style="fill:none;stroke:#000000;stroke-linecap:square;stroke-linejoin:miter;stroke-width:0.25;"/>
   </g>
   <g id="patch_89">
    <path d="M 469.198804 223.817143 
L 556.875679 223.817143 
" style="fill:none;stroke:#000000;stroke-linecap:square;stroke-linejoin:miter;stroke-width:0.25;"/>
   </g>
   <g id="patch_90">
    <path d="M 469.198804 174.445714 
L 556.875679 174.445714 
" style="fill:none;stroke:#000000;stroke-linecap:square;stroke-linejoin:miter;stroke-width:0.25;"/>
   </g>
   <g id="text_10">
    <text style="font-family:DejaVu Sans;font-size:4px;font-stretch:normal;font-style:normal;font-weight:normal;text-anchor:start;" transform="rotate(-0, 469.198804, 168.445714)" x="469.198804" y="168.445714">307</text>
   </g>
  </g>
  <g id="axes_11">
   <g id="patch_91">
    <path d="M 30.644321 283.062857 
L 118.321196 283.062857 
L 118.321196 233.691429 
L 30.644321 233.691429 
z
" style="fill:#b2b2b2;"/>
   </g>
   <g id="patch_92">
    <path clip-path="url(#pf805def01f)" d="M 34.148422 280.37769 
L 114.817096 280.37769 
L 114.817096 236.376595 
L 34.148422 236.376595 
z
" style="fill:none;stroke:#000000;stroke-linejoin:miter;stroke-width:0.5;"/>
   </g>
   <g id="patch_93">
    <path clip-path="url(#pf805def01f)" d="M 76.560465 262.424529 
C 74.881952 265.076902 74.020415 268.094646 74.165598 270.813138 
C 74.310782 273.53163 75.450831 275.728916 77.334665 276.921071 
C 79.218498 278.113225 81.692308 278.202913 84.211267 277.170383 
C 86.730226 276.137852 89.088673 274.067404 90.767186 271.415031 
C 92.445699 268.762657 93.307235 265.744913 93.162052 263.026422 
C 93.016869 260.30793 91.876819 258.110643 89.992986 256.918489 
C 88.109153 255.726335 85.635343 255.636646 83.116383 256.669177 
C 80.597424 257.701708 78.238978 259.772156 76.560465 262.424529 
z
" style="fill:none;stroke:#ff0000;stroke-linejoin:miter;"/>
   </g>
   <g id="patch_94">
    <path clip-path="url(#pf805def01f)" d="M 34.148422 280.37769 
L 114.817096 280.37769 
L 114.817096 236.376595 
L 34.148422 236.376595 
z
" style="fill:none;stroke:#000000;stroke-linejoin:miter;stroke-width:0.5;"/>
   </g>
   <g id="patch_95">
    <path clip-path="url(#pf805def01f)" d="M 77.972693 263.840529 
C 75.866243 267.169125 74.747214 270.932294 74.86206 274.301242 
C 74.976906 277.67019 76.316249 280.369858 78.585115 281.805674 
C 80.853981 283.241491 83.867127 283.296228 86.960943 281.957831 
C 90.054758 280.619434 92.976647 277.997177 95.083097 274.668581 
C 97.189547 271.339986 98.308575 267.576817 98.193729 264.207868 
C 98.078884 260.83892 96.73954 258.139253 94.470674 256.703436 
C 92.201808 255.26762 89.188662 255.212882 86.094847 256.551279 
C 83.001031 257.889676 80.079142 260.511934 77.972693 263.840529 
z
" style="fill:none;stroke:#0000ff;stroke-linejoin:miter;"/>
   </g>
   <g id="matplotlib.axis_21"/>
   <g id="matplotlib.axis_22"/>
   <g id="patch_96">
    <path d="M 30.644321 283.062857 
L 30.644321 233.691429 
" style="fill:none;stroke:#000000;stroke-linecap:square;stroke-linejoin:miter;stroke-width:0.25;"/>
   </g>
   <g id="patch_97">
    <path d="M 118.321196 283.062857 
L 118.321196 233.691429 
" style="fill:none;stroke:#000000;stroke-linecap:square;stroke-linejoin:miter;stroke-width:0.25;"/>
   </g>
   <g id="patch_98">
    <path d="M 30.644321 283.062857 
L 118.321196 283.062857 
" style="fill:none;stroke:#000000;stroke-linecap:square;stroke-linejoin:miter;stroke-width:0.25;"/>
   </g>
   <g id="patch_99">
    <path d="M 30.644321 233.691429 
L 118.321196 233.691429 
" style="fill:none;stroke:#000000;stroke-linecap:square;stroke-linejoin:miter;stroke-width:0.25;"/>
   </g>
   <g id="text_11">
    <text style="font-family:DejaVu Sans;font-size:4px;font-stretch:normal;font-style:normal;font-weight:normal;text-anchor:start;" transform="rotate(-0, 30.644321, 227.691429)" x="30.644321" y="227.691429">256</text>
   </g>
  </g>
  <g id="axes_12">
   <g id="patch_100">
    <path d="M 140.282942 283.062857 
L 227.959817 283.062857 
L 227.959817 233.691429 
L 140.282942 233.691429 
z
" style="fill:#b2b2b2;"/>
   </g>
   <g id="patch_101">
    <path clip-path="url(#pd8c5176d4b)" d="M 143.787042 280.37769 
L 224.455716 280.37769 
L 224.455716 236.376595 
L 143.787042 236.376595 
z
" style="fill:none;stroke:#000000;stroke-linejoin:miter;stroke-width:0.5;"/>
   </g>
   <g id="patch_102">
    <path clip-path="url(#pd8c5176d4b)" d="M 145.029423 251.605745 
C 147.047925 253.562649 150.015367 254.375861 153.278206 253.86628 
C 156.541045 253.3567 159.832885 251.565931 162.428735 248.888372 
C 165.024585 246.210812 166.712507 242.865072 167.120754 239.588011 
C 167.529002 236.310951 166.624244 233.370128 164.605743 231.413224 
C 162.587242 229.45632 159.619799 228.643108 156.35696 229.152689 
C 153.094121 229.66227 149.802281 231.453038 147.206431 234.130597 
C 144.610581 236.808157 142.922659 240.153897 142.514412 243.430958 
C 142.106164 246.708018 143.010922 249.648841 145.029423 251.605745 
z
" style="fill:none;stroke:#ff0000;stroke-linejoin:miter;"/>
   </g>
   <g id="patch_103">
    <path clip-path="url(#pd8c5176d4b)" d="M 143.787042 280.37769 
L 224.455716 280.37769 
L 224.455716 236.376595 
L 143.787042 236.376595 
z
" style="fill:none;stroke:#000000;stroke-linejoin:miter;stroke-width:0.5;"/>
   </g>
   <g id="patch_104">
    <path clip-path="url(#pd8c5176d4b)" d="M 0 -1 
z
" style="fill:none;stroke:#0000ff;stroke-linejoin:miter;"/>
   </g>
   <g id="matplotlib.axis_23"/>
   <g id="matplotlib.axis_24"/>
   <g id="patch_105">
    <path d="M 140.282942 283.062857 
L 140.282942 233.691429 
" style="fill:none;stroke:#000000;stroke-linecap:square;stroke-linejoin:miter;stroke-width:0.25;"/>
   </g>
   <g id="patch_106">
    <path d="M 227.959817 283.062857 
L 227.959817 233.691429 
" style="fill:none;stroke:#000000;stroke-linecap:square;stroke-linejoin:miter;stroke-width:0.25;"/>
   </g>
   <g id="patch_107">
    <path d="M 140.282942 283.062857 
L 227.959817 283.062857 
" style="fill:none;stroke:#000000;stroke-linecap:square;stroke-linejoin:miter;stroke-width:0.25;"/>
   </g>
   <g id="patch_108">
    <path d="M 140.282942 233.691429 
L 227.959817 233.691429 
" style="fill:none;stroke:#000000;stroke-linecap:square;stroke-linejoin:miter;stroke-width:0.25;"/>
   </g>
   <g id="text_12">
    <text style="font-family:DejaVu Sans;font-size:4px;font-stretch:normal;font-style:normal;font-weight:normal;text-anchor:start;" transform="rotate(-0, 140.282942, 227.691429)" x="140.282942" y="227.691429">172</text>
   </g>
  </g>
  <g id="axes_13">
   <g id="patch_109">
    <path d="M 249.921562 283.062857 
L 337.598438 283.062857 
L 337.598438 233.691429 
L 249.921562 233.691429 
z
" style="fill:#b2b2b2;"/>
   </g>
   <g id="patch_110">
    <path clip-path="url(#pfa03c49721)" d="M 253.425663 280.37769 
L 334.094337 280.37769 
L 334.094337 236.376595 
L 253.425663 236.376595 
z
" style="fill:none;stroke:#000000;stroke-linejoin:miter;stroke-width:0.5;"/>
   </g>
   <g id="patch_111">
    <path clip-path="url(#pfa03c49721)" d="M 284.822349 259.016034 
C 286.080042 262.084177 288.320252 264.60327 291.049597 266.018512 
C 293.778943 267.433755 296.774586 267.629598 299.376771 266.56291 
C 301.978955 265.496223 303.975224 263.254094 304.925923 260.330328 
C 305.876622 257.406561 305.70413 254.039869 304.446437 250.971726 
C 303.188744 247.903584 300.948534 245.384491 298.219188 243.969248 
C 295.489842 242.554006 292.4942 242.358162 289.892015 243.42485 
C 287.289831 244.491537 285.293561 246.733666 284.342863 249.657433 
C 283.392164 252.581199 283.564656 255.947891 284.822349 259.016034 
z
" style="fill:none;stroke:#ff0000;stroke-linejoin:miter;"/>
   </g>
   <g id="patch_112">
    <path clip-path="url(#pfa03c49721)" d="M 253.425663 280.37769 
L 334.094337 280.37769 
L 334.094337 236.376595 
L 253.425663 236.376595 
z
" style="fill:none;stroke:#000000;stroke-linejoin:miter;stroke-width:0.5;"/>
   </g>
   <g id="patch_113">
    <path clip-path="url(#pfa03c49721)" d="M 281.64128 259.082959 
C 283.317687 263.172553 286.316945 266.524881 289.978503 268.401633 
C 293.64006 270.278385 297.664968 270.526332 301.166786 269.090867 
C 304.668604 267.655401 307.361424 264.653723 308.652185 260.746916 
C 309.942946 256.840109 309.726262 252.347148 308.049855 248.257554 
C 306.373449 244.16796 303.374191 240.815632 299.712633 238.938879 
C 296.051076 237.062127 292.026168 236.81418 288.52435 238.249646 
C 285.022532 239.685111 282.329711 242.68679 281.038951 246.593597 
C 279.74819 250.500404 279.964874 254.993365 281.64128 259.082959 
z
" style="fill:none;stroke:#0000ff;stroke-linejoin:miter;"/>
   </g>
   <g id="matplotlib.axis_25"/>
   <g id="matplotlib.axis_26"/>
   <g id="patch_114">
    <path d="M 249.921562 283.062857 
L 249.921562 233.691429 
" style="fill:none;stroke:#000000;stroke-linecap:square;stroke-linejoin:miter;stroke-width:0.25;"/>
   </g>
   <g id="patch_115">
    <path d="M 337.598438 283.062857 
L 337.598438 233.691429 
" style="fill:none;stroke:#000000;stroke-linecap:square;stroke-linejoin:miter;stroke-width:0.25;"/>
   </g>
   <g id="patch_116">
    <path d="M 249.921562 283.062857 
L 337.598438 283.062857 
" style="fill:none;stroke:#000000;stroke-linecap:square;stroke-linejoin:miter;stroke-width:0.25;"/>
   </g>
   <g id="patch_117">
    <path d="M 249.921562 233.691429 
L 337.598438 233.691429 
" style="fill:none;stroke:#000000;stroke-linecap:square;stroke-linejoin:miter;stroke-width:0.25;"/>
   </g>
   <g id="text_13">
    <text style="font-family:DejaVu Sans;font-size:4px;font-stretch:normal;font-style:normal;font-weight:normal;text-anchor:start;" transform="rotate(-0, 249.921562, 227.691429)" x="249.921562" y="227.691429">235</text>
   </g>
  </g>
  <g id="axes_14">
   <g id="patch_118">
    <path d="M 359.560183 283.062857 
L 447.237058 283.062857 
L 447.237058 233.691429 
L 359.560183 233.691429 
z
" style="fill:#b2b2b2;"/>
   </g>
   <g id="patch_119">
    <path clip-path="url(#p0b78d88415)" d="M 363.064284 280.37769 
L 443.732958 280.37769 
L 443.732958 236.376595 
L 363.064284 236.376595 
z
" style="fill:none;stroke:#000000;stroke-linejoin:miter;stroke-width:0.5;"/>
   </g>
   <g id="patch_120">
    <path clip-path="url(#p0b78d88415)" d="M 426.069047 269.403605 
C 429.843534 268.478089 433.242465 266.687142 435.517266 264.425202 
C 437.792066 262.163261 438.757009 259.615004 438.199576 257.341653 
C 437.642143 255.068303 435.607846 253.255469 432.544716 252.302406 
C 429.481586 251.349344 425.639714 251.333867 421.865227 252.259384 
C 418.090739 253.1849 414.691808 254.975847 412.417007 257.237787 
C 410.142207 259.499728 409.177264 262.047985 409.734697 264.321336 
C 410.29213 266.594686 412.326427 268.40752 415.389557 269.360583 
C 418.452687 270.313645 422.294559 270.329122 426.069047 269.403605 
z
" style="fill:none;stroke:#ff0000;stroke-linejoin:miter;"/>
   </g>
   <g id="patch_121">
    <path clip-path="url(#p0b78d88415)" d="M 363.064284 280.37769 
L 443.732958 280.37769 
L 443.732958 236.376595 
L 363.064284 236.376595 
z
" style="fill:none;stroke:#000000;stroke-linejoin:miter;stroke-width:0.5;"/>
   </g>
   <g id="patch_122">
    <path clip-path="url(#p0b78d88415)" d="M 430.440642 270.565243 
C 434.059346 269.677925 437.2825 267.816141 439.400242 265.389928 
C 441.517984 262.963715 442.35741 260.171162 441.733646 257.627296 
C 441.109882 255.083431 439.073855 252.995949 436.073977 251.824593 
C 433.074099 250.653237 429.355296 250.493644 425.736593 251.380962 
C 422.117889 252.268281 418.894734 254.130064 416.776992 256.556278 
C 414.65925 258.982491 413.819824 261.775044 414.443588 264.318909 
C 415.067353 266.862774 417.103379 268.950257 420.103257 270.121612 
C 423.103135 271.292968 426.821938 271.452561 430.440642 270.565243 
z
" style="fill:none;stroke:#0000ff;stroke-linejoin:miter;"/>
   </g>
   <g id="matplotlib.axis_27"/>
   <g id="matplotlib.axis_28"/>
   <g id="patch_123">
    <path d="M 359.560183 283.062857 
L 359.560183 233.691429 
" style="fill:none;stroke:#000000;stroke-linecap:square;stroke-linejoin:miter;stroke-width:0.25;"/>
   </g>
   <g id="patch_124">
    <path d="M 447.237058 283.062857 
L 447.237058 233.691429 
" style="fill:none;stroke:#000000;stroke-linecap:square;stroke-linejoin:miter;stroke-width:0.25;"/>
   </g>
   <g id="patch_125">
    <path d="M 359.560183 283.062857 
L 447.237058 283.062857 
" style="fill:none;stroke:#000000;stroke-linecap:square;stroke-linejoin:miter;stroke-width:0.25;"/>
   </g>
   <g id="patch_126">
    <path d="M 359.560183 233.691429 
L 447.237058 233.691429 
" style="fill:none;stroke:#000000;stroke-linecap:square;stroke-linejoin:miter;stroke-width:0.25;"/>
   </g>
   <g id="text_14">
    <text style="font-family:DejaVu Sans;font-size:4px;font-stretch:normal;font-style:normal;font-weight:normal;text-anchor:start;" transform="rotate(-0, 359.560183, 227.691429)" x="359.560183" y="227.691429">25</text>
   </g>
  </g>
  <g id="axes_15">
   <g id="patch_127">
    <path d="M 469.198804 283.062857 
L 556.875679 283.062857 
L 556.875679 233.691429 
L 469.198804 233.691429 
z
" style="fill:#b2b2b2;"/>
   </g>
   <g id="patch_128">
    <path clip-path="url(#p01b1cb85dd)" d="M 472.702904 280.37769 
L 553.371578 280.37769 
L 553.371578 236.376595 
L 472.702904 236.376595 
z
" style="fill:none;stroke:#000000;stroke-linejoin:miter;stroke-width:0.5;"/>
   </g>
   <g id="patch_129">
    <path clip-path="url(#p01b1cb85dd)" d="M 498.951219 275.816561 
C 500.029111 276.043873 501.174598 275.732722 502.135399 274.951636 
C 503.0962 274.17055 503.793871 272.983301 504.074758 271.651366 
C 504.355644 270.319431 504.196813 268.951557 503.633245 267.849003 
C 503.069677 266.746448 502.147385 265.999232 501.069493 265.77192 
C 499.991601 265.544607 498.846115 265.855758 497.885313 266.636844 
C 496.924512 267.41793 496.226841 268.60518 495.945955 269.937115 
C 495.665068 271.26905 495.823899 272.636924 496.387467 273.739478 
C 496.951035 274.842032 497.873327 275.589248 498.951219 275.816561 
z
" style="fill:none;stroke:#ff0000;stroke-linejoin:miter;"/>
   </g>
   <g id="patch_130">
    <path clip-path="url(#p01b1cb85dd)" d="M 472.702904 280.37769 
L 553.371578 280.37769 
L 553.371578 236.376595 
L 472.702904 236.376595 
z
" style="fill:none;stroke:#000000;stroke-linejoin:miter;stroke-width:0.5;"/>
   </g>
   <g id="patch_131">
    <path clip-path="url(#p01b1cb85dd)" d="M 495.034856 278.581189 
C 496.369238 278.862591 497.767628 278.570677 498.922048 277.769736 
C 500.076468 276.968795 500.892664 275.724222 501.190879 274.310118 
C 501.489094 272.896014 501.244979 271.427836 500.512298 270.228932 
C 499.779617 269.030028 498.618191 268.198284 497.283809 267.916882 
C 495.949428 267.635479 494.551037 267.927394 493.396617 268.728335 
C 492.242197 269.529275 491.426001 270.773849 491.127787 272.187953 
C 490.829572 273.602056 491.073687 275.070235 491.806367 276.269138 
C 492.539048 277.468042 493.700475 278.299786 495.034856 278.581189 
z
" style="fill:none;stroke:#0000ff;stroke-linejoin:miter;"/>
   </g>
   <g id="matplotlib.axis_29"/>
   <g id="matplotlib.axis_30"/>
   <g id="patch_132">
    <path d="M 469.198804 283.062857 
L 469.198804 233.691429 
" style="fill:none;stroke:#000000;stroke-linecap:square;stroke-linejoin:miter;stroke-width:0.25;"/>
   </g>
   <g id="patch_133">
    <path d="M 556.875679 283.062857 
L 556.875679 233.691429 
" style="fill:none;stroke:#000000;stroke-linecap:square;stroke-linejoin:miter;stroke-width:0.25;"/>
   </g>
   <g id="patch_134">
    <path d="M 469.198804 283.062857 
L 556.875679 283.062857 
" style="fill:none;stroke:#000000;stroke-linecap:square;stroke-linejoin:miter;stroke-width:0.25;"/>
   </g>
   <g id="patch_135">
    <path d="M 469.198804 233.691429 
L 556.875679 233.691429 
" style="fill:none;stroke:#000000;stroke-linecap:square;stroke-linejoin:miter;stroke-width:0.25;"/>
   </g>
   <g id="text_15">
    <text style="font-family:DejaVu Sans;font-size:4px;font-stretch:normal;font-style:normal;font-weight:normal;text-anchor:start;" transform="rotate(-0, 469.198804, 227.691429)" x="469.198804" y="227.691429">407</text>
   </g>
  </g>
  <g id="axes_16">
   <g id="patch_136">
    <path d="M 30.644321 342.308571 
L 118.321196 342.308571 
L 118.321196 292.937143 
L 30.644321 292.937143 
z
" style="fill:#b2b2b2;"/>
   </g>
   <g id="patch_137">
    <path clip-path="url(#pf88deabf69)" d="M 34.148422 339.623405 
L 114.817096 339.623405 
L 114.817096 295.62231 
L 34.148422 295.62231 
z
" style="fill:none;stroke:#000000;stroke-linejoin:miter;stroke-width:0.5;"/>
   </g>
   <g id="patch_138">
    <path clip-path="url(#pf88deabf69)" d="M 94.217843 330.750245 
C 98.278141 331.062169 102.243881 330.434626 105.241654 329.005824 
C 108.239427 327.577022 110.024479 325.463617 110.203673 323.131062 
C 110.382867 320.798507 108.941572 318.437245 106.197217 316.567316 
C 103.452862 314.697387 99.629511 313.471462 95.569214 313.159538 
C 91.508916 312.847614 87.543176 313.475157 84.545403 314.903959 
C 81.54763 316.332761 79.762578 318.446166 79.583384 320.778721 
C 79.40419 323.111276 80.845485 325.472538 83.58984 327.342468 
C 86.334195 329.212397 90.157546 330.438321 94.217843 330.750245 
z
" style="fill:none;stroke:#ff0000;stroke-linejoin:miter;"/>
   </g>
   <g id="patch_139">
    <path clip-path="url(#pf88deabf69)" d="M 34.148422 339.623405 
L 114.817096 339.623405 
L 114.817096 295.62231 
L 34.148422 295.62231 
z
" style="fill:none;stroke:#000000;stroke-linejoin:miter;stroke-width:0.5;"/>
   </g>
   <g id="patch_140">
    <path clip-path="url(#pf88deabf69)" d="M 98.258915 332.257565 
C 102.09731 332.552442 105.858466 331.801038 108.71403 330.168842 
C 111.569594 328.536645 113.286423 326.156918 113.486405 323.553766 
C 113.686386 320.950615 112.353194 318.336576 109.780446 316.28736 
C 107.207699 314.238145 103.605451 312.921063 99.767055 312.626186 
C 95.92866 312.331309 92.167504 313.082713 89.31194 314.714909 
C 86.456376 316.347106 84.739547 318.726833 84.539565 321.329985 
C 84.339584 323.933136 85.672776 326.547175 88.245524 328.59639 
C 90.818271 330.645606 94.420519 331.962688 98.258915 332.257565 
z
" style="fill:none;stroke:#0000ff;stroke-linejoin:miter;"/>
   </g>
   <g id="matplotlib.axis_31"/>
   <g id="matplotlib.axis_32"/>
   <g id="patch_141">
    <path d="M 30.644321 342.308571 
L 30.644321 292.937143 
" style="fill:none;stroke:#000000;stroke-linecap:square;stroke-linejoin:miter;stroke-width:0.25;"/>
   </g>
   <g id="patch_142">
    <path d="M 118.321196 342.308571 
L 118.321196 292.937143 
" style="fill:none;stroke:#000000;stroke-linecap:square;stroke-linejoin:miter;stroke-width:0.25;"/>
   </g>
   <g id="patch_143">
    <path d="M 30.644321 342.308571 
L 118.321196 342.308571 
" style="fill:none;stroke:#000000;stroke-linecap:square;stroke-linejoin:miter;stroke-width:0.25;"/>
   </g>
   <g id="patch_144">
    <path d="M 30.644321 292.937143 
L 118.321196 292.937143 
" style="fill:none;stroke:#000000;stroke-linecap:square;stroke-linejoin:miter;stroke-width:0.25;"/>
   </g>
   <g id="text_16">
    <text style="font-family:DejaVu Sans;font-size:4px;font-stretch:normal;font-style:normal;font-weight:normal;text-anchor:start;" transform="rotate(-0, 30.644321, 286.937143)" x="30.644321" y="286.937143">26</text>
   </g>
  </g>
  <g id="axes_17">
   <g id="patch_145">
    <path d="M 140.282942 342.308571 
L 227.959817 342.308571 
L 227.959817 292.937143 
L 140.282942 292.937143 
z
" style="fill:#b2b2b2;"/>
   </g>
   <g id="patch_146">
    <path clip-path="url(#pe104faf9e3)" d="M 143.787042 339.623405 
L 224.455716 339.623405 
L 224.455716 295.62231 
L 143.787042 295.62231 
z
" style="fill:none;stroke:#000000;stroke-linejoin:miter;stroke-width:0.5;"/>
   </g>
   <g id="patch_147">
    <path clip-path="url(#pe104faf9e3)" d="M 209.010988 334.805851 
C 213.472435 335.288504 217.848448 334.857651 221.175261 333.608183 
C 224.502073 332.358714 226.508066 330.392645 226.751441 328.142977 
C 226.994817 325.89331 225.455705 323.54372 222.473078 321.611678 
C 219.490451 319.679636 215.307826 318.322885 210.846379 317.840232 
C 206.384931 317.35758 202.008918 317.788433 198.682106 319.037901 
C 195.355293 320.287369 193.349301 322.253439 193.105925 324.503106 
C 192.862549 326.752773 194.401661 329.102363 197.384288 331.034405 
C 200.366916 332.966447 204.54954 334.323198 209.010988 334.805851 
z
" style="fill:none;stroke:#ff0000;stroke-linejoin:miter;"/>
   </g>
   <g id="patch_148">
    <path clip-path="url(#pe104faf9e3)" d="M 143.787042 339.623405 
L 224.455716 339.623405 
L 224.455716 295.62231 
L 143.787042 295.62231 
z
" style="fill:none;stroke:#000000;stroke-linejoin:miter;stroke-width:0.5;"/>
   </g>
   <g id="patch_149">
    <path clip-path="url(#pe104faf9e3)" d="M 212.432198 335.059306 
C 216.041102 335.449728 219.598623 334.937352 222.321259 333.635021 
C 225.043895 332.332691 226.709355 330.346737 226.95084 328.114542 
C 227.192326 325.882348 225.99012 323.586161 223.608996 321.731691 
C 221.227872 319.877221 217.862237 318.615877 214.253334 318.225455 
C 210.644431 317.835033 207.086909 318.34741 204.364273 319.64974 
C 201.641637 320.95207 199.976177 322.938024 199.734692 325.170219 
C 199.493207 327.402414 200.695412 329.6986 203.076536 331.55307 
C 205.45766 333.40754 208.823295 334.668884 212.432198 335.059306 
z
" style="fill:none;stroke:#0000ff;stroke-linejoin:miter;"/>
   </g>
   <g id="matplotlib.axis_33"/>
   <g id="matplotlib.axis_34"/>
   <g id="patch_150">
    <path d="M 140.282942 342.308571 
L 140.282942 292.937143 
" style="fill:none;stroke:#000000;stroke-linecap:square;stroke-linejoin:miter;stroke-width:0.25;"/>
   </g>
   <g id="patch_151">
    <path d="M 227.959817 342.308571 
L 227.959817 292.937143 
" style="fill:none;stroke:#000000;stroke-linecap:square;stroke-linejoin:miter;stroke-width:0.25;"/>
   </g>
   <g id="patch_152">
    <path d="M 140.282942 342.308571 
L 227.959817 342.308571 
" style="fill:none;stroke:#000000;stroke-linecap:square;stroke-linejoin:miter;stroke-width:0.25;"/>
   </g>
   <g id="patch_153">
    <path d="M 140.282942 292.937143 
L 227.959817 292.937143 
" style="fill:none;stroke:#000000;stroke-linecap:square;stroke-linejoin:miter;stroke-width:0.25;"/>
   </g>
   <g id="text_17">
    <text style="font-family:DejaVu Sans;font-size:4px;font-stretch:normal;font-style:normal;font-weight:normal;text-anchor:start;" transform="rotate(-0, 140.282942, 286.937143)" x="140.282942" y="286.937143">28</text>
   </g>
  </g>
  <g id="axes_18">
   <g id="patch_154">
    <path d="M 249.921562 342.308571 
L 337.598438 342.308571 
L 337.598438 292.937143 
L 249.921562 292.937143 
z
" style="fill:#b2b2b2;"/>
   </g>
   <g id="patch_155">
    <path clip-path="url(#pe04b74587e)" d="M 253.425663 339.623405 
L 334.094337 339.623405 
L 334.094337 295.62231 
L 253.425663 295.62231 
z
" style="fill:none;stroke:#000000;stroke-linejoin:miter;stroke-width:0.5;"/>
   </g>
   <g id="patch_156">
    <path clip-path="url(#pe04b74587e)" d="M 282.462931 333.398946 
C 282.911551 335.282426 284.501402 336.81283 286.882339 337.653103 
C 289.263275 338.493376 292.240905 338.574913 295.159438 337.879758 
C 298.077972 337.184603 300.699124 335.769512 302.445618 333.946142 
C 304.192111 332.122771 304.921351 330.039992 304.472732 328.156512 
C 304.024112 326.273031 302.434261 324.742628 300.053324 323.902355 
C 297.672388 323.062082 294.694758 322.980544 291.776225 323.675699 
C 288.857691 324.370854 286.236539 325.785946 284.490045 327.609316 
C 282.743552 329.432687 282.014312 331.515466 282.462931 333.398946 
z
" style="fill:none;stroke:#ff0000;stroke-linejoin:miter;"/>
   </g>
   <g id="patch_157">
    <path clip-path="url(#pe04b74587e)" d="M 253.425663 339.623405 
L 334.094337 339.623405 
L 334.094337 295.62231 
L 253.425663 295.62231 
z
" style="fill:none;stroke:#000000;stroke-linejoin:miter;stroke-width:0.5;"/>
   </g>
   <g id="patch_158">
    <path clip-path="url(#pe04b74587e)" d="M 278.580838 337.947598 
C 279.101544 340.133723 281.148962 341.8619 284.272175 342.751517 
C 287.395387 343.641134 291.339396 343.619557 295.23558 342.691539 
C 299.131763 341.763521 302.662016 340.004831 305.048839 337.802798 
C 307.435663 335.600766 308.484184 333.135179 307.963479 330.949053 
C 307.442773 328.762927 305.395354 327.03475 302.272142 326.145134 
C 299.14893 325.255517 295.204921 325.277093 291.308737 326.205111 
C 287.412554 327.133129 283.882301 328.89182 281.495478 331.093852 
C 279.108654 333.295884 278.060133 335.761472 278.580838 337.947598 
z
" style="fill:none;stroke:#0000ff;stroke-linejoin:miter;"/>
   </g>
   <g id="matplotlib.axis_35"/>
   <g id="matplotlib.axis_36"/>
   <g id="patch_159">
    <path d="M 249.921562 342.308571 
L 249.921562 292.937143 
" style="fill:none;stroke:#000000;stroke-linecap:square;stroke-linejoin:miter;stroke-width:0.25;"/>
   </g>
   <g id="patch_160">
    <path d="M 337.598438 342.308571 
L 337.598438 292.937143 
" style="fill:none;stroke:#000000;stroke-linecap:square;stroke-linejoin:miter;stroke-width:0.25;"/>
   </g>
   <g id="patch_161">
    <path d="M 249.921562 342.308571 
L 337.598438 342.308571 
" style="fill:none;stroke:#000000;stroke-linecap:square;stroke-linejoin:miter;stroke-width:0.25;"/>
   </g>
   <g id="patch_162">
    <path d="M 249.921562 292.937143 
L 337.598438 292.937143 
" style="fill:none;stroke:#000000;stroke-linecap:square;stroke-linejoin:miter;stroke-width:0.25;"/>
   </g>
   <g id="text_18">
    <text style="font-family:DejaVu Sans;font-size:4px;font-stretch:normal;font-style:normal;font-weight:normal;text-anchor:start;" transform="rotate(-0, 249.921562, 286.937143)" x="249.921562" y="286.937143">317</text>
   </g>
  </g>
  <g id="axes_19">
   <g id="patch_163">
    <path d="M 359.560183 342.308571 
L 447.237058 342.308571 
L 447.237058 292.937143 
L 359.560183 292.937143 
z
" style="fill:#b2b2b2;"/>
   </g>
   <g id="patch_164">
    <path clip-path="url(#p9cb249dcea)" d="M 363.064284 339.623405 
L 443.732958 339.623405 
L 443.732958 295.62231 
L 363.064284 295.62231 
z
" style="fill:none;stroke:#000000;stroke-linejoin:miter;stroke-width:0.5;"/>
   </g>
   <g id="patch_165">
    <path clip-path="url(#p9cb249dcea)" d="M 387.874537 330.118279 
C 390.997198 331.75151 394.327384 332.677561 397.131661 332.692481 
C 399.935937 332.7074 401.985348 331.80997 402.828534 330.197839 
C 403.67172 328.585707 403.239838 326.390498 401.628006 324.095681 
C 400.016174 321.800863 397.35599 319.593798 394.23333 317.960567 
C 391.110669 316.327336 387.780483 315.401285 384.976206 315.386365 
C 382.17193 315.371446 380.122519 316.268876 379.279333 317.881007 
C 378.436147 319.493139 378.868029 321.688348 380.479861 323.983166 
C 382.091693 326.277983 384.751877 328.485048 387.874537 330.118279 
z
" style="fill:none;stroke:#ff0000;stroke-linejoin:miter;"/>
   </g>
   <g id="patch_166">
    <path clip-path="url(#p9cb249dcea)" d="M 363.064284 339.623405 
L 443.732958 339.623405 
L 443.732958 295.62231 
L 363.064284 295.62231 
z
" style="fill:none;stroke:#000000;stroke-linejoin:miter;stroke-width:0.5;"/>
   </g>
   <g id="patch_167">
    <path clip-path="url(#p9cb249dcea)" d="M 383.600696 332.778991 
C 387.364779 334.747702 391.369991 335.881224 394.734233 335.929911 
C 398.098474 335.978599 400.547069 334.938477 401.540742 333.03862 
C 402.534416 331.138764 401.992039 328.534288 400.033063 325.798797 
C 398.074088 323.063307 394.858457 320.420143 391.094374 318.451432 
C 387.330291 316.482721 383.325078 315.349199 379.960837 315.300512 
C 376.596596 315.251824 374.148001 316.291946 373.154328 318.191803 
C 372.160654 320.091659 372.703031 322.696136 374.662006 325.431626 
C 376.620982 328.167116 379.836613 330.81028 383.600696 332.778991 
z
" style="fill:none;stroke:#0000ff;stroke-linejoin:miter;"/>
   </g>
   <g id="matplotlib.axis_37"/>
   <g id="matplotlib.axis_38"/>
   <g id="patch_168">
    <path d="M 359.560183 342.308571 
L 359.560183 292.937143 
" style="fill:none;stroke:#000000;stroke-linecap:square;stroke-linejoin:miter;stroke-width:0.25;"/>
   </g>
   <g id="patch_169">
    <path d="M 447.237058 342.308571 
L 447.237058 292.937143 
" style="fill:none;stroke:#000000;stroke-linecap:square;stroke-linejoin:miter;stroke-width:0.25;"/>
   </g>
   <g id="patch_170">
    <path d="M 359.560183 342.308571 
L 447.237058 342.308571 
" style="fill:none;stroke:#000000;stroke-linecap:square;stroke-linejoin:miter;stroke-width:0.25;"/>
   </g>
   <g id="patch_171">
    <path d="M 359.560183 292.937143 
L 447.237058 292.937143 
" style="fill:none;stroke:#000000;stroke-linecap:square;stroke-linejoin:miter;stroke-width:0.25;"/>
   </g>
   <g id="text_19">
    <text style="font-family:DejaVu Sans;font-size:4px;font-stretch:normal;font-style:normal;font-weight:normal;text-anchor:start;" transform="rotate(-0, 359.560183, 286.937143)" x="359.560183" y="286.937143">221</text>
   </g>
  </g>
  <g id="axes_20">
   <g id="patch_172">
    <path d="M 469.198804 342.308571 
L 556.875679 342.308571 
L 556.875679 292.937143 
L 469.198804 292.937143 
z
" style="fill:#b2b2b2;"/>
   </g>
   <g id="patch_173">
    <path clip-path="url(#pe4110edf6d)" d="M 472.702904 339.623405 
L 553.371578 339.623405 
L 553.371578 295.62231 
L 472.702904 295.62231 
z
" style="fill:none;stroke:#000000;stroke-linejoin:miter;stroke-width:0.5;"/>
   </g>
   <g id="patch_174">
    <path clip-path="url(#pe4110edf6d)" d="M 526.351729 329.657765 
C 527.022225 331.154033 528.051207 332.416311 529.212056 333.166598 
C 530.372904 333.916884 531.57084 334.093922 532.542033 333.658719 
C 533.513225 333.223516 534.17838 332.211606 534.391005 330.84585 
C 534.60363 329.480094 534.346365 327.872 533.67587 326.375732 
C 533.005375 324.879464 531.976392 323.617185 530.815544 322.866899 
C 529.654695 322.116612 528.456759 321.939575 527.485567 322.374778 
C 526.514374 322.80998 525.849219 323.821891 525.636594 325.187647 
C 525.423969 326.553403 525.681234 328.161497 526.351729 329.657765 
z
" style="fill:none;stroke:#ff0000;stroke-linejoin:miter;"/>
   </g>
   <g id="patch_175">
    <path clip-path="url(#pe4110edf6d)" d="M 472.702904 339.623405 
L 553.371578 339.623405 
L 553.371578 295.62231 
L 472.702904 295.62231 
z
" style="fill:none;stroke:#000000;stroke-linejoin:miter;stroke-width:0.5;"/>
   </g>
   <g id="patch_176">
    <path clip-path="url(#pe4110edf6d)" d="M 529.985663 331.478388 
C 530.688914 333.047752 531.795829 334.359299 533.062623 335.124176 
C 534.329417 335.889052 535.652663 336.04481 536.74093 335.557145 
C 537.829198 335.069479 538.593634 333.978207 538.865882 332.523667 
C 539.13813 331.069128 538.895962 329.370078 538.192711 327.800714 
C 537.489461 326.231349 536.382546 324.919802 535.115751 324.154926 
C 533.848957 323.390049 532.525711 323.234291 531.437444 323.721957 
C 530.349177 324.209622 529.58474 325.300894 529.312492 326.755434 
C 529.040244 328.209974 529.282413 329.909023 529.985663 331.478388 
z
" style="fill:none;stroke:#0000ff;stroke-linejoin:miter;"/>
   </g>
   <g id="matplotlib.axis_39"/>
   <g id="matplotlib.axis_40"/>
   <g id="patch_177">
    <path d="M 469.198804 342.308571 
L 469.198804 292.937143 
" style="fill:none;stroke:#000000;stroke-linecap:square;stroke-linejoin:miter;stroke-width:0.25;"/>
   </g>
   <g id="patch_178">
    <path d="M 556.875679 342.308571 
L 556.875679 292.937143 
" style="fill:none;stroke:#000000;stroke-linecap:square;stroke-linejoin:miter;stroke-width:0.25;"/>
   </g>
   <g id="patch_179">
    <path d="M 469.198804 342.308571 
L 556.875679 342.308571 
" style="fill:none;stroke:#000000;stroke-linecap:square;stroke-linejoin:miter;stroke-width:0.25;"/>
   </g>
   <g id="patch_180">
    <path d="M 469.198804 292.937143 
L 556.875679 292.937143 
" style="fill:none;stroke:#000000;stroke-linecap:square;stroke-linejoin:miter;stroke-width:0.25;"/>
   </g>
   <g id="text_20">
    <text style="font-family:DejaVu Sans;font-size:4px;font-stretch:normal;font-style:normal;font-weight:normal;text-anchor:start;" transform="rotate(-0, 469.198804, 286.937143)" x="469.198804" y="286.937143">331</text>
   </g>
  </g>
  <g id="axes_21">
   <g id="patch_181">
    <path d="M 30.644321 401.554286 
L 118.321196 401.554286 
L 118.321196 352.182857 
L 30.644321 352.182857 
z
" style="fill:#b2b2b2;"/>
   </g>
   <g id="patch_182">
    <path clip-path="url(#p25418c5f5f)" d="M 34.148422 398.869119 
L 114.817096 398.869119 
L 114.817096 354.868024 
L 34.148422 354.868024 
z
" style="fill:none;stroke:#000000;stroke-linejoin:miter;stroke-width:0.5;"/>
   </g>
   <g id="patch_183">
    <path clip-path="url(#p25418c5f5f)" d="M 86.199529 379.165219 
C 88.038955 377.553343 89.230511 375.353628 89.51177 373.050537 
C 89.793029 370.747445 89.141028 368.529015 87.699362 366.883828 
C 86.257696 365.238641 84.144072 364.301021 81.82399 364.277468 
C 79.503907 364.253914 77.166792 365.14635 75.327366 366.758226 
C 73.487939 368.370103 72.296383 370.569818 72.015124 372.872909 
C 71.733865 375.176 72.385866 377.394431 73.827532 379.039618 
C 75.269198 380.684804 77.382822 381.622424 79.702905 381.645978 
C 82.022987 381.669532 84.360102 380.777096 86.199529 379.165219 
z
" style="fill:none;stroke:#ff0000;stroke-linejoin:miter;"/>
   </g>
   <g id="patch_184">
    <path clip-path="url(#p25418c5f5f)" d="M 34.148422 398.869119 
L 114.817096 398.869119 
L 114.817096 354.868024 
L 34.148422 354.868024 
z
" style="fill:none;stroke:#000000;stroke-linejoin:miter;stroke-width:0.5;"/>
   </g>
   <g id="patch_185">
    <path clip-path="url(#p25418c5f5f)" d="M 90.066593 379.785649 
C 92.447281 377.699468 93.971662 374.832165 94.304008 371.815228 
C 94.636354 368.798292 93.749531 365.878042 91.838851 363.69763 
C 89.928171 361.517218 87.149633 360.254665 84.115178 360.188034 
C 81.080722 360.121403 78.038099 361.256133 75.657411 363.342314 
C 73.276723 365.428495 71.752342 368.295798 71.419996 371.312735 
C 71.08765 374.329672 71.974473 377.249921 73.885153 379.430333 
C 75.795833 381.610745 78.574371 382.873298 81.608826 382.939929 
C 84.643282 383.00656 87.685905 381.87183 90.066593 379.785649 
z
" style="fill:none;stroke:#0000ff;stroke-linejoin:miter;"/>
   </g>
   <g id="matplotlib.axis_41"/>
   <g id="matplotlib.axis_42"/>
   <g id="patch_186">
    <path d="M 30.644321 401.554286 
L 30.644321 352.182857 
" style="fill:none;stroke:#000000;stroke-linecap:square;stroke-linejoin:miter;stroke-width:0.25;"/>
   </g>
   <g id="patch_187">
    <path d="M 118.321196 401.554286 
L 118.321196 352.182857 
" style="fill:none;stroke:#000000;stroke-linecap:square;stroke-linejoin:miter;stroke-width:0.25;"/>
   </g>
   <g id="patch_188">
    <path d="M 30.644321 401.554286 
L 118.321196 401.554286 
" style="fill:none;stroke:#000000;stroke-linecap:square;stroke-linejoin:miter;stroke-width:0.25;"/>
   </g>
   <g id="patch_189">
    <path d="M 30.644321 352.182857 
L 118.321196 352.182857 
" style="fill:none;stroke:#000000;stroke-linecap:square;stroke-linejoin:miter;stroke-width:0.25;"/>
   </g>
   <g id="text_21">
    <text style="font-family:DejaVu Sans;font-size:4px;font-stretch:normal;font-style:normal;font-weight:normal;text-anchor:start;" transform="rotate(-0, 30.644321, 346.182857)" x="30.644321" y="346.182857">55</text>
   </g>
  </g>
  <g id="axes_22">
   <g id="patch_190">
    <path d="M 140.282942 401.554286 
L 227.959817 401.554286 
L 227.959817 352.182857 
L 140.282942 352.182857 
z
" style="fill:#b2b2b2;"/>
   </g>
   <g id="patch_191">
    <path clip-path="url(#p70f8807285)" d="M 143.787042 398.869119 
L 224.455716 398.869119 
L 224.455716 354.868024 
L 143.787042 354.868024 
z
" style="fill:none;stroke:#000000;stroke-linejoin:miter;stroke-width:0.5;"/>
   </g>
   <g id="patch_192">
    <path clip-path="url(#p70f8807285)" d="M 179.916346 388.772373 
C 182.135746 389.339359 184.43984 389.197026 186.321177 388.37672 
C 188.202515 387.556413 189.507493 386.125109 189.948705 384.398035 
C 190.389918 382.67096 189.931342 380.789124 188.673973 379.166978 
C 187.416605 377.544832 185.463102 376.314818 183.243702 375.747832 
C 181.024302 375.180846 178.720208 375.323179 176.83887 376.143485 
C 174.957533 376.963791 173.652555 378.395096 173.211342 380.12217 
C 172.77013 381.849244 173.228706 383.731081 174.486074 385.353227 
C 175.743443 386.975372 177.696945 388.205387 179.916346 388.772373 
z
" style="fill:none;stroke:#ff0000;stroke-linejoin:miter;"/>
   </g>
   <g id="patch_193">
    <path clip-path="url(#p70f8807285)" d="M 143.787042 398.869119 
L 224.455716 398.869119 
L 224.455716 354.868024 
L 143.787042 354.868024 
z
" style="fill:none;stroke:#000000;stroke-linejoin:miter;stroke-width:0.5;"/>
   </g>
   <g id="patch_194">
    <path clip-path="url(#p70f8807285)" d="M 178.466521 392.287582 
C 181.457884 393.05178 184.552168 392.9039 187.067893 391.876513 
C 189.583618 390.849125 191.315387 389.02611 191.881796 386.808966 
C 192.448206 384.591822 191.803013 382.161569 190.088312 380.053442 
C 188.373611 377.945315 185.729401 376.331433 182.738039 375.567234 
C 179.746676 374.803036 176.652392 374.950916 174.136667 375.978303 
C 171.620942 377.005691 169.889173 378.828706 169.322764 381.04585 
C 168.756354 383.262994 169.401547 385.693247 171.116248 387.801374 
C 172.830949 389.909501 175.475158 391.523383 178.466521 392.287582 
z
" style="fill:none;stroke:#0000ff;stroke-linejoin:miter;"/>
   </g>
   <g id="matplotlib.axis_43"/>
   <g id="matplotlib.axis_44"/>
   <g id="patch_195">
    <path d="M 140.282942 401.554286 
L 140.282942 352.182857 
" style="fill:none;stroke:#000000;stroke-linecap:square;stroke-linejoin:miter;stroke-width:0.25;"/>
   </g>
   <g id="patch_196">
    <path d="M 227.959817 401.554286 
L 227.959817 352.182857 
" style="fill:none;stroke:#000000;stroke-linecap:square;stroke-linejoin:miter;stroke-width:0.25;"/>
   </g>
   <g id="patch_197">
    <path d="M 140.282942 401.554286 
L 227.959817 401.554286 
" style="fill:none;stroke:#000000;stroke-linecap:square;stroke-linejoin:miter;stroke-width:0.25;"/>
   </g>
   <g id="patch_198">
    <path d="M 140.282942 352.182857 
L 227.959817 352.182857 
" style="fill:none;stroke:#000000;stroke-linecap:square;stroke-linejoin:miter;stroke-width:0.25;"/>
   </g>
   <g id="text_22">
    <text style="font-family:DejaVu Sans;font-size:4px;font-stretch:normal;font-style:normal;font-weight:normal;text-anchor:start;" transform="rotate(-0, 140.282942, 346.182857)" x="140.282942" y="346.182857">274</text>
   </g>
  </g>
  <g id="axes_23">
   <g id="patch_199">
    <path d="M 249.921562 401.554286 
L 337.598438 401.554286 
L 337.598438 352.182857 
L 249.921562 352.182857 
z
" style="fill:#b2b2b2;"/>
   </g>
   <g id="patch_200">
    <path clip-path="url(#p8f6995fb4c)" d="M 253.425663 398.869119 
L 334.094337 398.869119 
L 334.094337 354.868024 
L 253.425663 354.868024 
z
" style="fill:none;stroke:#000000;stroke-linejoin:miter;stroke-width:0.5;"/>
   </g>
   <g id="patch_201">
    <path clip-path="url(#p8f6995fb4c)" d="M 283.458264 389.987957 
C 287.041205 391.354561 290.762016 391.920436 293.80123 391.560953 
C 296.840445 391.201471 298.949926 389.945981 299.665083 388.070992 
C 300.380241 386.196004 299.642686 383.854599 297.614857 381.562447 
C 295.587027 379.270295 292.434487 377.214538 288.851546 375.847934 
C 285.268604 374.48133 281.547794 373.915456 278.508579 374.274938 
C 275.469364 374.63442 273.359884 375.88991 272.644726 377.764899 
C 271.929569 379.639888 272.667123 381.981292 274.694953 384.273444 
C 276.722782 386.565597 279.875322 388.621353 283.458264 389.987957 
z
" style="fill:none;stroke:#ff0000;stroke-linejoin:miter;"/>
   </g>
   <g id="patch_202">
    <path clip-path="url(#p8f6995fb4c)" d="M 253.425663 398.869119 
L 334.094337 398.869119 
L 334.094337 354.868024 
L 253.425663 354.868024 
z
" style="fill:none;stroke:#000000;stroke-linejoin:miter;stroke-width:0.5;"/>
   </g>
   <g id="patch_203">
    <path clip-path="url(#p8f6995fb4c)" d="M 280.060227 393.552724 
C 284.679642 395.314659 289.467994 396.067341 293.370704 395.645 
C 297.273414 395.222658 299.971844 393.659777 300.871695 391.300561 
C 301.771546 388.941345 300.79935 385.978414 298.169221 383.06432 
C 295.539093 380.150227 291.465771 377.522892 286.846356 375.760957 
C 282.226942 373.999021 277.43859 373.24634 273.535879 373.668681 
C 269.633169 374.091022 266.93474 375.653904 266.034889 378.01312 
C 265.135037 380.372336 266.107233 383.335266 268.737362 386.24936 
C 271.36749 389.163454 275.440813 391.790789 280.060227 393.552724 
z
" style="fill:none;stroke:#0000ff;stroke-linejoin:miter;"/>
   </g>
   <g id="matplotlib.axis_45"/>
   <g id="matplotlib.axis_46"/>
   <g id="patch_204">
    <path d="M 249.921562 401.554286 
L 249.921562 352.182857 
" style="fill:none;stroke:#000000;stroke-linecap:square;stroke-linejoin:miter;stroke-width:0.25;"/>
   </g>
   <g id="patch_205">
    <path d="M 337.598438 401.554286 
L 337.598438 352.182857 
" style="fill:none;stroke:#000000;stroke-linecap:square;stroke-linejoin:miter;stroke-width:0.25;"/>
   </g>
   <g id="patch_206">
    <path d="M 249.921562 401.554286 
L 337.598438 401.554286 
" style="fill:none;stroke:#000000;stroke-linecap:square;stroke-linejoin:miter;stroke-width:0.25;"/>
   </g>
   <g id="patch_207">
    <path d="M 249.921562 352.182857 
L 337.598438 352.182857 
" style="fill:none;stroke:#000000;stroke-linecap:square;stroke-linejoin:miter;stroke-width:0.25;"/>
   </g>
   <g id="text_23">
    <text style="font-family:DejaVu Sans;font-size:4px;font-stretch:normal;font-style:normal;font-weight:normal;text-anchor:start;" transform="rotate(-0, 249.921562, 346.182857)" x="249.921562" y="346.182857">270</text>
   </g>
  </g>
  <g id="axes_24">
   <g id="patch_208">
    <path d="M 359.560183 401.554286 
L 447.237058 401.554286 
L 447.237058 352.182857 
L 359.560183 352.182857 
z
" style="fill:#b2b2b2;"/>
   </g>
   <g id="patch_209">
    <path clip-path="url(#p17f89988a5)" d="M 363.064284 398.869119 
L 443.732958 398.869119 
L 443.732958 354.868024 
L 363.064284 354.868024 
z
" style="fill:none;stroke:#000000;stroke-linejoin:miter;stroke-width:0.5;"/>
   </g>
   <g id="patch_210">
    <path clip-path="url(#p17f89988a5)" d="M 411.154554 380.859247 
C 412.765932 380.517299 414.08978 379.144352 414.834536 377.04278 
C 415.579292 374.941209 415.68415 372.282597 415.126016 369.652474 
C 414.567882 367.022351 413.392326 364.635454 411.858249 363.01747 
C 410.324173 361.399486 408.556827 360.682515 406.945449 361.024463 
C 405.334072 361.36641 404.010224 362.739358 403.265468 364.840929 
C 402.520712 366.9425 402.415854 369.601112 402.973987 372.231235 
C 403.532121 374.861358 404.707677 377.248255 406.241754 378.866239 
C 407.77583 380.484224 409.543176 381.201194 411.154554 380.859247 
z
" style="fill:none;stroke:#ff0000;stroke-linejoin:miter;"/>
   </g>
   <g id="patch_211">
    <path clip-path="url(#p17f89988a5)" d="M 363.064284 398.869119 
L 443.732958 398.869119 
L 443.732958 354.868024 
L 363.064284 354.868024 
z
" style="fill:none;stroke:#000000;stroke-linejoin:miter;stroke-width:0.5;"/>
   </g>
   <g id="patch_212">
    <path clip-path="url(#p17f89988a5)" d="M 413.661393 381.832441 
C 415.783394 381.382135 417.530852 379.593446 418.51891 376.860312 
C 419.506968 374.127179 419.654955 370.672748 418.930279 367.257819 
C 418.205603 363.84289 416.66743 360.746277 414.654526 358.649972 
C 412.641621 356.553667 410.318329 355.628825 408.196328 356.079131 
C 406.074327 356.529437 404.326869 358.318126 403.338811 361.05126 
C 402.350753 363.784394 402.202766 367.238824 402.927442 370.653753 
C 403.652118 374.068682 405.190291 377.165295 407.203195 379.2616 
C 409.2161 381.357905 411.539392 382.282747 413.661393 381.832441 
z
" style="fill:none;stroke:#0000ff;stroke-linejoin:miter;"/>
   </g>
   <g id="matplotlib.axis_47"/>
   <g id="matplotlib.axis_48"/>
   <g id="patch_213">
    <path d="M 359.560183 401.554286 
L 359.560183 352.182857 
" style="fill:none;stroke:#000000;stroke-linecap:square;stroke-linejoin:miter;stroke-width:0.25;"/>
   </g>
   <g id="patch_214">
    <path d="M 447.237058 401.554286 
L 447.237058 352.182857 
" style="fill:none;stroke:#000000;stroke-linecap:square;stroke-linejoin:miter;stroke-width:0.25;"/>
   </g>
   <g id="patch_215">
    <path d="M 359.560183 401.554286 
L 447.237058 401.554286 
" style="fill:none;stroke:#000000;stroke-linecap:square;stroke-linejoin:miter;stroke-width:0.25;"/>
   </g>
   <g id="patch_216">
    <path d="M 359.560183 352.182857 
L 447.237058 352.182857 
" style="fill:none;stroke:#000000;stroke-linecap:square;stroke-linejoin:miter;stroke-width:0.25;"/>
   </g>
   <g id="text_24">
    <text style="font-family:DejaVu Sans;font-size:4px;font-stretch:normal;font-style:normal;font-weight:normal;text-anchor:start;" transform="rotate(-0, 359.560183, 346.182857)" x="359.560183" y="346.182857">243</text>
   </g>
  </g>
  <g id="axes_25">
   <g id="patch_217">
    <path d="M 469.198804 401.554286 
L 556.875679 401.554286 
L 556.875679 352.182857 
L 469.198804 352.182857 
z
" style="fill:#b2b2b2;"/>
   </g>
   <g id="patch_218">
    <path clip-path="url(#pc3b317fb53)" d="M 472.702904 398.869119 
L 553.371578 398.869119 
L 553.371578 354.868024 
L 472.702904 354.868024 
z
" style="fill:none;stroke:#000000;stroke-linejoin:miter;stroke-width:0.5;"/>
   </g>
   <g id="patch_219">
    <path clip-path="url(#pc3b317fb53)" d="M 520.969322 384.369033 
C 523.251597 384.462422 525.474666 383.722004 527.148924 382.310847 
C 528.823182 380.89969 529.811933 378.933009 529.897417 376.843942 
C 529.9829 374.754875 529.158137 372.713986 527.60477 371.170756 
C 526.051404 369.627526 523.896261 368.707954 521.613986 368.614565 
C 519.331711 368.521176 517.108642 369.261594 515.434384 370.672751 
C 513.760126 372.083908 512.771375 374.050589 512.685891 376.139656 
C 512.600408 378.228723 513.425171 380.269612 514.978538 381.812842 
C 516.531904 383.356071 518.687047 384.275643 520.969322 384.369033 
z
" style="fill:none;stroke:#ff0000;stroke-linejoin:miter;"/>
   </g>
   <g id="patch_220">
    <path clip-path="url(#pc3b317fb53)" d="M 472.702904 398.869119 
L 553.371578 398.869119 
L 553.371578 354.868024 
L 472.702904 354.868024 
z
" style="fill:none;stroke:#000000;stroke-linejoin:miter;stroke-width:0.5;"/>
   </g>
   <g id="patch_221">
    <path clip-path="url(#pc3b317fb53)" d="M 523.528143 386.780196 
C 526.418132 386.898452 529.235237 385.909851 531.359025 384.032119 
C 533.482813 382.154387 534.739885 379.540833 534.853386 376.767063 
C 534.966888 373.993292 533.927551 371.285771 531.964278 369.240799 
C 530.001005 367.195826 527.274088 365.980367 524.3841 365.86211 
C 521.494111 365.743853 518.677006 366.732455 516.553218 368.610187 
C 514.42943 370.487918 513.172357 373.101472 513.058856 375.875243 
C 512.945355 378.649013 513.984692 381.356535 515.947965 383.401507 
C 517.911238 385.446479 520.638155 386.661939 523.528143 386.780196 
z
" style="fill:none;stroke:#0000ff;stroke-linejoin:miter;"/>
   </g>
   <g id="matplotlib.axis_49"/>
   <g id="matplotlib.axis_50"/>
   <g id="patch_222">
    <path d="M 469.198804 401.554286 
L 469.198804 352.182857 
" style="fill:none;stroke:#000000;stroke-linecap:square;stroke-linejoin:miter;stroke-width:0.25;"/>
   </g>
   <g id="patch_223">
    <path d="M 556.875679 401.554286 
L 556.875679 352.182857 
" style="fill:none;stroke:#000000;stroke-linecap:square;stroke-linejoin:miter;stroke-width:0.25;"/>
   </g>
   <g id="patch_224">
    <path d="M 469.198804 401.554286 
L 556.875679 401.554286 
" style="fill:none;stroke:#000000;stroke-linecap:square;stroke-linejoin:miter;stroke-width:0.25;"/>
   </g>
   <g id="patch_225">
    <path d="M 469.198804 352.182857 
L 556.875679 352.182857 
" style="fill:none;stroke:#000000;stroke-linecap:square;stroke-linejoin:miter;stroke-width:0.25;"/>
   </g>
   <g id="text_25">
    <text style="font-family:DejaVu Sans;font-size:4px;font-stretch:normal;font-style:normal;font-weight:normal;text-anchor:start;" transform="rotate(-0, 469.198804, 346.182857)" x="469.198804" y="346.182857">251</text>
   </g>
  </g>
  <g id="axes_26">
   <g id="patch_226">
    <path d="M 30.644321 460.8 
L 118.321196 460.8 
L 118.321196 411.428571 
L 30.644321 411.428571 
z
" style="fill:#b2b2b2;"/>
   </g>
   <g id="patch_227">
    <path clip-path="url(#pe16bb67ef1)" d="M 34.148422 458.114833 
L 114.817096 458.114833 
L 114.817096 414.113738 
L 34.148422 414.113738 
z
" style="fill:none;stroke:#000000;stroke-linejoin:miter;stroke-width:0.5;"/>
   </g>
   <g id="patch_228">
    <path clip-path="url(#pe16bb67ef1)" d="M 99.737005 453.82828 
C 103.773165 454.436601 107.774947 454.154975 110.861003 453.045427 
C 113.947059 451.935879 115.865427 450.088998 116.193608 447.911539 
C 116.52179 445.73408 115.232991 443.403823 112.611054 441.433979 
C 109.989117 439.464135 106.248112 438.015534 102.211951 437.407213 
C 98.175791 436.798892 94.174009 437.080517 91.087953 438.190066 
C 88.001897 439.299614 86.083529 441.146494 85.755347 443.323953 
C 85.427166 445.501412 86.715965 447.83167 89.337902 449.801514 
C 91.959839 451.771358 95.700844 453.219959 99.737005 453.82828 
z
" style="fill:none;stroke:#ff0000;stroke-linejoin:miter;"/>
   </g>
   <g id="patch_229">
    <path clip-path="url(#pe16bb67ef1)" d="M 34.148422 458.114833 
L 114.817096 458.114833 
L 114.817096 414.113738 
L 34.148422 414.113738 
z
" style="fill:none;stroke:#000000;stroke-linejoin:miter;stroke-width:0.5;"/>
   </g>
   <g id="patch_230">
    <path clip-path="url(#pe16bb67ef1)" d="M 103.065346 453.703432 
C 106.228545 454.180182 109.388287 453.803637 111.848675 452.656727 
C 114.309063 451.509817 115.869218 449.686181 116.185534 447.587455 
C 116.501849 445.488728 115.548499 443.286263 113.535448 441.465126 
C 111.522397 439.643989 108.614002 438.352868 105.450803 437.876118 
C 102.287604 437.399367 99.127861 437.775912 96.667473 438.922823 
C 94.207085 440.069733 92.64693 441.893369 92.330615 443.992095 
C 92.014299 446.090821 92.967649 448.293287 94.9807 450.114424 
C 96.993751 451.935561 99.902146 453.226682 103.065346 453.703432 
z
" style="fill:none;stroke:#0000ff;stroke-linejoin:miter;"/>
   </g>
   <g id="matplotlib.axis_51"/>
   <g id="matplotlib.axis_52"/>
   <g id="patch_231">
    <path d="M 30.644321 460.8 
L 30.644321 411.428571 
" style="fill:none;stroke:#000000;stroke-linecap:square;stroke-linejoin:miter;stroke-width:0.25;"/>
   </g>
   <g id="patch_232">
    <path d="M 118.321196 460.8 
L 118.321196 411.428571 
" style="fill:none;stroke:#000000;stroke-linecap:square;stroke-linejoin:miter;stroke-width:0.25;"/>
   </g>
   <g id="patch_233">
    <path d="M 30.644321 460.8 
L 118.321196 460.8 
" style="fill:none;stroke:#000000;stroke-linecap:square;stroke-linejoin:miter;stroke-width:0.25;"/>
   </g>
   <g id="patch_234">
    <path d="M 30.644321 411.428571 
L 118.321196 411.428571 
" style="fill:none;stroke:#000000;stroke-linecap:square;stroke-linejoin:miter;stroke-width:0.25;"/>
   </g>
   <g id="text_26">
    <text style="font-family:DejaVu Sans;font-size:4px;font-stretch:normal;font-style:normal;font-weight:normal;text-anchor:start;" transform="rotate(-0, 30.644321, 405.428571)" x="30.644321" y="405.428571">336</text>
   </g>
  </g>
  <g id="axes_27">
   <g id="patch_235">
    <path d="M 140.282942 460.8 
L 227.959817 460.8 
L 227.959817 411.428571 
L 140.282942 411.428571 
z
" style="fill:#b2b2b2;"/>
   </g>
   <g id="patch_236">
    <path clip-path="url(#pa4cec6b594)" d="M 143.787042 458.114833 
L 224.455716 458.114833 
L 224.455716 414.113738 
L 143.787042 414.113738 
z
" style="fill:none;stroke:#000000;stroke-linejoin:miter;stroke-width:0.5;"/>
   </g>
   <g id="patch_237">
    <path clip-path="url(#pa4cec6b594)" d="M 204.420299 444.404224 
C 205.747367 443.08307 206.667598 441.461608 206.978321 439.896946 
C 207.289043 438.332284 206.96489 436.952169 206.07725 436.060556 
C 205.189611 435.168943 203.810958 434.838629 202.244923 435.14236 
C 200.678889 435.446092 199.053333 436.359071 197.726265 437.680225 
C 196.399197 439.001379 195.478967 440.622841 195.168244 442.187503 
C 194.857521 443.752165 195.181675 445.13228 196.069314 446.023893 
C 196.956953 446.915506 198.335606 447.24582 199.901641 446.942089 
C 201.467675 446.638357 203.093231 445.725378 204.420299 444.404224 
z
" style="fill:none;stroke:#ff0000;stroke-linejoin:miter;"/>
   </g>
   <g id="patch_238">
    <path clip-path="url(#pa4cec6b594)" d="M 143.787042 458.114833 
L 224.455716 458.114833 
L 224.455716 414.113738 
L 143.787042 414.113738 
z
" style="fill:none;stroke:#000000;stroke-linejoin:miter;stroke-width:0.5;"/>
   </g>
   <g id="patch_239">
    <path clip-path="url(#pa4cec6b594)" d="M 208.55771 445.205704 
C 210.066603 443.703536 211.154667 441.901851 211.582269 440.197449 
C 212.009871 438.493048 211.742099 437.025086 210.837927 436.116867 
C 209.933755 435.208648 208.467005 434.934322 206.76071 435.354307 
C 205.054416 435.774293 203.247889 436.854299 201.738997 438.356467 
C 200.230104 439.858635 199.14204 441.66032 198.714438 443.364722 
C 198.286836 445.069123 198.554608 446.537085 199.45878 447.445304 
C 200.362952 448.353523 201.829702 448.627849 203.535997 448.207864 
C 205.242291 447.787878 207.048818 446.707872 208.55771 445.205704 
z
" style="fill:none;stroke:#0000ff;stroke-linejoin:miter;"/>
   </g>
   <g id="matplotlib.axis_53"/>
   <g id="matplotlib.axis_54"/>
   <g id="patch_240">
    <path d="M 140.282942 460.8 
L 140.282942 411.428571 
" style="fill:none;stroke:#000000;stroke-linecap:square;stroke-linejoin:miter;stroke-width:0.25;"/>
   </g>
   <g id="patch_241">
    <path d="M 227.959817 460.8 
L 227.959817 411.428571 
" style="fill:none;stroke:#000000;stroke-linecap:square;stroke-linejoin:miter;stroke-width:0.25;"/>
   </g>
   <g id="patch_242">
    <path d="M 140.282942 460.8 
L 227.959817 460.8 
" style="fill:none;stroke:#000000;stroke-linecap:square;stroke-linejoin:miter;stroke-width:0.25;"/>
   </g>
   <g id="patch_243">
    <path d="M 140.282942 411.428571 
L 227.959817 411.428571 
" style="fill:none;stroke:#000000;stroke-linecap:square;stroke-linejoin:miter;stroke-width:0.25;"/>
   </g>
   <g id="text_27">
    <text style="font-family:DejaVu Sans;font-size:4px;font-stretch:normal;font-style:normal;font-weight:normal;text-anchor:start;" transform="rotate(-0, 140.282942, 405.428571)" x="140.282942" y="405.428571">327</text>
   </g>
  </g>
  <g id="axes_28">
   <g id="patch_244">
    <path d="M 249.921562 460.8 
L 337.598438 460.8 
L 337.598438 411.428571 
L 249.921562 411.428571 
z
" style="fill:#b2b2b2;"/>
   </g>
   <g id="patch_245">
    <path clip-path="url(#pcd81fbbd6f)" d="M 253.425663 458.114833 
L 334.094337 458.114833 
L 334.094337 414.113738 
L 253.425663 414.113738 
z
" style="fill:none;stroke:#000000;stroke-linejoin:miter;stroke-width:0.5;"/>
   </g>
   <g id="patch_246">
    <path clip-path="url(#pcd81fbbd6f)" d="M 288.929664 457.50709 
C 290.221196 459.361435 292.565444 460.370153 295.446115 460.311086 
C 298.326786 460.252019 301.508685 459.129989 304.291038 457.19211 
C 307.07339 455.254232 309.229028 452.658723 310.283197 449.977216 
C 311.337367 447.295709 311.203999 444.747136 309.912468 442.892791 
C 308.620936 441.038446 306.276688 440.029727 303.396017 440.088795 
C 300.515346 440.147862 297.333446 441.269892 294.551094 443.207771 
C 291.768742 445.145649 289.613104 447.741157 288.558934 450.422665 
C 287.504765 453.104172 287.638132 455.652745 288.929664 457.50709 
z
" style="fill:none;stroke:#ff0000;stroke-linejoin:miter;"/>
   </g>
   <g id="patch_247">
    <path clip-path="url(#pcd81fbbd6f)" d="M 253.425663 458.114833 
L 334.094337 458.114833 
L 334.094337 414.113738 
L 253.425663 414.113738 
z
" style="fill:none;stroke:#000000;stroke-linejoin:miter;stroke-width:0.5;"/>
   </g>
   <g id="patch_248">
    <path clip-path="url(#pcd81fbbd6f)" d="M 287.86222 463.056335 
C 289.353365 465.19728 292.199875 466.264431 295.77484 466.022761 
C 299.349804 465.781091 303.361342 464.25033 306.92596 461.767612 
C 310.490578 459.284894 313.31724 456.05292 314.783406 452.783497 
C 316.249573 449.514073 316.235538 446.474133 314.744392 444.333188 
C 313.253247 442.192243 310.406737 441.125092 306.831772 441.366762 
C 303.256808 441.608433 299.245269 443.139193 295.680652 445.621911 
C 292.116034 448.10463 289.289372 451.336603 287.823206 454.606027 
C 286.357039 457.87545 286.371074 460.91539 287.86222 463.056335 
z
" style="fill:none;stroke:#0000ff;stroke-linejoin:miter;"/>
   </g>
   <g id="matplotlib.axis_55"/>
   <g id="matplotlib.axis_56"/>
   <g id="patch_249">
    <path d="M 249.921562 460.8 
L 249.921562 411.428571 
" style="fill:none;stroke:#000000;stroke-linecap:square;stroke-linejoin:miter;stroke-width:0.25;"/>
   </g>
   <g id="patch_250">
    <path d="M 337.598438 460.8 
L 337.598438 411.428571 
" style="fill:none;stroke:#000000;stroke-linecap:square;stroke-linejoin:miter;stroke-width:0.25;"/>
   </g>
   <g id="patch_251">
    <path d="M 249.921562 460.8 
L 337.598438 460.8 
" style="fill:none;stroke:#000000;stroke-linecap:square;stroke-linejoin:miter;stroke-width:0.25;"/>
   </g>
   <g id="patch_252">
    <path d="M 249.921562 411.428571 
L 337.598438 411.428571 
" style="fill:none;stroke:#000000;stroke-linecap:square;stroke-linejoin:miter;stroke-width:0.25;"/>
   </g>
   <g id="text_28">
    <text style="font-family:DejaVu Sans;font-size:4px;font-stretch:normal;font-style:normal;font-weight:normal;text-anchor:start;" transform="rotate(-0, 249.921562, 405.428571)" x="249.921562" y="405.428571">524</text>
   </g>
  </g>
  <g id="axes_29">
   <g id="patch_253">
    <path d="M 359.560183 460.8 
L 447.237058 460.8 
L 447.237058 411.428571 
L 359.560183 411.428571 
z
" style="fill:#b2b2b2;"/>
   </g>
   <g id="patch_254">
    <path clip-path="url(#p78f46f7611)" d="M 363.064284 458.114833 
L 443.732958 458.114833 
L 443.732958 414.113738 
L 363.064284 414.113738 
z
" style="fill:none;stroke:#000000;stroke-linejoin:miter;stroke-width:0.5;"/>
   </g>
   <g id="patch_255">
    <path clip-path="url(#p78f46f7611)" d="M 413.239003 453.797359 
C 414.791491 452.280588 415.827791 450.362262 416.119669 448.46487 
C 416.411548 446.567477 415.935175 444.845932 414.795466 443.679385 
C 413.655756 442.512837 411.945763 441.996531 410.042092 442.244176 
C 408.138421 442.491822 406.196499 443.483199 404.644011 444.99997 
C 403.091522 446.516741 402.055223 448.435067 401.763344 450.33246 
C 401.471465 452.229852 401.947838 453.951397 403.087548 455.117945 
C 404.227257 456.284492 405.93725 456.800798 407.840921 456.553153 
C 409.744592 456.305508 411.686515 455.31413 413.239003 453.797359 
z
" style="fill:none;stroke:#ff0000;stroke-linejoin:miter;"/>
   </g>
   <g id="patch_256">
    <path clip-path="url(#p78f46f7611)" d="M 363.064284 458.114833 
L 443.732958 458.114833 
L 443.732958 414.113738 
L 363.064284 414.113738 
z
" style="fill:none;stroke:#000000;stroke-linejoin:miter;stroke-width:0.5;"/>
   </g>
   <g id="patch_257">
    <path clip-path="url(#p78f46f7611)" d="M 415.954106 458.115699 
C 417.909463 456.205328 419.240083 453.815197 419.652912 451.471706 
C 420.065741 449.128215 419.527074 447.022698 418.155545 445.618872 
C 416.784016 444.215046 414.691605 443.627527 412.339142 443.985709 
C 409.986678 444.343891 407.56623 445.61853 405.610872 447.528901 
C 403.655515 449.439273 402.324895 451.829403 401.912066 454.172895 
C 401.499237 456.516386 402.037904 458.621903 403.409433 460.025728 
C 404.780962 461.429554 406.873373 462.017073 409.225837 461.658892 
C 411.5783 461.30071 413.998749 460.026071 415.954106 458.115699 
z
" style="fill:none;stroke:#0000ff;stroke-linejoin:miter;"/>
   </g>
   <g id="matplotlib.axis_57"/>
   <g id="matplotlib.axis_58"/>
   <g id="patch_258">
    <path d="M 359.560183 460.8 
L 359.560183 411.428571 
" style="fill:none;stroke:#000000;stroke-linecap:square;stroke-linejoin:miter;stroke-width:0.25;"/>
   </g>
   <g id="patch_259">
    <path d="M 447.237058 460.8 
L 447.237058 411.428571 
" style="fill:none;stroke:#000000;stroke-linecap:square;stroke-linejoin:miter;stroke-width:0.25;"/>
   </g>
   <g id="patch_260">
    <path d="M 359.560183 460.8 
L 447.237058 460.8 
" style="fill:none;stroke:#000000;stroke-linecap:square;stroke-linejoin:miter;stroke-width:0.25;"/>
   </g>
   <g id="patch_261">
    <path d="M 359.560183 411.428571 
L 447.237058 411.428571 
" style="fill:none;stroke:#000000;stroke-linecap:square;stroke-linejoin:miter;stroke-width:0.25;"/>
   </g>
   <g id="text_29">
    <text style="font-family:DejaVu Sans;font-size:4px;font-stretch:normal;font-style:normal;font-weight:normal;text-anchor:start;" transform="rotate(-0, 359.560183, 405.428571)" x="359.560183" y="405.428571">302</text>
   </g>
  </g>
  <g id="axes_30">
   <g id="patch_262">
    <path d="M 469.198804 460.8 
L 556.875679 460.8 
L 556.875679 411.428571 
L 469.198804 411.428571 
z
" style="fill:#b2b2b2;"/>
   </g>
   <g id="patch_263">
    <path clip-path="url(#p06731f9f21)" d="M 472.702904 458.114833 
L 553.371578 458.114833 
L 553.371578 414.113738 
L 472.702904 414.113738 
z
" style="fill:none;stroke:#000000;stroke-linejoin:miter;stroke-width:0.5;"/>
   </g>
   <g id="patch_264">
    <path clip-path="url(#p06731f9f21)" d="M 530.835647 442.811761 
C 535.591595 443.791226 540.25805 444.22252 543.80728 444.010657 
C 547.356511 443.798793 549.498737 442.961069 549.762158 441.681984 
C 550.02558 440.402899 548.38869 438.786884 545.211994 437.189847 
C 542.035298 435.592811 537.57816 434.145145 532.822212 433.16568 
C 528.066264 432.186215 523.399809 431.75492 519.850578 431.966784 
C 516.301348 432.178647 514.159122 433.016371 513.895701 434.295457 
C 513.632279 435.574542 515.269169 437.190557 518.445865 438.787593 
C 521.622561 440.38463 526.079699 441.832296 530.835647 442.811761 
z
" style="fill:none;stroke:#ff0000;stroke-linejoin:miter;"/>
   </g>
   <g id="patch_265">
    <path clip-path="url(#p06731f9f21)" d="M 472.702904 458.114833 
L 553.371578 458.114833 
L 553.371578 414.113738 
L 472.702904 414.113738 
z
" style="fill:none;stroke:#000000;stroke-linejoin:miter;stroke-width:0.5;"/>
   </g>
   <g id="patch_266">
    <path clip-path="url(#p06731f9f21)" d="M 534.736158 443.885225 
C 539.489427 444.864138 544.174192 445.193516 547.758689 444.800817 
C 551.343186 444.408117 553.534757 443.325403 553.850734 441.791129 
C 554.16671 440.256855 552.581294 438.396288 549.443655 436.619196 
C 546.306016 434.842104 541.872328 433.29358 537.11906 432.314667 
C 532.365792 431.335753 527.681027 431.006376 524.096529 431.399075 
C 520.512032 431.791775 518.320461 432.874489 518.004485 434.408763 
C 517.688508 435.943037 519.273924 437.803604 522.411563 439.580696 
C 525.549202 441.357788 529.98289 442.906312 534.736158 443.885225 
z
" style="fill:none;stroke:#0000ff;stroke-linejoin:miter;"/>
   </g>
   <g id="matplotlib.axis_59"/>
   <g id="matplotlib.axis_60"/>
   <g id="patch_267">
    <path d="M 469.198804 460.8 
L 469.198804 411.428571 
" style="fill:none;stroke:#000000;stroke-linecap:square;stroke-linejoin:miter;stroke-width:0.25;"/>
   </g>
   <g id="patch_268">
    <path d="M 556.875679 460.8 
L 556.875679 411.428571 
" style="fill:none;stroke:#000000;stroke-linecap:square;stroke-linejoin:miter;stroke-width:0.25;"/>
   </g>
   <g id="patch_269">
    <path d="M 469.198804 460.8 
L 556.875679 460.8 
" style="fill:none;stroke:#000000;stroke-linecap:square;stroke-linejoin:miter;stroke-width:0.25;"/>
   </g>
   <g id="patch_270">
    <path d="M 469.198804 411.428571 
L 556.875679 411.428571 
" style="fill:none;stroke:#000000;stroke-linecap:square;stroke-linejoin:miter;stroke-width:0.25;"/>
   </g>
   <g id="text_30">
    <text style="font-family:DejaVu Sans;font-size:4px;font-stretch:normal;font-style:normal;font-weight:normal;text-anchor:start;" transform="rotate(-0, 469.198804, 405.428571)" x="469.198804" y="405.428571">21</text>
   </g>
  </g>
  <g id="text_31">
   <text style="font-family:DejaVu Sans;font-size:6px;font-stretch:normal;font-style:normal;font-weight:normal;text-anchor:start;" transform="rotate(-0, 28.8, 57.6)" x="28.8" y="57.6">Li, 20190614_JC091_fov1 (top 30 cells). R=orig, B=corr.</text>
  </g>
  <g id="text_32">
   <text style="font-family:DejaVu Sans;font-size:8px;font-stretch:normal;font-style:normal;font-weight:normal;text-anchor:start;" transform="rotate(-0, 0, 6.11375)" x="0" y="6.11375">JC091|20190614|FOV1_zoom2p0x|rfs10|traces001|fit-2dgaus_dff_sphr</text>
  </g>
 </g>
 <defs>
  <clipPath id="pd61db72f26">
   <rect height="49.371429" width="87.676875" x="30.644321" y="115.2"/>
  </clipPath>
  <clipPath id="pa7a1fb3107">
   <rect height="49.371429" width="87.676875" x="140.282942" y="115.2"/>
  </clipPath>
  <clipPath id="p20b9e03019">
   <rect height="49.371429" width="87.676875" x="249.921562" y="115.2"/>
  </clipPath>
  <clipPath id="pce4a9ccded">
   <rect height="49.371429" width="87.676875" x="359.560183" y="115.2"/>
  </clipPath>
  <clipPath id="p71e6edda55">
   <rect height="49.371429" width="87.676875" x="469.198804" y="115.2"/>
  </clipPath>
  <clipPath id="p2421e4416f">
   <rect height="49.371429" width="87.676875" x="30.644321" y="174.445714"/>
  </clipPath>
  <clipPath id="p0f3a5e6389">
   <rect height="49.371429" width="87.676875" x="140.282942" y="174.445714"/>
  </clipPath>
  <clipPath id="p2327c4d88e">
   <rect height="49.371429" width="87.676875" x="249.921562" y="174.445714"/>
  </clipPath>
  <clipPath id="pde2d362fe9">
   <rect height="49.371429" width="87.676875" x="359.560183" y="174.445714"/>
  </clipPath>
  <clipPath id="p36f147f9c5">
   <rect height="49.371429" width="87.676875" x="469.198804" y="174.445714"/>
  </clipPath>
  <clipPath id="pf805def01f">
   <rect height="49.371429" width="87.676875" x="30.644321" y="233.691429"/>
  </clipPath>
  <clipPath id="pd8c5176d4b">
   <rect height="49.371429" width="87.676875" x="140.282942" y="233.691429"/>
  </clipPath>
  <clipPath id="pfa03c49721">
   <rect height="49.371429" width="87.676875" x="249.921562" y="233.691429"/>
  </clipPath>
  <clipPath id="p0b78d88415">
   <rect height="49.371429" width="87.676875" x="359.560183" y="233.691429"/>
  </clipPath>
  <clipPath id="p01b1cb85dd">
   <rect height="49.371429" width="87.676875" x="469.198804" y="233.691429"/>
  </clipPath>
  <clipPath id="pf88deabf69">
   <rect height="49.371429" width="87.676875" x="30.644321" y="292.937143"/>
  </clipPath>
  <clipPath id="pe104faf9e3">
   <rect height="49.371429" width="87.676875" x="140.282942" y="292.937143"/>
  </clipPath>
  <clipPath id="pe04b74587e">
   <rect height="49.371429" width="87.676875" x="249.921562" y="292.937143"/>
  </clipPath>
  <clipPath id="p9cb249dcea">
   <rect height="49.371429" width="87.676875" x="359.560183" y="292.937143"/>
  </clipPath>
  <clipPath id="pe4110edf6d">
   <rect height="49.371429" width="87.676875" x="469.198804" y="292.937143"/>
  </clipPath>
  <clipPath id="p25418c5f5f">
   <rect height="49.371429" width="87.676875" x="30.644321" y="352.182857"/>
  </clipPath>
  <clipPath id="p70f8807285">
   <rect height="49.371429" width="87.676875" x="140.282942" y="352.182857"/>
  </clipPath>
  <clipPath id="p8f6995fb4c">
   <rect height="49.371429" width="87.676875" x="249.921562" y="352.182857"/>
  </clipPath>
  <clipPath id="p17f89988a5">
   <rect height="49.371429" width="87.676875" x="359.560183" y="352.182857"/>
  </clipPath>
  <clipPath id="pc3b317fb53">
   <rect height="49.371429" width="87.676875" x="469.198804" y="352.182857"/>
  </clipPath>
  <clipPath id="pe16bb67ef1">
   <rect height="49.371429" width="87.676875" x="30.644321" y="411.428571"/>
  </clipPath>
  <clipPath id="pa4cec6b594">
   <rect height="49.371429" width="87.676875" x="140.282942" y="411.428571"/>
  </clipPath>
  <clipPath id="pcd81fbbd6f">
   <rect height="49.371429" width="87.676875" x="249.921562" y="411.428571"/>
  </clipPath>
  <clipPath id="p78f46f7611">
   <rect height="49.371429" width="87.676875" x="359.560183" y="411.428571"/>
  </clipPath>
  <clipPath id="p06731f9f21">
   <rect height="49.371429" width="87.676875" x="469.198804" y="411.428571"/>
  </clipPath>
 </defs>
</svg>
