<?xml version="1.0" encoding="utf-8" standalone="no"?>
<!DOCTYPE svg PUBLIC "-//W3C//DTD SVG 1.1//EN"
  "http://www.w3.org/Graphics/SVG/1.1/DTD/svg11.dtd">
<!-- Created with matplotlib (https://matplotlib.org/) -->
<svg height="288pt" version="1.1" viewBox="0 0 360 288" width="360pt" xmlns="http://www.w3.org/2000/svg" xmlns:xlink="http://www.w3.org/1999/xlink">
 <metadata>
  <rdf:RDF xmlns:cc="http://creativecommons.org/ns#" xmlns:dc="http://purl.org/dc/elements/1.1/" xmlns:rdf="http://www.w3.org/1999/02/22-rdf-syntax-ns#">
   <cc:Work>
    <dc:type rdf:resource="http://purl.org/dc/dcmitype/StillImage"/>
    <dc:date>2021-04-23T18:55:32.044928</dc:date>
    <dc:format>image/svg+xml</dc:format>
    <dc:creator>
     <cc:Agent>
      <dc:title>Matplotlib v3.3.4, https://matplotlib.org/</dc:title>
     </cc:Agent>
    </dc:creator>
   </cc:Work>
  </rdf:RDF>
 </metadata>
 <defs>
  <style type="text/css">*{stroke-linecap:butt;stroke-linejoin:round;}</style>
 </defs>
 <g id="figure_1">
  <g id="patch_1">
   <path d="M 0 288 
L 360 288 
L 360 0 
L 0 0 
z
" style="fill:#ffffff;"/>
  </g>
  <g id="axes_1">
   <g id="patch_2">
    <path d="M 45 256.32 
L 324 256.32 
L 324 34.56 
L 45 34.56 
z
" style="fill:#ffffff;"/>
   </g>
   <g id="patch_3">
    <path clip-path="url(#pa49c5af7ae)" d="M 57.681818 256.32 
L 89.386364 256.32 
L 89.386364 256.32 
L 57.681818 256.32 
z
" style="fill:#0e3956;stroke:#000000;stroke-linejoin:miter;stroke-width:0.25;"/>
   </g>
   <g id="patch_4">
    <path clip-path="url(#pa49c5af7ae)" d="M 89.386364 256.32 
L 121.090909 256.32 
L 121.090909 256.32 
L 89.386364 256.32 
z
" style="fill:#0e3956;stroke:#000000;stroke-linejoin:miter;stroke-width:0.25;"/>
   </g>
   <g id="patch_5">
    <path clip-path="url(#pa49c5af7ae)" d="M 121.090909 256.32 
L 152.795455 256.32 
L 152.795455 256.32 
L 121.090909 256.32 
z
" style="fill:#0e3956;stroke:#000000;stroke-linejoin:miter;stroke-width:0.25;"/>
   </g>
   <g id="patch_6">
    <path clip-path="url(#pa49c5af7ae)" d="M 152.795455 256.32 
L 184.5 256.32 
L 184.5 256.32 
L 152.795455 256.32 
z
" style="fill:#0e3956;stroke:#000000;stroke-linejoin:miter;stroke-width:0.25;"/>
   </g>
   <g id="patch_7">
    <path clip-path="url(#pa49c5af7ae)" d="M 184.5 256.32 
L 216.204545 256.32 
L 216.204545 256.32 
L 184.5 256.32 
z
" style="fill:#0e3956;stroke:#000000;stroke-linejoin:miter;stroke-width:0.25;"/>
   </g>
   <g id="patch_8">
    <path clip-path="url(#pa49c5af7ae)" d="M 216.204545 256.32 
L 247.909091 256.32 
L 247.909091 256.32 
L 216.204545 256.32 
z
" style="fill:#0e3956;stroke:#000000;stroke-linejoin:miter;stroke-width:0.25;"/>
   </g>
   <g id="patch_9">
    <path clip-path="url(#pa49c5af7ae)" d="M 247.909091 256.32 
L 279.613636 256.32 
L 279.613636 256.32 
L 247.909091 256.32 
z
" style="fill:#0e3956;stroke:#000000;stroke-linejoin:miter;stroke-width:0.25;"/>
   </g>
   <g id="patch_10">
    <path clip-path="url(#pa49c5af7ae)" d="M 279.613636 256.32 
L 311.318182 256.32 
L 311.318182 191.335385 
L 279.613636 191.335385 
z
" style="fill:#0e3956;stroke:#000000;stroke-linejoin:miter;stroke-width:0.25;"/>
   </g>
   <g id="patch_11">
    <path clip-path="url(#pa49c5af7ae)" d="M 57.681818 256.32 
L 89.386364 256.32 
L 89.386364 256.32 
L 57.681818 256.32 
z
" style="fill:#195058;stroke:#000000;stroke-linejoin:miter;stroke-width:0.25;"/>
   </g>
   <g id="patch_12">
    <path clip-path="url(#pa49c5af7ae)" d="M 89.386364 256.32 
L 121.090909 256.32 
L 121.090909 256.32 
L 89.386364 256.32 
z
" style="fill:#195058;stroke:#000000;stroke-linejoin:miter;stroke-width:0.25;"/>
   </g>
   <g id="patch_13">
    <path clip-path="url(#pa49c5af7ae)" d="M 121.090909 256.32 
L 152.795455 256.32 
L 152.795455 256.32 
L 121.090909 256.32 
z
" style="fill:#195058;stroke:#000000;stroke-linejoin:miter;stroke-width:0.25;"/>
   </g>
   <g id="patch_14">
    <path clip-path="url(#pa49c5af7ae)" d="M 152.795455 256.32 
L 184.5 256.32 
L 184.5 256.32 
L 152.795455 256.32 
z
" style="fill:#195058;stroke:#000000;stroke-linejoin:miter;stroke-width:0.25;"/>
   </g>
   <g id="patch_15">
    <path clip-path="url(#pa49c5af7ae)" d="M 184.5 256.32 
L 216.204545 256.32 
L 216.204545 256.32 
L 184.5 256.32 
z
" style="fill:#195058;stroke:#000000;stroke-linejoin:miter;stroke-width:0.25;"/>
   </g>
   <g id="patch_16">
    <path clip-path="url(#pa49c5af7ae)" d="M 216.204545 256.32 
L 247.909091 256.32 
L 247.909091 256.32 
L 216.204545 256.32 
z
" style="fill:#195058;stroke:#000000;stroke-linejoin:miter;stroke-width:0.25;"/>
   </g>
   <g id="patch_17">
    <path clip-path="url(#pa49c5af7ae)" d="M 247.909091 256.32 
L 279.613636 256.32 
L 279.613636 126.350769 
L 247.909091 126.350769 
z
" style="fill:#195058;stroke:#000000;stroke-linejoin:miter;stroke-width:0.25;"/>
   </g>
   <g id="patch_18">
    <path clip-path="url(#pa49c5af7ae)" d="M 279.613636 256.32 
L 311.318182 256.32 
L 311.318182 256.32 
L 279.613636 256.32 
z
" style="fill:#195058;stroke:#000000;stroke-linejoin:miter;stroke-width:0.25;"/>
   </g>
   <g id="patch_19">
    <path clip-path="url(#pa49c5af7ae)" d="M 57.681818 256.32 
L 89.386364 256.32 
L 89.386364 256.32 
L 57.681818 256.32 
z
" style="fill:#36624d;stroke:#000000;stroke-linejoin:miter;stroke-width:0.25;"/>
   </g>
   <g id="patch_20">
    <path clip-path="url(#pa49c5af7ae)" d="M 89.386364 256.32 
L 121.090909 256.32 
L 121.090909 256.32 
L 89.386364 256.32 
z
" style="fill:#36624d;stroke:#000000;stroke-linejoin:miter;stroke-width:0.25;"/>
   </g>
   <g id="patch_21">
    <path clip-path="url(#pa49c5af7ae)" d="M 121.090909 256.32 
L 152.795455 256.32 
L 152.795455 256.32 
L 121.090909 256.32 
z
" style="fill:#36624d;stroke:#000000;stroke-linejoin:miter;stroke-width:0.25;"/>
   </g>
   <g id="patch_22">
    <path clip-path="url(#pa49c5af7ae)" d="M 152.795455 256.32 
L 184.5 256.32 
L 184.5 256.32 
L 152.795455 256.32 
z
" style="fill:#36624d;stroke:#000000;stroke-linejoin:miter;stroke-width:0.25;"/>
   </g>
   <g id="patch_23">
    <path clip-path="url(#pa49c5af7ae)" d="M 184.5 256.32 
L 216.204545 256.32 
L 216.204545 256.32 
L 184.5 256.32 
z
" style="fill:#36624d;stroke:#000000;stroke-linejoin:miter;stroke-width:0.25;"/>
   </g>
   <g id="patch_24">
    <path clip-path="url(#pa49c5af7ae)" d="M 216.204545 256.32 
L 247.909091 256.32 
L 247.909091 150.72 
L 216.204545 150.72 
z
" style="fill:#36624d;stroke:#000000;stroke-linejoin:miter;stroke-width:0.25;"/>
   </g>
   <g id="patch_25">
    <path clip-path="url(#pa49c5af7ae)" d="M 247.909091 256.32 
L 279.613636 256.32 
L 279.613636 256.32 
L 247.909091 256.32 
z
" style="fill:#36624d;stroke:#000000;stroke-linejoin:miter;stroke-width:0.25;"/>
   </g>
   <g id="patch_26">
    <path clip-path="url(#pa49c5af7ae)" d="M 279.613636 256.32 
L 311.318182 256.32 
L 311.318182 256.32 
L 279.613636 256.32 
z
" style="fill:#36624d;stroke:#000000;stroke-linejoin:miter;stroke-width:0.25;"/>
   </g>
   <g id="patch_27">
    <path clip-path="url(#pa49c5af7ae)" d="M 57.681818 256.32 
L 89.386364 256.32 
L 89.386364 256.32 
L 57.681818 256.32 
z
" style="fill:#5e6f37;stroke:#000000;stroke-linejoin:miter;stroke-width:0.25;"/>
   </g>
   <g id="patch_28">
    <path clip-path="url(#pa49c5af7ae)" d="M 89.386364 256.32 
L 121.090909 256.32 
L 121.090909 256.32 
L 89.386364 256.32 
z
" style="fill:#5e6f37;stroke:#000000;stroke-linejoin:miter;stroke-width:0.25;"/>
   </g>
   <g id="patch_29">
    <path clip-path="url(#pa49c5af7ae)" d="M 121.090909 256.32 
L 152.795455 256.32 
L 152.795455 256.32 
L 121.090909 256.32 
z
" style="fill:#5e6f37;stroke:#000000;stroke-linejoin:miter;stroke-width:0.25;"/>
   </g>
   <g id="patch_30">
    <path clip-path="url(#pa49c5af7ae)" d="M 152.795455 256.32 
L 184.5 256.32 
L 184.5 256.32 
L 152.795455 256.32 
z
" style="fill:#5e6f37;stroke:#000000;stroke-linejoin:miter;stroke-width:0.25;"/>
   </g>
   <g id="patch_31">
    <path clip-path="url(#pa49c5af7ae)" d="M 184.5 256.32 
L 216.204545 256.32 
L 216.204545 110.104615 
L 184.5 110.104615 
z
" style="fill:#5e6f37;stroke:#000000;stroke-linejoin:miter;stroke-width:0.25;"/>
   </g>
   <g id="patch_32">
    <path clip-path="url(#pa49c5af7ae)" d="M 216.204545 256.32 
L 247.909091 256.32 
L 247.909091 256.32 
L 216.204545 256.32 
z
" style="fill:#5e6f37;stroke:#000000;stroke-linejoin:miter;stroke-width:0.25;"/>
   </g>
   <g id="patch_33">
    <path clip-path="url(#pa49c5af7ae)" d="M 247.909091 256.32 
L 279.613636 256.32 
L 279.613636 256.32 
L 247.909091 256.32 
z
" style="fill:#5e6f37;stroke:#000000;stroke-linejoin:miter;stroke-width:0.25;"/>
   </g>
   <g id="patch_34">
    <path clip-path="url(#pa49c5af7ae)" d="M 279.613636 256.32 
L 311.318182 256.32 
L 311.318182 256.32 
L 279.613636 256.32 
z
" style="fill:#5e6f37;stroke:#000000;stroke-linejoin:miter;stroke-width:0.25;"/>
   </g>
   <g id="patch_35">
    <path clip-path="url(#pa49c5af7ae)" d="M 57.681818 256.32 
L 89.386364 256.32 
L 89.386364 256.32 
L 57.681818 256.32 
z
" style="fill:#8d7b27;stroke:#000000;stroke-linejoin:miter;stroke-width:0.25;"/>
   </g>
   <g id="patch_36">
    <path clip-path="url(#pa49c5af7ae)" d="M 89.386364 256.32 
L 121.090909 256.32 
L 121.090909 256.32 
L 89.386364 256.32 
z
" style="fill:#8d7b27;stroke:#000000;stroke-linejoin:miter;stroke-width:0.25;"/>
   </g>
   <g id="patch_37">
    <path clip-path="url(#pa49c5af7ae)" d="M 121.090909 256.32 
L 152.795455 256.32 
L 152.795455 256.32 
L 121.090909 256.32 
z
" style="fill:#8d7b27;stroke:#000000;stroke-linejoin:miter;stroke-width:0.25;"/>
   </g>
   <g id="patch_38">
    <path clip-path="url(#pa49c5af7ae)" d="M 152.795455 256.32 
L 184.5 256.32 
L 184.5 207.581538 
L 152.795455 207.581538 
z
" style="fill:#8d7b27;stroke:#000000;stroke-linejoin:miter;stroke-width:0.25;"/>
   </g>
   <g id="patch_39">
    <path clip-path="url(#pa49c5af7ae)" d="M 184.5 256.32 
L 216.204545 256.32 
L 216.204545 256.32 
L 184.5 256.32 
z
" style="fill:#8d7b27;stroke:#000000;stroke-linejoin:miter;stroke-width:0.25;"/>
   </g>
   <g id="patch_40">
    <path clip-path="url(#pa49c5af7ae)" d="M 216.204545 256.32 
L 247.909091 256.32 
L 247.909091 256.32 
L 216.204545 256.32 
z
" style="fill:#8d7b27;stroke:#000000;stroke-linejoin:miter;stroke-width:0.25;"/>
   </g>
   <g id="patch_41">
    <path clip-path="url(#pa49c5af7ae)" d="M 247.909091 256.32 
L 279.613636 256.32 
L 279.613636 256.32 
L 247.909091 256.32 
z
" style="fill:#8d7b27;stroke:#000000;stroke-linejoin:miter;stroke-width:0.25;"/>
   </g>
   <g id="patch_42">
    <path clip-path="url(#pa49c5af7ae)" d="M 279.613636 256.32 
L 311.318182 256.32 
L 311.318182 256.32 
L 279.613636 256.32 
z
" style="fill:#8d7b27;stroke:#000000;stroke-linejoin:miter;stroke-width:0.25;"/>
   </g>
   <g id="patch_43">
    <path clip-path="url(#pa49c5af7ae)" d="M 57.681818 256.32 
L 89.386364 256.32 
L 89.386364 256.32 
L 57.681818 256.32 
z
" style="fill:#bd853d;stroke:#000000;stroke-linejoin:miter;stroke-width:0.25;"/>
   </g>
   <g id="patch_44">
    <path clip-path="url(#pa49c5af7ae)" d="M 89.386364 256.32 
L 121.090909 256.32 
L 121.090909 256.32 
L 89.386364 256.32 
z
" style="fill:#bd853d;stroke:#000000;stroke-linejoin:miter;stroke-width:0.25;"/>
   </g>
   <g id="patch_45">
    <path clip-path="url(#pa49c5af7ae)" d="M 121.090909 256.32 
L 152.795455 256.32 
L 152.795455 45.12 
L 121.090909 45.12 
z
" style="fill:#bd853d;stroke:#000000;stroke-linejoin:miter;stroke-width:0.25;"/>
   </g>
   <g id="patch_46">
    <path clip-path="url(#pa49c5af7ae)" d="M 152.795455 256.32 
L 184.5 256.32 
L 184.5 256.32 
L 152.795455 256.32 
z
" style="fill:#bd853d;stroke:#000000;stroke-linejoin:miter;stroke-width:0.25;"/>
   </g>
   <g id="patch_47">
    <path clip-path="url(#pa49c5af7ae)" d="M 184.5 256.32 
L 216.204545 256.32 
L 216.204545 256.32 
L 184.5 256.32 
z
" style="fill:#bd853d;stroke:#000000;stroke-linejoin:miter;stroke-width:0.25;"/>
   </g>
   <g id="patch_48">
    <path clip-path="url(#pa49c5af7ae)" d="M 216.204545 256.32 
L 247.909091 256.32 
L 247.909091 256.32 
L 216.204545 256.32 
z
" style="fill:#bd853d;stroke:#000000;stroke-linejoin:miter;stroke-width:0.25;"/>
   </g>
   <g id="patch_49">
    <path clip-path="url(#pa49c5af7ae)" d="M 247.909091 256.32 
L 279.613636 256.32 
L 279.613636 256.32 
L 247.909091 256.32 
z
" style="fill:#bd853d;stroke:#000000;stroke-linejoin:miter;stroke-width:0.25;"/>
   </g>
   <g id="patch_50">
    <path clip-path="url(#pa49c5af7ae)" d="M 279.613636 256.32 
L 311.318182 256.32 
L 311.318182 256.32 
L 279.613636 256.32 
z
" style="fill:#bd853d;stroke:#000000;stroke-linejoin:miter;stroke-width:0.25;"/>
   </g>
   <g id="patch_51">
    <path clip-path="url(#pa49c5af7ae)" d="M 57.681818 256.32 
L 89.386364 256.32 
L 89.386364 256.32 
L 57.681818 256.32 
z
" style="fill:#df9271;stroke:#000000;stroke-linejoin:miter;stroke-width:0.25;"/>
   </g>
   <g id="patch_52">
    <path clip-path="url(#pa49c5af7ae)" d="M 89.386364 256.32 
L 121.090909 256.32 
L 121.090909 191.335385 
L 89.386364 191.335385 
z
" style="fill:#df9271;stroke:#000000;stroke-linejoin:miter;stroke-width:0.25;"/>
   </g>
   <g id="patch_53">
    <path clip-path="url(#pa49c5af7ae)" d="M 121.090909 256.32 
L 152.795455 256.32 
L 152.795455 256.32 
L 121.090909 256.32 
z
" style="fill:#df9271;stroke:#000000;stroke-linejoin:miter;stroke-width:0.25;"/>
   </g>
   <g id="patch_54">
    <path clip-path="url(#pa49c5af7ae)" d="M 152.795455 256.32 
L 184.5 256.32 
L 184.5 256.32 
L 152.795455 256.32 
z
" style="fill:#df9271;stroke:#000000;stroke-linejoin:miter;stroke-width:0.25;"/>
   </g>
   <g id="patch_55">
    <path clip-path="url(#pa49c5af7ae)" d="M 184.5 256.32 
L 216.204545 256.32 
L 216.204545 256.32 
L 184.5 256.32 
z
" style="fill:#df9271;stroke:#000000;stroke-linejoin:miter;stroke-width:0.25;"/>
   </g>
   <g id="patch_56">
    <path clip-path="url(#pa49c5af7ae)" d="M 216.204545 256.32 
L 247.909091 256.32 
L 247.909091 256.32 
L 216.204545 256.32 
z
" style="fill:#df9271;stroke:#000000;stroke-linejoin:miter;stroke-width:0.25;"/>
   </g>
   <g id="patch_57">
    <path clip-path="url(#pa49c5af7ae)" d="M 247.909091 256.32 
L 279.613636 256.32 
L 279.613636 256.32 
L 247.909091 256.32 
z
" style="fill:#df9271;stroke:#000000;stroke-linejoin:miter;stroke-width:0.25;"/>
   </g>
   <g id="patch_58">
    <path clip-path="url(#pa49c5af7ae)" d="M 279.613636 256.32 
L 311.318182 256.32 
L 311.318182 256.32 
L 279.613636 256.32 
z
" style="fill:#df9271;stroke:#000000;stroke-linejoin:miter;stroke-width:0.25;"/>
   </g>
   <g id="patch_59">
    <path clip-path="url(#pa49c5af7ae)" d="M 57.681818 256.32 
L 89.386364 256.32 
L 89.386364 158.843077 
L 57.681818 158.843077 
z
" style="fill:#e4a4a9;stroke:#000000;stroke-linejoin:miter;stroke-width:0.25;"/>
   </g>
   <g id="patch_60">
    <path clip-path="url(#pa49c5af7ae)" d="M 89.386364 256.32 
L 121.090909 256.32 
L 121.090909 256.32 
L 89.386364 256.32 
z
" style="fill:#e4a4a9;stroke:#000000;stroke-linejoin:miter;stroke-width:0.25;"/>
   </g>
   <g id="patch_61">
    <path clip-path="url(#pa49c5af7ae)" d="M 121.090909 256.32 
L 152.795455 256.32 
L 152.795455 256.32 
L 121.090909 256.32 
z
" style="fill:#e4a4a9;stroke:#000000;stroke-linejoin:miter;stroke-width:0.25;"/>
   </g>
   <g id="patch_62">
    <path clip-path="url(#pa49c5af7ae)" d="M 152.795455 256.32 
L 184.5 256.32 
L 184.5 256.32 
L 152.795455 256.32 
z
" style="fill:#e4a4a9;stroke:#000000;stroke-linejoin:miter;stroke-width:0.25;"/>
   </g>
   <g id="patch_63">
    <path clip-path="url(#pa49c5af7ae)" d="M 184.5 256.32 
L 216.204545 256.32 
L 216.204545 256.32 
L 184.5 256.32 
z
" style="fill:#e4a4a9;stroke:#000000;stroke-linejoin:miter;stroke-width:0.25;"/>
   </g>
   <g id="patch_64">
    <path clip-path="url(#pa49c5af7ae)" d="M 216.204545 256.32 
L 247.909091 256.32 
L 247.909091 256.32 
L 216.204545 256.32 
z
" style="fill:#e4a4a9;stroke:#000000;stroke-linejoin:miter;stroke-width:0.25;"/>
   </g>
   <g id="patch_65">
    <path clip-path="url(#pa49c5af7ae)" d="M 247.909091 256.32 
L 279.613636 256.32 
L 279.613636 256.32 
L 247.909091 256.32 
z
" style="fill:#e4a4a9;stroke:#000000;stroke-linejoin:miter;stroke-width:0.25;"/>
   </g>
   <g id="patch_66">
    <path clip-path="url(#pa49c5af7ae)" d="M 279.613636 256.32 
L 311.318182 256.32 
L 311.318182 256.32 
L 279.613636 256.32 
z
" style="fill:#e4a4a9;stroke:#000000;stroke-linejoin:miter;stroke-width:0.25;"/>
   </g>
   <g id="matplotlib.axis_1">
    <g id="xtick_1">
     <g id="line2d_1">
      <defs>
       <path d="M 0 0 
L 0 3.5 
" id="m5988d86e41" style="stroke:#000000;stroke-width:0.25;"/>
      </defs>
      <g>
       <use style="stroke:#000000;stroke-width:0.25;" x="57.681818" xlink:href="#m5988d86e41" y="256.32"/>
      </g>
     </g>
     <g id="text_1">
      <text style="font-family:DejaVu Sans;font-size:6px;font-stretch:normal;font-style:normal;font-weight:normal;text-anchor:middle;" transform="rotate(-0, 57.681818, 267.879063)" x="57.681818" y="267.879063">0.0</text>
     </g>
    </g>
    <g id="xtick_2">
     <g id="line2d_2">
      <g>
       <use style="stroke:#000000;stroke-width:0.25;" x="89.386364" xlink:href="#m5988d86e41" y="256.32"/>
      </g>
     </g>
     <g id="text_2">
      <text style="font-family:DejaVu Sans;font-size:6px;font-stretch:normal;font-style:normal;font-weight:normal;text-anchor:middle;" transform="rotate(-0, 89.386364, 267.879063)" x="89.386364" y="267.879063">45.0</text>
     </g>
    </g>
    <g id="xtick_3">
     <g id="line2d_3">
      <g>
       <use style="stroke:#000000;stroke-width:0.25;" x="121.090909" xlink:href="#m5988d86e41" y="256.32"/>
      </g>
     </g>
     <g id="text_3">
      <text style="font-family:DejaVu Sans;font-size:6px;font-stretch:normal;font-style:normal;font-weight:normal;text-anchor:middle;" transform="rotate(-0, 121.090909, 267.879063)" x="121.090909" y="267.879063">90.0</text>
     </g>
    </g>
    <g id="xtick_4">
     <g id="line2d_4">
      <g>
       <use style="stroke:#000000;stroke-width:0.25;" x="152.795455" xlink:href="#m5988d86e41" y="256.32"/>
      </g>
     </g>
     <g id="text_4">
      <text style="font-family:DejaVu Sans;font-size:6px;font-stretch:normal;font-style:normal;font-weight:normal;text-anchor:middle;" transform="rotate(-0, 152.795455, 267.879063)" x="152.795455" y="267.879063">135.0</text>
     </g>
    </g>
    <g id="xtick_5">
     <g id="line2d_5">
      <g>
       <use style="stroke:#000000;stroke-width:0.25;" x="184.5" xlink:href="#m5988d86e41" y="256.32"/>
      </g>
     </g>
     <g id="text_5">
      <text style="font-family:DejaVu Sans;font-size:6px;font-stretch:normal;font-style:normal;font-weight:normal;text-anchor:middle;" transform="rotate(-0, 184.5, 267.879063)" x="184.5" y="267.879063">180.0</text>
     </g>
    </g>
    <g id="xtick_6">
     <g id="line2d_6">
      <g>
       <use style="stroke:#000000;stroke-width:0.25;" x="216.204545" xlink:href="#m5988d86e41" y="256.32"/>
      </g>
     </g>
     <g id="text_6">
      <text style="font-family:DejaVu Sans;font-size:6px;font-stretch:normal;font-style:normal;font-weight:normal;text-anchor:middle;" transform="rotate(-0, 216.204545, 267.879063)" x="216.204545" y="267.879063">225.0</text>
     </g>
    </g>
    <g id="xtick_7">
     <g id="line2d_7">
      <g>
       <use style="stroke:#000000;stroke-width:0.25;" x="247.909091" xlink:href="#m5988d86e41" y="256.32"/>
      </g>
     </g>
     <g id="text_7">
      <text style="font-family:DejaVu Sans;font-size:6px;font-stretch:normal;font-style:normal;font-weight:normal;text-anchor:middle;" transform="rotate(-0, 247.909091, 267.879063)" x="247.909091" y="267.879063">270.0</text>
     </g>
    </g>
    <g id="xtick_8">
     <g id="line2d_8">
      <g>
       <use style="stroke:#000000;stroke-width:0.25;" x="279.613636" xlink:href="#m5988d86e41" y="256.32"/>
      </g>
     </g>
     <g id="text_8">
      <text style="font-family:DejaVu Sans;font-size:6px;font-stretch:normal;font-style:normal;font-weight:normal;text-anchor:middle;" transform="rotate(-0, 279.613636, 267.879063)" x="279.613636" y="267.879063">315.0</text>
     </g>
    </g>
    <g id="text_9">
     <text style="font-family:DejaVu Sans;font-size:6px;font-stretch:normal;font-style:normal;font-weight:normal;text-anchor:middle;" transform="rotate(-0, 184.5, 277.685938)" x="184.5" y="277.685938">tested_theta</text>
    </g>
   </g>
   <g id="matplotlib.axis_2">
    <g id="ytick_1">
     <g id="line2d_9">
      <defs>
       <path d="M 0 0 
L -3.5 0 
" id="me3aacb3281" style="stroke:#000000;stroke-width:0.25;"/>
      </defs>
      <g>
       <use style="stroke:#000000;stroke-width:0.25;" x="45" xlink:href="#me3aacb3281" y="256.32"/>
      </g>
     </g>
     <g id="text_10">
      <text style="font-family:DejaVu Sans;font-size:6px;font-stretch:normal;font-style:normal;font-weight:normal;text-anchor:end;" transform="rotate(-0, 38, 258.599531)" x="38" y="258.599531">0</text>
     </g>
    </g>
    <g id="ytick_2">
     <g id="line2d_10">
      <g>
       <use style="stroke:#000000;stroke-width:0.25;" x="45" xlink:href="#me3aacb3281" y="215.704615"/>
      </g>
     </g>
     <g id="text_11">
      <text style="font-family:DejaVu Sans;font-size:6px;font-stretch:normal;font-style:normal;font-weight:normal;text-anchor:end;" transform="rotate(-0, 38, 217.984147)" x="38" y="217.984147">5</text>
     </g>
    </g>
    <g id="ytick_3">
     <g id="line2d_11">
      <g>
       <use style="stroke:#000000;stroke-width:0.25;" x="45" xlink:href="#me3aacb3281" y="175.089231"/>
      </g>
     </g>
     <g id="text_12">
      <text style="font-family:DejaVu Sans;font-size:6px;font-stretch:normal;font-style:normal;font-weight:normal;text-anchor:end;" transform="rotate(-0, 38, 177.368762)" x="38" y="177.368762">10</text>
     </g>
    </g>
    <g id="ytick_4">
     <g id="line2d_12">
      <g>
       <use style="stroke:#000000;stroke-width:0.25;" x="45" xlink:href="#me3aacb3281" y="134.473846"/>
      </g>
     </g>
     <g id="text_13">
      <text style="font-family:DejaVu Sans;font-size:6px;font-stretch:normal;font-style:normal;font-weight:normal;text-anchor:end;" transform="rotate(-0, 38, 136.753377)" x="38" y="136.753377">15</text>
     </g>
    </g>
    <g id="ytick_5">
     <g id="line2d_13">
      <g>
       <use style="stroke:#000000;stroke-width:0.25;" x="45" xlink:href="#me3aacb3281" y="93.858462"/>
      </g>
     </g>
     <g id="text_14">
      <text style="font-family:DejaVu Sans;font-size:6px;font-stretch:normal;font-style:normal;font-weight:normal;text-anchor:end;" transform="rotate(-0, 38, 96.137993)" x="38" y="96.137993">20</text>
     </g>
    </g>
    <g id="ytick_6">
     <g id="line2d_14">
      <g>
       <use style="stroke:#000000;stroke-width:0.25;" x="45" xlink:href="#me3aacb3281" y="53.243077"/>
      </g>
     </g>
     <g id="text_15">
      <text style="font-family:DejaVu Sans;font-size:6px;font-stretch:normal;font-style:normal;font-weight:normal;text-anchor:end;" transform="rotate(-0, 38, 55.522608)" x="38" y="55.522608">25</text>
     </g>
    </g>
    <g id="text_16">
     <text style="font-family:DejaVu Sans;font-size:6px;font-stretch:normal;font-style:normal;font-weight:normal;text-anchor:middle;" transform="rotate(-90, 25.117188, 145.44)" x="25.117188" y="145.44">Count</text>
    </g>
   </g>
   <g id="patch_67">
    <path d="M 45 256.32 
L 45 34.56 
" style="fill:none;stroke:#000000;stroke-linecap:square;stroke-linejoin:miter;stroke-width:0.25;"/>
   </g>
   <g id="patch_68">
    <path d="M 324 256.32 
L 324 34.56 
" style="fill:none;stroke:#000000;stroke-linecap:square;stroke-linejoin:miter;stroke-width:0.25;"/>
   </g>
   <g id="patch_69">
    <path d="M 45 256.32 
L 324 256.32 
" style="fill:none;stroke:#000000;stroke-linecap:square;stroke-linejoin:miter;stroke-width:0.25;"/>
   </g>
   <g id="patch_70">
    <path d="M 45 34.56 
L 324 34.56 
" style="fill:none;stroke:#000000;stroke-linecap:square;stroke-linejoin:miter;stroke-width:0.25;"/>
   </g>
   <g id="text_17">
    <text style="font-family:DejaVu Sans;font-size:4px;font-stretch:normal;font-style:normal;font-weight:normal;text-anchor:start;" transform="rotate(-0, 45, 28.56)" x="45" y="28.56">gof=0.00</text>
   </g>
   <g id="legend_1">
    <g id="patch_71">
     <path d="M 279.501562 118.78875 
L 319.8 118.78875 
Q 321 118.78875 321 117.58875 
L 321 38.76 
Q 321 37.56 319.8 37.56 
L 279.501562 37.56 
Q 278.301562 37.56 278.301562 38.76 
L 278.301562 117.58875 
Q 278.301562 118.78875 279.501562 118.78875 
z
" style="fill:#ffffff;opacity:0.8;stroke:#cccccc;stroke-linejoin:miter;"/>
    </g>
    <g id="text_18">
     <text style="font-family:DejaVu Sans;font-size:6px;font-stretch:normal;font-style:normal;font-weight:normal;text-anchor:start;" transform="rotate(-0, 280.701562, 44.519062)" x="280.701562" y="44.519062">tested_theta</text>
    </g>
    <g id="patch_72">
     <path d="M 282.662344 53.492812 
L 294.662344 53.492812 
L 294.662344 49.292812 
L 282.662344 49.292812 
z
" style="fill:#e4a4a9;stroke:#000000;stroke-linejoin:miter;stroke-width:0.25;"/>
    </g>
    <g id="text_19">
     <text style="font-family:DejaVu Sans;font-size:6px;font-stretch:normal;font-style:normal;font-weight:normal;text-anchor:start;" transform="rotate(-0, 299.462344, 53.492812)" x="299.462344" y="53.492812">0.0</text>
    </g>
    <g id="patch_73">
     <path d="M 282.662344 62.299688 
L 294.662344 62.299688 
L 294.662344 58.099688 
L 282.662344 58.099688 
z
" style="fill:#df9271;stroke:#000000;stroke-linejoin:miter;stroke-width:0.25;"/>
    </g>
    <g id="text_20">
     <text style="font-family:DejaVu Sans;font-size:6px;font-stretch:normal;font-style:normal;font-weight:normal;text-anchor:start;" transform="rotate(-0, 299.462344, 62.299688)" x="299.462344" y="62.299688">45.0</text>
    </g>
    <g id="patch_74">
     <path d="M 282.662344 71.106562 
L 294.662344 71.106562 
L 294.662344 66.906562 
L 282.662344 66.906562 
z
" style="fill:#bd853d;stroke:#000000;stroke-linejoin:miter;stroke-width:0.25;"/>
    </g>
    <g id="text_21">
     <text style="font-family:DejaVu Sans;font-size:6px;font-stretch:normal;font-style:normal;font-weight:normal;text-anchor:start;" transform="rotate(-0, 299.462344, 71.106562)" x="299.462344" y="71.106562">90.0</text>
    </g>
    <g id="patch_75">
     <path d="M 282.662344 79.913437 
L 294.662344 79.913437 
L 294.662344 75.713437 
L 282.662344 75.713437 
z
" style="fill:#8d7b27;stroke:#000000;stroke-linejoin:miter;stroke-width:0.25;"/>
    </g>
    <g id="text_22">
     <text style="font-family:DejaVu Sans;font-size:6px;font-stretch:normal;font-style:normal;font-weight:normal;text-anchor:start;" transform="rotate(-0, 299.462344, 79.913437)" x="299.462344" y="79.913437">135.0</text>
    </g>
    <g id="patch_76">
     <path d="M 282.662344 88.720312 
L 294.662344 88.720312 
L 294.662344 84.520312 
L 282.662344 84.520312 
z
" style="fill:#5e6f37;stroke:#000000;stroke-linejoin:miter;stroke-width:0.25;"/>
    </g>
    <g id="text_23">
     <text style="font-family:DejaVu Sans;font-size:6px;font-stretch:normal;font-style:normal;font-weight:normal;text-anchor:start;" transform="rotate(-0, 299.462344, 88.720312)" x="299.462344" y="88.720312">180.0</text>
    </g>
    <g id="patch_77">
     <path d="M 282.662344 97.527187 
L 294.662344 97.527187 
L 294.662344 93.327187 
L 282.662344 93.327187 
z
" style="fill:#36624d;stroke:#000000;stroke-linejoin:miter;stroke-width:0.25;"/>
    </g>
    <g id="text_24">
     <text style="font-family:DejaVu Sans;font-size:6px;font-stretch:normal;font-style:normal;font-weight:normal;text-anchor:start;" transform="rotate(-0, 299.462344, 97.527187)" x="299.462344" y="97.527187">225.0</text>
    </g>
    <g id="patch_78">
     <path d="M 282.662344 106.334062 
L 294.662344 106.334062 
L 294.662344 102.134062 
L 282.662344 102.134062 
z
" style="fill:#195058;stroke:#000000;stroke-linejoin:miter;stroke-width:0.25;"/>
    </g>
    <g id="text_25">
     <text style="font-family:DejaVu Sans;font-size:6px;font-stretch:normal;font-style:normal;font-weight:normal;text-anchor:start;" transform="rotate(-0, 299.462344, 106.334062)" x="299.462344" y="106.334062">270.0</text>
    </g>
    <g id="patch_79">
     <path d="M 282.662344 115.140937 
L 294.662344 115.140937 
L 294.662344 110.940937 
L 282.662344 110.940937 
z
" style="fill:#0e3956;stroke:#000000;stroke-linejoin:miter;stroke-width:0.25;"/>
    </g>
    <g id="text_26">
     <text style="font-family:DejaVu Sans;font-size:6px;font-stretch:normal;font-style:normal;font-weight:normal;text-anchor:start;" transform="rotate(-0, 299.462344, 115.140937)" x="299.462344" y="115.140937">315.0</text>
    </g>
   </g>
  </g>
  <g id="text_27">
   <text style="font-family:DejaVu Sans;font-size:8px;font-stretch:normal;font-style:normal;font-weight:normal;" transform="translate(0 6.11375)">traces001|fit-dff_responsive-nstds-2.50-thr10.00_boot-1000-resample-20</text>
   <text style="font-family:DejaVu Sans;font-size:8px;font-stretch:normal;font-style:normal;font-weight:normal;" transform="translate(0 15.2945)">20190522_JC084_fov1_V1</text>
  </g>
 </g>
 <defs>
  <clipPath id="pa49c5af7ae">
   <rect height="221.76" width="279" x="45" y="34.56"/>
  </clipPath>
 </defs>
</svg>
