<?xml version="1.0" encoding="utf-8" standalone="no"?>
<!DOCTYPE svg PUBLIC "-//W3C//DTD SVG 1.1//EN"
  "http://www.w3.org/Graphics/SVG/1.1/DTD/svg11.dtd">
<!-- Created with matplotlib (https://matplotlib.org/) -->
<svg height="216pt" version="1.1" viewBox="0 0 576 216" width="576pt" xmlns="http://www.w3.org/2000/svg" xmlns:xlink="http://www.w3.org/1999/xlink">
 <metadata>
  <rdf:RDF xmlns:cc="http://creativecommons.org/ns#" xmlns:dc="http://purl.org/dc/elements/1.1/" xmlns:rdf="http://www.w3.org/1999/02/22-rdf-syntax-ns#">
   <cc:Work>
    <dc:type rdf:resource="http://purl.org/dc/dcmitype/StillImage"/>
    <dc:date>2021-05-11T10:44:22.013740</dc:date>
    <dc:format>image/svg+xml</dc:format>
    <dc:creator>
     <cc:Agent>
      <dc:title>Matplotlib v3.3.4, https://matplotlib.org/</dc:title>
     </cc:Agent>
    </dc:creator>
   </cc:Work>
  </rdf:RDF>
 </metadata>
 <defs>
  <style type="text/css">*{stroke-linecap:butt;stroke-linejoin:round;}</style>
 </defs>
 <g id="figure_1">
  <g id="patch_1">
   <path d="M 0 216 
L 576 216 
L 576 0 
L 0 0 
z
" style="fill:#ffffff;"/>
  </g>
  <g id="axes_1">
   <g id="patch_2">
    <path d="M 541.8 124.2 
C 541.8 116.399663 540.263504 108.675175 537.278444 101.468604 
C 534.293385 94.262033 529.917814 87.713528 524.402143 82.197857 
C 518.886472 76.682186 512.337967 72.306615 505.131396 69.321556 
C 497.924825 66.336496 490.200337 64.8 482.4 64.8 
C 474.599663 64.8 466.875175 66.336496 459.668604 69.321556 
C 452.462033 72.306615 445.913528 76.682186 440.397857 82.197857 
C 434.882186 87.713528 430.506615 94.262033 427.521556 101.468604 
C 424.536496 108.675175 423 116.399663 423 124.2 
C 423 132.000337 424.536496 139.724825 427.521556 146.931396 
C 430.506615 154.137967 434.882186 160.686472 440.397857 166.202143 
C 445.913528 171.717814 452.462033 176.093385 459.668604 179.078444 
C 466.875175 182.063504 474.599663 183.6 482.4 183.6 
C 490.200337 183.6 497.924825 182.063504 505.131396 179.078444 
C 512.337967 176.093385 518.886472 171.717814 524.402143 166.202143 
C 529.917814 160.686472 534.293385 154.137967 537.278444 146.931396 
C 540.263504 139.724825 541.8 132.000337 541.8 124.2 
M 482.4 124.2 
C 482.4 124.2 482.4 124.2 482.4 124.2 
C 482.4 124.2 482.4 124.2 482.4 124.2 
C 482.4 124.2 482.4 124.2 482.4 124.2 
C 482.4 124.2 482.4 124.2 482.4 124.2 
C 482.4 124.2 482.4 124.2 482.4 124.2 
C 482.4 124.2 482.4 124.2 482.4 124.2 
C 482.4 124.2 482.4 124.2 482.4 124.2 
C 482.4 124.2 482.4 124.2 482.4 124.2 
C 482.4 124.2 482.4 124.2 482.4 124.2 
C 482.4 124.2 482.4 124.2 482.4 124.2 
C 482.4 124.2 482.4 124.2 482.4 124.2 
C 482.4 124.2 482.4 124.2 482.4 124.2 
C 482.4 124.2 482.4 124.2 482.4 124.2 
C 482.4 124.2 482.4 124.2 482.4 124.2 
C 482.4 124.2 482.4 124.2 482.4 124.2 
C 482.4 124.2 482.4 124.2 482.4 124.2 
M 541.8 124.2 
z
" style="fill:#ffffff;"/>
   </g>
   <g id="patch_3">
    <path clip-path="url(#pef60972d03)" d="M 482.4 124.2 
C 482.4 124.2 482.4 124.2 482.4 124.2 
C 482.4 124.2 482.4 124.2 482.4 124.2 
L 518.094602 114.968748 
C 518.497535 116.526775 518.798027 118.109513 518.99415 119.706803 
C 519.190272 121.304094 519.281605 122.912513 519.267562 124.521738 
z
" style="fill:#f15a29;opacity:0.5;"/>
   </g>
   <g id="patch_4">
    <path clip-path="url(#pef60972d03)" d="M 482.4 124.2 
C 482.4 124.2 482.4 124.2 482.4 124.2 
C 482.4 124.2 482.4 124.2 482.4 124.2 
L 507.3582 110.07933 
C 507.97455 111.168725 508.518914 112.297308 508.987796 113.457833 
C 509.456679 114.618358 509.849076 115.808339 510.162468 117.020138 
z
" style="fill:#f15a29;opacity:0.5;"/>
   </g>
   <g id="patch_5">
    <path clip-path="url(#pef60972d03)" d="M 482.4 124.2 
C 482.4 124.2 482.4 124.2 482.4 124.2 
C 482.4 124.2 482.4 124.2 482.4 124.2 
L 485.321867 121.328689 
C 485.447197 121.456225 485.564041 121.59183 485.671652 121.734634 
C 485.779262 121.877437 485.877407 122.027133 485.965457 122.182761 
z
" style="fill:#f15a29;opacity:0.5;"/>
   </g>
   <g id="patch_6">
    <path clip-path="url(#pef60972d03)" d="M 482.4 124.2 
C 482.4 124.2 482.4 124.2 482.4 124.2 
C 482.4 124.2 482.4 124.2 482.4 124.2 
L 484.479157 120.670292 
C 484.633225 120.761044 484.781185 120.861787 484.922089 120.971873 
C 485.062993 121.081959 485.196538 121.201153 485.321867 121.328689 
z
" style="fill:#f15a29;opacity:0.5;"/>
   </g>
   <g id="patch_7">
    <path clip-path="url(#pef60972d03)" d="M 482.4 124.2 
C 482.4 124.2 482.4 124.2 482.4 124.2 
C 482.4 124.2 482.4 124.2 482.4 124.2 
L 482.4 124.2 
C 482.4 124.2 482.4 124.2 482.4 124.2 
C 482.4 124.2 482.4 124.2 482.4 124.2 
z
" style="fill:#f15a29;opacity:0.5;"/>
   </g>
   <g id="patch_8">
    <path clip-path="url(#pef60972d03)" d="M 482.4 124.2 
C 482.4 124.2 482.4 124.2 482.4 124.2 
C 482.4 124.2 482.4 124.2 482.4 124.2 
L 482.4 124.2 
C 482.4 124.2 482.4 124.2 482.4 124.2 
C 482.4 124.2 482.4 124.2 482.4 124.2 
z
" style="fill:#f15a29;opacity:0.5;"/>
   </g>
   <g id="patch_9">
    <path clip-path="url(#pef60972d03)" d="M 482.4 124.2 
C 482.4 124.2 482.4 124.2 482.4 124.2 
C 482.4 124.2 482.4 124.2 482.4 124.2 
L 482.4 124.2 
C 482.4 124.2 482.4 124.2 482.4 124.2 
C 482.4 124.2 482.4 124.2 482.4 124.2 
z
" style="fill:#f15a29;opacity:0.5;"/>
   </g>
   <g id="patch_10">
    <path clip-path="url(#pef60972d03)" d="M 482.4 124.2 
C 482.4 124.2 482.4 124.2 482.4 124.2 
C 482.4 124.2 482.4 124.2 482.4 124.2 
L 482.4 124.2 
C 482.4 124.2 482.4 124.2 482.4 124.2 
C 482.4 124.2 482.4 124.2 482.4 124.2 
z
" style="fill:#f15a29;opacity:0.5;"/>
   </g>
   <g id="patch_11">
    <path clip-path="url(#pef60972d03)" d="M 482.4 124.2 
C 482.4 124.2 482.4 124.2 482.4 124.2 
C 482.4 124.2 482.4 124.2 482.4 124.2 
L 482.4 124.2 
C 482.4 124.2 482.4 124.2 482.4 124.2 
C 482.4 124.2 482.4 124.2 482.4 124.2 
z
" style="fill:#f15a29;opacity:0.5;"/>
   </g>
   <g id="patch_12">
    <path clip-path="url(#pef60972d03)" d="M 482.4 124.2 
C 482.4 124.2 482.4 124.2 482.4 124.2 
C 482.4 124.2 482.4 124.2 482.4 124.2 
L 482.4 124.2 
C 482.4 124.2 482.4 124.2 482.4 124.2 
C 482.4 124.2 482.4 124.2 482.4 124.2 
z
" style="fill:#f15a29;opacity:0.5;"/>
   </g>
   <g id="patch_13">
    <path clip-path="url(#pef60972d03)" d="M 482.4 124.2 
C 482.4 124.2 482.4 124.2 482.4 124.2 
C 482.4 124.2 482.4 124.2 482.4 124.2 
L 482.4 124.2 
C 482.4 124.2 482.4 124.2 482.4 124.2 
C 482.4 124.2 482.4 124.2 482.4 124.2 
z
" style="fill:#f15a29;opacity:0.5;"/>
   </g>
   <g id="patch_14">
    <path clip-path="url(#pef60972d03)" d="M 482.4 124.2 
C 482.4 124.2 482.4 124.2 482.4 124.2 
C 482.4 124.2 482.4 124.2 482.4 124.2 
L 482.4 124.2 
C 482.4 124.2 482.4 124.2 482.4 124.2 
C 482.4 124.2 482.4 124.2 482.4 124.2 
z
" style="fill:#f15a29;opacity:0.5;"/>
   </g>
   <g id="patch_15">
    <path clip-path="url(#pef60972d03)" d="M 482.4 124.2 
C 482.4 124.2 482.4 124.2 482.4 124.2 
C 482.4 124.2 482.4 124.2 482.4 124.2 
L 478.433933 125.225695 
C 478.389163 125.052581 478.355775 124.876721 478.333983 124.699244 
C 478.312192 124.521767 478.302044 124.343054 478.303604 124.164251 
z
" style="fill:#f15a29;opacity:0.5;"/>
   </g>
   <g id="patch_16">
    <path clip-path="url(#pef60972d03)" d="M 482.4 124.2 
C 482.4 124.2 482.4 124.2 482.4 124.2 
C 482.4 124.2 482.4 124.2 482.4 124.2 
L 482.4 124.2 
C 482.4 124.2 482.4 124.2 482.4 124.2 
C 482.4 124.2 482.4 124.2 482.4 124.2 
z
" style="fill:#f15a29;opacity:0.5;"/>
   </g>
   <g id="patch_17">
    <path clip-path="url(#pef60972d03)" d="M 482.4 124.2 
C 482.4 124.2 482.4 124.2 482.4 124.2 
C 482.4 124.2 482.4 124.2 482.4 124.2 
L 479.478133 127.071311 
C 479.352803 126.943775 479.235959 126.80817 479.128348 126.665366 
C 479.020738 126.522563 478.922593 126.372867 478.834543 126.217239 
z
" style="fill:#f15a29;opacity:0.5;"/>
   </g>
   <g id="patch_18">
    <path clip-path="url(#pef60972d03)" d="M 482.4 124.2 
C 482.4 124.2 482.4 124.2 482.4 124.2 
C 482.4 124.2 482.4 124.2 482.4 124.2 
L 480.320843 127.729708 
C 480.166775 127.638956 480.018815 127.538213 479.877911 127.428127 
C 479.737007 127.318041 479.603462 127.198847 479.478133 127.071311 
z
" style="fill:#f15a29;opacity:0.5;"/>
   </g>
   <g id="patch_19">
    <path clip-path="url(#pef60972d03)" d="M 482.4 124.2 
C 482.4 124.2 482.4 124.2 482.4 124.2 
C 482.4 124.2 482.4 124.2 482.4 124.2 
L 482.4 124.2 
C 482.4 124.2 482.4 124.2 482.4 124.2 
C 482.4 124.2 482.4 124.2 482.4 124.2 
z
" style="fill:#f15a29;opacity:0.5;"/>
   </g>
   <g id="patch_20">
    <path clip-path="url(#pef60972d03)" d="M 482.4 124.2 
C 482.4 124.2 482.4 124.2 482.4 124.2 
C 482.4 124.2 482.4 124.2 482.4 124.2 
L 482.4 124.2 
C 482.4 124.2 482.4 124.2 482.4 124.2 
C 482.4 124.2 482.4 124.2 482.4 124.2 
z
" style="fill:#f15a29;opacity:0.5;"/>
   </g>
   <g id="patch_21">
    <path clip-path="url(#pef60972d03)" d="M 482.4 124.2 
C 482.4 124.2 482.4 124.2 482.4 124.2 
C 482.4 124.2 482.4 124.2 482.4 124.2 
L 482.4 124.2 
C 482.4 124.2 482.4 124.2 482.4 124.2 
C 482.4 124.2 482.4 124.2 482.4 124.2 
z
" style="fill:#f15a29;opacity:0.5;"/>
   </g>
   <g id="patch_22">
    <path clip-path="url(#pef60972d03)" d="M 482.4 124.2 
C 482.4 124.2 482.4 124.2 482.4 124.2 
C 482.4 124.2 482.4 124.2 482.4 124.2 
L 482.4 124.2 
C 482.4 124.2 482.4 124.2 482.4 124.2 
C 482.4 124.2 482.4 124.2 482.4 124.2 
z
" style="fill:#f15a29;opacity:0.5;"/>
   </g>
   <g id="patch_23">
    <path clip-path="url(#pef60972d03)" d="M 482.4 124.2 
C 482.4 124.2 482.4 124.2 482.4 124.2 
C 482.4 124.2 482.4 124.2 482.4 124.2 
L 488.142622 130.043735 
C 487.88755 130.294393 487.61634 130.528083 487.330733 130.743303 
C 487.045125 130.958524 486.745733 131.154814 486.434477 131.330914 
z
" style="fill:#f15a29;opacity:0.5;"/>
   </g>
   <g id="patch_24">
    <path clip-path="url(#pef60972d03)" d="M 482.4 124.2 
C 482.4 124.2 482.4 124.2 482.4 124.2 
C 482.4 124.2 482.4 124.2 482.4 124.2 
L 485.929708 126.279157 
C 485.838956 126.433225 485.738213 126.581185 485.628127 126.722089 
C 485.518041 126.862993 485.398847 126.996538 485.271311 127.121867 
z
" style="fill:#f15a29;opacity:0.5;"/>
   </g>
   <g id="patch_25">
    <path clip-path="url(#pef60972d03)" d="M 482.4 124.2 
C 482.4 124.2 482.4 124.2 482.4 124.2 
C 482.4 124.2 482.4 124.2 482.4 124.2 
L 490.295124 126.389512 
C 490.199554 126.734124 490.081524 127.07211 489.941791 127.401301 
C 489.802059 127.730491 489.640922 128.050179 489.459417 128.358314 
z
" style="fill:#f15a29;opacity:0.5;"/>
   </g>
   <g id="patch_26">
    <path clip-path="url(#pef60972d03)" d="M 482.4 124.2 
C 482.4 124.2 482.4 124.2 482.4 124.2 
C 482.4 124.2 482.4 124.2 482.4 124.2 
L 494.689187 124.307246 
C 494.684506 124.843654 494.64471 125.379181 494.570053 125.910389 
C 494.495397 126.441598 494.38604 126.967348 494.242686 127.484267 
z
" style="fill:#f15a29;opacity:0.5;"/>
   </g>
   <g id="patch_27">
    <path clip-path="url(#pef60972d03)" d="M 482.4 124.2 
C 482.4 124.2 482.4 124.2 482.4 124.2 
C 482.4 124.2 482.4 124.2 482.4 124.2 
L 494.298201 121.122916 
C 494.432512 121.642258 494.532676 122.169838 494.59805 122.702268 
C 494.663424 123.234698 494.693868 123.770838 494.689187 124.307246 
z
" style="fill:#662d91;opacity:0.5;"/>
   </g>
   <g id="patch_28">
    <path clip-path="url(#pef60972d03)" d="M 482.4 124.2 
C 482.4 124.2 482.4 124.2 482.4 124.2 
C 482.4 124.2 482.4 124.2 482.4 124.2 
L 496.661829 116.131046 
C 497.014029 116.753557 497.325093 117.398461 497.593026 118.061619 
C 497.860959 118.724776 498.085186 119.404765 498.264268 120.097221 
z
" style="fill:#662d91;opacity:0.5;"/>
   </g>
   <g id="patch_29">
    <path clip-path="url(#pef60972d03)" d="M 482.4 124.2 
C 482.4 124.2 482.4 124.2 482.4 124.2 
C 482.4 124.2 482.4 124.2 482.4 124.2 
L 491.165602 115.586067 
C 491.54159 115.968675 491.892124 116.37549 492.214955 116.803901 
C 492.537786 117.232312 492.832221 117.6814 493.096371 118.148284 
z
" style="fill:#662d91;opacity:0.5;"/>
   </g>
   <g id="patch_30">
    <path clip-path="url(#pef60972d03)" d="M 482.4 124.2 
C 482.4 124.2 482.4 124.2 482.4 124.2 
C 482.4 124.2 482.4 124.2 482.4 124.2 
L 486.558314 117.140583 
C 486.866449 117.322089 487.16237 117.523574 487.444178 117.743746 
C 487.725986 117.963919 487.993076 118.202306 488.243735 118.457378 
z
" style="fill:#662d91;opacity:0.5;"/>
   </g>
   <g id="patch_31">
    <path clip-path="url(#pef60972d03)" d="M 482.4 124.2 
C 482.4 124.2 482.4 124.2 482.4 124.2 
C 482.4 124.2 482.4 124.2 482.4 124.2 
L 482.4 124.2 
C 482.4 124.2 482.4 124.2 482.4 124.2 
C 482.4 124.2 482.4 124.2 482.4 124.2 
z
" style="fill:#662d91;opacity:0.5;"/>
   </g>
   <g id="patch_32">
    <path clip-path="url(#pef60972d03)" d="M 482.4 124.2 
C 482.4 124.2 482.4 124.2 482.4 124.2 
C 482.4 124.2 482.4 124.2 482.4 124.2 
L 482.4 124.2 
C 482.4 124.2 482.4 124.2 482.4 124.2 
C 482.4 124.2 482.4 124.2 482.4 124.2 
z
" style="fill:#662d91;opacity:0.5;"/>
   </g>
   <g id="patch_33">
    <path clip-path="url(#pef60972d03)" d="M 482.4 124.2 
C 482.4 124.2 482.4 124.2 482.4 124.2 
C 482.4 124.2 482.4 124.2 482.4 124.2 
L 482.4 124.2 
C 482.4 124.2 482.4 124.2 482.4 124.2 
C 482.4 124.2 482.4 124.2 482.4 124.2 
z
" style="fill:#662d91;opacity:0.5;"/>
   </g>
   <g id="patch_34">
    <path clip-path="url(#pef60972d03)" d="M 482.4 124.2 
C 482.4 124.2 482.4 124.2 482.4 124.2 
C 482.4 124.2 482.4 124.2 482.4 124.2 
L 482.4 124.2 
C 482.4 124.2 482.4 124.2 482.4 124.2 
C 482.4 124.2 482.4 124.2 482.4 124.2 
z
" style="fill:#662d91;opacity:0.5;"/>
   </g>
   <g id="patch_35">
    <path clip-path="url(#pef60972d03)" d="M 482.4 124.2 
C 482.4 124.2 482.4 124.2 482.4 124.2 
C 482.4 124.2 482.4 124.2 482.4 124.2 
L 479.528689 121.278133 
C 479.656225 121.152803 479.79183 121.035959 479.934634 120.928348 
C 480.077437 120.820738 480.227133 120.722593 480.382761 120.634543 
z
" style="fill:#662d91;opacity:0.5;"/>
   </g>
   <g id="patch_36">
    <path clip-path="url(#pef60972d03)" d="M 482.4 124.2 
C 482.4 124.2 482.4 124.2 482.4 124.2 
C 482.4 124.2 482.4 124.2 482.4 124.2 
L 482.4 124.2 
C 482.4 124.2 482.4 124.2 482.4 124.2 
C 482.4 124.2 482.4 124.2 482.4 124.2 
z
" style="fill:#662d91;opacity:0.5;"/>
   </g>
   <g id="patch_37">
    <path clip-path="url(#pef60972d03)" d="M 482.4 124.2 
C 482.4 124.2 482.4 124.2 482.4 124.2 
C 482.4 124.2 482.4 124.2 482.4 124.2 
L 482.4 124.2 
C 482.4 124.2 482.4 124.2 482.4 124.2 
C 482.4 124.2 482.4 124.2 482.4 124.2 
z
" style="fill:#662d91;opacity:0.5;"/>
   </g>
   <g id="patch_38">
    <path clip-path="url(#pef60972d03)" d="M 482.4 124.2 
C 482.4 124.2 482.4 124.2 482.4 124.2 
C 482.4 124.2 482.4 124.2 482.4 124.2 
L 478.303604 124.164251 
C 478.305165 123.985449 478.31843 123.80694 478.343316 123.62987 
C 478.368201 123.452801 478.404653 123.277551 478.452438 123.105244 
z
" style="fill:#662d91;opacity:0.5;"/>
   </g>
   <g id="patch_39">
    <path clip-path="url(#pef60972d03)" d="M 482.4 124.2 
C 482.4 124.2 482.4 124.2 482.4 124.2 
C 482.4 124.2 482.4 124.2 482.4 124.2 
L 478.433933 125.225695 
C 478.389163 125.052581 478.355775 124.876721 478.333983 124.699244 
C 478.312192 124.521767 478.302044 124.343054 478.303604 124.164251 
z
" style="fill:#662d91;opacity:0.5;"/>
   </g>
   <g id="patch_40">
    <path clip-path="url(#pef60972d03)" d="M 482.4 124.2 
C 482.4 124.2 482.4 124.2 482.4 124.2 
C 482.4 124.2 482.4 124.2 482.4 124.2 
L 482.4 124.2 
C 482.4 124.2 482.4 124.2 482.4 124.2 
C 482.4 124.2 482.4 124.2 482.4 124.2 
z
" style="fill:#662d91;opacity:0.5;"/>
   </g>
   <g id="patch_41">
    <path clip-path="url(#pef60972d03)" d="M 482.4 124.2 
C 482.4 124.2 482.4 124.2 482.4 124.2 
C 482.4 124.2 482.4 124.2 482.4 124.2 
L 479.478133 127.071311 
C 479.352803 126.943775 479.235959 126.80817 479.128348 126.665366 
C 479.020738 126.522563 478.922593 126.372867 478.834543 126.217239 
z
" style="fill:#662d91;opacity:0.5;"/>
   </g>
   <g id="patch_42">
    <path clip-path="url(#pef60972d03)" d="M 482.4 124.2 
C 482.4 124.2 482.4 124.2 482.4 124.2 
C 482.4 124.2 482.4 124.2 482.4 124.2 
L 482.4 124.2 
C 482.4 124.2 482.4 124.2 482.4 124.2 
C 482.4 124.2 482.4 124.2 482.4 124.2 
z
" style="fill:#662d91;opacity:0.5;"/>
   </g>
   <g id="patch_43">
    <path clip-path="url(#pef60972d03)" d="M 482.4 124.2 
C 482.4 124.2 482.4 124.2 482.4 124.2 
C 482.4 124.2 482.4 124.2 482.4 124.2 
L 480.210488 132.095124 
C 479.865876 131.999554 479.52789 131.881524 479.198699 131.741791 
C 478.869509 131.602059 478.549821 131.440922 478.241686 131.259417 
z
" style="fill:#662d91;opacity:0.5;"/>
   </g>
   <g id="patch_44">
    <path clip-path="url(#pef60972d03)" d="M 482.4 124.2 
C 482.4 124.2 482.4 124.2 482.4 124.2 
C 482.4 124.2 482.4 124.2 482.4 124.2 
L 482.4 124.2 
C 482.4 124.2 482.4 124.2 482.4 124.2 
C 482.4 124.2 482.4 124.2 482.4 124.2 
z
" style="fill:#662d91;opacity:0.5;"/>
   </g>
   <g id="patch_45">
    <path clip-path="url(#pef60972d03)" d="M 482.4 124.2 
C 482.4 124.2 482.4 124.2 482.4 124.2 
C 482.4 124.2 482.4 124.2 482.4 124.2 
L 484.451389 132.132134 
C 484.105161 132.221674 483.753442 132.28845 483.398488 132.332033 
C 483.043535 132.375616 482.686108 132.395912 482.328503 132.392791 
z
" style="fill:#662d91;opacity:0.5;"/>
   </g>
   <g id="patch_46">
    <path clip-path="url(#pef60972d03)" d="M 482.4 124.2 
C 482.4 124.2 482.4 124.2 482.4 124.2 
C 482.4 124.2 482.4 124.2 482.4 124.2 
L 484.417239 127.765457 
C 484.261611 127.853507 484.100385 127.931273 483.934595 127.998257 
C 483.768806 128.06524 483.598809 128.121297 483.425695 128.166067 
z
" style="fill:#662d91;opacity:0.5;"/>
   </g>
   <g id="patch_47">
    <path clip-path="url(#pef60972d03)" d="M 482.4 124.2 
C 482.4 124.2 482.4 124.2 482.4 124.2 
C 482.4 124.2 482.4 124.2 482.4 124.2 
L 485.271311 127.121867 
C 485.143775 127.247197 485.00817 127.364041 484.865366 127.471652 
C 484.722563 127.579262 484.572867 127.677407 484.417239 127.765457 
z
" style="fill:#662d91;opacity:0.5;"/>
   </g>
   <g id="patch_48">
    <path clip-path="url(#pef60972d03)" d="M 482.4 124.2 
C 482.4 124.2 482.4 124.2 482.4 124.2 
C 482.4 124.2 482.4 124.2 482.4 124.2 
L 482.4 124.2 
C 482.4 124.2 482.4 124.2 482.4 124.2 
C 482.4 124.2 482.4 124.2 482.4 124.2 
z
" style="fill:#662d91;opacity:0.5;"/>
   </g>
   <g id="patch_49">
    <path clip-path="url(#pef60972d03)" d="M 482.4 124.2 
C 482.4 124.2 482.4 124.2 482.4 124.2 
C 482.4 124.2 482.4 124.2 482.4 124.2 
L 482.4 124.2 
C 482.4 124.2 482.4 124.2 482.4 124.2 
C 482.4 124.2 482.4 124.2 482.4 124.2 
z
" style="fill:#662d91;opacity:0.5;"/>
   </g>
   <g id="patch_50">
    <path clip-path="url(#pef60972d03)" d="M 482.4 124.2 
C 482.4 124.2 482.4 124.2 482.4 124.2 
C 482.4 124.2 482.4 124.2 482.4 124.2 
L 511.07477 124.450241 
C 511.063847 125.70186 510.970989 126.951423 510.796791 128.190909 
C 510.622592 129.430395 510.367427 130.657146 510.032934 131.863291 
z
" style="fill:#662d91;opacity:0.5;"/>
   </g>
   <g id="matplotlib.axis_1">
    <g id="xtick_1">
     <g id="line2d_1">
      <path clip-path="url(#pef60972d03)" d="M 482.4 124.2 
L 541.8 124.2 
" style="fill:none;stroke:#b0b0b0;stroke-linecap:square;stroke-width:0.8;"/>
     </g>
     <g id="text_1">
      <!-- $0$ -->
      <g transform="translate(553.88 125.855625)">
       <text>
        <tspan style="font-family:DejaVu Sans;font-size:6px;font-style:book;font-weight:book;" x="0" y="-0.546875">0</tspan>
       </text>
      </g>
     </g>
    </g>
    <g id="xtick_2">
     <g id="line2d_2">
      <path clip-path="url(#pef60972d03)" d="M 482.4 124.2 
L 482.4 64.8 
" style="fill:none;stroke:#b0b0b0;stroke-linecap:square;stroke-width:0.8;"/>
     </g>
     <g id="text_2">
      <!-- $\pi/2$ -->
      <g transform="translate(477.78 52.455625)">
       <text>
        <tspan style="font-family:DejaVu Sans;font-size:6px;font-style:oblique;font-weight:oblique;" x="0" y="-0.546875">π</tspan>
        <tspan style="font-family:DejaVu Sans;font-size:6px;font-style:book;font-weight:book;" x="3.612305 5.383789" y="-0.546875">/2</tspan>
       </text>
      </g>
     </g>
    </g>
    <g id="xtick_3">
     <g id="line2d_3">
      <path clip-path="url(#pef60972d03)" d="M 482.4 124.2 
L 423 124.2 
" style="fill:none;stroke:#b0b0b0;stroke-linecap:square;stroke-width:0.8;"/>
     </g>
     <g id="text_3">
      <!-- $\pi$ -->
      <g transform="translate(407.17 125.855625)">
       <text>
        <tspan style="font-family:DejaVu Sans;font-size:6px;font-style:oblique;font-weight:oblique;" x="0" y="-0.71875">π</tspan>
       </text>
      </g>
     </g>
    </g>
    <g id="xtick_4">
     <g id="line2d_4">
      <path clip-path="url(#pef60972d03)" d="M 482.4 124.2 
L 482.4 183.6 
" style="fill:none;stroke:#b0b0b0;stroke-linecap:square;stroke-width:0.8;"/>
     </g>
     <g id="text_4">
      <!-- $3\pi/2$ -->
      <g transform="translate(475.86 199.255625)">
       <text>
        <tspan style="font-family:DejaVu Sans;font-size:6px;font-style:book;font-weight:book;" x="0 7.429688 9.201172" y="-0.546875">3/2</tspan>
        <tspan style="font-family:DejaVu Sans;font-size:6px;font-style:oblique;font-weight:oblique;" x="3.817383" y="-0.546875">π</tspan>
       </text>
      </g>
     </g>
    </g>
    <g id="xtick_5">
     <g id="line2d_5">
      <path clip-path="url(#pef60972d03)" d="M 482.4 124.2 
L 541.8 124.2 
" style="fill:none;stroke:#b0b0b0;stroke-linecap:square;stroke-width:0.8;"/>
     </g>
     <g id="text_5">
      <!-- $0$ -->
      <g transform="translate(553.88 125.855625)">
       <text>
        <tspan style="font-family:DejaVu Sans;font-size:6px;font-style:book;font-weight:book;" x="0" y="-0.546875">0</tspan>
       </text>
      </g>
     </g>
    </g>
   </g>
   <g id="matplotlib.axis_2">
    <g id="ytick_1">
     <g id="line2d_6">
      <path clip-path="url(#pef60972d03)" d="M 482.4 124.2 
C 482.4 124.2 482.4 124.2 482.4 124.2 
C 482.4 124.2 482.4 124.2 482.4 124.2 
C 482.4 124.2 482.4 124.2 482.4 124.2 
C 482.4 124.2 482.4 124.2 482.4 124.2 
C 482.4 124.2 482.4 124.2 482.4 124.2 
C 482.4 124.2 482.4 124.2 482.4 124.2 
C 482.4 124.2 482.4 124.2 482.4 124.2 
C 482.4 124.2 482.4 124.2 482.4 124.2 
C 482.4 124.2 482.4 124.2 482.4 124.2 
C 482.4 124.2 482.4 124.2 482.4 124.2 
C 482.4 124.2 482.4 124.2 482.4 124.2 
C 482.4 124.2 482.4 124.2 482.4 124.2 
C 482.4 124.2 482.4 124.2 482.4 124.2 
C 482.4 124.2 482.4 124.2 482.4 124.2 
C 482.4 124.2 482.4 124.2 482.4 124.2 
C 482.4 124.2 482.4 124.2 482.4 124.2 
" style="fill:none;stroke:#b0b0b0;stroke-linecap:square;stroke-width:0.8;"/>
     </g>
     <g id="text_6">
      <text style="font-family:DejaVu Sans;font-size:6px;font-stretch:normal;font-style:normal;font-weight:normal;text-anchor:start;" transform="rotate(-0, 482.4, 122.952188)" x="482.4" y="122.952188">0.00</text>
     </g>
    </g>
    <g id="ytick_2">
     <g id="line2d_7">
      <path clip-path="url(#pef60972d03)" d="M 512.1 124.2 
C 512.1 120.299832 511.331752 116.437588 509.839222 112.834302 
C 508.346692 109.231016 506.158907 105.956764 503.401071 103.198929 
C 500.643236 100.441093 497.368984 98.253308 493.765698 96.760778 
C 490.162412 95.268248 486.300168 94.5 482.4 94.5 
C 478.499832 94.5 474.637588 95.268248 471.034302 96.760778 
C 467.431016 98.253308 464.156764 100.441093 461.398929 103.198929 
C 458.641093 105.956764 456.453308 109.231016 454.960778 112.834302 
C 453.468248 116.437588 452.7 120.299832 452.7 124.2 
C 452.7 128.100168 453.468248 131.962412 454.960778 135.565698 
C 456.453308 139.168984 458.641093 142.443236 461.398929 145.201071 
C 464.156764 147.958907 467.431016 150.146692 471.034302 151.639222 
C 474.637588 153.131752 478.499832 153.9 482.4 153.9 
C 486.300168 153.9 490.162412 153.131752 493.765698 151.639222 
C 497.368984 150.146692 500.643236 147.958907 503.401071 145.201071 
C 506.158907 142.443236 508.346692 139.168984 509.839222 135.565698 
C 511.331752 131.962412 512.1 128.100168 512.1 124.2 
" style="fill:none;stroke:#b0b0b0;stroke-linecap:square;stroke-width:0.8;"/>
     </g>
     <g id="text_7">
      <text style="font-family:DejaVu Sans;font-size:6px;font-stretch:normal;font-style:normal;font-weight:normal;text-anchor:start;" transform="rotate(-0, 509.839222, 111.58649)" x="509.839222" y="111.58649">0.25</text>
     </g>
    </g>
    <g id="ytick_3">
     <g id="line2d_8">
      <path clip-path="url(#pef60972d03)" d="M 541.8 124.2 
C 541.8 116.399663 540.263504 108.675175 537.278444 101.468604 
C 534.293385 94.262033 529.917814 87.713528 524.402143 82.197857 
C 518.886472 76.682186 512.337967 72.306615 505.131396 69.321556 
C 497.924825 66.336496 490.200337 64.8 482.4 64.8 
C 474.599663 64.8 466.875175 66.336496 459.668604 69.321556 
C 452.462033 72.306615 445.913528 76.682186 440.397857 82.197857 
C 434.882186 87.713528 430.506615 94.262033 427.521556 101.468604 
C 424.536496 108.675175 423 116.399663 423 124.2 
C 423 132.000337 424.536496 139.724825 427.521556 146.931396 
C 430.506615 154.137967 434.882186 160.686472 440.397857 166.202143 
C 445.913528 171.717814 452.462033 176.093385 459.668604 179.078444 
C 466.875175 182.063504 474.599663 183.6 482.4 183.6 
C 490.200337 183.6 497.924825 182.063504 505.131396 179.078444 
C 512.337967 176.093385 518.886472 171.717814 524.402143 166.202143 
C 529.917814 160.686472 534.293385 154.137967 537.278444 146.931396 
C 540.263504 139.724825 541.8 132.000337 541.8 124.2 
" style="fill:none;stroke:#b0b0b0;stroke-linecap:square;stroke-width:0.8;"/>
     </g>
     <g id="text_8">
      <text style="font-family:DejaVu Sans;font-size:6px;font-stretch:normal;font-style:normal;font-weight:normal;text-anchor:start;" transform="rotate(-0, 537.278444, 100.220792)" x="537.278444" y="100.220792">0.50</text>
     </g>
    </g>
   </g>
   <g id="line2d_9">
    <path clip-path="url(#pef60972d03)" d="M 482.4 124.2 
L 519.259441 123.362031 
" style="fill:none;stroke:#f15a29;stroke-linecap:square;stroke-width:2;"/>
   </g>
   <g id="line2d_10">
    <path clip-path="url(#pef60972d03)" d="M 482.4 124.2 
L 511.002992 126.243014 
" style="fill:none;stroke:#662d91;stroke-linecap:square;stroke-width:2;"/>
   </g>
   <g id="patch_51">
    <path d="M 541.8 124.2 
C 541.8 116.399663 540.263504 108.675175 537.278444 101.468604 
C 534.293385 94.262033 529.917814 87.713528 524.402143 82.197857 
C 518.886472 76.682186 512.337967 72.306615 505.131396 69.321556 
C 497.924825 66.336496 490.200337 64.8 482.4 64.8 
C 474.599663 64.8 466.875175 66.336496 459.668604 69.321556 
C 452.462033 72.306615 445.913528 76.682186 440.397857 82.197857 
C 434.882186 87.713528 430.506615 94.262033 427.521556 101.468604 
C 424.536496 108.675175 423 116.399663 423 124.2 
C 423 132.000337 424.536496 139.724825 427.521556 146.931396 
C 430.506615 154.137967 434.882186 160.686472 440.397857 166.202143 
C 445.913528 171.717814 452.462033 176.093385 459.668604 179.078444 
C 466.875175 182.063504 474.599663 183.6 482.4 183.6 
C 490.200337 183.6 497.924825 182.063504 505.131396 179.078444 
C 512.337967 176.093385 518.886472 171.717814 524.402143 166.202143 
C 529.917814 160.686472 534.293385 154.137967 537.278444 146.931396 
C 540.263504 139.724825 541.8 132.000337 541.8 124.2 
" style="fill:none;stroke:#000000;stroke-linecap:square;stroke-linejoin:miter;stroke-width:0.25;"/>
   </g>
   <g id="text_9">
    <text style="font-family:DejaVu Sans;font-size:8px;font-stretch:normal;font-style:normal;font-weight:normal;text-anchor:start;" transform="rotate(-0, 423, 41.896563)" x="423" y="41.896563">Li, n=29 cells</text>
   </g>
  </g>
  <g id="axes_2">
   <g id="patch_52">
    <path d="M 347.4 124.2 
C 347.4 116.399663 345.863504 108.675175 342.878444 101.468604 
C 339.893385 94.262033 335.517814 87.713528 330.002143 82.197857 
C 324.486472 76.682186 317.937967 72.306615 310.731396 69.321556 
C 303.524825 66.336496 295.800337 64.8 288 64.8 
C 280.199663 64.8 272.475175 66.336496 265.268604 69.321556 
C 258.062033 72.306615 251.513528 76.682186 245.997857 82.197857 
C 240.482186 87.713528 236.106615 94.262033 233.121556 101.468604 
C 230.136496 108.675175 228.6 116.399663 228.6 124.2 
C 228.6 132.000337 230.136496 139.724825 233.121556 146.931396 
C 236.106615 154.137967 240.482186 160.686472 245.997857 166.202143 
C 251.513528 171.717814 258.062033 176.093385 265.268604 179.078444 
C 272.475175 182.063504 280.199663 183.6 288 183.6 
C 295.800337 183.6 303.524825 182.063504 310.731396 179.078444 
C 317.937967 176.093385 324.486472 171.717814 330.002143 166.202143 
C 335.517814 160.686472 339.893385 154.137967 342.878444 146.931396 
C 345.863504 139.724825 347.4 132.000337 347.4 124.2 
M 288 124.2 
C 288 124.2 288 124.2 288 124.2 
C 288 124.2 288 124.2 288 124.2 
C 288 124.2 288 124.2 288 124.2 
C 288 124.2 288 124.2 288 124.2 
C 288 124.2 288 124.2 288 124.2 
C 288 124.2 288 124.2 288 124.2 
C 288 124.2 288 124.2 288 124.2 
C 288 124.2 288 124.2 288 124.2 
C 288 124.2 288 124.2 288 124.2 
C 288 124.2 288 124.2 288 124.2 
C 288 124.2 288 124.2 288 124.2 
C 288 124.2 288 124.2 288 124.2 
C 288 124.2 288 124.2 288 124.2 
C 288 124.2 288 124.2 288 124.2 
C 288 124.2 288 124.2 288 124.2 
C 288 124.2 288 124.2 288 124.2 
M 347.4 124.2 
z
" style="fill:#ffffff;"/>
   </g>
   <g id="patch_53">
    <path clip-path="url(#p26a16202e6)" d="M 288 124.2 
C 288 124.2 288 124.2 288 124.2 
C 288 124.2 288 124.2 288 124.2 
L 288 124.2 
C 288 124.2 288 124.2 288 124.2 
C 288 124.2 288 124.2 288 124.2 
z
" style="fill:#f15a29;opacity:0.5;"/>
   </g>
   <g id="patch_54">
    <path clip-path="url(#p26a16202e6)" d="M 288 124.2 
C 288 124.2 288 124.2 288 124.2 
C 288 124.2 288 124.2 288 124.2 
L 288 124.2 
C 288 124.2 288 124.2 288 124.2 
C 288 124.2 288 124.2 288 124.2 
z
" style="fill:#f15a29;opacity:0.5;"/>
   </g>
   <g id="patch_55">
    <path clip-path="url(#p26a16202e6)" d="M 288 124.2 
C 288 124.2 288 124.2 288 124.2 
C 288 124.2 288 124.2 288 124.2 
L 300.104879 112.304568 
C 300.6241 112.832932 301.108171 113.394724 301.553986 113.986339 
C 301.9998 114.577955 302.406401 115.198124 302.77118 115.842869 
z
" style="fill:#f15a29;opacity:0.5;"/>
   </g>
   <g id="patch_56">
    <path clip-path="url(#p26a16202e6)" d="M 288 124.2 
C 288 124.2 288 124.2 288 124.2 
C 288 124.2 288 124.2 288 124.2 
L 288 124.2 
C 288 124.2 288 124.2 288 124.2 
C 288 124.2 288 124.2 288 124.2 
z
" style="fill:#f15a29;opacity:0.5;"/>
   </g>
   <g id="patch_57">
    <path clip-path="url(#p26a16202e6)" d="M 288 124.2 
C 288 124.2 288 124.2 288 124.2 
C 288 124.2 288 124.2 288 124.2 
L 288 124.2 
C 288 124.2 288 124.2 288 124.2 
C 288 124.2 288 124.2 288 124.2 
z
" style="fill:#f15a29;opacity:0.5;"/>
   </g>
   <g id="patch_58">
    <path clip-path="url(#p26a16202e6)" d="M 288 124.2 
C 288 124.2 288 124.2 288 124.2 
C 288 124.2 288 124.2 288 124.2 
L 288 124.2 
C 288 124.2 288 124.2 288 124.2 
C 288 124.2 288 124.2 288 124.2 
z
" style="fill:#f15a29;opacity:0.5;"/>
   </g>
   <g id="patch_59">
    <path clip-path="url(#p26a16202e6)" d="M 288 124.2 
C 288 124.2 288 124.2 288 124.2 
C 288 124.2 288 124.2 288 124.2 
L 288 124.2 
C 288 124.2 288 124.2 288 124.2 
C 288 124.2 288 124.2 288 124.2 
z
" style="fill:#f15a29;opacity:0.5;"/>
   </g>
   <g id="patch_60">
    <path clip-path="url(#p26a16202e6)" d="M 288 124.2 
C 288 124.2 288 124.2 288 124.2 
C 288 124.2 288 124.2 288 124.2 
L 288 124.2 
C 288 124.2 288 124.2 288 124.2 
C 288 124.2 288 124.2 288 124.2 
z
" style="fill:#f15a29;opacity:0.5;"/>
   </g>
   <g id="patch_61">
    <path clip-path="url(#p26a16202e6)" d="M 288 124.2 
C 288 124.2 288 124.2 288 124.2 
C 288 124.2 288 124.2 288 124.2 
L 288 124.2 
C 288 124.2 288 124.2 288 124.2 
C 288 124.2 288 124.2 288 124.2 
z
" style="fill:#f15a29;opacity:0.5;"/>
   </g>
   <g id="patch_62">
    <path clip-path="url(#p26a16202e6)" d="M 288 124.2 
C 288 124.2 288 124.2 288 124.2 
C 288 124.2 288 124.2 288 124.2 
L 288 124.2 
C 288 124.2 288 124.2 288 124.2 
C 288 124.2 288 124.2 288 124.2 
z
" style="fill:#f15a29;opacity:0.5;"/>
   </g>
   <g id="patch_63">
    <path clip-path="url(#p26a16202e6)" d="M 288 124.2 
C 288 124.2 288 124.2 288 124.2 
C 288 124.2 288 124.2 288 124.2 
L 288 124.2 
C 288 124.2 288 124.2 288 124.2 
C 288 124.2 288 124.2 288 124.2 
z
" style="fill:#f15a29;opacity:0.5;"/>
   </g>
   <g id="patch_64">
    <path clip-path="url(#p26a16202e6)" d="M 288 124.2 
C 288 124.2 288 124.2 288 124.2 
C 288 124.2 288 124.2 288 124.2 
L 288 124.2 
C 288 124.2 288 124.2 288 124.2 
C 288 124.2 288 124.2 288 124.2 
z
" style="fill:#f15a29;opacity:0.5;"/>
   </g>
   <g id="patch_65">
    <path clip-path="url(#p26a16202e6)" d="M 288 124.2 
C 288 124.2 288 124.2 288 124.2 
C 288 124.2 288 124.2 288 124.2 
L 271.569151 128.449306 
C 271.383674 127.73212 271.245353 127.003558 271.155074 126.268297 
C 271.064795 125.533036 271.022753 124.792653 271.029218 124.051898 
z
" style="fill:#f15a29;opacity:0.5;"/>
   </g>
   <g id="patch_66">
    <path clip-path="url(#p26a16202e6)" d="M 288 124.2 
C 288 124.2 288 124.2 288 124.2 
C 288 124.2 288 124.2 288 124.2 
L 288 124.2 
C 288 124.2 288 124.2 288 124.2 
C 288 124.2 288 124.2 288 124.2 
z
" style="fill:#f15a29;opacity:0.5;"/>
   </g>
   <g id="patch_67">
    <path clip-path="url(#p26a16202e6)" d="M 288 124.2 
C 288 124.2 288 124.2 288 124.2 
C 288 124.2 288 124.2 288 124.2 
L 288 124.2 
C 288 124.2 288 124.2 288 124.2 
C 288 124.2 288 124.2 288 124.2 
z
" style="fill:#f15a29;opacity:0.5;"/>
   </g>
   <g id="patch_68">
    <path clip-path="url(#p26a16202e6)" d="M 288 124.2 
C 288 124.2 288 124.2 288 124.2 
C 288 124.2 288 124.2 288 124.2 
L 288 124.2 
C 288 124.2 288 124.2 288 124.2 
C 288 124.2 288 124.2 288 124.2 
z
" style="fill:#f15a29;opacity:0.5;"/>
   </g>
   <g id="patch_69">
    <path clip-path="url(#p26a16202e6)" d="M 288 124.2 
C 288 124.2 288 124.2 288 124.2 
C 288 124.2 288 124.2 288 124.2 
L 288 124.2 
C 288 124.2 288 124.2 288 124.2 
C 288 124.2 288 124.2 288 124.2 
z
" style="fill:#f15a29;opacity:0.5;"/>
   </g>
   <g id="patch_70">
    <path clip-path="url(#p26a16202e6)" d="M 288 124.2 
C 288 124.2 288 124.2 288 124.2 
C 288 124.2 288 124.2 288 124.2 
L 288 124.2 
C 288 124.2 288 124.2 288 124.2 
C 288 124.2 288 124.2 288 124.2 
z
" style="fill:#f15a29;opacity:0.5;"/>
   </g>
   <g id="patch_71">
    <path clip-path="url(#p26a16202e6)" d="M 288 124.2 
C 288 124.2 288 124.2 288 124.2 
C 288 124.2 288 124.2 288 124.2 
L 288 124.2 
C 288 124.2 288 124.2 288 124.2 
C 288 124.2 288 124.2 288 124.2 
z
" style="fill:#f15a29;opacity:0.5;"/>
   </g>
   <g id="patch_72">
    <path clip-path="url(#p26a16202e6)" d="M 288 124.2 
C 288 124.2 288 124.2 288 124.2 
C 288 124.2 288 124.2 288 124.2 
L 288 124.2 
C 288 124.2 288 124.2 288 124.2 
C 288 124.2 288 124.2 288 124.2 
z
" style="fill:#f15a29;opacity:0.5;"/>
   </g>
   <g id="patch_73">
    <path clip-path="url(#p26a16202e6)" d="M 288 124.2 
C 288 124.2 288 124.2 288 124.2 
C 288 124.2 288 124.2 288 124.2 
L 288 124.2 
C 288 124.2 288 124.2 288 124.2 
C 288 124.2 288 124.2 288 124.2 
z
" style="fill:#f15a29;opacity:0.5;"/>
   </g>
   <g id="patch_74">
    <path clip-path="url(#p26a16202e6)" d="M 288 124.2 
C 288 124.2 288 124.2 288 124.2 
C 288 124.2 288 124.2 288 124.2 
L 288 124.2 
C 288 124.2 288 124.2 288 124.2 
C 288 124.2 288 124.2 288 124.2 
z
" style="fill:#f15a29;opacity:0.5;"/>
   </g>
   <g id="patch_75">
    <path clip-path="url(#p26a16202e6)" d="M 288 124.2 
C 288 124.2 288 124.2 288 124.2 
C 288 124.2 288 124.2 288 124.2 
L 288 124.2 
C 288 124.2 288 124.2 288 124.2 
C 288 124.2 288 124.2 288 124.2 
z
" style="fill:#f15a29;opacity:0.5;"/>
   </g>
   <g id="patch_76">
    <path clip-path="url(#p26a16202e6)" d="M 288 124.2 
C 288 124.2 288 124.2 288 124.2 
C 288 124.2 288 124.2 288 124.2 
L 372.853912 124.940509 
C 372.821589 128.64428 372.546804 132.341965 372.031319 136.009832 
C 371.515834 139.677698 370.760755 143.307882 369.770927 146.877085 
z
" style="fill:#f15a29;opacity:0.5;"/>
   </g>
   <g id="patch_77">
    <path clip-path="url(#p26a16202e6)" d="M 288 124.2 
C 288 124.2 288 124.2 288 124.2 
C 288 124.2 288 124.2 288 124.2 
L 304.430849 119.950694 
C 304.616326 120.66788 304.754647 121.396442 304.844926 122.131703 
C 304.935205 122.866964 304.977247 123.607347 304.970782 124.348102 
z
" style="fill:#662d91;opacity:0.5;"/>
   </g>
   <g id="patch_78">
    <path clip-path="url(#p26a16202e6)" d="M 288 124.2 
C 288 124.2 288 124.2 288 124.2 
C 288 124.2 288 124.2 288 124.2 
L 288 124.2 
C 288 124.2 288 124.2 288 124.2 
C 288 124.2 288 124.2 288 124.2 
z
" style="fill:#662d91;opacity:0.5;"/>
   </g>
   <g id="patch_79">
    <path clip-path="url(#p26a16202e6)" d="M 288 124.2 
C 288 124.2 288 124.2 288 124.2 
C 288 124.2 288 124.2 288 124.2 
L 288 124.2 
C 288 124.2 288 124.2 288 124.2 
C 288 124.2 288 124.2 288 124.2 
z
" style="fill:#662d91;opacity:0.5;"/>
   </g>
   <g id="patch_80">
    <path clip-path="url(#p26a16202e6)" d="M 288 124.2 
C 288 124.2 288 124.2 288 124.2 
C 288 124.2 288 124.2 288 124.2 
L 296.613651 109.576922 
C 297.251931 109.952898 297.86491 110.370261 298.448655 110.826332 
C 299.032399 111.282403 299.585658 111.776205 300.104879 112.304568 
z
" style="fill:#662d91;opacity:0.5;"/>
   </g>
   <g id="patch_81">
    <path clip-path="url(#p26a16202e6)" d="M 288 124.2 
C 288 124.2 288 124.2 288 124.2 
C 288 124.2 288 124.2 288 124.2 
L 288 124.2 
C 288 124.2 288 124.2 288 124.2 
C 288 124.2 288 124.2 288 124.2 
z
" style="fill:#662d91;opacity:0.5;"/>
   </g>
   <g id="patch_82">
    <path clip-path="url(#p26a16202e6)" d="M 288 124.2 
C 288 124.2 288 124.2 288 124.2 
C 288 124.2 288 124.2 288 124.2 
L 288.148102 107.229218 
C 288.888856 107.235682 289.628393 107.290639 290.361966 107.393736 
C 291.09554 107.496833 291.821576 107.647849 292.535417 107.845815 
z
" style="fill:#662d91;opacity:0.5;"/>
   </g>
   <g id="patch_83">
    <path clip-path="url(#p26a16202e6)" d="M 288 124.2 
C 288 124.2 288 124.2 288 124.2 
C 288 124.2 288 124.2 288 124.2 
L 288 124.2 
C 288 124.2 288 124.2 288 124.2 
C 288 124.2 288 124.2 288 124.2 
z
" style="fill:#662d91;opacity:0.5;"/>
   </g>
   <g id="patch_84">
    <path clip-path="url(#p26a16202e6)" d="M 288 124.2 
C 288 124.2 288 124.2 288 124.2 
C 288 124.2 288 124.2 288 124.2 
L 288 124.2 
C 288 124.2 288 124.2 288 124.2 
C 288 124.2 288 124.2 288 124.2 
z
" style="fill:#662d91;opacity:0.5;"/>
   </g>
   <g id="patch_85">
    <path clip-path="url(#p26a16202e6)" d="M 288 124.2 
C 288 124.2 288 124.2 288 124.2 
C 288 124.2 288 124.2 288 124.2 
L 288 124.2 
C 288 124.2 288 124.2 288 124.2 
C 288 124.2 288 124.2 288 124.2 
z
" style="fill:#662d91;opacity:0.5;"/>
   </g>
   <g id="patch_86">
    <path clip-path="url(#p26a16202e6)" d="M 288 124.2 
C 288 124.2 288 124.2 288 124.2 
C 288 124.2 288 124.2 288 124.2 
L 288 124.2 
C 288 124.2 288 124.2 288 124.2 
C 288 124.2 288 124.2 288 124.2 
z
" style="fill:#662d91;opacity:0.5;"/>
   </g>
   <g id="patch_87">
    <path clip-path="url(#p26a16202e6)" d="M 288 124.2 
C 288 124.2 288 124.2 288 124.2 
C 288 124.2 288 124.2 288 124.2 
L 288 124.2 
C 288 124.2 288 124.2 288 124.2 
C 288 124.2 288 124.2 288 124.2 
z
" style="fill:#662d91;opacity:0.5;"/>
   </g>
   <g id="patch_88">
    <path clip-path="url(#p26a16202e6)" d="M 288 124.2 
C 288 124.2 288 124.2 288 124.2 
C 288 124.2 288 124.2 288 124.2 
L 288 124.2 
C 288 124.2 288 124.2 288 124.2 
C 288 124.2 288 124.2 288 124.2 
z
" style="fill:#662d91;opacity:0.5;"/>
   </g>
   <g id="patch_89">
    <path clip-path="url(#p26a16202e6)" d="M 288 124.2 
C 288 124.2 288 124.2 288 124.2 
C 288 124.2 288 124.2 288 124.2 
L 288 124.2 
C 288 124.2 288 124.2 288 124.2 
C 288 124.2 288 124.2 288 124.2 
z
" style="fill:#662d91;opacity:0.5;"/>
   </g>
   <g id="patch_90">
    <path clip-path="url(#p26a16202e6)" d="M 288 124.2 
C 288 124.2 288 124.2 288 124.2 
C 288 124.2 288 124.2 288 124.2 
L 273.22882 132.557131 
C 272.864042 131.912387 272.541867 131.244451 272.264365 130.557609 
C 271.986863 129.870767 271.754629 129.166493 271.569151 128.449306 
z
" style="fill:#662d91;opacity:0.5;"/>
   </g>
   <g id="patch_91">
    <path clip-path="url(#p26a16202e6)" d="M 288 124.2 
C 288 124.2 288 124.2 288 124.2 
C 288 124.2 288 124.2 288 124.2 
L 288 124.2 
C 288 124.2 288 124.2 288 124.2 
C 288 124.2 288 124.2 288 124.2 
z
" style="fill:#662d91;opacity:0.5;"/>
   </g>
   <g id="patch_92">
    <path clip-path="url(#p26a16202e6)" d="M 288 124.2 
C 288 124.2 288 124.2 288 124.2 
C 288 124.2 288 124.2 288 124.2 
L 288 124.2 
C 288 124.2 288 124.2 288 124.2 
C 288 124.2 288 124.2 288 124.2 
z
" style="fill:#662d91;opacity:0.5;"/>
   </g>
   <g id="patch_93">
    <path clip-path="url(#p26a16202e6)" d="M 288 124.2 
C 288 124.2 288 124.2 288 124.2 
C 288 124.2 288 124.2 288 124.2 
L 288 124.2 
C 288 124.2 288 124.2 288 124.2 
C 288 124.2 288 124.2 288 124.2 
z
" style="fill:#662d91;opacity:0.5;"/>
   </g>
   <g id="patch_94">
    <path clip-path="url(#p26a16202e6)" d="M 288 124.2 
C 288 124.2 288 124.2 288 124.2 
C 288 124.2 288 124.2 288 124.2 
L 288 124.2 
C 288 124.2 288 124.2 288 124.2 
C 288 124.2 288 124.2 288 124.2 
z
" style="fill:#662d91;opacity:0.5;"/>
   </g>
   <g id="patch_95">
    <path clip-path="url(#p26a16202e6)" d="M 288 124.2 
C 288 124.2 288 124.2 288 124.2 
C 288 124.2 288 124.2 288 124.2 
L 288 124.2 
C 288 124.2 288 124.2 288 124.2 
C 288 124.2 288 124.2 288 124.2 
z
" style="fill:#662d91;opacity:0.5;"/>
   </g>
   <g id="patch_96">
    <path clip-path="url(#p26a16202e6)" d="M 288 124.2 
C 288 124.2 288 124.2 288 124.2 
C 288 124.2 288 124.2 288 124.2 
L 296.357131 138.97118 
C 295.712387 139.335958 295.044451 139.658133 294.357609 139.935635 
C 293.670767 140.213137 292.966493 140.445371 292.249306 140.630849 
z
" style="fill:#662d91;opacity:0.5;"/>
   </g>
   <g id="patch_97">
    <path clip-path="url(#p26a16202e6)" d="M 288 124.2 
C 288 124.2 288 124.2 288 124.2 
C 288 124.2 288 124.2 288 124.2 
L 288 124.2 
C 288 124.2 288 124.2 288 124.2 
C 288 124.2 288 124.2 288 124.2 
z
" style="fill:#662d91;opacity:0.5;"/>
   </g>
   <g id="patch_98">
    <path clip-path="url(#p26a16202e6)" d="M 288 124.2 
C 288 124.2 288 124.2 288 124.2 
C 288 124.2 288 124.2 288 124.2 
L 288 124.2 
C 288 124.2 288 124.2 288 124.2 
C 288 124.2 288 124.2 288 124.2 
z
" style="fill:#662d91;opacity:0.5;"/>
   </g>
   <g id="patch_99">
    <path clip-path="url(#p26a16202e6)" d="M 288 124.2 
C 288 124.2 288 124.2 288 124.2 
C 288 124.2 288 124.2 288 124.2 
L 304.354185 128.735417 
C 304.15622 129.449258 303.911729 130.149372 303.622282 130.831265 
C 303.332836 131.513159 302.999053 132.175371 302.623078 132.813651 
z
" style="fill:#662d91;opacity:0.5;"/>
   </g>
   <g id="patch_100">
    <path clip-path="url(#p26a16202e6)" d="M 288 124.2 
C 288 124.2 288 124.2 288 124.2 
C 288 124.2 288 124.2 288 124.2 
L 304.970782 124.348102 
C 304.964318 125.088856 304.909361 125.828393 304.806264 126.561966 
C 304.703167 127.29554 304.552151 128.021576 304.354185 128.735417 
z
" style="fill:#662d91;opacity:0.5;"/>
   </g>
   <g id="matplotlib.axis_3">
    <g id="xtick_6">
     <g id="line2d_11">
      <path clip-path="url(#p26a16202e6)" d="M 288 124.2 
L 347.4 124.2 
" style="fill:none;stroke:#b0b0b0;stroke-linecap:square;stroke-width:0.8;"/>
     </g>
     <g id="text_10">
      <!-- $0$ -->
      <g transform="translate(359.48 125.855625)">
       <text>
        <tspan style="font-family:DejaVu Sans;font-size:6px;font-style:book;font-weight:book;" x="0" y="-0.546875">0</tspan>
       </text>
      </g>
     </g>
    </g>
    <g id="xtick_7">
     <g id="line2d_12">
      <path clip-path="url(#p26a16202e6)" d="M 288 124.2 
L 288 64.8 
" style="fill:none;stroke:#b0b0b0;stroke-linecap:square;stroke-width:0.8;"/>
     </g>
     <g id="text_11">
      <!-- $\pi/2$ -->
      <g transform="translate(283.38 52.455625)">
       <text>
        <tspan style="font-family:DejaVu Sans;font-size:6px;font-style:oblique;font-weight:oblique;" x="0" y="-0.546875">π</tspan>
        <tspan style="font-family:DejaVu Sans;font-size:6px;font-style:book;font-weight:book;" x="3.612305 5.383789" y="-0.546875">/2</tspan>
       </text>
      </g>
     </g>
    </g>
    <g id="xtick_8">
     <g id="line2d_13">
      <path clip-path="url(#p26a16202e6)" d="M 288 124.2 
L 228.6 124.2 
" style="fill:none;stroke:#b0b0b0;stroke-linecap:square;stroke-width:0.8;"/>
     </g>
     <g id="text_12">
      <!-- $\pi$ -->
      <g transform="translate(212.77 125.855625)">
       <text>
        <tspan style="font-family:DejaVu Sans;font-size:6px;font-style:oblique;font-weight:oblique;" x="0" y="-0.71875">π</tspan>
       </text>
      </g>
     </g>
    </g>
    <g id="xtick_9">
     <g id="line2d_14">
      <path clip-path="url(#p26a16202e6)" d="M 288 124.2 
L 288 183.6 
" style="fill:none;stroke:#b0b0b0;stroke-linecap:square;stroke-width:0.8;"/>
     </g>
     <g id="text_13">
      <!-- $3\pi/2$ -->
      <g transform="translate(281.46 199.255625)">
       <text>
        <tspan style="font-family:DejaVu Sans;font-size:6px;font-style:book;font-weight:book;" x="0 7.429688 9.201172" y="-0.546875">3/2</tspan>
        <tspan style="font-family:DejaVu Sans;font-size:6px;font-style:oblique;font-weight:oblique;" x="3.817383" y="-0.546875">π</tspan>
       </text>
      </g>
     </g>
    </g>
    <g id="xtick_10">
     <g id="line2d_15">
      <path clip-path="url(#p26a16202e6)" d="M 288 124.2 
L 347.4 124.2 
" style="fill:none;stroke:#b0b0b0;stroke-linecap:square;stroke-width:0.8;"/>
     </g>
     <g id="text_14">
      <!-- $0$ -->
      <g transform="translate(359.48 125.855625)">
       <text>
        <tspan style="font-family:DejaVu Sans;font-size:6px;font-style:book;font-weight:book;" x="0" y="-0.546875">0</tspan>
       </text>
      </g>
     </g>
    </g>
   </g>
   <g id="matplotlib.axis_4">
    <g id="ytick_4">
     <g id="line2d_16">
      <path clip-path="url(#p26a16202e6)" d="M 288 124.2 
C 288 124.2 288 124.2 288 124.2 
C 288 124.2 288 124.2 288 124.2 
C 288 124.2 288 124.2 288 124.2 
C 288 124.2 288 124.2 288 124.2 
C 288 124.2 288 124.2 288 124.2 
C 288 124.2 288 124.2 288 124.2 
C 288 124.2 288 124.2 288 124.2 
C 288 124.2 288 124.2 288 124.2 
C 288 124.2 288 124.2 288 124.2 
C 288 124.2 288 124.2 288 124.2 
C 288 124.2 288 124.2 288 124.2 
C 288 124.2 288 124.2 288 124.2 
C 288 124.2 288 124.2 288 124.2 
C 288 124.2 288 124.2 288 124.2 
C 288 124.2 288 124.2 288 124.2 
C 288 124.2 288 124.2 288 124.2 
" style="fill:none;stroke:#b0b0b0;stroke-linecap:square;stroke-width:0.8;"/>
     </g>
     <g id="text_15">
      <text style="font-family:DejaVu Sans;font-size:6px;font-stretch:normal;font-style:normal;font-weight:normal;text-anchor:start;" transform="rotate(-0, 288, 122.952188)" x="288" y="122.952188">0.00</text>
     </g>
    </g>
    <g id="ytick_5">
     <g id="line2d_17">
      <path clip-path="url(#p26a16202e6)" d="M 317.7 124.2 
C 317.7 120.299832 316.931752 116.437588 315.439222 112.834302 
C 313.946692 109.231016 311.758907 105.956764 309.001071 103.198929 
C 306.243236 100.441093 302.968984 98.253308 299.365698 96.760778 
C 295.762412 95.268248 291.900168 94.5 288 94.5 
C 284.099832 94.5 280.237588 95.268248 276.634302 96.760778 
C 273.031016 98.253308 269.756764 100.441093 266.998929 103.198929 
C 264.241093 105.956764 262.053308 109.231016 260.560778 112.834302 
C 259.068248 116.437588 258.3 120.299832 258.3 124.2 
C 258.3 128.100168 259.068248 131.962412 260.560778 135.565698 
C 262.053308 139.168984 264.241093 142.443236 266.998929 145.201071 
C 269.756764 147.958907 273.031016 150.146692 276.634302 151.639222 
C 280.237588 153.131752 284.099832 153.9 288 153.9 
C 291.900168 153.9 295.762412 153.131752 299.365698 151.639222 
C 302.968984 150.146692 306.243236 147.958907 309.001071 145.201071 
C 311.758907 142.443236 313.946692 139.168984 315.439222 135.565698 
C 316.931752 131.962412 317.7 128.100168 317.7 124.2 
" style="fill:none;stroke:#b0b0b0;stroke-linecap:square;stroke-width:0.8;"/>
     </g>
     <g id="text_16">
      <text style="font-family:DejaVu Sans;font-size:6px;font-stretch:normal;font-style:normal;font-weight:normal;text-anchor:start;" transform="rotate(-0, 315.439222, 111.58649)" x="315.439222" y="111.58649">0.25</text>
     </g>
    </g>
    <g id="ytick_6">
     <g id="line2d_18">
      <path clip-path="url(#p26a16202e6)" d="M 347.4 124.2 
C 347.4 116.399663 345.863504 108.675175 342.878444 101.468604 
C 339.893385 94.262033 335.517814 87.713528 330.002143 82.197857 
C 324.486472 76.682186 317.937967 72.306615 310.731396 69.321556 
C 303.524825 66.336496 295.800337 64.8 288 64.8 
C 280.199663 64.8 272.475175 66.336496 265.268604 69.321556 
C 258.062033 72.306615 251.513528 76.682186 245.997857 82.197857 
C 240.482186 87.713528 236.106615 94.262033 233.121556 101.468604 
C 230.136496 108.675175 228.6 116.399663 228.6 124.2 
C 228.6 132.000337 230.136496 139.724825 233.121556 146.931396 
C 236.106615 154.137967 240.482186 160.686472 245.997857 166.202143 
C 251.513528 171.717814 258.062033 176.093385 265.268604 179.078444 
C 272.475175 182.063504 280.199663 183.6 288 183.6 
C 295.800337 183.6 303.524825 182.063504 310.731396 179.078444 
C 317.937967 176.093385 324.486472 171.717814 330.002143 166.202143 
C 335.517814 160.686472 339.893385 154.137967 342.878444 146.931396 
C 345.863504 139.724825 347.4 132.000337 347.4 124.2 
" style="fill:none;stroke:#b0b0b0;stroke-linecap:square;stroke-width:0.8;"/>
     </g>
     <g id="text_17">
      <text style="font-family:DejaVu Sans;font-size:6px;font-stretch:normal;font-style:normal;font-weight:normal;text-anchor:start;" transform="rotate(-0, 342.878444, 100.220792)" x="342.878444" y="100.220792">0.50</text>
     </g>
    </g>
   </g>
   <g id="line2d_19">
    <path clip-path="url(#p26a16202e6)" d="M 288 124.2 
L 372.521185 131.743474 
" style="fill:none;stroke:#f15a29;stroke-linecap:square;stroke-width:2;"/>
   </g>
   <g id="line2d_20">
    <path clip-path="url(#p26a16202e6)" d="M 288 124.2 
L 304.820992 121.945309 
" style="fill:none;stroke:#662d91;stroke-linecap:square;stroke-width:2;"/>
   </g>
   <g id="patch_101">
    <path d="M 347.4 124.2 
C 347.4 116.399663 345.863504 108.675175 342.878444 101.468604 
C 339.893385 94.262033 335.517814 87.713528 330.002143 82.197857 
C 324.486472 76.682186 317.937967 72.306615 310.731396 69.321556 
C 303.524825 66.336496 295.800337 64.8 288 64.8 
C 280.199663 64.8 272.475175 66.336496 265.268604 69.321556 
C 258.062033 72.306615 251.513528 76.682186 245.997857 82.197857 
C 240.482186 87.713528 236.106615 94.262033 233.121556 101.468604 
C 230.136496 108.675175 228.6 116.399663 228.6 124.2 
C 228.6 132.000337 230.136496 139.724825 233.121556 146.931396 
C 236.106615 154.137967 240.482186 160.686472 245.997857 166.202143 
C 251.513528 171.717814 258.062033 176.093385 265.268604 179.078444 
C 272.475175 182.063504 280.199663 183.6 288 183.6 
C 295.800337 183.6 303.524825 182.063504 310.731396 179.078444 
C 317.937967 176.093385 324.486472 171.717814 330.002143 166.202143 
C 335.517814 160.686472 339.893385 154.137967 342.878444 146.931396 
C 345.863504 139.724825 347.4 132.000337 347.4 124.2 
" style="fill:none;stroke:#000000;stroke-linecap:square;stroke-linejoin:miter;stroke-width:0.25;"/>
   </g>
   <g id="text_18">
    <text style="font-family:DejaVu Sans;font-size:8px;font-stretch:normal;font-style:normal;font-weight:normal;text-anchor:start;" transform="rotate(-0, 228.6, 41.896563)" x="228.6" y="41.896563">Lm, n=7 cells</text>
   </g>
  </g>
  <g id="axes_3">
   <g id="patch_102">
    <path d="M 153 124.2 
C 153 116.399663 151.463504 108.675175 148.478444 101.468604 
C 145.493385 94.262033 141.117814 87.713528 135.602143 82.197857 
C 130.086472 76.682186 123.537967 72.306615 116.331396 69.321556 
C 109.124825 66.336496 101.400337 64.8 93.6 64.8 
C 85.799663 64.8 78.075175 66.336496 70.868604 69.321556 
C 63.662033 72.306615 57.113528 76.682186 51.597857 82.197857 
C 46.082186 87.713528 41.706615 94.262033 38.721556 101.468604 
C 35.736496 108.675175 34.2 116.399663 34.2 124.2 
C 34.2 132.000337 35.736496 139.724825 38.721556 146.931396 
C 41.706615 154.137967 46.082186 160.686472 51.597857 166.202143 
C 57.113528 171.717814 63.662033 176.093385 70.868604 179.078444 
C 78.075175 182.063504 85.799663 183.6 93.6 183.6 
C 101.400337 183.6 109.124825 182.063504 116.331396 179.078444 
C 123.537967 176.093385 130.086472 171.717814 135.602143 166.202143 
C 141.117814 160.686472 145.493385 154.137967 148.478444 146.931396 
C 151.463504 139.724825 153 132.000337 153 124.2 
M 93.6 124.2 
C 93.6 124.2 93.6 124.2 93.6 124.2 
C 93.6 124.2 93.6 124.2 93.6 124.2 
C 93.6 124.2 93.6 124.2 93.6 124.2 
C 93.6 124.2 93.6 124.2 93.6 124.2 
C 93.6 124.2 93.6 124.2 93.6 124.2 
C 93.6 124.2 93.6 124.2 93.6 124.2 
C 93.6 124.2 93.6 124.2 93.6 124.2 
C 93.6 124.2 93.6 124.2 93.6 124.2 
C 93.6 124.2 93.6 124.2 93.6 124.2 
C 93.6 124.2 93.6 124.2 93.6 124.2 
C 93.6 124.2 93.6 124.2 93.6 124.2 
C 93.6 124.2 93.6 124.2 93.6 124.2 
C 93.6 124.2 93.6 124.2 93.6 124.2 
C 93.6 124.2 93.6 124.2 93.6 124.2 
C 93.6 124.2 93.6 124.2 93.6 124.2 
C 93.6 124.2 93.6 124.2 93.6 124.2 
M 153 124.2 
z
" style="fill:#ffffff;"/>
   </g>
   <g id="patch_103">
    <path clip-path="url(#pcb5f98db62)" d="M 93.6 124.2 
C 93.6 124.2 93.6 124.2 93.6 124.2 
C 93.6 124.2 93.6 124.2 93.6 124.2 
L 124.854331 116.11708 
C 125.207141 117.481294 125.470253 118.867146 125.641979 120.26574 
C 125.813705 121.664334 125.893676 123.072672 125.881379 124.481715 
z
" style="fill:#f15a29;opacity:0.5;"/>
   </g>
   <g id="patch_104">
    <path clip-path="url(#pcb5f98db62)" d="M 93.6 124.2 
C 93.6 124.2 93.6 124.2 93.6 124.2 
C 93.6 124.2 93.6 124.2 93.6 124.2 
L 117.01446 110.952736 
C 117.592688 111.974749 118.10338 113.033525 118.543261 114.122268 
C 118.983142 115.211012 119.351268 116.327388 119.645276 117.464234 
z
" style="fill:#f15a29;opacity:0.5;"/>
   </g>
   <g id="patch_105">
    <path clip-path="url(#pcb5f98db62)" d="M 93.6 124.2 
C 93.6 124.2 93.6 124.2 93.6 124.2 
C 93.6 124.2 93.6 124.2 93.6 124.2 
L 99.740156 118.166085 
C 100.003529 118.434096 100.249072 118.719063 100.47521 119.019158 
C 100.701348 119.319252 100.907595 119.633831 101.092627 119.960875 
z
" style="fill:#f15a29;opacity:0.5;"/>
   </g>
   <g id="patch_106">
    <path clip-path="url(#pcb5f98db62)" d="M 93.6 124.2 
C 93.6 124.2 93.6 124.2 93.6 124.2 
C 93.6 124.2 93.6 124.2 93.6 124.2 
L 94.692311 122.345624 
C 94.773252 122.393302 94.850985 122.446229 94.925011 122.504064 
C 94.999036 122.561899 95.069196 122.624519 95.135039 122.691521 
z
" style="fill:#f15a29;opacity:0.5;"/>
   </g>
   <g id="patch_107">
    <path clip-path="url(#pcb5f98db62)" d="M 93.6 124.2 
C 93.6 124.2 93.6 124.2 93.6 124.2 
C 93.6 124.2 93.6 124.2 93.6 124.2 
L 95.037859 119.015249 
C 95.264167 119.07801 95.486123 119.155521 95.702303 119.247284 
C 95.918483 119.339047 96.128424 119.444865 96.330777 119.56406 
z
" style="fill:#f15a29;opacity:0.5;"/>
   </g>
   <g id="patch_108">
    <path clip-path="url(#pcb5f98db62)" d="M 93.6 124.2 
C 93.6 124.2 93.6 124.2 93.6 124.2 
C 93.6 124.2 93.6 124.2 93.6 124.2 
L 93.637562 119.895816 
C 93.825435 119.897456 94.012998 119.911394 94.199049 119.937542 
C 94.385101 119.96369 94.56924 120.001991 94.750287 120.052199 
z
" style="fill:#f15a29;opacity:0.5;"/>
   </g>
   <g id="patch_109">
    <path clip-path="url(#pcb5f98db62)" d="M 93.6 124.2 
C 93.6 124.2 93.6 124.2 93.6 124.2 
C 93.6 124.2 93.6 124.2 93.6 124.2 
L 93.061139 122.116378 
C 93.152086 122.092857 93.244476 122.075316 93.337716 122.063868 
C 93.430956 122.05242 93.524845 122.047088 93.618781 122.047908 
z
" style="fill:#f15a29;opacity:0.5;"/>
   </g>
   <g id="patch_110">
    <path clip-path="url(#pcb5f98db62)" d="M 93.6 124.2 
C 93.6 124.2 93.6 124.2 93.6 124.2 
C 93.6 124.2 93.6 124.2 93.6 124.2 
L 92.540219 122.326843 
C 92.62198 122.280585 92.706682 122.23973 92.793781 122.204539 
C 92.880881 122.169349 92.970191 122.139899 93.061139 122.116378 
z
" style="fill:#f15a29;opacity:0.5;"/>
   </g>
   <g id="patch_111">
    <path clip-path="url(#pcb5f98db62)" d="M 93.6 124.2 
C 93.6 124.2 93.6 124.2 93.6 124.2 
C 93.6 124.2 93.6 124.2 93.6 124.2 
L 93.6 124.2 
C 93.6 124.2 93.6 124.2 93.6 124.2 
C 93.6 124.2 93.6 124.2 93.6 124.2 
z
" style="fill:#f15a29;opacity:0.5;"/>
   </g>
   <g id="patch_112">
    <path clip-path="url(#pcb5f98db62)" d="M 93.6 124.2 
C 93.6 124.2 93.6 124.2 93.6 124.2 
C 93.6 124.2 93.6 124.2 93.6 124.2 
L 91.745624 123.107689 
C 91.793302 123.026748 91.846229 122.949015 91.904064 122.874989 
C 91.961899 122.800964 92.024519 122.730804 92.091521 122.664961 
z
" style="fill:#f15a29;opacity:0.5;"/>
   </g>
   <g id="patch_113">
    <path clip-path="url(#pcb5f98db62)" d="M 93.6 124.2 
C 93.6 124.2 93.6 124.2 93.6 124.2 
C 93.6 124.2 93.6 124.2 93.6 124.2 
L 91.5261 123.624857 
C 91.551204 123.534333 91.582208 123.445551 91.618913 123.359079 
C 91.655619 123.272607 91.697946 123.18863 91.745624 123.107689 
z
" style="fill:#f15a29;opacity:0.5;"/>
   </g>
   <g id="patch_114">
    <path clip-path="url(#pcb5f98db62)" d="M 93.6 124.2 
C 93.6 124.2 93.6 124.2 93.6 124.2 
C 93.6 124.2 93.6 124.2 93.6 124.2 
L 92.523954 124.190609 
C 92.524364 124.143641 92.527849 124.09675 92.534385 124.050238 
C 92.540922 124.003725 92.550498 123.95769 92.56305 123.912428 
z
" style="fill:#f15a29;opacity:0.5;"/>
   </g>
   <g id="patch_115">
    <path clip-path="url(#pcb5f98db62)" d="M 93.6 124.2 
C 93.6 124.2 93.6 124.2 93.6 124.2 
C 93.6 124.2 93.6 124.2 93.6 124.2 
L 92.558189 124.469431 
C 92.546429 124.423957 92.537658 124.377762 92.531934 124.331142 
C 92.52621 124.284522 92.523544 124.237578 92.523954 124.190609 
z
" style="fill:#f15a29;opacity:0.5;"/>
   </g>
   <g id="patch_116">
    <path clip-path="url(#pcb5f98db62)" d="M 93.6 124.2 
C 93.6 124.2 93.6 124.2 93.6 124.2 
C 93.6 124.2 93.6 124.2 93.6 124.2 
L 90.790265 125.789672 
C 90.720877 125.66703 90.659594 125.539977 90.606809 125.409328 
C 90.554023 125.278679 90.509848 125.144713 90.474567 125.008292 
z
" style="fill:#f15a29;opacity:0.5;"/>
   </g>
   <g id="patch_117">
    <path clip-path="url(#pcb5f98db62)" d="M 93.6 124.2 
C 93.6 124.2 93.6 124.2 93.6 124.2 
C 93.6 124.2 93.6 124.2 93.6 124.2 
L 92.83248 124.954239 
C 92.799559 124.920738 92.768866 124.885117 92.740599 124.847605 
C 92.712332 124.810093 92.686551 124.770771 92.663422 124.729891 
z
" style="fill:#f15a29;opacity:0.5;"/>
   </g>
   <g id="patch_118">
    <path clip-path="url(#pcb5f98db62)" d="M 93.6 124.2 
C 93.6 124.2 93.6 124.2 93.6 124.2 
C 93.6 124.2 93.6 124.2 93.6 124.2 
L 91.961534 126.981564 
C 91.840122 126.910047 91.723523 126.830657 91.612484 126.743904 
C 91.501446 126.657152 91.396206 126.563222 91.297441 126.462718 
z
" style="fill:#f15a29;opacity:0.5;"/>
   </g>
   <g id="patch_119">
    <path clip-path="url(#pcb5f98db62)" d="M 93.6 124.2 
C 93.6 124.2 93.6 124.2 93.6 124.2 
C 93.6 124.2 93.6 124.2 93.6 124.2 
L 93.312428 125.23695 
C 93.267167 125.224398 93.222775 125.208896 93.179539 125.190543 
C 93.136303 125.172191 93.094315 125.151027 93.053845 125.127188 
z
" style="fill:#f15a29;opacity:0.5;"/>
   </g>
   <g id="patch_120">
    <path clip-path="url(#pcb5f98db62)" d="M 93.6 124.2 
C 93.6 124.2 93.6 124.2 93.6 124.2 
C 93.6 124.2 93.6 124.2 93.6 124.2 
L 93.581219 126.352092 
C 93.487283 126.351272 93.393501 126.344303 93.300475 126.331229 
C 93.20745 126.318155 93.11538 126.299005 93.024857 126.2739 
z
" style="fill:#f15a29;opacity:0.5;"/>
   </g>
   <g id="patch_121">
    <path clip-path="url(#pcb5f98db62)" d="M 93.6 124.2 
C 93.6 124.2 93.6 124.2 93.6 124.2 
C 93.6 124.2 93.6 124.2 93.6 124.2 
L 94.677723 128.367244 
C 94.495827 128.414285 94.311047 128.449367 94.124568 128.472264 
C 93.938089 128.495161 93.75031 128.505823 93.562438 128.504184 
z
" style="fill:#f15a29;opacity:0.5;"/>
   </g>
   <g id="patch_122">
    <path clip-path="url(#pcb5f98db62)" d="M 93.6 124.2 
C 93.6 124.2 93.6 124.2 93.6 124.2 
C 93.6 124.2 93.6 124.2 93.6 124.2 
L 96.249453 128.882892 
C 96.04505 128.998538 95.833295 129.100676 95.615546 129.188652 
C 95.397798 129.276628 95.174522 129.350254 94.947153 129.409055 
z
" style="fill:#f15a29;opacity:0.5;"/>
   </g>
   <g id="patch_123">
    <path clip-path="url(#pcb5f98db62)" d="M 93.6 124.2 
C 93.6 124.2 93.6 124.2 93.6 124.2 
C 93.6 124.2 93.6 124.2 93.6 124.2 
L 96.616957 127.270078 
C 96.482952 127.401765 96.340469 127.524536 96.190421 127.637605 
C 96.040374 127.750674 95.883084 127.853797 95.719562 127.946314 
z
" style="fill:#f15a29;opacity:0.5;"/>
   </g>
   <g id="patch_124">
    <path clip-path="url(#pcb5f98db62)" d="M 93.6 124.2 
C 93.6 124.2 93.6 124.2 93.6 124.2 
C 93.6 124.2 93.6 124.2 93.6 124.2 
L 109.362194 133.484642 
C 108.956931 134.172643 108.507056 134.833372 108.015458 135.46259 
C 107.523859 136.091807 106.991591 136.688164 106.422068 137.247832 
z
" style="fill:#f15a29;opacity:0.5;"/>
   </g>
   <g id="patch_125">
    <path clip-path="url(#pcb5f98db62)" d="M 93.6 124.2 
C 93.6 124.2 93.6 124.2 93.6 124.2 
C 93.6 124.2 93.6 124.2 93.6 124.2 
L 111.228153 129.088719 
C 111.014766 129.858167 110.75123 130.612819 110.439236 131.347831 
C 110.127241 132.082844 109.767458 132.796641 109.362194 133.484642 
z
" style="fill:#f15a29;opacity:0.5;"/>
   </g>
   <g id="patch_126">
    <path clip-path="url(#pcb5f98db62)" d="M 93.6 124.2 
C 93.6 124.2 93.6 124.2 93.6 124.2 
C 93.6 124.2 93.6 124.2 93.6 124.2 
L 139.869977 124.603792 
C 139.852352 126.623421 139.702514 128.639731 139.421426 130.639781 
C 139.140337 132.639832 138.7286 134.619334 138.188857 136.565584 
z
" style="fill:#f15a29;opacity:0.5;"/>
   </g>
   <g id="patch_127">
    <path clip-path="url(#pcb5f98db62)" d="M 93.6 124.2 
C 93.6 124.2 93.6 124.2 93.6 124.2 
C 93.6 124.2 93.6 124.2 93.6 124.2 
L 137.356064 112.883912 
C 137.849998 114.793812 138.218355 116.734004 138.458771 118.692036 
C 138.699187 120.650067 138.811146 122.621741 138.793931 124.594401 
z
" style="fill:#662d91;opacity:0.5;"/>
   </g>
   <g id="patch_128">
    <path clip-path="url(#pcb5f98db62)" d="M 93.6 124.2 
C 93.6 124.2 93.6 124.2 93.6 124.2 
C 93.6 124.2 93.6 124.2 93.6 124.2 
L 102.029206 119.430985 
C 102.237368 119.79891 102.421217 120.180069 102.579574 120.572017 
C 102.737931 120.963964 102.870457 121.36586 102.976299 121.775124 
z
" style="fill:#662d91;opacity:0.5;"/>
   </g>
   <g id="patch_129">
    <path clip-path="url(#pcb5f98db62)" d="M 93.6 124.2 
C 93.6 124.2 93.6 124.2 93.6 124.2 
C 93.6 124.2 93.6 124.2 93.6 124.2 
L 97.437598 120.428803 
C 97.602206 120.59631 97.75567 120.774414 97.897006 120.961974 
C 98.038342 121.149533 98.167247 121.346145 98.282892 121.550547 
z
" style="fill:#662d91;opacity:0.5;"/>
   </g>
   <g id="patch_130">
    <path clip-path="url(#pcb5f98db62)" d="M 93.6 124.2 
C 93.6 124.2 93.6 124.2 93.6 124.2 
C 93.6 124.2 93.6 124.2 93.6 124.2 
L 97.423088 117.709685 
C 97.706382 117.876558 97.978447 118.0618 98.237537 118.264223 
C 98.496627 118.466646 98.742185 118.685816 98.972637 118.920325 
z
" style="fill:#662d91;opacity:0.5;"/>
   </g>
   <g id="patch_131">
    <path clip-path="url(#pcb5f98db62)" d="M 93.6 124.2 
C 93.6 124.2 93.6 124.2 93.6 124.2 
C 93.6 124.2 93.6 124.2 93.6 124.2 
L 94.462715 121.08915 
C 94.5985 121.126806 94.731674 121.173312 94.861382 121.22837 
C 94.99109 121.283428 95.117054 121.346919 95.238466 121.418436 
z
" style="fill:#662d91;opacity:0.5;"/>
   </g>
   <g id="patch_132">
    <path clip-path="url(#pcb5f98db62)" d="M 93.6 124.2 
C 93.6 124.2 93.6 124.2 93.6 124.2 
C 93.6 124.2 93.6 124.2 93.6 124.2 
L 93.703296 112.363494 
C 94.219945 112.368003 94.735745 112.406334 95.247386 112.47824 
C 95.759027 112.550146 96.265411 112.655474 96.763289 112.793548 
z
" style="fill:#662d91;opacity:0.5;"/>
   </g>
   <g id="patch_133">
    <path clip-path="url(#pcb5f98db62)" d="M 93.6 124.2 
C 93.6 124.2 93.6 124.2 93.6 124.2 
C 93.6 124.2 93.6 124.2 93.6 124.2 
L 91.175124 114.823701 
C 91.584388 114.717858 92.000144 114.638924 92.419722 114.587406 
C 92.8393 114.535889 93.261802 114.511897 93.684515 114.515586 
z
" style="fill:#662d91;opacity:0.5;"/>
   </g>
   <g id="patch_134">
    <path clip-path="url(#pcb5f98db62)" d="M 93.6 124.2 
C 93.6 124.2 93.6 124.2 93.6 124.2 
C 93.6 124.2 93.6 124.2 93.6 124.2 
L 93.070109 123.263422 
C 93.11099 123.240292 93.153341 123.219865 93.196891 123.20227 
C 93.24044 123.184674 93.285096 123.169949 93.330569 123.158189 
z
" style="fill:#662d91;opacity:0.5;"/>
   </g>
   <g id="patch_135">
    <path clip-path="url(#pcb5f98db62)" d="M 93.6 124.2 
C 93.6 124.2 93.6 124.2 93.6 124.2 
C 93.6 124.2 93.6 124.2 93.6 124.2 
L 91.337282 121.897441 
C 91.437786 121.798677 91.544649 121.706598 91.657184 121.621796 
C 91.76972 121.536995 91.887687 121.459652 92.010328 121.390265 
z
" style="fill:#662d91;opacity:0.5;"/>
   </g>
   <g id="patch_136">
    <path clip-path="url(#pcb5f98db62)" d="M 93.6 124.2 
C 93.6 124.2 93.6 124.2 93.6 124.2 
C 93.6 124.2 93.6 124.2 93.6 124.2 
L 91.745624 123.107689 
C 91.793302 123.026748 91.846229 122.949015 91.904064 122.874989 
C 91.961899 122.800964 92.024519 122.730804 92.091521 122.664961 
z
" style="fill:#662d91;opacity:0.5;"/>
   </g>
   <g id="patch_137">
    <path clip-path="url(#pcb5f98db62)" d="M 93.6 124.2 
C 93.6 124.2 93.6 124.2 93.6 124.2 
C 93.6 124.2 93.6 124.2 93.6 124.2 
L 93.6 124.2 
C 93.6 124.2 93.6 124.2 93.6 124.2 
C 93.6 124.2 93.6 124.2 93.6 124.2 
z
" style="fill:#662d91;opacity:0.5;"/>
   </g>
   <g id="patch_138">
    <path clip-path="url(#pcb5f98db62)" d="M 93.6 124.2 
C 93.6 124.2 93.6 124.2 93.6 124.2 
C 93.6 124.2 93.6 124.2 93.6 124.2 
L 91.447908 124.181219 
C 91.448728 124.087283 91.455697 123.993501 91.468771 123.900475 
C 91.481845 123.80745 91.500995 123.71538 91.5261 123.624857 
z
" style="fill:#662d91;opacity:0.5;"/>
   </g>
   <g id="patch_139">
    <path clip-path="url(#pcb5f98db62)" d="M 93.6 124.2 
C 93.6 124.2 93.6 124.2 93.6 124.2 
C 93.6 124.2 93.6 124.2 93.6 124.2 
L 91.516378 124.738861 
C 91.492857 124.647914 91.475316 124.555524 91.463868 124.462284 
C 91.45242 124.369044 91.447088 124.275155 91.447908 124.181219 
z
" style="fill:#662d91;opacity:0.5;"/>
   </g>
   <g id="patch_140">
    <path clip-path="url(#pcb5f98db62)" d="M 93.6 124.2 
C 93.6 124.2 93.6 124.2 93.6 124.2 
C 93.6 124.2 93.6 124.2 93.6 124.2 
L 90.790265 125.789672 
C 90.720877 125.66703 90.659594 125.539977 90.606809 125.409328 
C 90.554023 125.278679 90.509848 125.144713 90.474567 125.008292 
z
" style="fill:#662d91;opacity:0.5;"/>
   </g>
   <g id="patch_141">
    <path clip-path="url(#pcb5f98db62)" d="M 93.6 124.2 
C 93.6 124.2 93.6 124.2 93.6 124.2 
C 93.6 124.2 93.6 124.2 93.6 124.2 
L 92.064961 125.708479 
C 91.999118 125.641476 91.937732 125.570234 91.881197 125.495211 
C 91.824663 125.420187 91.773101 125.341542 91.726843 125.259781 
z
" style="fill:#662d91;opacity:0.5;"/>
   </g>
   <g id="patch_142">
    <path clip-path="url(#pcb5f98db62)" d="M 93.6 124.2 
C 93.6 124.2 93.6 124.2 93.6 124.2 
C 93.6 124.2 93.6 124.2 93.6 124.2 
L 93.053845 125.127188 
C 93.013374 125.103349 92.974508 125.076886 92.937495 125.047968 
C 92.900482 125.019051 92.865402 124.987741 92.83248 124.954239 
z
" style="fill:#662d91;opacity:0.5;"/>
   </g>
   <g id="patch_143">
    <path clip-path="url(#pcb5f98db62)" d="M 93.6 124.2 
C 93.6 124.2 93.6 124.2 93.6 124.2 
C 93.6 124.2 93.6 124.2 93.6 124.2 
L 93.312428 125.23695 
C 93.267167 125.224398 93.222775 125.208896 93.179539 125.190543 
C 93.136303 125.172191 93.094315 125.151027 93.053845 125.127188 
z
" style="fill:#662d91;opacity:0.5;"/>
   </g>
   <g id="patch_144">
    <path clip-path="url(#pcb5f98db62)" d="M 93.6 124.2 
C 93.6 124.2 93.6 124.2 93.6 124.2 
C 93.6 124.2 93.6 124.2 93.6 124.2 
L 93.581219 126.352092 
C 93.487283 126.351272 93.393501 126.344303 93.300475 126.331229 
C 93.20745 126.318155 93.11538 126.299005 93.024857 126.2739 
z
" style="fill:#662d91;opacity:0.5;"/>
   </g>
   <g id="patch_145">
    <path clip-path="url(#pcb5f98db62)" d="M 93.6 124.2 
C 93.6 124.2 93.6 124.2 93.6 124.2 
C 93.6 124.2 93.6 124.2 93.6 124.2 
L 94.947153 129.409055 
C 94.719784 129.467857 94.488809 129.511709 94.25571 129.54033 
C 94.022611 129.568951 93.787888 129.582279 93.553047 129.58023 
z
" style="fill:#662d91;opacity:0.5;"/>
   </g>
   <g id="patch_146">
    <path clip-path="url(#pcb5f98db62)" d="M 93.6 124.2 
C 93.6 124.2 93.6 124.2 93.6 124.2 
C 93.6 124.2 93.6 124.2 93.6 124.2 
L 95.719562 127.946314 
C 95.55604 128.03883 95.386636 128.120541 95.212437 128.190922 
C 95.038238 128.261303 94.859618 128.320203 94.677723 128.367244 
z
" style="fill:#662d91;opacity:0.5;"/>
   </g>
   <g id="patch_147">
    <path clip-path="url(#pcb5f98db62)" d="M 93.6 124.2 
C 93.6 124.2 93.6 124.2 93.6 124.2 
C 93.6 124.2 93.6 124.2 93.6 124.2 
L 95.108479 125.735039 
C 95.041476 125.800882 94.970234 125.862268 94.895211 125.918803 
C 94.820187 125.975337 94.741542 126.026899 94.659781 126.073157 
z
" style="fill:#662d91;opacity:0.5;"/>
   </g>
   <g id="patch_148">
    <path clip-path="url(#pcb5f98db62)" d="M 93.6 124.2 
C 93.6 124.2 93.6 124.2 93.6 124.2 
C 93.6 124.2 93.6 124.2 93.6 124.2 
L 104.726255 130.753865 
C 104.440186 131.239513 104.122628 131.70591 103.775617 132.150063 
C 103.428606 132.594217 103.052887 133.015174 102.650872 133.410234 
z
" style="fill:#662d91;opacity:0.5;"/>
   </g>
   <g id="patch_149">
    <path clip-path="url(#pcb5f98db62)" d="M 93.6 124.2 
C 93.6 124.2 93.6 124.2 93.6 124.2 
C 93.6 124.2 93.6 124.2 93.6 124.2 
L 112.265103 129.376291 
C 112.039164 130.191001 111.760126 130.990044 111.429779 131.768292 
C 111.099432 132.546541 110.718485 133.302326 110.289382 134.030797 
z
" style="fill:#662d91;opacity:0.5;"/>
   </g>
   <g id="patch_150">
    <path clip-path="url(#pcb5f98db62)" d="M 93.6 124.2 
C 93.6 124.2 93.6 124.2 93.6 124.2 
C 93.6 124.2 93.6 124.2 93.6 124.2 
L 134.489747 124.556839 
C 134.474172 126.341628 134.341757 128.123483 134.093353 129.89097 
C 133.844949 131.658456 133.481088 133.407784 133.004106 135.127726 
z
" style="fill:#662d91;opacity:0.5;"/>
   </g>
   <g id="matplotlib.axis_5">
    <g id="xtick_11">
     <g id="line2d_21">
      <path clip-path="url(#pcb5f98db62)" d="M 93.6 124.2 
L 153 124.2 
" style="fill:none;stroke:#b0b0b0;stroke-linecap:square;stroke-width:0.8;"/>
     </g>
     <g id="text_19">
      <!-- $0$ -->
      <g transform="translate(165.08 125.855625)">
       <text>
        <tspan style="font-family:DejaVu Sans;font-size:6px;font-style:book;font-weight:book;" x="0" y="-0.546875">0</tspan>
       </text>
      </g>
     </g>
    </g>
    <g id="xtick_12">
     <g id="line2d_22">
      <path clip-path="url(#pcb5f98db62)" d="M 93.6 124.2 
L 93.6 64.8 
" style="fill:none;stroke:#b0b0b0;stroke-linecap:square;stroke-width:0.8;"/>
     </g>
     <g id="text_20">
      <!-- $\pi/2$ -->
      <g transform="translate(88.98 52.455625)">
       <text>
        <tspan style="font-family:DejaVu Sans;font-size:6px;font-style:oblique;font-weight:oblique;" x="0" y="-0.546875">π</tspan>
        <tspan style="font-family:DejaVu Sans;font-size:6px;font-style:book;font-weight:book;" x="3.612305 5.383789" y="-0.546875">/2</tspan>
       </text>
      </g>
     </g>
    </g>
    <g id="xtick_13">
     <g id="line2d_23">
      <path clip-path="url(#pcb5f98db62)" d="M 93.6 124.2 
L 34.2 124.2 
" style="fill:none;stroke:#b0b0b0;stroke-linecap:square;stroke-width:0.8;"/>
     </g>
     <g id="text_21">
      <!-- $\pi$ -->
      <g transform="translate(18.37 125.855625)">
       <text>
        <tspan style="font-family:DejaVu Sans;font-size:6px;font-style:oblique;font-weight:oblique;" x="0" y="-0.71875">π</tspan>
       </text>
      </g>
     </g>
    </g>
    <g id="xtick_14">
     <g id="line2d_24">
      <path clip-path="url(#pcb5f98db62)" d="M 93.6 124.2 
L 93.6 183.6 
" style="fill:none;stroke:#b0b0b0;stroke-linecap:square;stroke-width:0.8;"/>
     </g>
     <g id="text_22">
      <!-- $3\pi/2$ -->
      <g transform="translate(87.06 199.255625)">
       <text>
        <tspan style="font-family:DejaVu Sans;font-size:6px;font-style:book;font-weight:book;" x="0 7.429688 9.201172" y="-0.546875">3/2</tspan>
        <tspan style="font-family:DejaVu Sans;font-size:6px;font-style:oblique;font-weight:oblique;" x="3.817383" y="-0.546875">π</tspan>
       </text>
      </g>
     </g>
    </g>
    <g id="xtick_15">
     <g id="line2d_25">
      <path clip-path="url(#pcb5f98db62)" d="M 93.6 124.2 
L 153 124.2 
" style="fill:none;stroke:#b0b0b0;stroke-linecap:square;stroke-width:0.8;"/>
     </g>
     <g id="text_23">
      <!-- $0$ -->
      <g transform="translate(165.08 125.855625)">
       <text>
        <tspan style="font-family:DejaVu Sans;font-size:6px;font-style:book;font-weight:book;" x="0" y="-0.546875">0</tspan>
       </text>
      </g>
     </g>
    </g>
   </g>
   <g id="matplotlib.axis_6">
    <g id="ytick_7">
     <g id="line2d_26">
      <path clip-path="url(#pcb5f98db62)" d="M 93.6 124.2 
C 93.6 124.2 93.6 124.2 93.6 124.2 
C 93.6 124.2 93.6 124.2 93.6 124.2 
C 93.6 124.2 93.6 124.2 93.6 124.2 
C 93.6 124.2 93.6 124.2 93.6 124.2 
C 93.6 124.2 93.6 124.2 93.6 124.2 
C 93.6 124.2 93.6 124.2 93.6 124.2 
C 93.6 124.2 93.6 124.2 93.6 124.2 
C 93.6 124.2 93.6 124.2 93.6 124.2 
C 93.6 124.2 93.6 124.2 93.6 124.2 
C 93.6 124.2 93.6 124.2 93.6 124.2 
C 93.6 124.2 93.6 124.2 93.6 124.2 
C 93.6 124.2 93.6 124.2 93.6 124.2 
C 93.6 124.2 93.6 124.2 93.6 124.2 
C 93.6 124.2 93.6 124.2 93.6 124.2 
C 93.6 124.2 93.6 124.2 93.6 124.2 
C 93.6 124.2 93.6 124.2 93.6 124.2 
" style="fill:none;stroke:#b0b0b0;stroke-linecap:square;stroke-width:0.8;"/>
     </g>
     <g id="text_24">
      <text style="font-family:DejaVu Sans;font-size:6px;font-stretch:normal;font-style:normal;font-weight:normal;text-anchor:start;" transform="rotate(-0, 93.6, 122.952188)" x="93.6" y="122.952188">0.00</text>
     </g>
    </g>
    <g id="ytick_8">
     <g id="line2d_27">
      <path clip-path="url(#pcb5f98db62)" d="M 123.3 124.2 
C 123.3 120.299832 122.531752 116.437588 121.039222 112.834302 
C 119.546692 109.231016 117.358907 105.956764 114.601071 103.198929 
C 111.843236 100.441093 108.568984 98.253308 104.965698 96.760778 
C 101.362412 95.268248 97.500168 94.5 93.6 94.5 
C 89.699832 94.5 85.837588 95.268248 82.234302 96.760778 
C 78.631016 98.253308 75.356764 100.441093 72.598929 103.198929 
C 69.841093 105.956764 67.653308 109.231016 66.160778 112.834302 
C 64.668248 116.437588 63.9 120.299832 63.9 124.2 
C 63.9 128.100168 64.668248 131.962412 66.160778 135.565698 
C 67.653308 139.168984 69.841093 142.443236 72.598929 145.201071 
C 75.356764 147.958907 78.631016 150.146692 82.234302 151.639222 
C 85.837588 153.131752 89.699832 153.9 93.6 153.9 
C 97.500168 153.9 101.362412 153.131752 104.965698 151.639222 
C 108.568984 150.146692 111.843236 147.958907 114.601071 145.201071 
C 117.358907 142.443236 119.546692 139.168984 121.039222 135.565698 
C 122.531752 131.962412 123.3 128.100168 123.3 124.2 
" style="fill:none;stroke:#b0b0b0;stroke-linecap:square;stroke-width:0.8;"/>
     </g>
     <g id="text_25">
      <text style="font-family:DejaVu Sans;font-size:6px;font-stretch:normal;font-style:normal;font-weight:normal;text-anchor:start;" transform="rotate(-0, 121.039222, 111.58649)" x="121.039222" y="111.58649">0.15</text>
     </g>
    </g>
    <g id="ytick_9">
     <g id="line2d_28">
      <path clip-path="url(#pcb5f98db62)" d="M 153 124.2 
C 153 116.399663 151.463504 108.675175 148.478444 101.468604 
C 145.493385 94.262033 141.117814 87.713528 135.602143 82.197857 
C 130.086472 76.682186 123.537967 72.306615 116.331396 69.321556 
C 109.124825 66.336496 101.400337 64.8 93.6 64.8 
C 85.799663 64.8 78.075175 66.336496 70.868604 69.321556 
C 63.662033 72.306615 57.113528 76.682186 51.597857 82.197857 
C 46.082186 87.713528 41.706615 94.262033 38.721556 101.468604 
C 35.736496 108.675175 34.2 116.399663 34.2 124.2 
C 34.2 132.000337 35.736496 139.724825 38.721556 146.931396 
C 41.706615 154.137967 46.082186 160.686472 51.597857 166.202143 
C 57.113528 171.717814 63.662033 176.093385 70.868604 179.078444 
C 78.075175 182.063504 85.799663 183.6 93.6 183.6 
C 101.400337 183.6 109.124825 182.063504 116.331396 179.078444 
C 123.537967 176.093385 130.086472 171.717814 135.602143 166.202143 
C 141.117814 160.686472 145.493385 154.137967 148.478444 146.931396 
C 151.463504 139.724825 153 132.000337 153 124.2 
" style="fill:none;stroke:#b0b0b0;stroke-linecap:square;stroke-width:0.8;"/>
     </g>
     <g id="text_26">
      <text style="font-family:DejaVu Sans;font-size:6px;font-stretch:normal;font-style:normal;font-weight:normal;text-anchor:start;" transform="rotate(-0, 148.478444, 100.220792)" x="148.478444" y="100.220792">0.30</text>
     </g>
    </g>
   </g>
   <g id="line2d_29">
    <path clip-path="url(#pcb5f98db62)" d="M 93.6 124.2 
L 139.800871 126.759949 
" style="fill:none;stroke:#f15a29;stroke-linecap:square;stroke-width:2;"/>
   </g>
   <g id="line2d_30">
    <path clip-path="url(#pcb5f98db62)" d="M 93.6 124.2 
L 138.685522 121.046798 
" style="fill:none;stroke:#662d91;stroke-linecap:square;stroke-width:2;"/>
   </g>
   <g id="patch_151">
    <path d="M 153 124.2 
C 153 116.399663 151.463504 108.675175 148.478444 101.468604 
C 145.493385 94.262033 141.117814 87.713528 135.602143 82.197857 
C 130.086472 76.682186 123.537967 72.306615 116.331396 69.321556 
C 109.124825 66.336496 101.400337 64.8 93.6 64.8 
C 85.799663 64.8 78.075175 66.336496 70.868604 69.321556 
C 63.662033 72.306615 57.113528 76.682186 51.597857 82.197857 
C 46.082186 87.713528 41.706615 94.262033 38.721556 101.468604 
C 35.736496 108.675175 34.2 116.399663 34.2 124.2 
C 34.2 132.000337 35.736496 139.724825 38.721556 146.931396 
C 41.706615 154.137967 46.082186 160.686472 51.597857 166.202143 
C 57.113528 171.717814 63.662033 176.093385 70.868604 179.078444 
C 78.075175 182.063504 85.799663 183.6 93.6 183.6 
C 101.400337 183.6 109.124825 182.063504 116.331396 179.078444 
C 123.537967 176.093385 130.086472 171.717814 135.602143 166.202143 
C 141.117814 160.686472 145.493385 154.137967 148.478444 146.931396 
C 151.463504 139.724825 153 132.000337 153 124.2 
" style="fill:none;stroke:#000000;stroke-linecap:square;stroke-linejoin:miter;stroke-width:0.25;"/>
   </g>
   <g id="text_27">
    <text style="font-family:DejaVu Sans;font-size:8px;font-stretch:normal;font-style:normal;font-weight:normal;text-anchor:start;" transform="rotate(-0, 34.2, 41.896563)" x="34.2" y="41.896563">V1, n=184 cells</text>
   </g>
   <g id="legend_1">
    <g id="patch_152">
     <path d="M 38.4 206.01375 
L 72.939375 206.01375 
Q 74.139375 206.01375 74.139375 204.81375 
L 74.139375 187.8 
Q 74.139375 186.6 72.939375 186.6 
L 38.4 186.6 
Q 37.2 186.6 37.2 187.8 
L 37.2 204.81375 
Q 37.2 206.01375 38.4 206.01375 
z
" style="fill:#ffffff;opacity:0.8;stroke:#cccccc;stroke-linejoin:miter;"/>
    </g>
    <g id="patch_153">
     <path d="M 39.6 193.559062 
L 51.6 193.559062 
L 51.6 189.359062 
L 39.6 189.359062 
z
" style="fill:#f15a29;opacity:0.5;"/>
    </g>
    <g id="text_28">
     <text style="font-family:DejaVu Sans;font-size:6px;font-stretch:normal;font-style:normal;font-weight:normal;text-anchor:start;" transform="rotate(-0, 56.4, 193.559062)" x="56.4" y="193.559062">rfs</text>
    </g>
    <g id="patch_154">
     <path d="M 39.6 202.365938 
L 51.6 202.365938 
L 51.6 198.165938 
L 39.6 198.165938 
z
" style="fill:#662d91;opacity:0.5;"/>
    </g>
    <g id="text_29">
     <text style="font-family:DejaVu Sans;font-size:6px;font-stretch:normal;font-style:normal;font-weight:normal;text-anchor:start;" transform="rotate(-0, 56.4, 202.365938)" x="56.4" y="202.365938">rfs10</text>
    </g>
   </g>
  </g>
  <g id="text_30">
   <text style="font-family:DejaVu Sans;font-size:6px;font-stretch:normal;font-style:normal;font-weight:normal;text-anchor:start;" transform="rotate(-0, 0, 21.6)" x="0" y="21.6">Distributions of theta, polar</text>
  </g>
  <g id="text_31">
   <text style="font-family:DejaVu Sans;font-size:8px;font-stretch:normal;font-style:normal;font-weight:normal;text-anchor:start;" transform="rotate(-0, 0, 6.07875)" x="0" y="6.07875">traces001_fit-2dgaus_dff_sphr</text>
  </g>
 </g>
 <defs>
  <clipPath id="pef60972d03">
   <path d="M 541.8 124.2 
C 541.8 116.399663 540.263504 108.675175 537.278444 101.468604 
C 534.293385 94.262033 529.917814 87.713528 524.402143 82.197857 
C 518.886472 76.682186 512.337967 72.306615 505.131396 69.321556 
C 497.924825 66.336496 490.200337 64.8 482.4 64.8 
C 474.599663 64.8 466.875175 66.336496 459.668604 69.321556 
C 452.462033 72.306615 445.913528 76.682186 440.397857 82.197857 
C 434.882186 87.713528 430.506615 94.262033 427.521556 101.468604 
C 424.536496 108.675175 423 116.399663 423 124.2 
C 423 132.000337 424.536496 139.724825 427.521556 146.931396 
C 430.506615 154.137967 434.882186 160.686472 440.397857 166.202143 
C 445.913528 171.717814 452.462033 176.093385 459.668604 179.078444 
C 466.875175 182.063504 474.599663 183.6 482.4 183.6 
C 490.200337 183.6 497.924825 182.063504 505.131396 179.078444 
C 512.337967 176.093385 518.886472 171.717814 524.402143 166.202143 
C 529.917814 160.686472 534.293385 154.137967 537.278444 146.931396 
C 540.263504 139.724825 541.8 132.000337 541.8 124.2 
M 482.4 124.2 
C 482.4 124.2 482.4 124.2 482.4 124.2 
C 482.4 124.2 482.4 124.2 482.4 124.2 
C 482.4 124.2 482.4 124.2 482.4 124.2 
C 482.4 124.2 482.4 124.2 482.4 124.2 
C 482.4 124.2 482.4 124.2 482.4 124.2 
C 482.4 124.2 482.4 124.2 482.4 124.2 
C 482.4 124.2 482.4 124.2 482.4 124.2 
C 482.4 124.2 482.4 124.2 482.4 124.2 
C 482.4 124.2 482.4 124.2 482.4 124.2 
C 482.4 124.2 482.4 124.2 482.4 124.2 
C 482.4 124.2 482.4 124.2 482.4 124.2 
C 482.4 124.2 482.4 124.2 482.4 124.2 
C 482.4 124.2 482.4 124.2 482.4 124.2 
C 482.4 124.2 482.4 124.2 482.4 124.2 
C 482.4 124.2 482.4 124.2 482.4 124.2 
C 482.4 124.2 482.4 124.2 482.4 124.2 
M 541.8 124.2 
z
"/>
  </clipPath>
  <clipPath id="p26a16202e6">
   <path d="M 347.4 124.2 
C 347.4 116.399663 345.863504 108.675175 342.878444 101.468604 
C 339.893385 94.262033 335.517814 87.713528 330.002143 82.197857 
C 324.486472 76.682186 317.937967 72.306615 310.731396 69.321556 
C 303.524825 66.336496 295.800337 64.8 288 64.8 
C 280.199663 64.8 272.475175 66.336496 265.268604 69.321556 
C 258.062033 72.306615 251.513528 76.682186 245.997857 82.197857 
C 240.482186 87.713528 236.106615 94.262033 233.121556 101.468604 
C 230.136496 108.675175 228.6 116.399663 228.6 124.2 
C 228.6 132.000337 230.136496 139.724825 233.121556 146.931396 
C 236.106615 154.137967 240.482186 160.686472 245.997857 166.202143 
C 251.513528 171.717814 258.062033 176.093385 265.268604 179.078444 
C 272.475175 182.063504 280.199663 183.6 288 183.6 
C 295.800337 183.6 303.524825 182.063504 310.731396 179.078444 
C 317.937967 176.093385 324.486472 171.717814 330.002143 166.202143 
C 335.517814 160.686472 339.893385 154.137967 342.878444 146.931396 
C 345.863504 139.724825 347.4 132.000337 347.4 124.2 
M 288 124.2 
C 288 124.2 288 124.2 288 124.2 
C 288 124.2 288 124.2 288 124.2 
C 288 124.2 288 124.2 288 124.2 
C 288 124.2 288 124.2 288 124.2 
C 288 124.2 288 124.2 288 124.2 
C 288 124.2 288 124.2 288 124.2 
C 288 124.2 288 124.2 288 124.2 
C 288 124.2 288 124.2 288 124.2 
C 288 124.2 288 124.2 288 124.2 
C 288 124.2 288 124.2 288 124.2 
C 288 124.2 288 124.2 288 124.2 
C 288 124.2 288 124.2 288 124.2 
C 288 124.2 288 124.2 288 124.2 
C 288 124.2 288 124.2 288 124.2 
C 288 124.2 288 124.2 288 124.2 
C 288 124.2 288 124.2 288 124.2 
M 347.4 124.2 
z
"/>
  </clipPath>
  <clipPath id="pcb5f98db62">
   <path d="M 153 124.2 
C 153 116.399663 151.463504 108.675175 148.478444 101.468604 
C 145.493385 94.262033 141.117814 87.713528 135.602143 82.197857 
C 130.086472 76.682186 123.537967 72.306615 116.331396 69.321556 
C 109.124825 66.336496 101.400337 64.8 93.6 64.8 
C 85.799663 64.8 78.075175 66.336496 70.868604 69.321556 
C 63.662033 72.306615 57.113528 76.682186 51.597857 82.197857 
C 46.082186 87.713528 41.706615 94.262033 38.721556 101.468604 
C 35.736496 108.675175 34.2 116.399663 34.2 124.2 
C 34.2 132.000337 35.736496 139.724825 38.721556 146.931396 
C 41.706615 154.137967 46.082186 160.686472 51.597857 166.202143 
C 57.113528 171.717814 63.662033 176.093385 70.868604 179.078444 
C 78.075175 182.063504 85.799663 183.6 93.6 183.6 
C 101.400337 183.6 109.124825 182.063504 116.331396 179.078444 
C 123.537967 176.093385 130.086472 171.717814 135.602143 166.202143 
C 141.117814 160.686472 145.493385 154.137967 148.478444 146.931396 
C 151.463504 139.724825 153 132.000337 153 124.2 
M 93.6 124.2 
C 93.6 124.2 93.6 124.2 93.6 124.2 
C 93.6 124.2 93.6 124.2 93.6 124.2 
C 93.6 124.2 93.6 124.2 93.6 124.2 
C 93.6 124.2 93.6 124.2 93.6 124.2 
C 93.6 124.2 93.6 124.2 93.6 124.2 
C 93.6 124.2 93.6 124.2 93.6 124.2 
C 93.6 124.2 93.6 124.2 93.6 124.2 
C 93.6 124.2 93.6 124.2 93.6 124.2 
C 93.6 124.2 93.6 124.2 93.6 124.2 
C 93.6 124.2 93.6 124.2 93.6 124.2 
C 93.6 124.2 93.6 124.2 93.6 124.2 
C 93.6 124.2 93.6 124.2 93.6 124.2 
C 93.6 124.2 93.6 124.2 93.6 124.2 
C 93.6 124.2 93.6 124.2 93.6 124.2 
C 93.6 124.2 93.6 124.2 93.6 124.2 
C 93.6 124.2 93.6 124.2 93.6 124.2 
M 153 124.2 
z
"/>
  </clipPath>
 </defs>
</svg>
