<?xml version="1.0" encoding="utf-8"?>
<!-- Generator: Adobe Illustrator 23.0.3, SVG Export Plug-In . SVG Version: 6.00 Build 0)  -->
<svg version="1.1" id="Layer_1" xmlns="http://www.w3.org/2000/svg" xmlns:xlink="http://www.w3.org/1999/xlink" x="0px" y="0px"
	 viewBox="0 0 432 432" style="enable-background:new 0 0 432 432;" xml:space="preserve">
<style type="text/css">
	.st0{fill:#FFFFFF;}
	.st1{fill:none;}
	.st2{stroke:#000000;stroke-width:0.75;stroke-linejoin:round;}
	.st3{stroke:#000000;stroke-width:0.25;stroke-linejoin:round;}
	.st4{font-family:'ArialMT';}
	.st5{font-size:6px;}
	.st6{font-size:8px;}
	.st7{fill:none;stroke:#008000;stroke-width:0.5;stroke-linecap:square;stroke-linejoin:round;}
	.st8{fill:none;stroke:#800080;stroke-width:0.5;stroke-linecap:square;stroke-linejoin:round;}
	.st9{fill:none;stroke:#000000;stroke-width:0.2;stroke-linecap:square;stroke-linejoin:round;}
	.st10{fill:none;stroke:#000000;stroke-width:0.25;stroke-linecap:square;}
	.st11{opacity:0.4;fill:#800080;enable-background:new    ;}
	.st12{opacity:0.4;fill:#008000;enable-background:new    ;}
</style>
<path class="st0" d="M54,378h212.4V174.2H54V378z"/>
<rect x="54" y="174.2" class="st1" width="212.4" height="203.8"/>
<g>
	<path id="mde68b2b5d7" class="st2" d="M248,248.2c0.2,0,0.4-0.1,0.6-0.3c0.2-0.2,0.3-0.4,0.3-0.6s-0.1-0.4-0.3-0.6
		c-0.2-0.2-0.4-0.3-0.6-0.3s-0.4,0.1-0.6,0.3c-0.2,0.2-0.3,0.4-0.3,0.6s0.1,0.4,0.3,0.6C247.5,248.1,247.7,248.2,248,248.2z"/>
</g>
<g>
	<path class="st2" d="M232.7,228c0.2,0,0.4-0.1,0.6-0.3c0.2-0.2,0.3-0.4,0.3-0.6s-0.1-0.4-0.3-0.6c-0.2-0.2-0.4-0.3-0.6-0.3
		s-0.4,0.1-0.6,0.3c-0.2,0.2-0.3,0.4-0.3,0.6s0.1,0.4,0.3,0.6C232.3,227.9,232.5,228,232.7,228z"/>
</g>
<g>
	<path class="st2" d="M204.7,303c0.2,0,0.4-0.1,0.6-0.3c0.2-0.2,0.3-0.4,0.3-0.6s-0.1-0.4-0.3-0.6c-0.2-0.2-0.4-0.3-0.6-0.3
		s-0.4,0.1-0.6,0.3c-0.2,0.2-0.3,0.4-0.3,0.6s0.1,0.4,0.3,0.6C204.2,302.9,204.4,303,204.7,303z"/>
</g>
<g>
	<path class="st2" d="M210.9,255.7c0.2,0,0.4-0.1,0.6-0.3c0.2-0.2,0.3-0.4,0.3-0.6s-0.1-0.4-0.3-0.6c-0.2-0.2-0.4-0.3-0.6-0.3
		s-0.4,0.1-0.6,0.3c-0.2,0.2-0.3,0.4-0.3,0.6s0.1,0.4,0.3,0.6C210.5,255.6,210.7,255.7,210.9,255.7z"/>
</g>
<g>
	<path class="st2" d="M205.8,253.6c0.2,0,0.4-0.1,0.6-0.3c0.2-0.2,0.3-0.4,0.3-0.6s-0.1-0.4-0.3-0.6c-0.2-0.2-0.4-0.3-0.6-0.3
		s-0.4,0.1-0.6,0.3c-0.2,0.2-0.3,0.4-0.3,0.6s0.1,0.4,0.3,0.6C205.4,253.5,205.6,253.6,205.8,253.6z"/>
</g>
<g>
	<path class="st2" d="M209.2,271.4c0.2,0,0.4-0.1,0.6-0.3c0.2-0.2,0.3-0.4,0.3-0.6s-0.1-0.4-0.3-0.6c-0.2-0.2-0.4-0.3-0.6-0.3
		s-0.4,0.1-0.6,0.3c-0.2,0.2-0.3,0.4-0.3,0.6s0.1,0.4,0.3,0.6C208.7,271.3,208.9,271.4,209.2,271.4z"/>
</g>
<g>
	<path class="st2" d="M203.8,282.1c0.2,0,0.4-0.1,0.6-0.3c0.2-0.2,0.3-0.4,0.3-0.6s-0.1-0.4-0.3-0.6c-0.2-0.2-0.4-0.3-0.6-0.3
		s-0.4,0.1-0.6,0.3c-0.2,0.2-0.3,0.4-0.3,0.6s0.1,0.4,0.3,0.6C203.3,282,203.5,282.1,203.8,282.1z"/>
</g>
<g>
	<path class="st2" d="M206.3,285.9c0.2,0,0.4-0.1,0.6-0.3c0.2-0.2,0.3-0.4,0.3-0.6s-0.1-0.4-0.3-0.6c-0.2-0.2-0.4-0.3-0.6-0.3
		s-0.4,0.1-0.6,0.3c-0.2,0.2-0.3,0.4-0.3,0.6s0.1,0.4,0.3,0.6C205.9,285.8,206.1,285.9,206.3,285.9z"/>
</g>
<g>
	<path class="st2" d="M217.7,257.3c0.2,0,0.4-0.1,0.6-0.3c0.2-0.2,0.3-0.4,0.3-0.6s-0.1-0.4-0.3-0.6c-0.2-0.2-0.4-0.3-0.6-0.3
		s-0.4,0.1-0.6,0.3c-0.2,0.2-0.3,0.4-0.3,0.6s0.1,0.4,0.3,0.6C217.3,257.2,217.5,257.3,217.7,257.3z"/>
</g>
<g>
	<path class="st2" d="M221.9,249.3c0.2,0,0.4-0.1,0.6-0.3c0.2-0.2,0.3-0.4,0.3-0.6s-0.1-0.4-0.3-0.6c-0.2-0.2-0.4-0.3-0.6-0.3
		s-0.4,0.1-0.6,0.3c-0.2,0.2-0.3,0.4-0.3,0.6s0.1,0.4,0.3,0.6C221.4,249.2,221.6,249.3,221.9,249.3z"/>
</g>
<g>
	<path class="st2" d="M222.2,253.1c0.2,0,0.4-0.1,0.6-0.3c0.2-0.2,0.3-0.4,0.3-0.6s-0.1-0.4-0.3-0.6c-0.2-0.2-0.4-0.3-0.6-0.3
		s-0.4,0.1-0.6,0.3c-0.2,0.2-0.3,0.4-0.3,0.6s0.1,0.4,0.3,0.6C221.8,253.1,222,253.1,222.2,253.1z"/>
</g>
<g>
	<path class="st2" d="M228.8,256.1c0.2,0,0.4-0.1,0.6-0.3c0.2-0.2,0.3-0.4,0.3-0.6s-0.1-0.4-0.3-0.6c-0.2-0.2-0.4-0.3-0.6-0.3
		s-0.4,0.1-0.6,0.3c-0.2,0.2-0.3,0.4-0.3,0.6s0.1,0.4,0.3,0.6C228.3,256,228.6,256.1,228.8,256.1z"/>
</g>
<g>
	<path class="st2" d="M246.2,240.6c0.2,0,0.4-0.1,0.6-0.3c0.2-0.2,0.3-0.4,0.3-0.6s-0.1-0.4-0.3-0.6c-0.2-0.2-0.4-0.3-0.6-0.3
		s-0.4,0.1-0.6,0.3c-0.2,0.2-0.3,0.4-0.3,0.6s0.1,0.4,0.3,0.6C245.8,240.6,246,240.6,246.2,240.6z"/>
</g>
<g>
	<path class="st2" d="M237.4,260.7c0.2,0,0.4-0.1,0.6-0.3c0.2-0.2,0.3-0.4,0.3-0.6s-0.1-0.4-0.3-0.6c-0.2-0.2-0.4-0.3-0.6-0.3
		s-0.4,0.1-0.6,0.3c-0.2,0.2-0.3,0.4-0.3,0.6s0.1,0.4,0.3,0.6C237,260.6,237.2,260.7,237.4,260.7z"/>
</g>
<g>
	<path class="st2" d="M234.6,253.6c0.2,0,0.4-0.1,0.6-0.3c0.2-0.2,0.3-0.4,0.3-0.6s-0.1-0.4-0.3-0.6c-0.2-0.2-0.4-0.3-0.6-0.3
		s-0.4,0.1-0.6,0.3c-0.2,0.2-0.3,0.4-0.3,0.6s0.1,0.4,0.3,0.6C234.1,253.5,234.3,253.6,234.6,253.6z"/>
</g>
<g>
	<path class="st2" d="M225.8,255.8c0.2,0,0.4-0.1,0.6-0.3c0.2-0.2,0.3-0.4,0.3-0.6s-0.1-0.4-0.3-0.6c-0.2-0.2-0.4-0.3-0.6-0.3
		s-0.4,0.1-0.6,0.3c-0.2,0.2-0.3,0.4-0.3,0.6s0.1,0.4,0.3,0.6C225.3,255.7,225.6,255.8,225.8,255.8z"/>
</g>
<g>
	<path class="st2" d="M238.4,246c0.2,0,0.4-0.1,0.6-0.3c0.2-0.2,0.3-0.4,0.3-0.6s-0.1-0.4-0.3-0.6c-0.2-0.2-0.4-0.3-0.6-0.3
		s-0.4,0.1-0.6,0.3c-0.2,0.2-0.3,0.4-0.3,0.6s0.1,0.4,0.3,0.6C238,245.9,238.2,246,238.4,246z"/>
</g>
<g>
	<path class="st2" d="M237.1,238c0.2,0,0.4-0.1,0.6-0.3c0.2-0.2,0.3-0.4,0.3-0.6s-0.1-0.4-0.3-0.6c-0.2-0.2-0.4-0.3-0.6-0.3
		s-0.4,0.1-0.6,0.3c-0.2,0.2-0.3,0.4-0.3,0.6s0.1,0.4,0.3,0.6C236.7,237.9,236.9,238,237.1,238z"/>
</g>
<g>
	<path class="st2" d="M238.3,184.4c0.2,0,0.4-0.1,0.6-0.3c0.2-0.2,0.3-0.4,0.3-0.6s-0.1-0.4-0.3-0.6c-0.2-0.2-0.4-0.3-0.6-0.3
		s-0.4,0.1-0.6,0.3c-0.2,0.2-0.3,0.4-0.3,0.6s0.1,0.4,0.3,0.6C237.9,184.3,238.1,184.4,238.3,184.4z"/>
</g>
<g>
	<path class="st2" d="M216.5,232.3c0.2,0,0.4-0.1,0.6-0.3c0.2-0.2,0.3-0.4,0.3-0.6s-0.1-0.4-0.3-0.6c-0.2-0.2-0.4-0.3-0.6-0.3
		s-0.4,0.1-0.6,0.3c-0.2,0.2-0.3,0.4-0.3,0.6s0.1,0.4,0.3,0.6C216,232.2,216.3,232.3,216.5,232.3z"/>
</g>
<g>
	<path class="st2" d="M181.7,263.1c0.2,0,0.4-0.1,0.6-0.3c0.2-0.2,0.3-0.4,0.3-0.6s-0.1-0.4-0.3-0.6c-0.2-0.2-0.4-0.3-0.6-0.3
		s-0.4,0.1-0.6,0.3c-0.2,0.2-0.3,0.4-0.3,0.6s0.1,0.4,0.3,0.6C181.2,263,181.5,263.1,181.7,263.1z"/>
</g>
<g>
	<path class="st2" d="M172.8,293.5c0.2,0,0.4-0.1,0.6-0.3c0.2-0.2,0.3-0.4,0.3-0.6s-0.1-0.4-0.3-0.6c-0.2-0.2-0.4-0.3-0.6-0.3
		s-0.4,0.1-0.6,0.3c-0.2,0.2-0.3,0.4-0.3,0.6s0.1,0.4,0.3,0.6C172.4,293.4,172.6,293.5,172.8,293.5z"/>
</g>
<g>
	<path class="st2" d="M195.4,282.7c0.2,0,0.4-0.1,0.6-0.3c0.2-0.2,0.3-0.4,0.3-0.6s-0.1-0.4-0.3-0.6c-0.2-0.2-0.4-0.3-0.6-0.3
		s-0.4,0.1-0.6,0.3c-0.2,0.2-0.3,0.4-0.3,0.6s0.1,0.4,0.3,0.6C195,282.6,195.2,282.7,195.4,282.7z"/>
</g>
<g>
	<path class="st2" d="M196.9,277.6c0.2,0,0.4-0.1,0.6-0.3c0.2-0.2,0.3-0.4,0.3-0.6s-0.1-0.4-0.3-0.6c-0.2-0.2-0.4-0.3-0.6-0.3
		s-0.4,0.1-0.6,0.3c-0.2,0.2-0.3,0.4-0.3,0.6s0.1,0.4,0.3,0.6C196.5,277.5,196.7,277.6,196.9,277.6z"/>
</g>
<g>
	<path class="st2" d="M192.2,278.1c0.2,0,0.4-0.1,0.6-0.3c0.2-0.2,0.3-0.4,0.3-0.6s-0.1-0.4-0.3-0.6c-0.2-0.2-0.4-0.3-0.6-0.3
		s-0.4,0.1-0.6,0.3c-0.2,0.2-0.3,0.4-0.3,0.6s0.1,0.4,0.3,0.6C191.7,278,191.9,278.1,192.2,278.1z"/>
</g>
<g>
	<path class="st2" d="M192.3,276.3c0.2,0,0.4-0.1,0.6-0.3c0.2-0.2,0.3-0.4,0.3-0.6s-0.1-0.4-0.3-0.6c-0.2-0.2-0.4-0.3-0.6-0.3
		s-0.4,0.1-0.6,0.3c-0.2,0.2-0.3,0.4-0.3,0.6s0.1,0.4,0.3,0.6C191.8,276.2,192,276.3,192.3,276.3z"/>
</g>
<g>
	<path class="st2" d="M195.3,267.9c0.2,0,0.4-0.1,0.6-0.3c0.2-0.2,0.3-0.4,0.3-0.6s-0.1-0.4-0.3-0.6c-0.2-0.2-0.4-0.3-0.6-0.3
		s-0.4,0.1-0.6,0.3c-0.2,0.2-0.3,0.4-0.3,0.6s0.1,0.4,0.3,0.6C194.8,267.8,195,267.9,195.3,267.9z"/>
</g>
<g>
	<path class="st2" d="M193.8,270.1c0.2,0,0.4-0.1,0.6-0.3c0.2-0.2,0.3-0.4,0.3-0.6s-0.1-0.4-0.3-0.6c-0.2-0.2-0.4-0.3-0.6-0.3
		s-0.4,0.1-0.6,0.3c-0.2,0.2-0.3,0.4-0.3,0.6s0.1,0.4,0.3,0.6C193.4,270,193.6,270.1,193.8,270.1z"/>
</g>
<g>
	<path class="st2" d="M221.5,253.3c0.2,0,0.4-0.1,0.6-0.3c0.2-0.2,0.3-0.4,0.3-0.6s-0.1-0.4-0.3-0.6c-0.2-0.2-0.4-0.3-0.6-0.3
		s-0.4,0.1-0.6,0.3c-0.2,0.2-0.3,0.4-0.3,0.6s0.1,0.4,0.3,0.6C221.1,253.2,221.3,253.3,221.5,253.3z"/>
</g>
<g>
	<path class="st2" d="M181.5,281.4c0.2,0,0.4-0.1,0.6-0.3c0.2-0.2,0.3-0.4,0.3-0.6s-0.1-0.4-0.3-0.6c-0.2-0.2-0.4-0.3-0.6-0.3
		s-0.4,0.1-0.6,0.3c-0.2,0.2-0.3,0.4-0.3,0.6s0.1,0.4,0.3,0.6C181.1,281.3,181.3,281.4,181.5,281.4z"/>
</g>
<g>
	<path class="st2" d="M178.9,258.5c0.2,0,0.4-0.1,0.6-0.3c0.2-0.2,0.3-0.4,0.3-0.6s-0.1-0.4-0.3-0.6c-0.2-0.2-0.4-0.3-0.6-0.3
		s-0.4,0.1-0.6,0.3c-0.2,0.2-0.3,0.4-0.3,0.6s0.1,0.4,0.3,0.6C178.4,258.4,178.6,258.5,178.9,258.5z"/>
</g>
<g>
	<path class="st2" d="M184.6,257c0.2,0,0.4-0.1,0.6-0.3c0.2-0.2,0.3-0.4,0.3-0.6s-0.1-0.4-0.3-0.6c-0.2-0.2-0.4-0.3-0.6-0.3
		s-0.4,0.1-0.6,0.3c-0.2,0.2-0.3,0.4-0.3,0.6s0.1,0.4,0.3,0.6C184.2,256.9,184.4,257,184.6,257z"/>
</g>
<g>
	<path class="st2" d="M174.4,288.3c0.2,0,0.4-0.1,0.6-0.3c0.2-0.2,0.3-0.4,0.3-0.6s-0.1-0.4-0.3-0.6c-0.2-0.2-0.4-0.3-0.6-0.3
		s-0.4,0.1-0.6,0.3c-0.2,0.2-0.3,0.4-0.3,0.6s0.1,0.4,0.3,0.6C174,288.2,174.2,288.3,174.4,288.3z"/>
</g>
<g>
	<path class="st2" d="M173.2,281.8c0.2,0,0.4-0.1,0.6-0.3c0.2-0.2,0.3-0.4,0.3-0.6s-0.1-0.4-0.3-0.6c-0.2-0.2-0.4-0.3-0.6-0.3
		s-0.4,0.1-0.6,0.3c-0.2,0.2-0.3,0.4-0.3,0.6s0.1,0.4,0.3,0.6C172.8,281.7,173,281.8,173.2,281.8z"/>
</g>
<g>
	<path class="st2" d="M169.2,263.1c0.2,0,0.4-0.1,0.6-0.3c0.2-0.2,0.3-0.4,0.3-0.6s-0.1-0.4-0.3-0.6c-0.2-0.2-0.4-0.3-0.6-0.3
		s-0.4,0.1-0.6,0.3c-0.2,0.2-0.3,0.4-0.3,0.6s0.1,0.4,0.3,0.6C168.7,263,168.9,263.1,169.2,263.1z"/>
</g>
<g>
	<path class="st2" d="M169.5,258.4c0.2,0,0.4-0.1,0.6-0.3c0.2-0.2,0.3-0.4,0.3-0.6s-0.1-0.4-0.3-0.6c-0.2-0.2-0.4-0.3-0.6-0.3
		s-0.4,0.1-0.6,0.3c-0.2,0.2-0.3,0.4-0.3,0.6s0.1,0.4,0.3,0.6C169,258.3,169.2,258.4,169.5,258.4z"/>
</g>
<g>
	<path class="st2" d="M161.3,274.8c0.2,0,0.4-0.1,0.6-0.3c0.2-0.2,0.3-0.4,0.3-0.6s-0.1-0.4-0.3-0.6c-0.2-0.2-0.4-0.3-0.6-0.3
		s-0.4,0.1-0.6,0.3c-0.2,0.2-0.3,0.4-0.3,0.6s0.1,0.4,0.3,0.6C160.8,274.7,161,274.8,161.3,274.8z"/>
</g>
<g>
	<path class="st2" d="M154.1,308.7c0.2,0,0.4-0.1,0.6-0.3c0.2-0.2,0.3-0.4,0.3-0.6s-0.1-0.4-0.3-0.6c-0.2-0.2-0.4-0.3-0.6-0.3
		s-0.4,0.1-0.6,0.3c-0.2,0.2-0.3,0.4-0.3,0.6s0.1,0.4,0.3,0.6C153.7,308.6,153.9,308.7,154.1,308.7z"/>
</g>
<g>
	<path class="st2" d="M149.2,296.2c0.2,0,0.4-0.1,0.6-0.3c0.2-0.2,0.3-0.4,0.3-0.6s-0.1-0.4-0.3-0.6c-0.2-0.2-0.4-0.3-0.6-0.3
		s-0.4,0.1-0.6,0.3c-0.2,0.2-0.3,0.4-0.3,0.6s0.1,0.4,0.3,0.6C148.8,296.2,149,296.2,149.2,296.2z"/>
</g>
<g>
	<path class="st2" d="M141.3,302c0.2,0,0.4-0.1,0.6-0.3c0.2-0.2,0.3-0.4,0.3-0.6s-0.1-0.4-0.3-0.6c-0.2-0.2-0.4-0.3-0.6-0.3
		s-0.4,0.1-0.6,0.3c-0.2,0.2-0.3,0.4-0.3,0.6s0.1,0.4,0.3,0.6C140.9,301.9,141.1,302,141.3,302z"/>
</g>
<g>
	<path class="st2" d="M130.9,264.5c0.2,0,0.4-0.1,0.6-0.3c0.2-0.2,0.3-0.4,0.3-0.6s-0.1-0.4-0.3-0.6c-0.2-0.2-0.4-0.3-0.6-0.3
		s-0.4,0.1-0.6,0.3c-0.2,0.2-0.3,0.4-0.3,0.6s0.1,0.4,0.3,0.6C130.4,264.4,130.7,264.5,130.9,264.5z"/>
</g>
<g>
	<path class="st2" d="M129.6,321.5c0.2,0,0.4-0.1,0.6-0.3c0.2-0.2,0.3-0.4,0.3-0.6s-0.1-0.4-0.3-0.6c-0.2-0.2-0.4-0.3-0.6-0.3
		s-0.4,0.1-0.6,0.3c-0.2,0.2-0.3,0.4-0.3,0.6s0.1,0.4,0.3,0.6C129.2,321.5,129.4,321.5,129.6,321.5z"/>
</g>
<g>
	<path class="st2" d="M129,322.7c0.2,0,0.4-0.1,0.6-0.3c0.2-0.2,0.3-0.4,0.3-0.6s-0.1-0.4-0.3-0.6c-0.2-0.2-0.4-0.3-0.6-0.3
		s-0.4,0.1-0.6,0.3c-0.2,0.2-0.3,0.4-0.3,0.6s0.1,0.4,0.3,0.6C128.5,322.6,128.7,322.7,129,322.7z"/>
</g>
<g>
	<path class="st2" d="M82.3,354.5c0.2,0,0.4-0.1,0.6-0.3c0.2-0.2,0.3-0.4,0.3-0.6s-0.1-0.4-0.3-0.6c-0.2-0.2-0.4-0.3-0.6-0.3
		s-0.4,0.1-0.6,0.3c-0.2,0.2-0.3,0.4-0.3,0.6s0.1,0.4,0.3,0.6C81.9,354.4,82.1,354.5,82.3,354.5z"/>
</g>
<g>
	<path class="st2" d="M172.5,291.1c0.2,0,0.4-0.1,0.6-0.3c0.2-0.2,0.3-0.4,0.3-0.6s-0.1-0.4-0.3-0.6c-0.2-0.2-0.4-0.3-0.6-0.3
		s-0.4,0.1-0.6,0.3c-0.2,0.2-0.3,0.4-0.3,0.6s0.1,0.4,0.3,0.6C172,291,172.3,291.1,172.5,291.1z"/>
</g>
<g>
	<path class="st2" d="M163.7,289.4c0.2,0,0.4-0.1,0.6-0.3c0.2-0.2,0.3-0.4,0.3-0.6s-0.1-0.4-0.3-0.6c-0.2-0.2-0.4-0.3-0.6-0.3
		s-0.4,0.1-0.6,0.3c-0.2,0.2-0.3,0.4-0.3,0.6s0.1,0.4,0.3,0.6C163.2,289.4,163.4,289.4,163.7,289.4z"/>
</g>
<g>
	<path class="st2" d="M180.1,265.7c0.2,0,0.4-0.1,0.6-0.3c0.2-0.2,0.3-0.4,0.3-0.6s-0.1-0.4-0.3-0.6c-0.2-0.2-0.4-0.3-0.6-0.3
		s-0.4,0.1-0.6,0.3c-0.2,0.2-0.3,0.4-0.3,0.6s0.1,0.4,0.3,0.6C179.6,265.6,179.8,265.7,180.1,265.7z"/>
</g>
<g>
	<path class="st2" d="M165.8,287c0.2,0,0.4-0.1,0.6-0.3c0.2-0.2,0.3-0.4,0.3-0.6s-0.1-0.4-0.3-0.6c-0.2-0.2-0.4-0.3-0.6-0.3
		s-0.4,0.1-0.6,0.3c-0.2,0.2-0.3,0.4-0.3,0.6s0.1,0.4,0.3,0.6C165.4,286.9,165.6,287,165.8,287z"/>
</g>
<g>
	<path class="st2" d="M161.5,269.9c0.2,0,0.4-0.1,0.6-0.3c0.2-0.2,0.3-0.4,0.3-0.6s-0.1-0.4-0.3-0.6c-0.2-0.2-0.4-0.3-0.6-0.3
		s-0.4,0.1-0.6,0.3c-0.2,0.2-0.3,0.4-0.3,0.6s0.1,0.4,0.3,0.6C161,269.8,161.2,269.9,161.5,269.9z"/>
</g>
<g>
	<path class="st2" d="M157.1,322.9c0.2,0,0.4-0.1,0.6-0.3c0.2-0.2,0.3-0.4,0.3-0.6s-0.1-0.4-0.3-0.6c-0.2-0.2-0.4-0.3-0.6-0.3
		s-0.4,0.1-0.6,0.3c-0.2,0.2-0.3,0.4-0.3,0.6s0.1,0.4,0.3,0.6C156.7,322.8,156.9,322.9,157.1,322.9z"/>
</g>
<g>
	<path class="st2" d="M161.6,306.5c0.2,0,0.4-0.1,0.6-0.3c0.2-0.2,0.3-0.4,0.3-0.6s-0.1-0.4-0.3-0.6c-0.2-0.2-0.4-0.3-0.6-0.3
		s-0.4,0.1-0.6,0.3c-0.2,0.2-0.3,0.4-0.3,0.6s0.1,0.4,0.3,0.6C161.2,306.5,161.4,306.5,161.6,306.5z"/>
</g>
<g>
	<path class="st2" d="M181.2,304.5c0.2,0,0.4-0.1,0.6-0.3c0.2-0.2,0.3-0.4,0.3-0.6s-0.1-0.4-0.3-0.6c-0.2-0.2-0.4-0.3-0.6-0.3
		s-0.4,0.1-0.6,0.3c-0.2,0.2-0.3,0.4-0.3,0.6s0.1,0.4,0.3,0.6C180.7,304.4,180.9,304.5,181.2,304.5z"/>
</g>
<g>
	<path class="st2" d="M164.2,291.4c0.2,0,0.4-0.1,0.6-0.3c0.2-0.2,0.3-0.4,0.3-0.6s-0.1-0.4-0.3-0.6c-0.2-0.2-0.4-0.3-0.6-0.3
		s-0.4,0.1-0.6,0.3c-0.2,0.2-0.3,0.4-0.3,0.6s0.1,0.4,0.3,0.6C163.8,291.3,164,291.4,164.2,291.4z"/>
</g>
<g>
	<path class="st2" d="M150.5,303c0.2,0,0.4-0.1,0.6-0.3c0.2-0.2,0.3-0.4,0.3-0.6s-0.1-0.4-0.3-0.6c-0.2-0.2-0.4-0.3-0.6-0.3
		s-0.4,0.1-0.6,0.3c-0.2,0.2-0.3,0.4-0.3,0.6s0.1,0.4,0.3,0.6C150.1,302.9,150.3,303,150.5,303z"/>
</g>
<g>
	<path class="st2" d="M165.8,279.6c0.2,0,0.4-0.1,0.6-0.3c0.2-0.2,0.3-0.4,0.3-0.6s-0.1-0.4-0.3-0.6c-0.2-0.2-0.4-0.3-0.6-0.3
		s-0.4,0.1-0.6,0.3c-0.2,0.2-0.3,0.4-0.3,0.6s0.1,0.4,0.3,0.6C165.3,279.5,165.6,279.6,165.8,279.6z"/>
</g>
<g>
	<path class="st2" d="M162.9,303.4c0.2,0,0.4-0.1,0.6-0.3c0.2-0.2,0.3-0.4,0.3-0.6s-0.1-0.4-0.3-0.6c-0.2-0.2-0.4-0.3-0.6-0.3
		s-0.4,0.1-0.6,0.3c-0.2,0.2-0.3,0.4-0.3,0.6s0.1,0.4,0.3,0.6C162.5,303.3,162.7,303.4,162.9,303.4z"/>
</g>
<g>
	<path class="st2" d="M176.7,305.3c0.2,0,0.4-0.1,0.6-0.3c0.2-0.2,0.3-0.4,0.3-0.6s-0.1-0.4-0.3-0.6c-0.2-0.2-0.4-0.3-0.6-0.3
		s-0.4,0.1-0.6,0.3c-0.2,0.2-0.3,0.4-0.3,0.6s0.1,0.4,0.3,0.6C176.2,305.2,176.4,305.3,176.7,305.3z"/>
</g>
<g>
	<path class="st2" d="M190,267.7c0.2,0,0.4-0.1,0.6-0.3c0.2-0.2,0.3-0.4,0.3-0.6s-0.1-0.4-0.3-0.6c-0.2-0.2-0.4-0.3-0.6-0.3
		s-0.4,0.1-0.6,0.3c-0.2,0.2-0.3,0.4-0.3,0.6s0.1,0.4,0.3,0.6C189.6,267.6,189.8,267.7,190,267.7z"/>
</g>
<g>
	<path class="st2" d="M173.3,299.2c0.2,0,0.4-0.1,0.6-0.3c0.2-0.2,0.3-0.4,0.3-0.6s-0.1-0.4-0.3-0.6c-0.2-0.2-0.4-0.3-0.6-0.3
		s-0.4,0.1-0.6,0.3c-0.2,0.2-0.3,0.4-0.3,0.6s0.1,0.4,0.3,0.6C172.9,299.1,173.1,299.2,173.3,299.2z"/>
</g>
<g>
	<path class="st2" d="M167,304.9c0.2,0,0.4-0.1,0.6-0.3c0.2-0.2,0.3-0.4,0.3-0.6s-0.1-0.4-0.3-0.6c-0.2-0.2-0.4-0.3-0.6-0.3
		s-0.4,0.1-0.6,0.3c-0.2,0.2-0.3,0.4-0.3,0.6s0.1,0.4,0.3,0.6C166.6,304.8,166.8,304.9,167,304.9z"/>
</g>
<g>
	<path class="st2" d="M195.5,280.5c0.2,0,0.4-0.1,0.6-0.3c0.2-0.2,0.3-0.4,0.3-0.6s-0.1-0.4-0.3-0.6c-0.2-0.2-0.4-0.3-0.6-0.3
		s-0.4,0.1-0.6,0.3c-0.2,0.2-0.3,0.4-0.3,0.6s0.1,0.4,0.3,0.6C195,280.4,195.3,280.5,195.5,280.5z"/>
</g>
<g>
	<path class="st2" d="M185.9,260c0.2,0,0.4-0.1,0.6-0.3c0.2-0.2,0.3-0.4,0.3-0.6s-0.1-0.4-0.3-0.6c-0.2-0.2-0.4-0.3-0.6-0.3
		s-0.4,0.1-0.6,0.3c-0.2,0.2-0.3,0.4-0.3,0.6s0.1,0.4,0.3,0.6C185.4,259.9,185.6,260,185.9,260z"/>
</g>
<g>
	<path class="st2" d="M187,298.3c0.2,0,0.4-0.1,0.6-0.3c0.2-0.2,0.3-0.4,0.3-0.6s-0.1-0.4-0.3-0.6c-0.2-0.2-0.4-0.3-0.6-0.3
		s-0.4,0.1-0.6,0.3c-0.2,0.2-0.3,0.4-0.3,0.6s0.1,0.4,0.3,0.6C186.5,298.2,186.7,298.3,187,298.3z"/>
</g>
<g>
	<path class="st2" d="M182.3,286.8c0.2,0,0.4-0.1,0.6-0.3c0.2-0.2,0.3-0.4,0.3-0.6s-0.1-0.4-0.3-0.6c-0.2-0.2-0.4-0.3-0.6-0.3
		s-0.4,0.1-0.6,0.3c-0.2,0.2-0.3,0.4-0.3,0.6s0.1,0.4,0.3,0.6C181.8,286.7,182,286.8,182.3,286.8z"/>
</g>
<g>
	<path class="st2" d="M183.3,284.2c0.2,0,0.4-0.1,0.6-0.3c0.2-0.2,0.3-0.4,0.3-0.6s-0.1-0.4-0.3-0.6c-0.2-0.2-0.4-0.3-0.6-0.3
		s-0.4,0.1-0.6,0.3c-0.2,0.2-0.3,0.4-0.3,0.6s0.1,0.4,0.3,0.6C182.8,284.1,183,284.2,183.3,284.2z"/>
</g>
<g>
	<path class="st2" d="M173.8,291.3c0.2,0,0.4-0.1,0.6-0.3c0.2-0.2,0.3-0.4,0.3-0.6s-0.1-0.4-0.3-0.6c-0.2-0.2-0.4-0.3-0.6-0.3
		s-0.4,0.1-0.6,0.3c-0.2,0.2-0.3,0.4-0.3,0.6s0.1,0.4,0.3,0.6C173.3,291.2,173.6,291.3,173.8,291.3z"/>
</g>
<g>
	<path class="st2" d="M184,274.1c0.2,0,0.4-0.1,0.6-0.3c0.2-0.2,0.3-0.4,0.3-0.6s-0.1-0.4-0.3-0.6c-0.2-0.2-0.4-0.3-0.6-0.3
		s-0.4,0.1-0.6,0.3c-0.2,0.2-0.3,0.4-0.3,0.6s0.1,0.4,0.3,0.6C183.6,274.1,183.8,274.1,184,274.1z"/>
</g>
<g>
	<path class="st2" d="M167.1,291c0.2,0,0.4-0.1,0.6-0.3c0.2-0.2,0.3-0.4,0.3-0.6s-0.1-0.4-0.3-0.6c-0.2-0.2-0.4-0.3-0.6-0.3
		s-0.4,0.1-0.6,0.3c-0.2,0.2-0.3,0.4-0.3,0.6s0.1,0.4,0.3,0.6C166.6,290.9,166.8,291,167.1,291z"/>
</g>
<g>
	<path class="st2" d="M163.4,267.8c0.2,0,0.4-0.1,0.6-0.3c0.2-0.2,0.3-0.4,0.3-0.6s-0.1-0.4-0.3-0.6c-0.2-0.2-0.4-0.3-0.6-0.3
		s-0.4,0.1-0.6,0.3c-0.2,0.2-0.3,0.4-0.3,0.6s0.1,0.4,0.3,0.6C162.9,267.7,163.2,267.8,163.4,267.8z"/>
</g>
<g>
	<path class="st2" d="M155.7,299.8c0.2,0,0.4-0.1,0.6-0.3c0.2-0.2,0.3-0.4,0.3-0.6s-0.1-0.4-0.3-0.6c-0.2-0.2-0.4-0.3-0.6-0.3
		s-0.4,0.1-0.6,0.3c-0.2,0.2-0.3,0.4-0.3,0.6s0.1,0.4,0.3,0.6C155.3,299.7,155.5,299.8,155.7,299.8z"/>
</g>
<g>
	<path class="st2" d="M155.3,304.9c0.2,0,0.4-0.1,0.6-0.3c0.2-0.2,0.3-0.4,0.3-0.6s-0.1-0.4-0.3-0.6c-0.2-0.2-0.4-0.3-0.6-0.3
		s-0.4,0.1-0.6,0.3c-0.2,0.2-0.3,0.4-0.3,0.6s0.1,0.4,0.3,0.6C154.9,304.8,155.1,304.9,155.3,304.9z"/>
</g>
<g>
	<path class="st2" d="M154.1,302c0.2,0,0.4-0.1,0.6-0.3c0.2-0.2,0.3-0.4,0.3-0.6s-0.1-0.4-0.3-0.6c-0.2-0.2-0.4-0.3-0.6-0.3
		s-0.4,0.1-0.6,0.3c-0.2,0.2-0.3,0.4-0.3,0.6s0.1,0.4,0.3,0.6C153.6,301.9,153.8,302,154.1,302z"/>
</g>
<g>
	<path class="st2" d="M149,331.3c0.2,0,0.4-0.1,0.6-0.3c0.2-0.2,0.3-0.4,0.3-0.6s-0.1-0.4-0.3-0.6c-0.2-0.2-0.4-0.3-0.6-0.3
		s-0.4,0.1-0.6,0.3c-0.2,0.2-0.3,0.4-0.3,0.6s0.1,0.4,0.3,0.6C148.6,331.2,148.8,331.3,149,331.3z"/>
</g>
<g>
	<path class="st2" d="M157,311c0.2,0,0.4-0.1,0.6-0.3c0.2-0.2,0.3-0.4,0.3-0.6s-0.1-0.4-0.3-0.6c-0.2-0.2-0.4-0.3-0.6-0.3
		s-0.4,0.1-0.6,0.3c-0.2,0.2-0.3,0.4-0.3,0.6s0.1,0.4,0.3,0.6C156.5,311,156.7,311,157,311z"/>
</g>
<g>
	<path class="st2" d="M153.8,304.8c0.2,0,0.4-0.1,0.6-0.3c0.2-0.2,0.3-0.4,0.3-0.6s-0.1-0.4-0.3-0.6c-0.2-0.2-0.4-0.3-0.6-0.3
		s-0.4,0.1-0.6,0.3c-0.2,0.2-0.3,0.4-0.3,0.6s0.1,0.4,0.3,0.6C153.4,304.7,153.6,304.8,153.8,304.8z"/>
</g>
<g>
	<path class="st2" d="M153,306.5c0.2,0,0.4-0.1,0.6-0.3c0.2-0.2,0.3-0.4,0.3-0.6s-0.1-0.4-0.3-0.6c-0.2-0.2-0.4-0.3-0.6-0.3
		s-0.4,0.1-0.6,0.3c-0.2,0.2-0.3,0.4-0.3,0.6s0.1,0.4,0.3,0.6C152.6,306.4,152.8,306.5,153,306.5z"/>
</g>
<g>
	<path class="st2" d="M158.2,321.2c0.2,0,0.4-0.1,0.6-0.3c0.2-0.2,0.3-0.4,0.3-0.6s-0.1-0.4-0.3-0.6c-0.2-0.2-0.4-0.3-0.6-0.3
		s-0.4,0.1-0.6,0.3c-0.2,0.2-0.3,0.4-0.3,0.6s0.1,0.4,0.3,0.6C157.7,321.1,157.9,321.2,158.2,321.2z"/>
</g>
<g>
	<path class="st2" d="M148.9,318.5c0.2,0,0.4-0.1,0.6-0.3c0.2-0.2,0.3-0.4,0.3-0.6s-0.1-0.4-0.3-0.6c-0.2-0.2-0.4-0.3-0.6-0.3
		s-0.4,0.1-0.6,0.3c-0.2,0.2-0.3,0.4-0.3,0.6s0.1,0.4,0.3,0.6C148.4,318.4,148.6,318.5,148.9,318.5z"/>
</g>
<g>
	<path class="st2" d="M138.1,328.7c0.2,0,0.4-0.1,0.6-0.3c0.2-0.2,0.3-0.4,0.3-0.6s-0.1-0.4-0.3-0.6c-0.2-0.2-0.4-0.3-0.6-0.3
		s-0.4,0.1-0.6,0.3c-0.2,0.2-0.3,0.4-0.3,0.6s0.1,0.4,0.3,0.6C137.6,328.6,137.8,328.7,138.1,328.7z"/>
</g>
<g>
	<path class="st2" d="M138.6,334.4c0.2,0,0.4-0.1,0.6-0.3c0.2-0.2,0.3-0.4,0.3-0.6s-0.1-0.4-0.3-0.6c-0.2-0.2-0.4-0.3-0.6-0.3
		s-0.4,0.1-0.6,0.3c-0.2,0.2-0.3,0.4-0.3,0.6s0.1,0.4,0.3,0.6C138.2,334.3,138.4,334.4,138.6,334.4z"/>
</g>
<g>
	<path class="st2" d="M145.2,319.6c0.2,0,0.4-0.1,0.6-0.3c0.2-0.2,0.3-0.4,0.3-0.6s-0.1-0.4-0.3-0.6c-0.2-0.2-0.4-0.3-0.6-0.3
		s-0.4,0.1-0.6,0.3c-0.2,0.2-0.3,0.4-0.3,0.6s0.1,0.4,0.3,0.6C144.7,319.5,144.9,319.6,145.2,319.6z"/>
</g>
<g>
	<path class="st2" d="M127.3,345.8c0.2,0,0.4-0.1,0.6-0.3c0.2-0.2,0.3-0.4,0.3-0.6s-0.1-0.4-0.3-0.6c-0.2-0.2-0.4-0.3-0.6-0.3
		s-0.4,0.1-0.6,0.3c-0.2,0.2-0.3,0.4-0.3,0.6s0.1,0.4,0.3,0.6C126.8,345.7,127,345.8,127.3,345.8z"/>
</g>
<g>
	<path class="st2" d="M121.5,326.5c0.2,0,0.4-0.1,0.6-0.3c0.2-0.2,0.3-0.4,0.3-0.6s-0.1-0.4-0.3-0.6c-0.2-0.2-0.4-0.3-0.6-0.3
		s-0.4,0.1-0.6,0.3c-0.2,0.2-0.3,0.4-0.3,0.6s0.1,0.4,0.3,0.6C121.1,326.4,121.3,326.5,121.5,326.5z"/>
</g>
<g>
	<path class="st2" d="M113.2,319.6c0.2,0,0.4-0.1,0.6-0.3c0.2-0.2,0.3-0.4,0.3-0.6s-0.1-0.4-0.3-0.6c-0.2-0.2-0.4-0.3-0.6-0.3
		s-0.4,0.1-0.6,0.3c-0.2,0.2-0.3,0.4-0.3,0.6s0.1,0.4,0.3,0.6C112.7,319.5,112.9,319.6,113.2,319.6z"/>
</g>
<g>
	<path class="st2" d="M111.7,328.5c0.2,0,0.4-0.1,0.6-0.3c0.2-0.2,0.3-0.4,0.3-0.6s-0.1-0.4-0.3-0.6c-0.2-0.2-0.4-0.3-0.6-0.3
		s-0.4,0.1-0.6,0.3c-0.2,0.2-0.3,0.4-0.3,0.6s0.1,0.4,0.3,0.6C111.2,328.4,111.5,328.5,111.7,328.5z"/>
</g>
<g>
	<path class="st2" d="M121.8,327.2c0.2,0,0.4-0.1,0.6-0.3c0.2-0.2,0.3-0.4,0.3-0.6s-0.1-0.4-0.3-0.6c-0.2-0.2-0.4-0.3-0.6-0.3
		s-0.4,0.1-0.6,0.3c-0.2,0.2-0.3,0.4-0.3,0.6s0.1,0.4,0.3,0.6C121.4,327.1,121.6,327.2,121.8,327.2z"/>
</g>
<g>
	<path class="st2" d="M110.6,339.7c0.2,0,0.4-0.1,0.6-0.3c0.2-0.2,0.3-0.4,0.3-0.6s-0.1-0.4-0.3-0.6c-0.2-0.2-0.4-0.3-0.6-0.3
		s-0.4,0.1-0.6,0.3c-0.2,0.2-0.3,0.4-0.3,0.6s0.1,0.4,0.3,0.6C110.2,339.6,110.4,339.7,110.6,339.7z"/>
</g>
<g>
	<path class="st2" d="M112.3,340.3c0.2,0,0.4-0.1,0.6-0.3c0.2-0.2,0.3-0.4,0.3-0.6s-0.1-0.4-0.3-0.6c-0.2-0.2-0.4-0.3-0.6-0.3
		s-0.4,0.1-0.6,0.3c-0.2,0.2-0.3,0.4-0.3,0.6s0.1,0.4,0.3,0.6C111.8,340.2,112,340.3,112.3,340.3z"/>
</g>
<g>
	<path class="st2" d="M105.2,352.3c0.2,0,0.4-0.1,0.6-0.3c0.2-0.2,0.3-0.4,0.3-0.6s-0.1-0.4-0.3-0.6c-0.2-0.2-0.4-0.3-0.6-0.3
		s-0.4,0.1-0.6,0.3c-0.2,0.2-0.3,0.4-0.3,0.6s0.1,0.4,0.3,0.6C104.7,352.2,104.9,352.3,105.2,352.3z"/>
</g>
<g>
	<path class="st2" d="M108.6,352.4c0.2,0,0.4-0.1,0.6-0.3c0.2-0.2,0.3-0.4,0.3-0.6s-0.1-0.4-0.3-0.6c-0.2-0.2-0.4-0.3-0.6-0.3
		s-0.4,0.1-0.6,0.3c-0.2,0.2-0.3,0.4-0.3,0.6s0.1,0.4,0.3,0.6C108.2,352.3,108.4,352.4,108.6,352.4z"/>
</g>
<g>
	<path class="st2" d="M105.5,333.3c0.2,0,0.4-0.1,0.6-0.3c0.2-0.2,0.3-0.4,0.3-0.6s-0.1-0.4-0.3-0.6c-0.2-0.2-0.4-0.3-0.6-0.3
		s-0.4,0.1-0.6,0.3c-0.2,0.2-0.3,0.4-0.3,0.6s0.1,0.4,0.3,0.6C105,333.3,105.3,333.3,105.5,333.3z"/>
</g>
<g>
	<path class="st2" d="M83.2,356c0.2,0,0.4-0.1,0.6-0.3c0.2-0.2,0.3-0.4,0.3-0.6s-0.1-0.4-0.3-0.6c-0.2-0.2-0.4-0.3-0.6-0.3
		s-0.4,0.1-0.6,0.3c-0.2,0.2-0.3,0.4-0.3,0.6s0.1,0.4,0.3,0.6C82.8,356,83,356,83.2,356z"/>
</g>
<g>
	<path class="st2" d="M87,355.9c0.2,0,0.4-0.1,0.6-0.3c0.2-0.2,0.3-0.4,0.3-0.6s-0.1-0.4-0.3-0.6c-0.2-0.2-0.4-0.3-0.6-0.3
		s-0.4,0.1-0.6,0.3c-0.2,0.2-0.3,0.4-0.3,0.6s0.1,0.4,0.3,0.6C86.5,355.8,86.7,355.9,87,355.9z"/>
</g>
<g>
	<path class="st2" d="M97,346.1c0.2,0,0.4-0.1,0.6-0.3c0.2-0.2,0.3-0.4,0.3-0.6s-0.1-0.4-0.3-0.6c-0.2-0.2-0.4-0.3-0.6-0.3
		s-0.4,0.1-0.6,0.3c-0.2,0.2-0.3,0.4-0.3,0.6s0.1,0.4,0.3,0.6C96.5,346,96.7,346.1,97,346.1z"/>
</g>
<g>
	<path class="st2" d="M105.3,338.2c0.2,0,0.4-0.1,0.6-0.3c0.2-0.2,0.3-0.4,0.3-0.6s-0.1-0.4-0.3-0.6c-0.2-0.2-0.4-0.3-0.6-0.3
		s-0.4,0.1-0.6,0.3c-0.2,0.2-0.3,0.4-0.3,0.6s0.1,0.4,0.3,0.6C104.9,338.1,105.1,338.2,105.3,338.2z"/>
</g>
<g>
	<path class="st2" d="M109.5,315.9c0.2,0,0.4-0.1,0.6-0.3c0.2-0.2,0.3-0.4,0.3-0.6s-0.1-0.4-0.3-0.6c-0.2-0.2-0.4-0.3-0.6-0.3
		s-0.4,0.1-0.6,0.3c-0.2,0.2-0.3,0.4-0.3,0.6s0.1,0.4,0.3,0.6C109.1,315.8,109.3,315.9,109.5,315.9z"/>
</g>
<g>
	<path class="st2" d="M114.3,335.6c0.2,0,0.4-0.1,0.6-0.3c0.2-0.2,0.3-0.4,0.3-0.6s-0.1-0.4-0.3-0.6c-0.2-0.2-0.4-0.3-0.6-0.3
		s-0.4,0.1-0.6,0.3c-0.2,0.2-0.3,0.4-0.3,0.6s0.1,0.4,0.3,0.6C113.8,335.5,114,335.6,114.3,335.6z"/>
</g>
<g>
	<path class="st2" d="M85.9,337.7c0.2,0,0.4-0.1,0.6-0.3c0.2-0.2,0.3-0.4,0.3-0.6s-0.1-0.4-0.3-0.6c-0.2-0.2-0.4-0.3-0.6-0.3
		s-0.4,0.1-0.6,0.3c-0.2,0.2-0.3,0.4-0.3,0.6s0.1,0.4,0.3,0.6C85.5,337.6,85.7,337.7,85.9,337.7z"/>
</g>
<g>
	<path class="st2" d="M115.8,308.8c0.2,0,0.4-0.1,0.6-0.3c0.2-0.2,0.3-0.4,0.3-0.6s-0.1-0.4-0.3-0.6c-0.2-0.2-0.4-0.3-0.6-0.3
		s-0.4,0.1-0.6,0.3c-0.2,0.2-0.3,0.4-0.3,0.6s0.1,0.4,0.3,0.6C115.4,308.7,115.6,308.8,115.8,308.8z"/>
</g>
<g>
	<path class="st2" d="M81.5,341.1c0.2,0,0.4-0.1,0.6-0.3c0.2-0.2,0.3-0.4,0.3-0.6s-0.1-0.4-0.3-0.6c-0.2-0.2-0.4-0.3-0.6-0.3
		s-0.4,0.1-0.6,0.3c-0.2,0.2-0.3,0.4-0.3,0.6s0.1,0.4,0.3,0.6C81.1,341,81.3,341.1,81.5,341.1z"/>
</g>
<g>
	<path class="st2" d="M88.5,338.2c0.2,0,0.4-0.1,0.6-0.3c0.2-0.2,0.3-0.4,0.3-0.6s-0.1-0.4-0.3-0.6c-0.2-0.2-0.4-0.3-0.6-0.3
		s-0.4,0.1-0.6,0.3c-0.2,0.2-0.3,0.4-0.3,0.6s0.1,0.4,0.3,0.6C88,338.1,88.3,338.2,88.5,338.2z"/>
</g>
<g>
	<path class="st2" d="M77.5,361c0.2,0,0.4-0.1,0.6-0.3c0.2-0.2,0.3-0.4,0.3-0.6s-0.1-0.4-0.3-0.6c-0.2-0.2-0.4-0.3-0.6-0.3
		s-0.4,0.1-0.6,0.3c-0.2,0.2-0.3,0.4-0.3,0.6s0.1,0.4,0.3,0.6C77.1,360.9,77.3,361,77.5,361z"/>
</g>
<g>
	<path class="st2" d="M122,338.6c0.2,0,0.4-0.1,0.6-0.3c0.2-0.2,0.3-0.4,0.3-0.6s-0.1-0.4-0.3-0.6c-0.2-0.2-0.4-0.3-0.6-0.3
		s-0.4,0.1-0.6,0.3c-0.2,0.2-0.3,0.4-0.3,0.6s0.1,0.4,0.3,0.6C121.5,338.5,121.7,338.6,122,338.6z"/>
</g>
<g>
	<path class="st2" d="M119.2,330.9c0.2,0,0.4-0.1,0.6-0.3c0.2-0.2,0.3-0.4,0.3-0.6s-0.1-0.4-0.3-0.6c-0.2-0.2-0.4-0.3-0.6-0.3
		s-0.4,0.1-0.6,0.3c-0.2,0.2-0.3,0.4-0.3,0.6s0.1,0.4,0.3,0.6C118.8,330.8,119,330.9,119.2,330.9z"/>
</g>
<g>
	<path class="st2" d="M116.5,323.5c0.2,0,0.4-0.1,0.6-0.3c0.2-0.2,0.3-0.4,0.3-0.6s-0.1-0.4-0.3-0.6c-0.2-0.2-0.4-0.3-0.6-0.3
		s-0.4,0.1-0.6,0.3c-0.2,0.2-0.3,0.4-0.3,0.6s0.1,0.4,0.3,0.6C116.1,323.4,116.3,323.5,116.5,323.5z"/>
</g>
<g>
	<path class="st2" d="M135.1,300.6c0.2,0,0.4-0.1,0.6-0.3c0.2-0.2,0.3-0.4,0.3-0.6s-0.1-0.4-0.3-0.6c-0.2-0.2-0.4-0.3-0.6-0.3
		s-0.4,0.1-0.6,0.3c-0.2,0.2-0.3,0.4-0.3,0.6s0.1,0.4,0.3,0.6C134.6,300.5,134.8,300.6,135.1,300.6z"/>
</g>
<g>
	<path class="st2" d="M125.7,350.5c0.2,0,0.4-0.1,0.6-0.3c0.2-0.2,0.3-0.4,0.3-0.6s-0.1-0.4-0.3-0.6c-0.2-0.2-0.4-0.3-0.6-0.3
		s-0.4,0.1-0.6,0.3c-0.2,0.2-0.3,0.4-0.3,0.6s0.1,0.4,0.3,0.6C125.3,350.4,125.5,350.5,125.7,350.5z"/>
</g>
<g>
	<path class="st2" d="M123.5,333.3c0.2,0,0.4-0.1,0.6-0.3c0.2-0.2,0.3-0.4,0.3-0.6s-0.1-0.4-0.3-0.6c-0.2-0.2-0.4-0.3-0.6-0.3
		s-0.4,0.1-0.6,0.3c-0.2,0.2-0.3,0.4-0.3,0.6s0.1,0.4,0.3,0.6C123.1,333.2,123.3,333.3,123.5,333.3z"/>
</g>
<g>
	<path class="st2" d="M132.6,310.3c0.2,0,0.4-0.1,0.6-0.3c0.2-0.2,0.3-0.4,0.3-0.6s-0.1-0.4-0.3-0.6c-0.2-0.2-0.4-0.3-0.6-0.3
		s-0.4,0.1-0.6,0.3c-0.2,0.2-0.3,0.4-0.3,0.6s0.1,0.4,0.3,0.6C132.1,310.2,132.3,310.3,132.6,310.3z"/>
</g>
<g>
	<path class="st2" d="M110.9,322.2c0.2,0,0.4-0.1,0.6-0.3c0.2-0.2,0.3-0.4,0.3-0.6s-0.1-0.4-0.3-0.6c-0.2-0.2-0.4-0.3-0.6-0.3
		s-0.4,0.1-0.6,0.3c-0.2,0.2-0.3,0.4-0.3,0.6s0.1,0.4,0.3,0.6C110.4,322.2,110.6,322.2,110.9,322.2z"/>
</g>
<g>
	<path class="st2" d="M112.8,305.9c0.2,0,0.4-0.1,0.6-0.3c0.2-0.2,0.3-0.4,0.3-0.6s-0.1-0.4-0.3-0.6c-0.2-0.2-0.4-0.3-0.6-0.3
		s-0.4,0.1-0.6,0.3c-0.2,0.2-0.3,0.4-0.3,0.6s0.1,0.4,0.3,0.6C112.4,305.8,112.6,305.9,112.8,305.9z"/>
</g>
<g>
	<path class="st2" d="M97.9,340.3c0.2,0,0.4-0.1,0.6-0.3c0.2-0.2,0.3-0.4,0.3-0.6s-0.1-0.4-0.3-0.6c-0.2-0.2-0.4-0.3-0.6-0.3
		s-0.4,0.1-0.6,0.3c-0.2,0.2-0.3,0.4-0.3,0.6s0.1,0.4,0.3,0.6C97.4,340.2,97.6,340.3,97.9,340.3z"/>
</g>
<g>
	<path class="st2" d="M99.3,344.8c0.2,0,0.4-0.1,0.6-0.3c0.2-0.2,0.3-0.4,0.3-0.6s-0.1-0.4-0.3-0.6c-0.2-0.2-0.4-0.3-0.6-0.3
		s-0.4,0.1-0.6,0.3c-0.2,0.2-0.3,0.4-0.3,0.6s0.1,0.4,0.3,0.6C98.8,344.7,99.1,344.8,99.3,344.8z"/>
</g>
<g>
	<path class="st2" d="M95.4,358.3c0.2,0,0.4-0.1,0.6-0.3c0.2-0.2,0.3-0.4,0.3-0.6s-0.1-0.4-0.3-0.6c-0.2-0.2-0.4-0.3-0.6-0.3
		s-0.4,0.1-0.6,0.3c-0.2,0.2-0.3,0.4-0.3,0.6s0.1,0.4,0.3,0.6C94.9,358.2,95.1,358.3,95.4,358.3z"/>
</g>
<g>
	<path class="st2" d="M109.6,328.3c0.2,0,0.4-0.1,0.6-0.3c0.2-0.2,0.3-0.4,0.3-0.6s-0.1-0.4-0.3-0.6c-0.2-0.2-0.4-0.3-0.6-0.3
		s-0.4,0.1-0.6,0.3c-0.2,0.2-0.3,0.4-0.3,0.6s0.1,0.4,0.3,0.6C109.1,328.2,109.3,328.3,109.6,328.3z"/>
</g>
<g>
	<path class="st2" d="M105.9,336.5c0.2,0,0.4-0.1,0.6-0.3c0.2-0.2,0.3-0.4,0.3-0.6s-0.1-0.4-0.3-0.6c-0.2-0.2-0.4-0.3-0.6-0.3
		s-0.4,0.1-0.6,0.3c-0.2,0.2-0.3,0.4-0.3,0.6s0.1,0.4,0.3,0.6C105.5,336.4,105.7,336.5,105.9,336.5z"/>
</g>
<g>
	<path class="st2" d="M102.2,305.7c0.2,0,0.4-0.1,0.6-0.3c0.2-0.2,0.3-0.4,0.3-0.6s-0.1-0.4-0.3-0.6c-0.2-0.2-0.4-0.3-0.6-0.3
		s-0.4,0.1-0.6,0.3c-0.2,0.2-0.3,0.4-0.3,0.6s0.1,0.4,0.3,0.6C101.8,305.6,102,305.7,102.2,305.7z"/>
</g>
<g>
	<path class="st2" d="M118.1,336.6c0.2,0,0.4-0.1,0.6-0.3c0.2-0.2,0.3-0.4,0.3-0.6s-0.1-0.4-0.3-0.6c-0.2-0.2-0.4-0.3-0.6-0.3
		s-0.4,0.1-0.6,0.3c-0.2,0.2-0.3,0.4-0.3,0.6s0.1,0.4,0.3,0.6C117.7,336.5,117.9,336.6,118.1,336.6z"/>
</g>
<g>
	<path class="st2" d="M75.2,362.2c0.2,0,0.4-0.1,0.6-0.3c0.2-0.2,0.3-0.4,0.3-0.6s-0.1-0.4-0.3-0.6c-0.2-0.2-0.4-0.3-0.6-0.3
		s-0.4,0.1-0.6,0.3c-0.2,0.2-0.3,0.4-0.3,0.6s0.1,0.4,0.3,0.6C74.7,362.1,75,362.2,75.2,362.2z"/>
</g>
<g>
	<path class="st2" d="M72.4,362c0.2,0,0.4-0.1,0.6-0.3c0.2-0.2,0.3-0.4,0.3-0.6s-0.1-0.4-0.3-0.6c-0.2-0.2-0.4-0.3-0.6-0.3
		s-0.4,0.1-0.6,0.3c-0.2,0.2-0.3,0.4-0.3,0.6s0.1,0.4,0.3,0.6C72,361.9,72.2,362,72.4,362z"/>
</g>
<g>
	<path class="st2" d="M91.6,324.7c0.2,0,0.4-0.1,0.6-0.3c0.2-0.2,0.3-0.4,0.3-0.6s-0.1-0.4-0.3-0.6c-0.2-0.2-0.4-0.3-0.6-0.3
		s-0.4,0.1-0.6,0.3c-0.2,0.2-0.3,0.4-0.3,0.6s0.1,0.4,0.3,0.6C91.2,324.6,91.4,324.7,91.6,324.7z"/>
</g>
<g>
	<path class="st2" d="M88.7,356.2c0.2,0,0.4-0.1,0.6-0.3c0.2-0.2,0.3-0.4,0.3-0.6s-0.1-0.4-0.3-0.6c-0.2-0.2-0.4-0.3-0.6-0.3
		s-0.4,0.1-0.6,0.3c-0.2,0.2-0.3,0.4-0.3,0.6s0.1,0.4,0.3,0.6C88.2,356.1,88.4,356.2,88.7,356.2z"/>
</g>
<g>
	<path class="st2" d="M80.3,369.6c0.2,0,0.4-0.1,0.6-0.3c0.2-0.2,0.3-0.4,0.3-0.6s-0.1-0.4-0.3-0.6c-0.2-0.2-0.4-0.3-0.6-0.3
		s-0.4,0.1-0.6,0.3c-0.2,0.2-0.3,0.4-0.3,0.6s0.1,0.4,0.3,0.6C79.8,369.5,80.1,369.6,80.3,369.6z"/>
</g>
<g>
	<path class="st2" d="M105.7,332.2c0.2,0,0.4-0.1,0.6-0.3c0.2-0.2,0.3-0.4,0.3-0.6s-0.1-0.4-0.3-0.6c-0.2-0.2-0.4-0.3-0.6-0.3
		s-0.4,0.1-0.6,0.3c-0.2,0.2-0.3,0.4-0.3,0.6s0.1,0.4,0.3,0.6C105.2,332.1,105.5,332.2,105.7,332.2z"/>
</g>
<g>
	<path class="st2" d="M72.5,357.8c0.2,0,0.4-0.1,0.6-0.3c0.2-0.2,0.3-0.4,0.3-0.6s-0.1-0.4-0.3-0.6c-0.2-0.2-0.4-0.3-0.6-0.3
		s-0.4,0.1-0.6,0.3c-0.2,0.2-0.3,0.4-0.3,0.6s0.1,0.4,0.3,0.6C72,357.7,72.2,357.8,72.5,357.8z"/>
</g>
<g>
	<path class="st2" d="M115.3,346.3c0.2,0,0.4-0.1,0.6-0.3c0.2-0.2,0.3-0.4,0.3-0.6s-0.1-0.4-0.3-0.6c-0.2-0.2-0.4-0.3-0.6-0.3
		s-0.4,0.1-0.6,0.3c-0.2,0.2-0.3,0.4-0.3,0.6s0.1,0.4,0.3,0.6C114.9,346.3,115.1,346.3,115.3,346.3z"/>
</g>
<g>
	<path class="st2" d="M133.4,316.1c0.2,0,0.4-0.1,0.6-0.3c0.2-0.2,0.3-0.4,0.3-0.6s-0.1-0.4-0.3-0.6c-0.2-0.2-0.4-0.3-0.6-0.3
		s-0.4,0.1-0.6,0.3c-0.2,0.2-0.3,0.4-0.3,0.6s0.1,0.4,0.3,0.6C132.9,316,133.2,316.1,133.4,316.1z"/>
</g>
<g>
	<path class="st2" d="M147.5,304.8c0.2,0,0.4-0.1,0.6-0.3c0.2-0.2,0.3-0.4,0.3-0.6s-0.1-0.4-0.3-0.6c-0.2-0.2-0.4-0.3-0.6-0.3
		s-0.4,0.1-0.6,0.3c-0.2,0.2-0.3,0.4-0.3,0.6s0.1,0.4,0.3,0.6C147.1,304.7,147.3,304.8,147.5,304.8z"/>
</g>
<g>
	<path class="st2" d="M150.2,304.6c0.2,0,0.4-0.1,0.6-0.3c0.2-0.2,0.3-0.4,0.3-0.6s-0.1-0.4-0.3-0.6c-0.2-0.2-0.4-0.3-0.6-0.3
		s-0.4,0.1-0.6,0.3c-0.2,0.2-0.3,0.4-0.3,0.6s0.1,0.4,0.3,0.6C149.7,304.5,149.9,304.6,150.2,304.6z"/>
</g>
<g>
	<path class="st2" d="M164.5,308.1c0.2,0,0.4-0.1,0.6-0.3c0.2-0.2,0.3-0.4,0.3-0.6s-0.1-0.4-0.3-0.6c-0.2-0.2-0.4-0.3-0.6-0.3
		s-0.4,0.1-0.6,0.3c-0.2,0.2-0.3,0.4-0.3,0.6s0.1,0.4,0.3,0.6C164.1,308,164.3,308.1,164.5,308.1z"/>
</g>
<g id="line2d_1">
	<g>
		<g>
			<path id="md313e613f4" class="st3" d="M69.1,378v3.5"/>
		</g>
	</g>
</g>
<g id="text_1">
	<text transform="matrix(1 0 0 1 64.0501 389.5591)" class="st4 st5">200</text>
</g>
<g id="line2d_2">
	<g>
		<g>
			<path class="st3" d="M93.2,378v3.5"/>
		</g>
	</g>
</g>
<g id="text_2">
	<text transform="matrix(1 0 0 1 88.207 389.5591)" class="st4 st5">300</text>
</g>
<g id="line2d_3">
	<g>
		<g>
			<path class="st3" d="M117.4,378v3.5"/>
		</g>
	</g>
</g>
<g id="text_3">
	<text transform="matrix(1 0 0 1 112.3639 389.5591)" class="st4 st5">400</text>
</g>
<g id="line2d_4">
	<g>
		<g>
			<path class="st3" d="M141.5,378v3.5"/>
		</g>
	</g>
</g>
<g id="text_4">
	<text transform="matrix(1 0 0 1 136.5207 389.5591)" class="st4 st5">500</text>
</g>
<g id="line2d_5">
	<g>
		<g>
			<path class="st3" d="M165.7,378v3.5"/>
		</g>
	</g>
</g>
<g id="text_5">
	<text transform="matrix(1 0 0 1 160.6776 389.5591)" class="st4 st5">600</text>
</g>
<g id="line2d_6">
	<g>
		<g>
			<path class="st3" d="M189.8,378v3.5"/>
		</g>
	</g>
</g>
<g id="text_6">
	<text transform="matrix(1 0 0 1 184.8344 389.5591)" class="st4 st5">700</text>
</g>
<g id="line2d_7">
	<g>
		<g>
			<path class="st3" d="M214,378v3.5"/>
		</g>
	</g>
</g>
<g id="text_7">
	<text transform="matrix(1 0 0 1 208.9913 389.5591)" class="st4 st5">800</text>
</g>
<g id="line2d_8">
	<g>
		<g>
			<path class="st3" d="M238.2,378v3.5"/>
		</g>
	</g>
</g>
<g id="text_8">
	<text transform="matrix(1 0 0 1 233.1482 389.5591)" class="st4 st5">900</text>
</g>
<g id="line2d_9">
	<g>
		<g>
			<path class="st3" d="M262.3,378v3.5"/>
		</g>
	</g>
</g>
<g id="text_9">
	<text transform="matrix(1 0 0 1 255.6366 389.5591)" class="st4 st5">1000</text>
</g>
<text transform="matrix(1 0 0 1 135.075 400.8856)" class="st4 st6">measured_loc</text>
<g id="line2d_10">
	<g>
		<g>
			<path id="m1e5e0e10f0" class="st3" d="M54,356.8h-3.5"/>
		</g>
	</g>
</g>
<g id="text_11">
	<text transform="matrix(1 0 0 1 40.3262 359.0886)" class="st4 st5">10</text>
</g>
<g id="line2d_11">
	<g>
		<g>
			<path class="st3" d="M54,320h-3.5"/>
		</g>
	</g>
</g>
<g id="text_12">
	<text transform="matrix(1 0 0 1 40.3262 322.3043)" class="st4 st5">15</text>
</g>
<g id="line2d_12">
	<g>
		<g>
			<path class="st3" d="M54,283.2h-3.5"/>
		</g>
	</g>
</g>
<g id="text_13">
	<text transform="matrix(1 0 0 1 40.3262 285.5201)" class="st4 st5">20</text>
</g>
<g id="line2d_13">
	<g>
		<g>
			<path class="st3" d="M54,246.5h-3.5"/>
		</g>
	</g>
</g>
<g id="text_14">
	<text transform="matrix(1 0 0 1 40.3262 248.7358)" class="st4 st5">25</text>
</g>
<g id="line2d_14">
	<g>
		<g>
			<path class="st3" d="M54,209.7h-3.5"/>
		</g>
	</g>
</g>
<g id="text_15">
	<text transform="matrix(1 0 0 1 40.3262 211.9517)" class="st4 st5">30</text>
</g>
<text transform="matrix(6.123234e-17 -1 1 6.123234e-17 33.4788 298.5752)" class="st4 st6">measured_rf</text>
<rect x="54" y="174.2" class="st1" width="212.4" height="203.8"/>
<path class="st7" d="M195.3,267v0.6"/>
<rect x="54" y="174.2" class="st1" width="212.4" height="203.8"/>
<path class="st8" d="M195.3,267h1"/>
<rect x="54" y="174.2" class="st1" width="212.4" height="203.8"/>
<path class="st9" d="M63.7,347l193.1-116.4"/>
<path class="st10" d="M54,378V174.2"/>
<path class="st10" d="M266.4,378V174.2"/>
<path class="st10" d="M54,378h212.4"/>
<path class="st10" d="M54,174.2h212.4"/>
<path class="st0" d="M54,138.2h212.4V51.8H54V138.2z"/>
<rect x="54" y="51.8" class="st1" width="212.4" height="86.4"/>
<path class="st11" d="M63.7,138.2H83V56H63.7V138.2z"/>
<rect x="54" y="51.8" class="st1" width="212.4" height="86.4"/>
<path class="st11" d="M83,138.2h19.3V56H83V138.2z"/>
<rect x="54" y="51.8" class="st1" width="212.4" height="86.4"/>
<path class="st11" d="M102.3,138.2h19.3V78.7h-19.3V138.2z"/>
<rect x="54" y="51.8" class="st1" width="212.4" height="86.4"/>
<path class="st11" d="M121.6,138.2h19.3V58.8h-19.3V138.2z"/>
<rect x="54" y="51.8" class="st1" width="212.4" height="86.4"/>
<path class="st11" d="M140.9,138.2h19.3v-25.5h-19.3V138.2z"/>
<rect x="54" y="51.8" class="st1" width="212.4" height="86.4"/>
<path class="st11" d="M160.2,138.2h19.3v-22.7h-19.3V138.2z"/>
<rect x="54" y="51.8" class="st1" width="212.4" height="86.4"/>
<path class="st11" d="M179.5,138.2h19.3v-11.3h-19.3V138.2z"/>
<rect x="54" y="51.8" class="st1" width="212.4" height="86.4"/>
<path class="st11" d="M198.8,138.2h19.3v-2.8h-19.3V138.2z"/>
<rect x="54" y="51.8" class="st1" width="212.4" height="86.4"/>
<path class="st11" d="M218.1,138.2h19.3l0,0H218.1z"/>
<rect x="54" y="51.8" class="st1" width="212.4" height="86.4"/>
<path class="st11" d="M237.4,138.2h19.3v-2.8h-19.3V138.2z"/>
<g id="line2d_18">
	<g>
		<g>
			<path class="st3" d="M63.6,138.2v3.5"/>
		</g>
	</g>
</g>
<g id="text_17">
	<text transform="matrix(1 0 0 1 61.9735 149.7991)" class="st4 st5">0</text>
</g>
<g id="line2d_19">
	<g>
		<g>
			<path class="st3" d="M87.8,138.2v3.5"/>
		</g>
	</g>
</g>
<g id="text_18">
	<text transform="matrix(1 0 0 1 84.4961 149.7991)" class="st4 st5">50</text>
</g>
<g id="line2d_20">
	<g>
		<g>
			<path class="st3" d="M112,138.2v3.5"/>
		</g>
	</g>
</g>
<g id="text_19">
	<text transform="matrix(1 0 0 1 107.0187 149.7991)" class="st4 st5">100</text>
</g>
<g id="line2d_21">
	<g>
		<g>
			<path class="st3" d="M136.2,138.2v3.5"/>
		</g>
	</g>
</g>
<g id="text_20">
	<text transform="matrix(1 0 0 1 131.2097 149.7991)" class="st4 st5">150</text>
</g>
<g id="line2d_22">
	<g>
		<g>
			<path class="st3" d="M160.4,138.2v3.5"/>
		</g>
	</g>
</g>
<g id="text_21">
	<text transform="matrix(1 0 0 1 155.4008 149.7991)" class="st4 st5">200</text>
</g>
<g id="line2d_23">
	<g>
		<g>
			<path class="st3" d="M184.6,138.2v3.5"/>
		</g>
	</g>
</g>
<g id="text_22">
	<text transform="matrix(1 0 0 1 179.5918 149.7991)" class="st4 st5">250</text>
</g>
<g id="line2d_24">
	<g>
		<g>
			<path class="st3" d="M208.8,138.2v3.5"/>
		</g>
	</g>
</g>
<g id="text_23">
	<text transform="matrix(1 0 0 1 203.7829 149.7991)" class="st4 st5">300</text>
</g>
<g id="line2d_25">
	<g>
		<g>
			<path class="st3" d="M233,138.2v3.5"/>
		</g>
	</g>
</g>
<g id="text_24">
	<text transform="matrix(1 0 0 1 227.9739 149.7991)" class="st4 st5">350</text>
</g>
<g id="line2d_26">
	<g>
		<g>
			<path class="st3" d="M257.2,138.2v3.5"/>
		</g>
	</g>
</g>
<g id="text_25">
	<text transform="matrix(1 0 0 1 252.165 149.7991)" class="st4 st5">400</text>
</g>
<text transform="matrix(1 0 0 1 139.7469 161.1256)" class="st4 st6">dist_scatter</text>
<g id="line2d_27">
	<g>
		<g>
			<path class="st3" d="M54,138.2h-3.5"/>
		</g>
	</g>
</g>
<g id="text_27">
	<text transform="matrix(1 0 0 1 38.6592 140.5195)" class="st4 st5">0.0</text>
</g>
<g id="line2d_28">
	<g>
		<g>
			<path class="st3" d="M54,51.8h-3.5"/>
		</g>
	</g>
</g>
<g id="text_28">
	<text transform="matrix(1 0 0 1 35.3223 54.1195)" class="st4 st5">30.0</text>
</g>
<path class="st10" d="M54,138.2V51.8"/>
<path class="st10" d="M54,138.2h212.4"/>
<path class="st0" d="M302.4,378h86.4V174.2h-86.4V378z"/>
<rect x="302.4" y="174.2" class="st1" width="86.4" height="203.8"/>
<path class="st12" d="M302.4,368.7h82.3v-18.5h-82.3V368.7z"/>
<rect x="302.4" y="174.2" class="st1" width="86.4" height="203.8"/>
<path class="st12" d="M302.4,350.2h82.3v-18.5h-82.3V350.2z"/>
<rect x="302.4" y="174.2" class="st1" width="86.4" height="203.8"/>
<path class="st12" d="M302.4,331.7H362v-18.5h-59.6V331.7z"/>
<rect x="302.4" y="174.2" class="st1" width="86.4" height="203.8"/>
<path class="st12" d="M302.4,313.2h79.4v-18.5h-79.4V313.2z"/>
<rect x="302.4" y="174.2" class="st1" width="86.4" height="203.8"/>
<path class="st12" d="M302.4,294.6h25.5v-18.5h-25.5V294.6z"/>
<rect x="302.4" y="174.2" class="st1" width="86.4" height="203.8"/>
<path class="st12" d="M302.4,276.1h22.7v-18.5h-22.7V276.1z"/>
<rect x="302.4" y="174.2" class="st1" width="86.4" height="203.8"/>
<path class="st12" d="M302.4,257.6h11.3v-18.5h-11.3V257.6z"/>
<rect x="302.4" y="174.2" class="st1" width="86.4" height="203.8"/>
<path class="st12" d="M302.4,239.1h2.8v-18.5h-2.8V239.1z"/>
<rect x="302.4" y="174.2" class="st1" width="86.4" height="203.8"/>
<path class="st12" d="M302.4,220.5L302.4,220.5V202l0,0V220.5z"/>
<rect x="302.4" y="174.2" class="st1" width="86.4" height="203.8"/>
<path class="st12" d="M302.4,202h2.8v-18.5h-2.8V202z"/>
<g id="line2d_29">
	<g>
		<g>
			<path class="st3" d="M302.4,378v3.5"/>
		</g>
	</g>
</g>
<g id="text_29">
	<text transform="matrix(1 0 0 1 298.2296 389.5591)" class="st4 st5">0.0</text>
</g>
<g id="line2d_30">
	<g>
		<g>
			<path class="st3" d="M388.8,378v3.5"/>
		</g>
	</g>
</g>
<g id="text_30">
	<text transform="matrix(1 0 0 1 382.9611 389.5591)" class="st4 st5">30.0</text>
</g>
<g id="line2d_31">
	<g>
		<g>
			<path class="st3" d="M302.4,368.8h-3.5"/>
		</g>
	</g>
</g>
<g id="text_31">
	<text transform="matrix(1 0 0 1 292.0631 371.0298)" class="st4 st5">0</text>
</g>
<g id="line2d_32">
	<g>
		<g>
			<path class="st3" d="M302.4,345.3h-3.5"/>
		</g>
	</g>
</g>
<g id="text_32">
	<text transform="matrix(1 0 0 1 292.0631 347.5886)" class="st4 st5">1</text>
</g>
<g id="line2d_33">
	<g>
		<g>
			<path class="st3" d="M302.4,321.9h-3.5"/>
		</g>
	</g>
</g>
<g id="text_33">
	<text transform="matrix(1 0 0 1 292.0631 324.1474)" class="st4 st5">2</text>
</g>
<g id="line2d_34">
	<g>
		<g>
			<path class="st3" d="M302.4,298.4h-3.5"/>
		</g>
	</g>
</g>
<g id="text_34">
	<text transform="matrix(1 0 0 1 292.0631 300.7061)" class="st4 st5">3</text>
</g>
<g id="line2d_35">
	<g>
		<g>
			<path class="st3" d="M302.4,275h-3.5"/>
		</g>
	</g>
</g>
<g id="text_35">
	<text transform="matrix(1 0 0 1 292.0631 277.2649)" class="st4 st5">4</text>
</g>
<g id="line2d_36">
	<g>
		<g>
			<path class="st3" d="M302.4,251.5h-3.5"/>
		</g>
	</g>
</g>
<g id="text_36">
	<text transform="matrix(1 0 0 1 292.0631 253.8237)" class="st4 st5">5</text>
</g>
<g id="line2d_37">
	<g>
		<g>
			<path class="st3" d="M302.4,228.1h-3.5"/>
		</g>
	</g>
</g>
<g id="text_37">
	<text transform="matrix(1 0 0 1 292.0631 230.3824)" class="st4 st5">6</text>
</g>
<g id="line2d_38">
	<g>
		<g>
			<path class="st3" d="M302.4,204.7h-3.5"/>
		</g>
	</g>
</g>
<g id="text_38">
	<text transform="matrix(1 0 0 1 292.0631 206.9412)" class="st4 st5">7</text>
</g>
<g id="line2d_39">
	<g>
		<g>
			<path class="st3" d="M302.4,181.2h-3.5"/>
		</g>
	</g>
</g>
<g id="text_39">
	<text transform="matrix(1 0 0 1 292.0631 183.5)" class="st4 st5">8</text>
</g>
<text transform="matrix(6.123234e-17 -1 1 6.123234e-17 285.6963 297.0225)" class="st4 st6">deg_scatter</text>
<path class="st10" d="M302.4,378V174.2"/>
<path class="st10" d="M302.4,378h86.4"/>
</svg>
