<?xml version="1.0" encoding="utf-8"?>
<!-- Generator: Adobe Illustrator 23.0.3, SVG Export Plug-In . SVG Version: 6.00 Build 0)  -->
<svg version="1.1" id="Layer_1" xmlns="http://www.w3.org/2000/svg" xmlns:xlink="http://www.w3.org/1999/xlink" x="0px" y="0px"
	 viewBox="0 0 432 216" style="enable-background:new 0 0 432 216;" xml:space="preserve">
<style type="text/css">
	.st0{fill:none;}
	.st1{fill:#8C192A;stroke:#8C192A;stroke-width:1.62;stroke-linejoin:round;}
	.st2{font-family:'ArialMT';}
	.st3{font-size:6px;}
	.st4{stroke:#000000;stroke-width:0.25;stroke-linejoin:round;}
	.st5{font-size:8px;}
	.st6{fill:#BF5A4C;stroke:#BF5A4C;stroke-width:1.62;stroke-linejoin:round;}
	.st7{fill:none;stroke:#000000;stroke-width:0.25;stroke-linecap:square;}
	.st8{fill:#D89E87;stroke:#D89E87;stroke-width:1.62;stroke-linejoin:round;}
	.st9{fill:#D8C8C0;stroke:#D8C8C0;stroke-width:1.62;stroke-linejoin:round;}
	.st10{fill:#CAD4D8;stroke:#CAD4D8;stroke-width:1.62;stroke-linejoin:round;}
	.st11{fill:#A3CBD8;stroke:#A0C8D8;stroke-width:1.62;stroke-linejoin:round;}
	.st12{fill:#519DBF;stroke:#519DBF;stroke-width:1.62;stroke-linejoin:round;}
	.st13{fill:#1E5A8C;stroke:#1E5A8C;stroke-width:1.62;stroke-linejoin:round;}
	.st14{font-size:6.9509px;}
	.st15{fill:none;stroke:#000000;stroke-width:0.25;}
	.st16{fill:#8C192A;}
	.st17{fill:#BF5A4C;}
	.st18{fill:#D89E87;}
	.st19{fill:#D8C8C0;}
	.st20{fill:#CAD4D8;}
	.st21{fill:#A3CBD8;}
	.st22{fill:#519DBF;}
	.st23{fill:#1E5A8C;}
</style>
<path class="st0" d="M51.8,172.8h358.6v-108H51.8V172.8z"/>
<rect x="51.8" y="64.8" class="st0" width="358.6" height="108"/>
<g>
	<path id="C0_0_34252badc2" class="st1" d="M81.7,132.8c0.7,0,1.4-0.3,1.9-0.8c0.5-0.5,0.8-1.2,0.8-1.9s-0.3-1.4-0.8-1.9
		c-0.5-0.5-1.2-0.8-1.9-0.8s-1.4,0.3-1.9,0.8c-0.5,0.5-0.8,1.2-0.8,1.9s0.3,1.4,0.8,1.9C80.3,132.5,81,132.8,81.7,132.8z"/>
</g>
<rect x="51.8" y="64.8" class="st0" width="358.6" height="108"/>
<g>
	<path class="st1" d="M201.2,98.4c0.7,0,1.4-0.3,1.9-0.8c0.5-0.5,0.8-1.2,0.8-1.9s-0.3-1.4-0.8-1.9c-0.5-0.5-1.2-0.8-1.9-0.8
		s-1.4,0.3-1.9,0.8c-0.5,0.5-0.8,1.2-0.8,1.9s0.3,1.4,0.8,1.9C199.8,98.1,200.5,98.4,201.2,98.4z"/>
</g>
<rect x="51.8" y="64.8" class="st0" width="358.6" height="108"/>
<g>
	<path class="st1" d="M320.8,137.9c0.7,0,1.4-0.3,1.9-0.8c0.5-0.5,0.8-1.2,0.8-1.9s-0.3-1.4-0.8-1.9c-0.5-0.5-1.2-0.8-1.9-0.8
		s-1.4,0.3-1.9,0.8c-0.5,0.5-0.8,1.2-0.8,1.9s0.3,1.4,0.8,1.9C319.4,137.7,320,137.9,320.8,137.9z"/>
</g>
<rect x="51.8" y="64.8" class="st0" width="358.6" height="108"/>
<path class="st1" d="M81.7,150.7v-41.2"/>
<rect x="51.8" y="64.8" class="st0" width="358.6" height="108"/>
<path class="st1" d="M201.2,122.3V69"/>
<rect x="51.8" y="64.8" class="st0" width="358.6" height="108"/>
<path class="st1" d="M320.8,142.3v-14.1"/>
<g id="line2d_4">
</g>
<g id="text_1">
	<text transform="matrix(1 0 0 1 107.9306 180.8591)" class="st2 st3">V1</text>
</g>
<g id="line2d_5">
</g>
<g id="text_2">
	<text transform="matrix(1 0 0 1 226.9525 180.8591)" class="st2 st3">Lm</text>
</g>
<g id="line2d_6">
</g>
<g id="text_3">
	<text transform="matrix(1 0 0 1 348.3051 180.8591)" class="st2 st3">Li</text>
</g>
<g id="line2d_7">
	<g>
		<g>
			<path id="me68feddccc" class="st4" d="M49.8,172.8h-3.5"/>
		</g>
	</g>
</g>
<g id="text_4">
	<text transform="matrix(1 0 0 1 34.4992 175.0795)" class="st2 st3">0.2</text>
</g>
<g id="line2d_8">
	<g>
		<g>
			<path class="st4" d="M49.8,155.8h-3.5"/>
		</g>
	</g>
</g>
<g id="text_5">
	<text transform="matrix(1 0 0 1 34.4992 158.0958)" class="st2 st3">0.4</text>
</g>
<g id="line2d_9">
	<g>
		<g>
			<path class="st4" d="M49.8,138.8h-3.5"/>
		</g>
	</g>
</g>
<g id="text_6">
	<text transform="matrix(1 0 0 1 34.4992 141.1122)" class="st2 st3">0.6</text>
</g>
<g id="line2d_10">
	<g>
		<g>
			<path class="st4" d="M49.8,121.8h-3.5"/>
		</g>
	</g>
</g>
<g id="text_7">
	<text transform="matrix(1 0 0 1 34.4992 124.1285)" class="st2 st3">0.8</text>
</g>
<g id="line2d_11">
	<g>
		<g>
			<path class="st4" d="M49.8,104.9h-3.5"/>
		</g>
	</g>
</g>
<g id="text_8">
	<text transform="matrix(1 0 0 1 34.4992 107.1448)" class="st2 st3">1.0</text>
</g>
<g id="line2d_12">
	<g>
		<g>
			<path class="st4" d="M49.8,87.9h-3.5"/>
		</g>
	</g>
</g>
<g id="text_9">
	<text transform="matrix(1 0 0 1 34.4992 90.1611)" class="st2 st3">1.2</text>
</g>
<text transform="matrix(6.123234e-17 -1 1 6.123234e-17 27.6344 143.7061)" class="st2 st5">generalization</text>
<rect x="51.8" y="64.8" class="st0" width="358.6" height="108"/>
<g>
	<path id="C1_0_2342ad9475" class="st6" d="M90.3,118.8c0.7,0,1.4-0.3,1.9-0.8c0.5-0.5,0.8-1.2,0.8-1.9s-0.3-1.4-0.8-1.9
		c-0.5-0.5-1.2-0.8-1.9-0.8s-1.4,0.3-1.9,0.8c-0.5,0.5-0.8,1.2-0.8,1.9s0.3,1.4,0.8,1.9C88.9,118.5,89.5,118.8,90.3,118.8z"/>
</g>
<rect x="51.8" y="64.8" class="st0" width="358.6" height="108"/>
<g>
	<path class="st6" d="M209.8,123.1c0.7,0,1.4-0.3,1.9-0.8c0.5-0.5,0.8-1.2,0.8-1.9s-0.3-1.4-0.8-1.9c-0.5-0.5-1.2-0.8-1.9-0.8
		s-1.4,0.3-1.9,0.8c-0.5,0.5-0.8,1.2-0.8,1.9s0.3,1.4,0.8,1.9C208.4,122.8,209.1,123.1,209.8,123.1z"/>
</g>
<rect x="51.8" y="64.8" class="st0" width="358.6" height="108"/>
<g>
	<path class="st6" d="M329.3,127.7c0.7,0,1.4-0.3,1.9-0.8c0.5-0.5,0.8-1.2,0.8-1.9s-0.3-1.4-0.8-1.9c-0.5-0.5-1.2-0.8-1.9-0.8
		s-1.4,0.3-1.9,0.8c-0.5,0.5-0.8,1.2-0.8,1.9s0.3,1.4,0.8,1.9C327.9,127.5,328.6,127.7,329.3,127.7z"/>
</g>
<rect x="51.8" y="64.8" class="st0" width="358.6" height="108"/>
<path class="st6" d="M90.3,137V95.2"/>
<rect x="51.8" y="64.8" class="st0" width="358.6" height="108"/>
<path class="st6" d="M209.8,144.5V96.3"/>
<rect x="51.8" y="64.8" class="st0" width="358.6" height="108"/>
<path class="st6" d="M329.3,137.5v-24.8"/>
<path class="st7" d="M49.8,172.8V87.9"/>
<rect x="51.8" y="64.8" class="st0" width="358.6" height="108"/>
<g>
	<path id="C2_0_89910db22a" class="st8" d="M98.8,116.4c0.7,0,1.4-0.3,1.9-0.8c0.5-0.5,0.8-1.2,0.8-1.9s-0.3-1.4-0.8-1.9
		c-0.5-0.5-1.2-0.8-1.9-0.8s-1.4,0.3-1.9,0.8c-0.5,0.5-0.8,1.2-0.8,1.9s0.3,1.4,0.8,1.9C97.4,116.1,98.1,116.4,98.8,116.4z"/>
</g>
<rect x="51.8" y="64.8" class="st0" width="358.6" height="108"/>
<g>
	<path class="st8" d="M218.3,115.6c0.7,0,1.4-0.3,1.9-0.8c0.5-0.5,0.8-1.2,0.8-1.9s-0.3-1.4-0.8-1.9c-0.5-0.5-1.2-0.8-1.9-0.8
		s-1.4,0.3-1.9,0.8c-0.5,0.5-0.8,1.2-0.8,1.9s0.3,1.4,0.8,1.9C216.9,115.3,217.6,115.6,218.3,115.6z"/>
</g>
<rect x="51.8" y="64.8" class="st0" width="358.6" height="108"/>
<g>
	<path class="st8" d="M337.8,116.4c0.7,0,1.4-0.3,1.9-0.8c0.5-0.5,0.8-1.2,0.8-1.9s-0.3-1.4-0.8-1.9c-0.5-0.5-1.2-0.8-1.9-0.8
		s-1.4,0.3-1.9,0.8c-0.5,0.5-0.8,1.2-0.8,1.9s0.3,1.4,0.8,1.9C336.4,116.1,337.1,116.4,337.8,116.4z"/>
</g>
<rect x="51.8" y="64.8" class="st0" width="358.6" height="108"/>
<path class="st8" d="M98.8,131.5V95.9"/>
<rect x="51.8" y="64.8" class="st0" width="358.6" height="108"/>
<path class="st8" d="M218.3,138V87.7"/>
<rect x="51.8" y="64.8" class="st0" width="358.6" height="108"/>
<path class="st8" d="M337.8,125.1v-22.8"/>
<rect x="51.8" y="64.8" class="st0" width="358.6" height="108"/>
<g>
	<path id="C3_0_323d58e839" class="st9" d="M107.3,109.3c0.7,0,1.4-0.3,1.9-0.8c0.5-0.5,0.8-1.2,0.8-1.9s-0.3-1.4-0.8-1.9
		c-0.5-0.5-1.2-0.8-1.9-0.8s-1.4,0.3-1.9,0.8c-0.5,0.5-0.8,1.2-0.8,1.9s0.3,1.4,0.8,1.9C105.9,109,106.6,109.3,107.3,109.3z"/>
</g>
<rect x="51.8" y="64.8" class="st0" width="358.6" height="108"/>
<g>
	<path class="st9" d="M226.9,107.2c0.7,0,1.4-0.3,1.9-0.8c0.5-0.5,0.8-1.2,0.8-1.9s-0.3-1.4-0.8-1.9c-0.5-0.5-1.2-0.8-1.9-0.8
		s-1.4,0.3-1.9,0.8c-0.5,0.5-0.8,1.2-0.8,1.9s0.3,1.4,0.8,1.9C225.4,106.9,226.1,107.2,226.9,107.2z"/>
</g>
<rect x="51.8" y="64.8" class="st0" width="358.6" height="108"/>
<g>
	<path class="st9" d="M346.4,107.6c0.7,0,1.4-0.3,1.9-0.8c0.5-0.5,0.8-1.2,0.8-1.9s-0.3-1.4-0.8-1.9c-0.5-0.5-1.2-0.8-1.9-0.8
		s-1.4,0.3-1.9,0.8c-0.5,0.5-0.8,1.2-0.8,1.9s0.3,1.4,0.8,1.9C345,107.3,345.7,107.6,346.4,107.6z"/>
</g>
<rect x="51.8" y="64.8" class="st0" width="358.6" height="108"/>
<path class="st9" d="M107.3,121.1V92"/>
<rect x="51.8" y="64.8" class="st0" width="358.6" height="108"/>
<path class="st9" d="M226.9,123.6V85.4"/>
<rect x="51.8" y="64.8" class="st0" width="358.6" height="108"/>
<path class="st9" d="M346.4,119.3V90.5"/>
<rect x="51.8" y="64.8" class="st0" width="358.6" height="108"/>
<g>
	<path id="C4_0_2dd1a21752" class="st10" d="M115.9,118.5c0.7,0,1.4-0.3,1.9-0.8c0.5-0.5,0.8-1.2,0.8-1.9s-0.3-1.4-0.8-1.9
		c-0.5-0.5-1.2-0.8-1.9-0.8s-1.4,0.3-1.9,0.8c-0.5,0.5-0.8,1.2-0.8,1.9s0.3,1.4,0.8,1.9C114.5,118.2,115.2,118.5,115.9,118.5z"/>
</g>
<rect x="51.8" y="64.8" class="st0" width="358.6" height="108"/>
<g>
	<path class="st10" d="M235.4,119.6c0.7,0,1.4-0.3,1.9-0.8c0.5-0.5,0.8-1.2,0.8-1.9s-0.3-1.4-0.8-1.9c-0.5-0.5-1.2-0.8-1.9-0.8
		s-1.4,0.3-1.9,0.8c-0.5,0.5-0.8,1.2-0.8,1.9s0.3,1.4,0.8,1.9C234,119.3,234.7,119.6,235.4,119.6z"/>
</g>
<rect x="51.8" y="64.8" class="st0" width="358.6" height="108"/>
<g>
	<path class="st10" d="M354.9,107.8c0.7,0,1.4-0.3,1.9-0.8c0.5-0.5,0.8-1.2,0.8-1.9s-0.3-1.4-0.8-1.9c-0.5-0.5-1.2-0.8-1.9-0.8
		s-1.4,0.3-1.9,0.8c-0.5,0.5-0.8,1.2-0.8,1.9s0.3,1.4,0.8,1.9C353.5,107.5,354.2,107.8,354.9,107.8z"/>
</g>
<rect x="51.8" y="64.8" class="st0" width="358.6" height="108"/>
<path class="st10" d="M115.9,127.5v-23.4"/>
<rect x="51.8" y="64.8" class="st0" width="358.6" height="108"/>
<path class="st10" d="M235.4,134.1V99.7"/>
<rect x="51.8" y="64.8" class="st0" width="358.6" height="108"/>
<path class="st10" d="M354.9,117.5V92.6"/>
<rect x="51.8" y="64.8" class="st0" width="358.6" height="108"/>
<g>
	<path id="C5_0_dce592a3f3" class="st11" d="M124.4,130.3c0.7,0,1.4-0.3,1.9-0.8c0.5-0.5,0.8-1.2,0.8-1.9s-0.3-1.4-0.8-1.9
		c-0.5-0.5-1.2-0.8-1.9-0.8s-1.4,0.3-1.9,0.8c-0.5,0.5-0.8,1.2-0.8,1.9s0.3,1.4,0.8,1.9C123,130,123.7,130.3,124.4,130.3z"/>
</g>
<rect x="51.8" y="64.8" class="st0" width="358.6" height="108"/>
<g>
	<path class="st11" d="M243.9,131.2c0.7,0,1.4-0.3,1.9-0.8c0.5-0.5,0.8-1.2,0.8-1.9c0-0.7-0.3-1.4-0.8-1.9c-0.5-0.5-1.2-0.8-1.9-0.8
		s-1.4,0.3-1.9,0.8c-0.5,0.5-0.8,1.2-0.8,1.9c0,0.7,0.3,1.4,0.8,1.9C242.5,131,243.2,131.2,243.9,131.2z"/>
</g>
<rect x="51.8" y="64.8" class="st0" width="358.6" height="108"/>
<g>
	<path class="st11" d="M363.4,112.8c0.7,0,1.4-0.3,1.9-0.8c0.5-0.5,0.8-1.2,0.8-1.9s-0.3-1.4-0.8-1.9c-0.5-0.5-1.2-0.8-1.9-0.8
		s-1.4,0.3-1.9,0.8c-0.5,0.5-0.8,1.2-0.8,1.9s0.3,1.4,0.8,1.9C362,112.5,362.7,112.8,363.4,112.8z"/>
</g>
<rect x="51.8" y="64.8" class="st0" width="358.6" height="108"/>
<path class="st11" d="M124.4,141.4v-27.6"/>
<rect x="51.8" y="64.8" class="st0" width="358.6" height="108"/>
<path class="st11" d="M243.9,140.2v-23.4"/>
<rect x="51.8" y="64.8" class="st0" width="358.6" height="108"/>
<path class="st11" d="M363.4,122.5V97.7"/>
<rect x="51.8" y="64.8" class="st0" width="358.6" height="108"/>
<g>
	<path id="C6_0_c03d871506" class="st12" d="M132.9,140.6c0.7,0,1.4-0.3,1.9-0.8c0.5-0.5,0.8-1.2,0.8-1.9s-0.3-1.4-0.8-1.9
		c-0.5-0.5-1.2-0.8-1.9-0.8s-1.4,0.3-1.9,0.8c-0.5,0.5-0.8,1.2-0.8,1.9s0.3,1.4,0.8,1.9C131.5,140.3,132.2,140.6,132.9,140.6z"/>
</g>
<rect x="51.8" y="64.8" class="st0" width="358.6" height="108"/>
<g>
	<path class="st12" d="M252.5,138.5c0.7,0,1.4-0.3,1.9-0.8c0.5-0.5,0.8-1.2,0.8-1.9s-0.3-1.4-0.8-1.9c-0.5-0.5-1.2-0.8-1.9-0.8
		s-1.4,0.3-1.9,0.8c-0.5,0.5-0.8,1.2-0.8,1.9s0.3,1.4,0.8,1.9C251.1,138.3,251.7,138.5,252.5,138.5z"/>
</g>
<rect x="51.8" y="64.8" class="st0" width="358.6" height="108"/>
<g>
	<path class="st12" d="M372,121.3c0.7,0,1.4-0.3,1.9-0.8c0.5-0.5,0.8-1.2,0.8-1.9s-0.3-1.4-0.8-1.9c-0.5-0.5-1.2-0.8-1.9-0.8
		s-1.4,0.3-1.9,0.8c-0.5,0.5-0.8,1.2-0.8,1.9s0.3,1.4,0.8,1.9C370.6,121,371.3,121.3,372,121.3z"/>
</g>
<rect x="51.8" y="64.8" class="st0" width="358.6" height="108"/>
<path class="st12" d="M132.9,145.6v-15.3"/>
<rect x="51.8" y="64.8" class="st0" width="358.6" height="108"/>
<path class="st12" d="M252.5,146.6v-21.4"/>
<rect x="51.8" y="64.8" class="st0" width="358.6" height="108"/>
<path class="st12" d="M372,131.3v-25.4"/>
<rect x="51.8" y="64.8" class="st0" width="358.6" height="108"/>
<g>
	<path id="C7_0_8f4d7a80c7" class="st13" d="M141.5,149.9c0.7,0,1.4-0.3,1.9-0.8c0.5-0.5,0.8-1.2,0.8-1.9s-0.3-1.4-0.8-1.9
		c-0.5-0.5-1.2-0.8-1.9-0.8s-1.4,0.3-1.9,0.8c-0.5,0.5-0.8,1.2-0.8,1.9s0.3,1.4,0.8,1.9C140.1,149.6,140.8,149.9,141.5,149.9z"/>
</g>
<rect x="51.8" y="64.8" class="st0" width="358.6" height="108"/>
<g>
	<path class="st13" d="M261,141.7c0.7,0,1.4-0.3,1.9-0.8c0.5-0.5,0.8-1.2,0.8-1.9s-0.3-1.4-0.8-1.9c-0.5-0.5-1.2-0.8-1.9-0.8
		s-1.4,0.3-1.9,0.8c-0.5,0.5-0.8,1.2-0.8,1.9s0.3,1.4,0.8,1.9C259.6,141.5,260.3,141.7,261,141.7z"/>
</g>
<rect x="51.8" y="64.8" class="st0" width="358.6" height="108"/>
<g>
	<path class="st13" d="M380.5,127.2c0.7,0,1.4-0.3,1.9-0.8c0.5-0.5,0.8-1.2,0.8-1.9s-0.3-1.4-0.8-1.9c-0.5-0.5-1.2-0.8-1.9-0.8
		s-1.4,0.3-1.9,0.8c-0.5,0.5-0.8,1.2-0.8,1.9s0.3,1.4,0.8,1.9C379.1,126.9,379.8,127.2,380.5,127.2z"/>
</g>
<rect x="51.8" y="64.8" class="st0" width="358.6" height="108"/>
<path class="st13" d="M141.5,152.5v-10.8"/>
<rect x="51.8" y="64.8" class="st0" width="358.6" height="108"/>
<path class="st13" d="M261,143.8v-9.5"/>
<rect x="51.8" y="64.8" class="st0" width="358.6" height="108"/>
<path class="st13" d="M380.5,133.8v-18.6"/>
<g>
	<g id="line2d_1">
		<g>
			<g>
				<path id="m3d7807b57d" class="st4" d="M155.1,200.4v1.4"/>
			</g>
		</g>
	</g>
	<g id="text_1_1_">
		<text transform="matrix(1 0 0 1 150.0511 209.1871)" class="st2 st14">-40</text>
	</g>
	<g id="line2d_2">
		<g>
			<g>
				<path class="st4" d="M176.7,200.4v1.4"/>
			</g>
		</g>
	</g>
	<g id="text_2_1_">
		<text transform="matrix(1 0 0 1 171.6511 209.1874)" class="st2 st14">-30</text>
	</g>
	<g id="line2d_3">
		<g>
			<g>
				<path class="st4" d="M198.3,200.4v1.4"/>
			</g>
		</g>
	</g>
	<g id="text_3_1_">
		<text transform="matrix(1 0 0 1 193.251 209.1874)" class="st2 st14">-20</text>
	</g>
	<g id="line2d_4_1_">
		<g>
			<g>
				<path class="st4" d="M219.9,200.4v1.4"/>
			</g>
		</g>
	</g>
	<g id="text_4_1_">
		<text transform="matrix(1 0 0 1 214.8507 209.1874)" class="st2 st14">-10</text>
	</g>
	<g id="line2d_5_1_">
		<g>
			<g>
				<path class="st4" d="M241.5,200.4v1.4"/>
			</g>
		</g>
	</g>
	<g id="text_5_1_">
		<text transform="matrix(1 0 0 1 237.6075 209.1874)" class="st2 st14">10</text>
	</g>
	<g id="line2d_6_1_">
		<g>
			<g>
				<path class="st4" d="M263.1,200.4v1.4"/>
			</g>
		</g>
	</g>
	<g id="text_6_1_">
		<text transform="matrix(1 0 0 1 259.2074 209.1874)" class="st2 st14">20</text>
	</g>
	<g id="line2d_7_1_">
		<g>
			<g>
				<path class="st4" d="M284.7,200.4v1.4"/>
			</g>
		</g>
	</g>
	<g id="text_7_1_">
		<text transform="matrix(1 0 0 1 280.8073 209.1874)" class="st2 st14">30</text>
	</g>
	<g id="line2d_8_1_">
		<g>
			<g>
				<path class="st4" d="M306.3,200.4v1.4"/>
			</g>
		</g>
	</g>
	<g id="text_8_1_">
		<text transform="matrix(1 0 0 1 302.4078 209.1871)" class="st2 st14">40</text>
	</g>
	<rect x="144.3" y="193.2" class="st15" width="172.8" height="7.2"/>
	<rect x="144.3" y="193.2" class="st16" width="21.6" height="7.2"/>
	<rect x="165.9" y="193.2" class="st17" width="21.6" height="7.2"/>
	<rect x="187.5" y="193.2" class="st18" width="21.6" height="7.2"/>
	<rect x="209.1" y="193.2" class="st19" width="21.6" height="7.2"/>
	<rect x="230.7" y="193.2" class="st20" width="21.6" height="7.2"/>
	<rect x="252.3" y="193.2" class="st21" width="21.6" height="7.2"/>
	<rect x="273.9" y="193.2" class="st22" width="21.6" height="7.2"/>
	<rect x="295.5" y="193.2" class="st23" width="21.6" height="7.2"/>
</g>
</svg>
