<?xml version="1.0" encoding="utf-8" standalone="no"?>
<!DOCTYPE svg PUBLIC "-//W3C//DTD SVG 1.1//EN"
  "http://www.w3.org/Graphics/SVG/1.1/DTD/svg11.dtd">
<!-- Created with matplotlib (https://matplotlib.org/) -->
<svg height="288pt" version="1.1" viewBox="0 0 720 288" width="720pt" xmlns="http://www.w3.org/2000/svg" xmlns:xlink="http://www.w3.org/1999/xlink">
 <metadata>
  <rdf:RDF xmlns:cc="http://creativecommons.org/ns#" xmlns:dc="http://purl.org/dc/elements/1.1/" xmlns:rdf="http://www.w3.org/1999/02/22-rdf-syntax-ns#">
   <cc:Work>
    <dc:type rdf:resource="http://purl.org/dc/dcmitype/StillImage"/>
    <dc:date>2021-03-31T20:03:12.939212</dc:date>
    <dc:format>image/svg+xml</dc:format>
    <dc:creator>
     <cc:Agent>
      <dc:title>Matplotlib v3.3.4, https://matplotlib.org/</dc:title>
     </cc:Agent>
    </dc:creator>
   </cc:Work>
  </rdf:RDF>
 </metadata>
 <defs>
  <style type="text/css">*{stroke-linecap:butt;stroke-linejoin:round;}</style>
 </defs>
 <g id="figure_1">
  <g id="patch_1">
   <path d="M 0 288 
L 720 288 
L 720 0 
L 0 0 
z
" style="fill:#ffffff;"/>
  </g>
  <g id="axes_1">
   <g id="patch_2">
    <path d="M 50.4 230.4 
L 698.4 230.4 
L 698.4 57.6 
L 50.4 57.6 
z
" style="fill:#ffffff;"/>
   </g>
   <g id="matplotlib.axis_1">
    <g id="xtick_1">
     <g id="line2d_1">
      <defs>
       <path d="M 0 0 
L 0 3.5 
" id="m97c7518528" style="stroke:#000000;stroke-width:0.8;"/>
      </defs>
      <g>
       <use style="stroke:#000000;stroke-width:0.8;" x="79.854545" xlink:href="#m97c7518528" y="235.4"/>
      </g>
     </g>
     <g id="text_1">
      <!-- AG1 -->
      <g transform="translate(71.54392 248.47875)scale(0.08 -0.08)">
       <defs>
        <path d="M 34.1875 63.1875 
L 20.796875 26.90625 
L 47.609375 26.90625 
z
M 28.609375 72.90625 
L 39.796875 72.90625 
L 67.578125 0 
L 57.328125 0 
L 50.6875 18.703125 
L 17.828125 18.703125 
L 11.1875 0 
L 0.78125 0 
z
" id="DejaVuSans-65"/>
        <path d="M 59.515625 10.40625 
L 59.515625 29.984375 
L 43.40625 29.984375 
L 43.40625 38.09375 
L 69.28125 38.09375 
L 69.28125 6.78125 
Q 63.578125 2.734375 56.6875 0.65625 
Q 49.8125 -1.421875 42 -1.421875 
Q 24.90625 -1.421875 15.25 8.5625 
Q 5.609375 18.5625 5.609375 36.375 
Q 5.609375 54.25 15.25 64.234375 
Q 24.90625 74.21875 42 74.21875 
Q 49.125 74.21875 55.546875 72.453125 
Q 61.96875 70.703125 67.390625 67.28125 
L 67.390625 56.78125 
Q 61.921875 61.421875 55.765625 63.765625 
Q 49.609375 66.109375 42.828125 66.109375 
Q 29.4375 66.109375 22.71875 58.640625 
Q 16.015625 51.171875 16.015625 36.375 
Q 16.015625 21.625 22.71875 14.15625 
Q 29.4375 6.6875 42.828125 6.6875 
Q 48.046875 6.6875 52.140625 7.59375 
Q 56.25 8.5 59.515625 10.40625 
z
" id="DejaVuSans-71"/>
        <path d="M 12.40625 8.296875 
L 28.515625 8.296875 
L 28.515625 63.921875 
L 10.984375 60.40625 
L 10.984375 69.390625 
L 28.421875 72.90625 
L 38.28125 72.90625 
L 38.28125 8.296875 
L 54.390625 8.296875 
L 54.390625 0 
L 12.40625 0 
z
" id="DejaVuSans-49"/>
       </defs>
       <use xlink:href="#DejaVuSans-65"/>
       <use x="66.658203" xlink:href="#DejaVuSans-71"/>
       <use x="144.148438" xlink:href="#DejaVuSans-49"/>
      </g>
     </g>
    </g>
    <g id="xtick_2">
     <g id="line2d_2">
      <g>
       <use style="stroke:#000000;stroke-width:0.8;" x="106.631405" xlink:href="#m97c7518528" y="235.4"/>
      </g>
     </g>
     <g id="text_2">
      <!-- AG11 -->
      <g transform="translate(95.77578 248.47875)scale(0.08 -0.08)">
       <use xlink:href="#DejaVuSans-65"/>
       <use x="66.658203" xlink:href="#DejaVuSans-71"/>
       <use x="144.148438" xlink:href="#DejaVuSans-49"/>
       <use x="207.771484" xlink:href="#DejaVuSans-49"/>
      </g>
     </g>
    </g>
    <g id="xtick_3">
     <g id="line2d_3">
      <g>
       <use style="stroke:#000000;stroke-width:0.8;" x="133.408264" xlink:href="#m97c7518528" y="235.4"/>
      </g>
     </g>
     <g id="text_3">
      <!-- AG2 -->
      <g transform="translate(125.097639 248.47875)scale(0.08 -0.08)">
       <defs>
        <path d="M 19.1875 8.296875 
L 53.609375 8.296875 
L 53.609375 0 
L 7.328125 0 
L 7.328125 8.296875 
Q 12.9375 14.109375 22.625 23.890625 
Q 32.328125 33.6875 34.8125 36.53125 
Q 39.546875 41.84375 41.421875 45.53125 
Q 43.3125 49.21875 43.3125 52.78125 
Q 43.3125 58.59375 39.234375 62.25 
Q 35.15625 65.921875 28.609375 65.921875 
Q 23.96875 65.921875 18.8125 64.3125 
Q 13.671875 62.703125 7.8125 59.421875 
L 7.8125 69.390625 
Q 13.765625 71.78125 18.9375 73 
Q 24.125 74.21875 28.421875 74.21875 
Q 39.75 74.21875 46.484375 68.546875 
Q 53.21875 62.890625 53.21875 53.421875 
Q 53.21875 48.921875 51.53125 44.890625 
Q 49.859375 40.875 45.40625 35.40625 
Q 44.1875 33.984375 37.640625 27.21875 
Q 31.109375 20.453125 19.1875 8.296875 
z
" id="DejaVuSans-50"/>
       </defs>
       <use xlink:href="#DejaVuSans-65"/>
       <use x="66.658203" xlink:href="#DejaVuSans-71"/>
       <use x="144.148438" xlink:href="#DejaVuSans-50"/>
      </g>
     </g>
    </g>
    <g id="xtick_4">
     <g id="line2d_4">
      <g>
       <use style="stroke:#000000;stroke-width:0.8;" x="160.185124" xlink:href="#m97c7518528" y="235.4"/>
      </g>
     </g>
     <g id="text_4">
      <!-- AG4 -->
      <g transform="translate(151.874499 248.47875)scale(0.08 -0.08)">
       <defs>
        <path d="M 37.796875 64.3125 
L 12.890625 25.390625 
L 37.796875 25.390625 
z
M 35.203125 72.90625 
L 47.609375 72.90625 
L 47.609375 25.390625 
L 58.015625 25.390625 
L 58.015625 17.1875 
L 47.609375 17.1875 
L 47.609375 0 
L 37.796875 0 
L 37.796875 17.1875 
L 4.890625 17.1875 
L 4.890625 26.703125 
z
" id="DejaVuSans-52"/>
       </defs>
       <use xlink:href="#DejaVuSans-65"/>
       <use x="66.658203" xlink:href="#DejaVuSans-71"/>
       <use x="144.148438" xlink:href="#DejaVuSans-52"/>
      </g>
     </g>
    </g>
    <g id="xtick_5">
     <g id="line2d_5">
      <g>
       <use style="stroke:#000000;stroke-width:0.8;" x="186.961983" xlink:href="#m97c7518528" y="235.4"/>
      </g>
     </g>
     <g id="text_5">
      <!-- AG5 -->
      <g transform="translate(178.651358 248.47875)scale(0.08 -0.08)">
       <defs>
        <path d="M 10.796875 72.90625 
L 49.515625 72.90625 
L 49.515625 64.59375 
L 19.828125 64.59375 
L 19.828125 46.734375 
Q 21.96875 47.46875 24.109375 47.828125 
Q 26.265625 48.1875 28.421875 48.1875 
Q 40.625 48.1875 47.75 41.5 
Q 54.890625 34.8125 54.890625 23.390625 
Q 54.890625 11.625 47.5625 5.09375 
Q 40.234375 -1.421875 26.90625 -1.421875 
Q 22.3125 -1.421875 17.546875 -0.640625 
Q 12.796875 0.140625 7.71875 1.703125 
L 7.71875 11.625 
Q 12.109375 9.234375 16.796875 8.0625 
Q 21.484375 6.890625 26.703125 6.890625 
Q 35.15625 6.890625 40.078125 11.328125 
Q 45.015625 15.765625 45.015625 23.390625 
Q 45.015625 31 40.078125 35.4375 
Q 35.15625 39.890625 26.703125 39.890625 
Q 22.75 39.890625 18.8125 39.015625 
Q 14.890625 38.140625 10.796875 36.28125 
z
" id="DejaVuSans-53"/>
       </defs>
       <use xlink:href="#DejaVuSans-65"/>
       <use x="66.658203" xlink:href="#DejaVuSans-71"/>
       <use x="144.148438" xlink:href="#DejaVuSans-53"/>
      </g>
     </g>
    </g>
    <g id="xtick_6">
     <g id="line2d_6">
      <g>
       <use style="stroke:#000000;stroke-width:0.8;" x="213.738843" xlink:href="#m97c7518528" y="235.4"/>
      </g>
     </g>
     <g id="text_6">
      <!-- AG6 -->
      <g transform="translate(205.428218 248.47875)scale(0.08 -0.08)">
       <defs>
        <path d="M 33.015625 40.375 
Q 26.375 40.375 22.484375 35.828125 
Q 18.609375 31.296875 18.609375 23.390625 
Q 18.609375 15.53125 22.484375 10.953125 
Q 26.375 6.390625 33.015625 6.390625 
Q 39.65625 6.390625 43.53125 10.953125 
Q 47.40625 15.53125 47.40625 23.390625 
Q 47.40625 31.296875 43.53125 35.828125 
Q 39.65625 40.375 33.015625 40.375 
z
M 52.59375 71.296875 
L 52.59375 62.3125 
Q 48.875 64.0625 45.09375 64.984375 
Q 41.3125 65.921875 37.59375 65.921875 
Q 27.828125 65.921875 22.671875 59.328125 
Q 17.53125 52.734375 16.796875 39.40625 
Q 19.671875 43.65625 24.015625 45.921875 
Q 28.375 48.1875 33.59375 48.1875 
Q 44.578125 48.1875 50.953125 41.515625 
Q 57.328125 34.859375 57.328125 23.390625 
Q 57.328125 12.15625 50.6875 5.359375 
Q 44.046875 -1.421875 33.015625 -1.421875 
Q 20.359375 -1.421875 13.671875 8.265625 
Q 6.984375 17.96875 6.984375 36.375 
Q 6.984375 53.65625 15.1875 63.9375 
Q 23.390625 74.21875 37.203125 74.21875 
Q 40.921875 74.21875 44.703125 73.484375 
Q 48.484375 72.75 52.59375 71.296875 
z
" id="DejaVuSans-54"/>
       </defs>
       <use xlink:href="#DejaVuSans-65"/>
       <use x="66.658203" xlink:href="#DejaVuSans-71"/>
       <use x="144.148438" xlink:href="#DejaVuSans-54"/>
      </g>
     </g>
    </g>
    <g id="xtick_7">
     <g id="line2d_7">
      <g>
       <use style="stroke:#000000;stroke-width:0.8;" x="240.515702" xlink:href="#m97c7518528" y="235.4"/>
      </g>
     </g>
     <g id="text_7">
      <!-- AG7 -->
      <g transform="translate(232.205077 248.47875)scale(0.08 -0.08)">
       <defs>
        <path d="M 8.203125 72.90625 
L 55.078125 72.90625 
L 55.078125 68.703125 
L 28.609375 0 
L 18.3125 0 
L 43.21875 64.59375 
L 8.203125 64.59375 
z
" id="DejaVuSans-55"/>
       </defs>
       <use xlink:href="#DejaVuSans-65"/>
       <use x="66.658203" xlink:href="#DejaVuSans-71"/>
       <use x="144.148438" xlink:href="#DejaVuSans-55"/>
      </g>
     </g>
    </g>
    <g id="xtick_8">
     <g id="line2d_8">
      <g>
       <use style="stroke:#000000;stroke-width:0.8;" x="267.292562" xlink:href="#m97c7518528" y="235.4"/>
      </g>
     </g>
     <g id="text_8">
      <!-- AG8 -->
      <g transform="translate(258.981937 248.47875)scale(0.08 -0.08)">
       <defs>
        <path d="M 31.78125 34.625 
Q 24.75 34.625 20.71875 30.859375 
Q 16.703125 27.09375 16.703125 20.515625 
Q 16.703125 13.921875 20.71875 10.15625 
Q 24.75 6.390625 31.78125 6.390625 
Q 38.8125 6.390625 42.859375 10.171875 
Q 46.921875 13.96875 46.921875 20.515625 
Q 46.921875 27.09375 42.890625 30.859375 
Q 38.875 34.625 31.78125 34.625 
z
M 21.921875 38.8125 
Q 15.578125 40.375 12.03125 44.71875 
Q 8.5 49.078125 8.5 55.328125 
Q 8.5 64.0625 14.71875 69.140625 
Q 20.953125 74.21875 31.78125 74.21875 
Q 42.671875 74.21875 48.875 69.140625 
Q 55.078125 64.0625 55.078125 55.328125 
Q 55.078125 49.078125 51.53125 44.71875 
Q 48 40.375 41.703125 38.8125 
Q 48.828125 37.15625 52.796875 32.3125 
Q 56.78125 27.484375 56.78125 20.515625 
Q 56.78125 9.90625 50.3125 4.234375 
Q 43.84375 -1.421875 31.78125 -1.421875 
Q 19.734375 -1.421875 13.25 4.234375 
Q 6.78125 9.90625 6.78125 20.515625 
Q 6.78125 27.484375 10.78125 32.3125 
Q 14.796875 37.15625 21.921875 38.8125 
z
M 18.3125 54.390625 
Q 18.3125 48.734375 21.84375 45.5625 
Q 25.390625 42.390625 31.78125 42.390625 
Q 38.140625 42.390625 41.71875 45.5625 
Q 45.3125 48.734375 45.3125 54.390625 
Q 45.3125 60.0625 41.71875 63.234375 
Q 38.140625 66.40625 31.78125 66.40625 
Q 25.390625 66.40625 21.84375 63.234375 
Q 18.3125 60.0625 18.3125 54.390625 
z
" id="DejaVuSans-56"/>
       </defs>
       <use xlink:href="#DejaVuSans-65"/>
       <use x="66.658203" xlink:href="#DejaVuSans-71"/>
       <use x="144.148438" xlink:href="#DejaVuSans-56"/>
      </g>
     </g>
    </g>
    <g id="xtick_9">
     <g id="line2d_9">
      <g>
       <use style="stroke:#000000;stroke-width:0.8;" x="294.069421" xlink:href="#m97c7518528" y="235.4"/>
      </g>
     </g>
     <g id="text_9">
      <!-- AG9 -->
      <g transform="translate(285.758796 248.47875)scale(0.08 -0.08)">
       <defs>
        <path d="M 10.984375 1.515625 
L 10.984375 10.5 
Q 14.703125 8.734375 18.5 7.8125 
Q 22.3125 6.890625 25.984375 6.890625 
Q 35.75 6.890625 40.890625 13.453125 
Q 46.046875 20.015625 46.78125 33.40625 
Q 43.953125 29.203125 39.59375 26.953125 
Q 35.25 24.703125 29.984375 24.703125 
Q 19.046875 24.703125 12.671875 31.3125 
Q 6.296875 37.9375 6.296875 49.421875 
Q 6.296875 60.640625 12.9375 67.421875 
Q 19.578125 74.21875 30.609375 74.21875 
Q 43.265625 74.21875 49.921875 64.515625 
Q 56.59375 54.828125 56.59375 36.375 
Q 56.59375 19.140625 48.40625 8.859375 
Q 40.234375 -1.421875 26.421875 -1.421875 
Q 22.703125 -1.421875 18.890625 -0.6875 
Q 15.09375 0.046875 10.984375 1.515625 
z
M 30.609375 32.421875 
Q 37.25 32.421875 41.125 36.953125 
Q 45.015625 41.5 45.015625 49.421875 
Q 45.015625 57.28125 41.125 61.84375 
Q 37.25 66.40625 30.609375 66.40625 
Q 23.96875 66.40625 20.09375 61.84375 
Q 16.21875 57.28125 16.21875 49.421875 
Q 16.21875 41.5 20.09375 36.953125 
Q 23.96875 32.421875 30.609375 32.421875 
z
" id="DejaVuSans-57"/>
       </defs>
       <use xlink:href="#DejaVuSans-65"/>
       <use x="66.658203" xlink:href="#DejaVuSans-71"/>
       <use x="144.148438" xlink:href="#DejaVuSans-57"/>
      </g>
     </g>
    </g>
    <g id="xtick_10">
     <g id="line2d_10">
      <g>
       <use style="stroke:#000000;stroke-width:0.8;" x="320.846281" xlink:href="#m97c7518528" y="235.4"/>
      </g>
     </g>
     <g id="text_10">
      <!-- AJ1 -->
      <g transform="translate(314.385031 248.47875)scale(0.08 -0.08)">
       <defs>
        <path d="M 9.8125 72.90625 
L 19.671875 72.90625 
L 19.671875 5.078125 
Q 19.671875 -8.109375 14.671875 -14.0625 
Q 9.671875 -20.015625 -1.421875 -20.015625 
L -5.171875 -20.015625 
L -5.171875 -11.71875 
L -2.09375 -11.71875 
Q 4.4375 -11.71875 7.125 -8.046875 
Q 9.8125 -4.390625 9.8125 5.078125 
z
" id="DejaVuSans-74"/>
       </defs>
       <use xlink:href="#DejaVuSans-65"/>
       <use x="68.408203" xlink:href="#DejaVuSans-74"/>
       <use x="97.900391" xlink:href="#DejaVuSans-49"/>
      </g>
     </g>
    </g>
    <g id="xtick_11">
     <g id="line2d_11">
      <g>
       <use style="stroke:#000000;stroke-width:0.8;" x="347.62314" xlink:href="#m97c7518528" y="235.4"/>
      </g>
     </g>
     <g id="text_11">
      <!-- AJ10 -->
      <g transform="translate(338.61689 248.47875)scale(0.08 -0.08)">
       <defs>
        <path d="M 31.78125 66.40625 
Q 24.171875 66.40625 20.328125 58.90625 
Q 16.5 51.421875 16.5 36.375 
Q 16.5 21.390625 20.328125 13.890625 
Q 24.171875 6.390625 31.78125 6.390625 
Q 39.453125 6.390625 43.28125 13.890625 
Q 47.125 21.390625 47.125 36.375 
Q 47.125 51.421875 43.28125 58.90625 
Q 39.453125 66.40625 31.78125 66.40625 
z
M 31.78125 74.21875 
Q 44.046875 74.21875 50.515625 64.515625 
Q 56.984375 54.828125 56.984375 36.375 
Q 56.984375 17.96875 50.515625 8.265625 
Q 44.046875 -1.421875 31.78125 -1.421875 
Q 19.53125 -1.421875 13.0625 8.265625 
Q 6.59375 17.96875 6.59375 36.375 
Q 6.59375 54.828125 13.0625 64.515625 
Q 19.53125 74.21875 31.78125 74.21875 
z
" id="DejaVuSans-48"/>
       </defs>
       <use xlink:href="#DejaVuSans-65"/>
       <use x="68.408203" xlink:href="#DejaVuSans-74"/>
       <use x="97.900391" xlink:href="#DejaVuSans-49"/>
       <use x="161.523438" xlink:href="#DejaVuSans-48"/>
      </g>
     </g>
    </g>
    <g id="xtick_12">
     <g id="line2d_12">
      <g>
       <use style="stroke:#000000;stroke-width:0.8;" x="374.4" xlink:href="#m97c7518528" y="235.4"/>
      </g>
     </g>
     <g id="text_12">
      <!-- AJ12 -->
      <g transform="translate(365.39375 248.47875)scale(0.08 -0.08)">
       <use xlink:href="#DejaVuSans-65"/>
       <use x="68.408203" xlink:href="#DejaVuSans-74"/>
       <use x="97.900391" xlink:href="#DejaVuSans-49"/>
       <use x="161.523438" xlink:href="#DejaVuSans-50"/>
      </g>
     </g>
    </g>
    <g id="xtick_13">
     <g id="line2d_13">
      <g>
       <use style="stroke:#000000;stroke-width:0.8;" x="401.17686" xlink:href="#m97c7518528" y="235.4"/>
      </g>
     </g>
     <g id="text_13">
      <!-- AJ4 -->
      <g transform="translate(394.71561 248.47875)scale(0.08 -0.08)">
       <use xlink:href="#DejaVuSans-65"/>
       <use x="68.408203" xlink:href="#DejaVuSans-74"/>
       <use x="97.900391" xlink:href="#DejaVuSans-52"/>
      </g>
     </g>
    </g>
    <g id="xtick_14">
     <g id="line2d_14">
      <g>
       <use style="stroke:#000000;stroke-width:0.8;" x="427.953719" xlink:href="#m97c7518528" y="235.4"/>
      </g>
     </g>
     <g id="text_14">
      <!-- AJ5 -->
      <g transform="translate(421.492469 248.47875)scale(0.08 -0.08)">
       <use xlink:href="#DejaVuSans-65"/>
       <use x="68.408203" xlink:href="#DejaVuSans-74"/>
       <use x="97.900391" xlink:href="#DejaVuSans-53"/>
      </g>
     </g>
    </g>
    <g id="xtick_15">
     <g id="line2d_15">
      <g>
       <use style="stroke:#000000;stroke-width:0.8;" x="454.730579" xlink:href="#m97c7518528" y="235.4"/>
      </g>
     </g>
     <g id="text_15">
      <!-- AJ6 -->
      <g transform="translate(448.269329 248.47875)scale(0.08 -0.08)">
       <use xlink:href="#DejaVuSans-65"/>
       <use x="68.408203" xlink:href="#DejaVuSans-74"/>
       <use x="97.900391" xlink:href="#DejaVuSans-54"/>
      </g>
     </g>
    </g>
    <g id="xtick_16">
     <g id="line2d_16">
      <g>
       <use style="stroke:#000000;stroke-width:0.8;" x="481.507438" xlink:href="#m97c7518528" y="235.4"/>
      </g>
     </g>
     <g id="text_16">
      <!-- AJ7 -->
      <g transform="translate(475.046188 248.47875)scale(0.08 -0.08)">
       <use xlink:href="#DejaVuSans-65"/>
       <use x="68.408203" xlink:href="#DejaVuSans-74"/>
       <use x="97.900391" xlink:href="#DejaVuSans-55"/>
      </g>
     </g>
    </g>
    <g id="xtick_17">
     <g id="line2d_17">
      <g>
       <use style="stroke:#000000;stroke-width:0.8;" x="508.284298" xlink:href="#m97c7518528" y="235.4"/>
      </g>
     </g>
     <g id="text_17">
      <!-- AJ8 -->
      <g transform="translate(501.823048 248.47875)scale(0.08 -0.08)">
       <use xlink:href="#DejaVuSans-65"/>
       <use x="68.408203" xlink:href="#DejaVuSans-74"/>
       <use x="97.900391" xlink:href="#DejaVuSans-56"/>
      </g>
     </g>
    </g>
    <g id="xtick_18">
     <g id="line2d_18">
      <g>
       <use style="stroke:#000000;stroke-width:0.8;" x="535.061157" xlink:href="#m97c7518528" y="235.4"/>
      </g>
     </g>
     <g id="text_18">
      <!-- AJ9 -->
      <g transform="translate(528.599907 248.47875)scale(0.08 -0.08)">
       <use xlink:href="#DejaVuSans-65"/>
       <use x="68.408203" xlink:href="#DejaVuSans-74"/>
       <use x="97.900391" xlink:href="#DejaVuSans-57"/>
      </g>
     </g>
    </g>
    <g id="xtick_19">
     <g id="line2d_19">
      <g>
       <use style="stroke:#000000;stroke-width:0.8;" x="561.838017" xlink:href="#m97c7518528" y="235.4"/>
      </g>
     </g>
     <g id="text_19">
      <!-- AN1 -->
      <g transform="translate(553.564267 248.47875)scale(0.08 -0.08)">
       <defs>
        <path d="M 9.8125 72.90625 
L 23.09375 72.90625 
L 55.421875 11.921875 
L 55.421875 72.90625 
L 64.984375 72.90625 
L 64.984375 0 
L 51.703125 0 
L 19.390625 60.984375 
L 19.390625 0 
L 9.8125 0 
z
" id="DejaVuSans-78"/>
       </defs>
       <use xlink:href="#DejaVuSans-65"/>
       <use x="68.408203" xlink:href="#DejaVuSans-78"/>
       <use x="143.212891" xlink:href="#DejaVuSans-49"/>
      </g>
     </g>
    </g>
    <g id="xtick_20">
     <g id="line2d_20">
      <g>
       <use style="stroke:#000000;stroke-width:0.8;" x="588.614876" xlink:href="#m97c7518528" y="235.4"/>
      </g>
     </g>
     <g id="text_20">
      <!-- AN4 -->
      <g transform="translate(580.341126 248.47875)scale(0.08 -0.08)">
       <use xlink:href="#DejaVuSans-65"/>
       <use x="68.408203" xlink:href="#DejaVuSans-78"/>
       <use x="143.212891" xlink:href="#DejaVuSans-52"/>
      </g>
     </g>
    </g>
    <g id="xtick_21">
     <g id="line2d_21">
      <g>
       <use style="stroke:#000000;stroke-width:0.8;" x="615.391736" xlink:href="#m97c7518528" y="235.4"/>
      </g>
     </g>
     <g id="text_21">
      <!-- AN6 -->
      <g transform="translate(607.117986 248.47875)scale(0.08 -0.08)">
       <use xlink:href="#DejaVuSans-65"/>
       <use x="68.408203" xlink:href="#DejaVuSans-78"/>
       <use x="143.212891" xlink:href="#DejaVuSans-54"/>
      </g>
     </g>
    </g>
    <g id="xtick_22">
     <g id="line2d_22">
      <g>
       <use style="stroke:#000000;stroke-width:0.8;" x="642.168595" xlink:href="#m97c7518528" y="235.4"/>
      </g>
     </g>
     <g id="text_22">
      <!-- AN7 -->
      <g transform="translate(633.894845 248.47875)scale(0.08 -0.08)">
       <use xlink:href="#DejaVuSans-65"/>
       <use x="68.408203" xlink:href="#DejaVuSans-78"/>
       <use x="143.212891" xlink:href="#DejaVuSans-55"/>
      </g>
     </g>
    </g>
    <g id="xtick_23">
     <g id="line2d_23">
      <g>
       <use style="stroke:#000000;stroke-width:0.8;" x="668.945455" xlink:href="#m97c7518528" y="235.4"/>
      </g>
     </g>
     <g id="text_23">
      <!-- AN8 -->
      <g transform="translate(660.671705 248.47875)scale(0.08 -0.08)">
       <use xlink:href="#DejaVuSans-65"/>
       <use x="68.408203" xlink:href="#DejaVuSans-78"/>
       <use x="143.212891" xlink:href="#DejaVuSans-56"/>
      </g>
     </g>
    </g>
    <g id="text_24">
     <!-- animalid -->
     <g transform="translate(348.589687 263.260625)scale(0.12 -0.12)">
      <defs>
       <path d="M 34.28125 27.484375 
Q 23.390625 27.484375 19.1875 25 
Q 14.984375 22.515625 14.984375 16.5 
Q 14.984375 11.71875 18.140625 8.90625 
Q 21.296875 6.109375 26.703125 6.109375 
Q 34.1875 6.109375 38.703125 11.40625 
Q 43.21875 16.703125 43.21875 25.484375 
L 43.21875 27.484375 
z
M 52.203125 31.203125 
L 52.203125 0 
L 43.21875 0 
L 43.21875 8.296875 
Q 40.140625 3.328125 35.546875 0.953125 
Q 30.953125 -1.421875 24.3125 -1.421875 
Q 15.921875 -1.421875 10.953125 3.296875 
Q 6 8.015625 6 15.921875 
Q 6 25.140625 12.171875 29.828125 
Q 18.359375 34.515625 30.609375 34.515625 
L 43.21875 34.515625 
L 43.21875 35.40625 
Q 43.21875 41.609375 39.140625 45 
Q 35.0625 48.390625 27.6875 48.390625 
Q 23 48.390625 18.546875 47.265625 
Q 14.109375 46.140625 10.015625 43.890625 
L 10.015625 52.203125 
Q 14.9375 54.109375 19.578125 55.046875 
Q 24.21875 56 28.609375 56 
Q 40.484375 56 46.34375 49.84375 
Q 52.203125 43.703125 52.203125 31.203125 
z
" id="DejaVuSans-97"/>
       <path d="M 54.890625 33.015625 
L 54.890625 0 
L 45.90625 0 
L 45.90625 32.71875 
Q 45.90625 40.484375 42.875 44.328125 
Q 39.84375 48.1875 33.796875 48.1875 
Q 26.515625 48.1875 22.3125 43.546875 
Q 18.109375 38.921875 18.109375 30.90625 
L 18.109375 0 
L 9.078125 0 
L 9.078125 54.6875 
L 18.109375 54.6875 
L 18.109375 46.1875 
Q 21.34375 51.125 25.703125 53.5625 
Q 30.078125 56 35.796875 56 
Q 45.21875 56 50.046875 50.171875 
Q 54.890625 44.34375 54.890625 33.015625 
z
" id="DejaVuSans-110"/>
       <path d="M 9.421875 54.6875 
L 18.40625 54.6875 
L 18.40625 0 
L 9.421875 0 
z
M 9.421875 75.984375 
L 18.40625 75.984375 
L 18.40625 64.59375 
L 9.421875 64.59375 
z
" id="DejaVuSans-105"/>
       <path d="M 52 44.1875 
Q 55.375 50.25 60.0625 53.125 
Q 64.75 56 71.09375 56 
Q 79.640625 56 84.28125 50.015625 
Q 88.921875 44.046875 88.921875 33.015625 
L 88.921875 0 
L 79.890625 0 
L 79.890625 32.71875 
Q 79.890625 40.578125 77.09375 44.375 
Q 74.3125 48.1875 68.609375 48.1875 
Q 61.625 48.1875 57.5625 43.546875 
Q 53.515625 38.921875 53.515625 30.90625 
L 53.515625 0 
L 44.484375 0 
L 44.484375 32.71875 
Q 44.484375 40.625 41.703125 44.40625 
Q 38.921875 48.1875 33.109375 48.1875 
Q 26.21875 48.1875 22.15625 43.53125 
Q 18.109375 38.875 18.109375 30.90625 
L 18.109375 0 
L 9.078125 0 
L 9.078125 54.6875 
L 18.109375 54.6875 
L 18.109375 46.1875 
Q 21.1875 51.21875 25.484375 53.609375 
Q 29.78125 56 35.6875 56 
Q 41.65625 56 45.828125 52.96875 
Q 50 49.953125 52 44.1875 
z
" id="DejaVuSans-109"/>
       <path d="M 9.421875 75.984375 
L 18.40625 75.984375 
L 18.40625 0 
L 9.421875 0 
z
" id="DejaVuSans-108"/>
       <path d="M 45.40625 46.390625 
L 45.40625 75.984375 
L 54.390625 75.984375 
L 54.390625 0 
L 45.40625 0 
L 45.40625 8.203125 
Q 42.578125 3.328125 38.25 0.953125 
Q 33.9375 -1.421875 27.875 -1.421875 
Q 17.96875 -1.421875 11.734375 6.484375 
Q 5.515625 14.40625 5.515625 27.296875 
Q 5.515625 40.1875 11.734375 48.09375 
Q 17.96875 56 27.875 56 
Q 33.9375 56 38.25 53.625 
Q 42.578125 51.265625 45.40625 46.390625 
z
M 14.796875 27.296875 
Q 14.796875 17.390625 18.875 11.75 
Q 22.953125 6.109375 30.078125 6.109375 
Q 37.203125 6.109375 41.296875 11.75 
Q 45.40625 17.390625 45.40625 27.296875 
Q 45.40625 37.203125 41.296875 42.84375 
Q 37.203125 48.484375 30.078125 48.484375 
Q 22.953125 48.484375 18.875 42.84375 
Q 14.796875 37.203125 14.796875 27.296875 
z
" id="DejaVuSans-100"/>
      </defs>
      <use xlink:href="#DejaVuSans-97"/>
      <use x="61.279297" xlink:href="#DejaVuSans-110"/>
      <use x="124.658203" xlink:href="#DejaVuSans-105"/>
      <use x="152.441406" xlink:href="#DejaVuSans-109"/>
      <use x="249.853516" xlink:href="#DejaVuSans-97"/>
      <use x="311.132812" xlink:href="#DejaVuSans-108"/>
      <use x="338.916016" xlink:href="#DejaVuSans-105"/>
      <use x="366.699219" xlink:href="#DejaVuSans-100"/>
     </g>
    </g>
   </g>
   <g id="matplotlib.axis_2">
    <g id="ytick_1">
     <g id="line2d_24">
      <defs>
       <path d="M 0 0 
L -3.5 0 
" id="m1adad58d47" style="stroke:#000000;stroke-width:0.8;"/>
      </defs>
      <g>
       <use style="stroke:#000000;stroke-width:0.8;" x="45.4" xlink:href="#m1adad58d47" y="230.4"/>
      </g>
     </g>
     <g id="text_25">
      <!-- 0.0 -->
      <g transform="translate(25.6775 233.439375)scale(0.08 -0.08)">
       <defs>
        <path d="M 10.6875 12.40625 
L 21 12.40625 
L 21 0 
L 10.6875 0 
z
" id="DejaVuSans-46"/>
       </defs>
       <use xlink:href="#DejaVuSans-48"/>
       <use x="63.623047" xlink:href="#DejaVuSans-46"/>
       <use x="95.410156" xlink:href="#DejaVuSans-48"/>
      </g>
     </g>
    </g>
    <g id="ytick_2">
     <g id="line2d_25">
      <g>
       <use style="stroke:#000000;stroke-width:0.8;" x="45.4" xlink:href="#m1adad58d47" y="195.84"/>
      </g>
     </g>
     <g id="text_26">
      <!-- 0.2 -->
      <g transform="translate(25.6775 198.879375)scale(0.08 -0.08)">
       <use xlink:href="#DejaVuSans-48"/>
       <use x="63.623047" xlink:href="#DejaVuSans-46"/>
       <use x="95.410156" xlink:href="#DejaVuSans-50"/>
      </g>
     </g>
    </g>
    <g id="ytick_3">
     <g id="line2d_26">
      <g>
       <use style="stroke:#000000;stroke-width:0.8;" x="45.4" xlink:href="#m1adad58d47" y="161.28"/>
      </g>
     </g>
     <g id="text_27">
      <!-- 0.4 -->
      <g transform="translate(25.6775 164.319375)scale(0.08 -0.08)">
       <use xlink:href="#DejaVuSans-48"/>
       <use x="63.623047" xlink:href="#DejaVuSans-46"/>
       <use x="95.410156" xlink:href="#DejaVuSans-52"/>
      </g>
     </g>
    </g>
    <g id="ytick_4">
     <g id="line2d_27">
      <g>
       <use style="stroke:#000000;stroke-width:0.8;" x="45.4" xlink:href="#m1adad58d47" y="126.72"/>
      </g>
     </g>
     <g id="text_28">
      <!-- 0.6 -->
      <g transform="translate(25.6775 129.759375)scale(0.08 -0.08)">
       <use xlink:href="#DejaVuSans-48"/>
       <use x="63.623047" xlink:href="#DejaVuSans-46"/>
       <use x="95.410156" xlink:href="#DejaVuSans-54"/>
      </g>
     </g>
    </g>
    <g id="ytick_5">
     <g id="line2d_28">
      <g>
       <use style="stroke:#000000;stroke-width:0.8;" x="45.4" xlink:href="#m1adad58d47" y="92.16"/>
      </g>
     </g>
     <g id="text_29">
      <!-- 0.8 -->
      <g transform="translate(25.6775 95.199375)scale(0.08 -0.08)">
       <use xlink:href="#DejaVuSans-48"/>
       <use x="63.623047" xlink:href="#DejaVuSans-46"/>
       <use x="95.410156" xlink:href="#DejaVuSans-56"/>
      </g>
     </g>
    </g>
    <g id="ytick_6">
     <g id="line2d_29">
      <g>
       <use style="stroke:#000000;stroke-width:0.8;" x="45.4" xlink:href="#m1adad58d47" y="57.6"/>
      </g>
     </g>
     <g id="text_30">
      <!-- 1.0 -->
      <g transform="translate(25.6775 60.639375)scale(0.08 -0.08)">
       <use xlink:href="#DejaVuSans-49"/>
       <use x="63.623047" xlink:href="#DejaVuSans-46"/>
       <use x="95.410156" xlink:href="#DejaVuSans-48"/>
      </g>
     </g>
    </g>
    <g id="text_31">
     <!-- accuracy -->
     <g transform="translate(19.181875 171.07125)rotate(-90)scale(0.12 -0.12)">
      <defs>
       <path d="M 48.78125 52.59375 
L 48.78125 44.1875 
Q 44.96875 46.296875 41.140625 47.34375 
Q 37.3125 48.390625 33.40625 48.390625 
Q 24.65625 48.390625 19.8125 42.84375 
Q 14.984375 37.3125 14.984375 27.296875 
Q 14.984375 17.28125 19.8125 11.734375 
Q 24.65625 6.203125 33.40625 6.203125 
Q 37.3125 6.203125 41.140625 7.25 
Q 44.96875 8.296875 48.78125 10.40625 
L 48.78125 2.09375 
Q 45.015625 0.34375 40.984375 -0.53125 
Q 36.96875 -1.421875 32.421875 -1.421875 
Q 20.0625 -1.421875 12.78125 6.34375 
Q 5.515625 14.109375 5.515625 27.296875 
Q 5.515625 40.671875 12.859375 48.328125 
Q 20.21875 56 33.015625 56 
Q 37.15625 56 41.109375 55.140625 
Q 45.0625 54.296875 48.78125 52.59375 
z
" id="DejaVuSans-99"/>
       <path d="M 8.5 21.578125 
L 8.5 54.6875 
L 17.484375 54.6875 
L 17.484375 21.921875 
Q 17.484375 14.15625 20.5 10.265625 
Q 23.53125 6.390625 29.59375 6.390625 
Q 36.859375 6.390625 41.078125 11.03125 
Q 45.3125 15.671875 45.3125 23.6875 
L 45.3125 54.6875 
L 54.296875 54.6875 
L 54.296875 0 
L 45.3125 0 
L 45.3125 8.40625 
Q 42.046875 3.421875 37.71875 1 
Q 33.40625 -1.421875 27.6875 -1.421875 
Q 18.265625 -1.421875 13.375 4.4375 
Q 8.5 10.296875 8.5 21.578125 
z
M 31.109375 56 
z
" id="DejaVuSans-117"/>
       <path d="M 41.109375 46.296875 
Q 39.59375 47.171875 37.8125 47.578125 
Q 36.03125 48 33.890625 48 
Q 26.265625 48 22.1875 43.046875 
Q 18.109375 38.09375 18.109375 28.8125 
L 18.109375 0 
L 9.078125 0 
L 9.078125 54.6875 
L 18.109375 54.6875 
L 18.109375 46.1875 
Q 20.953125 51.171875 25.484375 53.578125 
Q 30.03125 56 36.53125 56 
Q 37.453125 56 38.578125 55.875 
Q 39.703125 55.765625 41.0625 55.515625 
z
" id="DejaVuSans-114"/>
       <path d="M 32.171875 -5.078125 
Q 28.375 -14.84375 24.75 -17.8125 
Q 21.140625 -20.796875 15.09375 -20.796875 
L 7.90625 -20.796875 
L 7.90625 -13.28125 
L 13.1875 -13.28125 
Q 16.890625 -13.28125 18.9375 -11.515625 
Q 21 -9.765625 23.484375 -3.21875 
L 25.09375 0.875 
L 2.984375 54.6875 
L 12.5 54.6875 
L 29.59375 11.921875 
L 46.6875 54.6875 
L 56.203125 54.6875 
z
" id="DejaVuSans-121"/>
      </defs>
      <use xlink:href="#DejaVuSans-97"/>
      <use x="61.279297" xlink:href="#DejaVuSans-99"/>
      <use x="116.259766" xlink:href="#DejaVuSans-99"/>
      <use x="171.240234" xlink:href="#DejaVuSans-117"/>
      <use x="234.619141" xlink:href="#DejaVuSans-114"/>
      <use x="275.732422" xlink:href="#DejaVuSans-97"/>
      <use x="337.011719" xlink:href="#DejaVuSans-99"/>
      <use x="391.992188" xlink:href="#DejaVuSans-121"/>
     </g>
    </g>
   </g>
   <g id="LineCollection_1">
    <path clip-path="url(#p3dd01bb4a4)" d="M 79.854545 136.423334 
L 79.854545 70.298571 
" style="fill:none;stroke:#ff0000;stroke-linecap:square;stroke-width:1.5;"/>
    <path clip-path="url(#p3dd01bb4a4)" d="M 106.631405 148.998816 
L 106.631405 85.21299 
" style="fill:none;stroke:#ff0000;stroke-linecap:square;stroke-width:1.5;"/>
    <path clip-path="url(#p3dd01bb4a4)" d="M 133.408264 128.730617 
L 133.408264 53.944747 
" style="fill:none;stroke:#ff0000;stroke-linecap:square;stroke-width:1.5;"/>
    <path clip-path="url(#p3dd01bb4a4)" d="M 160.185124 109.018064 
L 160.185124 59.327625 
" style="fill:none;stroke:#ff0000;stroke-linecap:square;stroke-width:1.5;"/>
    <path clip-path="url(#p3dd01bb4a4)" d="M 186.961983 135.284506 
L 186.961983 66.22928 
" style="fill:none;stroke:#ff0000;stroke-linecap:square;stroke-width:1.5;"/>
    <path clip-path="url(#p3dd01bb4a4)" d="M 213.738843 125.26665 
L 213.738843 73.053575 
" style="fill:none;stroke:#ff0000;stroke-linecap:square;stroke-width:1.5;"/>
    <path clip-path="url(#p3dd01bb4a4)" d="M 240.515702 119.376748 
L 240.515702 56.30849 
" style="fill:none;stroke:#ff0000;stroke-linecap:square;stroke-width:1.5;"/>
    <path clip-path="url(#p3dd01bb4a4)" d="M 267.292562 147.218914 
L 267.292562 76.384938 
" style="fill:none;stroke:#ff0000;stroke-linecap:square;stroke-width:1.5;"/>
    <path clip-path="url(#p3dd01bb4a4)" d="M 294.069421 156.986312 
L 294.069421 76.557989 
" style="fill:none;stroke:#ff0000;stroke-linecap:square;stroke-width:1.5;"/>
    <path clip-path="url(#p3dd01bb4a4)" d="M 320.846281 167.519078 
L 320.846281 86.18879 
" style="fill:none;stroke:#ff0000;stroke-linecap:square;stroke-width:1.5;"/>
    <path clip-path="url(#p3dd01bb4a4)" d="M 401.17686 131.965997 
L 401.17686 59.154767 
" style="fill:none;stroke:#ff0000;stroke-linecap:square;stroke-width:1.5;"/>
    <path clip-path="url(#p3dd01bb4a4)" d="M 427.953719 139.404273 
L 427.953719 60.108434 
" style="fill:none;stroke:#ff0000;stroke-linecap:square;stroke-width:1.5;"/>
    <path clip-path="url(#p3dd01bb4a4)" d="M 454.730579 133.081965 
L 454.730579 58.298689 
" style="fill:none;stroke:#ff0000;stroke-linecap:square;stroke-width:1.5;"/>
    <path clip-path="url(#p3dd01bb4a4)" d="M 481.507438 120.760539 
L 481.507438 57.321545 
" style="fill:none;stroke:#ff0000;stroke-linecap:square;stroke-width:1.5;"/>
    <path clip-path="url(#p3dd01bb4a4)" d="M 508.284298 133.867624 
L 508.284298 70.934078 
" style="fill:none;stroke:#ff0000;stroke-linecap:square;stroke-width:1.5;"/>
    <path clip-path="url(#p3dd01bb4a4)" d="M 561.838017 67.578786 
L 561.838017 59.435393 
" style="fill:none;stroke:#ff0000;stroke-linecap:square;stroke-width:1.5;"/>
    <path clip-path="url(#p3dd01bb4a4)" d="M 615.391736 79.953863 
L 615.391736 76.928412 
" style="fill:none;stroke:#ff0000;stroke-linecap:square;stroke-width:1.5;"/>
   </g>
   <g id="LineCollection_2">
    <path clip-path="url(#p3dd01bb4a4)" d="M 347.62314 135.385698 
L 347.62314 71.033135 
" style="fill:none;stroke:#ff0000;stroke-linecap:square;stroke-width:1.5;"/>
    <path clip-path="url(#p3dd01bb4a4)" d="M 374.4 163.093041 
L 374.4 85.387805 
" style="fill:none;stroke:#ff0000;stroke-linecap:square;stroke-width:1.5;"/>
    <path clip-path="url(#p3dd01bb4a4)" d="M 535.061157 143.667565 
L 535.061157 61.841901 
" style="fill:none;stroke:#ff0000;stroke-linecap:square;stroke-width:1.5;"/>
    <path clip-path="url(#p3dd01bb4a4)" d="M 588.614876 109.89856 
L 588.614876 85.75861 
" style="fill:none;stroke:#ff0000;stroke-linecap:square;stroke-width:1.5;"/>
    <path clip-path="url(#p3dd01bb4a4)" d="M 642.168595 69.569919 
L 642.168595 64.05801 
" style="fill:none;stroke:#ff0000;stroke-linecap:square;stroke-width:1.5;"/>
    <path clip-path="url(#p3dd01bb4a4)" d="M 668.945455 100.74952 
L 668.945455 91.728855 
" style="fill:none;stroke:#ff0000;stroke-linecap:square;stroke-width:1.5;"/>
   </g>
   <g id="LineCollection_3">
    <path clip-path="url(#p3dd01bb4a4)" d="M 79.854545 119.158543 
L 79.854545 77.996328 
" style="fill:none;stroke:#0000ff;stroke-linecap:square;stroke-width:1.5;"/>
    <path clip-path="url(#p3dd01bb4a4)" d="M 106.631405 129.217957 
L 106.631405 80.644595 
" style="fill:none;stroke:#0000ff;stroke-linecap:square;stroke-width:1.5;"/>
    <path clip-path="url(#p3dd01bb4a4)" d="M 133.408264 102.09084 
L 133.408264 67.464473 
" style="fill:none;stroke:#0000ff;stroke-linecap:square;stroke-width:1.5;"/>
    <path clip-path="url(#p3dd01bb4a4)" d="M 160.185124 141.110853 
L 160.185124 82.722089 
" style="fill:none;stroke:#0000ff;stroke-linecap:square;stroke-width:1.5;"/>
    <path clip-path="url(#p3dd01bb4a4)" d="M 186.961983 111.286757 
L 186.961983 68.726944 
" style="fill:none;stroke:#0000ff;stroke-linecap:square;stroke-width:1.5;"/>
    <path clip-path="url(#p3dd01bb4a4)" d="M 213.738843 124.447884 
L 213.738843 76.652905 
" style="fill:none;stroke:#0000ff;stroke-linecap:square;stroke-width:1.5;"/>
    <path clip-path="url(#p3dd01bb4a4)" d="M 240.515702 106.657011 
L 240.515702 68.242903 
" style="fill:none;stroke:#0000ff;stroke-linecap:square;stroke-width:1.5;"/>
    <path clip-path="url(#p3dd01bb4a4)" d="M 267.292562 108.344225 
L 267.292562 70.933653 
" style="fill:none;stroke:#0000ff;stroke-linecap:square;stroke-width:1.5;"/>
    <path clip-path="url(#p3dd01bb4a4)" d="M 294.069421 127.244812 
L 294.069421 74.644407 
" style="fill:none;stroke:#0000ff;stroke-linecap:square;stroke-width:1.5;"/>
    <path clip-path="url(#p3dd01bb4a4)" d="M 320.846281 111.606472 
L 320.846281 67.266195 
" style="fill:none;stroke:#0000ff;stroke-linecap:square;stroke-width:1.5;"/>
    <path clip-path="url(#p3dd01bb4a4)" d="M 401.17686 115.692463 
L 401.17686 66.742202 
" style="fill:none;stroke:#0000ff;stroke-linecap:square;stroke-width:1.5;"/>
    <path clip-path="url(#p3dd01bb4a4)" d="M 427.953719 116.988237 
L 427.953719 58.974322 
" style="fill:none;stroke:#0000ff;stroke-linecap:square;stroke-width:1.5;"/>
    <path clip-path="url(#p3dd01bb4a4)" d="M 454.730579 116.037297 
L 454.730579 66.150118 
" style="fill:none;stroke:#0000ff;stroke-linecap:square;stroke-width:1.5;"/>
    <path clip-path="url(#p3dd01bb4a4)" d="M 481.507438 107.249909 
L 481.507438 64.243784 
" style="fill:none;stroke:#0000ff;stroke-linecap:square;stroke-width:1.5;"/>
    <path clip-path="url(#p3dd01bb4a4)" d="M 508.284298 109.308609 
L 508.284298 65.286733 
" style="fill:none;stroke:#0000ff;stroke-linecap:square;stroke-width:1.5;"/>
    <path clip-path="url(#p3dd01bb4a4)" d="M 561.838017 101.64677 
L 561.838017 82.711508 
" style="fill:none;stroke:#0000ff;stroke-linecap:square;stroke-width:1.5;"/>
    <path clip-path="url(#p3dd01bb4a4)" d="M 615.391736 79.409027 
L 615.391736 73.616266 
" style="fill:none;stroke:#0000ff;stroke-linecap:square;stroke-width:1.5;"/>
   </g>
   <g id="LineCollection_4">
    <path clip-path="url(#p3dd01bb4a4)" d="M 347.62314 155.619079 
L 347.62314 80.276733 
" style="fill:none;stroke:#0000ff;stroke-linecap:square;stroke-width:1.5;"/>
    <path clip-path="url(#p3dd01bb4a4)" d="M 374.4 121.522152 
L 374.4 71.532899 
" style="fill:none;stroke:#0000ff;stroke-linecap:square;stroke-width:1.5;"/>
    <path clip-path="url(#p3dd01bb4a4)" d="M 535.061157 107.300377 
L 535.061157 63.488165 
" style="fill:none;stroke:#0000ff;stroke-linecap:square;stroke-width:1.5;"/>
    <path clip-path="url(#p3dd01bb4a4)" d="M 588.614876 63.716602 
L 588.614876 58.230618 
" style="fill:none;stroke:#0000ff;stroke-linecap:square;stroke-width:1.5;"/>
    <path clip-path="url(#p3dd01bb4a4)" d="M 642.168595 83.418688 
L 642.168595 68.252085 
" style="fill:none;stroke:#0000ff;stroke-linecap:square;stroke-width:1.5;"/>
    <path clip-path="url(#p3dd01bb4a4)" d="M 668.945455 69.147376 
L 668.945455 63.289365 
" style="fill:none;stroke:#0000ff;stroke-linecap:square;stroke-width:1.5;"/>
   </g>
   <g id="line2d_30">
    <path clip-path="url(#p3dd01bb4a4)" d="M 79.854545 103.360952 
L 106.631405 117.105903 
L 133.408264 91.337682 
L 160.185124 84.172844 
L 186.961983 100.756893 
L 213.738843 99.160113 
L 240.515702 87.842619 
L 267.292562 111.801926 
L 294.069421 116.772151 
L 320.846281 126.853934 
L 401.17686 95.560382 
L 427.953719 99.756354 
L 454.730579 95.690327 
L 481.507438 89.041042 
L 508.284298 102.400851 
L 561.838017 63.50709 
L 615.391736 78.441138 
" style="fill:none;"/>
    <defs>
     <path d="M 0 3 
C 0.795609 3 1.55874 2.683901 2.12132 2.12132 
C 2.683901 1.55874 3 0.795609 3 0 
C 3 -0.795609 2.683901 -1.55874 2.12132 -2.12132 
C 1.55874 -2.683901 0.795609 -3 0 -3 
C -0.795609 -3 -1.55874 -2.683901 -2.12132 -2.12132 
C -2.683901 -1.55874 -3 -0.795609 -3 0 
C -3 0.795609 -2.683901 1.55874 -2.12132 2.12132 
C -1.55874 2.683901 -0.795609 3 0 3 
z
" id="m70ee70bfa7" style="stroke:#ffffff;stroke-width:0.75;"/>
    </defs>
    <g clip-path="url(#p3dd01bb4a4)">
     <use style="fill:#ff0000;stroke:#ffffff;stroke-width:0.75;" x="79.854545" xlink:href="#m70ee70bfa7" y="103.360952"/>
     <use style="fill:#ff0000;stroke:#ffffff;stroke-width:0.75;" x="106.631405" xlink:href="#m70ee70bfa7" y="117.105903"/>
     <use style="fill:#ff0000;stroke:#ffffff;stroke-width:0.75;" x="133.408264" xlink:href="#m70ee70bfa7" y="91.337682"/>
     <use style="fill:#ff0000;stroke:#ffffff;stroke-width:0.75;" x="160.185124" xlink:href="#m70ee70bfa7" y="84.172844"/>
     <use style="fill:#ff0000;stroke:#ffffff;stroke-width:0.75;" x="186.961983" xlink:href="#m70ee70bfa7" y="100.756893"/>
     <use style="fill:#ff0000;stroke:#ffffff;stroke-width:0.75;" x="213.738843" xlink:href="#m70ee70bfa7" y="99.160113"/>
     <use style="fill:#ff0000;stroke:#ffffff;stroke-width:0.75;" x="240.515702" xlink:href="#m70ee70bfa7" y="87.842619"/>
     <use style="fill:#ff0000;stroke:#ffffff;stroke-width:0.75;" x="267.292562" xlink:href="#m70ee70bfa7" y="111.801926"/>
     <use style="fill:#ff0000;stroke:#ffffff;stroke-width:0.75;" x="294.069421" xlink:href="#m70ee70bfa7" y="116.772151"/>
     <use style="fill:#ff0000;stroke:#ffffff;stroke-width:0.75;" x="320.846281" xlink:href="#m70ee70bfa7" y="126.853934"/>
     <use style="fill:#ff0000;stroke:#ffffff;stroke-width:0.75;" x="401.17686" xlink:href="#m70ee70bfa7" y="95.560382"/>
     <use style="fill:#ff0000;stroke:#ffffff;stroke-width:0.75;" x="427.953719" xlink:href="#m70ee70bfa7" y="99.756354"/>
     <use style="fill:#ff0000;stroke:#ffffff;stroke-width:0.75;" x="454.730579" xlink:href="#m70ee70bfa7" y="95.690327"/>
     <use style="fill:#ff0000;stroke:#ffffff;stroke-width:0.75;" x="481.507438" xlink:href="#m70ee70bfa7" y="89.041042"/>
     <use style="fill:#ff0000;stroke:#ffffff;stroke-width:0.75;" x="508.284298" xlink:href="#m70ee70bfa7" y="102.400851"/>
     <use style="fill:#ff0000;stroke:#ffffff;stroke-width:0.75;" x="561.838017" xlink:href="#m70ee70bfa7" y="63.50709"/>
     <use style="fill:#ff0000;stroke:#ffffff;stroke-width:0.75;" x="615.391736" xlink:href="#m70ee70bfa7" y="78.441138"/>
    </g>
   </g>
   <g id="line2d_31">
    <path clip-path="url(#p3dd01bb4a4)" d="M 347.62314 103.209417 
L 374.4 124.240423 
L 535.061157 102.754733 
L 588.614876 97.828585 
L 642.168595 66.813965 
L 668.945455 96.239187 
" style="fill:none;"/>
    <defs>
     <path d="M -1.5 3 
L 0 1.5 
L 1.5 3 
L 3 1.5 
L 1.5 0 
L 3 -1.5 
L 1.5 -3 
L 0 -1.5 
L -1.5 -3 
L -3 -1.5 
L -1.5 0 
L -3 1.5 
z
" id="mfb73228974" style="stroke:#ffffff;stroke-linejoin:miter;stroke-width:0.75;"/>
    </defs>
    <g clip-path="url(#p3dd01bb4a4)">
     <use style="fill:#ff0000;stroke:#ffffff;stroke-linejoin:miter;stroke-width:0.75;" x="347.62314" xlink:href="#mfb73228974" y="103.209417"/>
     <use style="fill:#ff0000;stroke:#ffffff;stroke-linejoin:miter;stroke-width:0.75;" x="374.4" xlink:href="#mfb73228974" y="124.240423"/>
     <use style="fill:#ff0000;stroke:#ffffff;stroke-linejoin:miter;stroke-width:0.75;" x="535.061157" xlink:href="#mfb73228974" y="102.754733"/>
     <use style="fill:#ff0000;stroke:#ffffff;stroke-linejoin:miter;stroke-width:0.75;" x="588.614876" xlink:href="#mfb73228974" y="97.828585"/>
     <use style="fill:#ff0000;stroke:#ffffff;stroke-linejoin:miter;stroke-width:0.75;" x="642.168595" xlink:href="#mfb73228974" y="66.813965"/>
     <use style="fill:#ff0000;stroke:#ffffff;stroke-linejoin:miter;stroke-width:0.75;" x="668.945455" xlink:href="#mfb73228974" y="96.239187"/>
    </g>
   </g>
   <g id="line2d_32">
    <path clip-path="url(#p3dd01bb4a4)" d="M 79.854545 98.577435 
L 106.631405 104.931276 
L 133.408264 84.777657 
L 160.185124 111.916471 
L 186.961983 90.006851 
L 213.738843 100.550395 
L 240.515702 87.449957 
L 267.292562 89.638939 
L 294.069421 100.944609 
L 320.846281 89.436334 
L 401.17686 91.217333 
L 427.953719 87.981279 
L 454.730579 91.093708 
L 481.507438 85.746846 
L 508.284298 87.297671 
L 561.838017 92.179139 
L 615.391736 76.512646 
" style="fill:none;"/>
    <defs>
     <path d="M 0 3 
C 0.795609 3 1.55874 2.683901 2.12132 2.12132 
C 2.683901 1.55874 3 0.795609 3 0 
C 3 -0.795609 2.683901 -1.55874 2.12132 -2.12132 
C 1.55874 -2.683901 0.795609 -3 0 -3 
C -0.795609 -3 -1.55874 -2.683901 -2.12132 -2.12132 
C -2.683901 -1.55874 -3 -0.795609 -3 0 
C -3 0.795609 -2.683901 1.55874 -2.12132 2.12132 
C -1.55874 2.683901 -0.795609 3 0 3 
z
" id="m5fb0de94fd" style="stroke:#ffffff;stroke-width:0.75;"/>
    </defs>
    <g clip-path="url(#p3dd01bb4a4)">
     <use style="fill:#0000ff;stroke:#ffffff;stroke-width:0.75;" x="79.854545" xlink:href="#m5fb0de94fd" y="98.577435"/>
     <use style="fill:#0000ff;stroke:#ffffff;stroke-width:0.75;" x="106.631405" xlink:href="#m5fb0de94fd" y="104.931276"/>
     <use style="fill:#0000ff;stroke:#ffffff;stroke-width:0.75;" x="133.408264" xlink:href="#m5fb0de94fd" y="84.777657"/>
     <use style="fill:#0000ff;stroke:#ffffff;stroke-width:0.75;" x="160.185124" xlink:href="#m5fb0de94fd" y="111.916471"/>
     <use style="fill:#0000ff;stroke:#ffffff;stroke-width:0.75;" x="186.961983" xlink:href="#m5fb0de94fd" y="90.006851"/>
     <use style="fill:#0000ff;stroke:#ffffff;stroke-width:0.75;" x="213.738843" xlink:href="#m5fb0de94fd" y="100.550395"/>
     <use style="fill:#0000ff;stroke:#ffffff;stroke-width:0.75;" x="240.515702" xlink:href="#m5fb0de94fd" y="87.449957"/>
     <use style="fill:#0000ff;stroke:#ffffff;stroke-width:0.75;" x="267.292562" xlink:href="#m5fb0de94fd" y="89.638939"/>
     <use style="fill:#0000ff;stroke:#ffffff;stroke-width:0.75;" x="294.069421" xlink:href="#m5fb0de94fd" y="100.944609"/>
     <use style="fill:#0000ff;stroke:#ffffff;stroke-width:0.75;" x="320.846281" xlink:href="#m5fb0de94fd" y="89.436334"/>
     <use style="fill:#0000ff;stroke:#ffffff;stroke-width:0.75;" x="401.17686" xlink:href="#m5fb0de94fd" y="91.217333"/>
     <use style="fill:#0000ff;stroke:#ffffff;stroke-width:0.75;" x="427.953719" xlink:href="#m5fb0de94fd" y="87.981279"/>
     <use style="fill:#0000ff;stroke:#ffffff;stroke-width:0.75;" x="454.730579" xlink:href="#m5fb0de94fd" y="91.093708"/>
     <use style="fill:#0000ff;stroke:#ffffff;stroke-width:0.75;" x="481.507438" xlink:href="#m5fb0de94fd" y="85.746846"/>
     <use style="fill:#0000ff;stroke:#ffffff;stroke-width:0.75;" x="508.284298" xlink:href="#m5fb0de94fd" y="87.297671"/>
     <use style="fill:#0000ff;stroke:#ffffff;stroke-width:0.75;" x="561.838017" xlink:href="#m5fb0de94fd" y="92.179139"/>
     <use style="fill:#0000ff;stroke:#ffffff;stroke-width:0.75;" x="615.391736" xlink:href="#m5fb0de94fd" y="76.512646"/>
    </g>
   </g>
   <g id="line2d_33">
    <path clip-path="url(#p3dd01bb4a4)" d="M 347.62314 117.947906 
L 374.4 96.527525 
L 535.061157 85.394271 
L 588.614876 60.97361 
L 642.168595 75.835387 
L 668.945455 66.21837 
" style="fill:none;"/>
    <defs>
     <path d="M -1.5 3 
L 0 1.5 
L 1.5 3 
L 3 1.5 
L 1.5 0 
L 3 -1.5 
L 1.5 -3 
L 0 -1.5 
L -1.5 -3 
L -3 -1.5 
L -1.5 0 
L -3 1.5 
z
" id="m67f3227ba5" style="stroke:#ffffff;stroke-linejoin:miter;stroke-width:0.75;"/>
    </defs>
    <g clip-path="url(#p3dd01bb4a4)">
     <use style="fill:#0000ff;stroke:#ffffff;stroke-linejoin:miter;stroke-width:0.75;" x="347.62314" xlink:href="#m67f3227ba5" y="117.947906"/>
     <use style="fill:#0000ff;stroke:#ffffff;stroke-linejoin:miter;stroke-width:0.75;" x="374.4" xlink:href="#m67f3227ba5" y="96.527525"/>
     <use style="fill:#0000ff;stroke:#ffffff;stroke-linejoin:miter;stroke-width:0.75;" x="535.061157" xlink:href="#m67f3227ba5" y="85.394271"/>
     <use style="fill:#0000ff;stroke:#ffffff;stroke-linejoin:miter;stroke-width:0.75;" x="588.614876" xlink:href="#m67f3227ba5" y="60.97361"/>
     <use style="fill:#0000ff;stroke:#ffffff;stroke-linejoin:miter;stroke-width:0.75;" x="642.168595" xlink:href="#m67f3227ba5" y="75.835387"/>
     <use style="fill:#0000ff;stroke:#ffffff;stroke-linejoin:miter;stroke-width:0.75;" x="668.945455" xlink:href="#m67f3227ba5" y="66.21837"/>
    </g>
   </g>
   <g id="line2d_34"/>
   <g id="line2d_35"/>
   <g id="line2d_36"/>
   <g id="line2d_37"/>
   <g id="line2d_38"/>
   <g id="line2d_39"/>
   <g id="line2d_40"/>
   <g id="line2d_41"/>
   <g id="patch_3">
    <path d="M 45.4 230.4 
L 45.4 57.6 
" style="fill:none;stroke:#000000;stroke-linecap:square;stroke-linejoin:miter;stroke-width:0.8;"/>
   </g>
   <g id="patch_4">
    <path d="M 79.854545 235.4 
L 668.945455 235.4 
" style="fill:none;stroke:#000000;stroke-linecap:square;stroke-linejoin:miter;stroke-width:0.8;"/>
   </g>
   <g id="legend_1">
    <g id="patch_5">
     <path d="M 562.6725 53.6 
L 692.8 53.6 
Q 694.4 53.6 694.4 52 
L 694.4 17.5725 
Q 694.4 15.9725 692.8 15.9725 
L 562.6725 15.9725 
Q 561.0725 15.9725 561.0725 17.5725 
L 561.0725 52 
Q 561.0725 53.6 562.6725 53.6 
z
" style="fill:#ffffff;opacity:0.8;stroke:#cccccc;stroke-linejoin:miter;"/>
    </g>
    <g id="text_32">
     <!-- objectid -->
     <g transform="translate(586.6725 25.25125)scale(0.08 -0.08)">
      <defs>
       <path d="M 30.609375 48.390625 
Q 23.390625 48.390625 19.1875 42.75 
Q 14.984375 37.109375 14.984375 27.296875 
Q 14.984375 17.484375 19.15625 11.84375 
Q 23.34375 6.203125 30.609375 6.203125 
Q 37.796875 6.203125 41.984375 11.859375 
Q 46.1875 17.53125 46.1875 27.296875 
Q 46.1875 37.015625 41.984375 42.703125 
Q 37.796875 48.390625 30.609375 48.390625 
z
M 30.609375 56 
Q 42.328125 56 49.015625 48.375 
Q 55.71875 40.765625 55.71875 27.296875 
Q 55.71875 13.875 49.015625 6.21875 
Q 42.328125 -1.421875 30.609375 -1.421875 
Q 18.84375 -1.421875 12.171875 6.21875 
Q 5.515625 13.875 5.515625 27.296875 
Q 5.515625 40.765625 12.171875 48.375 
Q 18.84375 56 30.609375 56 
z
" id="DejaVuSans-111"/>
       <path d="M 48.6875 27.296875 
Q 48.6875 37.203125 44.609375 42.84375 
Q 40.53125 48.484375 33.40625 48.484375 
Q 26.265625 48.484375 22.1875 42.84375 
Q 18.109375 37.203125 18.109375 27.296875 
Q 18.109375 17.390625 22.1875 11.75 
Q 26.265625 6.109375 33.40625 6.109375 
Q 40.53125 6.109375 44.609375 11.75 
Q 48.6875 17.390625 48.6875 27.296875 
z
M 18.109375 46.390625 
Q 20.953125 51.265625 25.265625 53.625 
Q 29.59375 56 35.59375 56 
Q 45.5625 56 51.78125 48.09375 
Q 58.015625 40.1875 58.015625 27.296875 
Q 58.015625 14.40625 51.78125 6.484375 
Q 45.5625 -1.421875 35.59375 -1.421875 
Q 29.59375 -1.421875 25.265625 0.953125 
Q 20.953125 3.328125 18.109375 8.203125 
L 18.109375 0 
L 9.078125 0 
L 9.078125 75.984375 
L 18.109375 75.984375 
z
" id="DejaVuSans-98"/>
       <path d="M 9.421875 54.6875 
L 18.40625 54.6875 
L 18.40625 -0.984375 
Q 18.40625 -11.421875 14.421875 -16.109375 
Q 10.453125 -20.796875 1.609375 -20.796875 
L -1.8125 -20.796875 
L -1.8125 -13.1875 
L 0.59375 -13.1875 
Q 5.71875 -13.1875 7.5625 -10.8125 
Q 9.421875 -8.453125 9.421875 -0.984375 
z
M 9.421875 75.984375 
L 18.40625 75.984375 
L 18.40625 64.59375 
L 9.421875 64.59375 
z
" id="DejaVuSans-106"/>
       <path d="M 56.203125 29.59375 
L 56.203125 25.203125 
L 14.890625 25.203125 
Q 15.484375 15.921875 20.484375 11.0625 
Q 25.484375 6.203125 34.421875 6.203125 
Q 39.59375 6.203125 44.453125 7.46875 
Q 49.3125 8.734375 54.109375 11.28125 
L 54.109375 2.78125 
Q 49.265625 0.734375 44.1875 -0.34375 
Q 39.109375 -1.421875 33.890625 -1.421875 
Q 20.796875 -1.421875 13.15625 6.1875 
Q 5.515625 13.8125 5.515625 26.8125 
Q 5.515625 40.234375 12.765625 48.109375 
Q 20.015625 56 32.328125 56 
Q 43.359375 56 49.78125 48.890625 
Q 56.203125 41.796875 56.203125 29.59375 
z
M 47.21875 32.234375 
Q 47.125 39.59375 43.09375 43.984375 
Q 39.0625 48.390625 32.421875 48.390625 
Q 24.90625 48.390625 20.390625 44.140625 
Q 15.875 39.890625 15.1875 32.171875 
z
" id="DejaVuSans-101"/>
       <path d="M 18.3125 70.21875 
L 18.3125 54.6875 
L 36.8125 54.6875 
L 36.8125 47.703125 
L 18.3125 47.703125 
L 18.3125 18.015625 
Q 18.3125 11.328125 20.140625 9.421875 
Q 21.96875 7.515625 27.59375 7.515625 
L 36.8125 7.515625 
L 36.8125 0 
L 27.59375 0 
Q 17.1875 0 13.234375 3.875 
Q 9.28125 7.765625 9.28125 18.015625 
L 9.28125 47.703125 
L 2.6875 47.703125 
L 2.6875 54.6875 
L 9.28125 54.6875 
L 9.28125 70.21875 
z
" id="DejaVuSans-116"/>
      </defs>
      <use xlink:href="#DejaVuSans-111"/>
      <use x="61.181641" xlink:href="#DejaVuSans-98"/>
      <use x="124.658203" xlink:href="#DejaVuSans-106"/>
      <use x="152.441406" xlink:href="#DejaVuSans-101"/>
      <use x="213.964844" xlink:href="#DejaVuSans-99"/>
      <use x="268.945312" xlink:href="#DejaVuSans-116"/>
      <use x="308.154297" xlink:href="#DejaVuSans-105"/>
      <use x="335.9375" xlink:href="#DejaVuSans-100"/>
     </g>
    </g>
    <g id="line2d_42">
     <path d="M 564.2725 34.19375 
L 580.2725 34.19375 
" style="fill:none;stroke:#ff0000;stroke-linecap:square;stroke-width:1.5;"/>
    </g>
    <g id="line2d_43"/>
    <g id="text_33">
     <!-- 1 -->
     <g transform="translate(586.6725 36.99375)scale(0.08 -0.08)">
      <use xlink:href="#DejaVuSans-49"/>
     </g>
    </g>
    <g id="line2d_44">
     <path d="M 564.2725 45.93625 
L 580.2725 45.93625 
" style="fill:none;stroke:#0000ff;stroke-linecap:square;stroke-width:1.5;"/>
    </g>
    <g id="line2d_45"/>
    <g id="text_34">
     <!-- 2 -->
     <g transform="translate(586.6725 48.73625)scale(0.08 -0.08)">
      <use xlink:href="#DejaVuSans-50"/>
     </g>
    </g>
    <g id="text_35">
     <!-- portmap -->
     <g transform="translate(657.0275 25.25125)scale(0.08 -0.08)">
      <defs>
       <path d="M 18.109375 8.203125 
L 18.109375 -20.796875 
L 9.078125 -20.796875 
L 9.078125 54.6875 
L 18.109375 54.6875 
L 18.109375 46.390625 
Q 20.953125 51.265625 25.265625 53.625 
Q 29.59375 56 35.59375 56 
Q 45.5625 56 51.78125 48.09375 
Q 58.015625 40.1875 58.015625 27.296875 
Q 58.015625 14.40625 51.78125 6.484375 
Q 45.5625 -1.421875 35.59375 -1.421875 
Q 29.59375 -1.421875 25.265625 0.953125 
Q 20.953125 3.328125 18.109375 8.203125 
z
M 48.6875 27.296875 
Q 48.6875 37.203125 44.609375 42.84375 
Q 40.53125 48.484375 33.40625 48.484375 
Q 26.265625 48.484375 22.1875 42.84375 
Q 18.109375 37.203125 18.109375 27.296875 
Q 18.109375 17.390625 22.1875 11.75 
Q 26.265625 6.109375 33.40625 6.109375 
Q 40.53125 6.109375 44.609375 11.75 
Q 48.6875 17.390625 48.6875 27.296875 
z
" id="DejaVuSans-112"/>
      </defs>
      <use xlink:href="#DejaVuSans-112"/>
      <use x="63.476562" xlink:href="#DejaVuSans-111"/>
      <use x="124.658203" xlink:href="#DejaVuSans-114"/>
      <use x="165.771484" xlink:href="#DejaVuSans-116"/>
      <use x="204.980469" xlink:href="#DejaVuSans-109"/>
      <use x="302.392578" xlink:href="#DejaVuSans-97"/>
      <use x="363.671875" xlink:href="#DejaVuSans-112"/>
     </g>
    </g>
    <g id="line2d_46">
     <path d="M 634.6275 34.19375 
L 650.6275 34.19375 
" style="fill:none;stroke:#333333;stroke-linecap:square;stroke-width:1.5;"/>
    </g>
    <g id="line2d_47">
     <defs>
      <path d="M 0 3 
C 0.795609 3 1.55874 2.683901 2.12132 2.12132 
C 2.683901 1.55874 3 0.795609 3 0 
C 3 -0.795609 2.683901 -1.55874 2.12132 -2.12132 
C 1.55874 -2.683901 0.795609 -3 0 -3 
C -0.795609 -3 -1.55874 -2.683901 -2.12132 -2.12132 
C -2.683901 -1.55874 -3 -0.795609 -3 0 
C -3 0.795609 -2.683901 1.55874 -2.12132 2.12132 
C -1.55874 2.683901 -0.795609 3 0 3 
z
" id="m7d2dc14f0a" style="stroke:#333333;"/>
     </defs>
     <g>
      <use style="fill:#333333;stroke:#333333;" x="642.6275" xlink:href="#m7d2dc14f0a" y="34.19375"/>
     </g>
    </g>
    <g id="text_36">
     <!-- 0 -->
     <g transform="translate(657.0275 36.99375)scale(0.08 -0.08)">
      <use xlink:href="#DejaVuSans-48"/>
     </g>
    </g>
    <g id="line2d_48">
     <path d="M 634.6275 45.93625 
L 650.6275 45.93625 
" style="fill:none;stroke:#333333;stroke-linecap:square;stroke-width:1.5;"/>
    </g>
    <g id="line2d_49">
     <defs>
      <path d="M -1.5 3 
L 0 1.5 
L 1.5 3 
L 3 1.5 
L 1.5 0 
L 3 -1.5 
L 1.5 -3 
L 0 -1.5 
L -1.5 -3 
L -3 -1.5 
L -1.5 0 
L -3 1.5 
z
" id="m191e701b8b" style="stroke:#333333;stroke-linejoin:miter;"/>
     </defs>
     <g>
      <use style="fill:#333333;stroke:#333333;stroke-linejoin:miter;" x="642.6275" xlink:href="#m191e701b8b" y="45.93625"/>
     </g>
    </g>
    <g id="text_37">
     <!-- 1 -->
     <g transform="translate(657.0275 48.73625)scale(0.08 -0.08)">
      <use xlink:href="#DejaVuSans-49"/>
     </g>
    </g>
   </g>
  </g>
  <g id="text_38">
   <!-- phase4-1-3_cohorts_AG-AJ-AN -->
   <g transform="translate(0 6.07875)scale(0.08 -0.08)">
    <defs>
     <path d="M 54.890625 33.015625 
L 54.890625 0 
L 45.90625 0 
L 45.90625 32.71875 
Q 45.90625 40.484375 42.875 44.328125 
Q 39.84375 48.1875 33.796875 48.1875 
Q 26.515625 48.1875 22.3125 43.546875 
Q 18.109375 38.921875 18.109375 30.90625 
L 18.109375 0 
L 9.078125 0 
L 9.078125 75.984375 
L 18.109375 75.984375 
L 18.109375 46.1875 
Q 21.34375 51.125 25.703125 53.5625 
Q 30.078125 56 35.796875 56 
Q 45.21875 56 50.046875 50.171875 
Q 54.890625 44.34375 54.890625 33.015625 
z
" id="DejaVuSans-104"/>
     <path d="M 44.28125 53.078125 
L 44.28125 44.578125 
Q 40.484375 46.53125 36.375 47.5 
Q 32.28125 48.484375 27.875 48.484375 
Q 21.1875 48.484375 17.84375 46.4375 
Q 14.5 44.390625 14.5 40.28125 
Q 14.5 37.15625 16.890625 35.375 
Q 19.28125 33.59375 26.515625 31.984375 
L 29.59375 31.296875 
Q 39.15625 29.25 43.1875 25.515625 
Q 47.21875 21.78125 47.21875 15.09375 
Q 47.21875 7.46875 41.1875 3.015625 
Q 35.15625 -1.421875 24.609375 -1.421875 
Q 20.21875 -1.421875 15.453125 -0.5625 
Q 10.6875 0.296875 5.421875 2 
L 5.421875 11.28125 
Q 10.40625 8.6875 15.234375 7.390625 
Q 20.0625 6.109375 24.8125 6.109375 
Q 31.15625 6.109375 34.5625 8.28125 
Q 37.984375 10.453125 37.984375 14.40625 
Q 37.984375 18.0625 35.515625 20.015625 
Q 33.0625 21.96875 24.703125 23.78125 
L 21.578125 24.515625 
Q 13.234375 26.265625 9.515625 29.90625 
Q 5.8125 33.546875 5.8125 39.890625 
Q 5.8125 47.609375 11.28125 51.796875 
Q 16.75 56 26.8125 56 
Q 31.78125 56 36.171875 55.265625 
Q 40.578125 54.546875 44.28125 53.078125 
z
" id="DejaVuSans-115"/>
     <path d="M 4.890625 31.390625 
L 31.203125 31.390625 
L 31.203125 23.390625 
L 4.890625 23.390625 
z
" id="DejaVuSans-45"/>
     <path d="M 40.578125 39.3125 
Q 47.65625 37.796875 51.625 33 
Q 55.609375 28.21875 55.609375 21.1875 
Q 55.609375 10.40625 48.1875 4.484375 
Q 40.765625 -1.421875 27.09375 -1.421875 
Q 22.515625 -1.421875 17.65625 -0.515625 
Q 12.796875 0.390625 7.625 2.203125 
L 7.625 11.71875 
Q 11.71875 9.328125 16.59375 8.109375 
Q 21.484375 6.890625 26.8125 6.890625 
Q 36.078125 6.890625 40.9375 10.546875 
Q 45.796875 14.203125 45.796875 21.1875 
Q 45.796875 27.640625 41.28125 31.265625 
Q 36.765625 34.90625 28.71875 34.90625 
L 20.21875 34.90625 
L 20.21875 43.015625 
L 29.109375 43.015625 
Q 36.375 43.015625 40.234375 45.921875 
Q 44.09375 48.828125 44.09375 54.296875 
Q 44.09375 59.90625 40.109375 62.90625 
Q 36.140625 65.921875 28.71875 65.921875 
Q 24.65625 65.921875 20.015625 65.03125 
Q 15.375 64.15625 9.8125 62.3125 
L 9.8125 71.09375 
Q 15.4375 72.65625 20.34375 73.4375 
Q 25.25 74.21875 29.59375 74.21875 
Q 40.828125 74.21875 47.359375 69.109375 
Q 53.90625 64.015625 53.90625 55.328125 
Q 53.90625 49.265625 50.4375 45.09375 
Q 46.96875 40.921875 40.578125 39.3125 
z
" id="DejaVuSans-51"/>
     <path d="M 50.984375 -16.609375 
L 50.984375 -23.578125 
L -0.984375 -23.578125 
L -0.984375 -16.609375 
z
" id="DejaVuSans-95"/>
    </defs>
    <use xlink:href="#DejaVuSans-112"/>
    <use x="63.476562" xlink:href="#DejaVuSans-104"/>
    <use x="126.855469" xlink:href="#DejaVuSans-97"/>
    <use x="188.134766" xlink:href="#DejaVuSans-115"/>
    <use x="240.234375" xlink:href="#DejaVuSans-101"/>
    <use x="301.757812" xlink:href="#DejaVuSans-52"/>
    <use x="365.380859" xlink:href="#DejaVuSans-45"/>
    <use x="401.464844" xlink:href="#DejaVuSans-49"/>
    <use x="465.087891" xlink:href="#DejaVuSans-45"/>
    <use x="501.171875" xlink:href="#DejaVuSans-51"/>
    <use x="564.794922" xlink:href="#DejaVuSans-95"/>
    <use x="614.794922" xlink:href="#DejaVuSans-99"/>
    <use x="669.775391" xlink:href="#DejaVuSans-111"/>
    <use x="730.957031" xlink:href="#DejaVuSans-104"/>
    <use x="794.335938" xlink:href="#DejaVuSans-111"/>
    <use x="855.517578" xlink:href="#DejaVuSans-114"/>
    <use x="896.630859" xlink:href="#DejaVuSans-116"/>
    <use x="935.839844" xlink:href="#DejaVuSans-115"/>
    <use x="987.939453" xlink:href="#DejaVuSans-95"/>
    <use x="1037.939453" xlink:href="#DejaVuSans-65"/>
    <use x="1104.597656" xlink:href="#DejaVuSans-71"/>
    <use x="1182.087891" xlink:href="#DejaVuSans-45"/>
    <use x="1215.921875" xlink:href="#DejaVuSans-65"/>
    <use x="1284.330078" xlink:href="#DejaVuSans-74"/>
    <use x="1310.197266" xlink:href="#DejaVuSans-45"/>
    <use x="1344.03125" xlink:href="#DejaVuSans-65"/>
    <use x="1412.439453" xlink:href="#DejaVuSans-78"/>
   </g>
   <!-- AG1-11 | AJ1-16 | AN1-8 -->
   <g transform="translate(0 15.3015)scale(0.08 -0.08)">
    <defs>
     <path id="DejaVuSans-32"/>
     <path d="M 21 76.421875 
L 21 -23.578125 
L 12.703125 -23.578125 
L 12.703125 76.421875 
z
" id="DejaVuSans-124"/>
    </defs>
    <use xlink:href="#DejaVuSans-65"/>
    <use x="66.658203" xlink:href="#DejaVuSans-71"/>
    <use x="144.148438" xlink:href="#DejaVuSans-49"/>
    <use x="207.771484" xlink:href="#DejaVuSans-45"/>
    <use x="243.855469" xlink:href="#DejaVuSans-49"/>
    <use x="307.478516" xlink:href="#DejaVuSans-49"/>
    <use x="371.101562" xlink:href="#DejaVuSans-32"/>
    <use x="402.888672" xlink:href="#DejaVuSans-124"/>
    <use x="436.580078" xlink:href="#DejaVuSans-32"/>
    <use x="468.367188" xlink:href="#DejaVuSans-65"/>
    <use x="536.775391" xlink:href="#DejaVuSans-74"/>
    <use x="566.267578" xlink:href="#DejaVuSans-49"/>
    <use x="629.890625" xlink:href="#DejaVuSans-45"/>
    <use x="665.974609" xlink:href="#DejaVuSans-49"/>
    <use x="729.597656" xlink:href="#DejaVuSans-54"/>
    <use x="793.220703" xlink:href="#DejaVuSans-32"/>
    <use x="825.007812" xlink:href="#DejaVuSans-124"/>
    <use x="858.699219" xlink:href="#DejaVuSans-32"/>
    <use x="890.486328" xlink:href="#DejaVuSans-65"/>
    <use x="958.894531" xlink:href="#DejaVuSans-78"/>
    <use x="1033.699219" xlink:href="#DejaVuSans-49"/>
    <use x="1097.322266" xlink:href="#DejaVuSans-45"/>
    <use x="1133.40625" xlink:href="#DejaVuSans-56"/>
   </g>
  </g>
  <g id="text_39">
   <!-- Training accuracy (N=23 rats, trainviews-crit-0.70) -->
   <g transform="translate(36 43.2)scale(0.16 -0.16)">
    <defs>
     <path d="M -0.296875 72.90625 
L 61.375 72.90625 
L 61.375 64.59375 
L 35.5 64.59375 
L 35.5 0 
L 25.59375 0 
L 25.59375 64.59375 
L -0.296875 64.59375 
z
" id="DejaVuSans-84"/>
     <path d="M 45.40625 27.984375 
Q 45.40625 37.75 41.375 43.109375 
Q 37.359375 48.484375 30.078125 48.484375 
Q 22.859375 48.484375 18.828125 43.109375 
Q 14.796875 37.75 14.796875 27.984375 
Q 14.796875 18.265625 18.828125 12.890625 
Q 22.859375 7.515625 30.078125 7.515625 
Q 37.359375 7.515625 41.375 12.890625 
Q 45.40625 18.265625 45.40625 27.984375 
z
M 54.390625 6.78125 
Q 54.390625 -7.171875 48.1875 -13.984375 
Q 42 -20.796875 29.203125 -20.796875 
Q 24.46875 -20.796875 20.265625 -20.09375 
Q 16.0625 -19.390625 12.109375 -17.921875 
L 12.109375 -9.1875 
Q 16.0625 -11.328125 19.921875 -12.34375 
Q 23.78125 -13.375 27.78125 -13.375 
Q 36.625 -13.375 41.015625 -8.765625 
Q 45.40625 -4.15625 45.40625 5.171875 
L 45.40625 9.625 
Q 42.625 4.78125 38.28125 2.390625 
Q 33.9375 0 27.875 0 
Q 17.828125 0 11.671875 7.65625 
Q 5.515625 15.328125 5.515625 27.984375 
Q 5.515625 40.671875 11.671875 48.328125 
Q 17.828125 56 27.875 56 
Q 33.9375 56 38.28125 53.609375 
Q 42.625 51.21875 45.40625 46.390625 
L 45.40625 54.6875 
L 54.390625 54.6875 
z
" id="DejaVuSans-103"/>
     <path d="M 31 75.875 
Q 24.46875 64.65625 21.28125 53.65625 
Q 18.109375 42.671875 18.109375 31.390625 
Q 18.109375 20.125 21.3125 9.0625 
Q 24.515625 -2 31 -13.1875 
L 23.1875 -13.1875 
Q 15.875 -1.703125 12.234375 9.375 
Q 8.59375 20.453125 8.59375 31.390625 
Q 8.59375 42.28125 12.203125 53.3125 
Q 15.828125 64.359375 23.1875 75.875 
z
" id="DejaVuSans-40"/>
     <path d="M 10.59375 45.40625 
L 73.1875 45.40625 
L 73.1875 37.203125 
L 10.59375 37.203125 
z
M 10.59375 25.484375 
L 73.1875 25.484375 
L 73.1875 17.1875 
L 10.59375 17.1875 
z
" id="DejaVuSans-61"/>
     <path d="M 11.71875 12.40625 
L 22.015625 12.40625 
L 22.015625 4 
L 14.015625 -11.625 
L 7.71875 -11.625 
L 11.71875 4 
z
" id="DejaVuSans-44"/>
     <path d="M 2.984375 54.6875 
L 12.5 54.6875 
L 29.59375 8.796875 
L 46.6875 54.6875 
L 56.203125 54.6875 
L 35.6875 0 
L 23.484375 0 
z
" id="DejaVuSans-118"/>
     <path d="M 4.203125 54.6875 
L 13.1875 54.6875 
L 24.421875 12.015625 
L 35.59375 54.6875 
L 46.1875 54.6875 
L 57.421875 12.015625 
L 68.609375 54.6875 
L 77.59375 54.6875 
L 63.28125 0 
L 52.6875 0 
L 40.921875 44.828125 
L 29.109375 0 
L 18.5 0 
z
" id="DejaVuSans-119"/>
     <path d="M 8.015625 75.875 
L 15.828125 75.875 
Q 23.140625 64.359375 26.78125 53.3125 
Q 30.421875 42.28125 30.421875 31.390625 
Q 30.421875 20.453125 26.78125 9.375 
Q 23.140625 -1.703125 15.828125 -13.1875 
L 8.015625 -13.1875 
Q 14.5 -2 17.703125 9.0625 
Q 20.90625 20.125 20.90625 31.390625 
Q 20.90625 42.671875 17.703125 53.65625 
Q 14.5 64.65625 8.015625 75.875 
z
" id="DejaVuSans-41"/>
    </defs>
    <use xlink:href="#DejaVuSans-84"/>
    <use x="46.333984" xlink:href="#DejaVuSans-114"/>
    <use x="87.447266" xlink:href="#DejaVuSans-97"/>
    <use x="148.726562" xlink:href="#DejaVuSans-105"/>
    <use x="176.509766" xlink:href="#DejaVuSans-110"/>
    <use x="239.888672" xlink:href="#DejaVuSans-105"/>
    <use x="267.671875" xlink:href="#DejaVuSans-110"/>
    <use x="331.050781" xlink:href="#DejaVuSans-103"/>
    <use x="394.527344" xlink:href="#DejaVuSans-32"/>
    <use x="426.314453" xlink:href="#DejaVuSans-97"/>
    <use x="487.59375" xlink:href="#DejaVuSans-99"/>
    <use x="542.574219" xlink:href="#DejaVuSans-99"/>
    <use x="597.554688" xlink:href="#DejaVuSans-117"/>
    <use x="660.933594" xlink:href="#DejaVuSans-114"/>
    <use x="702.046875" xlink:href="#DejaVuSans-97"/>
    <use x="763.326172" xlink:href="#DejaVuSans-99"/>
    <use x="818.306641" xlink:href="#DejaVuSans-121"/>
    <use x="877.486328" xlink:href="#DejaVuSans-32"/>
    <use x="909.273438" xlink:href="#DejaVuSans-40"/>
    <use x="948.287109" xlink:href="#DejaVuSans-78"/>
    <use x="1023.091797" xlink:href="#DejaVuSans-61"/>
    <use x="1106.880859" xlink:href="#DejaVuSans-50"/>
    <use x="1170.503906" xlink:href="#DejaVuSans-51"/>
    <use x="1234.126953" xlink:href="#DejaVuSans-32"/>
    <use x="1265.914062" xlink:href="#DejaVuSans-114"/>
    <use x="1307.027344" xlink:href="#DejaVuSans-97"/>
    <use x="1368.306641" xlink:href="#DejaVuSans-116"/>
    <use x="1407.515625" xlink:href="#DejaVuSans-115"/>
    <use x="1459.615234" xlink:href="#DejaVuSans-44"/>
    <use x="1491.402344" xlink:href="#DejaVuSans-32"/>
    <use x="1523.189453" xlink:href="#DejaVuSans-116"/>
    <use x="1562.398438" xlink:href="#DejaVuSans-114"/>
    <use x="1603.511719" xlink:href="#DejaVuSans-97"/>
    <use x="1664.791016" xlink:href="#DejaVuSans-105"/>
    <use x="1692.574219" xlink:href="#DejaVuSans-110"/>
    <use x="1755.953125" xlink:href="#DejaVuSans-118"/>
    <use x="1815.132812" xlink:href="#DejaVuSans-105"/>
    <use x="1842.916016" xlink:href="#DejaVuSans-101"/>
    <use x="1904.439453" xlink:href="#DejaVuSans-119"/>
    <use x="1986.226562" xlink:href="#DejaVuSans-115"/>
    <use x="2038.326172" xlink:href="#DejaVuSans-45"/>
    <use x="2074.410156" xlink:href="#DejaVuSans-99"/>
    <use x="2129.390625" xlink:href="#DejaVuSans-114"/>
    <use x="2170.503906" xlink:href="#DejaVuSans-105"/>
    <use x="2198.287109" xlink:href="#DejaVuSans-116"/>
    <use x="2237.496094" xlink:href="#DejaVuSans-45"/>
    <use x="2273.580078" xlink:href="#DejaVuSans-48"/>
    <use x="2337.203125" xlink:href="#DejaVuSans-46"/>
    <use x="2368.990234" xlink:href="#DejaVuSans-55"/>
    <use x="2432.613281" xlink:href="#DejaVuSans-48"/>
    <use x="2496.236328" xlink:href="#DejaVuSans-41"/>
   </g>
  </g>
 </g>
 <defs>
  <clipPath id="p3dd01bb4a4">
   <rect height="172.8" width="648" x="50.4" y="57.6"/>
  </clipPath>
 </defs>
</svg>
