<?xml version="1.0" encoding="utf-8" standalone="no"?>
<!DOCTYPE svg PUBLIC "-//W3C//DTD SVG 1.1//EN"
  "http://www.w3.org/Graphics/SVG/1.1/DTD/svg11.dtd">
<!-- Created with matplotlib (http://matplotlib.org/) -->
<svg height="432pt" version="1.1" viewBox="0 0 504 432" width="504pt" xmlns="http://www.w3.org/2000/svg" xmlns:xlink="http://www.w3.org/1999/xlink">
 <defs>
  <style type="text/css">
*{stroke-linecap:butt;stroke-linejoin:round;}
  </style>
 </defs>
 <g id="figure_1">
  <g id="patch_1">
   <path d="M 0 432 
L 504 432 
L 504 0 
L 0 0 
z
" style="fill:#ffffff;"/>
  </g>
  <g id="axes_1">
   <g id="patch_2">
    <path d="M 100.8 345.6 
L 403.2 345.6 
L 403.2 51.84 
L 100.8 51.84 
z
" style="fill:#ffffff;"/>
   </g>
   <g id="matplotlib.axis_1">
    <g id="xtick_1">
     <g id="line2d_1">
      <defs>
       <path d="M 0 0 
L 0 3.5 
" id="md0cbd3120c" style="stroke:#000000;stroke-width:0.8;"/>
      </defs>
      <g>
       <use style="stroke:#000000;stroke-width:0.8;" x="114.545455" xlink:href="#md0cbd3120c" y="349.6"/>
      </g>
     </g>
     <g id="text_1">
      <!-- 0 -->
      <defs>
       <path d="M 31.78125 66.40625 
Q 24.171875 66.40625 20.328125 58.90625 
Q 16.5 51.421875 16.5 36.375 
Q 16.5 21.390625 20.328125 13.890625 
Q 24.171875 6.390625 31.78125 6.390625 
Q 39.453125 6.390625 43.28125 13.890625 
Q 47.125 21.390625 47.125 36.375 
Q 47.125 51.421875 43.28125 58.90625 
Q 39.453125 66.40625 31.78125 66.40625 
z
M 31.78125 74.21875 
Q 44.046875 74.21875 50.515625 64.515625 
Q 56.984375 54.828125 56.984375 36.375 
Q 56.984375 17.96875 50.515625 8.265625 
Q 44.046875 -1.421875 31.78125 -1.421875 
Q 19.53125 -1.421875 13.0625 8.265625 
Q 6.59375 17.96875 6.59375 36.375 
Q 6.59375 54.828125 13.0625 64.515625 
Q 19.53125 74.21875 31.78125 74.21875 
z
" id="DejaVuSans-30"/>
      </defs>
      <g transform="translate(108.182955 371.796875)scale(0.2 -0.2)">
       <use xlink:href="#DejaVuSans-30"/>
      </g>
     </g>
    </g>
    <g id="xtick_2">
     <g id="line2d_2">
      <g>
       <use style="stroke:#000000;stroke-width:0.8;" x="158.88563" xlink:href="#md0cbd3120c" y="349.6"/>
      </g>
     </g>
     <g id="text_2">
      <!-- 10 -->
      <defs>
       <path d="M 12.40625 8.296875 
L 28.515625 8.296875 
L 28.515625 63.921875 
L 10.984375 60.40625 
L 10.984375 69.390625 
L 28.421875 72.90625 
L 38.28125 72.90625 
L 38.28125 8.296875 
L 54.390625 8.296875 
L 54.390625 0 
L 12.40625 0 
z
" id="DejaVuSans-31"/>
      </defs>
      <g transform="translate(146.16063 371.796875)scale(0.2 -0.2)">
       <use xlink:href="#DejaVuSans-31"/>
       <use x="63.623047" xlink:href="#DejaVuSans-30"/>
      </g>
     </g>
    </g>
    <g id="xtick_3">
     <g id="line2d_3">
      <g>
       <use style="stroke:#000000;stroke-width:0.8;" x="203.225806" xlink:href="#md0cbd3120c" y="349.6"/>
      </g>
     </g>
     <g id="text_3">
      <!-- 20 -->
      <defs>
       <path d="M 19.1875 8.296875 
L 53.609375 8.296875 
L 53.609375 0 
L 7.328125 0 
L 7.328125 8.296875 
Q 12.9375 14.109375 22.625 23.890625 
Q 32.328125 33.6875 34.8125 36.53125 
Q 39.546875 41.84375 41.421875 45.53125 
Q 43.3125 49.21875 43.3125 52.78125 
Q 43.3125 58.59375 39.234375 62.25 
Q 35.15625 65.921875 28.609375 65.921875 
Q 23.96875 65.921875 18.8125 64.3125 
Q 13.671875 62.703125 7.8125 59.421875 
L 7.8125 69.390625 
Q 13.765625 71.78125 18.9375 73 
Q 24.125 74.21875 28.421875 74.21875 
Q 39.75 74.21875 46.484375 68.546875 
Q 53.21875 62.890625 53.21875 53.421875 
Q 53.21875 48.921875 51.53125 44.890625 
Q 49.859375 40.875 45.40625 35.40625 
Q 44.1875 33.984375 37.640625 27.21875 
Q 31.109375 20.453125 19.1875 8.296875 
z
" id="DejaVuSans-32"/>
      </defs>
      <g transform="translate(190.500806 371.796875)scale(0.2 -0.2)">
       <use xlink:href="#DejaVuSans-32"/>
       <use x="63.623047" xlink:href="#DejaVuSans-30"/>
      </g>
     </g>
    </g>
    <g id="xtick_4">
     <g id="line2d_4">
      <g>
       <use style="stroke:#000000;stroke-width:0.8;" x="247.565982" xlink:href="#md0cbd3120c" y="349.6"/>
      </g>
     </g>
     <g id="text_4">
      <!-- 30 -->
      <defs>
       <path d="M 40.578125 39.3125 
Q 47.65625 37.796875 51.625 33 
Q 55.609375 28.21875 55.609375 21.1875 
Q 55.609375 10.40625 48.1875 4.484375 
Q 40.765625 -1.421875 27.09375 -1.421875 
Q 22.515625 -1.421875 17.65625 -0.515625 
Q 12.796875 0.390625 7.625 2.203125 
L 7.625 11.71875 
Q 11.71875 9.328125 16.59375 8.109375 
Q 21.484375 6.890625 26.8125 6.890625 
Q 36.078125 6.890625 40.9375 10.546875 
Q 45.796875 14.203125 45.796875 21.1875 
Q 45.796875 27.640625 41.28125 31.265625 
Q 36.765625 34.90625 28.71875 34.90625 
L 20.21875 34.90625 
L 20.21875 43.015625 
L 29.109375 43.015625 
Q 36.375 43.015625 40.234375 45.921875 
Q 44.09375 48.828125 44.09375 54.296875 
Q 44.09375 59.90625 40.109375 62.90625 
Q 36.140625 65.921875 28.71875 65.921875 
Q 24.65625 65.921875 20.015625 65.03125 
Q 15.375 64.15625 9.8125 62.3125 
L 9.8125 71.09375 
Q 15.4375 72.65625 20.34375 73.4375 
Q 25.25 74.21875 29.59375 74.21875 
Q 40.828125 74.21875 47.359375 69.109375 
Q 53.90625 64.015625 53.90625 55.328125 
Q 53.90625 49.265625 50.4375 45.09375 
Q 46.96875 40.921875 40.578125 39.3125 
z
" id="DejaVuSans-33"/>
      </defs>
      <g transform="translate(234.840982 371.796875)scale(0.2 -0.2)">
       <use xlink:href="#DejaVuSans-33"/>
       <use x="63.623047" xlink:href="#DejaVuSans-30"/>
      </g>
     </g>
    </g>
    <g id="xtick_5">
     <g id="line2d_5">
      <g>
       <use style="stroke:#000000;stroke-width:0.8;" x="291.906158" xlink:href="#md0cbd3120c" y="349.6"/>
      </g>
     </g>
     <g id="text_5">
      <!-- 40 -->
      <defs>
       <path d="M 37.796875 64.3125 
L 12.890625 25.390625 
L 37.796875 25.390625 
z
M 35.203125 72.90625 
L 47.609375 72.90625 
L 47.609375 25.390625 
L 58.015625 25.390625 
L 58.015625 17.1875 
L 47.609375 17.1875 
L 47.609375 0 
L 37.796875 0 
L 37.796875 17.1875 
L 4.890625 17.1875 
L 4.890625 26.703125 
z
" id="DejaVuSans-34"/>
      </defs>
      <g transform="translate(279.181158 371.796875)scale(0.2 -0.2)">
       <use xlink:href="#DejaVuSans-34"/>
       <use x="63.623047" xlink:href="#DejaVuSans-30"/>
      </g>
     </g>
    </g>
    <g id="xtick_6">
     <g id="line2d_6">
      <g>
       <use style="stroke:#000000;stroke-width:0.8;" x="336.246334" xlink:href="#md0cbd3120c" y="349.6"/>
      </g>
     </g>
     <g id="text_6">
      <!-- 50 -->
      <defs>
       <path d="M 10.796875 72.90625 
L 49.515625 72.90625 
L 49.515625 64.59375 
L 19.828125 64.59375 
L 19.828125 46.734375 
Q 21.96875 47.46875 24.109375 47.828125 
Q 26.265625 48.1875 28.421875 48.1875 
Q 40.625 48.1875 47.75 41.5 
Q 54.890625 34.8125 54.890625 23.390625 
Q 54.890625 11.625 47.5625 5.09375 
Q 40.234375 -1.421875 26.90625 -1.421875 
Q 22.3125 -1.421875 17.546875 -0.640625 
Q 12.796875 0.140625 7.71875 1.703125 
L 7.71875 11.625 
Q 12.109375 9.234375 16.796875 8.0625 
Q 21.484375 6.890625 26.703125 6.890625 
Q 35.15625 6.890625 40.078125 11.328125 
Q 45.015625 15.765625 45.015625 23.390625 
Q 45.015625 31 40.078125 35.4375 
Q 35.15625 39.890625 26.703125 39.890625 
Q 22.75 39.890625 18.8125 39.015625 
Q 14.890625 38.140625 10.796875 36.28125 
z
" id="DejaVuSans-35"/>
      </defs>
      <g transform="translate(323.521334 371.796875)scale(0.2 -0.2)">
       <use xlink:href="#DejaVuSans-35"/>
       <use x="63.623047" xlink:href="#DejaVuSans-30"/>
      </g>
     </g>
    </g>
    <g id="xtick_7">
     <g id="line2d_7">
      <g>
       <use style="stroke:#000000;stroke-width:0.8;" x="380.58651" xlink:href="#md0cbd3120c" y="349.6"/>
      </g>
     </g>
     <g id="text_7">
      <!-- 60 -->
      <defs>
       <path d="M 33.015625 40.375 
Q 26.375 40.375 22.484375 35.828125 
Q 18.609375 31.296875 18.609375 23.390625 
Q 18.609375 15.53125 22.484375 10.953125 
Q 26.375 6.390625 33.015625 6.390625 
Q 39.65625 6.390625 43.53125 10.953125 
Q 47.40625 15.53125 47.40625 23.390625 
Q 47.40625 31.296875 43.53125 35.828125 
Q 39.65625 40.375 33.015625 40.375 
z
M 52.59375 71.296875 
L 52.59375 62.3125 
Q 48.875 64.0625 45.09375 64.984375 
Q 41.3125 65.921875 37.59375 65.921875 
Q 27.828125 65.921875 22.671875 59.328125 
Q 17.53125 52.734375 16.796875 39.40625 
Q 19.671875 43.65625 24.015625 45.921875 
Q 28.375 48.1875 33.59375 48.1875 
Q 44.578125 48.1875 50.953125 41.515625 
Q 57.328125 34.859375 57.328125 23.390625 
Q 57.328125 12.15625 50.6875 5.359375 
Q 44.046875 -1.421875 33.015625 -1.421875 
Q 20.359375 -1.421875 13.671875 8.265625 
Q 6.984375 17.96875 6.984375 36.375 
Q 6.984375 53.65625 15.1875 63.9375 
Q 23.390625 74.21875 37.203125 74.21875 
Q 40.921875 74.21875 44.703125 73.484375 
Q 48.484375 72.75 52.59375 71.296875 
z
" id="DejaVuSans-36"/>
      </defs>
      <g transform="translate(367.86151 371.796875)scale(0.2 -0.2)">
       <use xlink:href="#DejaVuSans-36"/>
       <use x="63.623047" xlink:href="#DejaVuSans-30"/>
      </g>
     </g>
    </g>
    <g id="text_8">
     <!-- session -->
     <defs>
      <path d="M 44.28125 53.078125 
L 44.28125 44.578125 
Q 40.484375 46.53125 36.375 47.5 
Q 32.28125 48.484375 27.875 48.484375 
Q 21.1875 48.484375 17.84375 46.4375 
Q 14.5 44.390625 14.5 40.28125 
Q 14.5 37.15625 16.890625 35.375 
Q 19.28125 33.59375 26.515625 31.984375 
L 29.59375 31.296875 
Q 39.15625 29.25 43.1875 25.515625 
Q 47.21875 21.78125 47.21875 15.09375 
Q 47.21875 7.46875 41.1875 3.015625 
Q 35.15625 -1.421875 24.609375 -1.421875 
Q 20.21875 -1.421875 15.453125 -0.5625 
Q 10.6875 0.296875 5.421875 2 
L 5.421875 11.28125 
Q 10.40625 8.6875 15.234375 7.390625 
Q 20.0625 6.109375 24.8125 6.109375 
Q 31.15625 6.109375 34.5625 8.28125 
Q 37.984375 10.453125 37.984375 14.40625 
Q 37.984375 18.0625 35.515625 20.015625 
Q 33.0625 21.96875 24.703125 23.78125 
L 21.578125 24.515625 
Q 13.234375 26.265625 9.515625 29.90625 
Q 5.8125 33.546875 5.8125 39.890625 
Q 5.8125 47.609375 11.28125 51.796875 
Q 16.75 56 26.8125 56 
Q 31.78125 56 36.171875 55.265625 
Q 40.578125 54.546875 44.28125 53.078125 
z
" id="DejaVuSans-73"/>
      <path d="M 56.203125 29.59375 
L 56.203125 25.203125 
L 14.890625 25.203125 
Q 15.484375 15.921875 20.484375 11.0625 
Q 25.484375 6.203125 34.421875 6.203125 
Q 39.59375 6.203125 44.453125 7.46875 
Q 49.3125 8.734375 54.109375 11.28125 
L 54.109375 2.78125 
Q 49.265625 0.734375 44.1875 -0.34375 
Q 39.109375 -1.421875 33.890625 -1.421875 
Q 20.796875 -1.421875 13.15625 6.1875 
Q 5.515625 13.8125 5.515625 26.8125 
Q 5.515625 40.234375 12.765625 48.109375 
Q 20.015625 56 32.328125 56 
Q 43.359375 56 49.78125 48.890625 
Q 56.203125 41.796875 56.203125 29.59375 
z
M 47.21875 32.234375 
Q 47.125 39.59375 43.09375 43.984375 
Q 39.0625 48.390625 32.421875 48.390625 
Q 24.90625 48.390625 20.390625 44.140625 
Q 15.875 39.890625 15.1875 32.171875 
z
" id="DejaVuSans-65"/>
      <path d="M 9.421875 54.6875 
L 18.40625 54.6875 
L 18.40625 0 
L 9.421875 0 
z
M 9.421875 75.984375 
L 18.40625 75.984375 
L 18.40625 64.59375 
L 9.421875 64.59375 
z
" id="DejaVuSans-69"/>
      <path d="M 30.609375 48.390625 
Q 23.390625 48.390625 19.1875 42.75 
Q 14.984375 37.109375 14.984375 27.296875 
Q 14.984375 17.484375 19.15625 11.84375 
Q 23.34375 6.203125 30.609375 6.203125 
Q 37.796875 6.203125 41.984375 11.859375 
Q 46.1875 17.53125 46.1875 27.296875 
Q 46.1875 37.015625 41.984375 42.703125 
Q 37.796875 48.390625 30.609375 48.390625 
z
M 30.609375 56 
Q 42.328125 56 49.015625 48.375 
Q 55.71875 40.765625 55.71875 27.296875 
Q 55.71875 13.875 49.015625 6.21875 
Q 42.328125 -1.421875 30.609375 -1.421875 
Q 18.84375 -1.421875 12.171875 6.21875 
Q 5.515625 13.875 5.515625 27.296875 
Q 5.515625 40.765625 12.171875 48.375 
Q 18.84375 56 30.609375 56 
z
" id="DejaVuSans-6f"/>
      <path d="M 54.890625 33.015625 
L 54.890625 0 
L 45.90625 0 
L 45.90625 32.71875 
Q 45.90625 40.484375 42.875 44.328125 
Q 39.84375 48.1875 33.796875 48.1875 
Q 26.515625 48.1875 22.3125 43.546875 
Q 18.109375 38.921875 18.109375 30.90625 
L 18.109375 0 
L 9.078125 0 
L 9.078125 54.6875 
L 18.109375 54.6875 
L 18.109375 46.1875 
Q 21.34375 51.125 25.703125 53.5625 
Q 30.078125 56 35.796875 56 
Q 45.21875 56 50.046875 50.171875 
Q 54.890625 44.34375 54.890625 33.015625 
z
" id="DejaVuSans-6e"/>
     </defs>
     <g transform="translate(207.58125 398.1925)scale(0.24 -0.24)">
      <use xlink:href="#DejaVuSans-73"/>
      <use x="52.099609" xlink:href="#DejaVuSans-65"/>
      <use x="113.623047" xlink:href="#DejaVuSans-73"/>
      <use x="165.722656" xlink:href="#DejaVuSans-73"/>
      <use x="217.822266" xlink:href="#DejaVuSans-69"/>
      <use x="245.605469" xlink:href="#DejaVuSans-6f"/>
      <use x="306.787109" xlink:href="#DejaVuSans-6e"/>
     </g>
    </g>
   </g>
   <g id="matplotlib.axis_2">
    <g id="ytick_1">
     <g id="line2d_8">
      <defs>
       <path d="M 0 0 
L -3.5 0 
" id="m0f2fc11a9c" style="stroke:#000000;stroke-width:0.8;"/>
      </defs>
      <g>
       <use style="stroke:#000000;stroke-width:0.8;" x="96.8" xlink:href="#m0f2fc11a9c" y="319.135135"/>
      </g>
     </g>
     <g id="text_9">
      <!-- 0.0 -->
      <defs>
       <path d="M 10.6875 12.40625 
L 21 12.40625 
L 21 0 
L 10.6875 0 
z
" id="DejaVuSans-2e"/>
      </defs>
      <g style="fill:#d62728;" transform="translate(57.99375 326.733573)scale(0.2 -0.2)">
       <use xlink:href="#DejaVuSans-30"/>
       <use x="63.623047" xlink:href="#DejaVuSans-2e"/>
       <use x="95.410156" xlink:href="#DejaVuSans-30"/>
      </g>
     </g>
    </g>
    <g id="ytick_2">
     <g id="line2d_9">
      <g>
       <use style="stroke:#000000;stroke-width:0.8;" x="96.8" xlink:href="#m0f2fc11a9c" y="266.205405"/>
      </g>
     </g>
     <g id="text_10">
      <!-- 0.2 -->
      <g style="fill:#d62728;" transform="translate(57.99375 273.803843)scale(0.2 -0.2)">
       <use xlink:href="#DejaVuSans-30"/>
       <use x="63.623047" xlink:href="#DejaVuSans-2e"/>
       <use x="95.410156" xlink:href="#DejaVuSans-32"/>
      </g>
     </g>
    </g>
    <g id="ytick_3">
     <g id="line2d_10">
      <g>
       <use style="stroke:#000000;stroke-width:0.8;" x="96.8" xlink:href="#m0f2fc11a9c" y="213.275676"/>
      </g>
     </g>
     <g id="text_11">
      <!-- 0.4 -->
      <g style="fill:#d62728;" transform="translate(57.99375 220.874113)scale(0.2 -0.2)">
       <use xlink:href="#DejaVuSans-30"/>
       <use x="63.623047" xlink:href="#DejaVuSans-2e"/>
       <use x="95.410156" xlink:href="#DejaVuSans-34"/>
      </g>
     </g>
    </g>
    <g id="ytick_4">
     <g id="line2d_11">
      <g>
       <use style="stroke:#000000;stroke-width:0.8;" x="96.8" xlink:href="#m0f2fc11a9c" y="160.345946"/>
      </g>
     </g>
     <g id="text_12">
      <!-- 0.6 -->
      <g style="fill:#d62728;" transform="translate(57.99375 167.944383)scale(0.2 -0.2)">
       <use xlink:href="#DejaVuSans-30"/>
       <use x="63.623047" xlink:href="#DejaVuSans-2e"/>
       <use x="95.410156" xlink:href="#DejaVuSans-36"/>
      </g>
     </g>
    </g>
    <g id="ytick_5">
     <g id="line2d_12">
      <g>
       <use style="stroke:#000000;stroke-width:0.8;" x="96.8" xlink:href="#m0f2fc11a9c" y="107.416216"/>
      </g>
     </g>
     <g id="text_13">
      <!-- 0.8 -->
      <defs>
       <path d="M 31.78125 34.625 
Q 24.75 34.625 20.71875 30.859375 
Q 16.703125 27.09375 16.703125 20.515625 
Q 16.703125 13.921875 20.71875 10.15625 
Q 24.75 6.390625 31.78125 6.390625 
Q 38.8125 6.390625 42.859375 10.171875 
Q 46.921875 13.96875 46.921875 20.515625 
Q 46.921875 27.09375 42.890625 30.859375 
Q 38.875 34.625 31.78125 34.625 
z
M 21.921875 38.8125 
Q 15.578125 40.375 12.03125 44.71875 
Q 8.5 49.078125 8.5 55.328125 
Q 8.5 64.0625 14.71875 69.140625 
Q 20.953125 74.21875 31.78125 74.21875 
Q 42.671875 74.21875 48.875 69.140625 
Q 55.078125 64.0625 55.078125 55.328125 
Q 55.078125 49.078125 51.53125 44.71875 
Q 48 40.375 41.703125 38.8125 
Q 48.828125 37.15625 52.796875 32.3125 
Q 56.78125 27.484375 56.78125 20.515625 
Q 56.78125 9.90625 50.3125 4.234375 
Q 43.84375 -1.421875 31.78125 -1.421875 
Q 19.734375 -1.421875 13.25 4.234375 
Q 6.78125 9.90625 6.78125 20.515625 
Q 6.78125 27.484375 10.78125 32.3125 
Q 14.796875 37.15625 21.921875 38.8125 
z
M 18.3125 54.390625 
Q 18.3125 48.734375 21.84375 45.5625 
Q 25.390625 42.390625 31.78125 42.390625 
Q 38.140625 42.390625 41.71875 45.5625 
Q 45.3125 48.734375 45.3125 54.390625 
Q 45.3125 60.0625 41.71875 63.234375 
Q 38.140625 66.40625 31.78125 66.40625 
Q 25.390625 66.40625 21.84375 63.234375 
Q 18.3125 60.0625 18.3125 54.390625 
z
" id="DejaVuSans-38"/>
      </defs>
      <g style="fill:#d62728;" transform="translate(57.99375 115.014654)scale(0.2 -0.2)">
       <use xlink:href="#DejaVuSans-30"/>
       <use x="63.623047" xlink:href="#DejaVuSans-2e"/>
       <use x="95.410156" xlink:href="#DejaVuSans-38"/>
      </g>
     </g>
    </g>
    <g id="ytick_6">
     <g id="line2d_13">
      <g>
       <use style="stroke:#000000;stroke-width:0.8;" x="96.8" xlink:href="#m0f2fc11a9c" y="54.486486"/>
      </g>
     </g>
     <g id="text_14">
      <!-- 1.0 -->
      <g style="fill:#d62728;" transform="translate(57.99375 62.084924)scale(0.2 -0.2)">
       <use xlink:href="#DejaVuSans-31"/>
       <use x="63.623047" xlink:href="#DejaVuSans-2e"/>
       <use x="95.410156" xlink:href="#DejaVuSans-30"/>
      </g>
     </g>
    </g>
    <g id="text_15">
     <!-- accuracy -->
     <defs>
      <path d="M 34.28125 27.484375 
Q 23.390625 27.484375 19.1875 25 
Q 14.984375 22.515625 14.984375 16.5 
Q 14.984375 11.71875 18.140625 8.90625 
Q 21.296875 6.109375 26.703125 6.109375 
Q 34.1875 6.109375 38.703125 11.40625 
Q 43.21875 16.703125 43.21875 25.484375 
L 43.21875 27.484375 
z
M 52.203125 31.203125 
L 52.203125 0 
L 43.21875 0 
L 43.21875 8.296875 
Q 40.140625 3.328125 35.546875 0.953125 
Q 30.953125 -1.421875 24.3125 -1.421875 
Q 15.921875 -1.421875 10.953125 3.296875 
Q 6 8.015625 6 15.921875 
Q 6 25.140625 12.171875 29.828125 
Q 18.359375 34.515625 30.609375 34.515625 
L 43.21875 34.515625 
L 43.21875 35.40625 
Q 43.21875 41.609375 39.140625 45 
Q 35.0625 48.390625 27.6875 48.390625 
Q 23 48.390625 18.546875 47.265625 
Q 14.109375 46.140625 10.015625 43.890625 
L 10.015625 52.203125 
Q 14.9375 54.109375 19.578125 55.046875 
Q 24.21875 56 28.609375 56 
Q 40.484375 56 46.34375 49.84375 
Q 52.203125 43.703125 52.203125 31.203125 
z
" id="DejaVuSans-61"/>
      <path d="M 48.78125 52.59375 
L 48.78125 44.1875 
Q 44.96875 46.296875 41.140625 47.34375 
Q 37.3125 48.390625 33.40625 48.390625 
Q 24.65625 48.390625 19.8125 42.84375 
Q 14.984375 37.3125 14.984375 27.296875 
Q 14.984375 17.28125 19.8125 11.734375 
Q 24.65625 6.203125 33.40625 6.203125 
Q 37.3125 6.203125 41.140625 7.25 
Q 44.96875 8.296875 48.78125 10.40625 
L 48.78125 2.09375 
Q 45.015625 0.34375 40.984375 -0.53125 
Q 36.96875 -1.421875 32.421875 -1.421875 
Q 20.0625 -1.421875 12.78125 6.34375 
Q 5.515625 14.109375 5.515625 27.296875 
Q 5.515625 40.671875 12.859375 48.328125 
Q 20.21875 56 33.015625 56 
Q 37.15625 56 41.109375 55.140625 
Q 45.0625 54.296875 48.78125 52.59375 
z
" id="DejaVuSans-63"/>
      <path d="M 8.5 21.578125 
L 8.5 54.6875 
L 17.484375 54.6875 
L 17.484375 21.921875 
Q 17.484375 14.15625 20.5 10.265625 
Q 23.53125 6.390625 29.59375 6.390625 
Q 36.859375 6.390625 41.078125 11.03125 
Q 45.3125 15.671875 45.3125 23.6875 
L 45.3125 54.6875 
L 54.296875 54.6875 
L 54.296875 0 
L 45.3125 0 
L 45.3125 8.40625 
Q 42.046875 3.421875 37.71875 1 
Q 33.40625 -1.421875 27.6875 -1.421875 
Q 18.265625 -1.421875 13.375 4.4375 
Q 8.5 10.296875 8.5 21.578125 
z
M 31.109375 56 
z
" id="DejaVuSans-75"/>
      <path d="M 41.109375 46.296875 
Q 39.59375 47.171875 37.8125 47.578125 
Q 36.03125 48 33.890625 48 
Q 26.265625 48 22.1875 43.046875 
Q 18.109375 38.09375 18.109375 28.8125 
L 18.109375 0 
L 9.078125 0 
L 9.078125 54.6875 
L 18.109375 54.6875 
L 18.109375 46.1875 
Q 20.953125 51.171875 25.484375 53.578125 
Q 30.03125 56 36.53125 56 
Q 37.453125 56 38.578125 55.875 
Q 39.703125 55.765625 41.0625 55.515625 
z
" id="DejaVuSans-72"/>
      <path d="M 32.171875 -5.078125 
Q 28.375 -14.84375 24.75 -17.8125 
Q 21.140625 -20.796875 15.09375 -20.796875 
L 7.90625 -20.796875 
L 7.90625 -13.28125 
L 13.1875 -13.28125 
Q 16.890625 -13.28125 18.9375 -11.515625 
Q 21 -9.765625 23.484375 -3.21875 
L 25.09375 0.875 
L 2.984375 54.6875 
L 12.5 54.6875 
L 29.59375 11.921875 
L 46.6875 54.6875 
L 56.203125 54.6875 
z
" id="DejaVuSans-79"/>
     </defs>
     <g style="fill:#d62728;" transform="translate(49.0025 252.8625)rotate(-90)scale(0.24 -0.24)">
      <use xlink:href="#DejaVuSans-61"/>
      <use x="61.279297" xlink:href="#DejaVuSans-63"/>
      <use x="116.259766" xlink:href="#DejaVuSans-63"/>
      <use x="171.240234" xlink:href="#DejaVuSans-75"/>
      <use x="234.619141" xlink:href="#DejaVuSans-72"/>
      <use x="275.732422" xlink:href="#DejaVuSans-61"/>
      <use x="337.011719" xlink:href="#DejaVuSans-63"/>
      <use x="391.992188" xlink:href="#DejaVuSans-79"/>
     </g>
    </g>
   </g>
   <g id="line2d_14">
    <path clip-path="url(#p8702df5c54)" d="M 114.545455 178.849835 
L 118.979472 175.699608 
L 123.41349 180.049714 
L 127.847507 186.810811 
L 132.281525 173.684805 
L 136.715543 147.596155 
L 141.14956 107.416216 
L 145.583578 119.798235 
L 150.017595 113.620434 
L 154.451613 110.322762 
L 158.88563 113.736184 
L 163.319648 112.547159 
L 167.753666 101.068744 
L 172.187683 100.648945 
L 176.621701 106.125247 
L 181.055718 133.379038 
L 185.489736 130.358454 
L 189.923754 118.774775 
L 194.357771 115.531133 
L 198.791789 124.451072 
L 203.225806 120.648649 
L 207.659824 109.367543 
L 212.093842 105.431351 
L 216.527859 109.834326 
L 220.961877 107.873822 
L 225.395894 97.68702 
L 229.829912 100.13758 
L 234.26393 96.44298 
L 238.697947 113.904847 
L 243.131965 98.540607 
L 247.565982 84.166709 
L 252 87.083454 
L 256.434018 87.216885 
L 260.868035 90.289721 
L 265.302053 77.652018 
L 269.73607 78.895828 
L 274.170088 75.243243 
L 278.604106 81.817959 
L 283.038123 79.852172 
L 287.472141 74.770934 
L 291.906158 95.961275 
L 296.340176 84.183035 
L 300.774194 95.757231 
L 305.208211 84.062605 
L 309.642229 83.349857 
L 314.076246 84.278079 
L 318.510264 79.875544 
L 322.944282 94.082256 
L 327.378299 80.063269 
L 331.812317 78.213607 
L 336.246334 79.791537 
L 340.680352 87.401664 
L 345.11437 82.070711 
L 349.548387 91.066528 
L 353.982405 87.843703 
L 358.416422 93.48734 
L 362.85044 93.369944 
L 367.284457 79.611358 
L 371.718475 79.594179 
L 376.152493 83.854385 
L 380.58651 96.650847 
L 385.020528 105.441702 
L 389.454545 83.260875 
" style="fill:none;stroke:#d62728;stroke-linecap:square;stroke-opacity:0.7;"/>
    <defs>
     <path d="M 0 2.5 
C 0.663008 2.5 1.29895 2.236584 1.767767 1.767767 
C 2.236584 1.29895 2.5 0.663008 2.5 0 
C 2.5 -0.663008 2.236584 -1.29895 1.767767 -1.767767 
C 1.29895 -2.236584 0.663008 -2.5 0 -2.5 
C -0.663008 -2.5 -1.29895 -2.236584 -1.767767 -1.767767 
C -2.236584 -1.29895 -2.5 -0.663008 -2.5 0 
C -2.5 0.663008 -2.236584 1.29895 -1.767767 1.767767 
C -1.29895 2.236584 -0.663008 2.5 0 2.5 
z
" id="m9a08b7133f" style="stroke:#d62728;stroke-opacity:0.7;"/>
    </defs>
    <g clip-path="url(#p8702df5c54)">
     <use style="fill:#d62728;fill-opacity:0.7;stroke:#d62728;stroke-opacity:0.7;" x="114.545455" xlink:href="#m9a08b7133f" y="178.849835"/>
     <use style="fill:#d62728;fill-opacity:0.7;stroke:#d62728;stroke-opacity:0.7;" x="118.979472" xlink:href="#m9a08b7133f" y="175.699608"/>
     <use style="fill:#d62728;fill-opacity:0.7;stroke:#d62728;stroke-opacity:0.7;" x="123.41349" xlink:href="#m9a08b7133f" y="180.049714"/>
     <use style="fill:#d62728;fill-opacity:0.7;stroke:#d62728;stroke-opacity:0.7;" x="127.847507" xlink:href="#m9a08b7133f" y="186.810811"/>
     <use style="fill:#d62728;fill-opacity:0.7;stroke:#d62728;stroke-opacity:0.7;" x="132.281525" xlink:href="#m9a08b7133f" y="173.684805"/>
     <use style="fill:#d62728;fill-opacity:0.7;stroke:#d62728;stroke-opacity:0.7;" x="136.715543" xlink:href="#m9a08b7133f" y="147.596155"/>
     <use style="fill:#d62728;fill-opacity:0.7;stroke:#d62728;stroke-opacity:0.7;" x="141.14956" xlink:href="#m9a08b7133f" y="107.416216"/>
     <use style="fill:#d62728;fill-opacity:0.7;stroke:#d62728;stroke-opacity:0.7;" x="145.583578" xlink:href="#m9a08b7133f" y="119.798235"/>
     <use style="fill:#d62728;fill-opacity:0.7;stroke:#d62728;stroke-opacity:0.7;" x="150.017595" xlink:href="#m9a08b7133f" y="113.620434"/>
     <use style="fill:#d62728;fill-opacity:0.7;stroke:#d62728;stroke-opacity:0.7;" x="154.451613" xlink:href="#m9a08b7133f" y="110.322762"/>
     <use style="fill:#d62728;fill-opacity:0.7;stroke:#d62728;stroke-opacity:0.7;" x="158.88563" xlink:href="#m9a08b7133f" y="113.736184"/>
     <use style="fill:#d62728;fill-opacity:0.7;stroke:#d62728;stroke-opacity:0.7;" x="163.319648" xlink:href="#m9a08b7133f" y="112.547159"/>
     <use style="fill:#d62728;fill-opacity:0.7;stroke:#d62728;stroke-opacity:0.7;" x="167.753666" xlink:href="#m9a08b7133f" y="101.068744"/>
     <use style="fill:#d62728;fill-opacity:0.7;stroke:#d62728;stroke-opacity:0.7;" x="172.187683" xlink:href="#m9a08b7133f" y="100.648945"/>
     <use style="fill:#d62728;fill-opacity:0.7;stroke:#d62728;stroke-opacity:0.7;" x="176.621701" xlink:href="#m9a08b7133f" y="106.125247"/>
     <use style="fill:#d62728;fill-opacity:0.7;stroke:#d62728;stroke-opacity:0.7;" x="181.055718" xlink:href="#m9a08b7133f" y="133.379038"/>
     <use style="fill:#d62728;fill-opacity:0.7;stroke:#d62728;stroke-opacity:0.7;" x="185.489736" xlink:href="#m9a08b7133f" y="130.358454"/>
     <use style="fill:#d62728;fill-opacity:0.7;stroke:#d62728;stroke-opacity:0.7;" x="189.923754" xlink:href="#m9a08b7133f" y="118.774775"/>
     <use style="fill:#d62728;fill-opacity:0.7;stroke:#d62728;stroke-opacity:0.7;" x="194.357771" xlink:href="#m9a08b7133f" y="115.531133"/>
     <use style="fill:#d62728;fill-opacity:0.7;stroke:#d62728;stroke-opacity:0.7;" x="198.791789" xlink:href="#m9a08b7133f" y="124.451072"/>
     <use style="fill:#d62728;fill-opacity:0.7;stroke:#d62728;stroke-opacity:0.7;" x="203.225806" xlink:href="#m9a08b7133f" y="120.648649"/>
     <use style="fill:#d62728;fill-opacity:0.7;stroke:#d62728;stroke-opacity:0.7;" x="207.659824" xlink:href="#m9a08b7133f" y="109.367543"/>
     <use style="fill:#d62728;fill-opacity:0.7;stroke:#d62728;stroke-opacity:0.7;" x="212.093842" xlink:href="#m9a08b7133f" y="105.431351"/>
     <use style="fill:#d62728;fill-opacity:0.7;stroke:#d62728;stroke-opacity:0.7;" x="216.527859" xlink:href="#m9a08b7133f" y="109.834326"/>
     <use style="fill:#d62728;fill-opacity:0.7;stroke:#d62728;stroke-opacity:0.7;" x="220.961877" xlink:href="#m9a08b7133f" y="107.873822"/>
     <use style="fill:#d62728;fill-opacity:0.7;stroke:#d62728;stroke-opacity:0.7;" x="225.395894" xlink:href="#m9a08b7133f" y="97.68702"/>
     <use style="fill:#d62728;fill-opacity:0.7;stroke:#d62728;stroke-opacity:0.7;" x="229.829912" xlink:href="#m9a08b7133f" y="100.13758"/>
     <use style="fill:#d62728;fill-opacity:0.7;stroke:#d62728;stroke-opacity:0.7;" x="234.26393" xlink:href="#m9a08b7133f" y="96.44298"/>
     <use style="fill:#d62728;fill-opacity:0.7;stroke:#d62728;stroke-opacity:0.7;" x="238.697947" xlink:href="#m9a08b7133f" y="113.904847"/>
     <use style="fill:#d62728;fill-opacity:0.7;stroke:#d62728;stroke-opacity:0.7;" x="243.131965" xlink:href="#m9a08b7133f" y="98.540607"/>
     <use style="fill:#d62728;fill-opacity:0.7;stroke:#d62728;stroke-opacity:0.7;" x="247.565982" xlink:href="#m9a08b7133f" y="84.166709"/>
     <use style="fill:#d62728;fill-opacity:0.7;stroke:#d62728;stroke-opacity:0.7;" x="252" xlink:href="#m9a08b7133f" y="87.083454"/>
     <use style="fill:#d62728;fill-opacity:0.7;stroke:#d62728;stroke-opacity:0.7;" x="256.434018" xlink:href="#m9a08b7133f" y="87.216885"/>
     <use style="fill:#d62728;fill-opacity:0.7;stroke:#d62728;stroke-opacity:0.7;" x="260.868035" xlink:href="#m9a08b7133f" y="90.289721"/>
     <use style="fill:#d62728;fill-opacity:0.7;stroke:#d62728;stroke-opacity:0.7;" x="265.302053" xlink:href="#m9a08b7133f" y="77.652018"/>
     <use style="fill:#d62728;fill-opacity:0.7;stroke:#d62728;stroke-opacity:0.7;" x="269.73607" xlink:href="#m9a08b7133f" y="78.895828"/>
     <use style="fill:#d62728;fill-opacity:0.7;stroke:#d62728;stroke-opacity:0.7;" x="274.170088" xlink:href="#m9a08b7133f" y="75.243243"/>
     <use style="fill:#d62728;fill-opacity:0.7;stroke:#d62728;stroke-opacity:0.7;" x="278.604106" xlink:href="#m9a08b7133f" y="81.817959"/>
     <use style="fill:#d62728;fill-opacity:0.7;stroke:#d62728;stroke-opacity:0.7;" x="283.038123" xlink:href="#m9a08b7133f" y="79.852172"/>
     <use style="fill:#d62728;fill-opacity:0.7;stroke:#d62728;stroke-opacity:0.7;" x="287.472141" xlink:href="#m9a08b7133f" y="74.770934"/>
     <use style="fill:#d62728;fill-opacity:0.7;stroke:#d62728;stroke-opacity:0.7;" x="291.906158" xlink:href="#m9a08b7133f" y="95.961275"/>
     <use style="fill:#d62728;fill-opacity:0.7;stroke:#d62728;stroke-opacity:0.7;" x="296.340176" xlink:href="#m9a08b7133f" y="84.183035"/>
     <use style="fill:#d62728;fill-opacity:0.7;stroke:#d62728;stroke-opacity:0.7;" x="300.774194" xlink:href="#m9a08b7133f" y="95.757231"/>
     <use style="fill:#d62728;fill-opacity:0.7;stroke:#d62728;stroke-opacity:0.7;" x="305.208211" xlink:href="#m9a08b7133f" y="84.062605"/>
     <use style="fill:#d62728;fill-opacity:0.7;stroke:#d62728;stroke-opacity:0.7;" x="309.642229" xlink:href="#m9a08b7133f" y="83.349857"/>
     <use style="fill:#d62728;fill-opacity:0.7;stroke:#d62728;stroke-opacity:0.7;" x="314.076246" xlink:href="#m9a08b7133f" y="84.278079"/>
     <use style="fill:#d62728;fill-opacity:0.7;stroke:#d62728;stroke-opacity:0.7;" x="318.510264" xlink:href="#m9a08b7133f" y="79.875544"/>
     <use style="fill:#d62728;fill-opacity:0.7;stroke:#d62728;stroke-opacity:0.7;" x="322.944282" xlink:href="#m9a08b7133f" y="94.082256"/>
     <use style="fill:#d62728;fill-opacity:0.7;stroke:#d62728;stroke-opacity:0.7;" x="327.378299" xlink:href="#m9a08b7133f" y="80.063269"/>
     <use style="fill:#d62728;fill-opacity:0.7;stroke:#d62728;stroke-opacity:0.7;" x="331.812317" xlink:href="#m9a08b7133f" y="78.213607"/>
     <use style="fill:#d62728;fill-opacity:0.7;stroke:#d62728;stroke-opacity:0.7;" x="336.246334" xlink:href="#m9a08b7133f" y="79.791537"/>
     <use style="fill:#d62728;fill-opacity:0.7;stroke:#d62728;stroke-opacity:0.7;" x="340.680352" xlink:href="#m9a08b7133f" y="87.401664"/>
     <use style="fill:#d62728;fill-opacity:0.7;stroke:#d62728;stroke-opacity:0.7;" x="345.11437" xlink:href="#m9a08b7133f" y="82.070711"/>
     <use style="fill:#d62728;fill-opacity:0.7;stroke:#d62728;stroke-opacity:0.7;" x="349.548387" xlink:href="#m9a08b7133f" y="91.066528"/>
     <use style="fill:#d62728;fill-opacity:0.7;stroke:#d62728;stroke-opacity:0.7;" x="353.982405" xlink:href="#m9a08b7133f" y="87.843703"/>
     <use style="fill:#d62728;fill-opacity:0.7;stroke:#d62728;stroke-opacity:0.7;" x="358.416422" xlink:href="#m9a08b7133f" y="93.48734"/>
     <use style="fill:#d62728;fill-opacity:0.7;stroke:#d62728;stroke-opacity:0.7;" x="362.85044" xlink:href="#m9a08b7133f" y="93.369944"/>
     <use style="fill:#d62728;fill-opacity:0.7;stroke:#d62728;stroke-opacity:0.7;" x="367.284457" xlink:href="#m9a08b7133f" y="79.611358"/>
     <use style="fill:#d62728;fill-opacity:0.7;stroke:#d62728;stroke-opacity:0.7;" x="371.718475" xlink:href="#m9a08b7133f" y="79.594179"/>
     <use style="fill:#d62728;fill-opacity:0.7;stroke:#d62728;stroke-opacity:0.7;" x="376.152493" xlink:href="#m9a08b7133f" y="83.854385"/>
     <use style="fill:#d62728;fill-opacity:0.7;stroke:#d62728;stroke-opacity:0.7;" x="380.58651" xlink:href="#m9a08b7133f" y="96.650847"/>
     <use style="fill:#d62728;fill-opacity:0.7;stroke:#d62728;stroke-opacity:0.7;" x="385.020528" xlink:href="#m9a08b7133f" y="105.441702"/>
     <use style="fill:#d62728;fill-opacity:0.7;stroke:#d62728;stroke-opacity:0.7;" x="389.454545" xlink:href="#m9a08b7133f" y="83.260875"/>
    </g>
   </g>
   <g id="patch_3">
    <path d="M 96.8 319.135135 
L 96.8 54.486486 
" style="fill:none;stroke:#000000;stroke-linecap:square;stroke-linejoin:miter;stroke-width:0.8;"/>
   </g>
   <g id="patch_4">
    <path d="M 407.2 319.135135 
L 407.2 54.486486 
" style="fill:none;stroke:#000000;stroke-linecap:square;stroke-linejoin:miter;stroke-width:0.8;"/>
   </g>
   <g id="patch_5">
    <path d="M 114.545455 349.6 
L 380.58651 349.6 
" style="fill:none;stroke:#000000;stroke-linecap:square;stroke-linejoin:miter;stroke-width:0.8;"/>
   </g>
   <g id="text_16">
    <!-- AK12 -->
    <defs>
     <path d="M 34.1875 63.1875 
L 20.796875 26.90625 
L 47.609375 26.90625 
z
M 28.609375 72.90625 
L 39.796875 72.90625 
L 67.578125 0 
L 57.328125 0 
L 50.6875 18.703125 
L 17.828125 18.703125 
L 11.1875 0 
L 0.78125 0 
z
" id="DejaVuSans-41"/>
     <path d="M 9.8125 72.90625 
L 19.671875 72.90625 
L 19.671875 42.09375 
L 52.390625 72.90625 
L 65.09375 72.90625 
L 28.90625 38.921875 
L 67.671875 0 
L 54.6875 0 
L 19.671875 35.109375 
L 19.671875 0 
L 9.8125 0 
z
" id="DejaVuSans-4b"/>
    </defs>
    <g transform="translate(100.8 45.84)scale(0.24 -0.24)">
     <use xlink:href="#DejaVuSans-41"/>
     <use x="68.408203" xlink:href="#DejaVuSans-4b"/>
     <use x="133.984375" xlink:href="#DejaVuSans-31"/>
     <use x="197.607422" xlink:href="#DejaVuSans-32"/>
    </g>
   </g>
  </g>
  <g id="axes_2">
   <g id="matplotlib.axis_3">
    <g id="ytick_7">
     <g id="line2d_15">
      <defs>
       <path d="M 0 0 
L 3.5 0 
" id="mb727940013" style="stroke:#000000;stroke-width:0.8;"/>
      </defs>
      <g>
       <use style="stroke:#000000;stroke-width:0.8;" x="407.2" xlink:href="#mb727940013" y="309.435544"/>
      </g>
     </g>
     <g id="text_17">
      <!-- 250 -->
      <g style="fill:#cccccc;" transform="translate(414.2 317.033982)scale(0.2 -0.2)">
       <use xlink:href="#DejaVuSans-32"/>
       <use x="63.623047" xlink:href="#DejaVuSans-35"/>
       <use x="127.246094" xlink:href="#DejaVuSans-30"/>
      </g>
     </g>
    </g>
    <g id="ytick_8">
     <g id="line2d_16">
      <g>
       <use style="stroke:#000000;stroke-width:0.8;" x="407.2" xlink:href="#mb727940013" y="260.272336"/>
      </g>
     </g>
     <g id="text_18">
      <!-- 500 -->
      <g style="fill:#cccccc;" transform="translate(414.2 267.870774)scale(0.2 -0.2)">
       <use xlink:href="#DejaVuSans-35"/>
       <use x="63.623047" xlink:href="#DejaVuSans-30"/>
       <use x="127.246094" xlink:href="#DejaVuSans-30"/>
      </g>
     </g>
    </g>
    <g id="ytick_9">
     <g id="line2d_17">
      <g>
       <use style="stroke:#000000;stroke-width:0.8;" x="407.2" xlink:href="#mb727940013" y="211.109128"/>
      </g>
     </g>
     <g id="text_19">
      <!-- 750 -->
      <defs>
       <path d="M 8.203125 72.90625 
L 55.078125 72.90625 
L 55.078125 68.703125 
L 28.609375 0 
L 18.3125 0 
L 43.21875 64.59375 
L 8.203125 64.59375 
z
" id="DejaVuSans-37"/>
      </defs>
      <g style="fill:#cccccc;" transform="translate(414.2 218.707566)scale(0.2 -0.2)">
       <use xlink:href="#DejaVuSans-37"/>
       <use x="63.623047" xlink:href="#DejaVuSans-35"/>
       <use x="127.246094" xlink:href="#DejaVuSans-30"/>
      </g>
     </g>
    </g>
    <g id="ytick_10">
     <g id="line2d_18">
      <g>
       <use style="stroke:#000000;stroke-width:0.8;" x="407.2" xlink:href="#mb727940013" y="161.94592"/>
      </g>
     </g>
     <g id="text_20">
      <!-- 1000 -->
      <g style="fill:#cccccc;" transform="translate(414.2 169.544358)scale(0.2 -0.2)">
       <use xlink:href="#DejaVuSans-31"/>
       <use x="63.623047" xlink:href="#DejaVuSans-30"/>
       <use x="127.246094" xlink:href="#DejaVuSans-30"/>
       <use x="190.869141" xlink:href="#DejaVuSans-30"/>
      </g>
     </g>
    </g>
    <g id="ytick_11">
     <g id="line2d_19">
      <g>
       <use style="stroke:#000000;stroke-width:0.8;" x="407.2" xlink:href="#mb727940013" y="112.782713"/>
      </g>
     </g>
     <g id="text_21">
      <!-- 1250 -->
      <g style="fill:#cccccc;" transform="translate(414.2 120.38115)scale(0.2 -0.2)">
       <use xlink:href="#DejaVuSans-31"/>
       <use x="63.623047" xlink:href="#DejaVuSans-32"/>
       <use x="127.246094" xlink:href="#DejaVuSans-35"/>
       <use x="190.869141" xlink:href="#DejaVuSans-30"/>
      </g>
     </g>
    </g>
    <g id="ytick_12">
     <g id="line2d_20">
      <g>
       <use style="stroke:#000000;stroke-width:0.8;" x="407.2" xlink:href="#mb727940013" y="63.619505"/>
      </g>
     </g>
     <g id="text_22">
      <!-- 1500 -->
      <g style="fill:#cccccc;" transform="translate(414.2 71.217942)scale(0.2 -0.2)">
       <use xlink:href="#DejaVuSans-31"/>
       <use x="63.623047" xlink:href="#DejaVuSans-35"/>
       <use x="127.246094" xlink:href="#DejaVuSans-30"/>
       <use x="190.869141" xlink:href="#DejaVuSans-30"/>
      </g>
     </g>
    </g>
    <g id="text_23">
     <!-- N trials -->
     <defs>
      <path d="M 9.8125 72.90625 
L 23.09375 72.90625 
L 55.421875 11.921875 
L 55.421875 72.90625 
L 64.984375 72.90625 
L 64.984375 0 
L 51.703125 0 
L 19.390625 60.984375 
L 19.390625 0 
L 9.8125 0 
z
" id="DejaVuSans-4e"/>
      <path id="DejaVuSans-20"/>
      <path d="M 18.3125 70.21875 
L 18.3125 54.6875 
L 36.8125 54.6875 
L 36.8125 47.703125 
L 18.3125 47.703125 
L 18.3125 18.015625 
Q 18.3125 11.328125 20.140625 9.421875 
Q 21.96875 7.515625 27.59375 7.515625 
L 36.8125 7.515625 
L 36.8125 0 
L 27.59375 0 
Q 17.1875 0 13.234375 3.875 
Q 9.28125 7.765625 9.28125 18.015625 
L 9.28125 47.703125 
L 2.6875 47.703125 
L 2.6875 54.6875 
L 9.28125 54.6875 
L 9.28125 70.21875 
z
" id="DejaVuSans-74"/>
      <path d="M 9.421875 75.984375 
L 18.40625 75.984375 
L 18.40625 0 
L 9.421875 0 
z
" id="DejaVuSans-6c"/>
     </defs>
     <g style="fill:#cccccc;" transform="translate(487.33625 241.42125)rotate(-90)scale(0.24 -0.24)">
      <use xlink:href="#DejaVuSans-4e"/>
      <use x="74.804688" xlink:href="#DejaVuSans-20"/>
      <use x="106.591797" xlink:href="#DejaVuSans-74"/>
      <use x="145.800781" xlink:href="#DejaVuSans-72"/>
      <use x="186.914062" xlink:href="#DejaVuSans-69"/>
      <use x="214.697266" xlink:href="#DejaVuSans-61"/>
      <use x="275.976562" xlink:href="#DejaVuSans-6c"/>
      <use x="303.759766" xlink:href="#DejaVuSans-73"/>
     </g>
    </g>
   </g>
   <g id="line2d_21">
    <path clip-path="url(#p8702df5c54)" d="M 114.545455 237.657261 
L 118.979472 229.791147 
L 123.41349 196.950125 
L 127.847507 162.339226 
L 132.281525 65.192727 
L 136.715543 99.803626 
L 141.14956 297.636374 
L 145.583578 282.100801 
L 150.017595 197.540083 
L 154.451613 290.556872 
L 158.88563 332.247273 
L 163.319648 281.510842 
L 167.753666 155.259724 
L 172.187683 143.263901 
L 176.621701 197.34343 
L 181.055718 286.033857 
L 185.489736 243.360193 
L 189.923754 178.071453 
L 194.357771 216.222102 
L 198.791789 204.619585 
L 203.225806 257.912502 
L 207.659824 273.251423 
L 212.093842 201.276487 
L 216.527859 164.895713 
L 220.961877 222.121687 
L 225.395894 215.238838 
L 229.829912 195.573555 
L 234.26393 213.468962 
L 238.697947 215.828796 
L 243.131965 197.933389 
L 247.565982 253.389487 
L 252 197.34343 
L 256.434018 191.640498 
L 260.868035 217.598672 
L 265.302053 210.322517 
L 269.73607 196.556819 
L 274.170088 218.18863 
L 278.604106 202.456404 
L 283.038123 235.49408 
L 287.472141 194.393638 
L 291.906158 226.841355 
L 296.340176 179.841328 
L 300.774194 257.71585 
L 305.208211 223.104951 
L 309.642229 230.577759 
L 314.076246 253.782793 
L 318.510264 237.657261 
L 322.944282 204.816238 
L 327.378299 212.092393 
L 331.812317 216.025449 
L 336.246334 210.51917 
L 340.680352 162.535879 
L 345.11437 228.414578 
L 349.548387 194.983596 
L 353.982405 123.00866 
L 358.416422 227.824619 
L 362.85044 185.937566 
L 367.284457 203.243015 
L 371.718475 205.209543 
L 376.152493 204.422932 
L 380.58651 242.573581 
L 385.020528 195.180249 
L 389.454545 221.138423 
" style="fill:none;stroke:#cccccc;stroke-linecap:square;stroke-opacity:0.7;"/>
    <defs>
     <path d="M 0 2.5 
C 0.663008 2.5 1.29895 2.236584 1.767767 1.767767 
C 2.236584 1.29895 2.5 0.663008 2.5 0 
C 2.5 -0.663008 2.236584 -1.29895 1.767767 -1.767767 
C 1.29895 -2.236584 0.663008 -2.5 0 -2.5 
C -0.663008 -2.5 -1.29895 -2.236584 -1.767767 -1.767767 
C -2.236584 -1.29895 -2.5 -0.663008 -2.5 0 
C -2.5 0.663008 -2.236584 1.29895 -1.767767 1.767767 
C -1.29895 2.236584 -0.663008 2.5 0 2.5 
z
" id="m12a0b2f156" style="stroke:#cccccc;stroke-opacity:0.7;"/>
    </defs>
    <g clip-path="url(#p8702df5c54)">
     <use style="fill:#cccccc;fill-opacity:0.7;stroke:#cccccc;stroke-opacity:0.7;" x="114.545455" xlink:href="#m12a0b2f156" y="237.657261"/>
     <use style="fill:#cccccc;fill-opacity:0.7;stroke:#cccccc;stroke-opacity:0.7;" x="118.979472" xlink:href="#m12a0b2f156" y="229.791147"/>
     <use style="fill:#cccccc;fill-opacity:0.7;stroke:#cccccc;stroke-opacity:0.7;" x="123.41349" xlink:href="#m12a0b2f156" y="196.950125"/>
     <use style="fill:#cccccc;fill-opacity:0.7;stroke:#cccccc;stroke-opacity:0.7;" x="127.847507" xlink:href="#m12a0b2f156" y="162.339226"/>
     <use style="fill:#cccccc;fill-opacity:0.7;stroke:#cccccc;stroke-opacity:0.7;" x="132.281525" xlink:href="#m12a0b2f156" y="65.192727"/>
     <use style="fill:#cccccc;fill-opacity:0.7;stroke:#cccccc;stroke-opacity:0.7;" x="136.715543" xlink:href="#m12a0b2f156" y="99.803626"/>
     <use style="fill:#cccccc;fill-opacity:0.7;stroke:#cccccc;stroke-opacity:0.7;" x="141.14956" xlink:href="#m12a0b2f156" y="297.636374"/>
     <use style="fill:#cccccc;fill-opacity:0.7;stroke:#cccccc;stroke-opacity:0.7;" x="145.583578" xlink:href="#m12a0b2f156" y="282.100801"/>
     <use style="fill:#cccccc;fill-opacity:0.7;stroke:#cccccc;stroke-opacity:0.7;" x="150.017595" xlink:href="#m12a0b2f156" y="197.540083"/>
     <use style="fill:#cccccc;fill-opacity:0.7;stroke:#cccccc;stroke-opacity:0.7;" x="154.451613" xlink:href="#m12a0b2f156" y="290.556872"/>
     <use style="fill:#cccccc;fill-opacity:0.7;stroke:#cccccc;stroke-opacity:0.7;" x="158.88563" xlink:href="#m12a0b2f156" y="332.247273"/>
     <use style="fill:#cccccc;fill-opacity:0.7;stroke:#cccccc;stroke-opacity:0.7;" x="163.319648" xlink:href="#m12a0b2f156" y="281.510842"/>
     <use style="fill:#cccccc;fill-opacity:0.7;stroke:#cccccc;stroke-opacity:0.7;" x="167.753666" xlink:href="#m12a0b2f156" y="155.259724"/>
     <use style="fill:#cccccc;fill-opacity:0.7;stroke:#cccccc;stroke-opacity:0.7;" x="172.187683" xlink:href="#m12a0b2f156" y="143.263901"/>
     <use style="fill:#cccccc;fill-opacity:0.7;stroke:#cccccc;stroke-opacity:0.7;" x="176.621701" xlink:href="#m12a0b2f156" y="197.34343"/>
     <use style="fill:#cccccc;fill-opacity:0.7;stroke:#cccccc;stroke-opacity:0.7;" x="181.055718" xlink:href="#m12a0b2f156" y="286.033857"/>
     <use style="fill:#cccccc;fill-opacity:0.7;stroke:#cccccc;stroke-opacity:0.7;" x="185.489736" xlink:href="#m12a0b2f156" y="243.360193"/>
     <use style="fill:#cccccc;fill-opacity:0.7;stroke:#cccccc;stroke-opacity:0.7;" x="189.923754" xlink:href="#m12a0b2f156" y="178.071453"/>
     <use style="fill:#cccccc;fill-opacity:0.7;stroke:#cccccc;stroke-opacity:0.7;" x="194.357771" xlink:href="#m12a0b2f156" y="216.222102"/>
     <use style="fill:#cccccc;fill-opacity:0.7;stroke:#cccccc;stroke-opacity:0.7;" x="198.791789" xlink:href="#m12a0b2f156" y="204.619585"/>
     <use style="fill:#cccccc;fill-opacity:0.7;stroke:#cccccc;stroke-opacity:0.7;" x="203.225806" xlink:href="#m12a0b2f156" y="257.912502"/>
     <use style="fill:#cccccc;fill-opacity:0.7;stroke:#cccccc;stroke-opacity:0.7;" x="207.659824" xlink:href="#m12a0b2f156" y="273.251423"/>
     <use style="fill:#cccccc;fill-opacity:0.7;stroke:#cccccc;stroke-opacity:0.7;" x="212.093842" xlink:href="#m12a0b2f156" y="201.276487"/>
     <use style="fill:#cccccc;fill-opacity:0.7;stroke:#cccccc;stroke-opacity:0.7;" x="216.527859" xlink:href="#m12a0b2f156" y="164.895713"/>
     <use style="fill:#cccccc;fill-opacity:0.7;stroke:#cccccc;stroke-opacity:0.7;" x="220.961877" xlink:href="#m12a0b2f156" y="222.121687"/>
     <use style="fill:#cccccc;fill-opacity:0.7;stroke:#cccccc;stroke-opacity:0.7;" x="225.395894" xlink:href="#m12a0b2f156" y="215.238838"/>
     <use style="fill:#cccccc;fill-opacity:0.7;stroke:#cccccc;stroke-opacity:0.7;" x="229.829912" xlink:href="#m12a0b2f156" y="195.573555"/>
     <use style="fill:#cccccc;fill-opacity:0.7;stroke:#cccccc;stroke-opacity:0.7;" x="234.26393" xlink:href="#m12a0b2f156" y="213.468962"/>
     <use style="fill:#cccccc;fill-opacity:0.7;stroke:#cccccc;stroke-opacity:0.7;" x="238.697947" xlink:href="#m12a0b2f156" y="215.828796"/>
     <use style="fill:#cccccc;fill-opacity:0.7;stroke:#cccccc;stroke-opacity:0.7;" x="243.131965" xlink:href="#m12a0b2f156" y="197.933389"/>
     <use style="fill:#cccccc;fill-opacity:0.7;stroke:#cccccc;stroke-opacity:0.7;" x="247.565982" xlink:href="#m12a0b2f156" y="253.389487"/>
     <use style="fill:#cccccc;fill-opacity:0.7;stroke:#cccccc;stroke-opacity:0.7;" x="252" xlink:href="#m12a0b2f156" y="197.34343"/>
     <use style="fill:#cccccc;fill-opacity:0.7;stroke:#cccccc;stroke-opacity:0.7;" x="256.434018" xlink:href="#m12a0b2f156" y="191.640498"/>
     <use style="fill:#cccccc;fill-opacity:0.7;stroke:#cccccc;stroke-opacity:0.7;" x="260.868035" xlink:href="#m12a0b2f156" y="217.598672"/>
     <use style="fill:#cccccc;fill-opacity:0.7;stroke:#cccccc;stroke-opacity:0.7;" x="265.302053" xlink:href="#m12a0b2f156" y="210.322517"/>
     <use style="fill:#cccccc;fill-opacity:0.7;stroke:#cccccc;stroke-opacity:0.7;" x="269.73607" xlink:href="#m12a0b2f156" y="196.556819"/>
     <use style="fill:#cccccc;fill-opacity:0.7;stroke:#cccccc;stroke-opacity:0.7;" x="274.170088" xlink:href="#m12a0b2f156" y="218.18863"/>
     <use style="fill:#cccccc;fill-opacity:0.7;stroke:#cccccc;stroke-opacity:0.7;" x="278.604106" xlink:href="#m12a0b2f156" y="202.456404"/>
     <use style="fill:#cccccc;fill-opacity:0.7;stroke:#cccccc;stroke-opacity:0.7;" x="283.038123" xlink:href="#m12a0b2f156" y="235.49408"/>
     <use style="fill:#cccccc;fill-opacity:0.7;stroke:#cccccc;stroke-opacity:0.7;" x="287.472141" xlink:href="#m12a0b2f156" y="194.393638"/>
     <use style="fill:#cccccc;fill-opacity:0.7;stroke:#cccccc;stroke-opacity:0.7;" x="291.906158" xlink:href="#m12a0b2f156" y="226.841355"/>
     <use style="fill:#cccccc;fill-opacity:0.7;stroke:#cccccc;stroke-opacity:0.7;" x="296.340176" xlink:href="#m12a0b2f156" y="179.841328"/>
     <use style="fill:#cccccc;fill-opacity:0.7;stroke:#cccccc;stroke-opacity:0.7;" x="300.774194" xlink:href="#m12a0b2f156" y="257.71585"/>
     <use style="fill:#cccccc;fill-opacity:0.7;stroke:#cccccc;stroke-opacity:0.7;" x="305.208211" xlink:href="#m12a0b2f156" y="223.104951"/>
     <use style="fill:#cccccc;fill-opacity:0.7;stroke:#cccccc;stroke-opacity:0.7;" x="309.642229" xlink:href="#m12a0b2f156" y="230.577759"/>
     <use style="fill:#cccccc;fill-opacity:0.7;stroke:#cccccc;stroke-opacity:0.7;" x="314.076246" xlink:href="#m12a0b2f156" y="253.782793"/>
     <use style="fill:#cccccc;fill-opacity:0.7;stroke:#cccccc;stroke-opacity:0.7;" x="318.510264" xlink:href="#m12a0b2f156" y="237.657261"/>
     <use style="fill:#cccccc;fill-opacity:0.7;stroke:#cccccc;stroke-opacity:0.7;" x="322.944282" xlink:href="#m12a0b2f156" y="204.816238"/>
     <use style="fill:#cccccc;fill-opacity:0.7;stroke:#cccccc;stroke-opacity:0.7;" x="327.378299" xlink:href="#m12a0b2f156" y="212.092393"/>
     <use style="fill:#cccccc;fill-opacity:0.7;stroke:#cccccc;stroke-opacity:0.7;" x="331.812317" xlink:href="#m12a0b2f156" y="216.025449"/>
     <use style="fill:#cccccc;fill-opacity:0.7;stroke:#cccccc;stroke-opacity:0.7;" x="336.246334" xlink:href="#m12a0b2f156" y="210.51917"/>
     <use style="fill:#cccccc;fill-opacity:0.7;stroke:#cccccc;stroke-opacity:0.7;" x="340.680352" xlink:href="#m12a0b2f156" y="162.535879"/>
     <use style="fill:#cccccc;fill-opacity:0.7;stroke:#cccccc;stroke-opacity:0.7;" x="345.11437" xlink:href="#m12a0b2f156" y="228.414578"/>
     <use style="fill:#cccccc;fill-opacity:0.7;stroke:#cccccc;stroke-opacity:0.7;" x="349.548387" xlink:href="#m12a0b2f156" y="194.983596"/>
     <use style="fill:#cccccc;fill-opacity:0.7;stroke:#cccccc;stroke-opacity:0.7;" x="353.982405" xlink:href="#m12a0b2f156" y="123.00866"/>
     <use style="fill:#cccccc;fill-opacity:0.7;stroke:#cccccc;stroke-opacity:0.7;" x="358.416422" xlink:href="#m12a0b2f156" y="227.824619"/>
     <use style="fill:#cccccc;fill-opacity:0.7;stroke:#cccccc;stroke-opacity:0.7;" x="362.85044" xlink:href="#m12a0b2f156" y="185.937566"/>
     <use style="fill:#cccccc;fill-opacity:0.7;stroke:#cccccc;stroke-opacity:0.7;" x="367.284457" xlink:href="#m12a0b2f156" y="203.243015"/>
     <use style="fill:#cccccc;fill-opacity:0.7;stroke:#cccccc;stroke-opacity:0.7;" x="371.718475" xlink:href="#m12a0b2f156" y="205.209543"/>
     <use style="fill:#cccccc;fill-opacity:0.7;stroke:#cccccc;stroke-opacity:0.7;" x="376.152493" xlink:href="#m12a0b2f156" y="204.422932"/>
     <use style="fill:#cccccc;fill-opacity:0.7;stroke:#cccccc;stroke-opacity:0.7;" x="380.58651" xlink:href="#m12a0b2f156" y="242.573581"/>
     <use style="fill:#cccccc;fill-opacity:0.7;stroke:#cccccc;stroke-opacity:0.7;" x="385.020528" xlink:href="#m12a0b2f156" y="195.180249"/>
     <use style="fill:#cccccc;fill-opacity:0.7;stroke:#cccccc;stroke-opacity:0.7;" x="389.454545" xlink:href="#m12a0b2f156" y="221.138423"/>
    </g>
   </g>
   <g id="patch_6">
    <path d="M 96.8 309.435544 
L 96.8 63.619505 
" style="fill:none;stroke:#000000;stroke-linecap:square;stroke-linejoin:miter;stroke-width:0.8;"/>
   </g>
   <g id="patch_7">
    <path d="M 407.2 309.435544 
L 407.2 63.619505 
" style="fill:none;stroke:#000000;stroke-linecap:square;stroke-linejoin:miter;stroke-width:0.8;"/>
   </g>
   <g id="patch_8">
    <path d="M 114.545455 349.6 
L 380.58651 349.6 
" style="fill:none;stroke:#000000;stroke-linecap:square;stroke-linejoin:miter;stroke-width:0.8;"/>
   </g>
  </g>
 </g>
 <defs>
  <clipPath id="p8702df5c54">
   <rect height="293.76" width="302.4" x="100.8" y="51.84"/>
  </clipPath>
 </defs>
</svg>
