<?xml version="1.0" encoding="utf-8" standalone="no"?>
<!DOCTYPE svg PUBLIC "-//W3C//DTD SVG 1.1//EN"
  "http://www.w3.org/Graphics/SVG/1.1/DTD/svg11.dtd">
<!-- Created with matplotlib (https://matplotlib.org/) -->
<svg height="288pt" version="1.1" viewBox="0 0 360 288" width="360pt" xmlns="http://www.w3.org/2000/svg" xmlns:xlink="http://www.w3.org/1999/xlink">
 <metadata>
  <rdf:RDF xmlns:cc="http://creativecommons.org/ns#" xmlns:dc="http://purl.org/dc/elements/1.1/" xmlns:rdf="http://www.w3.org/1999/02/22-rdf-syntax-ns#">
   <cc:Work>
    <dc:type rdf:resource="http://purl.org/dc/dcmitype/StillImage"/>
    <dc:date>2021-05-09T19:25:26.095061</dc:date>
    <dc:format>image/svg+xml</dc:format>
    <dc:creator>
     <cc:Agent>
      <dc:title>Matplotlib v3.3.4, https://matplotlib.org/</dc:title>
     </cc:Agent>
    </dc:creator>
   </cc:Work>
  </rdf:RDF>
 </metadata>
 <defs>
  <style type="text/css">*{stroke-linecap:butt;stroke-linejoin:round;}</style>
 </defs>
 <g id="figure_1">
  <g id="patch_1">
   <path d="M 0 288 
L 360 288 
L 360 0 
L 0 0 
z
" style="fill:#ffffff;"/>
  </g>
  <g id="axes_1">
   <g id="patch_2">
    <path d="M 54 230.4 
L 324 230.4 
L 324 57.6 
L 54 57.6 
z
" style="fill:#ffffff;"/>
   </g>
   <g id="PathCollection_1"/>
   <g id="PathCollection_2"/>
   <g id="PathCollection_3"/>
   <g id="PathCollection_4">
    <defs>
     <path d="M 0 3.383948 
C 0.897434 3.383948 1.758231 3.027394 2.392813 2.392813 
C 3.027394 1.758231 3.383948 0.897434 3.383948 -0 
C 3.383948 -0.897434 3.027394 -1.758231 2.392813 -2.392813 
C 1.758231 -3.027394 0.897434 -3.383948 0 -3.383948 
C -0.897434 -3.383948 -1.758231 -3.027394 -2.392813 -2.392813 
C -3.027394 -1.758231 -3.383948 -0.897434 -3.383948 0 
C -3.383948 0.897434 -3.027394 1.758231 -2.392813 2.392813 
C -1.758231 3.027394 -0.897434 3.383948 0 3.383948 
z
" id="C0_0_43129c283e"/>
    </defs>
    <g clip-path="url(#p5bb3daf343)">
     <use style="stroke:#000000;stroke-width:2.025;" x="99" xlink:href="#C0_0_43129c283e" y="170.819924"/>
    </g>
    <g clip-path="url(#p5bb3daf343)">
     <use style="stroke:#000000;stroke-width:2.025;" x="189" xlink:href="#C0_0_43129c283e" y="169.734422"/>
    </g>
    <g clip-path="url(#p5bb3daf343)">
     <use style="stroke:#000000;stroke-width:2.025;" x="279" xlink:href="#C0_0_43129c283e" y="157.154628"/>
    </g>
   </g>
   <g id="matplotlib.axis_1">
    <g id="xtick_1">
     <g id="line2d_1"/>
     <g id="text_1">
      <text style="font-family:DejaVu Sans;font-size:6px;font-stretch:normal;font-style:normal;font-weight:normal;text-anchor:middle;" transform="rotate(-0, 99, 238.459063)" x="99" y="238.459063">V1</text>
     </g>
    </g>
    <g id="xtick_2">
     <g id="line2d_2"/>
     <g id="text_2">
      <text style="font-family:DejaVu Sans;font-size:6px;font-stretch:normal;font-style:normal;font-weight:normal;text-anchor:middle;" transform="rotate(-0, 189, 238.459063)" x="189" y="238.459063">Lm</text>
     </g>
    </g>
    <g id="xtick_3">
     <g id="line2d_3"/>
     <g id="text_3">
      <text style="font-family:DejaVu Sans;font-size:6px;font-stretch:normal;font-style:normal;font-weight:normal;text-anchor:middle;" transform="rotate(-0, 279, 238.459063)" x="279" y="238.459063">Li</text>
     </g>
    </g>
   </g>
   <g id="matplotlib.axis_2">
    <g id="ytick_1">
     <g id="line2d_4">
      <defs>
       <path d="M 0 0 
L -3.5 0 
" id="mc3503c3ea5" style="stroke:#000000;stroke-width:0.25;"/>
      </defs>
      <g>
       <use style="stroke:#000000;stroke-width:0.25;" x="52" xlink:href="#mc3503c3ea5" y="222.545455"/>
      </g>
     </g>
     <g id="text_4">
      <text style="font-family:DejaVu Sans;font-size:6px;font-stretch:normal;font-style:normal;font-weight:normal;text-anchor:end;" transform="rotate(-0, 45, 224.824986)" x="45" y="224.824986">0.00</text>
     </g>
    </g>
    <g id="ytick_2">
     <g id="line2d_5">
      <g>
       <use style="stroke:#000000;stroke-width:0.25;" x="52" xlink:href="#mc3503c3ea5" y="196.262937"/>
      </g>
     </g>
     <g id="text_5">
      <text style="font-family:DejaVu Sans;font-size:6px;font-stretch:normal;font-style:normal;font-weight:normal;text-anchor:end;" transform="rotate(-0, 45, 198.542468)" x="45" y="198.542468">0.05</text>
     </g>
    </g>
    <g id="ytick_3">
     <g id="line2d_6">
      <g>
       <use style="stroke:#000000;stroke-width:0.25;" x="52" xlink:href="#mc3503c3ea5" y="169.98042"/>
      </g>
     </g>
     <g id="text_6">
      <text style="font-family:DejaVu Sans;font-size:6px;font-stretch:normal;font-style:normal;font-weight:normal;text-anchor:end;" transform="rotate(-0, 45, 172.259951)" x="45" y="172.259951">0.10</text>
     </g>
    </g>
    <g id="ytick_4">
     <g id="line2d_7">
      <g>
       <use style="stroke:#000000;stroke-width:0.25;" x="52" xlink:href="#mc3503c3ea5" y="143.697902"/>
      </g>
     </g>
     <g id="text_7">
      <text style="font-family:DejaVu Sans;font-size:6px;font-stretch:normal;font-style:normal;font-weight:normal;text-anchor:end;" transform="rotate(-0, 45, 145.977433)" x="45" y="145.977433">0.15</text>
     </g>
    </g>
    <g id="ytick_5">
     <g id="line2d_8">
      <g>
       <use style="stroke:#000000;stroke-width:0.25;" x="52" xlink:href="#mc3503c3ea5" y="117.415385"/>
      </g>
     </g>
     <g id="text_8">
      <text style="font-family:DejaVu Sans;font-size:6px;font-stretch:normal;font-style:normal;font-weight:normal;text-anchor:end;" transform="rotate(-0, 45, 119.694916)" x="45" y="119.694916">0.20</text>
     </g>
    </g>
    <g id="ytick_6">
     <g id="line2d_9">
      <g>
       <use style="stroke:#000000;stroke-width:0.25;" x="52" xlink:href="#mc3503c3ea5" y="91.132867"/>
      </g>
     </g>
     <g id="text_9">
      <text style="font-family:DejaVu Sans;font-size:6px;font-stretch:normal;font-style:normal;font-weight:normal;text-anchor:end;" transform="rotate(-0, 45, 93.412398)" x="45" y="93.412398">0.25</text>
     </g>
    </g>
    <g id="ytick_7">
     <g id="line2d_10">
      <g>
       <use style="stroke:#000000;stroke-width:0.25;" x="52" xlink:href="#mc3503c3ea5" y="64.85035"/>
      </g>
     </g>
     <g id="text_10">
      <text style="font-family:DejaVu Sans;font-size:6px;font-stretch:normal;font-style:normal;font-weight:normal;text-anchor:end;" transform="rotate(-0, 45, 67.129881)" x="45" y="67.129881">0.30</text>
     </g>
    </g>
    <g id="text_11">
     <text style="font-family:DejaVu Sans;font-size:6px;font-stretch:normal;font-style:normal;font-weight:normal;text-anchor:middle;" transform="rotate(-90, 26.225938, 144)" x="26.225938" y="144">sig_lum</text>
    </g>
   </g>
   <g id="line2d_11">
    <path clip-path="url(#p5bb3daf343)" d="M 99 193.185192 
L 99 149.824586 
" style="fill:none;stroke:#000000;stroke-linecap:square;stroke-width:2.7;"/>
   </g>
   <g id="line2d_12">
    <path clip-path="url(#p5bb3daf343)" d="M 189 197.439739 
L 189 142.988256 
" style="fill:none;stroke:#000000;stroke-linecap:square;stroke-width:2.7;"/>
   </g>
   <g id="line2d_13">
    <path clip-path="url(#p5bb3daf343)" d="M 279 184.702821 
L 279 127.745427 
" style="fill:none;stroke:#000000;stroke-linecap:square;stroke-width:2.7;"/>
   </g>
   <g id="patch_3">
    <path d="M 52 222.545455 
L 52 64.85035 
" style="fill:none;stroke:#000000;stroke-linecap:square;stroke-linejoin:miter;stroke-width:0.25;"/>
   </g>
   <g id="PathCollection_5">
    <defs>
     <path d="M 0 2.5 
C 0.663008 2.5 1.29895 2.236584 1.767767 1.767767 
C 2.236584 1.29895 2.5 0.663008 2.5 -0 
C 2.5 -0.663008 2.236584 -1.29895 1.767767 -1.767767 
C 1.29895 -2.236584 0.663008 -2.5 0 -2.5 
C -0.663008 -2.5 -1.29895 -2.236584 -1.767767 -1.767767 
C -2.236584 -1.29895 -2.5 -0.663008 -2.5 0 
C -2.5 0.663008 -2.236584 1.29895 -1.767767 1.767767 
C -1.29895 2.236584 -0.663008 2.5 0 2.5 
z
" id="C1_0_eecfa9444a"/>
    </defs>
    <g clip-path="url(#p5bb3daf343)">
     <use style="fill:#ff00ff;" x="100.86484" xlink:href="#C1_0_eecfa9444a" y="222.545455"/>
    </g>
    <g clip-path="url(#p5bb3daf343)">
     <use style="fill:#ff00ff;" x="92.840335" xlink:href="#C1_0_eecfa9444a" y="179.192848"/>
    </g>
    <g clip-path="url(#p5bb3daf343)">
     <use style="fill:#ff00ff;" x="100.749583" xlink:href="#C1_0_eecfa9444a" y="222.545455"/>
    </g>
    <g clip-path="url(#p5bb3daf343)">
     <use style="fill:#ff00ff;" x="105.639769" xlink:href="#C1_0_eecfa9444a" y="143.943533"/>
    </g>
    <g clip-path="url(#p5bb3daf343)">
     <use style="fill:#ff00ff;" x="101.9766" xlink:href="#C1_0_eecfa9444a" y="148.078322"/>
    </g>
    <g clip-path="url(#p5bb3daf343)">
     <use style="fill:#ff00ff;" x="103.888043" xlink:href="#C1_0_eecfa9444a" y="156.839161"/>
    </g>
    <g clip-path="url(#p5bb3daf343)">
     <use style="fill:#ff00ff;" x="92.538642" xlink:href="#C1_0_eecfa9444a" y="177.998815"/>
    </g>
    <g clip-path="url(#p5bb3daf343)">
     <use style="fill:#ff00ff;" x="94.694275" xlink:href="#C1_0_eecfa9444a" y="112.587983"/>
    </g>
    <g clip-path="url(#p5bb3daf343)">
     <use style="fill:#ff00ff;" x="95.440813" xlink:href="#C1_0_eecfa9444a" y="173.647748"/>
    </g>
   </g>
   <g id="PathCollection_6">
    <defs>
     <path d="M 0 2.5 
C 0.663008 2.5 1.29895 2.236584 1.767767 1.767767 
C 2.236584 1.29895 2.5 0.663008 2.5 -0 
C 2.5 -0.663008 2.236584 -1.29895 1.767767 -1.767767 
C 1.29895 -2.236584 0.663008 -2.5 0 -2.5 
C -0.663008 -2.5 -1.29895 -2.236584 -1.767767 -1.767767 
C -2.236584 -1.29895 -2.5 -0.663008 -2.5 0 
C -2.5 0.663008 -2.236584 1.29895 -1.767767 1.767767 
C -1.29895 2.236584 -0.663008 2.5 0 2.5 
z
" id="C2_0_fc3fd71d58"/>
    </defs>
    <g clip-path="url(#p5bb3daf343)">
     <use style="fill:#ffa500;" x="197.224232" xlink:href="#C2_0_fc3fd71d58" y="222.545455"/>
    </g>
    <g clip-path="url(#p5bb3daf343)">
     <use style="fill:#ffa500;" x="197.609839" xlink:href="#C2_0_fc3fd71d58" y="168.907664"/>
    </g>
    <g clip-path="url(#p5bb3daf343)">
     <use style="fill:#ffa500;" x="197.179592" xlink:href="#C2_0_fc3fd71d58" y="115.633519"/>
    </g>
    <g clip-path="url(#p5bb3daf343)">
     <use style="fill:#ffa500;" x="180.082677" xlink:href="#C2_0_fc3fd71d58" y="168.907664"/>
    </g>
    <g clip-path="url(#p5bb3daf343)">
     <use style="fill:#ffa500;" x="186.803986" xlink:href="#C2_0_fc3fd71d58" y="167.877818"/>
    </g>
    <g clip-path="url(#p5bb3daf343)">
     <use style="fill:#ffa500;" x="193.998545" xlink:href="#C2_0_fc3fd71d58" y="83.912395"/>
    </g>
    <g clip-path="url(#p5bb3daf343)">
     <use style="fill:#ffa500;" x="180.384249" xlink:href="#C2_0_fc3fd71d58" y="186.705658"/>
    </g>
    <g clip-path="url(#p5bb3daf343)">
     <use style="fill:#ffa500;" x="182.673757" xlink:href="#C2_0_fc3fd71d58" y="137.76314"/>
    </g>
    <g clip-path="url(#p5bb3daf343)">
     <use style="fill:#ffa500;" x="185.954769" xlink:href="#C2_0_fc3fd71d58" y="222.545455"/>
    </g>
    <g clip-path="url(#p5bb3daf343)">
     <use style="fill:#ffa500;" x="184.529067" xlink:href="#C2_0_fc3fd71d58" y="222.545455"/>
    </g>
   </g>
   <g id="PathCollection_7">
    <defs>
     <path d="M 0 2.5 
C 0.663008 2.5 1.29895 2.236584 1.767767 1.767767 
C 2.236584 1.29895 2.5 0.663008 2.5 -0 
C 2.5 -0.663008 2.236584 -1.29895 1.767767 -1.767767 
C 1.29895 -2.236584 0.663008 -2.5 0 -2.5 
C -0.663008 -2.5 -1.29895 -2.236584 -1.767767 -1.767767 
C -2.236584 -1.29895 -2.5 -0.663008 -2.5 0 
C -2.5 0.663008 -2.236584 1.29895 -1.767767 1.767767 
C -1.29895 2.236584 -0.663008 2.5 0 2.5 
z
" id="C3_0_d1a6d3e619"/>
    </defs>
    <g clip-path="url(#p5bb3daf343)">
     <use style="fill:#1e90ff;" x="274.190761" xlink:href="#C3_0_d1a6d3e619" y="168.167832"/>
    </g>
    <g clip-path="url(#p5bb3daf343)">
     <use style="fill:#1e90ff;" x="283.961765" xlink:href="#C3_0_d1a6d3e619" y="65.454545"/>
    </g>
    <g clip-path="url(#p5bb3daf343)">
     <use style="fill:#1e90ff;" x="276.108814" xlink:href="#C3_0_d1a6d3e619" y="139.548031"/>
    </g>
    <g clip-path="url(#p5bb3daf343)">
     <use style="fill:#1e90ff;" x="278.632939" xlink:href="#C3_0_d1a6d3e619" y="168.632598"/>
    </g>
    <g clip-path="url(#p5bb3daf343)">
     <use style="fill:#1e90ff;" x="287.657801" xlink:href="#C3_0_d1a6d3e619" y="147.452547"/>
    </g>
    <g clip-path="url(#p5bb3daf343)">
     <use style="fill:#1e90ff;" x="279.925257" xlink:href="#C3_0_d1a6d3e619" y="177.809255"/>
    </g>
    <g clip-path="url(#p5bb3daf343)">
     <use style="fill:#1e90ff;" x="279.912777" xlink:href="#C3_0_d1a6d3e619" y="167.626761"/>
    </g>
    <g clip-path="url(#p5bb3daf343)">
     <use style="fill:#1e90ff;" x="281.815424" xlink:href="#C3_0_d1a6d3e619" y="222.545455"/>
    </g>
   </g>
   <g id="text_12">
    <text style="font-family:DejaVu Sans;font-size:7.2px;font-stretch:normal;font-style:normal;font-weight:normal;text-anchor:start;" transform="rotate(-0, 54, 51.6)" x="54" y="51.6">Frac. cells with sig. corr. (size/lum)</text>
   </g>
  </g>
  <g id="text_13">
   <text style="font-family:DejaVu Sans;font-size:8px;font-stretch:normal;font-style:normal;font-weight:normal;text-anchor:start;" transform="rotate(-0, 0, 6.07875)" x="0" y="6.07875">neuraldata_traces001_dff_ROC-thr-0.05_plushalf_noRF</text>
  </g>
 </g>
 <defs>
  <clipPath id="p5bb3daf343">
   <rect height="172.8" width="270" x="54" y="57.6"/>
  </clipPath>
 </defs>
</svg>
