<?xml version="1.0" encoding="utf-8" standalone="no"?>
<!DOCTYPE svg PUBLIC "-//W3C//DTD SVG 1.1//EN"
  "http://www.w3.org/Graphics/SVG/1.1/DTD/svg11.dtd">
<!-- Created with matplotlib (https://matplotlib.org/) -->
<svg height="216pt" version="1.1" viewBox="0 0 384.6 216" width="384.6pt" xmlns="http://www.w3.org/2000/svg" xmlns:xlink="http://www.w3.org/1999/xlink">
 <metadata>
  <rdf:RDF xmlns:cc="http://creativecommons.org/ns#" xmlns:dc="http://purl.org/dc/elements/1.1/" xmlns:rdf="http://www.w3.org/1999/02/22-rdf-syntax-ns#">
   <cc:Work>
    <dc:type rdf:resource="http://purl.org/dc/dcmitype/StillImage"/>
    <dc:date>2021-05-09T13:53:48.843607</dc:date>
    <dc:format>image/svg+xml</dc:format>
    <dc:creator>
     <cc:Agent>
      <dc:title>Matplotlib v3.3.4, https://matplotlib.org/</dc:title>
     </cc:Agent>
    </dc:creator>
   </cc:Work>
  </rdf:RDF>
 </metadata>
 <defs>
  <style type="text/css">*{stroke-linecap:butt;stroke-linejoin:round;}</style>
 </defs>
 <g id="figure_1">
  <g id="patch_1">
   <path d="M 0 216 
L 384.6 216 
L 384.6 0 
L 0 0 
z
" style="fill:#ffffff;"/>
  </g>
  <g id="axes_1">
   <g id="patch_2">
    <path d="M 38.46 172.8 
L 187.213858 172.8 
L 187.213858 43.2 
L 38.46 43.2 
z
" style="fill:#ffffff;"/>
   </g>
   <g id="matplotlib.axis_1">
    <g id="xtick_1">
     <g id="line2d_1">
      <defs>
       <path d="M 0 0 
L 0 3.5 
" id="me138ca8a2b" style="stroke:#000000;stroke-width:0.25;"/>
      </defs>
      <g>
       <use style="stroke:#000000;stroke-width:0.25;" x="38.46" xlink:href="#me138ca8a2b" y="172.8"/>
      </g>
     </g>
     <g id="text_1">
      <text style="font-family:DejaVu Sans;font-size:6px;font-stretch:normal;font-style:normal;font-weight:normal;text-anchor:middle;" transform="rotate(-0, 38.46, 184.359063)" x="38.46" y="184.359063">0.0</text>
     </g>
    </g>
    <g id="xtick_2">
     <g id="line2d_2">
      <g>
       <use style="stroke:#000000;stroke-width:0.25;" x="68.210772" xlink:href="#me138ca8a2b" y="172.8"/>
      </g>
     </g>
     <g id="text_2">
      <text style="font-family:DejaVu Sans;font-size:6px;font-stretch:normal;font-style:normal;font-weight:normal;text-anchor:middle;" transform="rotate(-0, 68.210772, 184.359063)" x="68.210772" y="184.359063">0.2</text>
     </g>
    </g>
    <g id="xtick_3">
     <g id="line2d_3">
      <g>
       <use style="stroke:#000000;stroke-width:0.25;" x="97.961543" xlink:href="#me138ca8a2b" y="172.8"/>
      </g>
     </g>
     <g id="text_3">
      <text style="font-family:DejaVu Sans;font-size:6px;font-stretch:normal;font-style:normal;font-weight:normal;text-anchor:middle;" transform="rotate(-0, 97.961543, 184.359063)" x="97.961543" y="184.359063">0.4</text>
     </g>
    </g>
    <g id="xtick_4">
     <g id="line2d_4">
      <g>
       <use style="stroke:#000000;stroke-width:0.25;" x="127.712315" xlink:href="#me138ca8a2b" y="172.8"/>
      </g>
     </g>
     <g id="text_4">
      <text style="font-family:DejaVu Sans;font-size:6px;font-stretch:normal;font-style:normal;font-weight:normal;text-anchor:middle;" transform="rotate(-0, 127.712315, 184.359063)" x="127.712315" y="184.359063">0.6</text>
     </g>
    </g>
    <g id="xtick_5">
     <g id="line2d_5">
      <g>
       <use style="stroke:#000000;stroke-width:0.25;" x="157.463086" xlink:href="#me138ca8a2b" y="172.8"/>
      </g>
     </g>
     <g id="text_5">
      <text style="font-family:DejaVu Sans;font-size:6px;font-stretch:normal;font-style:normal;font-weight:normal;text-anchor:middle;" transform="rotate(-0, 157.463086, 184.359063)" x="157.463086" y="184.359063">0.8</text>
     </g>
    </g>
    <g id="xtick_6">
     <g id="line2d_6">
      <g>
       <use style="stroke:#000000;stroke-width:0.25;" x="187.213858" xlink:href="#me138ca8a2b" y="172.8"/>
      </g>
     </g>
     <g id="text_6">
      <text style="font-family:DejaVu Sans;font-size:6px;font-stretch:normal;font-style:normal;font-weight:normal;text-anchor:middle;" transform="rotate(-0, 187.213858, 184.359063)" x="187.213858" y="184.359063">1.0</text>
     </g>
    </g>
    <g id="text_7">
     <text style="font-family:DejaVu Sans;font-size:6px;font-stretch:normal;font-style:normal;font-weight:normal;text-anchor:middle;" transform="rotate(-0, 112.836929, 194.165938)" x="112.836929" y="194.165938">value</text>
    </g>
   </g>
   <g id="matplotlib.axis_2">
    <g id="ytick_1">
     <g id="line2d_7">
      <defs>
       <path d="M 0 0 
L -3.5 0 
" id="m61dac8fb34" style="stroke:#000000;stroke-width:0.25;"/>
      </defs>
      <g>
       <use style="stroke:#000000;stroke-width:0.25;" x="38.46" xlink:href="#m61dac8fb34" y="172.8"/>
      </g>
     </g>
     <g id="text_8">
      <text style="font-family:DejaVu Sans;font-size:6px;font-stretch:normal;font-style:normal;font-weight:normal;text-anchor:end;" transform="rotate(-0, 31.46, 175.079531)" x="31.46" y="175.079531">0.0</text>
     </g>
    </g>
    <g id="ytick_2">
     <g id="line2d_8">
      <g>
       <use style="stroke:#000000;stroke-width:0.25;" x="38.46" xlink:href="#m61dac8fb34" y="146.88"/>
      </g>
     </g>
     <g id="text_9">
      <text style="font-family:DejaVu Sans;font-size:6px;font-stretch:normal;font-style:normal;font-weight:normal;text-anchor:end;" transform="rotate(-0, 31.46, 149.159531)" x="31.46" y="149.159531">0.2</text>
     </g>
    </g>
    <g id="ytick_3">
     <g id="line2d_9">
      <g>
       <use style="stroke:#000000;stroke-width:0.25;" x="38.46" xlink:href="#m61dac8fb34" y="120.96"/>
      </g>
     </g>
     <g id="text_10">
      <text style="font-family:DejaVu Sans;font-size:6px;font-stretch:normal;font-style:normal;font-weight:normal;text-anchor:end;" transform="rotate(-0, 31.46, 123.239531)" x="31.46" y="123.239531">0.4</text>
     </g>
    </g>
    <g id="ytick_4">
     <g id="line2d_10">
      <g>
       <use style="stroke:#000000;stroke-width:0.25;" x="38.46" xlink:href="#m61dac8fb34" y="95.04"/>
      </g>
     </g>
     <g id="text_11">
      <text style="font-family:DejaVu Sans;font-size:6px;font-stretch:normal;font-style:normal;font-weight:normal;text-anchor:end;" transform="rotate(-0, 31.46, 97.319531)" x="31.46" y="97.319531">0.6</text>
     </g>
    </g>
    <g id="ytick_5">
     <g id="line2d_11">
      <g>
       <use style="stroke:#000000;stroke-width:0.25;" x="38.46" xlink:href="#m61dac8fb34" y="69.12"/>
      </g>
     </g>
     <g id="text_12">
      <text style="font-family:DejaVu Sans;font-size:6px;font-stretch:normal;font-style:normal;font-weight:normal;text-anchor:end;" transform="rotate(-0, 31.46, 71.399531)" x="31.46" y="71.399531">0.8</text>
     </g>
    </g>
    <g id="ytick_6">
     <g id="line2d_12">
      <g>
       <use style="stroke:#000000;stroke-width:0.25;" x="38.46" xlink:href="#m61dac8fb34" y="43.2"/>
      </g>
     </g>
     <g id="text_13">
      <text style="font-family:DejaVu Sans;font-size:6px;font-stretch:normal;font-style:normal;font-weight:normal;text-anchor:end;" transform="rotate(-0, 31.46, 45.479531)" x="31.46" y="45.479531">1.0</text>
     </g>
    </g>
    <g id="text_14">
     <text style="font-family:DejaVu Sans;font-size:6px;font-stretch:normal;font-style:normal;font-weight:normal;text-anchor:middle;" transform="rotate(-90, 16.670313, 108)" x="16.670313" y="108">Proportion</text>
    </g>
   </g>
   <g id="line2d_13">
    <path clip-path="url(#p156d238124)" d="M 55.272591 172.8 
L 55.272591 172.566906 
L 63.475959 172.566906 
L 63.475959 172.333813 
L 67.512771 172.333813 
L 67.512771 172.100719 
L 69.922155 172.100719 
L 69.948423 171.634532 
L 70.089849 171.634532 
L 70.1679 170.935252 
L 76.10848 170.935252 
L 76.10848 170.702158 
L 77.754447 170.702158 
L 77.754447 170.469065 
L 78.227869 170.469065 
L 78.227869 170.235971 
L 79.193826 170.235971 
L 79.193826 170.002878 
L 80.090183 170.002878 
L 80.090183 169.769784 
L 81.153383 169.769784 
L 81.153383 169.536691 
L 81.527019 169.536691 
L 81.527019 169.303597 
L 82.69005 169.303597 
L 82.69005 169.070504 
L 83.900159 169.070504 
L 83.900159 168.83741 
L 84.757077 168.83741 
L 84.757077 168.604317 
L 87.774623 168.604317 
L 87.774623 168.371223 
L 90.388765 168.371223 
L 90.388765 168.138129 
L 93.60645 168.138129 
L 93.60645 167.905036 
L 93.936352 167.905036 
L 93.936352 167.671942 
L 94.606597 167.671942 
L 94.606597 167.438849 
L 97.041517 167.438849 
L 97.041517 167.205755 
L 97.633358 167.205755 
L 97.633358 166.972662 
L 97.750051 166.972662 
L 97.750051 166.739568 
L 99.377221 166.739568 
L 99.377221 166.506475 
L 100.176043 166.506475 
L 100.277051 166.040288 
L 100.312062 166.040288 
L 100.374921 165.574101 
L 100.920702 165.574101 
L 100.920702 165.341007 
L 101.372808 165.341007 
L 101.372808 165.107914 
L 102.402482 165.107914 
L 102.439322 164.408633 
L 102.912393 164.408633 
L 102.912393 164.17554 
L 103.239518 164.17554 
L 103.239518 163.942446 
L 103.383482 163.942446 
L 103.383482 163.709353 
L 104.827183 163.709353 
L 104.926002 163.010072 
L 105.214011 163.010072 
L 105.214011 162.776978 
L 106.008129 162.776978 
L 106.008129 162.543885 
L 106.620179 162.543885 
L 106.620179 162.310791 
L 106.962988 162.310791 
L 106.962988 162.077698 
L 107.595473 162.077698 
L 107.595473 161.844604 
L 107.744458 161.844604 
L 107.744458 161.611511 
L 107.983507 161.611511 
L 108.092114 161.145324 
L 108.151182 161.145324 
L 108.159473 160.679137 
L 108.606447 160.679137 
L 108.707453 159.746763 
L 108.805029 159.746763 
L 108.805029 159.513669 
L 109.200549 159.513669 
L 109.308261 159.047482 
L 109.451458 159.047482 
L 109.451458 158.814388 
L 109.629702 158.814388 
L 109.629702 158.581295 
L 109.763272 158.581295 
L 109.82101 158.115108 
L 109.987812 158.115108 
L 109.987812 157.882014 
L 110.110816 157.882014 
L 110.110816 157.648921 
L 110.390729 157.648921 
L 110.390729 157.415827 
L 110.54245 157.415827 
L 110.644981 156.94964 
L 110.66109 156.94964 
L 110.764522 156.483453 
L 110.801172 156.483453 
L 110.828244 156.017266 
L 110.941116 156.017266 
L 111.048063 155.551079 
L 111.260999 155.551079 
L 111.370791 154.618705 
L 111.45171 154.618705 
L 111.492024 153.453237 
L 111.714802 153.453237 
L 111.768445 152.753957 
L 111.834243 152.753957 
L 111.920243 152.054676 
L 112.090583 152.054676 
L 112.172049 151.588489 
L 112.307041 151.588489 
L 112.387813 150.656115 
L 112.422858 150.656115 
L 112.497999 150.189928 
L 112.568436 150.189928 
L 112.652714 149.490647 
L 112.723662 149.490647 
L 112.771738 148.791367 
L 112.872615 148.791367 
L 112.935435 148.32518 
L 113.015028 148.32518 
L 113.105525 147.625899 
L 113.196879 147.625899 
L 113.206799 146.926619 
L 113.667158 146.926619 
L 113.722554 146.227338 
L 113.817658 146.227338 
L 113.910831 145.061871 
L 114.020636 145.061871 
L 114.020636 144.828777 
L 114.171472 144.828777 
L 114.171472 144.595683 
L 114.31271 144.595683 
L 114.422791 144.129496 
L 114.481509 144.129496 
L 114.562575 142.964029 
L 114.792489 142.964029 
L 114.886764 142.031655 
L 114.939395 142.031655 
L 115.019515 141.332374 
L 115.163071 141.332374 
L 115.224991 140.633094 
L 115.3539 140.633094 
L 115.413008 139.933813 
L 115.498125 139.933813 
L 115.498125 139.700719 
L 115.613818 139.700719 
L 115.700373 138.768345 
L 115.733166 138.768345 
L 115.79553 138.302158 
L 115.884396 138.302158 
L 115.903641 137.835971 
L 116.124509 137.835971 
L 116.223911 136.903597 
L 116.24082 136.903597 
L 116.334547 135.971223 
L 116.373687 135.971223 
L 116.457578 135.271942 
L 116.506545 135.271942 
L 116.528844 134.805755 
L 116.67571 134.805755 
L 116.778821 134.339568 
L 116.989159 134.339568 
L 116.989159 134.106475 
L 117.171942 134.106475 
L 117.197579 133.640288 
L 117.320141 133.640288 
L 117.381941 132.941007 
L 117.519177 132.941007 
L 117.61482 131.77554 
L 117.674545 131.77554 
L 117.769458 131.076259 
L 117.911 131.076259 
L 117.997503 130.376978 
L 118.058371 130.376978 
L 118.166188 129.211511 
L 118.184701 129.211511 
L 118.250675 128.745324 
L 118.411453 128.745324 
L 118.516822 128.279137 
L 118.535739 128.279137 
L 118.558091 127.579856 
L 118.68315 127.579856 
L 118.76308 126.647482 
L 118.828548 126.647482 
L 118.864144 125.715108 
L 118.943889 125.715108 
L 119.042692 125.248921 
L 119.117116 125.248921 
L 119.201711 124.782734 
L 119.260871 124.782734 
L 119.349953 123.85036 
L 119.412762 123.85036 
L 119.518773 123.384173 
L 119.525515 123.384173 
L 119.525515 123.151079 
L 119.672983 123.151079 
L 119.75317 122.451799 
L 119.789121 122.451799 
L 119.889036 121.053237 
L 119.991729 121.053237 
L 120.01359 120.58705 
L 120.246647 120.58705 
L 120.246647 120.353957 
L 120.368357 120.353957 
L 120.368357 120.120863 
L 120.508927 120.120863 
L 120.527073 119.654676 
L 120.626955 119.654676 
L 120.681678 118.955396 
L 120.869339 118.955396 
L 120.880715 118.489209 
L 120.998944 118.489209 
L 121.019045 118.023022 
L 121.111199 118.023022 
L 121.13035 117.556835 
L 121.222661 117.556835 
L 121.298779 117.090647 
L 121.346093 117.090647 
L 121.410555 116.62446 
L 121.457621 116.62446 
L 121.457621 116.391367 
L 121.605134 116.391367 
L 121.705791 115.225899 
L 121.739336 115.225899 
L 121.83555 114.526619 
L 121.913968 114.526619 
L 121.913968 114.293525 
L 122.226626 114.293525 
L 122.329415 113.128058 
L 122.3581 113.128058 
L 122.469005 112.428777 
L 122.481517 112.428777 
L 122.562749 111.96259 
L 122.692046 111.96259 
L 122.692046 111.729496 
L 122.953515 111.729496 
L 122.963276 111.263309 
L 123.098613 111.263309 
L 123.208607 110.797122 
L 123.40988 110.797122 
L 123.505071 109.864748 
L 123.554946 109.864748 
L 123.554946 109.631655 
L 123.704742 109.631655 
L 123.782258 109.165468 
L 123.895796 109.165468 
L 123.98062 108.233094 
L 124.146575 108.233094 
L 124.193986 107.533813 
L 124.309456 107.533813 
L 124.322786 107.067626 
L 124.547899 107.067626 
L 124.60184 106.601439 
L 124.721811 106.601439 
L 124.781354 106.135252 
L 124.833628 106.135252 
L 124.934807 105.202878 
L 125.030142 105.202878 
L 125.08833 104.503597 
L 125.168475 104.503597 
L 125.228562 104.03741 
L 125.292603 104.03741 
L 125.35888 103.105036 
L 125.452019 103.105036 
L 125.452019 102.871942 
L 125.638871 102.871942 
L 125.747263 102.172662 
L 125.757763 102.172662 
L 125.757763 101.939568 
L 126.004965 101.939568 
L 126.074768 101.240288 
L 126.450565 101.240288 
L 126.450565 101.007194 
L 126.570462 101.007194 
L 126.615031 100.541007 
L 126.724096 100.541007 
L 126.724096 100.307914 
L 126.923454 100.307914 
L 126.923454 100.07482 
L 127.432966 100.07482 
L 127.432966 99.841727 
L 127.68473 99.841727 
L 127.783697 99.142446 
L 127.802257 99.142446 
L 127.903299 98.210072 
L 127.96507 98.210072 
L 128.019834 97.743885 
L 128.17574 97.743885 
L 128.272863 97.277698 
L 128.327703 97.277698 
L 128.436529 96.578417 
L 128.469128 96.578417 
L 128.50013 96.11223 
L 128.713367 96.11223 
L 128.80613 95.646043 
L 128.895614 95.646043 
L 128.895614 95.41295 
L 129.112991 95.41295 
L 129.175705 94.713669 
L 129.292869 94.713669 
L 129.37899 94.247482 
L 129.582804 94.247482 
L 129.668217 93.548201 
L 129.71653 93.548201 
L 129.71653 93.315108 
L 129.872106 93.315108 
L 129.968915 92.382734 
L 130.222542 92.382734 
L 130.264732 91.916547 
L 130.400992 91.916547 
L 130.400992 91.683453 
L 130.749303 91.683453 
L 130.839172 90.984173 
L 131.210707 90.984173 
L 131.303765 90.284892 
L 131.347611 90.284892 
L 131.347611 90.051799 
L 131.597419 90.051799 
L 131.665357 89.585612 
L 131.808239 89.585612 
L 131.808239 89.352518 
L 132.022712 89.352518 
L 132.022712 89.119424 
L 132.273206 89.119424 
L 132.341909 88.420144 
L 132.767792 88.420144 
L 132.767792 88.18705 
L 133.397913 88.18705 
L 133.397913 87.953957 
L 133.521152 87.953957 
L 133.555624 87.48777 
L 133.696296 87.48777 
L 133.806255 86.555396 
L 133.988872 86.555396 
L 134.020792 86.089209 
L 134.31965 86.089209 
L 134.31965 85.856115 
L 134.497027 85.856115 
L 134.588047 85.156835 
L 134.808539 85.156835 
L 134.808539 84.923741 
L 134.994501 84.923741 
L 135.089208 84.457554 
L 135.399123 84.457554 
L 135.500289 83.758273 
L 135.627824 83.758273 
L 135.689503 83.292086 
L 135.894001 83.292086 
L 135.974904 82.825899 
L 136.306693 82.825899 
L 136.344911 82.359712 
L 136.485722 82.359712 
L 136.485722 82.126619 
L 136.639252 82.126619 
L 136.742788 80.728058 
L 136.788439 80.728058 
L 136.876601 80.261871 
L 137.015634 80.261871 
L 137.109063 79.329496 
L 137.169091 79.329496 
L 137.277115 78.630216 
L 137.446064 78.630216 
L 137.490785 77.930935 
L 137.860138 77.930935 
L 137.937401 77.231655 
L 138.047753 77.231655 
L 138.067201 76.765468 
L 138.376272 76.765468 
L 138.480552 76.066187 
L 138.490564 76.066187 
L 138.490564 75.833094 
L 138.788623 75.833094 
L 138.788623 75.6 
L 139.040349 75.6 
L 139.145812 74.667626 
L 139.332022 74.667626 
L 139.332022 74.434532 
L 139.551533 74.434532 
L 139.551533 74.201439 
L 139.67888 74.201439 
L 139.67888 73.968345 
L 139.837213 73.968345 
L 139.901724 73.502158 
L 140.046255 73.502158 
L 140.046255 73.269065 
L 140.343215 73.269065 
L 140.360681 72.569784 
L 140.476561 72.569784 
L 140.556554 72.103597 
L 140.6298 72.103597 
L 140.663179 71.63741 
L 140.844088 71.63741 
L 140.844088 71.404317 
L 141.036964 71.404317 
L 141.111252 70.705036 
L 141.31774 70.705036 
L 141.374357 70.005755 
L 141.475446 70.005755 
L 141.566326 69.539568 
L 141.599357 69.539568 
L 141.613305 69.073381 
L 141.81684 69.073381 
L 141.891909 68.374101 
L 142.19962 68.374101 
L 142.309512 67.441727 
L 142.380166 67.441727 
L 142.466398 66.97554 
L 142.589492 66.97554 
L 142.664912 66.276259 
L 142.846044 66.276259 
L 142.947174 65.810072 
L 142.987113 65.810072 
L 142.987113 65.576978 
L 143.102051 65.576978 
L 143.102051 65.343885 
L 143.322508 65.343885 
L 143.424815 64.411511 
L 143.709424 64.411511 
L 143.709424 64.178417 
L 144.058737 64.178417 
L 144.165419 62.779856 
L 144.198051 62.779856 
L 144.302862 62.313669 
L 144.380453 62.313669 
L 144.479332 61.381295 
L 144.602762 61.381295 
L 144.705001 60.448921 
L 144.826083 60.448921 
L 144.875395 59.982734 
L 145.057187 59.982734 
L 145.113077 59.283453 
L 145.187818 59.283453 
L 145.187818 59.05036 
L 145.428739 59.05036 
L 145.517154 58.351079 
L 145.580746 58.351079 
L 145.668962 57.884892 
L 145.803054 57.884892 
L 145.894374 56.952518 
L 145.94216 56.952518 
L 145.981956 56.486331 
L 146.057388 56.486331 
L 146.140684 55.320863 
L 146.186065 55.320863 
L 146.281546 54.155396 
L 146.304456 54.155396 
L 146.405143 53.456115 
L 146.43506 53.456115 
L 146.493622 52.989928 
L 146.558065 52.989928 
L 146.663761 52.290647 
L 147.260931 52.290647 
L 147.290541 51.591367 
L 147.395721 51.591367 
L 147.486721 50.892086 
L 147.520091 50.892086 
L 147.616282 49.959712 
L 147.698711 49.959712 
L 147.794966 49.493525 
L 147.837481 49.493525 
L 147.947501 47.628777 
L 147.969924 47.628777 
L 147.977494 46.696403 
L 148.313887 46.696403 
L 148.334586 46.230216 
L 148.715202 46.230216 
L 148.715202 45.997122 
L 149.044334 45.997122 
L 149.090125 45.530935 
L 150.085802 45.530935 
L 150.085802 45.297842 
L 150.490745 45.297842 
L 150.490745 45.064748 
L 151.417922 45.064748 
L 151.417922 44.831655 
L 151.944494 44.831655 
L 151.944494 44.598561 
L 152.056389 44.598561 
L 152.056389 44.365468 
L 152.173394 44.365468 
L 152.173394 44.132374 
L 152.311315 44.132374 
L 152.311315 43.899281 
L 152.534103 43.899281 
L 152.609801 43.2 
L 152.609801 43.2 
" style="fill:none;stroke:#ff00ff;stroke-linecap:square;stroke-width:1.5;"/>
   </g>
   <g id="line2d_14">
    <path clip-path="url(#p156d238124)" d="M 50.679036 172.8 
L 50.679036 172.524255 
L 52.089232 172.524255 
L 52.089232 172.248511 
L 53.970382 172.248511 
L 53.970382 171.972766 
L 57.291872 171.972766 
L 57.291872 171.697021 
L 57.789303 171.697021 
L 57.806913 171.145532 
L 62.089331 171.145532 
L 62.089331 170.869787 
L 63.417725 170.869787 
L 63.417725 170.594043 
L 63.65891 170.594043 
L 63.65891 170.318298 
L 64.168914 170.318298 
L 64.168914 170.042553 
L 64.477605 170.042553 
L 64.538822 169.491064 
L 64.605141 169.491064 
L 64.605141 169.215319 
L 66.449339 169.215319 
L 66.449339 168.939574 
L 66.660812 168.939574 
L 66.660812 168.66383 
L 67.185466 168.66383 
L 67.275754 167.836596 
L 68.977925 167.836596 
L 68.977925 167.560851 
L 69.482642 167.560851 
L 69.482642 167.285106 
L 69.992147 167.285106 
L 69.992147 167.009362 
L 71.401565 167.009362 
L 71.401565 166.733617 
L 73.136231 166.733617 
L 73.136231 166.457872 
L 75.266576 166.457872 
L 75.266576 166.182128 
L 75.760863 166.182128 
L 75.760863 165.906383 
L 77.070684 165.906383 
L 77.070684 165.630638 
L 78.409172 165.630638 
L 78.409172 165.354894 
L 79.900135 165.354894 
L 79.900135 165.079149 
L 82.537916 165.079149 
L 82.537916 164.803404 
L 83.350091 164.803404 
L 83.442235 164.251915 
L 85.25381 164.251915 
L 85.25381 163.97617 
L 85.370072 163.97617 
L 85.370072 163.700426 
L 85.913395 163.700426 
L 85.913395 163.424681 
L 86.655043 163.424681 
L 86.655043 163.148936 
L 87.306278 163.148936 
L 87.306278 162.873191 
L 87.923836 162.873191 
L 87.923836 162.597447 
L 88.154589 162.597447 
L 88.154589 162.321702 
L 88.380173 162.321702 
L 88.448641 161.770213 
L 88.775268 161.770213 
L 88.775268 161.494468 
L 88.929693 161.494468 
L 88.929693 161.218723 
L 90.068359 161.218723 
L 90.068359 160.942979 
L 90.921293 160.942979 
L 90.921293 160.667234 
L 91.927287 160.667234 
L 91.927287 160.391489 
L 92.391928 160.391489 
L 92.454168 159.84 
L 92.563561 159.84 
L 92.563561 159.564255 
L 93.081166 159.564255 
L 93.081166 159.288511 
L 93.57111 159.288511 
L 93.57111 159.012766 
L 94.179578 159.012766 
L 94.179578 158.737021 
L 95.326401 158.737021 
L 95.326401 158.461277 
L 96.423549 158.461277 
L 96.423549 158.185532 
L 96.671675 158.185532 
L 96.671675 157.909787 
L 96.904496 157.909787 
L 96.978049 157.358298 
L 97.065608 157.358298 
L 97.065608 157.082553 
L 97.889742 157.082553 
L 97.889742 156.806809 
L 98.079904 156.806809 
L 98.079904 156.531064 
L 98.40516 156.531064 
L 98.40516 156.255319 
L 98.597442 156.255319 
L 98.597442 155.979574 
L 99.091916 155.979574 
L 99.091916 155.70383 
L 99.406228 155.70383 
L 99.406228 155.428085 
L 100.596183 155.428085 
L 100.596183 155.15234 
L 100.734972 155.15234 
L 100.734972 154.876596 
L 100.935 154.876596 
L 101.043582 154.325106 
L 101.391756 154.325106 
L 101.391756 154.049362 
L 102.04347 154.049362 
L 102.04347 153.773617 
L 104.172541 153.773617 
L 104.172541 153.497872 
L 104.760534 153.497872 
L 104.818521 152.946383 
L 105.073317 152.946383 
L 105.109283 152.394894 
L 105.212603 152.394894 
L 105.258229 151.843404 
L 105.350463 151.843404 
L 105.350463 151.56766 
L 105.903446 151.56766 
L 105.997219 151.01617 
L 106.274772 151.01617 
L 106.326922 150.464681 
L 106.846285 150.464681 
L 106.846285 150.188936 
L 107.259221 150.188936 
L 107.259221 149.913191 
L 107.6186 149.913191 
L 107.6186 149.637447 
L 107.886715 149.637447 
L 107.886715 149.361702 
L 108.419707 149.361702 
L 108.425161 148.810213 
L 108.802014 148.810213 
L 108.802014 148.534468 
L 109.028012 148.534468 
L 109.0957 147.707234 
L 109.313026 147.707234 
L 109.313026 147.431489 
L 109.640434 147.431489 
L 109.640434 147.155745 
L 109.926564 147.155745 
L 109.926564 146.88 
L 110.071258 146.88 
L 110.071258 146.604255 
L 110.305474 146.604255 
L 110.305474 146.328511 
L 110.631816 146.328511 
L 110.723796 145.225532 
L 111.135863 145.225532 
L 111.135863 144.949787 
L 111.338187 144.949787 
L 111.448875 143.846809 
L 111.457268 143.846809 
L 111.557787 143.295319 
L 111.77976 143.295319 
L 111.879943 141.916596 
L 111.916447 141.916596 
L 112.024899 141.365106 
L 112.028988 141.365106 
L 112.120633 140.262128 
L 112.221635 140.262128 
L 112.316058 139.710638 
L 112.354081 139.710638 
L 112.381452 138.60766 
L 112.49615 138.60766 
L 112.531815 137.780426 
L 112.767616 137.780426 
L 112.767616 137.504681 
L 112.890531 137.504681 
L 112.890531 137.228936 
L 113.12448 137.228936 
L 113.12448 136.953191 
L 113.326476 136.953191 
L 113.400487 136.125957 
L 113.637737 136.125957 
L 113.659213 135.298723 
L 113.869519 135.298723 
L 113.869519 135.022979 
L 114.094408 135.022979 
L 114.167666 134.471489 
L 114.217778 134.471489 
L 114.230357 133.92 
L 114.39421 133.92 
L 114.476738 132.817021 
L 114.512217 132.817021 
L 114.600076 131.989787 
L 114.656871 131.989787 
L 114.725809 131.438298 
L 114.806304 131.438298 
L 114.902372 130.059574 
L 115.008305 130.059574 
L 115.077715 129.23234 
L 115.13401 129.23234 
L 115.2246 128.680851 
L 115.400642 128.680851 
L 115.506489 127.853617 
L 115.606632 127.853617 
L 115.682975 127.302128 
L 115.764271 127.302128 
L 115.825833 126.474894 
L 116.012171 126.474894 
L 116.012171 126.199149 
L 116.131912 126.199149 
L 116.237252 125.64766 
L 116.2485 125.64766 
L 116.2485 125.371915 
L 116.366886 125.371915 
L 116.366886 125.09617 
L 116.576751 125.09617 
L 116.672818 124.268936 
L 116.780143 124.268936 
L 116.826363 123.717447 
L 116.973173 123.717447 
L 117.065362 123.165957 
L 117.115773 123.165957 
L 117.216359 122.338723 
L 117.295293 122.338723 
L 117.353861 121.787234 
L 117.492371 121.787234 
L 117.57333 120.408511 
L 117.648452 120.408511 
L 117.74115 119.305532 
L 117.772151 119.305532 
L 117.877333 118.478298 
L 117.912997 118.478298 
L 117.914338 117.926809 
L 118.070444 117.926809 
L 118.168327 117.375319 
L 118.205665 117.375319 
L 118.277511 116.548085 
L 118.357128 116.548085 
L 118.357128 116.27234 
L 118.531375 116.27234 
L 118.62206 115.720851 
L 118.657699 115.720851 
L 118.670064 115.169362 
L 118.829445 115.169362 
L 118.901194 113.790638 
L 118.968555 113.790638 
L 119.035224 112.963404 
L 119.323808 112.963404 
L 119.35398 112.411915 
L 119.505368 112.411915 
L 119.596693 111.308936 
L 119.67963 111.308936 
L 119.685507 110.757447 
L 119.836199 110.757447 
L 119.89588 109.930213 
L 120.046157 109.930213 
L 120.064526 109.378723 
L 120.222976 109.378723 
L 120.312379 108.551489 
L 120.394186 108.551489 
L 120.412333 108 
L 120.524631 108 
L 120.524631 107.724255 
L 121.016481 107.724255 
L 121.121004 106.897021 
L 121.17929 106.897021 
L 121.191545 106.345532 
L 121.389434 106.345532 
L 121.4975 105.518298 
L 121.577855 105.518298 
L 121.674583 104.415319 
L 121.745769 104.415319 
L 121.843342 103.31234 
L 122.144861 103.31234 
L 122.144861 103.036596 
L 122.261477 103.036596 
L 122.302134 102.485106 
L 122.415293 102.485106 
L 122.415293 102.209362 
L 122.53321 102.209362 
L 122.53321 101.933617 
L 122.680555 101.933617 
L 122.680555 101.657872 
L 123.35951 101.657872 
L 123.35951 101.382128 
L 123.58367 101.382128 
L 123.58415 100.830638 
L 123.7792 100.830638 
L 123.833881 100.003404 
L 123.994396 100.003404 
L 123.994396 99.72766 
L 124.23128 99.72766 
L 124.322259 98.900426 
L 124.35379 98.900426 
L 124.357924 98.348936 
L 124.498815 98.348936 
L 124.566719 97.797447 
L 124.704455 97.797447 
L 124.704455 97.521702 
L 124.852615 97.521702 
L 124.893103 96.970213 
L 125.14709 96.970213 
L 125.223836 96.142979 
L 125.455395 96.142979 
L 125.547046 95.04 
L 125.654998 95.04 
L 125.724094 94.488511 
L 126.044711 94.488511 
L 126.063384 93.937021 
L 126.195904 93.937021 
L 126.256464 93.385532 
L 126.392282 93.385532 
L 126.392282 93.109787 
L 126.782683 93.109787 
L 126.782683 92.834043 
L 126.910458 92.834043 
L 126.997212 92.006809 
L 127.423819 92.006809 
L 127.447278 91.455319 
L 127.614291 91.455319 
L 127.680752 90.076596 
L 127.834743 90.076596 
L 127.874224 89.249362 
L 128.141537 89.249362 
L 128.141537 88.973617 
L 128.279416 88.973617 
L 128.296133 88.422128 
L 128.401143 88.422128 
L 128.401143 88.146383 
L 128.524774 88.146383 
L 128.524774 87.870638 
L 128.76267 87.870638 
L 128.76267 87.594894 
L 128.89279 87.594894 
L 128.948455 87.043404 
L 129.08118 87.043404 
L 129.08118 86.76766 
L 129.195466 86.76766 
L 129.195466 86.491915 
L 129.348904 86.491915 
L 129.348904 86.21617 
L 129.569055 86.21617 
L 129.584795 85.664681 
L 129.788185 85.664681 
L 129.825941 85.113191 
L 129.953302 85.113191 
L 129.953302 84.837447 
L 130.194493 84.837447 
L 130.194493 84.561702 
L 130.588018 84.561702 
L 130.588018 84.285957 
L 130.867336 84.285957 
L 130.867336 84.010213 
L 131.004155 84.010213 
L 131.067808 82.907234 
L 131.200611 82.907234 
L 131.271068 82.355745 
L 131.357925 82.355745 
L 131.396406 81.528511 
L 131.63521 81.528511 
L 131.63521 81.252766 
L 131.972886 81.252766 
L 131.972886 80.977021 
L 132.247009 80.977021 
L 132.352358 80.149787 
L 132.570322 80.149787 
L 132.570322 79.874043 
L 132.885847 79.874043 
L 132.957311 79.322553 
L 133.252122 79.322553 
L 133.252122 79.046809 
L 133.375301 79.046809 
L 133.375301 78.771064 
L 133.523517 78.771064 
L 133.523517 78.495319 
L 133.730995 78.495319 
L 133.730995 78.219574 
L 133.929732 78.219574 
L 133.929732 77.94383 
L 134.074375 77.94383 
L 134.074375 77.668085 
L 134.204019 77.668085 
L 134.204019 77.39234 
L 134.323817 77.39234 
L 134.323817 77.116596 
L 134.552241 77.116596 
L 134.583049 76.565106 
L 134.694942 76.565106 
L 134.694942 76.289362 
L 134.817198 76.289362 
L 134.860243 75.462128 
L 135.017873 75.462128 
L 135.047784 74.910638 
L 135.276894 74.910638 
L 135.276894 74.634894 
L 135.559096 74.634894 
L 135.669878 73.80766 
L 135.959791 73.80766 
L 136.046734 73.25617 
L 136.141087 73.25617 
L 136.235828 72.428936 
L 136.442382 72.428936 
L 136.442382 72.153191 
L 137.011827 72.153191 
L 137.098353 71.601702 
L 137.364103 71.601702 
L 137.364103 71.325957 
L 137.478533 71.325957 
L 137.478533 71.050213 
L 137.652239 71.050213 
L 137.758067 70.498723 
L 137.784856 70.498723 
L 137.893619 69.947234 
L 138.156533 69.947234 
L 138.156533 69.671489 
L 138.312483 69.671489 
L 138.415115 69.12 
L 138.523846 69.12 
L 138.630668 68.017021 
L 138.64934 68.017021 
L 138.64934 67.741277 
L 139.000513 67.741277 
L 139.000513 67.465532 
L 139.131793 67.465532 
L 139.197234 66.914043 
L 139.48049 66.914043 
L 139.527285 66.362553 
L 139.70333 66.362553 
L 139.70333 66.086809 
L 139.966602 66.086809 
L 140.073894 65.535319 
L 140.161563 65.535319 
L 140.161563 65.259574 
L 140.312419 65.259574 
L 140.312419 64.98383 
L 140.506587 64.98383 
L 140.506587 64.708085 
L 140.733208 64.708085 
L 140.733208 64.43234 
L 140.865109 64.43234 
L 140.926084 63.880851 
L 141.384464 63.880851 
L 141.384464 63.605106 
L 141.557558 63.605106 
L 141.642741 63.053617 
L 141.811053 63.053617 
L 141.900335 62.226383 
L 141.938609 62.226383 
L 141.938609 61.950638 
L 142.183335 61.950638 
L 142.228404 61.123404 
L 142.336686 61.123404 
L 142.386358 60.29617 
L 142.785253 60.29617 
L 142.785253 60.020426 
L 143.234595 60.020426 
L 143.345118 59.193191 
L 143.363969 59.193191 
L 143.363969 58.917447 
L 143.722011 58.917447 
L 143.722011 58.641702 
L 143.993803 58.641702 
L 143.993803 58.365957 
L 144.24205 58.365957 
L 144.286686 57.814468 
L 144.677922 57.814468 
L 144.714532 57.262979 
L 144.921784 57.262979 
L 144.987981 56.16 
L 145.083178 56.16 
L 145.083178 55.884255 
L 145.373519 55.884255 
L 145.408928 55.332766 
L 145.520262 55.332766 
L 145.556612 54.781277 
L 145.895673 54.781277 
L 145.895673 54.505532 
L 146.103302 54.505532 
L 146.21211 53.954043 
L 146.216015 53.954043 
L 146.309054 52.851064 
L 146.341733 52.851064 
L 146.341733 52.575319 
L 146.486948 52.575319 
L 146.584232 52.02383 
L 146.914529 52.02383 
L 146.951762 51.47234 
L 147.201901 51.47234 
L 147.311906 50.645106 
L 147.38363 50.645106 
L 147.38363 50.369362 
L 147.529634 50.369362 
L 147.597649 49.542128 
L 147.756277 49.542128 
L 147.806932 48.990638 
L 147.923678 48.990638 
L 147.998555 48.163404 
L 148.61153 48.163404 
L 148.61153 47.88766 
L 148.820875 47.88766 
L 148.820875 47.611915 
L 149.012831 47.611915 
L 149.012831 47.33617 
L 150.069102 47.33617 
L 150.069102 47.060426 
L 150.568573 47.060426 
L 150.568573 46.784681 
L 150.95706 46.784681 
L 150.95706 46.508936 
L 151.068627 46.508936 
L 151.163764 45.957447 
L 151.389143 45.957447 
L 151.389143 45.681702 
L 151.53113 45.681702 
L 151.53113 45.405957 
L 152.16203 45.405957 
L 152.16203 45.130213 
L 152.394644 45.130213 
L 152.394644 44.854468 
L 152.533692 44.854468 
L 152.533692 44.578723 
L 152.992631 44.578723 
L 152.992631 44.302979 
L 153.571392 44.302979 
L 153.571392 44.027234 
L 153.822612 44.027234 
L 153.822612 43.751489 
L 154.395013 43.751489 
L 154.395013 43.475745 
L 155.342686 43.475745 
L 155.342686 43.2 
L 155.342686 43.2 
" style="fill:none;stroke:#ffa500;stroke-linecap:square;stroke-width:1.5;"/>
   </g>
   <g id="line2d_15">
    <path clip-path="url(#p156d238124)" d="M 47.482935 172.8 
L 47.482935 171.18 
L 51.159266 171.18 
L 51.159266 169.56 
L 55.751237 169.56 
L 55.751237 167.94 
L 60.277139 167.94 
L 60.277139 166.32 
L 61.243535 166.32 
L 61.243535 164.7 
L 63.955728 164.7 
L 63.955728 163.08 
L 66.880866 163.08 
L 66.880866 161.46 
L 70.349193 161.46 
L 70.349193 159.84 
L 71.843534 159.84 
L 71.843534 158.22 
L 72.139664 158.22 
L 72.139664 156.6 
L 72.549647 156.6 
L 72.549647 154.98 
L 72.738558 154.98 
L 72.738558 153.36 
L 74.238488 153.36 
L 74.238488 151.74 
L 84.115333 151.74 
L 84.115333 150.12 
L 86.898822 150.12 
L 86.898822 148.5 
L 88.255071 148.5 
L 88.255071 146.88 
L 90.910665 146.88 
L 90.92314 143.64 
L 91.219403 143.64 
L 91.219403 142.02 
L 91.707001 142.02 
L 91.707001 140.4 
L 93.089204 140.4 
L 93.089204 138.78 
L 96.507187 138.78 
L 96.507187 137.16 
L 96.784827 137.16 
L 96.784827 135.54 
L 97.674219 135.54 
L 97.674219 133.92 
L 97.937153 133.92 
L 97.937153 132.3 
L 98.442739 132.3 
L 98.442739 130.68 
L 99.941058 130.68 
L 99.941058 129.06 
L 103.146144 129.06 
L 103.146144 127.44 
L 103.933521 127.44 
L 104.044411 124.2 
L 104.103935 124.2 
L 104.103935 122.58 
L 104.764463 122.58 
L 104.764463 120.96 
L 107.002549 120.96 
L 107.002549 119.34 
L 107.447057 119.34 
L 107.447057 117.72 
L 108.32671 117.72 
L 108.32671 116.1 
L 109.008597 116.1 
L 109.008597 114.48 
L 110.206706 114.48 
L 110.206706 112.86 
L 110.851946 112.86 
L 110.851946 111.24 
L 111.567368 111.24 
L 111.567368 109.62 
L 111.869037 109.62 
L 111.869037 108 
L 113.734143 108 
L 113.819544 103.14 
L 113.93652 103.14 
L 114.025375 98.28 
L 114.429484 98.28 
L 114.429484 96.66 
L 115.807077 96.66 
L 115.807077 95.04 
L 116.364319 95.04 
L 116.475252 91.8 
L 116.81951 91.8 
L 116.81951 90.18 
L 117.216676 90.18 
L 117.216676 88.56 
L 117.459636 88.56 
L 117.459636 86.94 
L 117.751916 86.94 
L 117.751916 85.32 
L 118.028848 85.32 
L 118.029008 82.08 
L 118.957432 82.08 
L 118.957432 80.46 
L 119.82116 80.46 
L 119.82116 78.84 
L 122.910752 78.84 
L 122.910752 77.22 
L 123.897051 77.22 
L 123.897051 75.6 
L 124.941797 75.6 
L 124.941797 73.98 
L 126.336484 73.98 
L 126.336484 72.36 
L 127.570539 72.36 
L 127.625516 69.12 
L 127.972961 69.12 
L 127.972961 67.5 
L 128.098484 67.5 
L 128.206602 64.26 
L 129.162791 64.26 
L 129.162791 62.64 
L 130.384378 62.64 
L 130.384378 61.02 
L 130.732033 61.02 
L 130.732033 59.4 
L 131.543059 59.4 
L 131.543059 57.78 
L 132.834845 57.78 
L 132.834845 56.16 
L 133.439714 56.16 
L 133.439714 54.54 
L 133.971922 54.54 
L 133.971922 52.92 
L 134.444475 52.92 
L 134.444475 51.3 
L 137.270733 51.3 
L 137.270733 49.68 
L 138.107303 49.68 
L 138.107303 48.06 
L 142.599757 48.06 
L 142.599757 46.44 
L 142.877875 46.44 
L 142.877875 44.82 
L 143.01169 44.82 
L 143.01169 43.2 
L 143.01169 43.2 
" style="fill:none;stroke:#1e90ff;stroke-linecap:square;stroke-width:1.5;"/>
   </g>
   <g id="patch_3">
    <path d="M 38.46 172.8 
L 38.46 43.2 
" style="fill:none;stroke:#000000;stroke-linecap:square;stroke-linejoin:miter;stroke-width:0.25;"/>
   </g>
   <g id="patch_4">
    <path d="M 38.46 172.8 
L 187.213858 172.8 
" style="fill:none;stroke:#000000;stroke-linecap:square;stroke-linejoin:miter;stroke-width:0.25;"/>
   </g>
   <g id="text_15">
    <text style="font-family:DejaVu Sans;font-size:6px;font-stretch:normal;font-style:normal;font-weight:normal;text-anchor:middle;" transform="rotate(-0, 112.836929, 37.2)" x="112.836929" y="37.2">ori_metric = asi</text>
   </g>
  </g>
  <g id="axes_2">
   <g id="patch_5">
    <path d="M 197.386142 172.8 
L 346.14 172.8 
L 346.14 43.2 
L 197.386142 43.2 
z
" style="fill:#ffffff;"/>
   </g>
   <g id="matplotlib.axis_3">
    <g id="xtick_7">
     <g id="line2d_16">
      <g>
       <use style="stroke:#000000;stroke-width:0.25;" x="197.386142" xlink:href="#me138ca8a2b" y="172.8"/>
      </g>
     </g>
     <g id="text_16">
      <text style="font-family:DejaVu Sans;font-size:6px;font-stretch:normal;font-style:normal;font-weight:normal;text-anchor:middle;" transform="rotate(-0, 197.386142, 184.359063)" x="197.386142" y="184.359063">0.0</text>
     </g>
    </g>
    <g id="xtick_8">
     <g id="line2d_17">
      <g>
       <use style="stroke:#000000;stroke-width:0.25;" x="227.136914" xlink:href="#me138ca8a2b" y="172.8"/>
      </g>
     </g>
     <g id="text_17">
      <text style="font-family:DejaVu Sans;font-size:6px;font-stretch:normal;font-style:normal;font-weight:normal;text-anchor:middle;" transform="rotate(-0, 227.136914, 184.359063)" x="227.136914" y="184.359063">0.2</text>
     </g>
    </g>
    <g id="xtick_9">
     <g id="line2d_18">
      <g>
       <use style="stroke:#000000;stroke-width:0.25;" x="256.887685" xlink:href="#me138ca8a2b" y="172.8"/>
      </g>
     </g>
     <g id="text_18">
      <text style="font-family:DejaVu Sans;font-size:6px;font-stretch:normal;font-style:normal;font-weight:normal;text-anchor:middle;" transform="rotate(-0, 256.887685, 184.359063)" x="256.887685" y="184.359063">0.4</text>
     </g>
    </g>
    <g id="xtick_10">
     <g id="line2d_19">
      <g>
       <use style="stroke:#000000;stroke-width:0.25;" x="286.638457" xlink:href="#me138ca8a2b" y="172.8"/>
      </g>
     </g>
     <g id="text_19">
      <text style="font-family:DejaVu Sans;font-size:6px;font-stretch:normal;font-style:normal;font-weight:normal;text-anchor:middle;" transform="rotate(-0, 286.638457, 184.359063)" x="286.638457" y="184.359063">0.6</text>
     </g>
    </g>
    <g id="xtick_11">
     <g id="line2d_20">
      <g>
       <use style="stroke:#000000;stroke-width:0.25;" x="316.389228" xlink:href="#me138ca8a2b" y="172.8"/>
      </g>
     </g>
     <g id="text_20">
      <text style="font-family:DejaVu Sans;font-size:6px;font-stretch:normal;font-style:normal;font-weight:normal;text-anchor:middle;" transform="rotate(-0, 316.389228, 184.359063)" x="316.389228" y="184.359063">0.8</text>
     </g>
    </g>
    <g id="xtick_12">
     <g id="line2d_21">
      <g>
       <use style="stroke:#000000;stroke-width:0.25;" x="346.14" xlink:href="#me138ca8a2b" y="172.8"/>
      </g>
     </g>
     <g id="text_21">
      <text style="font-family:DejaVu Sans;font-size:6px;font-stretch:normal;font-style:normal;font-weight:normal;text-anchor:middle;" transform="rotate(-0, 346.14, 184.359063)" x="346.14" y="184.359063">1.0</text>
     </g>
    </g>
    <g id="text_22">
     <text style="font-family:DejaVu Sans;font-size:6px;font-stretch:normal;font-style:normal;font-weight:normal;text-anchor:middle;" transform="rotate(-0, 271.763071, 194.165938)" x="271.763071" y="194.165938">value</text>
    </g>
   </g>
   <g id="matplotlib.axis_4">
    <g id="ytick_7">
     <g id="line2d_22">
      <g>
       <use style="stroke:#000000;stroke-width:0.25;" x="197.386142" xlink:href="#m61dac8fb34" y="172.8"/>
      </g>
     </g>
    </g>
    <g id="ytick_8">
     <g id="line2d_23">
      <g>
       <use style="stroke:#000000;stroke-width:0.25;" x="197.386142" xlink:href="#m61dac8fb34" y="146.88"/>
      </g>
     </g>
    </g>
    <g id="ytick_9">
     <g id="line2d_24">
      <g>
       <use style="stroke:#000000;stroke-width:0.25;" x="197.386142" xlink:href="#m61dac8fb34" y="120.96"/>
      </g>
     </g>
    </g>
    <g id="ytick_10">
     <g id="line2d_25">
      <g>
       <use style="stroke:#000000;stroke-width:0.25;" x="197.386142" xlink:href="#m61dac8fb34" y="95.04"/>
      </g>
     </g>
    </g>
    <g id="ytick_11">
     <g id="line2d_26">
      <g>
       <use style="stroke:#000000;stroke-width:0.25;" x="197.386142" xlink:href="#m61dac8fb34" y="69.12"/>
      </g>
     </g>
    </g>
    <g id="ytick_12">
     <g id="line2d_27">
      <g>
       <use style="stroke:#000000;stroke-width:0.25;" x="197.386142" xlink:href="#m61dac8fb34" y="43.2"/>
      </g>
     </g>
    </g>
   </g>
   <g id="line2d_28">
    <path clip-path="url(#p9dd47b88ae)" d="M 201.312876 172.8 
L 201.312876 172.566906 
L 202.141986 172.566906 
L 202.141986 172.333813 
L 203.366558 172.333813 
L 203.366558 172.100719 
L 203.790819 172.100719 
L 203.790819 171.867626 
L 204.190384 171.867626 
L 204.190384 171.634532 
L 204.392754 171.634532 
L 204.392754 171.401439 
L 204.722061 171.401439 
L 204.722061 171.168345 
L 204.91461 171.168345 
L 204.91461 170.935252 
L 205.767818 170.935252 
L 205.767818 170.702158 
L 206.137696 170.702158 
L 206.137696 170.469065 
L 206.375818 170.469065 
L 206.375818 170.235971 
L 206.65653 170.235971 
L 206.688863 169.769784 
L 206.983535 169.769784 
L 206.983535 169.536691 
L 207.131314 169.536691 
L 207.181591 168.83741 
L 207.368752 168.83741 
L 207.446712 168.371223 
L 208.488873 168.371223 
L 208.489033 167.905036 
L 208.621384 167.905036 
L 208.621384 167.671942 
L 208.880244 167.671942 
L 208.880244 167.438849 
L 209.175232 167.438849 
L 209.175232 167.205755 
L 209.349395 167.205755 
L 209.436188 166.739568 
L 209.635685 166.739568 
L 209.745912 166.040288 
L 209.780974 166.040288 
L 209.868833 165.341007 
L 210.043014 165.341007 
L 210.043014 165.107914 
L 210.220657 165.107914 
L 210.298583 164.408633 
L 210.36999 164.408633 
L 210.436388 163.942446 
L 210.666611 163.942446 
L 210.697193 163.476259 
L 210.906818 163.476259 
L 211.012647 162.543885 
L 211.100381 162.543885 
L 211.143367 161.844604 
L 211.243022 161.844604 
L 211.283228 161.378417 
L 211.389654 161.378417 
L 211.389654 161.145324 
L 211.569482 161.145324 
L 211.663179 160.21295 
L 211.697396 160.21295 
L 211.730258 159.746763 
L 211.81583 159.746763 
L 211.81583 159.513669 
L 211.993035 159.513669 
L 211.993035 159.280576 
L 212.325534 159.280576 
L 212.433771 158.348201 
L 212.51155 158.348201 
L 212.574588 157.882014 
L 212.704353 157.882014 
L 212.772249 157.415827 
L 212.857676 157.415827 
L 212.861077 156.94964 
L 213.02678 156.94964 
L 213.086582 156.483453 
L 213.333305 156.483453 
L 213.342259 156.017266 
L 213.488436 156.017266 
L 213.540798 155.551079 
L 213.794973 155.551079 
L 213.794973 155.317986 
L 213.911138 155.317986 
L 214.004 154.618705 
L 214.160408 154.618705 
L 214.184258 153.919424 
L 214.314711 153.919424 
L 214.315052 153.453237 
L 214.535615 153.453237 
L 214.618276 152.520863 
L 214.755454 152.520863 
L 214.802247 151.821583 
L 214.898931 151.821583 
L 215.008107 150.423022 
L 215.100198 150.423022 
L 215.111043 149.956835 
L 215.45199 149.956835 
L 215.45199 149.723741 
L 215.566073 149.723741 
L 215.566073 149.490647 
L 215.80704 149.490647 
L 215.859584 149.02446 
L 215.986334 149.02446 
L 216.081067 148.092086 
L 216.165365 148.092086 
L 216.165365 147.858993 
L 216.285548 147.858993 
L 216.285548 147.625899 
L 216.429846 147.625899 
L 216.506996 146.693525 
L 216.551885 146.693525 
L 216.57713 146.227338 
L 216.689157 146.227338 
L 216.748964 145.528058 
L 216.903197 145.528058 
L 216.977864 145.061871 
L 217.066281 145.061871 
L 217.173955 144.129496 
L 217.18161 144.129496 
L 217.213096 143.663309 
L 217.311963 143.663309 
L 217.357412 143.197122 
L 217.467824 143.197122 
L 217.517403 142.730935 
L 217.682871 142.730935 
L 217.725795 142.264748 
L 217.828311 142.264748 
L 217.873132 141.565468 
L 217.946197 141.565468 
L 217.983798 141.099281 
L 218.061991 141.099281 
L 218.06391 140.633094 
L 218.278325 140.633094 
L 218.316219 139.933813 
L 218.419307 139.933813 
L 218.486868 139.467626 
L 218.65606 139.467626 
L 218.665057 139.001439 
L 218.809359 139.001439 
L 218.809359 138.768345 
L 219.009091 138.768345 
L 219.009091 138.535252 
L 219.127023 138.535252 
L 219.132975 138.069065 
L 219.403634 138.069065 
L 219.494464 137.136691 
L 219.620778 137.136691 
L 219.620778 136.903597 
L 219.809257 136.903597 
L 219.876567 136.204317 
L 219.92893 136.204317 
L 219.93962 135.738129 
L 220.144402 135.738129 
L 220.250042 134.805755 
L 220.301023 134.805755 
L 220.384148 134.339568 
L 220.421134 134.339568 
L 220.500867 133.873381 
L 220.669041 133.873381 
L 220.773276 133.407194 
L 220.810142 133.407194 
L 220.846809 132.941007 
L 221.021524 132.941007 
L 221.124429 132.241727 
L 221.16887 132.241727 
L 221.19627 131.542446 
L 221.354131 131.542446 
L 221.452623 131.076259 
L 221.493926 131.076259 
L 221.584828 130.376978 
L 221.847863 130.376978 
L 221.914321 129.677698 
L 222.148559 129.677698 
L 222.149245 129.211511 
L 222.269388 129.211511 
L 222.320177 128.745324 
L 222.480183 128.745324 
L 222.481436 128.279137 
L 222.663858 128.279137 
L 222.710168 127.579856 
L 222.853441 127.579856 
L 222.911499 126.647482 
L 222.99278 126.647482 
L 223.101001 125.715108 
L 223.126668 125.715108 
L 223.23111 125.248921 
L 223.270743 125.248921 
L 223.303826 124.782734 
L 223.539679 124.782734 
L 223.556516 124.316547 
L 223.664883 124.316547 
L 223.766949 123.85036 
L 223.777165 123.85036 
L 223.838071 123.151079 
L 223.968577 123.151079 
L 224.011382 122.451799 
L 224.113005 122.451799 
L 224.194397 121.519424 
L 224.228506 121.519424 
L 224.313849 121.053237 
L 224.378403 121.053237 
L 224.416504 120.58705 
L 224.864518 120.58705 
L 224.864518 120.353957 
L 225.02279 120.353957 
L 225.055407 119.88777 
L 225.17667 119.88777 
L 225.269995 118.722302 
L 225.495651 118.722302 
L 225.580732 117.789928 
L 225.639641 117.789928 
L 225.639641 117.556835 
L 225.794417 117.556835 
L 225.794417 117.323741 
L 225.920336 117.323741 
L 225.998588 116.62446 
L 226.167318 116.62446 
L 226.227483 116.158273 
L 226.411893 116.158273 
L 226.480495 115.458993 
L 226.612072 115.458993 
L 226.674418 114.992806 
L 226.864598 114.992806 
L 226.908622 114.526619 
L 226.987654 114.526619 
L 227.068674 114.060432 
L 227.100082 114.060432 
L 227.100082 113.827338 
L 227.372675 113.827338 
L 227.372675 113.594245 
L 227.54278 113.594245 
L 227.65036 113.128058 
L 227.706646 113.128058 
L 227.706646 112.894964 
L 227.821046 112.894964 
L 227.885139 112.195683 
L 227.945828 112.195683 
L 227.945828 111.96259 
L 228.155261 111.96259 
L 228.228942 111.496403 
L 228.42366 111.496403 
L 228.475022 111.030216 
L 228.655001 111.030216 
L 228.656533 110.564029 
L 228.909703 110.564029 
L 228.957746 110.097842 
L 229.149186 110.097842 
L 229.235287 109.165468 
L 229.269761 109.165468 
L 229.380617 108.466187 
L 229.421225 108.466187 
L 229.426759 108 
L 229.698613 108 
L 229.764334 107.300719 
L 229.837535 107.300719 
L 229.868344 106.834532 
L 230.06385 106.834532 
L 230.06385 106.601439 
L 230.187471 106.601439 
L 230.239382 106.135252 
L 230.342773 106.135252 
L 230.361968 105.669065 
L 230.576443 105.669065 
L 230.601834 105.202878 
L 230.808606 105.202878 
L 230.808606 104.969784 
L 230.936263 104.969784 
L 230.95938 104.503597 
L 231.175869 104.503597 
L 231.175869 104.270504 
L 231.433418 104.270504 
L 231.480743 103.804317 
L 231.555161 103.804317 
L 231.634543 103.338129 
L 231.964888 103.338129 
L 232.009739 102.871942 
L 232.09123 102.871942 
L 232.09123 102.638849 
L 232.256079 102.638849 
L 232.256079 102.405755 
L 232.378907 102.405755 
L 232.450607 101.706475 
L 232.83897 101.706475 
L 232.888342 101.007194 
L 232.976029 101.007194 
L 233.024413 100.541007 
L 233.534457 100.541007 
L 233.631742 99.841727 
L 234.01106 99.841727 
L 234.01106 99.608633 
L 234.251029 99.608633 
L 234.357262 99.142446 
L 234.430479 99.142446 
L 234.430479 98.909353 
L 234.781614 98.909353 
L 234.781614 98.676259 
L 234.975724 98.676259 
L 235.05299 97.976978 
L 235.152387 97.976978 
L 235.187304 97.510791 
L 235.383417 97.510791 
L 235.383417 97.277698 
L 235.742801 97.277698 
L 235.769588 96.811511 
L 236.116873 96.811511 
L 236.188948 96.11223 
L 236.507893 96.11223 
L 236.507893 95.879137 
L 236.788764 95.879137 
L 236.788764 95.646043 
L 237.068975 95.646043 
L 237.068975 95.41295 
L 237.486176 95.41295 
L 237.486176 95.179856 
L 237.598871 95.179856 
L 237.598871 94.946763 
L 237.816958 94.946763 
L 237.816958 94.713669 
L 237.970478 94.713669 
L 237.970478 94.480576 
L 238.131669 94.480576 
L 238.131669 94.247482 
L 238.411926 94.247482 
L 238.411926 94.014388 
L 238.598252 94.014388 
L 238.598252 93.781295 
L 238.785982 93.781295 
L 238.810371 93.082014 
L 239.091614 93.082014 
L 239.171365 92.382734 
L 239.208521 92.382734 
L 239.254758 91.683453 
L 239.331727 91.683453 
L 239.331727 91.45036 
L 239.523553 91.45036 
L 239.537566 90.984173 
L 239.75029 90.984173 
L 239.756475 90.517986 
L 240.117858 90.517986 
L 240.117858 90.284892 
L 240.307529 90.284892 
L 240.307529 90.051799 
L 240.455577 90.051799 
L 240.484284 89.119424 
L 240.655506 89.119424 
L 240.704953 88.420144 
L 241.063789 88.420144 
L 241.173122 87.953957 
L 241.479262 87.953957 
L 241.479262 87.720863 
L 241.638185 87.720863 
L 241.724198 87.254676 
L 241.849031 87.254676 
L 241.849031 87.021583 
L 242.029295 87.021583 
L 242.123994 86.322302 
L 242.281694 86.322302 
L 242.379629 85.856115 
L 243.01765 85.856115 
L 243.035716 85.389928 
L 243.274744 85.389928 
L 243.300791 84.923741 
L 243.518552 84.923741 
L 243.518552 84.690647 
L 243.740738 84.690647 
L 243.740738 84.457554 
L 243.879722 84.457554 
L 243.879722 84.22446 
L 244.250558 84.22446 
L 244.250558 83.991367 
L 245.044455 83.991367 
L 245.044455 83.758273 
L 245.199864 83.758273 
L 245.310836 83.058993 
L 245.688675 83.058993 
L 245.688675 82.825899 
L 245.924847 82.825899 
L 245.924847 82.592806 
L 246.078043 82.592806 
L 246.171084 82.126619 
L 246.623357 82.126619 
L 246.631618 81.660432 
L 246.818419 81.660432 
L 246.818419 81.427338 
L 246.963909 81.427338 
L 246.963909 81.194245 
L 247.097334 81.194245 
L 247.097334 80.961151 
L 247.433014 80.961151 
L 247.433014 80.728058 
L 247.901554 80.728058 
L 247.901554 80.494964 
L 248.034646 80.494964 
L 248.06943 80.028777 
L 248.233829 80.028777 
L 248.233829 79.795683 
L 248.972481 79.795683 
L 249.046716 79.329496 
L 249.088256 79.329496 
L 249.088256 79.096403 
L 249.215246 79.096403 
L 249.317759 78.630216 
L 249.379348 78.630216 
L 249.379348 78.397122 
L 249.922611 78.397122 
L 249.922611 78.164029 
L 250.100721 78.164029 
L 250.157744 77.697842 
L 250.344462 77.697842 
L 250.392434 77.231655 
L 250.645667 77.231655 
L 250.753879 76.765468 
L 251.183931 76.765468 
L 251.183931 76.532374 
L 251.366607 76.532374 
L 251.366607 76.299281 
L 251.479851 76.299281 
L 251.479851 76.066187 
L 251.776641 76.066187 
L 251.776641 75.833094 
L 251.89825 75.833094 
L 251.89825 75.6 
L 252.161257 75.6 
L 252.184527 75.133813 
L 252.483159 75.133813 
L 252.570735 74.667626 
L 252.968553 74.667626 
L 252.98939 74.201439 
L 253.242305 74.201439 
L 253.242305 73.968345 
L 253.48842 73.968345 
L 253.48842 73.735252 
L 253.694908 73.735252 
L 253.79645 73.269065 
L 254.050481 73.269065 
L 254.103923 72.802878 
L 254.190101 72.802878 
L 254.190101 72.569784 
L 254.505944 72.569784 
L 254.608293 71.870504 
L 254.806836 71.870504 
L 254.823783 71.404317 
L 254.962055 71.404317 
L 254.985201 70.938129 
L 255.082533 70.938129 
L 255.082533 70.705036 
L 256.108655 70.705036 
L 256.183316 70.238849 
L 256.311261 70.238849 
L 256.311261 70.005755 
L 256.43777 70.005755 
L 256.43777 69.772662 
L 256.789588 69.772662 
L 256.789588 69.539568 
L 257.376662 69.539568 
L 257.376662 69.306475 
L 258.783279 69.306475 
L 258.783279 69.073381 
L 258.927242 69.073381 
L 258.927242 68.840288 
L 259.076697 68.840288 
L 259.076697 68.607194 
L 259.819776 68.607194 
L 259.890852 67.907914 
L 260.451171 67.907914 
L 260.451171 67.67482 
L 261.314623 67.67482 
L 261.314623 67.441727 
L 262.044009 67.441727 
L 262.086206 66.97554 
L 262.251644 66.97554 
L 262.251644 66.742446 
L 263.107424 66.742446 
L 263.107424 66.509353 
L 264.401569 66.509353 
L 264.493917 66.043165 
L 265.154305 66.043165 
L 265.154305 65.810072 
L 265.991531 65.810072 
L 265.991531 65.576978 
L 266.28462 65.576978 
L 266.28462 65.343885 
L 266.626997 65.343885 
L 266.626997 65.110791 
L 267.289088 65.110791 
L 267.289088 64.877698 
L 267.590728 64.877698 
L 267.590728 64.644604 
L 267.780554 64.644604 
L 267.832931 64.178417 
L 267.995219 64.178417 
L 267.995219 63.945324 
L 268.55407 63.945324 
L 268.642525 63.479137 
L 268.792378 63.479137 
L 268.792378 63.246043 
L 268.910057 63.246043 
L 268.910057 63.01295 
L 269.774896 63.01295 
L 269.774896 62.779856 
L 270.022573 62.779856 
L 270.107228 62.313669 
L 270.323927 62.313669 
L 270.323927 62.080576 
L 270.530877 62.080576 
L 270.530877 61.847482 
L 270.718437 61.847482 
L 270.718437 61.614388 
L 271.046488 61.614388 
L 271.046488 61.381295 
L 271.323745 61.381295 
L 271.344864 60.915108 
L 271.632214 60.915108 
L 271.632214 60.682014 
L 271.974703 60.682014 
L 272.00128 60.215827 
L 272.484704 60.215827 
L 272.484704 59.982734 
L 272.752653 59.982734 
L 272.752653 59.74964 
L 272.898007 59.74964 
L 272.997754 59.283453 
L 273.232896 59.283453 
L 273.232896 59.05036 
L 273.500745 59.05036 
L 273.500745 58.817266 
L 273.660279 58.817266 
L 273.704959 58.351079 
L 274.127151 58.351079 
L 274.127151 58.117986 
L 274.602784 58.117986 
L 274.700525 57.418705 
L 275.188503 57.418705 
L 275.188503 57.185612 
L 275.658644 57.185612 
L 275.706149 56.719424 
L 275.960957 56.719424 
L 276.023132 56.253237 
L 276.550892 56.253237 
L 276.580198 55.78705 
L 277.038895 55.78705 
L 277.091021 55.08777 
L 277.320678 55.08777 
L 277.320678 54.854676 
L 277.629285 54.854676 
L 277.690516 54.155396 
L 277.87167 54.155396 
L 277.87167 53.922302 
L 278.371359 53.922302 
L 278.371359 53.689209 
L 279.028187 53.689209 
L 279.028187 53.456115 
L 279.14939 53.456115 
L 279.14939 53.223022 
L 279.266917 53.223022 
L 279.266917 52.989928 
L 279.395899 52.989928 
L 279.395899 52.756835 
L 280.2802 52.756835 
L 280.2802 52.523741 
L 280.984315 52.523741 
L 280.984315 52.290647 
L 281.748229 52.290647 
L 281.748229 52.057554 
L 282.387881 52.057554 
L 282.464006 51.591367 
L 282.813673 51.591367 
L 282.813673 51.358273 
L 283.423054 51.358273 
L 283.423054 51.12518 
L 285.143493 51.12518 
L 285.221767 50.658993 
L 286.831167 50.658993 
L 286.831167 50.425899 
L 287.215484 50.425899 
L 287.252519 49.959712 
L 287.373108 49.959712 
L 287.373108 49.726619 
L 287.555977 49.726619 
L 287.555977 49.493525 
L 287.740537 49.493525 
L 287.740537 49.260432 
L 288.447615 49.260432 
L 288.535155 48.561151 
L 288.702105 48.561151 
L 288.702105 48.328058 
L 288.98228 48.328058 
L 288.98228 48.094964 
L 290.275799 48.094964 
L 290.275799 47.861871 
L 290.651904 47.861871 
L 290.651904 47.628777 
L 291.556504 47.628777 
L 291.556504 47.395683 
L 292.056172 47.395683 
L 292.056172 47.16259 
L 292.679795 47.16259 
L 292.679795 46.929496 
L 292.796622 46.929496 
L 292.796622 46.696403 
L 296.681253 46.696403 
L 296.681253 46.463309 
L 297.481289 46.463309 
L 297.481289 46.230216 
L 298.743656 46.230216 
L 298.743656 45.997122 
L 299.746576 45.997122 
L 299.746576 45.764029 
L 300.080508 45.764029 
L 300.080508 45.530935 
L 302.15724 45.530935 
L 302.15724 45.297842 
L 302.565304 45.297842 
L 302.565304 45.064748 
L 303.836598 45.064748 
L 303.836598 44.831655 
L 306.6948 44.831655 
L 306.6948 44.598561 
L 310.209315 44.598561 
L 310.209315 44.365468 
L 312.219696 44.365468 
L 312.219696 44.132374 
L 313.574206 44.132374 
L 313.574206 43.899281 
L 316.401415 43.899281 
L 316.401415 43.666187 
L 317.044875 43.666187 
L 317.044875 43.433094 
L 319.597312 43.433094 
L 319.597312 43.2 
L 319.597312 43.2 
" style="fill:none;stroke:#ff00ff;stroke-linecap:square;stroke-width:1.5;"/>
   </g>
   <g id="line2d_29">
    <path clip-path="url(#p9dd47b88ae)" d="M 201.968855 172.8 
L 201.968855 172.524255 
L 203.286826 172.524255 
L 203.286826 172.248511 
L 203.64033 172.248511 
L 203.64033 171.972766 
L 204.240966 171.972766 
L 204.240966 171.697021 
L 205.046306 171.697021 
L 205.046306 171.421277 
L 205.596891 171.421277 
L 205.596891 171.145532 
L 205.848479 171.145532 
L 205.848479 170.869787 
L 206.084172 170.869787 
L 206.084172 170.594043 
L 206.735118 170.594043 
L 206.735118 170.318298 
L 207.084883 170.318298 
L 207.099304 169.766809 
L 207.224834 169.766809 
L 207.224834 169.491064 
L 207.416835 169.491064 
L 207.445327 168.939574 
L 207.834556 168.939574 
L 207.834556 168.66383 
L 207.960278 168.66383 
L 208.069652 168.11234 
L 208.077719 168.11234 
L 208.135993 167.560851 
L 208.439609 167.560851 
L 208.534249 167.009362 
L 208.728207 167.009362 
L 208.728207 166.733617 
L 209.502057 166.733617 
L 209.565756 165.906383 
L 209.912178 165.906383 
L 209.912178 165.630638 
L 210.779169 165.630638 
L 210.779169 165.354894 
L 211.650459 165.354894 
L 211.660751 164.803404 
L 212.036696 164.803404 
L 212.144999 163.97617 
L 212.228209 163.97617 
L 212.337381 162.873191 
L 212.3919 162.873191 
L 212.470137 162.321702 
L 212.571045 162.321702 
L 212.592329 161.770213 
L 212.870278 161.770213 
L 212.870278 161.494468 
L 213.271368 161.494468 
L 213.350887 160.115745 
L 213.422114 160.115745 
L 213.491337 159.564255 
L 213.542393 159.564255 
L 213.542393 159.288511 
L 213.738184 159.288511 
L 213.797327 158.461277 
L 213.936651 158.461277 
L 213.936651 158.185532 
L 214.086442 158.185532 
L 214.086442 157.909787 
L 214.203966 157.909787 
L 214.273789 157.082553 
L 214.549928 157.082553 
L 214.621133 156.255319 
L 214.695577 156.255319 
L 214.795511 155.70383 
L 215.034287 155.70383 
L 215.144286 154.600851 
L 215.481424 154.600851 
L 215.524449 153.773617 
L 215.759906 153.773617 
L 215.827062 152.946383 
L 216.012324 152.946383 
L 216.054776 152.394894 
L 216.134925 152.394894 
L 216.134925 152.119149 
L 216.247183 152.119149 
L 216.356542 150.740426 
L 216.443467 150.740426 
L 216.486291 149.913191 
L 216.87481 149.913191 
L 216.962015 149.085957 
L 217.060572 149.085957 
L 217.145247 148.534468 
L 217.299594 148.534468 
L 217.371286 147.707234 
L 217.422017 147.707234 
L 217.522399 147.155745 
L 217.591641 147.155745 
L 217.59796 146.604255 
L 217.856488 146.604255 
L 217.919375 146.052766 
L 218.102786 146.052766 
L 218.185919 145.225532 
L 218.229637 145.225532 
L 218.294955 144.674043 
L 218.389365 144.674043 
L 218.389365 144.398298 
L 218.506873 144.398298 
L 218.513288 143.846809 
L 218.937849 143.846809 
L 218.937849 143.571064 
L 219.076542 143.571064 
L 219.164257 143.019574 
L 219.237554 143.019574 
L 219.245276 142.468085 
L 219.742327 142.468085 
L 219.742327 142.19234 
L 220.202073 142.19234 
L 220.202073 141.916596 
L 220.653475 141.916596 
L 220.757406 141.365106 
L 220.861993 141.365106 
L 220.970008 140.813617 
L 221.087251 140.813617 
L 221.177981 139.710638 
L 221.282122 139.710638 
L 221.351899 139.159149 
L 221.528862 139.159149 
L 221.528862 138.883404 
L 221.644002 138.883404 
L 221.644002 138.60766 
L 221.831889 138.60766 
L 221.831889 138.331915 
L 221.963172 138.331915 
L 222.047842 137.780426 
L 222.112537 137.780426 
L 222.159172 137.228936 
L 222.328457 137.228936 
L 222.439386 136.401702 
L 222.484056 136.401702 
L 222.484056 136.125957 
L 222.720039 136.125957 
L 222.786045 135.574468 
L 222.887919 135.574468 
L 222.947771 135.022979 
L 223.360346 135.022979 
L 223.461451 134.471489 
L 223.499835 134.471489 
L 223.503283 133.92 
L 223.706618 133.92 
L 223.760819 133.368511 
L 223.842085 133.368511 
L 223.923577 132.541277 
L 224.123333 132.541277 
L 224.123333 132.265532 
L 224.486944 132.265532 
L 224.486944 131.989787 
L 224.653709 131.989787 
L 224.653709 131.714043 
L 224.832817 131.714043 
L 224.853099 131.162553 
L 225.282164 131.162553 
L 225.282164 130.886809 
L 225.557729 130.886809 
L 225.577991 130.335319 
L 225.905182 130.335319 
L 225.905182 130.059574 
L 226.06802 130.059574 
L 226.06802 129.78383 
L 226.651001 129.78383 
L 226.718016 129.23234 
L 226.835805 129.23234 
L 226.835805 128.956596 
L 227.093641 128.956596 
L 227.106734 128.405106 
L 227.447336 128.405106 
L 227.447336 128.129362 
L 227.622944 128.129362 
L 227.711736 127.577872 
L 227.74436 127.577872 
L 227.804215 127.026383 
L 227.92115 127.026383 
L 228.029815 125.923404 
L 228.427523 125.923404 
L 228.427523 125.64766 
L 228.573465 125.64766 
L 228.573465 125.371915 
L 228.954871 125.371915 
L 228.954871 125.09617 
L 229.188658 125.09617 
L 229.188658 124.820426 
L 229.514711 124.820426 
L 229.514711 124.544681 
L 229.678645 124.544681 
L 229.722529 123.993191 
L 229.986181 123.993191 
L 230.014986 123.441702 
L 230.14214 123.441702 
L 230.250578 122.614468 
L 230.287349 122.614468 
L 230.287349 122.338723 
L 230.625204 122.338723 
L 230.645797 121.787234 
L 230.78826 121.787234 
L 230.889371 120.684255 
L 230.965921 120.684255 
L 231.075224 119.857021 
L 231.085572 119.857021 
L 231.085572 119.581277 
L 231.322988 119.581277 
L 231.40834 119.029787 
L 231.518301 119.029787 
L 231.518301 118.754043 
L 231.923013 118.754043 
L 231.939823 118.202553 
L 232.264397 118.202553 
L 232.264397 117.926809 
L 232.505545 117.926809 
L 232.564235 117.375319 
L 233.136822 117.375319 
L 233.136822 117.099574 
L 233.735309 117.099574 
L 233.748536 116.27234 
L 234.51651 116.27234 
L 234.51651 115.996596 
L 235.165046 115.996596 
L 235.165046 115.720851 
L 235.443332 115.720851 
L 235.509014 115.169362 
L 235.616787 115.169362 
L 235.616787 114.893617 
L 235.843844 114.893617 
L 235.916765 114.342128 
L 235.961408 114.342128 
L 235.961408 114.066383 
L 236.094238 114.066383 
L 236.094238 113.790638 
L 236.253165 113.790638 
L 236.308961 112.963404 
L 236.69816 112.963404 
L 236.741074 112.411915 
L 237.056368 112.411915 
L 237.056368 112.13617 
L 237.195857 112.13617 
L 237.195857 111.860426 
L 237.322956 111.860426 
L 237.322956 111.584681 
L 237.457292 111.584681 
L 237.46986 111.033191 
L 237.753192 111.033191 
L 237.753192 110.757447 
L 238.163244 110.757447 
L 238.251765 109.930213 
L 238.349267 109.930213 
L 238.403119 109.378723 
L 238.530276 109.378723 
L 238.540434 108.827234 
L 238.689482 108.827234 
L 238.689482 108.551489 
L 238.865676 108.551489 
L 238.865676 108.275745 
L 239.19416 108.275745 
L 239.19416 108 
L 239.666146 108 
L 239.679402 107.448511 
L 240.077979 107.448511 
L 240.077979 107.172766 
L 240.765906 107.172766 
L 240.855114 106.345532 
L 241.387775 106.345532 
L 241.387775 106.069787 
L 241.608409 106.069787 
L 241.702091 105.242553 
L 241.797487 105.242553 
L 241.797487 104.966809 
L 242.200948 104.966809 
L 242.200948 104.691064 
L 242.361458 104.691064 
L 242.411059 104.139574 
L 242.908817 104.139574 
L 242.908817 103.86383 
L 243.749327 103.86383 
L 243.784419 103.31234 
L 244.123862 103.31234 
L 244.123862 103.036596 
L 244.354364 103.036596 
L 244.414659 102.485106 
L 244.694326 102.485106 
L 244.739557 101.933617 
L 244.909493 101.933617 
L 244.978443 101.382128 
L 245.953085 101.382128 
L 245.953085 101.106383 
L 246.413694 101.106383 
L 246.413694 100.830638 
L 246.704961 100.830638 
L 246.704961 100.554894 
L 247.25582 100.554894 
L 247.348162 100.003404 
L 247.850613 100.003404 
L 247.850613 99.72766 
L 248.020181 99.72766 
L 248.110835 98.900426 
L 248.245756 98.900426 
L 248.341019 98.073191 
L 249.131479 98.073191 
L 249.191102 97.521702 
L 249.437528 97.521702 
L 249.437528 97.245957 
L 250.1049 97.245957 
L 250.1049 96.970213 
L 250.305397 96.970213 
L 250.305397 96.694468 
L 250.743954 96.694468 
L 250.743954 96.418723 
L 250.957246 96.418723 
L 250.957246 96.142979 
L 251.601533 96.142979 
L 251.601533 95.867234 
L 251.729978 95.867234 
L 251.729978 95.591489 
L 251.846894 95.591489 
L 251.846894 95.315745 
L 252.321836 95.315745 
L 252.381773 94.764255 
L 252.485546 94.764255 
L 252.485546 94.488511 
L 252.933733 94.488511 
L 252.959814 93.937021 
L 253.474175 93.937021 
L 253.474175 93.661277 
L 253.611915 93.661277 
L 253.611915 93.385532 
L 253.794369 93.385532 
L 253.854956 92.834043 
L 253.95217 92.834043 
L 254.050443 92.282553 
L 254.06531 92.282553 
L 254.144734 91.731064 
L 254.562794 91.731064 
L 254.562794 91.455319 
L 254.856433 91.455319 
L 254.915716 90.90383 
L 255.484664 90.90383 
L 255.484664 90.628085 
L 255.621378 90.628085 
L 255.640687 90.076596 
L 255.889115 90.076596 
L 255.889115 89.800851 
L 256.040453 89.800851 
L 256.040453 89.525106 
L 256.245773 89.525106 
L 256.245773 89.249362 
L 256.739352 89.249362 
L 256.739352 88.973617 
L 256.986873 88.973617 
L 257.050976 88.422128 
L 257.36214 88.422128 
L 257.36214 88.146383 
L 257.478987 88.146383 
L 257.574094 87.594894 
L 259.318799 87.594894 
L 259.318799 87.319149 
L 259.63075 87.319149 
L 259.63075 87.043404 
L 260.296763 87.043404 
L 260.296763 86.76766 
L 260.466288 86.76766 
L 260.466288 86.491915 
L 261.078162 86.491915 
L 261.078162 86.21617 
L 261.244183 86.21617 
L 261.244183 85.940426 
L 261.631194 85.940426 
L 261.631194 85.664681 
L 262.38033 85.664681 
L 262.38033 85.388936 
L 262.531438 85.388936 
L 262.531438 85.113191 
L 262.649605 85.113191 
L 262.649605 84.837447 
L 263.704527 84.837447 
L 263.710772 84.285957 
L 264.178654 84.285957 
L 264.267385 83.458723 
L 264.38619 83.458723 
L 264.443988 82.907234 
L 264.649014 82.907234 
L 264.649014 82.631489 
L 264.988344 82.631489 
L 265.072697 82.08 
L 265.13897 82.08 
L 265.13897 81.804255 
L 265.398969 81.804255 
L 265.407442 81.252766 
L 265.579836 81.252766 
L 265.579836 80.977021 
L 265.749481 80.977021 
L 265.749481 80.701277 
L 265.934431 80.701277 
L 265.934431 80.425532 
L 266.558718 80.425532 
L 266.615318 79.598298 
L 267.100554 79.598298 
L 267.194833 79.046809 
L 267.388691 79.046809 
L 267.388691 78.771064 
L 268.032938 78.771064 
L 268.129869 77.94383 
L 268.229456 77.94383 
L 268.229456 77.668085 
L 268.449379 77.668085 
L 268.551674 77.116596 
L 268.619509 77.116596 
L 268.619509 76.840851 
L 269.253328 76.840851 
L 269.253328 76.565106 
L 269.488587 76.565106 
L 269.488587 76.289362 
L 269.634902 76.289362 
L 269.634902 76.013617 
L 269.989934 76.013617 
L 269.989934 75.737872 
L 270.136952 75.737872 
L 270.136952 75.462128 
L 270.266651 75.462128 
L 270.288237 74.910638 
L 270.893874 74.910638 
L 270.893874 74.634894 
L 271.362355 74.634894 
L 271.387521 74.083404 
L 271.758056 74.083404 
L 271.846436 73.531915 
L 272.197467 73.531915 
L 272.197467 73.25617 
L 272.35479 73.25617 
L 272.365914 72.704681 
L 272.545909 72.704681 
L 272.605395 72.153191 
L 272.720704 72.153191 
L 272.720704 71.877447 
L 273.079531 71.877447 
L 273.079531 71.601702 
L 273.670971 71.601702 
L 273.670971 71.325957 
L 274.033114 71.325957 
L 274.033114 71.050213 
L 274.257968 71.050213 
L 274.257968 70.774468 
L 274.472172 70.774468 
L 274.556152 70.222979 
L 274.655155 70.222979 
L 274.655155 69.947234 
L 274.858763 69.947234 
L 274.906747 69.395745 
L 275.251922 69.395745 
L 275.251922 69.12 
L 275.49718 69.12 
L 275.49718 68.844255 
L 275.940493 68.844255 
L 275.940493 68.568511 
L 276.750577 68.568511 
L 276.750577 68.292766 
L 277.156061 68.292766 
L 277.156061 68.017021 
L 277.289947 68.017021 
L 277.289947 67.741277 
L 277.401807 67.741277 
L 277.401807 67.465532 
L 277.651559 67.465532 
L 277.651559 67.189787 
L 278.241042 67.189787 
L 278.241042 66.914043 
L 278.449356 66.914043 
L 278.495995 66.362553 
L 278.895558 66.362553 
L 278.895558 66.086809 
L 279.400043 66.086809 
L 279.400043 65.811064 
L 279.682216 65.811064 
L 279.682216 65.535319 
L 280.064867 65.535319 
L 280.140184 64.98383 
L 280.316435 64.98383 
L 280.316435 64.708085 
L 280.49719 64.708085 
L 280.57347 63.880851 
L 280.687493 63.880851 
L 280.687493 63.605106 
L 281.095191 63.605106 
L 281.095191 63.329362 
L 281.773201 63.329362 
L 281.827653 62.777872 
L 281.897494 62.777872 
L 281.897494 62.502128 
L 282.452603 62.502128 
L 282.500422 61.950638 
L 282.880982 61.950638 
L 282.886306 61.399149 
L 283.455934 61.399149 
L 283.45645 60.84766 
L 283.849803 60.84766 
L 283.941911 60.29617 
L 284.100477 60.29617 
L 284.100477 60.020426 
L 284.313546 60.020426 
L 284.313546 59.744681 
L 284.818475 59.744681 
L 284.818475 59.468936 
L 284.966344 59.468936 
L 284.966344 59.193191 
L 285.155005 59.193191 
L 285.252114 58.365957 
L 285.643059 58.365957 
L 285.643059 58.090213 
L 286.294681 58.090213 
L 286.387371 57.262979 
L 286.774887 57.262979 
L 286.774887 56.987234 
L 287.086557 56.987234 
L 287.123994 56.435745 
L 287.256013 56.435745 
L 287.256013 56.16 
L 287.490349 56.16 
L 287.490349 55.884255 
L 287.770247 55.884255 
L 287.770247 55.608511 
L 288.048563 55.608511 
L 288.048563 55.332766 
L 288.959498 55.332766 
L 288.959498 55.057021 
L 289.105455 55.057021 
L 289.105455 54.781277 
L 289.567417 54.781277 
L 289.567417 54.505532 
L 290.651272 54.505532 
L 290.651272 54.229787 
L 291.235946 54.229787 
L 291.235946 53.954043 
L 291.416164 53.954043 
L 291.464196 53.402553 
L 292.415424 53.402553 
L 292.415424 53.126809 
L 292.640605 53.126809 
L 292.640605 52.851064 
L 292.800702 52.851064 
L 292.800702 52.575319 
L 293.322593 52.575319 
L 293.322593 52.299574 
L 293.745277 52.299574 
L 293.745277 52.02383 
L 293.88303 52.02383 
L 293.88303 51.748085 
L 294.630233 51.748085 
L 294.630233 51.47234 
L 294.828933 51.47234 
L 294.828933 51.196596 
L 295.671287 51.196596 
L 295.671287 50.920851 
L 296.413502 50.920851 
L 296.413502 50.645106 
L 296.733796 50.645106 
L 296.777364 50.093617 
L 299.672931 50.093617 
L 299.672931 49.817872 
L 300.065091 49.817872 
L 300.065091 49.542128 
L 300.687395 49.542128 
L 300.687395 49.266383 
L 301.581799 49.266383 
L 301.631696 48.714894 
L 302.300851 48.714894 
L 302.300851 48.439149 
L 303.350477 48.439149 
L 303.383056 47.88766 
L 304.323636 47.88766 
L 304.423281 47.33617 
L 304.500177 47.33617 
L 304.500177 47.060426 
L 305.115825 47.060426 
L 305.115825 46.784681 
L 305.458219 46.784681 
L 305.458219 46.508936 
L 310.162985 46.508936 
L 310.162985 46.233191 
L 314.27221 46.233191 
L 314.27221 45.957447 
L 314.953834 45.957447 
L 314.953834 45.681702 
L 317.414046 45.681702 
L 317.421766 45.130213 
L 317.639214 45.130213 
L 317.639214 44.854468 
L 318.576394 44.854468 
L 318.576394 44.578723 
L 320.942087 44.578723 
L 320.942087 44.302979 
L 326.536132 44.302979 
L 326.536132 44.027234 
L 327.233352 44.027234 
L 327.233352 43.751489 
L 330.795097 43.751489 
L 330.795097 43.475745 
L 331.07023 43.475745 
L 331.07023 43.2 
L 331.07023 43.2 
" style="fill:none;stroke:#ffa500;stroke-linecap:square;stroke-width:1.5;"/>
   </g>
   <g id="line2d_30">
    <path clip-path="url(#p9dd47b88ae)" d="M 215.753643 172.8 
L 215.753643 171.18 
L 220.389874 171.18 
L 220.389874 169.56 
L 222.639723 169.56 
L 222.639723 167.94 
L 225.690373 167.94 
L 225.690373 166.32 
L 226.32465 166.32 
L 226.32465 164.7 
L 226.999609 164.7 
L 226.999609 163.08 
L 227.264887 163.08 
L 227.264887 161.46 
L 229.901549 161.46 
L 229.901549 159.84 
L 230.364576 159.84 
L 230.364576 158.22 
L 230.660193 158.22 
L 230.660193 156.6 
L 231.268274 156.6 
L 231.268274 154.98 
L 231.449871 154.98 
L 231.449871 153.36 
L 231.856531 153.36 
L 231.856531 151.74 
L 232.36234 151.74 
L 232.36234 150.12 
L 234.80658 150.12 
L 234.80658 148.5 
L 237.435506 148.5 
L 237.435506 146.88 
L 238.005954 146.88 
L 238.005954 145.26 
L 239.060248 145.26 
L 239.060248 143.64 
L 241.832817 143.64 
L 241.832817 142.02 
L 246.286603 142.02 
L 246.286603 140.4 
L 249.658561 140.4 
L 249.764565 137.16 
L 251.571021 137.16 
L 251.571021 135.54 
L 252.025885 135.54 
L 252.025885 133.92 
L 252.218479 133.92 
L 252.218479 132.3 
L 252.783114 132.3 
L 252.783114 130.68 
L 255.850341 130.68 
L 255.850341 129.06 
L 256.039134 129.06 
L 256.039134 127.44 
L 257.816775 127.44 
L 257.816775 125.82 
L 259.403781 125.82 
L 259.403781 124.2 
L 259.601894 124.2 
L 259.601894 122.58 
L 260.266546 122.58 
L 260.266546 120.96 
L 260.506096 120.96 
L 260.506096 119.34 
L 260.638535 119.34 
L 260.638535 117.72 
L 260.804437 117.72 
L 260.804437 116.1 
L 261.794658 116.1 
L 261.794658 114.48 
L 262.641718 114.48 
L 262.641718 112.86 
L 262.903339 112.86 
L 262.903339 111.24 
L 264.666547 111.24 
L 264.666547 109.62 
L 270.046735 109.62 
L 270.046735 108 
L 270.857747 108 
L 270.857747 106.38 
L 271.726024 106.38 
L 271.726024 104.76 
L 272.853342 104.76 
L 272.853342 103.14 
L 273.761913 103.14 
L 273.761913 101.52 
L 274.238413 101.52 
L 274.238413 99.9 
L 274.992406 99.9 
L 274.992406 98.28 
L 276.89387 98.28 
L 276.89387 96.66 
L 277.43449 96.66 
L 277.43449 95.04 
L 279.408075 95.04 
L 279.408075 93.42 
L 280.273337 93.42 
L 280.273337 91.8 
L 280.593457 91.8 
L 280.593457 90.18 
L 282.319736 90.18 
L 282.319736 88.56 
L 284.470605 88.56 
L 284.470605 86.94 
L 285.024419 86.94 
L 285.024419 85.32 
L 285.868453 85.32 
L 285.868453 83.7 
L 286.45951 83.7 
L 286.45951 82.08 
L 286.71295 82.08 
L 286.71295 80.46 
L 286.900321 80.46 
L 286.900321 78.84 
L 287.169041 78.84 
L 287.169041 77.22 
L 288.806119 77.22 
L 288.806119 75.6 
L 289.081648 75.6 
L 289.145359 72.36 
L 289.72016 72.36 
L 289.72016 70.74 
L 292.045233 70.74 
L 292.045233 69.12 
L 292.724353 69.12 
L 292.724353 67.5 
L 293.952291 67.5 
L 293.952291 65.88 
L 296.785093 65.88 
L 296.785093 64.26 
L 297.324736 64.26 
L 297.324736 62.64 
L 297.615206 62.64 
L 297.615206 61.02 
L 298.028611 61.02 
L 298.028611 59.4 
L 298.324902 59.4 
L 298.324902 57.78 
L 298.532569 57.78 
L 298.532569 56.16 
L 298.991841 56.16 
L 298.991841 54.54 
L 299.626102 54.54 
L 299.626102 52.92 
L 304.935886 52.92 
L 304.935886 51.3 
L 305.128678 51.3 
L 305.128678 49.68 
L 307.649666 49.68 
L 307.649666 48.06 
L 307.793278 48.06 
L 307.793278 46.44 
L 313.843737 46.44 
L 313.843737 44.82 
L 321.049363 44.82 
L 321.049363 43.2 
L 321.049363 43.2 
" style="fill:none;stroke:#1e90ff;stroke-linecap:square;stroke-width:1.5;"/>
   </g>
   <g id="patch_6">
    <path d="M 197.386142 172.8 
L 197.386142 43.2 
" style="fill:none;stroke:#000000;stroke-linecap:square;stroke-linejoin:miter;stroke-width:0.25;"/>
   </g>
   <g id="patch_7">
    <path d="M 197.386142 172.8 
L 346.14 172.8 
" style="fill:none;stroke:#000000;stroke-linecap:square;stroke-linejoin:miter;stroke-width:0.25;"/>
   </g>
   <g id="text_23">
    <text style="font-family:DejaVu Sans;font-size:6px;font-stretch:normal;font-style:normal;font-weight:normal;text-anchor:middle;" transform="rotate(-0, 271.763071, 37.2)" x="271.763071" y="37.2">ori_metric = dsi</text>
   </g>
  </g>
  <g id="text_24">
   <text style="font-family:DejaVu Sans;font-size:6px;font-stretch:normal;font-style:normal;font-weight:normal;text-anchor:start;" transform="rotate(-0, 0, 21.6)" x="0" y="21.6">CDFs, gof=0.50 (avg across non-oriconds)</text>
  </g>
  <g id="text_25">
   <text style="font-family:DejaVu Sans;font-size:8px;font-stretch:normal;font-style:normal;font-weight:normal;text-anchor:start;" transform="rotate(-0, 0, 6.11375)" x="0" y="6.11375">traces001|fit-dff_responsive-nstds-2.50-thr10.00_boot-1000-resample-20</text>
  </g>
  <g id="legend_1">
   <g id="text_26">
    <text style="font-family:DejaVu Sans;font-size:6px;font-stretch:normal;font-style:normal;font-weight:normal;text-anchor:start;" transform="rotate(-0, 345.332813, 96.361875)" x="345.332813" y="96.361875">visual_area</text>
   </g>
   <g id="line2d_31">
    <path d="M 349.272656 103.235625 
L 361.272656 103.235625 
" style="fill:none;stroke:#1e90ff;stroke-linecap:square;stroke-width:1.5;"/>
   </g>
   <g id="line2d_32"/>
   <g id="text_27">
    <text style="font-family:DejaVu Sans;font-size:6px;font-stretch:normal;font-style:normal;font-weight:normal;text-anchor:start;" transform="rotate(-0, 366.072656, 105.335625)" x="366.072656" y="105.335625">Li</text>
   </g>
   <g id="line2d_33">
    <path d="M 349.272656 112.0425 
L 361.272656 112.0425 
" style="fill:none;stroke:#ffa500;stroke-linecap:square;stroke-width:1.5;"/>
   </g>
   <g id="line2d_34"/>
   <g id="text_28">
    <text style="font-family:DejaVu Sans;font-size:6px;font-stretch:normal;font-style:normal;font-weight:normal;text-anchor:start;" transform="rotate(-0, 366.072656, 114.1425)" x="366.072656" y="114.1425">Lm</text>
   </g>
   <g id="line2d_35">
    <path d="M 349.272656 120.849375 
L 361.272656 120.849375 
" style="fill:none;stroke:#ff00ff;stroke-linecap:square;stroke-width:1.5;"/>
   </g>
   <g id="line2d_36"/>
   <g id="text_29">
    <text style="font-family:DejaVu Sans;font-size:6px;font-stretch:normal;font-style:normal;font-weight:normal;text-anchor:start;" transform="rotate(-0, 366.072656, 122.949375)" x="366.072656" y="122.949375">V1</text>
   </g>
  </g>
 </g>
 <defs>
  <clipPath id="p156d238124">
   <rect height="129.6" width="148.753858" x="38.46" y="43.2"/>
  </clipPath>
  <clipPath id="p9dd47b88ae">
   <rect height="129.6" width="148.753858" x="197.386142" y="43.2"/>
  </clipPath>
 </defs>
</svg>
