<?xml version="1.0" encoding="utf-8" standalone="no"?>
<!DOCTYPE svg PUBLIC "-//W3C//DTD SVG 1.1//EN"
  "http://www.w3.org/Graphics/SVG/1.1/DTD/svg11.dtd">
<!-- Created with matplotlib (https://matplotlib.org/) -->
<svg height="216pt" version="1.1" viewBox="0 0 576 216" width="576pt" xmlns="http://www.w3.org/2000/svg" xmlns:xlink="http://www.w3.org/1999/xlink">
 <metadata>
  <rdf:RDF xmlns:cc="http://creativecommons.org/ns#" xmlns:dc="http://purl.org/dc/elements/1.1/" xmlns:rdf="http://www.w3.org/1999/02/22-rdf-syntax-ns#">
   <cc:Work>
    <dc:type rdf:resource="http://purl.org/dc/dcmitype/StillImage"/>
    <dc:date>2021-05-09T13:41:36.811316</dc:date>
    <dc:format>image/svg+xml</dc:format>
    <dc:creator>
     <cc:Agent>
      <dc:title>Matplotlib v3.3.4, https://matplotlib.org/</dc:title>
     </cc:Agent>
    </dc:creator>
   </cc:Work>
  </rdf:RDF>
 </metadata>
 <defs>
  <style type="text/css">*{stroke-linecap:butt;stroke-linejoin:round;}</style>
 </defs>
 <g id="figure_1">
  <g id="patch_1">
   <path d="M 0 216 
L 576 216 
L 576 0 
L 0 0 
z
" style="fill:#ffffff;"/>
  </g>
  <g id="axes_1">
   <g id="patch_2">
    <path d="M 539.64 126.36 
C 539.64 118.843312 538.159376 111.399714 535.282864 104.4552 
C 532.406353 97.510686 528.189893 91.200309 522.874792 85.885208 
C 517.559691 80.570107 511.249314 76.353647 504.3048 73.477136 
C 497.360286 70.600624 489.916688 69.12 482.4 69.12 
C 474.883312 69.12 467.439714 70.600624 460.4952 73.477136 
C 453.550686 76.353647 447.240309 80.570107 441.925208 85.885208 
C 436.610107 91.200309 432.393647 97.510686 429.517136 104.4552 
C 426.640624 111.399714 425.16 118.843312 425.16 126.36 
C 425.16 133.876688 426.640624 141.320286 429.517136 148.2648 
C 432.393647 155.209314 436.610107 161.519691 441.925208 166.834792 
C 447.240309 172.149893 453.550686 176.366353 460.4952 179.242864 
C 467.439714 182.119376 474.883312 183.6 482.4 183.6 
C 489.916688 183.6 497.360286 182.119376 504.3048 179.242864 
C 511.249314 176.366353 517.559691 172.149893 522.874792 166.834792 
C 528.189893 161.519691 532.406353 155.209314 535.282864 148.2648 
C 538.159376 141.320286 539.64 133.876688 539.64 126.36 
M 482.4 126.36 
C 482.4 126.36 482.4 126.36 482.4 126.36 
C 482.4 126.36 482.4 126.36 482.4 126.36 
C 482.4 126.36 482.4 126.36 482.4 126.36 
C 482.4 126.36 482.4 126.36 482.4 126.36 
C 482.4 126.36 482.4 126.36 482.4 126.36 
C 482.4 126.36 482.4 126.36 482.4 126.36 
C 482.4 126.36 482.4 126.36 482.4 126.36 
C 482.4 126.36 482.4 126.36 482.4 126.36 
C 482.4 126.36 482.4 126.36 482.4 126.36 
C 482.4 126.36 482.4 126.36 482.4 126.36 
C 482.4 126.36 482.4 126.36 482.4 126.36 
C 482.4 126.36 482.4 126.36 482.4 126.36 
C 482.4 126.36 482.4 126.36 482.4 126.36 
C 482.4 126.36 482.4 126.36 482.4 126.36 
C 482.4 126.36 482.4 126.36 482.4 126.36 
C 482.4 126.36 482.4 126.36 482.4 126.36 
M 539.64 126.36 
z
" style="fill:#ffffff;"/>
   </g>
   <g id="patch_3">
    <path clip-path="url(#p850e37c591)" d="M 482.4 126.36 
C 482.4 126.36 482.4 126.36 482.4 126.36 
C 482.4 126.36 482.4 126.36 482.4 126.36 
L 476.67843 99.44213 
C 477.618256 99.242364 478.567899 99.091956 479.523457 98.991522 
C 480.479015 98.891089 481.439178 98.840769 482.4 98.840769 
z
" style="fill:#cccccc;"/>
   </g>
   <g id="patch_4">
    <path clip-path="url(#p850e37c591)" d="M 482.4 126.36 
C 482.4 126.36 482.4 126.36 482.4 126.36 
C 482.4 126.36 482.4 126.36 482.4 126.36 
L 479.60173 120.074983 
C 479.821169 119.977283 480.045574 119.891142 480.274023 119.816914 
C 480.502471 119.742686 480.734651 119.680474 480.969608 119.630533 
z
" style="fill:#cccccc;"/>
   </g>
   <g id="patch_5">
    <path clip-path="url(#p850e37c591)" d="M 482.4 126.36 
C 482.4 126.36 482.4 126.36 482.4 126.36 
C 482.4 126.36 482.4 126.36 482.4 126.36 
L 478.35615 120.794119 
C 478.550481 120.652929 478.752072 120.522014 478.960096 120.401912 
C 479.16812 120.281809 479.382292 120.172683 479.60173 120.074983 
z
" style="fill:#cccccc;"/>
   </g>
   <g id="patch_6">
    <path clip-path="url(#p850e37c591)" d="M 482.4 126.36 
C 482.4 126.36 482.4 126.36 482.4 126.36 
C 482.4 126.36 482.4 126.36 482.4 126.36 
L 467.06192 112.54953 
C 467.544106 112.014008 468.054008 111.504106 468.58953 111.02192 
C 469.125053 110.539733 469.685461 110.085924 470.268451 109.662356 
z
" style="fill:#cccccc;"/>
   </g>
   <g id="patch_7">
    <path clip-path="url(#p850e37c591)" d="M 482.4 126.36 
C 482.4 126.36 482.4 126.36 482.4 126.36 
C 482.4 126.36 482.4 126.36 482.4 126.36 
L 446.651471 105.720577 
C 447.372087 104.472433 448.157577 103.262885 449.004712 102.096903 
C 449.851847 100.930921 450.759466 99.810105 451.723839 98.739061 
z
" style="fill:#cccccc;"/>
   </g>
   <g id="patch_8">
    <path clip-path="url(#p850e37c591)" d="M 482.4 126.36 
C 482.4 126.36 482.4 126.36 482.4 126.36 
C 482.4 126.36 482.4 126.36 482.4 126.36 
L 482.4 126.36 
C 482.4 126.36 482.4 126.36 482.4 126.36 
C 482.4 126.36 482.4 126.36 482.4 126.36 
z
" style="fill:#cccccc;"/>
   </g>
   <g id="patch_9">
    <path clip-path="url(#p850e37c591)" d="M 482.4 126.36 
C 482.4 126.36 482.4 126.36 482.4 126.36 
C 482.4 126.36 482.4 126.36 482.4 126.36 
L 468.715761 124.921729 
C 468.765978 124.443949 468.841182 123.969128 468.941065 123.499215 
C 469.040948 123.029302 469.165373 122.564943 469.313828 122.108045 
z
" style="fill:#cccccc;"/>
   </g>
   <g id="patch_10">
    <path clip-path="url(#p850e37c591)" d="M 482.4 126.36 
C 482.4 126.36 482.4 126.36 482.4 126.36 
C 482.4 126.36 482.4 126.36 482.4 126.36 
L 448.189403 129.955679 
C 448.063862 128.761231 448.000962 127.561027 448.000962 126.36 
C 448.000962 125.158973 448.063862 123.958769 448.189403 122.764321 
z
" style="fill:#cccccc;"/>
   </g>
   <g id="patch_11">
    <path clip-path="url(#p850e37c591)" d="M 482.4 126.36 
C 482.4 126.36 482.4 126.36 482.4 126.36 
C 482.4 126.36 482.4 126.36 482.4 126.36 
L 469.313828 130.611955 
C 469.165373 130.155057 469.040948 129.690698 468.941065 129.220785 
C 468.841182 128.750872 468.765978 128.276051 468.715761 127.798271 
z
" style="fill:#cccccc;"/>
   </g>
   <g id="patch_12">
    <path clip-path="url(#p850e37c591)" d="M 482.4 126.36 
C 482.4 126.36 482.4 126.36 482.4 126.36 
C 482.4 126.36 482.4 126.36 482.4 126.36 
L 458.567647 140.119615 
C 458.087236 139.287519 457.650733 138.430834 457.259932 137.55308 
C 456.86913 136.675325 456.524567 135.777706 456.227656 134.86391 
z
" style="fill:#cccccc;"/>
   </g>
   <g id="patch_13">
    <path clip-path="url(#p850e37c591)" d="M 482.4 126.36 
C 482.4 126.36 482.4 126.36 482.4 126.36 
C 482.4 126.36 482.4 126.36 482.4 126.36 
L 477.287307 130.96349 
C 477.126578 130.784982 476.975308 130.59818 476.834119 130.40385 
C 476.692929 130.209519 476.562014 130.007928 476.441912 129.799904 
z
" style="fill:#cccccc;"/>
   </g>
   <g id="patch_14">
    <path clip-path="url(#p850e37c591)" d="M 482.4 126.36 
C 482.4 126.36 482.4 126.36 482.4 126.36 
C 482.4 126.36 482.4 126.36 482.4 126.36 
L 466.224602 148.623525 
C 465.447281 148.058768 464.70007 147.453689 463.98604 146.810774 
C 463.272011 146.167859 462.592141 145.487989 461.949226 144.77396 
z
" style="fill:#cccccc;"/>
   </g>
   <g id="patch_15">
    <path clip-path="url(#p850e37c591)" d="M 482.4 126.36 
C 482.4 126.36 482.4 126.36 482.4 126.36 
C 482.4 126.36 482.4 126.36 482.4 126.36 
L 476.80346 138.930034 
C 476.364583 138.734633 475.93624 138.516382 475.520192 138.276176 
C 475.104144 138.035971 474.700962 137.774141 474.312301 137.491763 
z
" style="fill:#cccccc;"/>
   </g>
   <g id="patch_16">
    <path clip-path="url(#p850e37c591)" d="M 482.4 126.36 
C 482.4 126.36 482.4 126.36 482.4 126.36 
C 482.4 126.36 482.4 126.36 482.4 126.36 
L 480.969608 133.089467 
C 480.734651 133.039526 480.502471 132.977314 480.274023 132.903086 
C 480.045574 132.828858 479.821169 132.742717 479.60173 132.645017 
z
" style="fill:#cccccc;"/>
   </g>
   <g id="patch_17">
    <path clip-path="url(#p850e37c591)" d="M 482.4 126.36 
C 482.4 126.36 482.4 126.36 482.4 126.36 
C 482.4 126.36 482.4 126.36 482.4 126.36 
L 482.4 146.999423 
C 481.679384 146.999423 480.959262 146.961683 480.242593 146.886358 
C 479.525924 146.811033 478.813692 146.698227 478.108823 146.548402 
z
" style="fill:#cccccc;"/>
   </g>
   <g id="patch_18">
    <path clip-path="url(#p850e37c591)" d="M 482.4 126.36 
C 482.4 126.36 482.4 126.36 482.4 126.36 
C 482.4 126.36 482.4 126.36 482.4 126.36 
L 483.830392 133.089467 
C 483.595436 133.139409 483.358025 133.177011 483.119136 133.202119 
C 482.880246 133.227228 482.640205 133.239808 482.4 133.239808 
z
" style="fill:#cccccc;"/>
   </g>
   <g id="patch_19">
    <path clip-path="url(#p850e37c591)" d="M 482.4 126.36 
C 482.4 126.36 482.4 126.36 482.4 126.36 
C 482.4 126.36 482.4 126.36 482.4 126.36 
L 485.19827 132.645017 
C 484.978831 132.742717 484.754426 132.828858 484.525977 132.903086 
C 484.297529 132.977314 484.065349 133.039526 483.830392 133.089467 
z
" style="fill:#cccccc;"/>
   </g>
   <g id="patch_20">
    <path clip-path="url(#p850e37c591)" d="M 482.4 126.36 
C 482.4 126.36 482.4 126.36 482.4 126.36 
C 482.4 126.36 482.4 126.36 482.4 126.36 
L 482.4 126.36 
C 482.4 126.36 482.4 126.36 482.4 126.36 
C 482.4 126.36 482.4 126.36 482.4 126.36 
z
" style="fill:#cccccc;"/>
   </g>
   <g id="patch_21">
    <path clip-path="url(#p850e37c591)" d="M 482.4 126.36 
C 482.4 126.36 482.4 126.36 482.4 126.36 
C 482.4 126.36 482.4 126.36 482.4 126.36 
L 497.73808 140.17047 
C 497.255894 140.705992 496.745992 141.215894 496.21047 141.69808 
C 495.674947 142.180267 495.114539 142.634076 494.531549 143.057644 
z
" style="fill:#cccccc;"/>
   </g>
   <g id="patch_22">
    <path clip-path="url(#p850e37c591)" d="M 482.4 126.36 
C 482.4 126.36 482.4 126.36 482.4 126.36 
C 482.4 126.36 482.4 126.36 482.4 126.36 
L 500.274265 136.679712 
C 499.913957 137.303784 499.521212 137.908558 499.097644 138.491549 
C 498.674076 139.074539 498.220267 139.634947 497.73808 140.17047 
z
" style="fill:#cccccc;"/>
   </g>
   <g id="patch_23">
    <path clip-path="url(#p850e37c591)" d="M 482.4 126.36 
C 482.4 126.36 482.4 126.36 482.4 126.36 
C 482.4 126.36 482.4 126.36 482.4 126.36 
L 502.029258 132.737932 
C 501.806575 133.423279 501.548152 134.096494 501.255051 134.75481 
C 500.96195 135.413125 500.634573 136.055639 500.274265 136.679712 
z
" style="fill:#cccccc;"/>
   </g>
   <g id="patch_24">
    <path clip-path="url(#p850e37c591)" d="M 482.4 126.36 
C 482.4 126.36 482.4 126.36 482.4 126.36 
C 482.4 126.36 482.4 126.36 482.4 126.36 
L 516.610597 129.955679 
C 516.485055 131.150126 516.297045 132.33718 516.047337 133.511962 
C 515.797629 134.686744 515.486568 135.847643 515.11543 136.989887 
z
" style="fill:#cccccc;"/>
   </g>
   <g id="patch_25">
    <path clip-path="url(#p850e37c591)" d="M 482.4 126.36 
C 482.4 126.36 482.4 126.36 482.4 126.36 
C 482.4 126.36 482.4 126.36 482.4 126.36 
L 523.452716 122.045186 
C 523.603366 123.478523 523.678846 124.918767 523.678846 126.36 
C 523.678846 127.801233 523.603366 129.241477 523.452716 130.674814 
z
" style="fill:#cccccc;"/>
   </g>
   <g id="patch_26">
    <path clip-path="url(#p850e37c591)" d="M 482.4 126.36 
C 482.4 126.36 482.4 126.36 482.4 126.36 
C 482.4 126.36 482.4 126.36 482.4 126.36 
L 482.4 126.36 
C 482.4 126.36 482.4 126.36 482.4 126.36 
C 482.4 126.36 482.4 126.36 482.4 126.36 
z
" style="fill:#cccccc;"/>
   </g>
   <g id="patch_27">
    <path clip-path="url(#p850e37c591)" d="M 482.4 126.36 
C 482.4 126.36 482.4 126.36 482.4 126.36 
C 482.4 126.36 482.4 126.36 482.4 126.36 
L 488.358088 122.920096 
C 488.478191 123.12812 488.587317 123.342292 488.685017 123.56173 
C 488.782717 123.781169 488.868858 124.005574 488.943086 124.234023 
z
" style="fill:#cccccc;"/>
   </g>
   <g id="patch_28">
    <path clip-path="url(#p850e37c591)" d="M 482.4 126.36 
C 482.4 126.36 482.4 126.36 482.4 126.36 
C 482.4 126.36 482.4 126.36 482.4 126.36 
L 482.4 126.36 
C 482.4 126.36 482.4 126.36 482.4 126.36 
C 482.4 126.36 482.4 126.36 482.4 126.36 
z
" style="fill:#cccccc;"/>
   </g>
   <g id="patch_29">
    <path clip-path="url(#p850e37c591)" d="M 482.4 126.36 
C 482.4 126.36 482.4 126.36 482.4 126.36 
C 482.4 126.36 482.4 126.36 482.4 126.36 
L 482.4 126.36 
C 482.4 126.36 482.4 126.36 482.4 126.36 
C 482.4 126.36 482.4 126.36 482.4 126.36 
z
" style="fill:#cccccc;"/>
   </g>
   <g id="patch_30">
    <path clip-path="url(#p850e37c591)" d="M 482.4 126.36 
C 482.4 126.36 482.4 126.36 482.4 126.36 
C 482.4 126.36 482.4 126.36 482.4 126.36 
L 482.4 126.36 
C 482.4 126.36 482.4 126.36 482.4 126.36 
C 482.4 126.36 482.4 126.36 482.4 126.36 
z
" style="fill:#cccccc;"/>
   </g>
   <g id="patch_31">
    <path clip-path="url(#p850e37c591)" d="M 482.4 126.36 
C 482.4 126.36 482.4 126.36 482.4 126.36 
C 482.4 126.36 482.4 126.36 482.4 126.36 
L 482.4 126.36 
C 482.4 126.36 482.4 126.36 482.4 126.36 
C 482.4 126.36 482.4 126.36 482.4 126.36 
z
" style="fill:#cccccc;"/>
   </g>
   <g id="patch_32">
    <path clip-path="url(#p850e37c591)" d="M 482.4 126.36 
C 482.4 126.36 482.4 126.36 482.4 126.36 
C 482.4 126.36 482.4 126.36 482.4 126.36 
L 482.4 112.600385 
C 482.880411 112.600385 483.360492 112.625545 483.838271 112.675761 
C 484.316051 112.725978 484.790872 112.801182 485.260785 112.901065 
z
" style="fill:#cccccc;"/>
   </g>
   <g id="matplotlib.axis_1">
    <g id="xtick_1">
     <g id="line2d_1">
      <path clip-path="url(#p850e37c591)" d="M 482.4 126.36 
L 482.4 69.12 
" style="fill:none;stroke:#b0b0b0;stroke-linecap:square;stroke-width:0.8;"/>
     </g>
     <g id="text_1">
      <!-- $0^\circ$  -->
      <g transform="translate(477.27 56.775625)">
       <text>
        <tspan style="font-family:DejaVu Sans;font-size:6px;font-style:book;font-weight:book;" x="0 8.304492" y="-0.546875">0 </tspan>
        <tspan style="font-family:DejaVu Sans;font-size:4.2px;font-style:book;font-weight:book;" x="4.693066" y="-2.84375">∘</tspan>
       </text>
      </g>
     </g>
    </g>
    <g id="xtick_2">
     <g id="line2d_2">
      <path clip-path="url(#p850e37c591)" d="M 482.4 126.36 
L 441.925208 85.885208 
" style="fill:none;stroke:#b0b0b0;stroke-linecap:square;stroke-width:0.8;"/>
     </g>
    </g>
    <g id="xtick_3">
     <g id="line2d_3">
      <path clip-path="url(#p850e37c591)" d="M 482.4 126.36 
L 425.16 126.36 
" style="fill:none;stroke:#b0b0b0;stroke-linecap:square;stroke-width:0.8;"/>
     </g>
     <g id="text_2">
      <!-- $90^\circ$  -->
      <g transform="translate(404.14 128.015625)">
       <text>
        <tspan style="font-family:DejaVu Sans;font-size:6px;font-style:book;font-weight:book;" x="0 3.817383 12.121875" y="-0.546875">90 </tspan>
        <tspan style="font-family:DejaVu Sans;font-size:4.2px;font-style:book;font-weight:book;" x="8.510449" y="-2.84375">∘</tspan>
       </text>
      </g>
     </g>
    </g>
    <g id="xtick_4">
     <g id="line2d_4">
      <path clip-path="url(#p850e37c591)" d="M 482.4 126.36 
L 441.925208 166.834792 
" style="fill:none;stroke:#b0b0b0;stroke-linecap:square;stroke-width:0.8;"/>
     </g>
    </g>
    <g id="xtick_5">
     <g id="line2d_5">
      <path clip-path="url(#p850e37c591)" d="M 482.4 126.36 
L 482.4 183.6 
" style="fill:none;stroke:#b0b0b0;stroke-linecap:square;stroke-width:0.8;"/>
     </g>
     <g id="text_3">
      <!-- $180^\circ$  -->
      <g transform="translate(473.46 199.255625)">
       <text>
        <tspan style="font-family:DejaVu Sans;font-size:6px;font-style:book;font-weight:book;" x="0 3.817383 7.634766 15.939258" y="-0.546875">180 </tspan>
        <tspan style="font-family:DejaVu Sans;font-size:4.2px;font-style:book;font-weight:book;" x="12.327832" y="-2.84375">∘</tspan>
       </text>
      </g>
     </g>
    </g>
    <g id="xtick_6">
     <g id="line2d_6">
      <path clip-path="url(#p850e37c591)" d="M 482.4 126.36 
L 522.874792 166.834792 
" style="fill:none;stroke:#b0b0b0;stroke-linecap:square;stroke-width:0.8;"/>
     </g>
    </g>
    <g id="xtick_7">
     <g id="line2d_7">
      <path clip-path="url(#p850e37c591)" d="M 482.4 126.36 
L 539.64 126.36 
" style="fill:none;stroke:#b0b0b0;stroke-linecap:square;stroke-width:0.8;"/>
     </g>
     <g id="text_4">
      <!-- $275^\circ$ -->
      <g transform="translate(545.66 128.015625)">
       <text>
        <tspan style="font-family:DejaVu Sans;font-size:6px;font-style:book;font-weight:book;" x="0 3.817383 7.634766" y="-0.546875">275</tspan>
        <tspan style="font-family:DejaVu Sans;font-size:4.2px;font-style:book;font-weight:book;" x="12.327832" y="-2.84375">∘</tspan>
       </text>
      </g>
     </g>
    </g>
    <g id="xtick_8">
     <g id="line2d_8">
      <path clip-path="url(#p850e37c591)" d="M 482.4 126.36 
L 522.874792 85.885208 
" style="fill:none;stroke:#b0b0b0;stroke-linecap:square;stroke-width:0.8;"/>
     </g>
    </g>
    <g id="xtick_9">
     <g id="line2d_9">
      <path clip-path="url(#p850e37c591)" d="M 482.4 126.36 
L 482.4 69.12 
" style="fill:none;stroke:#b0b0b0;stroke-linecap:square;stroke-width:0.8;"/>
     </g>
     <g id="text_5">
      <!-- $0^\circ$  -->
      <g transform="translate(477.27 56.775625)">
       <text>
        <tspan style="font-family:DejaVu Sans;font-size:6px;font-style:book;font-weight:book;" x="0 8.304492" y="-0.546875">0 </tspan>
        <tspan style="font-family:DejaVu Sans;font-size:4.2px;font-style:book;font-weight:book;" x="4.693066" y="-2.84375">∘</tspan>
       </text>
      </g>
     </g>
    </g>
   </g>
   <g id="matplotlib.axis_2">
    <g id="ytick_1">
     <g id="line2d_10">
      <path clip-path="url(#p850e37c591)" d="M 482.4 126.36 
C 482.4 126.36 482.4 126.36 482.4 126.36 
C 482.4 126.36 482.4 126.36 482.4 126.36 
C 482.4 126.36 482.4 126.36 482.4 126.36 
C 482.4 126.36 482.4 126.36 482.4 126.36 
C 482.4 126.36 482.4 126.36 482.4 126.36 
C 482.4 126.36 482.4 126.36 482.4 126.36 
C 482.4 126.36 482.4 126.36 482.4 126.36 
C 482.4 126.36 482.4 126.36 482.4 126.36 
C 482.4 126.36 482.4 126.36 482.4 126.36 
C 482.4 126.36 482.4 126.36 482.4 126.36 
C 482.4 126.36 482.4 126.36 482.4 126.36 
C 482.4 126.36 482.4 126.36 482.4 126.36 
C 482.4 126.36 482.4 126.36 482.4 126.36 
C 482.4 126.36 482.4 126.36 482.4 126.36 
C 482.4 126.36 482.4 126.36 482.4 126.36 
C 482.4 126.36 482.4 126.36 482.4 126.36 
" style="fill:none;stroke:#b0b0b0;stroke-linecap:square;stroke-width:0.8;"/>
     </g>
     <g id="text_6">
      <text style="font-family:DejaVu Sans;font-size:6px;font-stretch:normal;font-style:normal;font-weight:normal;text-anchor:start;" transform="rotate(-0, 482.4, 125.112187)" x="482.4" y="125.112187">0.0</text>
     </g>
    </g>
    <g id="ytick_2">
     <g id="line2d_11">
      <path clip-path="url(#p850e37c591)" d="M 482.4 82.329231 
C 476.617932 82.329231 470.892088 83.468172 465.550154 85.680874 
C 460.20822 87.893575 455.354084 91.137005 451.265544 95.225544 
C 447.177005 99.314084 443.933575 104.16822 441.720874 109.510154 
C 439.508172 114.852088 438.369231 120.577932 438.369231 126.36 
C 438.369231 132.142068 439.508172 137.867912 441.720874 143.209846 
C 443.933575 148.55178 447.177005 153.405916 451.265544 157.494456 
C 455.354084 161.582995 460.20822 164.826425 465.550154 167.039126 
C 470.892088 169.251828 476.617932 170.390769 482.4 170.390769 
C 488.182068 170.390769 493.907912 169.251828 499.249846 167.039126 
C 504.59178 164.826425 509.445916 161.582995 513.534456 157.494456 
C 517.622995 153.405916 520.866425 148.55178 523.079126 143.209846 
C 525.291828 137.867912 526.430769 132.142068 526.430769 126.36 
C 526.430769 120.577932 525.291828 114.852088 523.079126 109.510154 
C 520.866425 104.16822 517.622995 99.314084 513.534456 95.225544 
C 509.445916 91.137005 504.59178 87.893575 499.249846 85.680874 
C 493.907912 83.468172 488.182068 82.329231 482.4 82.329231 
" style="fill:none;stroke:#b0b0b0;stroke-linecap:square;stroke-width:0.8;"/>
     </g>
     <g id="text_7">
      <text style="font-family:DejaVu Sans;font-size:6px;font-stretch:normal;font-style:normal;font-weight:normal;text-anchor:start;" transform="rotate(-0, 465.550154, 84.433061)" x="465.550154" y="84.433061">0.1</text>
     </g>
    </g>
   </g>
   <g id="patch_33">
    <path d="M 482.4 69.12 
C 474.883312 69.12 467.439714 70.600624 460.4952 73.477136 
C 453.550686 76.353647 447.240309 80.570107 441.925208 85.885208 
C 436.610107 91.200309 432.393647 97.510686 429.517136 104.4552 
C 426.640624 111.399714 425.16 118.843312 425.16 126.36 
C 425.16 133.876688 426.640624 141.320286 429.517136 148.2648 
C 432.393647 155.209314 436.610107 161.519691 441.925208 166.834792 
C 447.240309 172.149893 453.550686 176.366353 460.4952 179.242864 
C 467.439714 182.119376 474.883312 183.6 482.4 183.6 
C 489.916688 183.6 497.360286 182.119376 504.3048 179.242864 
C 511.249314 176.366353 517.559691 172.149893 522.874792 166.834792 
C 528.189893 161.519691 532.406353 155.209314 535.282864 148.2648 
C 538.159376 141.320286 539.64 133.876688 539.64 126.36 
C 539.64 118.843312 538.159376 111.399714 535.282864 104.4552 
C 532.406353 97.510686 528.189893 91.200309 522.874792 85.885208 
C 517.559691 80.570107 511.249314 76.353647 504.3048 73.477136 
C 497.360286 70.600624 489.916688 69.12 482.4 69.12 
" style="fill:none;stroke:#000000;stroke-linecap:square;stroke-linejoin:miter;stroke-width:0.25;"/>
   </g>
   <g id="text_8">
    <text style="font-family:DejaVu Sans;font-size:6px;font-stretch:normal;font-style:normal;font-weight:normal;text-anchor:start;" transform="rotate(-0, 425.16, 46.216562)" x="425.16" y="46.216562">Li, n=64 cells</text>
   </g>
  </g>
  <g id="axes_2">
   <g id="patch_34">
    <path d="M 345.24 126.36 
C 345.24 118.843312 343.759376 111.399714 340.882864 104.4552 
C 338.006353 97.510686 333.789893 91.200309 328.474792 85.885208 
C 323.159691 80.570107 316.849314 76.353647 309.9048 73.477136 
C 302.960286 70.600624 295.516688 69.12 288 69.12 
C 280.483312 69.12 273.039714 70.600624 266.0952 73.477136 
C 259.150686 76.353647 252.840309 80.570107 247.525208 85.885208 
C 242.210107 91.200309 237.993647 97.510686 235.117136 104.4552 
C 232.240624 111.399714 230.76 118.843312 230.76 126.36 
C 230.76 133.876688 232.240624 141.320286 235.117136 148.2648 
C 237.993647 155.209314 242.210107 161.519691 247.525208 166.834792 
C 252.840309 172.149893 259.150686 176.366353 266.0952 179.242864 
C 273.039714 182.119376 280.483312 183.6 288 183.6 
C 295.516688 183.6 302.960286 182.119376 309.9048 179.242864 
C 316.849314 176.366353 323.159691 172.149893 328.474792 166.834792 
C 333.789893 161.519691 338.006353 155.209314 340.882864 148.2648 
C 343.759376 141.320286 345.24 133.876688 345.24 126.36 
M 288 126.36 
C 288 126.36 288 126.36 288 126.36 
C 288 126.36 288 126.36 288 126.36 
C 288 126.36 288 126.36 288 126.36 
C 288 126.36 288 126.36 288 126.36 
C 288 126.36 288 126.36 288 126.36 
C 288 126.36 288 126.36 288 126.36 
C 288 126.36 288 126.36 288 126.36 
C 288 126.36 288 126.36 288 126.36 
C 288 126.36 288 126.36 288 126.36 
C 288 126.36 288 126.36 288 126.36 
C 288 126.36 288 126.36 288 126.36 
C 288 126.36 288 126.36 288 126.36 
C 288 126.36 288 126.36 288 126.36 
C 288 126.36 288 126.36 288 126.36 
C 288 126.36 288 126.36 288 126.36 
C 288 126.36 288 126.36 288 126.36 
M 345.24 126.36 
z
" style="fill:#ffffff;"/>
   </g>
   <g id="patch_35">
    <path clip-path="url(#pb8b6c0f928)" d="M 288 126.36 
C 288 126.36 288 126.36 288 126.36 
C 288 126.36 288 126.36 288 126.36 
L 279.819373 87.873174 
C 281.163123 87.587551 282.520911 87.372498 283.887156 87.2289 
C 285.253401 87.085302 286.626229 87.013355 288 87.013355 
z
" style="fill:#cccccc;"/>
   </g>
   <g id="patch_36">
    <path clip-path="url(#pb8b6c0f928)" d="M 288 126.36 
C 288 126.36 288 126.36 288 126.36 
C 288 126.36 288 126.36 288 126.36 
L 281.141262 110.955022 
C 281.67912 110.715552 282.22915 110.504415 282.789093 110.322479 
C 283.349036 110.140542 283.918124 109.988056 284.494017 109.865646 
z
" style="fill:#cccccc;"/>
   </g>
   <g id="patch_37">
    <path clip-path="url(#pb8b6c0f928)" d="M 288 126.36 
C 288 126.36 288 126.36 288 126.36 
C 288 126.36 288 126.36 288 126.36 
L 283.594785 120.296742 
C 283.806481 120.142936 284.026087 120.000322 284.2527 119.869487 
C 284.479314 119.738652 284.712624 119.619774 284.951672 119.513343 
z
" style="fill:#cccccc;"/>
   </g>
   <g id="patch_38">
    <path clip-path="url(#pb8b6c0f928)" d="M 288 126.36 
C 288 126.36 288 126.36 288 126.36 
C 288 126.36 288 126.36 288 126.36 
L 274.076069 113.822836 
C 274.513798 113.336688 274.976688 112.873798 275.462836 112.436069 
C 275.948984 111.998339 276.457723 111.58637 276.986963 111.201855 
z
" style="fill:#cccccc;"/>
   </g>
   <g id="patch_39">
    <path clip-path="url(#pb8b6c0f928)" d="M 288 126.36 
C 288 126.36 288 126.36 288 126.36 
C 288 126.36 288 126.36 288 126.36 
L 276.641602 119.802226 
C 276.870564 119.405652 277.120138 119.021342 277.389299 118.650874 
C 277.658459 118.280406 277.946837 117.924289 278.253248 117.583985 
z
" style="fill:#cccccc;"/>
   </g>
   <g id="patch_40">
    <path clip-path="url(#pb8b6c0f928)" d="M 288 126.36 
C 288 126.36 288 126.36 288 126.36 
C 288 126.36 288 126.36 288 126.36 
L 282.65416 124.623031 
C 282.714805 124.436383 282.785184 124.25304 282.865007 124.073754 
C 282.944831 123.894468 283.033989 123.719485 283.132115 123.549525 
z
" style="fill:#cccccc;"/>
   </g>
   <g id="patch_41">
    <path clip-path="url(#pb8b6c0f928)" d="M 288 126.36 
C 288 126.36 288 126.36 288 126.36 
C 288 126.36 288 126.36 288 126.36 
L 284.273229 125.968301 
C 284.286905 125.838182 284.307386 125.708869 284.334588 125.580893 
C 284.36179 125.452916 284.395676 125.326453 284.436106 125.202021 
z
" style="fill:#cccccc;"/>
   </g>
   <g id="patch_42">
    <path clip-path="url(#pb8b6c0f928)" d="M 288 126.36 
C 288 126.36 288 126.36 288 126.36 
C 288 126.36 288 126.36 288 126.36 
L 245.142129 130.864544 
C 244.984855 129.36818 244.906056 127.864606 244.906056 126.36 
C 244.906056 124.855394 244.984855 123.35182 245.142129 121.855456 
z
" style="fill:#cccccc;"/>
   </g>
   <g id="patch_43">
    <path clip-path="url(#pb8b6c0f928)" d="M 288 126.36 
C 288 126.36 288 126.36 288 126.36 
C 288 126.36 288 126.36 288 126.36 
L 280.872213 128.675958 
C 280.791352 128.427095 280.72358 128.174167 280.669176 127.918215 
C 280.614772 127.662262 280.573809 127.403636 280.546457 127.143399 
z
" style="fill:#cccccc;"/>
   </g>
   <g id="patch_44">
    <path clip-path="url(#pb8b6c0f928)" d="M 288 126.36 
C 288 126.36 288 126.36 288 126.36 
C 288 126.36 288 126.36 288 126.36 
L 276.641602 132.917774 
C 276.41264 132.521201 276.204605 132.112908 276.01835 131.694574 
C 275.832096 131.27624 275.667879 130.848439 275.526372 130.412927 
z
" style="fill:#cccccc;"/>
   </g>
   <g id="patch_45">
    <path clip-path="url(#pb8b6c0f928)" d="M 288 126.36 
C 288 126.36 288 126.36 288 126.36 
C 288 126.36 288 126.36 288 126.36 
L 278.253248 135.136015 
C 277.946837 134.795711 277.658459 134.439594 277.389299 134.069126 
C 277.120138 133.698658 276.870564 133.314348 276.641602 132.917774 
z
" style="fill:#cccccc;"/>
   </g>
   <g id="patch_46">
    <path clip-path="url(#pb8b6c0f928)" d="M 288 126.36 
C 288 126.36 288 126.36 288 126.36 
C 288 126.36 288 126.36 288 126.36 
L 276.986963 141.518145 
C 276.457723 141.13363 275.948984 140.721661 275.462836 140.283931 
C 274.976688 139.846202 274.513798 139.383312 274.076069 138.897164 
z
" style="fill:#cccccc;"/>
   </g>
   <g id="patch_47">
    <path clip-path="url(#pb8b6c0f928)" d="M 288 126.36 
C 288 126.36 288 126.36 288 126.36 
C 288 126.36 288 126.36 288 126.36 
L 284.18959 134.918321 
C 283.89078 134.785282 283.599142 134.636686 283.315876 134.473141 
C 283.032609 134.309597 282.758101 134.13133 282.493482 133.939072 
z
" style="fill:#cccccc;"/>
   </g>
   <g id="patch_48">
    <path clip-path="url(#pb8b6c0f928)" d="M 288 126.36 
C 288 126.36 288 126.36 288 126.36 
C 288 126.36 288 126.36 288 126.36 
L 285.662678 137.356236 
C 285.278749 137.27463 284.899358 137.172972 284.526062 137.051681 
C 284.152767 136.93039 283.78608 136.789632 283.427508 136.629985 
z
" style="fill:#cccccc;"/>
   </g>
   <g id="patch_49">
    <path clip-path="url(#pb8b6c0f928)" d="M 288 126.36 
C 288 126.36 288 126.36 288 126.36 
C 288 126.36 288 126.36 288 126.36 
L 288 152.591097 
C 287.084153 152.591097 286.168934 152.543132 285.258104 152.4474 
C 284.347274 152.351668 283.442082 152.208299 282.546248 152.017884 
z
" style="fill:#cccccc;"/>
   </g>
   <g id="patch_50">
    <path clip-path="url(#pb8b6c0f928)" d="M 288 126.36 
C 288 126.36 288 126.36 288 126.36 
C 288 126.36 288 126.36 288 126.36 
L 291.11643 141.021648 
C 290.604525 141.130457 290.087272 141.212382 289.566798 141.267086 
C 289.046324 141.32179 288.523341 141.349198 288 141.349198 
z
" style="fill:#cccccc;"/>
   </g>
   <g id="patch_51">
    <path clip-path="url(#pb8b6c0f928)" d="M 288 126.36 
C 288 126.36 288 126.36 288 126.36 
C 288 126.36 288 126.36 288 126.36 
L 291.048328 133.206657 
C 290.80928 133.313088 290.564822 133.406927 290.315958 133.487787 
C 290.067095 133.568648 289.814167 133.63642 289.558215 133.690824 
z
" style="fill:#cccccc;"/>
   </g>
   <g id="patch_52">
    <path clip-path="url(#pb8b6c0f928)" d="M 288 126.36 
C 288 126.36 288 126.36 288 126.36 
C 288 126.36 288 126.36 288 126.36 
L 301.215644 144.549774 
C 300.580556 145.011192 299.921739 145.439034 299.241899 145.831539 
C 298.562058 146.224045 297.862128 146.580678 297.144984 146.899971 
z
" style="fill:#cccccc;"/>
   </g>
   <g id="patch_53">
    <path clip-path="url(#pb8b6c0f928)" d="M 288 126.36 
C 288 126.36 288 126.36 288 126.36 
C 288 126.36 288 126.36 288 126.36 
L 299.139145 136.389731 
C 298.788961 136.778649 298.418649 137.148961 298.029731 137.499145 
C 297.640813 137.849329 297.233821 138.178904 296.81043 138.486516 
z
" style="fill:#cccccc;"/>
   </g>
   <g id="patch_54">
    <path clip-path="url(#pb8b6c0f928)" d="M 288 126.36 
C 288 126.36 288 126.36 288 126.36 
C 288 126.36 288 126.36 288 126.36 
L 291.245257 128.23365 
C 291.179839 128.346956 291.108532 128.456759 291.031629 128.562607 
C 290.954726 128.668455 290.872332 128.770203 290.784786 128.867433 
z
" style="fill:#cccccc;"/>
   </g>
   <g id="patch_55">
    <path clip-path="url(#pb8b6c0f928)" d="M 288 126.36 
C 288 126.36 288 126.36 288 126.36 
C 288 126.36 288 126.36 288 126.36 
L 302.255574 130.991917 
C 302.093853 131.489644 301.906176 131.97856 301.693314 132.456656 
C 301.480452 132.934752 301.242697 133.401372 300.981026 133.854599 
z
" style="fill:#cccccc;"/>
   </g>
   <g id="patch_56">
    <path clip-path="url(#pb8b6c0f928)" d="M 288 126.36 
C 288 126.36 288 126.36 288 126.36 
C 288 126.36 288 126.36 288 126.36 
L 297.316929 127.339249 
C 297.282738 127.664545 297.231536 127.987828 297.16353 128.307768 
C 297.095525 128.627709 297.01081 128.943869 296.909734 129.254948 
z
" style="fill:#cccccc;"/>
   </g>
   <g id="patch_57">
    <path clip-path="url(#pb8b6c0f928)" d="M 288 126.36 
C 288 126.36 288 126.36 288 126.36 
C 288 126.36 288 126.36 288 126.36 
L 321.540943 122.834705 
C 321.664027 124.005772 321.725696 125.182482 321.725696 126.36 
C 321.725696 127.537518 321.664027 128.714228 321.540943 129.885295 
z
" style="fill:#cccccc;"/>
   </g>
   <g id="patch_58">
    <path clip-path="url(#pb8b6c0f928)" d="M 288 126.36 
C 288 126.36 288 126.36 288 126.36 
C 288 126.36 288 126.36 288 126.36 
L 304.037521 121.149093 
C 304.219458 121.709036 304.371944 122.278124 304.494354 122.854017 
C 304.616764 123.42991 304.708929 124.011819 304.770471 124.597352 
z
" style="fill:#cccccc;"/>
   </g>
   <g id="patch_59">
    <path clip-path="url(#pb8b6c0f928)" d="M 288 126.36 
C 288 126.36 288 126.36 288 126.36 
C 288 126.36 288 126.36 288 126.36 
L 292.867885 123.549525 
C 292.966011 123.719485 293.055169 123.894468 293.134993 124.073754 
C 293.214816 124.25304 293.285195 124.436383 293.34584 124.623031 
z
" style="fill:#cccccc;"/>
   </g>
   <g id="patch_60">
    <path clip-path="url(#pb8b6c0f928)" d="M 288 126.36 
C 288 126.36 288 126.36 288 126.36 
C 288 126.36 288 126.36 288 126.36 
L 304.708717 111.315403 
C 305.233993 111.898781 305.728356 112.509268 306.189774 113.144356 
C 306.651192 113.779444 307.079034 114.438261 307.471539 115.118101 
z
" style="fill:#cccccc;"/>
   </g>
   <g id="patch_61">
    <path clip-path="url(#pb8b6c0f928)" d="M 288 126.36 
C 288 126.36 288 126.36 288 126.36 
C 288 126.36 288 126.36 288 126.36 
L 291.303911 121.812557 
C 291.462683 121.927911 291.615305 122.051502 291.761149 122.182821 
C 291.906994 122.31414 292.04586 122.453006 292.177179 122.598851 
z
" style="fill:#cccccc;"/>
   </g>
   <g id="patch_62">
    <path clip-path="url(#pb8b6c0f928)" d="M 288 126.36 
C 288 126.36 288 126.36 288 126.36 
C 288 126.36 288 126.36 288 126.36 
L 288.762082 124.648336 
C 288.821844 124.674944 288.880172 124.704663 288.936825 124.737372 
C 288.993478 124.770081 289.04838 124.805734 289.101304 124.844186 
z
" style="fill:#cccccc;"/>
   </g>
   <g id="patch_63">
    <path clip-path="url(#pb8b6c0f928)" d="M 288 126.36 
C 288 126.36 288 126.36 288 126.36 
C 288 126.36 288 126.36 288 126.36 
L 289.168661 120.861882 
C 289.360625 120.902685 289.550321 120.953514 289.736969 121.01416 
C 289.923617 121.074805 290.10696 121.145184 290.286246 121.225007 
z
" style="fill:#cccccc;"/>
   </g>
   <g id="patch_64">
    <path clip-path="url(#pb8b6c0f928)" d="M 288 126.36 
C 288 126.36 288 126.36 288 126.36 
C 288 126.36 288 126.36 288 126.36 
L 288 113.244452 
C 288.457924 113.244452 288.915533 113.268434 289.370948 113.3163 
C 289.826363 113.364166 290.278959 113.43585 290.726876 113.531058 
z
" style="fill:#cccccc;"/>
   </g>
   <g id="matplotlib.axis_3">
    <g id="xtick_10">
     <g id="line2d_12">
      <path clip-path="url(#pb8b6c0f928)" d="M 288 126.36 
L 288 69.12 
" style="fill:none;stroke:#b0b0b0;stroke-linecap:square;stroke-width:0.8;"/>
     </g>
     <g id="text_9">
      <!-- $0^\circ$  -->
      <g transform="translate(282.87 56.775625)">
       <text>
        <tspan style="font-family:DejaVu Sans;font-size:6px;font-style:book;font-weight:book;" x="0 8.304492" y="-0.546875">0 </tspan>
        <tspan style="font-family:DejaVu Sans;font-size:4.2px;font-style:book;font-weight:book;" x="4.693066" y="-2.84375">∘</tspan>
       </text>
      </g>
     </g>
    </g>
    <g id="xtick_11">
     <g id="line2d_13">
      <path clip-path="url(#pb8b6c0f928)" d="M 288 126.36 
L 247.525208 85.885208 
" style="fill:none;stroke:#b0b0b0;stroke-linecap:square;stroke-width:0.8;"/>
     </g>
    </g>
    <g id="xtick_12">
     <g id="line2d_14">
      <path clip-path="url(#pb8b6c0f928)" d="M 288 126.36 
L 230.76 126.36 
" style="fill:none;stroke:#b0b0b0;stroke-linecap:square;stroke-width:0.8;"/>
     </g>
     <g id="text_10">
      <!-- $90^\circ$  -->
      <g transform="translate(209.74 128.015625)">
       <text>
        <tspan style="font-family:DejaVu Sans;font-size:6px;font-style:book;font-weight:book;" x="0 3.817383 12.121875" y="-0.546875">90 </tspan>
        <tspan style="font-family:DejaVu Sans;font-size:4.2px;font-style:book;font-weight:book;" x="8.510449" y="-2.84375">∘</tspan>
       </text>
      </g>
     </g>
    </g>
    <g id="xtick_13">
     <g id="line2d_15">
      <path clip-path="url(#pb8b6c0f928)" d="M 288 126.36 
L 247.525208 166.834792 
" style="fill:none;stroke:#b0b0b0;stroke-linecap:square;stroke-width:0.8;"/>
     </g>
    </g>
    <g id="xtick_14">
     <g id="line2d_16">
      <path clip-path="url(#pb8b6c0f928)" d="M 288 126.36 
L 288 183.6 
" style="fill:none;stroke:#b0b0b0;stroke-linecap:square;stroke-width:0.8;"/>
     </g>
     <g id="text_11">
      <!-- $180^\circ$  -->
      <g transform="translate(279.06 199.255625)">
       <text>
        <tspan style="font-family:DejaVu Sans;font-size:6px;font-style:book;font-weight:book;" x="0 3.817383 7.634766 15.939258" y="-0.546875">180 </tspan>
        <tspan style="font-family:DejaVu Sans;font-size:4.2px;font-style:book;font-weight:book;" x="12.327832" y="-2.84375">∘</tspan>
       </text>
      </g>
     </g>
    </g>
    <g id="xtick_15">
     <g id="line2d_17">
      <path clip-path="url(#pb8b6c0f928)" d="M 288 126.36 
L 328.474792 166.834792 
" style="fill:none;stroke:#b0b0b0;stroke-linecap:square;stroke-width:0.8;"/>
     </g>
    </g>
    <g id="xtick_16">
     <g id="line2d_18">
      <path clip-path="url(#pb8b6c0f928)" d="M 288 126.36 
L 345.24 126.36 
" style="fill:none;stroke:#b0b0b0;stroke-linecap:square;stroke-width:0.8;"/>
     </g>
     <g id="text_12">
      <!-- $275^\circ$ -->
      <g transform="translate(351.26 128.015625)">
       <text>
        <tspan style="font-family:DejaVu Sans;font-size:6px;font-style:book;font-weight:book;" x="0 3.817383 7.634766" y="-0.546875">275</tspan>
        <tspan style="font-family:DejaVu Sans;font-size:4.2px;font-style:book;font-weight:book;" x="12.327832" y="-2.84375">∘</tspan>
       </text>
      </g>
     </g>
    </g>
    <g id="xtick_17">
     <g id="line2d_19">
      <path clip-path="url(#pb8b6c0f928)" d="M 288 126.36 
L 328.474792 85.885208 
" style="fill:none;stroke:#b0b0b0;stroke-linecap:square;stroke-width:0.8;"/>
     </g>
    </g>
    <g id="xtick_18">
     <g id="line2d_20">
      <path clip-path="url(#pb8b6c0f928)" d="M 288 126.36 
L 288 69.12 
" style="fill:none;stroke:#b0b0b0;stroke-linecap:square;stroke-width:0.8;"/>
     </g>
     <g id="text_13">
      <!-- $0^\circ$  -->
      <g transform="translate(282.87 56.775625)">
       <text>
        <tspan style="font-family:DejaVu Sans;font-size:6px;font-style:book;font-weight:book;" x="0 8.304492" y="-0.546875">0 </tspan>
        <tspan style="font-family:DejaVu Sans;font-size:4.2px;font-style:book;font-weight:book;" x="4.693066" y="-2.84375">∘</tspan>
       </text>
      </g>
     </g>
    </g>
   </g>
   <g id="matplotlib.axis_4">
    <g id="ytick_3">
     <g id="line2d_21">
      <path clip-path="url(#pb8b6c0f928)" d="M 288 126.36 
C 288 126.36 288 126.36 288 126.36 
C 288 126.36 288 126.36 288 126.36 
C 288 126.36 288 126.36 288 126.36 
C 288 126.36 288 126.36 288 126.36 
C 288 126.36 288 126.36 288 126.36 
C 288 126.36 288 126.36 288 126.36 
C 288 126.36 288 126.36 288 126.36 
C 288 126.36 288 126.36 288 126.36 
C 288 126.36 288 126.36 288 126.36 
C 288 126.36 288 126.36 288 126.36 
C 288 126.36 288 126.36 288 126.36 
C 288 126.36 288 126.36 288 126.36 
C 288 126.36 288 126.36 288 126.36 
C 288 126.36 288 126.36 288 126.36 
C 288 126.36 288 126.36 288 126.36 
C 288 126.36 288 126.36 288 126.36 
" style="fill:none;stroke:#b0b0b0;stroke-linecap:square;stroke-width:0.8;"/>
     </g>
     <g id="text_14">
      <text style="font-family:DejaVu Sans;font-size:6px;font-stretch:normal;font-style:normal;font-weight:normal;text-anchor:start;" transform="rotate(-0, 288, 125.112187)" x="288" y="125.112187">0.0</text>
     </g>
    </g>
    <g id="ytick_4">
     <g id="line2d_22">
      <path clip-path="url(#pb8b6c0f928)" d="M 288 82.329231 
C 282.217932 82.329231 276.492088 83.468172 271.150154 85.680874 
C 265.80822 87.893575 260.954084 91.137005 256.865544 95.225544 
C 252.777005 99.314084 249.533575 104.16822 247.320874 109.510154 
C 245.108172 114.852088 243.969231 120.577932 243.969231 126.36 
C 243.969231 132.142068 245.108172 137.867912 247.320874 143.209846 
C 249.533575 148.55178 252.777005 153.405916 256.865544 157.494456 
C 260.954084 161.582995 265.80822 164.826425 271.150154 167.039126 
C 276.492088 169.251828 282.217932 170.390769 288 170.390769 
C 293.782068 170.390769 299.507912 169.251828 304.849846 167.039126 
C 310.19178 164.826425 315.045916 161.582995 319.134456 157.494456 
C 323.222995 153.405916 326.466425 148.55178 328.679126 143.209846 
C 330.891828 137.867912 332.030769 132.142068 332.030769 126.36 
C 332.030769 120.577932 330.891828 114.852088 328.679126 109.510154 
C 326.466425 104.16822 323.222995 99.314084 319.134456 95.225544 
C 315.045916 91.137005 310.19178 87.893575 304.849846 85.680874 
C 299.507912 83.468172 293.782068 82.329231 288 82.329231 
" style="fill:none;stroke:#b0b0b0;stroke-linecap:square;stroke-width:0.8;"/>
     </g>
     <g id="text_15">
      <text style="font-family:DejaVu Sans;font-size:6px;font-stretch:normal;font-style:normal;font-weight:normal;text-anchor:start;" transform="rotate(-0, 271.150154, 84.433061)" x="271.150154" y="84.433061">0.1</text>
     </g>
    </g>
   </g>
   <g id="patch_65">
    <path d="M 288 69.12 
C 280.483312 69.12 273.039714 70.600624 266.0952 73.477136 
C 259.150686 76.353647 252.840309 80.570107 247.525208 85.885208 
C 242.210107 91.200309 237.993647 97.510686 235.117136 104.4552 
C 232.240624 111.399714 230.76 118.843312 230.76 126.36 
C 230.76 133.876688 232.240624 141.320286 235.117136 148.2648 
C 237.993647 155.209314 242.210107 161.519691 247.525208 166.834792 
C 252.840309 172.149893 259.150686 176.366353 266.0952 179.242864 
C 273.039714 182.119376 280.483312 183.6 288 183.6 
C 295.516688 183.6 302.960286 182.119376 309.9048 179.242864 
C 316.849314 176.366353 323.159691 172.149893 328.474792 166.834792 
C 333.789893 161.519691 338.006353 155.209314 340.882864 148.2648 
C 343.759376 141.320286 345.24 133.876688 345.24 126.36 
C 345.24 118.843312 343.759376 111.399714 340.882864 104.4552 
C 338.006353 97.510686 333.789893 91.200309 328.474792 85.885208 
C 323.159691 80.570107 316.849314 76.353647 309.9048 73.477136 
C 302.960286 70.600624 295.516688 69.12 288 69.12 
" style="fill:none;stroke:#000000;stroke-linecap:square;stroke-linejoin:miter;stroke-width:0.25;"/>
   </g>
   <g id="text_16">
    <text style="font-family:DejaVu Sans;font-size:6px;font-stretch:normal;font-style:normal;font-weight:normal;text-anchor:start;" transform="rotate(-0, 230.76, 46.216562)" x="230.76" y="46.216562">Lm, n=235 cells</text>
   </g>
  </g>
  <g id="axes_3">
   <g id="patch_66">
    <path d="M 150.84 126.36 
C 150.84 118.843312 149.359376 111.399714 146.482864 104.4552 
C 143.606353 97.510686 139.389893 91.200309 134.074792 85.885208 
C 128.759691 80.570107 122.449314 76.353647 115.5048 73.477136 
C 108.560286 70.600624 101.116688 69.12 93.6 69.12 
C 86.083312 69.12 78.639714 70.600624 71.6952 73.477136 
C 64.750686 76.353647 58.440309 80.570107 53.125208 85.885208 
C 47.810107 91.200309 43.593647 97.510686 40.717136 104.4552 
C 37.840624 111.399714 36.36 118.843312 36.36 126.36 
C 36.36 133.876688 37.840624 141.320286 40.717136 148.2648 
C 43.593647 155.209314 47.810107 161.519691 53.125208 166.834792 
C 58.440309 172.149893 64.750686 176.366353 71.6952 179.242864 
C 78.639714 182.119376 86.083312 183.6 93.6 183.6 
C 101.116688 183.6 108.560286 182.119376 115.5048 179.242864 
C 122.449314 176.366353 128.759691 172.149893 134.074792 166.834792 
C 139.389893 161.519691 143.606353 155.209314 146.482864 148.2648 
C 149.359376 141.320286 150.84 133.876688 150.84 126.36 
M 93.6 126.36 
C 93.6 126.36 93.6 126.36 93.6 126.36 
C 93.6 126.36 93.6 126.36 93.6 126.36 
C 93.6 126.36 93.6 126.36 93.6 126.36 
C 93.6 126.36 93.6 126.36 93.6 126.36 
C 93.6 126.36 93.6 126.36 93.6 126.36 
C 93.6 126.36 93.6 126.36 93.6 126.36 
C 93.6 126.36 93.6 126.36 93.6 126.36 
C 93.6 126.36 93.6 126.36 93.6 126.36 
C 93.6 126.36 93.6 126.36 93.6 126.36 
C 93.6 126.36 93.6 126.36 93.6 126.36 
C 93.6 126.36 93.6 126.36 93.6 126.36 
C 93.6 126.36 93.6 126.36 93.6 126.36 
C 93.6 126.36 93.6 126.36 93.6 126.36 
C 93.6 126.36 93.6 126.36 93.6 126.36 
C 93.6 126.36 93.6 126.36 93.6 126.36 
C 93.6 126.36 93.6 126.36 93.6 126.36 
M 150.84 126.36 
z
" style="fill:#ffffff;"/>
   </g>
   <g id="patch_67">
    <path clip-path="url(#p1c268f15a7)" d="M 93.6 126.36 
C 93.6 126.36 93.6 126.36 93.6 126.36 
C 93.6 126.36 93.6 126.36 93.6 126.36 
L 86.322355 92.121371 
C 87.517781 91.867275 88.725696 91.67596 89.941134 91.548213 
C 91.156572 91.420465 92.377867 91.35646 93.6 91.35646 
z
" style="fill:#cccccc;"/>
   </g>
   <g id="patch_68">
    <path clip-path="url(#p1c268f15a7)" d="M 93.6 126.36 
C 93.6 126.36 93.6 126.36 93.6 126.36 
C 93.6 126.36 93.6 126.36 93.6 126.36 
L 89.853362 117.944914 
C 90.147171 117.814102 90.44763 117.698767 90.753503 117.599383 
C 91.059376 117.499999 91.370244 117.416702 91.68483 117.349834 
z
" style="fill:#cccccc;"/>
   </g>
   <g id="patch_69">
    <path clip-path="url(#p1c268f15a7)" d="M 93.6 126.36 
C 93.6 126.36 93.6 126.36 93.6 126.36 
C 93.6 126.36 93.6 126.36 93.6 126.36 
L 90.351385 121.888664 
C 90.507499 121.77524 90.669447 121.67007 90.836563 121.573586 
C 91.003678 121.477102 91.175732 121.389436 91.352017 121.310949 
z
" style="fill:#cccccc;"/>
   </g>
   <g id="patch_70">
    <path clip-path="url(#p1c268f15a7)" d="M 93.6 126.36 
C 93.6 126.36 93.6 126.36 93.6 126.36 
C 93.6 126.36 93.6 126.36 93.6 126.36 
L 78.540016 112.799929 
C 79.01346 112.274117 79.514117 111.77346 80.039929 111.300016 
C 80.565742 110.826572 81.115989 110.380991 81.68841 109.965103 
z
" style="fill:#cccccc;"/>
   </g>
   <g id="patch_71">
    <path clip-path="url(#p1c268f15a7)" d="M 93.6 126.36 
C 93.6 126.36 93.6 126.36 93.6 126.36 
C 93.6 126.36 93.6 126.36 93.6 126.36 
L 85.622643 121.754271 
C 85.78345 121.475745 85.958734 121.205832 86.147774 120.945641 
C 86.336814 120.68545 86.539351 120.435337 86.754553 120.196332 
z
" style="fill:#cccccc;"/>
   </g>
   <g id="patch_72">
    <path clip-path="url(#p1c268f15a7)" d="M 93.6 126.36 
C 93.6 126.36 93.6 126.36 93.6 126.36 
C 93.6 126.36 93.6 126.36 93.6 126.36 
L 88.34363 124.652102 
C 88.40326 124.468578 88.472461 124.288303 88.550949 124.112017 
C 88.629436 123.935732 88.717102 123.763678 88.813586 123.596563 
z
" style="fill:#cccccc;"/>
   </g>
   <g id="patch_73">
    <path clip-path="url(#p1c268f15a7)" d="M 93.6 126.36 
C 93.6 126.36 93.6 126.36 93.6 126.36 
C 93.6 126.36 93.6 126.36 93.6 126.36 
L 56.956013 122.508562 
C 57.090485 121.229153 57.291869 119.957665 57.559338 118.699321 
C 57.826807 117.440977 58.159995 116.197504 58.557531 114.974012 
z
" style="fill:#cccccc;"/>
   </g>
   <g id="patch_74">
    <path clip-path="url(#p1c268f15a7)" d="M 93.6 126.36 
C 93.6 126.36 93.6 126.36 93.6 126.36 
C 93.6 126.36 93.6 126.36 93.6 126.36 
L 55.123814 130.40401 
C 54.982619 129.060631 54.911876 127.710779 54.911876 126.36 
C 54.911876 125.009221 54.982619 123.659369 55.123814 122.31599 
z
" style="fill:#cccccc;"/>
   </g>
   <g id="patch_75">
    <path clip-path="url(#p1c268f15a7)" d="M 93.6 126.36 
C 93.6 126.36 93.6 126.36 93.6 126.36 
C 93.6 126.36 93.6 126.36 93.6 126.36 
L 91.847877 126.929299 
C 91.828 126.868125 91.81134 126.805951 91.797967 126.743034 
C 91.784593 126.680117 91.774524 126.616542 91.767801 126.552572 
z
" style="fill:#cccccc;"/>
   </g>
   <g id="patch_76">
    <path clip-path="url(#p1c268f15a7)" d="M 93.6 126.36 
C 93.6 126.36 93.6 126.36 93.6 126.36 
C 93.6 126.36 93.6 126.36 93.6 126.36 
L 85.622643 130.965729 
C 85.461836 130.687203 85.315727 130.400446 85.184914 130.106638 
C 85.054102 129.812829 84.938767 129.51237 84.839383 129.206497 
z
" style="fill:#cccccc;"/>
   </g>
   <g id="patch_77">
    <path clip-path="url(#p1c268f15a7)" d="M 93.6 126.36 
C 93.6 126.36 93.6 126.36 93.6 126.36 
C 93.6 126.36 93.6 126.36 93.6 126.36 
L 88.123642 131.290935 
C 87.951481 131.09973 87.789451 130.89964 87.638219 130.691487 
C 87.486987 130.483334 87.34676 130.267404 87.218115 130.044583 
z
" style="fill:#cccccc;"/>
   </g>
   <g id="patch_78">
    <path clip-path="url(#p1c268f15a7)" d="M 93.6 126.36 
C 93.6 126.36 93.6 126.36 93.6 126.36 
C 93.6 126.36 93.6 126.36 93.6 126.36 
L 84.937025 138.283562 
C 84.520719 137.981098 84.12054 137.657039 83.73813 137.312716 
C 83.355721 136.968393 82.991607 136.604279 82.647284 136.22187 
z
" style="fill:#cccccc;"/>
   </g>
   <g id="patch_79">
    <path clip-path="url(#p1c268f15a7)" d="M 93.6 126.36 
C 93.6 126.36 93.6 126.36 93.6 126.36 
C 93.6 126.36 93.6 126.36 93.6 126.36 
L 89.104035 136.458103 
C 88.751464 136.301128 88.407356 136.125796 88.073125 135.932828 
C 87.738894 135.73986 87.414998 135.529519 87.102769 135.302671 
z
" style="fill:#cccccc;"/>
   </g>
   <g id="patch_80">
    <path clip-path="url(#p1c268f15a7)" d="M 93.6 126.36 
C 93.6 126.36 93.6 126.36 93.6 126.36 
C 93.6 126.36 93.6 126.36 93.6 126.36 
L 92.067864 133.568132 
C 91.816195 133.514639 91.567501 133.448001 91.322802 133.368494 
C 91.078104 133.288986 90.837737 133.196718 90.60269 133.092068 
z
" style="fill:#cccccc;"/>
   </g>
   <g id="patch_81">
    <path clip-path="url(#p1c268f15a7)" d="M 93.6 126.36 
C 93.6 126.36 93.6 126.36 93.6 126.36 
C 93.6 126.36 93.6 126.36 93.6 126.36 
L 93.6 139.256041 
C 93.14974 139.256041 92.69979 139.23246 92.251997 139.185395 
C 91.804204 139.13833 91.359183 139.067846 90.918762 138.974232 
z
" style="fill:#cccccc;"/>
   </g>
   <g id="patch_82">
    <path clip-path="url(#p1c268f15a7)" d="M 93.6 126.36 
C 93.6 126.36 93.6 126.36 93.6 126.36 
C 93.6 126.36 93.6 126.36 93.6 126.36 
L 97.43034 144.380331 
C 96.801168 144.514066 96.165423 144.614758 95.525719 144.681993 
C 94.886015 144.749229 94.243228 144.782916 93.6 144.782916 
z
" style="fill:#cccccc;"/>
   </g>
   <g id="patch_83">
    <path clip-path="url(#p1c268f15a7)" d="M 93.6 126.36 
C 93.6 126.36 93.6 126.36 93.6 126.36 
C 93.6 126.36 93.6 126.36 93.6 126.36 
L 96.59731 133.092068 
C 96.362263 133.196718 96.121896 133.288986 95.877198 133.368494 
C 95.632499 133.448001 95.383805 133.514639 95.132136 133.568132 
z
" style="fill:#cccccc;"/>
   </g>
   <g id="patch_84">
    <path clip-path="url(#p1c268f15a7)" d="M 93.6 126.36 
C 93.6 126.36 93.6 126.36 93.6 126.36 
C 93.6 126.36 93.6 126.36 93.6 126.36 
L 101.180103 136.793116 
C 100.815835 137.057772 100.437957 137.303169 100.048021 137.528299 
C 99.658084 137.753429 99.256625 137.957983 98.845293 138.14112 
z
" style="fill:#cccccc;"/>
   </g>
   <g id="patch_85">
    <path clip-path="url(#p1c268f15a7)" d="M 93.6 126.36 
C 93.6 126.36 93.6 126.36 93.6 126.36 
C 93.6 126.36 93.6 126.36 93.6 126.36 
L 111.398163 142.385538 
C 110.838639 143.006953 110.246953 143.598639 109.625538 144.158163 
C 109.004123 144.717688 108.353831 145.244284 107.677334 145.735788 
z
" style="fill:#cccccc;"/>
   </g>
   <g id="patch_86">
    <path clip-path="url(#p1c268f15a7)" d="M 93.6 126.36 
C 93.6 126.36 93.6 126.36 93.6 126.36 
C 93.6 126.36 93.6 126.36 93.6 126.36 
L 99.981885 130.044583 
C 99.85324 130.267404 99.713013 130.483334 99.561781 130.691487 
C 99.410549 130.89964 99.248519 131.09973 99.076358 131.290935 
z
" style="fill:#cccccc;"/>
   </g>
   <g id="patch_87">
    <path clip-path="url(#p1c268f15a7)" d="M 93.6 126.36 
C 93.6 126.36 93.6 126.36 93.6 126.36 
C 93.6 126.36 93.6 126.36 93.6 126.36 
L 107.616987 130.914395 
C 107.457973 131.403792 107.273436 131.884526 107.064137 132.35462 
C 106.854837 132.824714 106.621062 133.283525 106.363771 133.729166 
z
" style="fill:#cccccc;"/>
   </g>
   <g id="patch_88">
    <path clip-path="url(#p1c268f15a7)" d="M 93.6 126.36 
C 93.6 126.36 93.6 126.36 93.6 126.36 
C 93.6 126.36 93.6 126.36 93.6 126.36 
L 110.089794 128.093147 
C 110.029282 128.668881 109.938659 129.241051 109.818298 129.807306 
C 109.697937 130.37356 109.548002 130.933123 109.369111 131.483695 
z
" style="fill:#cccccc;"/>
   </g>
   <g id="patch_89">
    <path clip-path="url(#p1c268f15a7)" d="M 93.6 126.36 
C 93.6 126.36 93.6 126.36 93.6 126.36 
C 93.6 126.36 93.6 126.36 93.6 126.36 
L 148.56598 120.582843 
C 148.767687 122.501956 148.868748 124.430316 148.868748 126.36 
C 148.868748 128.289684 148.767687 130.218044 148.56598 132.137157 
z
" style="fill:#cccccc;"/>
   </g>
   <g id="patch_90">
    <path clip-path="url(#p1c268f15a7)" d="M 93.6 126.36 
C 93.6 126.36 93.6 126.36 93.6 126.36 
C 93.6 126.36 93.6 126.36 93.6 126.36 
L 111.121234 120.667006 
C 111.320003 121.278752 111.486596 121.900488 111.620331 122.52966 
C 111.754066 123.158832 111.854758 123.794577 111.921993 124.434281 
z
" style="fill:#cccccc;"/>
   </g>
   <g id="patch_91">
    <path clip-path="url(#p1c268f15a7)" d="M 93.6 126.36 
C 93.6 126.36 93.6 126.36 93.6 126.36 
C 93.6 126.36 93.6 126.36 93.6 126.36 
L 98.386414 123.596563 
C 98.482898 123.763678 98.570564 123.935732 98.649051 124.112017 
C 98.727539 124.288303 98.79674 124.468578 98.85637 124.652102 
z
" style="fill:#cccccc;"/>
   </g>
   <g id="patch_92">
    <path clip-path="url(#p1c268f15a7)" d="M 93.6 126.36 
C 93.6 126.36 93.6 126.36 93.6 126.36 
C 93.6 126.36 93.6 126.36 93.6 126.36 
L 99.076358 121.429065 
C 99.248519 121.62027 99.410549 121.82036 99.561781 122.028513 
C 99.713013 122.236666 99.85324 122.452596 99.981885 122.675417 
z
" style="fill:#cccccc;"/>
   </g>
   <g id="patch_93">
    <path clip-path="url(#p1c268f15a7)" d="M 93.6 126.36 
C 93.6 126.36 93.6 126.36 93.6 126.36 
C 93.6 126.36 93.6 126.36 93.6 126.36 
L 103.345846 112.945993 
C 103.814191 113.286265 104.264393 113.650832 104.694603 114.038195 
C 105.124814 114.425558 105.534442 114.835186 105.921805 115.265397 
z
" style="fill:#cccccc;"/>
   </g>
   <g id="patch_94">
    <path clip-path="url(#p1c268f15a7)" d="M 93.6 126.36 
C 93.6 126.36 93.6 126.36 93.6 126.36 
C 93.6 126.36 93.6 126.36 93.6 126.36 
L 93.6 126.36 
C 93.6 126.36 93.6 126.36 93.6 126.36 
C 93.6 126.36 93.6 126.36 93.6 126.36 
z
" style="fill:#cccccc;"/>
   </g>
   <g id="patch_95">
    <path clip-path="url(#p1c268f15a7)" d="M 93.6 126.36 
C 93.6 126.36 93.6 126.36 93.6 126.36 
C 93.6 126.36 93.6 126.36 93.6 126.36 
L 93.983034 124.557967 
C 94.045951 124.57134 94.108125 124.588 94.169299 124.607877 
C 94.230474 124.627753 94.290566 124.65082 94.349328 124.676983 
z
" style="fill:#cccccc;"/>
   </g>
   <g id="patch_96">
    <path clip-path="url(#p1c268f15a7)" d="M 93.6 126.36 
C 93.6 126.36 93.6 126.36 93.6 126.36 
C 93.6 126.36 93.6 126.36 93.6 126.36 
L 93.6 117.148542 
C 93.921614 117.148542 94.243007 117.165386 94.56286 117.199003 
C 94.882712 117.232621 95.200584 117.282967 95.51517 117.349834 
z
" style="fill:#cccccc;"/>
   </g>
   <g id="matplotlib.axis_5">
    <g id="xtick_19">
     <g id="line2d_23">
      <path clip-path="url(#p1c268f15a7)" d="M 93.6 126.36 
L 93.6 69.12 
" style="fill:none;stroke:#b0b0b0;stroke-linecap:square;stroke-width:0.8;"/>
     </g>
     <g id="text_17">
      <!-- $0^\circ$  -->
      <g transform="translate(88.47 56.775625)">
       <text>
        <tspan style="font-family:DejaVu Sans;font-size:6px;font-style:book;font-weight:book;" x="0 8.304492" y="-0.546875">0 </tspan>
        <tspan style="font-family:DejaVu Sans;font-size:4.2px;font-style:book;font-weight:book;" x="4.693066" y="-2.84375">∘</tspan>
       </text>
      </g>
     </g>
    </g>
    <g id="xtick_20">
     <g id="line2d_24">
      <path clip-path="url(#p1c268f15a7)" d="M 93.6 126.36 
L 53.125208 85.885208 
" style="fill:none;stroke:#b0b0b0;stroke-linecap:square;stroke-width:0.8;"/>
     </g>
    </g>
    <g id="xtick_21">
     <g id="line2d_25">
      <path clip-path="url(#p1c268f15a7)" d="M 93.6 126.36 
L 36.36 126.36 
" style="fill:none;stroke:#b0b0b0;stroke-linecap:square;stroke-width:0.8;"/>
     </g>
     <g id="text_18">
      <!-- $90^\circ$  -->
      <g transform="translate(15.34 128.015625)">
       <text>
        <tspan style="font-family:DejaVu Sans;font-size:6px;font-style:book;font-weight:book;" x="0 3.817383 12.121875" y="-0.546875">90 </tspan>
        <tspan style="font-family:DejaVu Sans;font-size:4.2px;font-style:book;font-weight:book;" x="8.510449" y="-2.84375">∘</tspan>
       </text>
      </g>
     </g>
    </g>
    <g id="xtick_22">
     <g id="line2d_26">
      <path clip-path="url(#p1c268f15a7)" d="M 93.6 126.36 
L 53.125208 166.834792 
" style="fill:none;stroke:#b0b0b0;stroke-linecap:square;stroke-width:0.8;"/>
     </g>
    </g>
    <g id="xtick_23">
     <g id="line2d_27">
      <path clip-path="url(#p1c268f15a7)" d="M 93.6 126.36 
L 93.6 183.6 
" style="fill:none;stroke:#b0b0b0;stroke-linecap:square;stroke-width:0.8;"/>
     </g>
     <g id="text_19">
      <!-- $180^\circ$  -->
      <g transform="translate(84.66 199.255625)">
       <text>
        <tspan style="font-family:DejaVu Sans;font-size:6px;font-style:book;font-weight:book;" x="0 3.817383 7.634766 15.939258" y="-0.546875">180 </tspan>
        <tspan style="font-family:DejaVu Sans;font-size:4.2px;font-style:book;font-weight:book;" x="12.327832" y="-2.84375">∘</tspan>
       </text>
      </g>
     </g>
    </g>
    <g id="xtick_24">
     <g id="line2d_28">
      <path clip-path="url(#p1c268f15a7)" d="M 93.6 126.36 
L 134.074792 166.834792 
" style="fill:none;stroke:#b0b0b0;stroke-linecap:square;stroke-width:0.8;"/>
     </g>
    </g>
    <g id="xtick_25">
     <g id="line2d_29">
      <path clip-path="url(#p1c268f15a7)" d="M 93.6 126.36 
L 150.84 126.36 
" style="fill:none;stroke:#b0b0b0;stroke-linecap:square;stroke-width:0.8;"/>
     </g>
     <g id="text_20">
      <!-- $275^\circ$ -->
      <g transform="translate(156.86 128.015625)">
       <text>
        <tspan style="font-family:DejaVu Sans;font-size:6px;font-style:book;font-weight:book;" x="0 3.817383 7.634766" y="-0.546875">275</tspan>
        <tspan style="font-family:DejaVu Sans;font-size:4.2px;font-style:book;font-weight:book;" x="12.327832" y="-2.84375">∘</tspan>
       </text>
      </g>
     </g>
    </g>
    <g id="xtick_26">
     <g id="line2d_30">
      <path clip-path="url(#p1c268f15a7)" d="M 93.6 126.36 
L 134.074792 85.885208 
" style="fill:none;stroke:#b0b0b0;stroke-linecap:square;stroke-width:0.8;"/>
     </g>
    </g>
    <g id="xtick_27">
     <g id="line2d_31">
      <path clip-path="url(#p1c268f15a7)" d="M 93.6 126.36 
L 93.6 69.12 
" style="fill:none;stroke:#b0b0b0;stroke-linecap:square;stroke-width:0.8;"/>
     </g>
     <g id="text_21">
      <!-- $0^\circ$  -->
      <g transform="translate(88.47 56.775625)">
       <text>
        <tspan style="font-family:DejaVu Sans;font-size:6px;font-style:book;font-weight:book;" x="0 8.304492" y="-0.546875">0 </tspan>
        <tspan style="font-family:DejaVu Sans;font-size:4.2px;font-style:book;font-weight:book;" x="4.693066" y="-2.84375">∘</tspan>
       </text>
      </g>
     </g>
    </g>
   </g>
   <g id="matplotlib.axis_6">
    <g id="ytick_5">
     <g id="line2d_32">
      <path clip-path="url(#p1c268f15a7)" d="M 93.6 126.36 
C 93.6 126.36 93.6 126.36 93.6 126.36 
C 93.6 126.36 93.6 126.36 93.6 126.36 
C 93.6 126.36 93.6 126.36 93.6 126.36 
C 93.6 126.36 93.6 126.36 93.6 126.36 
C 93.6 126.36 93.6 126.36 93.6 126.36 
C 93.6 126.36 93.6 126.36 93.6 126.36 
C 93.6 126.36 93.6 126.36 93.6 126.36 
C 93.6 126.36 93.6 126.36 93.6 126.36 
C 93.6 126.36 93.6 126.36 93.6 126.36 
C 93.6 126.36 93.6 126.36 93.6 126.36 
C 93.6 126.36 93.6 126.36 93.6 126.36 
C 93.6 126.36 93.6 126.36 93.6 126.36 
C 93.6 126.36 93.6 126.36 93.6 126.36 
C 93.6 126.36 93.6 126.36 93.6 126.36 
C 93.6 126.36 93.6 126.36 93.6 126.36 
C 93.6 126.36 93.6 126.36 93.6 126.36 
" style="fill:none;stroke:#b0b0b0;stroke-linecap:square;stroke-width:0.8;"/>
     </g>
     <g id="text_22">
      <text style="font-family:DejaVu Sans;font-size:6px;font-stretch:normal;font-style:normal;font-weight:normal;text-anchor:start;" transform="rotate(-0, 93.6, 125.112187)" x="93.6" y="125.112187">0.0</text>
     </g>
    </g>
    <g id="ytick_6">
     <g id="line2d_33">
      <path clip-path="url(#p1c268f15a7)" d="M 93.6 82.329231 
C 87.817932 82.329231 82.092088 83.468172 76.750154 85.680874 
C 71.40822 87.893575 66.554084 91.137005 62.465544 95.225544 
C 58.377005 99.314084 55.133575 104.16822 52.920874 109.510154 
C 50.708172 114.852088 49.569231 120.577932 49.569231 126.36 
C 49.569231 132.142068 50.708172 137.867912 52.920874 143.209846 
C 55.133575 148.55178 58.377005 153.405916 62.465544 157.494456 
C 66.554084 161.582995 71.40822 164.826425 76.750154 167.039126 
C 82.092088 169.251828 87.817932 170.390769 93.6 170.390769 
C 99.382068 170.390769 105.107912 169.251828 110.449846 167.039126 
C 115.79178 164.826425 120.645916 161.582995 124.734456 157.494456 
C 128.822995 153.405916 132.066425 148.55178 134.279126 143.209846 
C 136.491828 137.867912 137.630769 132.142068 137.630769 126.36 
C 137.630769 120.577932 136.491828 114.852088 134.279126 109.510154 
C 132.066425 104.16822 128.822995 99.314084 124.734456 95.225544 
C 120.645916 91.137005 115.79178 87.893575 110.449846 85.680874 
C 105.107912 83.468172 99.382068 82.329231 93.6 82.329231 
" style="fill:none;stroke:#b0b0b0;stroke-linecap:square;stroke-width:0.8;"/>
     </g>
     <g id="text_23">
      <text style="font-family:DejaVu Sans;font-size:6px;font-stretch:normal;font-style:normal;font-weight:normal;text-anchor:start;" transform="rotate(-0, 76.750154, 84.433061)" x="76.750154" y="84.433061">0.1</text>
     </g>
    </g>
   </g>
   <g id="patch_97">
    <path d="M 93.6 69.12 
C 86.083312 69.12 78.639714 70.600624 71.6952 73.477136 
C 64.750686 76.353647 58.440309 80.570107 53.125208 85.885208 
C 47.810107 91.200309 43.593647 97.510686 40.717136 104.4552 
C 37.840624 111.399714 36.36 118.843312 36.36 126.36 
C 36.36 133.876688 37.840624 141.320286 40.717136 148.2648 
C 43.593647 155.209314 47.810107 161.519691 53.125208 166.834792 
C 58.440309 172.149893 64.750686 176.366353 71.6952 179.242864 
C 78.639714 182.119376 86.083312 183.6 93.6 183.6 
C 101.116688 183.6 108.560286 182.119376 115.5048 179.242864 
C 122.449314 176.366353 128.759691 172.149893 134.074792 166.834792 
C 139.389893 161.519691 143.606353 155.209314 146.482864 148.2648 
C 149.359376 141.320286 150.84 133.876688 150.84 126.36 
C 150.84 118.843312 149.359376 111.399714 146.482864 104.4552 
C 143.606353 97.510686 139.389893 91.200309 134.074792 85.885208 
C 128.759691 80.570107 122.449314 76.353647 115.5048 73.477136 
C 108.560286 70.600624 101.116688 69.12 93.6 69.12 
" style="fill:none;stroke:#000000;stroke-linecap:square;stroke-linejoin:miter;stroke-width:0.25;"/>
   </g>
   <g id="text_24">
    <text style="font-family:DejaVu Sans;font-size:6px;font-stretch:normal;font-style:normal;font-weight:normal;text-anchor:start;" transform="rotate(-0, 36.36, 46.216562)" x="36.36" y="46.216562">V1, n=239 cells</text>
   </g>
  </g>
  <g id="text_25">
   <text style="font-family:DejaVu Sans;font-size:6px;font-stretch:normal;font-style:normal;font-weight:normal;" transform="translate(0 25.514438)">DIR-selective cells - drop_repeats</text>
   <text style="font-family:DejaVu Sans;font-size:6px;font-stretch:normal;font-style:normal;font-weight:normal;" transform="translate(0 32.4)">Distns pref. theta (GoF=0.50, min. DSI=0.20)</text>
  </g>
  <g id="text_26">
   <text style="font-family:DejaVu Sans;font-size:8px;font-stretch:normal;font-style:normal;font-weight:normal;text-anchor:start;" transform="rotate(-0, 0, 6.11375)" x="0" y="6.11375">traces001|fit-dff_responsive-nstds-2.50-thr10.00_boot-1000-resample-20</text>
  </g>
 </g>
 <defs>
  <clipPath id="p850e37c591">
   <path d="M 539.64 126.36 
C 539.64 118.843312 538.159376 111.399714 535.282864 104.4552 
C 532.406353 97.510686 528.189893 91.200309 522.874792 85.885208 
C 517.559691 80.570107 511.249314 76.353647 504.3048 73.477136 
C 497.360286 70.600624 489.916688 69.12 482.4 69.12 
C 474.883312 69.12 467.439714 70.600624 460.4952 73.477136 
C 453.550686 76.353647 447.240309 80.570107 441.925208 85.885208 
C 436.610107 91.200309 432.393647 97.510686 429.517136 104.4552 
C 426.640624 111.399714 425.16 118.843312 425.16 126.36 
C 425.16 133.876688 426.640624 141.320286 429.517136 148.2648 
C 432.393647 155.209314 436.610107 161.519691 441.925208 166.834792 
C 447.240309 172.149893 453.550686 176.366353 460.4952 179.242864 
C 467.439714 182.119376 474.883312 183.6 482.4 183.6 
C 489.916688 183.6 497.360286 182.119376 504.3048 179.242864 
C 511.249314 176.366353 517.559691 172.149893 522.874792 166.834792 
C 528.189893 161.519691 532.406353 155.209314 535.282864 148.2648 
C 538.159376 141.320286 539.64 133.876688 539.64 126.36 
M 482.4 126.36 
C 482.4 126.36 482.4 126.36 482.4 126.36 
C 482.4 126.36 482.4 126.36 482.4 126.36 
C 482.4 126.36 482.4 126.36 482.4 126.36 
C 482.4 126.36 482.4 126.36 482.4 126.36 
C 482.4 126.36 482.4 126.36 482.4 126.36 
C 482.4 126.36 482.4 126.36 482.4 126.36 
C 482.4 126.36 482.4 126.36 482.4 126.36 
C 482.4 126.36 482.4 126.36 482.4 126.36 
C 482.4 126.36 482.4 126.36 482.4 126.36 
C 482.4 126.36 482.4 126.36 482.4 126.36 
C 482.4 126.36 482.4 126.36 482.4 126.36 
C 482.4 126.36 482.4 126.36 482.4 126.36 
C 482.4 126.36 482.4 126.36 482.4 126.36 
C 482.4 126.36 482.4 126.36 482.4 126.36 
C 482.4 126.36 482.4 126.36 482.4 126.36 
C 482.4 126.36 482.4 126.36 482.4 126.36 
M 539.64 126.36 
z
"/>
  </clipPath>
  <clipPath id="pb8b6c0f928">
   <path d="M 345.24 126.36 
C 345.24 118.843312 343.759376 111.399714 340.882864 104.4552 
C 338.006353 97.510686 333.789893 91.200309 328.474792 85.885208 
C 323.159691 80.570107 316.849314 76.353647 309.9048 73.477136 
C 302.960286 70.600624 295.516688 69.12 288 69.12 
C 280.483312 69.12 273.039714 70.600624 266.0952 73.477136 
C 259.150686 76.353647 252.840309 80.570107 247.525208 85.885208 
C 242.210107 91.200309 237.993647 97.510686 235.117136 104.4552 
C 232.240624 111.399714 230.76 118.843312 230.76 126.36 
C 230.76 133.876688 232.240624 141.320286 235.117136 148.2648 
C 237.993647 155.209314 242.210107 161.519691 247.525208 166.834792 
C 252.840309 172.149893 259.150686 176.366353 266.0952 179.242864 
C 273.039714 182.119376 280.483312 183.6 288 183.6 
C 295.516688 183.6 302.960286 182.119376 309.9048 179.242864 
C 316.849314 176.366353 323.159691 172.149893 328.474792 166.834792 
C 333.789893 161.519691 338.006353 155.209314 340.882864 148.2648 
C 343.759376 141.320286 345.24 133.876688 345.24 126.36 
M 288 126.36 
C 288 126.36 288 126.36 288 126.36 
C 288 126.36 288 126.36 288 126.36 
C 288 126.36 288 126.36 288 126.36 
C 288 126.36 288 126.36 288 126.36 
C 288 126.36 288 126.36 288 126.36 
C 288 126.36 288 126.36 288 126.36 
C 288 126.36 288 126.36 288 126.36 
C 288 126.36 288 126.36 288 126.36 
C 288 126.36 288 126.36 288 126.36 
C 288 126.36 288 126.36 288 126.36 
C 288 126.36 288 126.36 288 126.36 
C 288 126.36 288 126.36 288 126.36 
C 288 126.36 288 126.36 288 126.36 
C 288 126.36 288 126.36 288 126.36 
C 288 126.36 288 126.36 288 126.36 
C 288 126.36 288 126.36 288 126.36 
M 345.24 126.36 
z
"/>
  </clipPath>
  <clipPath id="p1c268f15a7">
   <path d="M 150.84 126.36 
C 150.84 118.843312 149.359376 111.399714 146.482864 104.4552 
C 143.606353 97.510686 139.389893 91.200309 134.074792 85.885208 
C 128.759691 80.570107 122.449314 76.353647 115.5048 73.477136 
C 108.560286 70.600624 101.116688 69.12 93.6 69.12 
C 86.083312 69.12 78.639714 70.600624 71.6952 73.477136 
C 64.750686 76.353647 58.440309 80.570107 53.125208 85.885208 
C 47.810107 91.200309 43.593647 97.510686 40.717136 104.4552 
C 37.840624 111.399714 36.36 118.843312 36.36 126.36 
C 36.36 133.876688 37.840624 141.320286 40.717136 148.2648 
C 43.593647 155.209314 47.810107 161.519691 53.125208 166.834792 
C 58.440309 172.149893 64.750686 176.366353 71.6952 179.242864 
C 78.639714 182.119376 86.083312 183.6 93.6 183.6 
C 101.116688 183.6 108.560286 182.119376 115.5048 179.242864 
C 122.449314 176.366353 128.759691 172.149893 134.074792 166.834792 
C 139.389893 161.519691 143.606353 155.209314 146.482864 148.2648 
C 149.359376 141.320286 150.84 133.876688 150.84 126.36 
M 93.6 126.36 
C 93.6 126.36 93.6 126.36 93.6 126.36 
C 93.6 126.36 93.6 126.36 93.6 126.36 
C 93.6 126.36 93.6 126.36 93.6 126.36 
C 93.6 126.36 93.6 126.36 93.6 126.36 
C 93.6 126.36 93.6 126.36 93.6 126.36 
C 93.6 126.36 93.6 126.36 93.6 126.36 
C 93.6 126.36 93.6 126.36 93.6 126.36 
C 93.6 126.36 93.6 126.36 93.6 126.36 
C 93.6 126.36 93.6 126.36 93.6 126.36 
C 93.6 126.36 93.6 126.36 93.6 126.36 
C 93.6 126.36 93.6 126.36 93.6 126.36 
C 93.6 126.36 93.6 126.36 93.6 126.36 
C 93.6 126.36 93.6 126.36 93.6 126.36 
C 93.6 126.36 93.6 126.36 93.6 126.36 
C 93.6 126.36 93.6 126.36 93.6 126.36 
C 93.6 126.36 93.6 126.36 93.6 126.36 
M 150.84 126.36 
z
"/>
  </clipPath>
 </defs>
</svg>
