<?xml version="1.0" encoding="utf-8"?>
<!-- Generator: Adobe Illustrator 23.0.3, SVG Export Plug-In . SVG Version: 6.00 Build 0)  -->
<svg version="1.1" id="Layer_1" xmlns="http://www.w3.org/2000/svg" xmlns:xlink="http://www.w3.org/1999/xlink" x="0px" y="0px"
	 viewBox="0 0 432 288" style="enable-background:new 0 0 432 288;" xml:space="preserve">
<style type="text/css">
	.st0{font-family:'ArialMT';}
	.st1{font-size:6px;}
	.st2{fill:none;stroke:#000000;stroke-width:0.25;stroke-linejoin:round;}
	.st3{fill:none;stroke:#000000;stroke-width:0.25;stroke-linecap:square;}
	.st4{stroke:#000000;stroke-width:0.5;stroke-linejoin:round;}
	.st5{fill:none;stroke:#000000;stroke-width:0.5;stroke-linecap:square;stroke-linejoin:round;}
	.st6{fill:#6495ED;stroke:#6495ED;stroke-width:0.5;stroke-linejoin:round;}
	.st7{fill:none;stroke:#6495ED;stroke-width:0.5;stroke-linecap:square;stroke-linejoin:round;}
	.st8{fill:none;stroke:#000000;stroke-width:0.5;stroke-linejoin:round;stroke-dasharray:1.35,2.2275;}
	.st9{fill:none;}
</style>
<text transform="matrix(1 0 0 1 80.5964 97.4117)" class="st0 st1">V1</text>
<text transform="matrix(1 0 0 1 166.6448 97.4117)" class="st0 st1">Lm</text>
<g>
	<g>
		<path class="st2" d="M113.1,180.8v3.5"/>
	</g>
	<g id="text_1">
		<text transform="matrix(1 0 0 1 52.0802 190.8883)" class="st0 st1">50</text>
	</g>
	<g id="text_2">
		<text transform="matrix(1 0 0 1 66.5044 190.8884)" class="st0 st1">40</text>
	</g>
	<g id="text_3">
		<text transform="matrix(1 0 0 1 80.9288 190.8884)" class="st0 st1">30</text>
	</g>
	<g id="text_4">
		<text transform="matrix(1 0 0 1 95.3532 190.8884)" class="st0 st1">20</text>
	</g>
	<g id="text_5">
		<text transform="matrix(1 0 0 1 109.7778 190.8883)" class="st0 st1">10</text>
	</g>
	<text transform="matrix(1 0 0 1 53.92 199.4255)" class="st0 st1">Excluded stimulus size</text>
	<g>
		<path id="mcf04649b27" class="st2" d="M55.4,180.8v3.5"/>
	</g>
	<g>
		<path class="st2" d="M69.8,180.8v3.5"/>
	</g>
	<g>
		<path class="st2" d="M84.3,180.8v3.5"/>
	</g>
	<g>
		<path class="st2" d="M98.7,180.8v3.5"/>
	</g>
	<path class="st3" d="M55.4,180.8h57.7"/>
</g>
<g>
	<path class="st4" d="M56.6,134.7h-2.3"/>
	<path class="st4" d="M71,136.8h-2.3"/>
	<path class="st4" d="M85.4,135.6h-2.3"/>
	<path class="st4" d="M99.8,133.5h-2.3"/>
	<path class="st4" d="M114.3,128.8H112"/>
	<path class="st4" d="M56.6,161.3h-2.3"/>
	<path class="st4" d="M71,161.3h-2.3"/>
	<path class="st4" d="M85.4,161.3h-2.3"/>
	<path class="st4" d="M99.8,160.9h-2.3"/>
	<path class="st4" d="M114.3,161.5H112"/>
	<path class="st5" d="M55.4,134.7l14.4,2.1l14.4-1.2l14.4-2.1l14.4-4.7"/>
	<path class="st5" d="M55.4,140.8v-12.9"/>
	<path class="st5" d="M69.8,142.6v-11.6"/>
	<path class="st5" d="M84.3,140.8v-10.5"/>
	<path class="st5" d="M98.7,138.2v-10"/>
	<path class="st5" d="M113.1,135.3V122"/>
	<path class="st6" d="M56.6,134.8h-2.3"/>
	<path class="st6" d="M71,127.8h-2.3"/>
	<path class="st6" d="M85.4,133.6h-2.3"/>
	<path class="st6" d="M99.8,140.9h-2.3"/>
	<path class="st6" d="M114.3,155.4H112"/>
	<path class="st7" d="M55.4,134.8l14.4-7l14.4,5.9l14.4,7.3l14.4,14.5"/>
	<path class="st7" d="M55.4,140.6V129"/>
	<path class="st7" d="M69.8,133.8v-12.6"/>
	<path class="st7" d="M84.3,141.9v-16.5"/>
	<path class="st7" d="M98.7,148.7v-14.9"/>
	<path class="st7" d="M113.1,160.1v-8.7"/>
	<path class="st8" d="M55.4,161.3l14.4,0.1l14.4-0.1l14.4-0.3l14.4,0.6"/>
	<path class="st5" d="M55.4,162.1v-1.6"/>
	<path class="st5" d="M69.8,162.1v-1.5"/>
	<path class="st5" d="M84.3,162.1v-1.6"/>
	<path class="st5" d="M98.7,161.6v-1.3"/>
	<rect x="48.2" y="100.8" class="st9" width="72.1" height="72"/>
	<path class="st5" d="M113.1,162.2v-1.4"/>
</g>
<g>
	<g id="text_7">
		<text transform="matrix(1 0 0 1 30.5593 174.4005)" class="st0 st1">0.4</text>
	</g>
	<g id="text_8">
		<text transform="matrix(1 0 0 1 30.5597 150.3998)" class="st0 st1">0.6</text>
	</g>
	<g id="text_9">
		<text transform="matrix(1 0 0 1 30.5597 126.3998)" class="st0 st1">0.8</text>
	</g>
	<g id="text_10">
		<text transform="matrix(1 0 0 1 30.5597 102.4)" class="st0 st1">1.0</text>
	</g>
	<text transform="matrix(6.123234e-17 -1 1 6.123234e-17 27.1714 157.1406)" class="st0 st1">Percent correct</text>
	<g>
		<path id="m0a09bb5040" class="st2" d="M42.7,172.8h-2.4"/>
	</g>
	<g>
		<path class="st2" d="M42.7,148.8h-2.4"/>
	</g>
	<g>
		<path class="st2" d="M42.7,124.8h-2.4"/>
	</g>
	<g>
		<path class="st2" d="M42.7,100.8h-2.4"/>
	</g>
	<path class="st3" d="M42.7,172.8v-72"/>
</g>
<g>
	<path class="st9" d="M134.8,172.8h72.1v-72h-72.1V172.8z"/>
	<rect x="134.8" y="100.8" class="st9" width="72.1" height="72"/>
	<path class="st4" d="M143.1,144.2h-2.3"/>
	<rect x="134.8" y="100.8" class="st9" width="72.1" height="72"/>
	<path class="st4" d="M157.5,143.2h-2.3"/>
	<rect x="134.8" y="100.8" class="st9" width="72.1" height="72"/>
	<path class="st4" d="M172,142.7h-2.3"/>
	<rect x="134.8" y="100.8" class="st9" width="72.1" height="72"/>
	<path class="st4" d="M186.4,137.7h-2.3"/>
	<rect x="134.8" y="100.8" class="st9" width="72.1" height="72"/>
	<path class="st4" d="M200.8,134.8h-2.3"/>
	<rect x="134.8" y="100.8" class="st9" width="72.1" height="72"/>
	<path class="st4" d="M143.1,161.3h-2.3"/>
	<rect x="134.8" y="100.8" class="st9" width="72.1" height="72"/>
	<path class="st4" d="M157.5,160.6h-2.3"/>
	<rect x="134.8" y="100.8" class="st9" width="72.1" height="72"/>
	<path class="st4" d="M172,161h-2.3"/>
	<rect x="134.8" y="100.8" class="st9" width="72.1" height="72"/>
	<path class="st4" d="M186.4,161.7h-2.3"/>
	<rect x="134.8" y="100.8" class="st9" width="72.1" height="72"/>
	<path class="st4" d="M200.8,161.6h-2.3"/>
	<rect x="134.8" y="100.8" class="st9" width="72.1" height="72"/>
	<path class="st5" d="M142,144.2l14.4-1l14.4-0.4l14.4-5l14.4-2.9"/>
	<rect x="134.8" y="100.8" class="st9" width="72.1" height="72"/>
	<path class="st5" d="M142,150.8v-14.2"/>
	<rect x="134.8" y="100.8" class="st9" width="72.1" height="72"/>
	<path class="st5" d="M156.4,150.1v-13.4"/>
	<rect x="134.8" y="100.8" class="st9" width="72.1" height="72"/>
	<path class="st5" d="M170.8,149.1v-12.8"/>
	<rect x="134.8" y="100.8" class="st9" width="72.1" height="72"/>
	<path class="st5" d="M185.2,142.2v-9"/>
	<rect x="134.8" y="100.8" class="st9" width="72.1" height="72"/>
	<path class="st5" d="M199.7,141.1v-12.9"/>
	<rect x="134.8" y="100.8" class="st9" width="72.1" height="72"/>
	<path class="st6" d="M143.1,138.7h-2.3"/>
	<rect x="134.8" y="100.8" class="st9" width="72.1" height="72"/>
	<path class="st6" d="M157.5,138h-2.3"/>
	<rect x="134.8" y="100.8" class="st9" width="72.1" height="72"/>
	<path class="st6" d="M172,140.3h-2.3"/>
	<rect x="134.8" y="100.8" class="st9" width="72.1" height="72"/>
	<path class="st6" d="M186.4,150.2h-2.3"/>
	<rect x="134.8" y="100.8" class="st9" width="72.1" height="72"/>
	<path class="st6" d="M200.8,160h-2.3"/>
	<rect x="134.8" y="100.8" class="st9" width="72.1" height="72"/>
	<path class="st7" d="M142,138.7l14.4-0.6l14.4,2.3l14.4,9.9l14.4,9.8"/>
	<rect x="134.8" y="100.8" class="st9" width="72.1" height="72"/>
	<path class="st7" d="M142,147v-15.6"/>
	<rect x="134.8" y="100.8" class="st9" width="72.1" height="72"/>
	<path class="st7" d="M156.4,143.9v-12.3"/>
	<rect x="134.8" y="100.8" class="st9" width="72.1" height="72"/>
	<path class="st7" d="M170.8,148.3v-15.9"/>
	<rect x="134.8" y="100.8" class="st9" width="72.1" height="72"/>
	<path class="st7" d="M185.2,157.2v-15"/>
	<rect x="134.8" y="100.8" class="st9" width="72.1" height="72"/>
	<path class="st7" d="M199.7,165.4v-9.7"/>
	<rect x="134.8" y="100.8" class="st9" width="72.1" height="72"/>
	<path class="st8" d="M142,161.3l14.4-0.7l14.4,0.4l14.4,0.7l14.4-0.1"/>
	<rect x="134.8" y="100.8" class="st9" width="72.1" height="72"/>
	<path class="st5" d="M142,162.5v-2.5"/>
	<rect x="134.8" y="100.8" class="st9" width="72.1" height="72"/>
	<path class="st5" d="M156.4,161.3v-1.5"/>
	<rect x="134.8" y="100.8" class="st9" width="72.1" height="72"/>
	<path class="st5" d="M170.8,162.6v-3.1"/>
	<rect x="134.8" y="100.8" class="st9" width="72.1" height="72"/>
	<path class="st5" d="M185.2,162.8v-2.2"/>
	<rect x="134.8" y="100.8" class="st9" width="72.1" height="72"/>
	<path class="st5" d="M199.7,162.7v-2.2"/>
</g>
<g>
	<path class="st2" d="M129.3,172.8h-2.4"/>
</g>
<g>
	<path class="st2" d="M129.3,148.8h-2.4"/>
</g>
<g>
	<path class="st2" d="M129.3,124.8h-2.4"/>
</g>
<g>
	<path class="st2" d="M129.3,100.8h-2.4"/>
</g>
<path class="st3" d="M129.3,172.8v-72"/>
<g>
	<path class="st9" d="M221.3,172.8h72.1v-72h-72.1V172.8z"/>
	<rect x="221.3" y="100.8" class="st9" width="72.1" height="72"/>
	<path class="st4" d="M229.7,146.5h-2.3"/>
	<rect x="221.3" y="100.8" class="st9" width="72.1" height="72"/>
	<path class="st4" d="M244.1,144.5h-2.3"/>
	<rect x="221.3" y="100.8" class="st9" width="72.1" height="72"/>
	<path class="st4" d="M258.5,144.2h-2.3"/>
	<rect x="221.3" y="100.8" class="st9" width="72.1" height="72"/>
	<path class="st4" d="M272.9,143.8h-2.3"/>
	<rect x="221.3" y="100.8" class="st9" width="72.1" height="72"/>
	<path class="st4" d="M287.4,139.5h-2.3"/>
	<rect x="221.3" y="100.8" class="st9" width="72.1" height="72"/>
	<path class="st4" d="M229.7,161.1h-2.3"/>
	<rect x="221.3" y="100.8" class="st9" width="72.1" height="72"/>
	<path class="st4" d="M244.1,161.4h-2.3"/>
	<rect x="221.3" y="100.8" class="st9" width="72.1" height="72"/>
	<path class="st4" d="M258.5,161.2h-2.3"/>
	<rect x="221.3" y="100.8" class="st9" width="72.1" height="72"/>
	<path class="st4" d="M272.9,160.7h-2.3"/>
	<rect x="221.3" y="100.8" class="st9" width="72.1" height="72"/>
	<path class="st4" d="M287.4,160.7h-2.3"/>
	<rect x="221.3" y="100.8" class="st9" width="72.1" height="72"/>
	<path class="st5" d="M228.5,146.5l14.4-2l14.4-0.3l14.4-0.4l14.4-4.4"/>
	<rect x="221.3" y="100.8" class="st9" width="72.1" height="72"/>
	<path class="st5" d="M228.5,154.1v-18.4"/>
	<rect x="221.3" y="100.8" class="st9" width="72.1" height="72"/>
	<path class="st5" d="M242.9,151.2v-14"/>
	<rect x="221.3" y="100.8" class="st9" width="72.1" height="72"/>
	<path class="st5" d="M257.4,150.5v-16.4"/>
	<rect x="221.3" y="100.8" class="st9" width="72.1" height="72"/>
	<path class="st5" d="M271.8,150.1v-15.4"/>
	<rect x="221.3" y="100.8" class="st9" width="72.1" height="72"/>
	<path class="st5" d="M286.2,145.7v-14.5"/>
	<rect x="221.3" y="100.8" class="st9" width="72.1" height="72"/>
	<path class="st6" d="M229.7,135.8h-2.3"/>
	<rect x="221.3" y="100.8" class="st9" width="72.1" height="72"/>
	<path class="st6" d="M244.1,139.9h-2.3"/>
	<rect x="221.3" y="100.8" class="st9" width="72.1" height="72"/>
	<path class="st6" d="M258.5,142.6h-2.3"/>
	<rect x="221.3" y="100.8" class="st9" width="72.1" height="72"/>
	<path class="st6" d="M272.9,145.3h-2.3"/>
	<rect x="221.3" y="100.8" class="st9" width="72.1" height="72"/>
	<path class="st6" d="M287.4,153.1h-2.3"/>
	<rect x="221.3" y="100.8" class="st9" width="72.1" height="72"/>
	<path class="st7" d="M228.5,135.8l14.4,4.1l14.4,2.6l14.4,2.8l14.4,7.8"/>
	<rect x="221.3" y="100.8" class="st9" width="72.1" height="72"/>
	<path class="st7" d="M228.5,139v-7"/>
	<rect x="221.3" y="100.8" class="st9" width="72.1" height="72"/>
	<path class="st7" d="M242.9,151.2v-25"/>
	<rect x="221.3" y="100.8" class="st9" width="72.1" height="72"/>
	<path class="st7" d="M257.4,149v-15.2"/>
	<rect x="221.3" y="100.8" class="st9" width="72.1" height="72"/>
	<path class="st7" d="M271.8,156.4v-19.8"/>
	<rect x="221.3" y="100.8" class="st9" width="72.1" height="72"/>
	<path class="st7" d="M286.2,161.2v-17.3"/>
	<rect x="221.3" y="100.8" class="st9" width="72.1" height="72"/>
	<path class="st8" d="M228.5,161.1l14.4,0.3l14.4-0.2l14.4-0.6l14.4,0"/>
	<rect x="221.3" y="100.8" class="st9" width="72.1" height="72"/>
	<path class="st5" d="M228.5,161.6v-1.1"/>
	<rect x="221.3" y="100.8" class="st9" width="72.1" height="72"/>
	<path class="st5" d="M242.9,162.6V160"/>
	<rect x="221.3" y="100.8" class="st9" width="72.1" height="72"/>
	<path class="st5" d="M257.4,162.8v-2.6"/>
	<rect x="221.3" y="100.8" class="st9" width="72.1" height="72"/>
	<path class="st5" d="M271.8,162.2v-2.9"/>
	<rect x="221.3" y="100.8" class="st9" width="72.1" height="72"/>
	<path class="st5" d="M286.2,161.4v-1.3"/>
</g>
<g>
	<path class="st2" d="M215.8,172.8h-2.4"/>
</g>
<g>
	<path class="st2" d="M215.8,148.8h-2.4"/>
</g>
<g>
	<path class="st2" d="M215.8,124.8h-2.4"/>
</g>
<g>
	<path class="st2" d="M215.8,100.8h-2.4"/>
</g>
<path class="st3" d="M215.8,172.8v-72"/>
<text transform="matrix(1 0 0 1 255.0237 97.4117)" class="st0 st1">Li</text>
<g>
	<g>
		<path class="st2" d="M199.7,180.8v3.5"/>
	</g>
	<g id="text_1_1_">
		<text transform="matrix(1 0 0 1 138.6267 190.8883)" class="st0 st1">50</text>
	</g>
	<g id="text_2_1_">
		<text transform="matrix(1 0 0 1 153.0509 190.8884)" class="st0 st1">40</text>
	</g>
	<g id="text_3_1_">
		<text transform="matrix(1 0 0 1 167.4753 190.8884)" class="st0 st1">30</text>
	</g>
	<g id="text_4_1_">
		<text transform="matrix(1 0 0 1 181.8997 190.8884)" class="st0 st1">20</text>
	</g>
	<g id="text_5_1_">
		<text transform="matrix(1 0 0 1 196.3243 190.8883)" class="st0 st1">10</text>
	</g>
	<text transform="matrix(1 0 0 1 140.4665 199.4255)" class="st0 st1">Excluded stimulus size</text>
	<g>
		<path id="mcf04649b27_1_" class="st2" d="M142,180.8v3.5"/>
	</g>
	<g>
		<path class="st2" d="M156.4,180.8v3.5"/>
	</g>
	<g>
		<path class="st2" d="M170.8,180.8v3.5"/>
	</g>
	<g>
		<path class="st2" d="M185.2,180.8v3.5"/>
	</g>
	<path class="st3" d="M142,180.8h57.7"/>
</g>
<g>
	<g>
		<path class="st2" d="M286.2,180.8v3.5"/>
	</g>
	<g id="text_1_2_">
		<text transform="matrix(1 0 0 1 225.1732 190.8883)" class="st0 st1">50</text>
	</g>
	<g id="text_2_2_">
		<text transform="matrix(1 0 0 1 239.5974 190.8884)" class="st0 st1">40</text>
	</g>
	<g id="text_3_2_">
		<text transform="matrix(1 0 0 1 254.0219 190.8884)" class="st0 st1">30</text>
	</g>
	<g id="text_4_2_">
		<text transform="matrix(1 0 0 1 268.4462 190.8884)" class="st0 st1">20</text>
	</g>
	<g id="text_5_2_">
		<text transform="matrix(1 0 0 1 282.8708 190.8883)" class="st0 st1">10</text>
	</g>
	<text transform="matrix(1 0 0 1 227.013 199.4255)" class="st0 st1">Excluded stimulus size</text>
	<g>
		<path id="mcf04649b27_2_" class="st2" d="M228.5,180.8v3.5"/>
	</g>
	<g>
		<path class="st2" d="M242.9,180.8v3.5"/>
	</g>
	<g>
		<path class="st2" d="M257.4,180.8v3.5"/>
	</g>
	<g>
		<path class="st2" d="M271.8,180.8v3.5"/>
	</g>
	<path class="st3" d="M228.5,180.8h57.7"/>
</g>
</svg>
