<?xml version="1.0" encoding="utf-8" standalone="no"?>
<!DOCTYPE svg PUBLIC "-//W3C//DTD SVG 1.1//EN"
  "http://www.w3.org/Graphics/SVG/1.1/DTD/svg11.dtd">
<!-- Created with matplotlib (http://matplotlib.org/) -->
<svg height="432pt" version="1.1" viewBox="0 0 504 432" width="504pt" xmlns="http://www.w3.org/2000/svg" xmlns:xlink="http://www.w3.org/1999/xlink">
 <defs>
  <style type="text/css">
*{stroke-linecap:butt;stroke-linejoin:round;}
  </style>
 </defs>
 <g id="figure_1">
  <g id="patch_1">
   <path d="M 0 432 
L 504 432 
L 504 0 
L 0 0 
z
" style="fill:#ffffff;"/>
  </g>
  <g id="axes_1">
   <g id="patch_2">
    <path d="M 100.8 345.6 
L 403.2 345.6 
L 403.2 51.84 
L 100.8 51.84 
z
" style="fill:#ffffff;"/>
   </g>
   <g id="matplotlib.axis_1">
    <g id="xtick_1">
     <g id="line2d_1">
      <defs>
       <path d="M 0 0 
L 0 3.5 
" id="m79f1cc569d" style="stroke:#000000;stroke-width:0.8;"/>
      </defs>
      <g>
       <use style="stroke:#000000;stroke-width:0.8;" x="114.545455" xlink:href="#m79f1cc569d" y="349.6"/>
      </g>
     </g>
     <g id="text_1">
      <!-- 0 -->
      <defs>
       <path d="M 31.78125 66.40625 
Q 24.171875 66.40625 20.328125 58.90625 
Q 16.5 51.421875 16.5 36.375 
Q 16.5 21.390625 20.328125 13.890625 
Q 24.171875 6.390625 31.78125 6.390625 
Q 39.453125 6.390625 43.28125 13.890625 
Q 47.125 21.390625 47.125 36.375 
Q 47.125 51.421875 43.28125 58.90625 
Q 39.453125 66.40625 31.78125 66.40625 
z
M 31.78125 74.21875 
Q 44.046875 74.21875 50.515625 64.515625 
Q 56.984375 54.828125 56.984375 36.375 
Q 56.984375 17.96875 50.515625 8.265625 
Q 44.046875 -1.421875 31.78125 -1.421875 
Q 19.53125 -1.421875 13.0625 8.265625 
Q 6.59375 17.96875 6.59375 36.375 
Q 6.59375 54.828125 13.0625 64.515625 
Q 19.53125 74.21875 31.78125 74.21875 
z
" id="DejaVuSans-30"/>
      </defs>
      <g transform="translate(108.182955 371.796875)scale(0.2 -0.2)">
       <use xlink:href="#DejaVuSans-30"/>
      </g>
     </g>
    </g>
    <g id="xtick_2">
     <g id="line2d_2">
      <g>
       <use style="stroke:#000000;stroke-width:0.8;" x="158.88563" xlink:href="#m79f1cc569d" y="349.6"/>
      </g>
     </g>
     <g id="text_2">
      <!-- 10 -->
      <defs>
       <path d="M 12.40625 8.296875 
L 28.515625 8.296875 
L 28.515625 63.921875 
L 10.984375 60.40625 
L 10.984375 69.390625 
L 28.421875 72.90625 
L 38.28125 72.90625 
L 38.28125 8.296875 
L 54.390625 8.296875 
L 54.390625 0 
L 12.40625 0 
z
" id="DejaVuSans-31"/>
      </defs>
      <g transform="translate(146.16063 371.796875)scale(0.2 -0.2)">
       <use xlink:href="#DejaVuSans-31"/>
       <use x="63.623047" xlink:href="#DejaVuSans-30"/>
      </g>
     </g>
    </g>
    <g id="xtick_3">
     <g id="line2d_3">
      <g>
       <use style="stroke:#000000;stroke-width:0.8;" x="203.225806" xlink:href="#m79f1cc569d" y="349.6"/>
      </g>
     </g>
     <g id="text_3">
      <!-- 20 -->
      <defs>
       <path d="M 19.1875 8.296875 
L 53.609375 8.296875 
L 53.609375 0 
L 7.328125 0 
L 7.328125 8.296875 
Q 12.9375 14.109375 22.625 23.890625 
Q 32.328125 33.6875 34.8125 36.53125 
Q 39.546875 41.84375 41.421875 45.53125 
Q 43.3125 49.21875 43.3125 52.78125 
Q 43.3125 58.59375 39.234375 62.25 
Q 35.15625 65.921875 28.609375 65.921875 
Q 23.96875 65.921875 18.8125 64.3125 
Q 13.671875 62.703125 7.8125 59.421875 
L 7.8125 69.390625 
Q 13.765625 71.78125 18.9375 73 
Q 24.125 74.21875 28.421875 74.21875 
Q 39.75 74.21875 46.484375 68.546875 
Q 53.21875 62.890625 53.21875 53.421875 
Q 53.21875 48.921875 51.53125 44.890625 
Q 49.859375 40.875 45.40625 35.40625 
Q 44.1875 33.984375 37.640625 27.21875 
Q 31.109375 20.453125 19.1875 8.296875 
z
" id="DejaVuSans-32"/>
      </defs>
      <g transform="translate(190.500806 371.796875)scale(0.2 -0.2)">
       <use xlink:href="#DejaVuSans-32"/>
       <use x="63.623047" xlink:href="#DejaVuSans-30"/>
      </g>
     </g>
    </g>
    <g id="xtick_4">
     <g id="line2d_4">
      <g>
       <use style="stroke:#000000;stroke-width:0.8;" x="247.565982" xlink:href="#m79f1cc569d" y="349.6"/>
      </g>
     </g>
     <g id="text_4">
      <!-- 30 -->
      <defs>
       <path d="M 40.578125 39.3125 
Q 47.65625 37.796875 51.625 33 
Q 55.609375 28.21875 55.609375 21.1875 
Q 55.609375 10.40625 48.1875 4.484375 
Q 40.765625 -1.421875 27.09375 -1.421875 
Q 22.515625 -1.421875 17.65625 -0.515625 
Q 12.796875 0.390625 7.625 2.203125 
L 7.625 11.71875 
Q 11.71875 9.328125 16.59375 8.109375 
Q 21.484375 6.890625 26.8125 6.890625 
Q 36.078125 6.890625 40.9375 10.546875 
Q 45.796875 14.203125 45.796875 21.1875 
Q 45.796875 27.640625 41.28125 31.265625 
Q 36.765625 34.90625 28.71875 34.90625 
L 20.21875 34.90625 
L 20.21875 43.015625 
L 29.109375 43.015625 
Q 36.375 43.015625 40.234375 45.921875 
Q 44.09375 48.828125 44.09375 54.296875 
Q 44.09375 59.90625 40.109375 62.90625 
Q 36.140625 65.921875 28.71875 65.921875 
Q 24.65625 65.921875 20.015625 65.03125 
Q 15.375 64.15625 9.8125 62.3125 
L 9.8125 71.09375 
Q 15.4375 72.65625 20.34375 73.4375 
Q 25.25 74.21875 29.59375 74.21875 
Q 40.828125 74.21875 47.359375 69.109375 
Q 53.90625 64.015625 53.90625 55.328125 
Q 53.90625 49.265625 50.4375 45.09375 
Q 46.96875 40.921875 40.578125 39.3125 
z
" id="DejaVuSans-33"/>
      </defs>
      <g transform="translate(234.840982 371.796875)scale(0.2 -0.2)">
       <use xlink:href="#DejaVuSans-33"/>
       <use x="63.623047" xlink:href="#DejaVuSans-30"/>
      </g>
     </g>
    </g>
    <g id="xtick_5">
     <g id="line2d_5">
      <g>
       <use style="stroke:#000000;stroke-width:0.8;" x="291.906158" xlink:href="#m79f1cc569d" y="349.6"/>
      </g>
     </g>
     <g id="text_5">
      <!-- 40 -->
      <defs>
       <path d="M 37.796875 64.3125 
L 12.890625 25.390625 
L 37.796875 25.390625 
z
M 35.203125 72.90625 
L 47.609375 72.90625 
L 47.609375 25.390625 
L 58.015625 25.390625 
L 58.015625 17.1875 
L 47.609375 17.1875 
L 47.609375 0 
L 37.796875 0 
L 37.796875 17.1875 
L 4.890625 17.1875 
L 4.890625 26.703125 
z
" id="DejaVuSans-34"/>
      </defs>
      <g transform="translate(279.181158 371.796875)scale(0.2 -0.2)">
       <use xlink:href="#DejaVuSans-34"/>
       <use x="63.623047" xlink:href="#DejaVuSans-30"/>
      </g>
     </g>
    </g>
    <g id="xtick_6">
     <g id="line2d_6">
      <g>
       <use style="stroke:#000000;stroke-width:0.8;" x="336.246334" xlink:href="#m79f1cc569d" y="349.6"/>
      </g>
     </g>
     <g id="text_6">
      <!-- 50 -->
      <defs>
       <path d="M 10.796875 72.90625 
L 49.515625 72.90625 
L 49.515625 64.59375 
L 19.828125 64.59375 
L 19.828125 46.734375 
Q 21.96875 47.46875 24.109375 47.828125 
Q 26.265625 48.1875 28.421875 48.1875 
Q 40.625 48.1875 47.75 41.5 
Q 54.890625 34.8125 54.890625 23.390625 
Q 54.890625 11.625 47.5625 5.09375 
Q 40.234375 -1.421875 26.90625 -1.421875 
Q 22.3125 -1.421875 17.546875 -0.640625 
Q 12.796875 0.140625 7.71875 1.703125 
L 7.71875 11.625 
Q 12.109375 9.234375 16.796875 8.0625 
Q 21.484375 6.890625 26.703125 6.890625 
Q 35.15625 6.890625 40.078125 11.328125 
Q 45.015625 15.765625 45.015625 23.390625 
Q 45.015625 31 40.078125 35.4375 
Q 35.15625 39.890625 26.703125 39.890625 
Q 22.75 39.890625 18.8125 39.015625 
Q 14.890625 38.140625 10.796875 36.28125 
z
" id="DejaVuSans-35"/>
      </defs>
      <g transform="translate(323.521334 371.796875)scale(0.2 -0.2)">
       <use xlink:href="#DejaVuSans-35"/>
       <use x="63.623047" xlink:href="#DejaVuSans-30"/>
      </g>
     </g>
    </g>
    <g id="xtick_7">
     <g id="line2d_7">
      <g>
       <use style="stroke:#000000;stroke-width:0.8;" x="380.58651" xlink:href="#m79f1cc569d" y="349.6"/>
      </g>
     </g>
     <g id="text_7">
      <!-- 60 -->
      <defs>
       <path d="M 33.015625 40.375 
Q 26.375 40.375 22.484375 35.828125 
Q 18.609375 31.296875 18.609375 23.390625 
Q 18.609375 15.53125 22.484375 10.953125 
Q 26.375 6.390625 33.015625 6.390625 
Q 39.65625 6.390625 43.53125 10.953125 
Q 47.40625 15.53125 47.40625 23.390625 
Q 47.40625 31.296875 43.53125 35.828125 
Q 39.65625 40.375 33.015625 40.375 
z
M 52.59375 71.296875 
L 52.59375 62.3125 
Q 48.875 64.0625 45.09375 64.984375 
Q 41.3125 65.921875 37.59375 65.921875 
Q 27.828125 65.921875 22.671875 59.328125 
Q 17.53125 52.734375 16.796875 39.40625 
Q 19.671875 43.65625 24.015625 45.921875 
Q 28.375 48.1875 33.59375 48.1875 
Q 44.578125 48.1875 50.953125 41.515625 
Q 57.328125 34.859375 57.328125 23.390625 
Q 57.328125 12.15625 50.6875 5.359375 
Q 44.046875 -1.421875 33.015625 -1.421875 
Q 20.359375 -1.421875 13.671875 8.265625 
Q 6.984375 17.96875 6.984375 36.375 
Q 6.984375 53.65625 15.1875 63.9375 
Q 23.390625 74.21875 37.203125 74.21875 
Q 40.921875 74.21875 44.703125 73.484375 
Q 48.484375 72.75 52.59375 71.296875 
z
" id="DejaVuSans-36"/>
      </defs>
      <g transform="translate(367.86151 371.796875)scale(0.2 -0.2)">
       <use xlink:href="#DejaVuSans-36"/>
       <use x="63.623047" xlink:href="#DejaVuSans-30"/>
      </g>
     </g>
    </g>
    <g id="text_8">
     <!-- session -->
     <defs>
      <path d="M 44.28125 53.078125 
L 44.28125 44.578125 
Q 40.484375 46.53125 36.375 47.5 
Q 32.28125 48.484375 27.875 48.484375 
Q 21.1875 48.484375 17.84375 46.4375 
Q 14.5 44.390625 14.5 40.28125 
Q 14.5 37.15625 16.890625 35.375 
Q 19.28125 33.59375 26.515625 31.984375 
L 29.59375 31.296875 
Q 39.15625 29.25 43.1875 25.515625 
Q 47.21875 21.78125 47.21875 15.09375 
Q 47.21875 7.46875 41.1875 3.015625 
Q 35.15625 -1.421875 24.609375 -1.421875 
Q 20.21875 -1.421875 15.453125 -0.5625 
Q 10.6875 0.296875 5.421875 2 
L 5.421875 11.28125 
Q 10.40625 8.6875 15.234375 7.390625 
Q 20.0625 6.109375 24.8125 6.109375 
Q 31.15625 6.109375 34.5625 8.28125 
Q 37.984375 10.453125 37.984375 14.40625 
Q 37.984375 18.0625 35.515625 20.015625 
Q 33.0625 21.96875 24.703125 23.78125 
L 21.578125 24.515625 
Q 13.234375 26.265625 9.515625 29.90625 
Q 5.8125 33.546875 5.8125 39.890625 
Q 5.8125 47.609375 11.28125 51.796875 
Q 16.75 56 26.8125 56 
Q 31.78125 56 36.171875 55.265625 
Q 40.578125 54.546875 44.28125 53.078125 
z
" id="DejaVuSans-73"/>
      <path d="M 56.203125 29.59375 
L 56.203125 25.203125 
L 14.890625 25.203125 
Q 15.484375 15.921875 20.484375 11.0625 
Q 25.484375 6.203125 34.421875 6.203125 
Q 39.59375 6.203125 44.453125 7.46875 
Q 49.3125 8.734375 54.109375 11.28125 
L 54.109375 2.78125 
Q 49.265625 0.734375 44.1875 -0.34375 
Q 39.109375 -1.421875 33.890625 -1.421875 
Q 20.796875 -1.421875 13.15625 6.1875 
Q 5.515625 13.8125 5.515625 26.8125 
Q 5.515625 40.234375 12.765625 48.109375 
Q 20.015625 56 32.328125 56 
Q 43.359375 56 49.78125 48.890625 
Q 56.203125 41.796875 56.203125 29.59375 
z
M 47.21875 32.234375 
Q 47.125 39.59375 43.09375 43.984375 
Q 39.0625 48.390625 32.421875 48.390625 
Q 24.90625 48.390625 20.390625 44.140625 
Q 15.875 39.890625 15.1875 32.171875 
z
" id="DejaVuSans-65"/>
      <path d="M 9.421875 54.6875 
L 18.40625 54.6875 
L 18.40625 0 
L 9.421875 0 
z
M 9.421875 75.984375 
L 18.40625 75.984375 
L 18.40625 64.59375 
L 9.421875 64.59375 
z
" id="DejaVuSans-69"/>
      <path d="M 30.609375 48.390625 
Q 23.390625 48.390625 19.1875 42.75 
Q 14.984375 37.109375 14.984375 27.296875 
Q 14.984375 17.484375 19.15625 11.84375 
Q 23.34375 6.203125 30.609375 6.203125 
Q 37.796875 6.203125 41.984375 11.859375 
Q 46.1875 17.53125 46.1875 27.296875 
Q 46.1875 37.015625 41.984375 42.703125 
Q 37.796875 48.390625 30.609375 48.390625 
z
M 30.609375 56 
Q 42.328125 56 49.015625 48.375 
Q 55.71875 40.765625 55.71875 27.296875 
Q 55.71875 13.875 49.015625 6.21875 
Q 42.328125 -1.421875 30.609375 -1.421875 
Q 18.84375 -1.421875 12.171875 6.21875 
Q 5.515625 13.875 5.515625 27.296875 
Q 5.515625 40.765625 12.171875 48.375 
Q 18.84375 56 30.609375 56 
z
" id="DejaVuSans-6f"/>
      <path d="M 54.890625 33.015625 
L 54.890625 0 
L 45.90625 0 
L 45.90625 32.71875 
Q 45.90625 40.484375 42.875 44.328125 
Q 39.84375 48.1875 33.796875 48.1875 
Q 26.515625 48.1875 22.3125 43.546875 
Q 18.109375 38.921875 18.109375 30.90625 
L 18.109375 0 
L 9.078125 0 
L 9.078125 54.6875 
L 18.109375 54.6875 
L 18.109375 46.1875 
Q 21.34375 51.125 25.703125 53.5625 
Q 30.078125 56 35.796875 56 
Q 45.21875 56 50.046875 50.171875 
Q 54.890625 44.34375 54.890625 33.015625 
z
" id="DejaVuSans-6e"/>
     </defs>
     <g transform="translate(207.58125 398.1925)scale(0.24 -0.24)">
      <use xlink:href="#DejaVuSans-73"/>
      <use x="52.099609" xlink:href="#DejaVuSans-65"/>
      <use x="113.623047" xlink:href="#DejaVuSans-73"/>
      <use x="165.722656" xlink:href="#DejaVuSans-73"/>
      <use x="217.822266" xlink:href="#DejaVuSans-69"/>
      <use x="245.605469" xlink:href="#DejaVuSans-6f"/>
      <use x="306.787109" xlink:href="#DejaVuSans-6e"/>
     </g>
    </g>
   </g>
   <g id="matplotlib.axis_2">
    <g id="ytick_1">
     <g id="line2d_8">
      <defs>
       <path d="M 0 0 
L -3.5 0 
" id="mc7a1316aad" style="stroke:#000000;stroke-width:0.8;"/>
      </defs>
      <g>
       <use style="stroke:#000000;stroke-width:0.8;" x="96.8" xlink:href="#mc7a1316aad" y="319.135135"/>
      </g>
     </g>
     <g id="text_9">
      <!-- 0.0 -->
      <defs>
       <path d="M 10.6875 12.40625 
L 21 12.40625 
L 21 0 
L 10.6875 0 
z
" id="DejaVuSans-2e"/>
      </defs>
      <g transform="translate(57.99375 326.733573)scale(0.2 -0.2)">
       <use xlink:href="#DejaVuSans-30"/>
       <use x="63.623047" xlink:href="#DejaVuSans-2e"/>
       <use x="95.410156" xlink:href="#DejaVuSans-30"/>
      </g>
     </g>
    </g>
    <g id="ytick_2">
     <g id="line2d_9">
      <g>
       <use style="stroke:#000000;stroke-width:0.8;" x="96.8" xlink:href="#mc7a1316aad" y="266.205405"/>
      </g>
     </g>
     <g id="text_10">
      <!-- 0.2 -->
      <g transform="translate(57.99375 273.803843)scale(0.2 -0.2)">
       <use xlink:href="#DejaVuSans-30"/>
       <use x="63.623047" xlink:href="#DejaVuSans-2e"/>
       <use x="95.410156" xlink:href="#DejaVuSans-32"/>
      </g>
     </g>
    </g>
    <g id="ytick_3">
     <g id="line2d_10">
      <g>
       <use style="stroke:#000000;stroke-width:0.8;" x="96.8" xlink:href="#mc7a1316aad" y="213.275676"/>
      </g>
     </g>
     <g id="text_11">
      <!-- 0.4 -->
      <g transform="translate(57.99375 220.874113)scale(0.2 -0.2)">
       <use xlink:href="#DejaVuSans-30"/>
       <use x="63.623047" xlink:href="#DejaVuSans-2e"/>
       <use x="95.410156" xlink:href="#DejaVuSans-34"/>
      </g>
     </g>
    </g>
    <g id="ytick_4">
     <g id="line2d_11">
      <g>
       <use style="stroke:#000000;stroke-width:0.8;" x="96.8" xlink:href="#mc7a1316aad" y="160.345946"/>
      </g>
     </g>
     <g id="text_12">
      <!-- 0.6 -->
      <g transform="translate(57.99375 167.944383)scale(0.2 -0.2)">
       <use xlink:href="#DejaVuSans-30"/>
       <use x="63.623047" xlink:href="#DejaVuSans-2e"/>
       <use x="95.410156" xlink:href="#DejaVuSans-36"/>
      </g>
     </g>
    </g>
    <g id="ytick_5">
     <g id="line2d_12">
      <g>
       <use style="stroke:#000000;stroke-width:0.8;" x="96.8" xlink:href="#mc7a1316aad" y="107.416216"/>
      </g>
     </g>
     <g id="text_13">
      <!-- 0.8 -->
      <defs>
       <path d="M 31.78125 34.625 
Q 24.75 34.625 20.71875 30.859375 
Q 16.703125 27.09375 16.703125 20.515625 
Q 16.703125 13.921875 20.71875 10.15625 
Q 24.75 6.390625 31.78125 6.390625 
Q 38.8125 6.390625 42.859375 10.171875 
Q 46.921875 13.96875 46.921875 20.515625 
Q 46.921875 27.09375 42.890625 30.859375 
Q 38.875 34.625 31.78125 34.625 
z
M 21.921875 38.8125 
Q 15.578125 40.375 12.03125 44.71875 
Q 8.5 49.078125 8.5 55.328125 
Q 8.5 64.0625 14.71875 69.140625 
Q 20.953125 74.21875 31.78125 74.21875 
Q 42.671875 74.21875 48.875 69.140625 
Q 55.078125 64.0625 55.078125 55.328125 
Q 55.078125 49.078125 51.53125 44.71875 
Q 48 40.375 41.703125 38.8125 
Q 48.828125 37.15625 52.796875 32.3125 
Q 56.78125 27.484375 56.78125 20.515625 
Q 56.78125 9.90625 50.3125 4.234375 
Q 43.84375 -1.421875 31.78125 -1.421875 
Q 19.734375 -1.421875 13.25 4.234375 
Q 6.78125 9.90625 6.78125 20.515625 
Q 6.78125 27.484375 10.78125 32.3125 
Q 14.796875 37.15625 21.921875 38.8125 
z
M 18.3125 54.390625 
Q 18.3125 48.734375 21.84375 45.5625 
Q 25.390625 42.390625 31.78125 42.390625 
Q 38.140625 42.390625 41.71875 45.5625 
Q 45.3125 48.734375 45.3125 54.390625 
Q 45.3125 60.0625 41.71875 63.234375 
Q 38.140625 66.40625 31.78125 66.40625 
Q 25.390625 66.40625 21.84375 63.234375 
Q 18.3125 60.0625 18.3125 54.390625 
z
" id="DejaVuSans-38"/>
      </defs>
      <g transform="translate(57.99375 115.014654)scale(0.2 -0.2)">
       <use xlink:href="#DejaVuSans-30"/>
       <use x="63.623047" xlink:href="#DejaVuSans-2e"/>
       <use x="95.410156" xlink:href="#DejaVuSans-38"/>
      </g>
     </g>
    </g>
    <g id="ytick_6">
     <g id="line2d_13">
      <g>
       <use style="stroke:#000000;stroke-width:0.8;" x="96.8" xlink:href="#mc7a1316aad" y="54.486486"/>
      </g>
     </g>
     <g id="text_14">
      <!-- 1.0 -->
      <g transform="translate(57.99375 62.084924)scale(0.2 -0.2)">
       <use xlink:href="#DejaVuSans-31"/>
       <use x="63.623047" xlink:href="#DejaVuSans-2e"/>
       <use x="95.410156" xlink:href="#DejaVuSans-30"/>
      </g>
     </g>
    </g>
    <g id="text_15">
     <!-- accuracy -->
     <defs>
      <path d="M 34.28125 27.484375 
Q 23.390625 27.484375 19.1875 25 
Q 14.984375 22.515625 14.984375 16.5 
Q 14.984375 11.71875 18.140625 8.90625 
Q 21.296875 6.109375 26.703125 6.109375 
Q 34.1875 6.109375 38.703125 11.40625 
Q 43.21875 16.703125 43.21875 25.484375 
L 43.21875 27.484375 
z
M 52.203125 31.203125 
L 52.203125 0 
L 43.21875 0 
L 43.21875 8.296875 
Q 40.140625 3.328125 35.546875 0.953125 
Q 30.953125 -1.421875 24.3125 -1.421875 
Q 15.921875 -1.421875 10.953125 3.296875 
Q 6 8.015625 6 15.921875 
Q 6 25.140625 12.171875 29.828125 
Q 18.359375 34.515625 30.609375 34.515625 
L 43.21875 34.515625 
L 43.21875 35.40625 
Q 43.21875 41.609375 39.140625 45 
Q 35.0625 48.390625 27.6875 48.390625 
Q 23 48.390625 18.546875 47.265625 
Q 14.109375 46.140625 10.015625 43.890625 
L 10.015625 52.203125 
Q 14.9375 54.109375 19.578125 55.046875 
Q 24.21875 56 28.609375 56 
Q 40.484375 56 46.34375 49.84375 
Q 52.203125 43.703125 52.203125 31.203125 
z
" id="DejaVuSans-61"/>
      <path d="M 48.78125 52.59375 
L 48.78125 44.1875 
Q 44.96875 46.296875 41.140625 47.34375 
Q 37.3125 48.390625 33.40625 48.390625 
Q 24.65625 48.390625 19.8125 42.84375 
Q 14.984375 37.3125 14.984375 27.296875 
Q 14.984375 17.28125 19.8125 11.734375 
Q 24.65625 6.203125 33.40625 6.203125 
Q 37.3125 6.203125 41.140625 7.25 
Q 44.96875 8.296875 48.78125 10.40625 
L 48.78125 2.09375 
Q 45.015625 0.34375 40.984375 -0.53125 
Q 36.96875 -1.421875 32.421875 -1.421875 
Q 20.0625 -1.421875 12.78125 6.34375 
Q 5.515625 14.109375 5.515625 27.296875 
Q 5.515625 40.671875 12.859375 48.328125 
Q 20.21875 56 33.015625 56 
Q 37.15625 56 41.109375 55.140625 
Q 45.0625 54.296875 48.78125 52.59375 
z
" id="DejaVuSans-63"/>
      <path d="M 8.5 21.578125 
L 8.5 54.6875 
L 17.484375 54.6875 
L 17.484375 21.921875 
Q 17.484375 14.15625 20.5 10.265625 
Q 23.53125 6.390625 29.59375 6.390625 
Q 36.859375 6.390625 41.078125 11.03125 
Q 45.3125 15.671875 45.3125 23.6875 
L 45.3125 54.6875 
L 54.296875 54.6875 
L 54.296875 0 
L 45.3125 0 
L 45.3125 8.40625 
Q 42.046875 3.421875 37.71875 1 
Q 33.40625 -1.421875 27.6875 -1.421875 
Q 18.265625 -1.421875 13.375 4.4375 
Q 8.5 10.296875 8.5 21.578125 
z
M 31.109375 56 
z
" id="DejaVuSans-75"/>
      <path d="M 41.109375 46.296875 
Q 39.59375 47.171875 37.8125 47.578125 
Q 36.03125 48 33.890625 48 
Q 26.265625 48 22.1875 43.046875 
Q 18.109375 38.09375 18.109375 28.8125 
L 18.109375 0 
L 9.078125 0 
L 9.078125 54.6875 
L 18.109375 54.6875 
L 18.109375 46.1875 
Q 20.953125 51.171875 25.484375 53.578125 
Q 30.03125 56 36.53125 56 
Q 37.453125 56 38.578125 55.875 
Q 39.703125 55.765625 41.0625 55.515625 
z
" id="DejaVuSans-72"/>
      <path d="M 32.171875 -5.078125 
Q 28.375 -14.84375 24.75 -17.8125 
Q 21.140625 -20.796875 15.09375 -20.796875 
L 7.90625 -20.796875 
L 7.90625 -13.28125 
L 13.1875 -13.28125 
Q 16.890625 -13.28125 18.9375 -11.515625 
Q 21 -9.765625 23.484375 -3.21875 
L 25.09375 0.875 
L 2.984375 54.6875 
L 12.5 54.6875 
L 29.59375 11.921875 
L 46.6875 54.6875 
L 56.203125 54.6875 
z
" id="DejaVuSans-79"/>
     </defs>
     <g transform="translate(49.0025 252.8625)rotate(-90)scale(0.24 -0.24)">
      <use xlink:href="#DejaVuSans-61"/>
      <use x="61.279297" xlink:href="#DejaVuSans-63"/>
      <use x="116.259766" xlink:href="#DejaVuSans-63"/>
      <use x="171.240234" xlink:href="#DejaVuSans-75"/>
      <use x="234.619141" xlink:href="#DejaVuSans-72"/>
      <use x="275.732422" xlink:href="#DejaVuSans-61"/>
      <use x="337.011719" xlink:href="#DejaVuSans-63"/>
      <use x="391.992188" xlink:href="#DejaVuSans-79"/>
     </g>
    </g>
   </g>
   <g id="line2d_14">
    <path clip-path="url(#pdaf000724a)" d="M 114.545455 169.471761 
L 118.979472 187.169413 
L 123.41349 200.876782 
L 127.847507 221.312552 
L 132.281525 198.734541 
L 136.715543 154.265653 
L 141.14956 114.473514 
L 145.583578 147.367983 
L 150.017595 133.384088 
L 154.451613 113.297297 
L 158.88563 163.459459 
L 163.319648 137.189189 
L 167.753666 108.330549 
L 172.187683 123.188695 
L 176.621701 124.753001 
L 181.055718 132.155112 
L 185.489736 121.316953 
L 189.923754 115.027027 
L 194.357771 111.510228 
L 198.791789 103.896592 
L 203.225806 109.277027 
L 207.659824 105.473841 
L 212.093842 88.805014 
L 216.527859 100.935025 
L 220.961877 117.971567 
L 225.395894 100.165568 
L 229.829912 100.623781 
L 234.26393 103.256427 
L 238.697947 119.921592 
L 243.131965 101.95418 
L 247.565982 84.22229 
L 252 88.051681 
L 256.434018 86.867027 
L 260.868035 90.709346 
L 265.302053 79.825187 
L 269.73607 80.118317 
L 274.170088 73.760618 
L 278.604106 83.007519 
L 283.038123 73.087989 
L 287.472141 71.027027 
L 291.906158 98.858715 
L 296.340176 94.620018 
L 300.774194 106.175676 
L 305.208211 86.704583 
L 309.642229 89.71835 
L 314.076246 91.160644 
L 318.510264 85.419445 
L 322.944282 91.713278 
L 327.378299 84.286066 
L 331.812317 80.003574 
L 336.246334 79.05599 
L 340.680352 86.371866 
L 345.11437 79.049684 
L 349.548387 109.700953 
L 353.982405 93.612283 
L 358.416422 104.058137 
L 362.85044 103.316875 
L 367.284457 84.409072 
L 371.718475 79.594179 
L 376.152493 86.380042 
L 380.58651 95.475839 
L 385.020528 120.329025 
L 389.454545 77.301025 
" style="fill:none;stroke:#0173b2;stroke-linecap:square;stroke-opacity:0.7;"/>
    <defs>
     <path d="M 0 2.5 
C 0.663008 2.5 1.29895 2.236584 1.767767 1.767767 
C 2.236584 1.29895 2.5 0.663008 2.5 0 
C 2.5 -0.663008 2.236584 -1.29895 1.767767 -1.767767 
C 1.29895 -2.236584 0.663008 -2.5 0 -2.5 
C -0.663008 -2.5 -1.29895 -2.236584 -1.767767 -1.767767 
C -2.236584 -1.29895 -2.5 -0.663008 -2.5 0 
C -2.5 0.663008 -2.236584 1.29895 -1.767767 1.767767 
C -1.29895 2.236584 -0.663008 2.5 0 2.5 
z
" id="m6396a98492" style="stroke:#0173b2;stroke-opacity:0.7;"/>
    </defs>
    <g clip-path="url(#pdaf000724a)">
     <use style="fill:#0173b2;fill-opacity:0.7;stroke:#0173b2;stroke-opacity:0.7;" x="114.545455" xlink:href="#m6396a98492" y="169.471761"/>
     <use style="fill:#0173b2;fill-opacity:0.7;stroke:#0173b2;stroke-opacity:0.7;" x="118.979472" xlink:href="#m6396a98492" y="187.169413"/>
     <use style="fill:#0173b2;fill-opacity:0.7;stroke:#0173b2;stroke-opacity:0.7;" x="123.41349" xlink:href="#m6396a98492" y="200.876782"/>
     <use style="fill:#0173b2;fill-opacity:0.7;stroke:#0173b2;stroke-opacity:0.7;" x="127.847507" xlink:href="#m6396a98492" y="221.312552"/>
     <use style="fill:#0173b2;fill-opacity:0.7;stroke:#0173b2;stroke-opacity:0.7;" x="132.281525" xlink:href="#m6396a98492" y="198.734541"/>
     <use style="fill:#0173b2;fill-opacity:0.7;stroke:#0173b2;stroke-opacity:0.7;" x="136.715543" xlink:href="#m6396a98492" y="154.265653"/>
     <use style="fill:#0173b2;fill-opacity:0.7;stroke:#0173b2;stroke-opacity:0.7;" x="141.14956" xlink:href="#m6396a98492" y="114.473514"/>
     <use style="fill:#0173b2;fill-opacity:0.7;stroke:#0173b2;stroke-opacity:0.7;" x="145.583578" xlink:href="#m6396a98492" y="147.367983"/>
     <use style="fill:#0173b2;fill-opacity:0.7;stroke:#0173b2;stroke-opacity:0.7;" x="150.017595" xlink:href="#m6396a98492" y="133.384088"/>
     <use style="fill:#0173b2;fill-opacity:0.7;stroke:#0173b2;stroke-opacity:0.7;" x="154.451613" xlink:href="#m6396a98492" y="113.297297"/>
     <use style="fill:#0173b2;fill-opacity:0.7;stroke:#0173b2;stroke-opacity:0.7;" x="158.88563" xlink:href="#m6396a98492" y="163.459459"/>
     <use style="fill:#0173b2;fill-opacity:0.7;stroke:#0173b2;stroke-opacity:0.7;" x="163.319648" xlink:href="#m6396a98492" y="137.189189"/>
     <use style="fill:#0173b2;fill-opacity:0.7;stroke:#0173b2;stroke-opacity:0.7;" x="167.753666" xlink:href="#m6396a98492" y="108.330549"/>
     <use style="fill:#0173b2;fill-opacity:0.7;stroke:#0173b2;stroke-opacity:0.7;" x="172.187683" xlink:href="#m6396a98492" y="123.188695"/>
     <use style="fill:#0173b2;fill-opacity:0.7;stroke:#0173b2;stroke-opacity:0.7;" x="176.621701" xlink:href="#m6396a98492" y="124.753001"/>
     <use style="fill:#0173b2;fill-opacity:0.7;stroke:#0173b2;stroke-opacity:0.7;" x="181.055718" xlink:href="#m6396a98492" y="132.155112"/>
     <use style="fill:#0173b2;fill-opacity:0.7;stroke:#0173b2;stroke-opacity:0.7;" x="185.489736" xlink:href="#m6396a98492" y="121.316953"/>
     <use style="fill:#0173b2;fill-opacity:0.7;stroke:#0173b2;stroke-opacity:0.7;" x="189.923754" xlink:href="#m6396a98492" y="115.027027"/>
     <use style="fill:#0173b2;fill-opacity:0.7;stroke:#0173b2;stroke-opacity:0.7;" x="194.357771" xlink:href="#m6396a98492" y="111.510228"/>
     <use style="fill:#0173b2;fill-opacity:0.7;stroke:#0173b2;stroke-opacity:0.7;" x="198.791789" xlink:href="#m6396a98492" y="103.896592"/>
     <use style="fill:#0173b2;fill-opacity:0.7;stroke:#0173b2;stroke-opacity:0.7;" x="203.225806" xlink:href="#m6396a98492" y="109.277027"/>
     <use style="fill:#0173b2;fill-opacity:0.7;stroke:#0173b2;stroke-opacity:0.7;" x="207.659824" xlink:href="#m6396a98492" y="105.473841"/>
     <use style="fill:#0173b2;fill-opacity:0.7;stroke:#0173b2;stroke-opacity:0.7;" x="212.093842" xlink:href="#m6396a98492" y="88.805014"/>
     <use style="fill:#0173b2;fill-opacity:0.7;stroke:#0173b2;stroke-opacity:0.7;" x="216.527859" xlink:href="#m6396a98492" y="100.935025"/>
     <use style="fill:#0173b2;fill-opacity:0.7;stroke:#0173b2;stroke-opacity:0.7;" x="220.961877" xlink:href="#m6396a98492" y="117.971567"/>
     <use style="fill:#0173b2;fill-opacity:0.7;stroke:#0173b2;stroke-opacity:0.7;" x="225.395894" xlink:href="#m6396a98492" y="100.165568"/>
     <use style="fill:#0173b2;fill-opacity:0.7;stroke:#0173b2;stroke-opacity:0.7;" x="229.829912" xlink:href="#m6396a98492" y="100.623781"/>
     <use style="fill:#0173b2;fill-opacity:0.7;stroke:#0173b2;stroke-opacity:0.7;" x="234.26393" xlink:href="#m6396a98492" y="103.256427"/>
     <use style="fill:#0173b2;fill-opacity:0.7;stroke:#0173b2;stroke-opacity:0.7;" x="238.697947" xlink:href="#m6396a98492" y="119.921592"/>
     <use style="fill:#0173b2;fill-opacity:0.7;stroke:#0173b2;stroke-opacity:0.7;" x="243.131965" xlink:href="#m6396a98492" y="101.95418"/>
     <use style="fill:#0173b2;fill-opacity:0.7;stroke:#0173b2;stroke-opacity:0.7;" x="247.565982" xlink:href="#m6396a98492" y="84.22229"/>
     <use style="fill:#0173b2;fill-opacity:0.7;stroke:#0173b2;stroke-opacity:0.7;" x="252" xlink:href="#m6396a98492" y="88.051681"/>
     <use style="fill:#0173b2;fill-opacity:0.7;stroke:#0173b2;stroke-opacity:0.7;" x="256.434018" xlink:href="#m6396a98492" y="86.867027"/>
     <use style="fill:#0173b2;fill-opacity:0.7;stroke:#0173b2;stroke-opacity:0.7;" x="260.868035" xlink:href="#m6396a98492" y="90.709346"/>
     <use style="fill:#0173b2;fill-opacity:0.7;stroke:#0173b2;stroke-opacity:0.7;" x="265.302053" xlink:href="#m6396a98492" y="79.825187"/>
     <use style="fill:#0173b2;fill-opacity:0.7;stroke:#0173b2;stroke-opacity:0.7;" x="269.73607" xlink:href="#m6396a98492" y="80.118317"/>
     <use style="fill:#0173b2;fill-opacity:0.7;stroke:#0173b2;stroke-opacity:0.7;" x="274.170088" xlink:href="#m6396a98492" y="73.760618"/>
     <use style="fill:#0173b2;fill-opacity:0.7;stroke:#0173b2;stroke-opacity:0.7;" x="278.604106" xlink:href="#m6396a98492" y="83.007519"/>
     <use style="fill:#0173b2;fill-opacity:0.7;stroke:#0173b2;stroke-opacity:0.7;" x="283.038123" xlink:href="#m6396a98492" y="73.087989"/>
     <use style="fill:#0173b2;fill-opacity:0.7;stroke:#0173b2;stroke-opacity:0.7;" x="287.472141" xlink:href="#m6396a98492" y="71.027027"/>
     <use style="fill:#0173b2;fill-opacity:0.7;stroke:#0173b2;stroke-opacity:0.7;" x="291.906158" xlink:href="#m6396a98492" y="98.858715"/>
     <use style="fill:#0173b2;fill-opacity:0.7;stroke:#0173b2;stroke-opacity:0.7;" x="296.340176" xlink:href="#m6396a98492" y="94.620018"/>
     <use style="fill:#0173b2;fill-opacity:0.7;stroke:#0173b2;stroke-opacity:0.7;" x="300.774194" xlink:href="#m6396a98492" y="106.175676"/>
     <use style="fill:#0173b2;fill-opacity:0.7;stroke:#0173b2;stroke-opacity:0.7;" x="305.208211" xlink:href="#m6396a98492" y="86.704583"/>
     <use style="fill:#0173b2;fill-opacity:0.7;stroke:#0173b2;stroke-opacity:0.7;" x="309.642229" xlink:href="#m6396a98492" y="89.71835"/>
     <use style="fill:#0173b2;fill-opacity:0.7;stroke:#0173b2;stroke-opacity:0.7;" x="314.076246" xlink:href="#m6396a98492" y="91.160644"/>
     <use style="fill:#0173b2;fill-opacity:0.7;stroke:#0173b2;stroke-opacity:0.7;" x="318.510264" xlink:href="#m6396a98492" y="85.419445"/>
     <use style="fill:#0173b2;fill-opacity:0.7;stroke:#0173b2;stroke-opacity:0.7;" x="322.944282" xlink:href="#m6396a98492" y="91.713278"/>
     <use style="fill:#0173b2;fill-opacity:0.7;stroke:#0173b2;stroke-opacity:0.7;" x="327.378299" xlink:href="#m6396a98492" y="84.286066"/>
     <use style="fill:#0173b2;fill-opacity:0.7;stroke:#0173b2;stroke-opacity:0.7;" x="331.812317" xlink:href="#m6396a98492" y="80.003574"/>
     <use style="fill:#0173b2;fill-opacity:0.7;stroke:#0173b2;stroke-opacity:0.7;" x="336.246334" xlink:href="#m6396a98492" y="79.05599"/>
     <use style="fill:#0173b2;fill-opacity:0.7;stroke:#0173b2;stroke-opacity:0.7;" x="340.680352" xlink:href="#m6396a98492" y="86.371866"/>
     <use style="fill:#0173b2;fill-opacity:0.7;stroke:#0173b2;stroke-opacity:0.7;" x="345.11437" xlink:href="#m6396a98492" y="79.049684"/>
     <use style="fill:#0173b2;fill-opacity:0.7;stroke:#0173b2;stroke-opacity:0.7;" x="349.548387" xlink:href="#m6396a98492" y="109.700953"/>
     <use style="fill:#0173b2;fill-opacity:0.7;stroke:#0173b2;stroke-opacity:0.7;" x="353.982405" xlink:href="#m6396a98492" y="93.612283"/>
     <use style="fill:#0173b2;fill-opacity:0.7;stroke:#0173b2;stroke-opacity:0.7;" x="358.416422" xlink:href="#m6396a98492" y="104.058137"/>
     <use style="fill:#0173b2;fill-opacity:0.7;stroke:#0173b2;stroke-opacity:0.7;" x="362.85044" xlink:href="#m6396a98492" y="103.316875"/>
     <use style="fill:#0173b2;fill-opacity:0.7;stroke:#0173b2;stroke-opacity:0.7;" x="367.284457" xlink:href="#m6396a98492" y="84.409072"/>
     <use style="fill:#0173b2;fill-opacity:0.7;stroke:#0173b2;stroke-opacity:0.7;" x="371.718475" xlink:href="#m6396a98492" y="79.594179"/>
     <use style="fill:#0173b2;fill-opacity:0.7;stroke:#0173b2;stroke-opacity:0.7;" x="376.152493" xlink:href="#m6396a98492" y="86.380042"/>
     <use style="fill:#0173b2;fill-opacity:0.7;stroke:#0173b2;stroke-opacity:0.7;" x="380.58651" xlink:href="#m6396a98492" y="95.475839"/>
     <use style="fill:#0173b2;fill-opacity:0.7;stroke:#0173b2;stroke-opacity:0.7;" x="385.020528" xlink:href="#m6396a98492" y="120.329025"/>
     <use style="fill:#0173b2;fill-opacity:0.7;stroke:#0173b2;stroke-opacity:0.7;" x="389.454545" xlink:href="#m6396a98492" y="77.301025"/>
    </g>
   </g>
   <g id="line2d_15">
    <path clip-path="url(#pdaf000724a)" d="M 100.8 186.810811 
L 403.2 186.810811 
" style="fill:none;stroke:#000000;stroke-dasharray:1.5,2.475;stroke-dashoffset:0;stroke-width:1.5;"/>
   </g>
   <g id="line2d_16">
    <path clip-path="url(#pdaf000724a)" d="M 114.545455 187.217963 
L 118.979472 160.901153 
L 123.41349 146.354966 
L 127.847507 121.795969 
L 132.281525 134.517693 
L 136.715543 140.486911 
L 141.14956 100.8 
L 145.583578 88.115873 
L 150.017595 92.197235 
L 154.451613 107.416216 
L 158.88563 62.506143 
L 163.319648 92.468468 
L 167.753666 93.693694 
L 172.187683 78.150326 
L 176.621701 88.122885 
L 181.055718 134.596348 
L 185.489736 139.650238 
L 189.923754 122.522523 
L 194.357771 119.552038 
L 198.791789 144.953116 
L 203.225806 132.02027 
L 207.659824 113.297297 
L 212.093842 122.141028 
L 216.527859 118.643735 
L 220.961877 97.83411 
L 225.395894 95.201663 
L 229.829912 99.654886 
L 234.26393 89.629532 
L 238.697947 107.85486 
L 243.131965 95.152011 
L 247.565982 84.111335 
L 252 86.115227 
L 256.434018 87.567568 
L 260.868035 89.871264 
L 265.302053 75.490347 
L 269.73607 77.66739 
L 274.170088 76.725869 
L 278.604106 80.616353 
L 283.038123 86.616354 
L 287.472141 78.488035 
L 291.906158 93.081081 
L 296.340176 73.723062 
L 300.774194 85.379325 
L 305.208211 81.412948 
L 309.642229 77.078444 
L 314.076246 77.36964 
L 318.510264 74.313584 
L 322.944282 96.451234 
L 327.378299 75.829119 
L 331.812317 76.418695 
L 336.246334 80.52904 
L 340.680352 88.429399 
L 345.11437 85.147001 
L 349.548387 72.342299 
L 353.982405 82.017051 
L 358.416422 83.011491 
L 362.85044 83.423013 
L 367.284457 74.74021 
L 371.718475 79.594179 
L 376.152493 81.35437 
L 380.58651 97.841897 
L 385.020528 90.661482 
L 389.454545 89.169785 
" style="fill:none;stroke:#de8f05;stroke-linecap:square;stroke-opacity:0.7;"/>
    <defs>
     <path d="M 0 2.5 
C 0.663008 2.5 1.29895 2.236584 1.767767 1.767767 
C 2.236584 1.29895 2.5 0.663008 2.5 0 
C 2.5 -0.663008 2.236584 -1.29895 1.767767 -1.767767 
C 1.29895 -2.236584 0.663008 -2.5 0 -2.5 
C -0.663008 -2.5 -1.29895 -2.236584 -1.767767 -1.767767 
C -2.236584 -1.29895 -2.5 -0.663008 -2.5 0 
C -2.5 0.663008 -2.236584 1.29895 -1.767767 1.767767 
C -1.29895 2.236584 -0.663008 2.5 0 2.5 
z
" id="m4984734ad7" style="stroke:#de8f05;stroke-opacity:0.7;"/>
    </defs>
    <g clip-path="url(#pdaf000724a)">
     <use style="fill:#de8f05;fill-opacity:0.7;stroke:#de8f05;stroke-opacity:0.7;" x="114.545455" xlink:href="#m4984734ad7" y="187.217963"/>
     <use style="fill:#de8f05;fill-opacity:0.7;stroke:#de8f05;stroke-opacity:0.7;" x="118.979472" xlink:href="#m4984734ad7" y="160.901153"/>
     <use style="fill:#de8f05;fill-opacity:0.7;stroke:#de8f05;stroke-opacity:0.7;" x="123.41349" xlink:href="#m4984734ad7" y="146.354966"/>
     <use style="fill:#de8f05;fill-opacity:0.7;stroke:#de8f05;stroke-opacity:0.7;" x="127.847507" xlink:href="#m4984734ad7" y="121.795969"/>
     <use style="fill:#de8f05;fill-opacity:0.7;stroke:#de8f05;stroke-opacity:0.7;" x="132.281525" xlink:href="#m4984734ad7" y="134.517693"/>
     <use style="fill:#de8f05;fill-opacity:0.7;stroke:#de8f05;stroke-opacity:0.7;" x="136.715543" xlink:href="#m4984734ad7" y="140.486911"/>
     <use style="fill:#de8f05;fill-opacity:0.7;stroke:#de8f05;stroke-opacity:0.7;" x="141.14956" xlink:href="#m4984734ad7" y="100.8"/>
     <use style="fill:#de8f05;fill-opacity:0.7;stroke:#de8f05;stroke-opacity:0.7;" x="145.583578" xlink:href="#m4984734ad7" y="88.115873"/>
     <use style="fill:#de8f05;fill-opacity:0.7;stroke:#de8f05;stroke-opacity:0.7;" x="150.017595" xlink:href="#m4984734ad7" y="92.197235"/>
     <use style="fill:#de8f05;fill-opacity:0.7;stroke:#de8f05;stroke-opacity:0.7;" x="154.451613" xlink:href="#m4984734ad7" y="107.416216"/>
     <use style="fill:#de8f05;fill-opacity:0.7;stroke:#de8f05;stroke-opacity:0.7;" x="158.88563" xlink:href="#m4984734ad7" y="62.506143"/>
     <use style="fill:#de8f05;fill-opacity:0.7;stroke:#de8f05;stroke-opacity:0.7;" x="163.319648" xlink:href="#m4984734ad7" y="92.468468"/>
     <use style="fill:#de8f05;fill-opacity:0.7;stroke:#de8f05;stroke-opacity:0.7;" x="167.753666" xlink:href="#m4984734ad7" y="93.693694"/>
     <use style="fill:#de8f05;fill-opacity:0.7;stroke:#de8f05;stroke-opacity:0.7;" x="172.187683" xlink:href="#m4984734ad7" y="78.150326"/>
     <use style="fill:#de8f05;fill-opacity:0.7;stroke:#de8f05;stroke-opacity:0.7;" x="176.621701" xlink:href="#m4984734ad7" y="88.122885"/>
     <use style="fill:#de8f05;fill-opacity:0.7;stroke:#de8f05;stroke-opacity:0.7;" x="181.055718" xlink:href="#m4984734ad7" y="134.596348"/>
     <use style="fill:#de8f05;fill-opacity:0.7;stroke:#de8f05;stroke-opacity:0.7;" x="185.489736" xlink:href="#m4984734ad7" y="139.650238"/>
     <use style="fill:#de8f05;fill-opacity:0.7;stroke:#de8f05;stroke-opacity:0.7;" x="189.923754" xlink:href="#m4984734ad7" y="122.522523"/>
     <use style="fill:#de8f05;fill-opacity:0.7;stroke:#de8f05;stroke-opacity:0.7;" x="194.357771" xlink:href="#m4984734ad7" y="119.552038"/>
     <use style="fill:#de8f05;fill-opacity:0.7;stroke:#de8f05;stroke-opacity:0.7;" x="198.791789" xlink:href="#m4984734ad7" y="144.953116"/>
     <use style="fill:#de8f05;fill-opacity:0.7;stroke:#de8f05;stroke-opacity:0.7;" x="203.225806" xlink:href="#m4984734ad7" y="132.02027"/>
     <use style="fill:#de8f05;fill-opacity:0.7;stroke:#de8f05;stroke-opacity:0.7;" x="207.659824" xlink:href="#m4984734ad7" y="113.297297"/>
     <use style="fill:#de8f05;fill-opacity:0.7;stroke:#de8f05;stroke-opacity:0.7;" x="212.093842" xlink:href="#m4984734ad7" y="122.141028"/>
     <use style="fill:#de8f05;fill-opacity:0.7;stroke:#de8f05;stroke-opacity:0.7;" x="216.527859" xlink:href="#m4984734ad7" y="118.643735"/>
     <use style="fill:#de8f05;fill-opacity:0.7;stroke:#de8f05;stroke-opacity:0.7;" x="220.961877" xlink:href="#m4984734ad7" y="97.83411"/>
     <use style="fill:#de8f05;fill-opacity:0.7;stroke:#de8f05;stroke-opacity:0.7;" x="225.395894" xlink:href="#m4984734ad7" y="95.201663"/>
     <use style="fill:#de8f05;fill-opacity:0.7;stroke:#de8f05;stroke-opacity:0.7;" x="229.829912" xlink:href="#m4984734ad7" y="99.654886"/>
     <use style="fill:#de8f05;fill-opacity:0.7;stroke:#de8f05;stroke-opacity:0.7;" x="234.26393" xlink:href="#m4984734ad7" y="89.629532"/>
     <use style="fill:#de8f05;fill-opacity:0.7;stroke:#de8f05;stroke-opacity:0.7;" x="238.697947" xlink:href="#m4984734ad7" y="107.85486"/>
     <use style="fill:#de8f05;fill-opacity:0.7;stroke:#de8f05;stroke-opacity:0.7;" x="243.131965" xlink:href="#m4984734ad7" y="95.152011"/>
     <use style="fill:#de8f05;fill-opacity:0.7;stroke:#de8f05;stroke-opacity:0.7;" x="247.565982" xlink:href="#m4984734ad7" y="84.111335"/>
     <use style="fill:#de8f05;fill-opacity:0.7;stroke:#de8f05;stroke-opacity:0.7;" x="252" xlink:href="#m4984734ad7" y="86.115227"/>
     <use style="fill:#de8f05;fill-opacity:0.7;stroke:#de8f05;stroke-opacity:0.7;" x="256.434018" xlink:href="#m4984734ad7" y="87.567568"/>
     <use style="fill:#de8f05;fill-opacity:0.7;stroke:#de8f05;stroke-opacity:0.7;" x="260.868035" xlink:href="#m4984734ad7" y="89.871264"/>
     <use style="fill:#de8f05;fill-opacity:0.7;stroke:#de8f05;stroke-opacity:0.7;" x="265.302053" xlink:href="#m4984734ad7" y="75.490347"/>
     <use style="fill:#de8f05;fill-opacity:0.7;stroke:#de8f05;stroke-opacity:0.7;" x="269.73607" xlink:href="#m4984734ad7" y="77.66739"/>
     <use style="fill:#de8f05;fill-opacity:0.7;stroke:#de8f05;stroke-opacity:0.7;" x="274.170088" xlink:href="#m4984734ad7" y="76.725869"/>
     <use style="fill:#de8f05;fill-opacity:0.7;stroke:#de8f05;stroke-opacity:0.7;" x="278.604106" xlink:href="#m4984734ad7" y="80.616353"/>
     <use style="fill:#de8f05;fill-opacity:0.7;stroke:#de8f05;stroke-opacity:0.7;" x="283.038123" xlink:href="#m4984734ad7" y="86.616354"/>
     <use style="fill:#de8f05;fill-opacity:0.7;stroke:#de8f05;stroke-opacity:0.7;" x="287.472141" xlink:href="#m4984734ad7" y="78.488035"/>
     <use style="fill:#de8f05;fill-opacity:0.7;stroke:#de8f05;stroke-opacity:0.7;" x="291.906158" xlink:href="#m4984734ad7" y="93.081081"/>
     <use style="fill:#de8f05;fill-opacity:0.7;stroke:#de8f05;stroke-opacity:0.7;" x="296.340176" xlink:href="#m4984734ad7" y="73.723062"/>
     <use style="fill:#de8f05;fill-opacity:0.7;stroke:#de8f05;stroke-opacity:0.7;" x="300.774194" xlink:href="#m4984734ad7" y="85.379325"/>
     <use style="fill:#de8f05;fill-opacity:0.7;stroke:#de8f05;stroke-opacity:0.7;" x="305.208211" xlink:href="#m4984734ad7" y="81.412948"/>
     <use style="fill:#de8f05;fill-opacity:0.7;stroke:#de8f05;stroke-opacity:0.7;" x="309.642229" xlink:href="#m4984734ad7" y="77.078444"/>
     <use style="fill:#de8f05;fill-opacity:0.7;stroke:#de8f05;stroke-opacity:0.7;" x="314.076246" xlink:href="#m4984734ad7" y="77.36964"/>
     <use style="fill:#de8f05;fill-opacity:0.7;stroke:#de8f05;stroke-opacity:0.7;" x="318.510264" xlink:href="#m4984734ad7" y="74.313584"/>
     <use style="fill:#de8f05;fill-opacity:0.7;stroke:#de8f05;stroke-opacity:0.7;" x="322.944282" xlink:href="#m4984734ad7" y="96.451234"/>
     <use style="fill:#de8f05;fill-opacity:0.7;stroke:#de8f05;stroke-opacity:0.7;" x="327.378299" xlink:href="#m4984734ad7" y="75.829119"/>
     <use style="fill:#de8f05;fill-opacity:0.7;stroke:#de8f05;stroke-opacity:0.7;" x="331.812317" xlink:href="#m4984734ad7" y="76.418695"/>
     <use style="fill:#de8f05;fill-opacity:0.7;stroke:#de8f05;stroke-opacity:0.7;" x="336.246334" xlink:href="#m4984734ad7" y="80.52904"/>
     <use style="fill:#de8f05;fill-opacity:0.7;stroke:#de8f05;stroke-opacity:0.7;" x="340.680352" xlink:href="#m4984734ad7" y="88.429399"/>
     <use style="fill:#de8f05;fill-opacity:0.7;stroke:#de8f05;stroke-opacity:0.7;" x="345.11437" xlink:href="#m4984734ad7" y="85.147001"/>
     <use style="fill:#de8f05;fill-opacity:0.7;stroke:#de8f05;stroke-opacity:0.7;" x="349.548387" xlink:href="#m4984734ad7" y="72.342299"/>
     <use style="fill:#de8f05;fill-opacity:0.7;stroke:#de8f05;stroke-opacity:0.7;" x="353.982405" xlink:href="#m4984734ad7" y="82.017051"/>
     <use style="fill:#de8f05;fill-opacity:0.7;stroke:#de8f05;stroke-opacity:0.7;" x="358.416422" xlink:href="#m4984734ad7" y="83.011491"/>
     <use style="fill:#de8f05;fill-opacity:0.7;stroke:#de8f05;stroke-opacity:0.7;" x="362.85044" xlink:href="#m4984734ad7" y="83.423013"/>
     <use style="fill:#de8f05;fill-opacity:0.7;stroke:#de8f05;stroke-opacity:0.7;" x="367.284457" xlink:href="#m4984734ad7" y="74.74021"/>
     <use style="fill:#de8f05;fill-opacity:0.7;stroke:#de8f05;stroke-opacity:0.7;" x="371.718475" xlink:href="#m4984734ad7" y="79.594179"/>
     <use style="fill:#de8f05;fill-opacity:0.7;stroke:#de8f05;stroke-opacity:0.7;" x="376.152493" xlink:href="#m4984734ad7" y="81.35437"/>
     <use style="fill:#de8f05;fill-opacity:0.7;stroke:#de8f05;stroke-opacity:0.7;" x="380.58651" xlink:href="#m4984734ad7" y="97.841897"/>
     <use style="fill:#de8f05;fill-opacity:0.7;stroke:#de8f05;stroke-opacity:0.7;" x="385.020528" xlink:href="#m4984734ad7" y="90.661482"/>
     <use style="fill:#de8f05;fill-opacity:0.7;stroke:#de8f05;stroke-opacity:0.7;" x="389.454545" xlink:href="#m4984734ad7" y="89.169785"/>
    </g>
   </g>
   <g id="line2d_17">
    <path clip-path="url(#pdaf000724a)" d="M 100.8 186.810811 
L 403.2 186.810811 
" style="fill:none;stroke:#000000;stroke-dasharray:1.5,2.475;stroke-dashoffset:0;stroke-width:1.5;"/>
   </g>
   <g id="patch_3">
    <path d="M 96.8 319.135135 
L 96.8 54.486486 
" style="fill:none;stroke:#000000;stroke-linecap:square;stroke-linejoin:miter;stroke-width:0.8;"/>
   </g>
   <g id="patch_4">
    <path d="M 114.545455 349.6 
L 380.58651 349.6 
" style="fill:none;stroke:#000000;stroke-linecap:square;stroke-linejoin:miter;stroke-width:0.8;"/>
   </g>
   <g id="text_16">
    <!-- AK12 -->
    <defs>
     <path d="M 34.1875 63.1875 
L 20.796875 26.90625 
L 47.609375 26.90625 
z
M 28.609375 72.90625 
L 39.796875 72.90625 
L 67.578125 0 
L 57.328125 0 
L 50.6875 18.703125 
L 17.828125 18.703125 
L 11.1875 0 
L 0.78125 0 
z
" id="DejaVuSans-41"/>
     <path d="M 9.8125 72.90625 
L 19.671875 72.90625 
L 19.671875 42.09375 
L 52.390625 72.90625 
L 65.09375 72.90625 
L 28.90625 38.921875 
L 67.671875 0 
L 54.6875 0 
L 19.671875 35.109375 
L 19.671875 0 
L 9.8125 0 
z
" id="DejaVuSans-4b"/>
    </defs>
    <g transform="translate(100.8 45.84)scale(0.24 -0.24)">
     <use xlink:href="#DejaVuSans-41"/>
     <use x="68.408203" xlink:href="#DejaVuSans-4b"/>
     <use x="133.984375" xlink:href="#DejaVuSans-31"/>
     <use x="197.607422" xlink:href="#DejaVuSans-32"/>
    </g>
   </g>
  </g>
 </g>
 <defs>
  <clipPath id="pdaf000724a">
   <rect height="293.76" width="302.4" x="100.8" y="51.84"/>
  </clipPath>
 </defs>
</svg>
