<?xml version="1.0" encoding="utf-8" standalone="no"?>
<!DOCTYPE svg PUBLIC "-//W3C//DTD SVG 1.1//EN"
  "http://www.w3.org/Graphics/SVG/1.1/DTD/svg11.dtd">
<!-- Created with matplotlib (https://matplotlib.org/) -->
<svg height="216pt" version="1.1" viewBox="0 0 720 216" width="720pt" xmlns="http://www.w3.org/2000/svg" xmlns:xlink="http://www.w3.org/1999/xlink">
 <metadata>
  <rdf:RDF xmlns:cc="http://creativecommons.org/ns#" xmlns:dc="http://purl.org/dc/elements/1.1/" xmlns:rdf="http://www.w3.org/1999/02/22-rdf-syntax-ns#">
   <cc:Work>
    <dc:type rdf:resource="http://purl.org/dc/dcmitype/StillImage"/>
    <dc:date>2021-04-26T14:41:04.312158</dc:date>
    <dc:format>image/svg+xml</dc:format>
    <dc:creator>
     <cc:Agent>
      <dc:title>Matplotlib v3.3.4, https://matplotlib.org/</dc:title>
     </cc:Agent>
    </dc:creator>
   </cc:Work>
  </rdf:RDF>
 </metadata>
 <defs>
  <style type="text/css">*{stroke-linecap:butt;stroke-linejoin:round;}</style>
 </defs>
 <g id="figure_1">
  <g id="patch_1">
   <path d="M 0 216 
L 720 216 
L 720 0 
L 0 0 
z
" style="fill:#ffffff;"/>
  </g>
  <g id="axes_1">
   <g id="patch_2">
    <path d="M 72 172.8 
L 159.428571 172.8 
L 159.428571 64.8 
L 72 64.8 
z
" style="fill:#ffffff;"/>
   </g>
   <g id="matplotlib.axis_1">
    <g id="xtick_1">
     <g id="line2d_1">
      <defs>
       <path d="M 0 0 
L 0 3.5 
" id="mb818722aaf" style="stroke:#000000;stroke-width:0.25;"/>
      </defs>
      <g>
       <use style="stroke:#000000;stroke-width:0.25;" x="87.328386" xlink:href="#mb818722aaf" y="172.8"/>
      </g>
     </g>
     <g id="text_1">
      <text style="font-family:DejaVu Sans;font-size:10px;font-stretch:normal;font-style:normal;font-weight:normal;text-anchor:middle;" transform="rotate(-0, 87.328386, 187.398438)" x="87.328386" y="187.398438">0</text>
     </g>
    </g>
    <g id="xtick_2">
     <g id="line2d_2">
      <g>
       <use style="stroke:#000000;stroke-width:0.25;" x="158.293135" xlink:href="#mb818722aaf" y="172.8"/>
      </g>
     </g>
     <g id="text_2">
      <text style="font-family:DejaVu Sans;font-size:10px;font-stretch:normal;font-style:normal;font-weight:normal;text-anchor:middle;" transform="rotate(-0, 158.293135, 187.398438)" x="158.293135" y="187.398438">5</text>
     </g>
    </g>
    <g id="text_3">
     <text style="font-family:DejaVu Sans;font-size:15px;font-stretch:normal;font-style:normal;font-weight:normal;text-anchor:middle;" transform="rotate(-0, 115.714286, 204.875781)" x="115.714286" y="204.875781">Stimulus Level</text>
    </g>
   </g>
   <g id="matplotlib.axis_2">
    <g id="ytick_1">
     <g id="line2d_3">
      <defs>
       <path d="M 0 0 
L -3.5 0 
" id="m090e64d53d" style="stroke:#000000;stroke-width:0.25;"/>
      </defs>
      <g>
       <use style="stroke:#000000;stroke-width:0.25;" x="72" xlink:href="#m090e64d53d" y="157.371429"/>
      </g>
     </g>
     <g id="text_4">
      <text style="font-family:DejaVu Sans;font-size:10px;font-stretch:normal;font-style:normal;font-weight:normal;text-anchor:end;" transform="rotate(-0, 65, 161.170647)" x="65" y="161.170647">0.4</text>
     </g>
    </g>
    <g id="ytick_2">
     <g id="line2d_4">
      <g>
       <use style="stroke:#000000;stroke-width:0.25;" x="72" xlink:href="#m090e64d53d" y="126.514286"/>
      </g>
     </g>
     <g id="text_5">
      <text style="font-family:DejaVu Sans;font-size:10px;font-stretch:normal;font-style:normal;font-weight:normal;text-anchor:end;" transform="rotate(-0, 65, 130.313504)" x="65" y="130.313504">0.6</text>
     </g>
    </g>
    <g id="ytick_3">
     <g id="line2d_5">
      <g>
       <use style="stroke:#000000;stroke-width:0.25;" x="72" xlink:href="#m090e64d53d" y="95.657143"/>
      </g>
     </g>
     <g id="text_6">
      <text style="font-family:DejaVu Sans;font-size:10px;font-stretch:normal;font-style:normal;font-weight:normal;text-anchor:end;" transform="rotate(-0, 65, 99.456362)" x="65" y="99.456362">0.8</text>
     </g>
    </g>
    <g id="ytick_4">
     <g id="line2d_6">
      <g>
       <use style="stroke:#000000;stroke-width:0.25;" x="72" xlink:href="#m090e64d53d" y="64.8"/>
      </g>
     </g>
     <g id="text_7">
      <text style="font-family:DejaVu Sans;font-size:10px;font-stretch:normal;font-style:normal;font-weight:normal;text-anchor:end;" transform="rotate(-0, 65, 68.599219)" x="65" y="68.599219">1.0</text>
     </g>
    </g>
    <g id="text_8">
     <text style="font-family:DejaVu Sans;font-size:15px;font-stretch:normal;font-style:normal;font-weight:normal;text-anchor:middle;" transform="rotate(-90, 41.977344, 118.8)" x="41.977344" y="118.8">Proportion Correct</text>
    </g>
   </g>
   <g id="line2d_7">
    <defs>
     <path d="M 0 2.165064 
C 0.574182 2.165064 1.124923 1.936939 1.530931 1.530931 
C 1.936939 1.124923 2.165064 0.574182 2.165064 0 
C 2.165064 -0.574182 1.936939 -1.124923 1.530931 -1.530931 
C 1.124923 -1.936939 0.574182 -2.165064 0 -2.165064 
C -0.574182 -2.165064 -1.124923 -1.936939 -1.530931 -1.530931 
C -1.936939 -1.124923 -2.165064 -0.574182 -2.165064 0 
C -2.165064 0.574182 -1.936939 1.124923 -1.530931 1.530931 
C -1.124923 1.936939 -0.574182 2.165064 0 2.165064 
z
" id="m4a6e5cc138" style="stroke:#0069aa;"/>
    </defs>
    <g>
     <use style="fill:#0069aa;stroke:#0069aa;" x="87.328386" xlink:href="#m4a6e5cc138" y="126.514286"/>
    </g>
   </g>
   <g id="line2d_8">
    <g>
     <use style="fill:#0069aa;stroke:#0069aa;" x="101.521336" xlink:href="#m4a6e5cc138" y="116.228571"/>
    </g>
   </g>
   <g id="line2d_9">
    <g>
     <use style="fill:#0069aa;stroke:#0069aa;" x="115.714286" xlink:href="#m4a6e5cc138" y="136.8"/>
    </g>
   </g>
   <g id="line2d_10">
    <g>
     <use style="fill:#0069aa;stroke:#0069aa;" x="129.907236" xlink:href="#m4a6e5cc138" y="136.8"/>
    </g>
   </g>
   <g id="line2d_11">
    <g>
     <use style="fill:#0069aa;stroke:#0069aa;" x="144.100186" xlink:href="#m4a6e5cc138" y="162.514286"/>
    </g>
   </g>
   <g id="line2d_12">
    <path d="M 87.328386 141.942857 
L 142.054355 141.83401 
L 143.361413 141.591535 
L 144.100186 141.300048 
L 144.100186 141.300048 
" style="fill:none;stroke:#000000;stroke-linecap:square;stroke-width:2;"/>
   </g>
   <g id="line2d_13">
    <path d="M 75.974026 141.942857 
L 76.088716 141.942857 
L 76.203407 141.942857 
L 76.318097 141.942857 
L 76.432788 141.942857 
L 76.547478 141.942857 
L 76.662169 141.942857 
L 76.77686 141.942857 
L 76.89155 141.942857 
L 77.006241 141.942857 
L 77.120931 141.942857 
L 77.235622 141.942857 
L 77.350312 141.942857 
L 77.465003 141.942857 
L 77.579693 141.942857 
L 77.694384 141.942857 
L 77.809074 141.942857 
L 77.923765 141.942857 
L 78.038455 141.942857 
L 78.153146 141.942857 
L 78.267836 141.942857 
L 78.382527 141.942857 
L 78.497217 141.942857 
L 78.611908 141.942857 
L 78.726598 141.942857 
L 78.841289 141.942857 
L 78.955979 141.942857 
L 79.07067 141.942857 
L 79.18536 141.942857 
L 79.300051 141.942857 
L 79.414741 141.942857 
L 79.529432 141.942857 
L 79.644122 141.942857 
L 79.758813 141.942857 
L 79.873503 141.942857 
L 79.988194 141.942857 
L 80.102884 141.942857 
L 80.217575 141.942857 
L 80.332265 141.942857 
L 80.446956 141.942857 
L 80.561646 141.942857 
L 80.676337 141.942857 
L 80.791027 141.942857 
L 80.905718 141.942857 
L 81.020408 141.942857 
L 81.135099 141.942857 
L 81.249789 141.942857 
L 81.36448 141.942857 
L 81.47917 141.942857 
L 81.593861 141.942857 
L 81.708551 141.942857 
L 81.823242 141.942857 
L 81.937932 141.942857 
L 82.052623 141.942857 
L 82.167313 141.942857 
L 82.282004 141.942857 
L 82.396694 141.942857 
L 82.511385 141.942857 
L 82.626075 141.942857 
L 82.740766 141.942857 
L 82.855456 141.942857 
L 82.970147 141.942857 
L 83.084837 141.942857 
L 83.199528 141.942857 
L 83.314218 141.942857 
L 83.428909 141.942857 
L 83.543599 141.942857 
L 83.65829 141.942857 
L 83.77298 141.942857 
L 83.887671 141.942857 
L 84.002361 141.942857 
L 84.117052 141.942857 
L 84.231742 141.942857 
L 84.346433 141.942857 
L 84.461123 141.942857 
L 84.575814 141.942857 
L 84.690504 141.942857 
L 84.805195 141.942857 
L 84.919885 141.942857 
L 85.034576 141.942857 
L 85.149266 141.942857 
L 85.263957 141.942857 
L 85.378647 141.942857 
L 85.493338 141.942857 
L 85.608028 141.942857 
L 85.722719 141.942857 
L 85.837409 141.942857 
L 85.9521 141.942857 
L 86.06679 141.942857 
L 86.181481 141.942857 
L 86.296171 141.942857 
L 86.410862 141.942857 
L 86.525552 141.942857 
L 86.640243 141.942857 
L 86.754933 141.942857 
L 86.869624 141.942857 
L 86.984314 141.942857 
L 87.099005 141.942857 
L 87.213695 141.942857 
L 87.328386 141.942857 
" style="fill:none;stroke:#000000;stroke-dasharray:7.4,3.2;stroke-dashoffset:0;stroke-width:2;"/>
   </g>
   <g id="line2d_14">
    <path d="M 144.100186 141.300048 
L 144.214876 141.239471 
L 144.329567 141.173952 
L 144.444257 141.103168 
L 144.558948 141.026779 
L 144.673638 140.944433 
L 144.788329 140.855762 
L 144.903019 140.760387 
L 145.01771 140.657913 
L 145.1324 140.547934 
L 145.247091 140.43003 
L 145.361781 140.303769 
L 145.476472 140.168708 
L 145.591162 140.024393 
L 145.705853 139.87036 
L 145.820543 139.706135 
L 145.935234 139.531238 
L 146.049924 139.345181 
L 146.164615 139.147469 
L 146.279305 138.937603 
L 146.393996 138.715083 
L 146.508686 138.479406 
L 146.623377 138.230069 
L 146.738067 137.96657 
L 146.852758 137.688413 
L 146.967448 137.395106 
L 147.082139 137.086164 
L 147.196829 136.761114 
L 147.31152 136.419492 
L 147.42621 136.060849 
L 147.540901 135.684753 
L 147.655591 135.290788 
L 147.770282 134.878561 
L 147.884972 134.447701 
L 147.999663 133.997863 
L 148.114353 133.528727 
L 148.229044 133.040005 
L 148.343734 132.531442 
L 148.458425 132.002815 
L 148.573115 131.453939 
L 148.687806 130.884666 
L 148.802496 130.294889 
L 148.917187 129.684543 
L 149.031877 129.053607 
L 149.146568 128.402106 
L 149.261258 127.730112 
L 149.375949 127.037743 
L 149.490639 126.325168 
L 149.60533 125.592608 
L 149.72002 124.84033 
L 149.834711 124.068657 
L 149.949401 123.27796 
L 150.064092 122.468665 
L 150.178782 121.641247 
L 150.293473 120.796232 
L 150.408163 119.934199 
L 150.522854 119.055774 
L 150.637544 118.161632 
L 150.752235 117.252495 
L 150.866925 116.329131 
L 150.981616 115.392352 
L 151.096306 114.44301 
L 151.210997 113.481997 
L 151.325687 112.510243 
L 151.440378 111.528712 
L 151.555068 110.538397 
L 151.669759 109.540321 
L 151.784449 108.535534 
L 151.89914 107.525105 
L 152.01383 106.510122 
L 152.128521 105.491689 
L 152.243211 104.470922 
L 152.357902 103.448943 
L 152.472592 102.426878 
L 152.587283 101.405854 
L 152.701973 100.386996 
L 152.816664 99.371419 
L 152.931354 98.360229 
L 153.046045 97.354516 
L 153.160735 96.355355 
L 153.275426 95.363797 
L 153.390116 94.380868 
L 153.504807 93.407569 
L 153.619497 92.444867 
L 153.734188 91.493697 
L 153.848878 90.554957 
L 153.963569 89.629505 
L 154.078259 88.718161 
L 154.19295 87.821697 
L 154.30764 86.940844 
L 154.422331 86.076283 
L 154.537021 85.228649 
L 154.651712 84.398528 
L 154.766402 83.586452 
L 154.881093 82.792907 
L 154.995783 82.018324 
L 155.110474 81.263083 
L 155.225164 80.527514 
L 155.339855 79.811893 
L 155.454545 79.116448 
" style="fill:none;stroke:#000000;stroke-dasharray:7.4,3.2;stroke-dashoffset:0;stroke-width:2;"/>
   </g>
   <g id="line2d_15">
    <path clip-path="url(#p7e1b16db66)" d="M 152.366598 162.514286 
L 152.366598 103.371437 
" style="fill:none;stroke:#000000;stroke-linecap:square;stroke-width:1.5;"/>
   </g>
   <g id="line2d_16">
    <path d="M 75.974026 64.800016 
L 155.454545 64.800016 
" style="fill:none;stroke:#000000;stroke-dasharray:1.5,2.475;stroke-dashoffset:0;stroke-width:1.5;"/>
   </g>
   <g id="line2d_17">
    <path d="M 75.974026 141.942857 
L 155.454545 141.942857 
" style="fill:none;stroke:#000000;stroke-dasharray:1.5,2.475;stroke-dashoffset:0;stroke-width:1.5;"/>
   </g>
   <g id="patch_3">
    <path d="M 72 172.8 
L 72 64.8 
" style="fill:none;stroke:#000000;stroke-linecap:square;stroke-linejoin:miter;stroke-width:0.25;"/>
   </g>
   <g id="patch_4">
    <path d="M 72 172.8 
L 159.428571 172.8 
" style="fill:none;stroke:#000000;stroke-linecap:square;stroke-linejoin:miter;stroke-width:0.25;"/>
   </g>
   <g id="text_9">
    <text style="font-family:DejaVu Sans;font-size:6px;font-stretch:normal;font-style:normal;font-weight:normal;text-anchor:start;" transform="rotate(-0, 72, 58.8)" x="72" y="58.8">10 ((thr=4.58,slope=0.82))</text>
   </g>
  </g>
  <g id="axes_2">
   <g id="patch_5">
    <path d="M 203.142857 172.8 
L 290.571429 172.8 
L 290.571429 64.8 
L 203.142857 64.8 
z
" style="fill:#ffffff;"/>
   </g>
   <g id="matplotlib.axis_3">
    <g id="xtick_3">
     <g id="line2d_18">
      <g>
       <use style="stroke:#000000;stroke-width:0.25;" x="218.471243" xlink:href="#mb818722aaf" y="172.8"/>
      </g>
     </g>
     <g id="text_10">
      <text style="font-family:DejaVu Sans;font-size:10px;font-stretch:normal;font-style:normal;font-weight:normal;text-anchor:middle;" transform="rotate(-0, 218.471243, 187.398438)" x="218.471243" y="187.398438">0</text>
     </g>
    </g>
    <g id="xtick_4">
     <g id="line2d_19">
      <g>
       <use style="stroke:#000000;stroke-width:0.25;" x="289.435993" xlink:href="#mb818722aaf" y="172.8"/>
      </g>
     </g>
     <g id="text_11">
      <text style="font-family:DejaVu Sans;font-size:10px;font-stretch:normal;font-style:normal;font-weight:normal;text-anchor:middle;" transform="rotate(-0, 289.435993, 187.398438)" x="289.435993" y="187.398438">5</text>
     </g>
    </g>
    <g id="text_12">
     <text style="font-family:DejaVu Sans;font-size:15px;font-stretch:normal;font-style:normal;font-weight:normal;text-anchor:middle;" transform="rotate(-0, 246.857143, 204.875781)" x="246.857143" y="204.875781">Stimulus Level</text>
    </g>
   </g>
   <g id="matplotlib.axis_4">
    <g id="ytick_5">
     <g id="line2d_20">
      <g>
       <use style="stroke:#000000;stroke-width:0.25;" x="203.142857" xlink:href="#m090e64d53d" y="157.371429"/>
      </g>
     </g>
    </g>
    <g id="ytick_6">
     <g id="line2d_21">
      <g>
       <use style="stroke:#000000;stroke-width:0.25;" x="203.142857" xlink:href="#m090e64d53d" y="126.514286"/>
      </g>
     </g>
    </g>
    <g id="ytick_7">
     <g id="line2d_22">
      <g>
       <use style="stroke:#000000;stroke-width:0.25;" x="203.142857" xlink:href="#m090e64d53d" y="95.657143"/>
      </g>
     </g>
    </g>
    <g id="ytick_8">
     <g id="line2d_23">
      <g>
       <use style="stroke:#000000;stroke-width:0.25;" x="203.142857" xlink:href="#m090e64d53d" y="64.8"/>
      </g>
     </g>
    </g>
   </g>
   <g id="line2d_24">
    <g>
     <use style="fill:#0069aa;stroke:#0069aa;" x="218.471243" xlink:href="#m4a6e5cc138" y="147.085714"/>
    </g>
   </g>
   <g id="line2d_25">
    <g>
     <use style="fill:#0069aa;stroke:#0069aa;" x="232.664193" xlink:href="#m4a6e5cc138" y="131.657143"/>
    </g>
   </g>
   <g id="line2d_26">
    <g>
     <use style="fill:#0069aa;stroke:#0069aa;" x="246.857143" xlink:href="#m4a6e5cc138" y="131.657143"/>
    </g>
   </g>
   <g id="line2d_27">
    <g>
     <use style="fill:#0069aa;stroke:#0069aa;" x="261.050093" xlink:href="#m4a6e5cc138" y="121.371429"/>
    </g>
   </g>
   <g id="line2d_28">
    <g>
     <use style="fill:#0069aa;stroke:#0069aa;" x="275.243043" xlink:href="#m4a6e5cc138" y="121.371429"/>
    </g>
   </g>
   <g id="line2d_29">
    <path d="M 218.471243 141.942857 
L 251.488676 141.832864 
L 255.06888 141.587329 
L 257.512511 141.208806 
L 259.444684 140.695403 
L 261.149543 140.012175 
L 262.683916 139.152119 
L 264.104632 138.097497 
L 265.468519 136.807134 
L 266.832406 135.204565 
L 268.196293 133.25533 
L 269.617008 130.828275 
L 271.094553 127.858544 
L 272.685754 124.156134 
L 274.504271 119.330014 
L 275.243043 117.20963 
L 275.243043 117.20963 
" style="fill:none;stroke:#000000;stroke-linecap:square;stroke-width:2;"/>
   </g>
   <g id="line2d_30">
    <path d="M 207.116883 141.942857 
L 207.231574 141.942857 
L 207.346264 141.942857 
L 207.460955 141.942857 
L 207.575645 141.942857 
L 207.690336 141.942857 
L 207.805026 141.942857 
L 207.919717 141.942857 
L 208.034407 141.942857 
L 208.149098 141.942857 
L 208.263788 141.942857 
L 208.378479 141.942857 
L 208.493169 141.942857 
L 208.60786 141.942857 
L 208.72255 141.942857 
L 208.837241 141.942857 
L 208.951931 141.942857 
L 209.066622 141.942857 
L 209.181312 141.942857 
L 209.296003 141.942857 
L 209.410693 141.942857 
L 209.525384 141.942857 
L 209.640074 141.942857 
L 209.754765 141.942857 
L 209.869455 141.942857 
L 209.984146 141.942857 
L 210.098836 141.942857 
L 210.213527 141.942857 
L 210.328217 141.942857 
L 210.442908 141.942857 
L 210.557598 141.942857 
L 210.672289 141.942857 
L 210.786979 141.942857 
L 210.90167 141.942857 
L 211.01636 141.942857 
L 211.131051 141.942857 
L 211.245741 141.942857 
L 211.360432 141.942857 
L 211.475122 141.942857 
L 211.589813 141.942857 
L 211.704503 141.942857 
L 211.819194 141.942857 
L 211.933884 141.942857 
L 212.048575 141.942857 
L 212.163265 141.942857 
L 212.277956 141.942857 
L 212.392646 141.942857 
L 212.507337 141.942857 
L 212.622027 141.942857 
L 212.736718 141.942857 
L 212.851408 141.942857 
L 212.966099 141.942857 
L 213.080789 141.942857 
L 213.19548 141.942857 
L 213.31017 141.942857 
L 213.424861 141.942857 
L 213.539551 141.942857 
L 213.654242 141.942857 
L 213.768932 141.942857 
L 213.883623 141.942857 
L 213.998313 141.942857 
L 214.113004 141.942857 
L 214.227694 141.942857 
L 214.342385 141.942857 
L 214.457075 141.942857 
L 214.571766 141.942857 
L 214.686456 141.942857 
L 214.801147 141.942857 
L 214.915837 141.942857 
L 215.030528 141.942857 
L 215.145218 141.942857 
L 215.259909 141.942857 
L 215.374599 141.942857 
L 215.48929 141.942857 
L 215.60398 141.942857 
L 215.718671 141.942857 
L 215.833361 141.942857 
L 215.948052 141.942857 
L 216.062742 141.942857 
L 216.177433 141.942857 
L 216.292123 141.942857 
L 216.406814 141.942857 
L 216.521504 141.942857 
L 216.636195 141.942857 
L 216.750885 141.942857 
L 216.865576 141.942857 
L 216.980266 141.942857 
L 217.094957 141.942857 
L 217.209647 141.942857 
L 217.324338 141.942857 
L 217.439029 141.942857 
L 217.553719 141.942857 
L 217.66841 141.942857 
L 217.7831 141.942857 
L 217.897791 141.942857 
L 218.012481 141.942857 
L 218.127172 141.942857 
L 218.241862 141.942857 
L 218.356553 141.942857 
L 218.471243 141.942857 
" style="fill:none;stroke:#000000;stroke-dasharray:7.4,3.2;stroke-dashoffset:0;stroke-width:2;"/>
   </g>
   <g id="line2d_31">
    <path d="M 275.243043 117.20963 
L 275.357733 116.873128 
L 275.472424 116.534765 
L 275.587114 116.194581 
L 275.701805 115.852617 
L 275.816495 115.508914 
L 275.931186 115.163514 
L 276.045876 114.816461 
L 276.160567 114.467797 
L 276.275257 114.117567 
L 276.389948 113.765817 
L 276.504638 113.412591 
L 276.619329 113.057936 
L 276.734019 112.701899 
L 276.84871 112.344526 
L 276.9634 111.985867 
L 277.078091 111.625969 
L 277.192781 111.264882 
L 277.307472 110.902655 
L 277.422162 110.539338 
L 277.536853 110.174982 
L 277.651543 109.809638 
L 277.766234 109.443358 
L 277.880924 109.076192 
L 277.995615 108.708194 
L 278.110305 108.339415 
L 278.224996 107.96991 
L 278.339686 107.599731 
L 278.454377 107.228931 
L 278.569067 106.857565 
L 278.683758 106.485686 
L 278.798448 106.113349 
L 278.913139 105.740609 
L 279.027829 105.36752 
L 279.14252 104.994136 
L 279.25721 104.620514 
L 279.371901 104.246707 
L 279.486591 103.872772 
L 279.601282 103.498762 
L 279.715972 103.124735 
L 279.830663 102.750744 
L 279.945353 102.376845 
L 280.060044 102.003093 
L 280.174734 101.629544 
L 280.289425 101.256252 
L 280.404115 100.883272 
L 280.518806 100.510659 
L 280.633496 100.138468 
L 280.748187 99.766753 
L 280.862877 99.395569 
L 280.977568 99.024969 
L 281.092258 98.655007 
L 281.206949 98.285737 
L 281.321639 97.917211 
L 281.43633 97.549483 
L 281.55102 97.182605 
L 281.665711 96.816629 
L 281.780401 96.451606 
L 281.895092 96.087589 
L 282.009782 95.724628 
L 282.124473 95.362773 
L 282.239163 95.002075 
L 282.353854 94.642582 
L 282.468544 94.284344 
L 282.583235 93.927409 
L 282.697925 93.571824 
L 282.812616 93.217637 
L 282.927306 92.864895 
L 283.041997 92.513644 
L 283.156687 92.163928 
L 283.271378 91.815794 
L 283.386068 91.469283 
L 283.500759 91.124441 
L 283.615449 90.78131 
L 283.73014 90.439931 
L 283.84483 90.100346 
L 283.959521 89.762595 
L 284.074212 89.426719 
L 284.188902 89.092755 
L 284.303593 88.760743 
L 284.418283 88.430719 
L 284.532974 88.102721 
L 284.647664 87.776783 
L 284.762355 87.45294 
L 284.877045 87.131228 
L 284.991736 86.811678 
L 285.106426 86.494324 
L 285.221117 86.179196 
L 285.335807 85.866326 
L 285.450498 85.555743 
L 285.565188 85.247475 
L 285.679879 84.941552 
L 285.794569 84.637999 
L 285.90926 84.336844 
L 286.02395 84.03811 
L 286.138641 83.741823 
L 286.253331 83.448006 
L 286.368022 83.156681 
L 286.482712 82.86787 
L 286.597403 82.581593 
" style="fill:none;stroke:#000000;stroke-dasharray:7.4,3.2;stroke-dashoffset:0;stroke-width:2;"/>
   </g>
   <g id="line2d_32">
    <path clip-path="url(#p6378bccac3)" d="M 279.639623 147.085714 
L 279.639623 103.373723 
" style="fill:none;stroke:#000000;stroke-linecap:square;stroke-width:1.5;"/>
   </g>
   <g id="line2d_33">
    <path d="M 207.116883 64.804589 
L 286.597403 64.804589 
" style="fill:none;stroke:#000000;stroke-dasharray:1.5,2.475;stroke-dashoffset:0;stroke-width:1.5;"/>
   </g>
   <g id="line2d_34">
    <path d="M 207.116883 141.942857 
L 286.597403 141.942857 
" style="fill:none;stroke:#000000;stroke-dasharray:1.5,2.475;stroke-dashoffset:0;stroke-width:1.5;"/>
   </g>
   <g id="patch_6">
    <path d="M 203.142857 172.8 
L 203.142857 64.8 
" style="fill:none;stroke:#000000;stroke-linecap:square;stroke-linejoin:miter;stroke-width:0.25;"/>
   </g>
   <g id="patch_7">
    <path d="M 203.142857 172.8 
L 290.571429 172.8 
" style="fill:none;stroke:#000000;stroke-linecap:square;stroke-linejoin:miter;stroke-width:0.25;"/>
   </g>
   <g id="text_13">
    <text style="font-family:DejaVu Sans;font-size:6px;font-stretch:normal;font-style:normal;font-weight:normal;text-anchor:start;" transform="rotate(-0, 203.142857, 58.8)" x="203.142857" y="58.8">20 ((thr=4.31,slope=0.30))</text>
   </g>
  </g>
  <g id="axes_3">
   <g id="patch_8">
    <path d="M 334.285714 172.8 
L 421.714286 172.8 
L 421.714286 64.8 
L 334.285714 64.8 
z
" style="fill:#ffffff;"/>
   </g>
   <g id="matplotlib.axis_5">
    <g id="xtick_5">
     <g id="line2d_35">
      <g>
       <use style="stroke:#000000;stroke-width:0.25;" x="349.6141" xlink:href="#mb818722aaf" y="172.8"/>
      </g>
     </g>
     <g id="text_14">
      <text style="font-family:DejaVu Sans;font-size:10px;font-stretch:normal;font-style:normal;font-weight:normal;text-anchor:middle;" transform="rotate(-0, 349.6141, 187.398438)" x="349.6141" y="187.398438">0</text>
     </g>
    </g>
    <g id="xtick_6">
     <g id="line2d_36">
      <g>
       <use style="stroke:#000000;stroke-width:0.25;" x="420.57885" xlink:href="#mb818722aaf" y="172.8"/>
      </g>
     </g>
     <g id="text_15">
      <text style="font-family:DejaVu Sans;font-size:10px;font-stretch:normal;font-style:normal;font-weight:normal;text-anchor:middle;" transform="rotate(-0, 420.57885, 187.398438)" x="420.57885" y="187.398438">5</text>
     </g>
    </g>
    <g id="text_16">
     <text style="font-family:DejaVu Sans;font-size:15px;font-stretch:normal;font-style:normal;font-weight:normal;text-anchor:middle;" transform="rotate(-0, 378, 204.875781)" x="378" y="204.875781">Stimulus Level</text>
    </g>
   </g>
   <g id="matplotlib.axis_6">
    <g id="ytick_9">
     <g id="line2d_37">
      <g>
       <use style="stroke:#000000;stroke-width:0.25;" x="334.285714" xlink:href="#m090e64d53d" y="157.371429"/>
      </g>
     </g>
    </g>
    <g id="ytick_10">
     <g id="line2d_38">
      <g>
       <use style="stroke:#000000;stroke-width:0.25;" x="334.285714" xlink:href="#m090e64d53d" y="126.514286"/>
      </g>
     </g>
    </g>
    <g id="ytick_11">
     <g id="line2d_39">
      <g>
       <use style="stroke:#000000;stroke-width:0.25;" x="334.285714" xlink:href="#m090e64d53d" y="95.657143"/>
      </g>
     </g>
    </g>
    <g id="ytick_12">
     <g id="line2d_40">
      <g>
       <use style="stroke:#000000;stroke-width:0.25;" x="334.285714" xlink:href="#m090e64d53d" y="64.8"/>
      </g>
     </g>
    </g>
   </g>
   <g id="line2d_41">
    <g>
     <use style="fill:#0069aa;stroke:#0069aa;" x="349.6141" xlink:href="#m4a6e5cc138" y="141.942857"/>
    </g>
   </g>
   <g id="line2d_42">
    <g>
     <use style="fill:#0069aa;stroke:#0069aa;" x="363.80705" xlink:href="#m4a6e5cc138" y="126.514286"/>
    </g>
   </g>
   <g id="line2d_43">
    <g>
     <use style="fill:#0069aa;stroke:#0069aa;" x="378" xlink:href="#m4a6e5cc138" y="100.8"/>
    </g>
   </g>
   <g id="line2d_44">
    <g>
     <use style="fill:#0069aa;stroke:#0069aa;" x="392.19295" xlink:href="#m4a6e5cc138" y="80.228571"/>
    </g>
   </g>
   <g id="line2d_45">
    <g>
     <use style="fill:#0069aa;stroke:#0069aa;" x="406.3859" xlink:href="#m4a6e5cc138" y="80.228571"/>
    </g>
   </g>
   <g id="line2d_46">
    <path d="M 349.6141 141.479081 
L 352.000903 141.056856 
L 353.989905 140.483583 
L 355.694763 139.768504 
L 357.285965 138.862111 
L 358.820338 137.723333 
L 360.297882 136.341528 
L 361.775427 134.646786 
L 363.3098 132.5295 
L 364.901001 129.934706 
L 366.60586 126.708866 
L 368.481205 122.669552 
L 370.75435 117.213519 
L 374.448211 107.657205 
L 377.914757 98.919136 
L 380.131074 93.927132 
L 382.006418 90.234262 
L 383.711277 87.354445 
L 385.302479 85.088182 
L 386.836852 83.276969 
L 388.371225 81.807206 
L 389.905598 80.643192 
L 391.496799 79.714672 
L 393.201658 78.980438 
L 395.077003 78.417635 
L 397.293319 77.994193 
L 400.077922 77.70406 
L 404.055926 77.536269 
L 406.3859 77.500362 
L 406.3859 77.500362 
" style="fill:none;stroke:#000000;stroke-linecap:square;stroke-width:2;"/>
   </g>
   <g id="line2d_47">
    <path d="M 338.25974 141.932714 
L 338.374431 141.932249 
L 338.489121 141.931764 
L 338.603812 141.931258 
L 338.718502 141.93073 
L 338.833193 141.93018 
L 338.947883 141.929607 
L 339.062574 141.92901 
L 339.177264 141.928388 
L 339.291955 141.92774 
L 339.406645 141.927065 
L 339.521336 141.926361 
L 339.636026 141.925629 
L 339.750717 141.924866 
L 339.865407 141.924073 
L 339.980098 141.923246 
L 340.094788 141.922386 
L 340.209479 141.921491 
L 340.324169 141.920559 
L 340.43886 141.91959 
L 340.55355 141.918582 
L 340.668241 141.917534 
L 340.782931 141.916443 
L 340.897622 141.915309 
L 341.012312 141.914131 
L 341.127003 141.912905 
L 341.241693 141.911631 
L 341.356384 141.910308 
L 341.471074 141.908932 
L 341.585765 141.907503 
L 341.700455 141.906018 
L 341.815146 141.904476 
L 341.929836 141.902875 
L 342.044527 141.901212 
L 342.159217 141.899485 
L 342.273908 141.897692 
L 342.388598 141.895832 
L 342.503289 141.893901 
L 342.617979 141.891897 
L 342.73267 141.889817 
L 342.84736 141.887661 
L 342.962051 141.885423 
L 343.076741 141.883103 
L 343.191432 141.880696 
L 343.306122 141.878201 
L 343.420813 141.875615 
L 343.535503 141.872934 
L 343.650194 141.870155 
L 343.764884 141.867275 
L 343.879575 141.864291 
L 343.994265 141.8612 
L 344.108956 141.857998 
L 344.223646 141.854681 
L 344.338337 141.851246 
L 344.453027 141.84769 
L 344.567718 141.844008 
L 344.682409 141.840197 
L 344.797099 141.836252 
L 344.91179 141.83217 
L 345.02648 141.827945 
L 345.141171 141.823575 
L 345.255861 141.819054 
L 345.370552 141.814378 
L 345.485242 141.809542 
L 345.599933 141.804541 
L 345.714623 141.799371 
L 345.829314 141.794027 
L 345.944004 141.788502 
L 346.058695 141.782793 
L 346.173385 141.776894 
L 346.288076 141.770798 
L 346.402766 141.764502 
L 346.517457 141.757998 
L 346.632147 141.751281 
L 346.746838 141.744345 
L 346.861528 141.737183 
L 346.976219 141.72979 
L 347.090909 141.722159 
L 347.2056 141.714283 
L 347.32029 141.706155 
L 347.434981 141.69777 
L 347.549671 141.689118 
L 347.664362 141.680195 
L 347.779052 141.670991 
L 347.893743 141.6615 
L 348.008433 141.651715 
L 348.123124 141.641626 
L 348.237814 141.631227 
L 348.352505 141.620508 
L 348.467195 141.609463 
L 348.581886 141.598082 
L 348.696576 141.586357 
L 348.811267 141.574279 
L 348.925957 141.561839 
L 349.040648 141.549029 
L 349.155338 141.535838 
L 349.270029 141.522257 
L 349.384719 141.508277 
L 349.49941 141.493889 
L 349.6141 141.479081 
" style="fill:none;stroke:#000000;stroke-dasharray:7.4,3.2;stroke-dashoffset:0;stroke-width:2;"/>
   </g>
   <g id="line2d_48">
    <path d="M 406.3859 77.500362 
L 406.50059 77.499211 
L 406.615281 77.498104 
L 406.729971 77.49704 
L 406.844662 77.496016 
L 406.959352 77.495032 
L 407.074043 77.494086 
L 407.188733 77.493177 
L 407.303424 77.492303 
L 407.418114 77.491464 
L 407.532805 77.490658 
L 407.647495 77.489883 
L 407.762186 77.489139 
L 407.876876 77.488425 
L 407.991567 77.487739 
L 408.106257 77.48708 
L 408.220948 77.486448 
L 408.335638 77.485841 
L 408.450329 77.485259 
L 408.565019 77.4847 
L 408.67971 77.484164 
L 408.7944 77.48365 
L 408.909091 77.483157 
L 409.023781 77.482684 
L 409.138472 77.48223 
L 409.253162 77.481796 
L 409.367853 77.481379 
L 409.482543 77.480979 
L 409.597234 77.480597 
L 409.711924 77.48023 
L 409.826615 77.479878 
L 409.941305 77.479541 
L 410.055996 77.479219 
L 410.170686 77.47891 
L 410.285377 77.478614 
L 410.400067 77.478331 
L 410.514758 77.47806 
L 410.629448 77.477801 
L 410.744139 77.477552 
L 410.858829 77.477315 
L 410.97352 77.477087 
L 411.08821 77.47687 
L 411.202901 77.476662 
L 411.317591 77.476463 
L 411.432282 77.476273 
L 411.546973 77.476091 
L 411.661663 77.475917 
L 411.776354 77.475751 
L 411.891044 77.475592 
L 412.005735 77.47544 
L 412.120425 77.475295 
L 412.235116 77.475156 
L 412.349806 77.475024 
L 412.464497 77.474897 
L 412.579187 77.474777 
L 412.693878 77.474661 
L 412.808568 77.474551 
L 412.923259 77.474446 
L 413.037949 77.474346 
L 413.15264 77.47425 
L 413.26733 77.474159 
L 413.382021 77.474072 
L 413.496711 77.473989 
L 413.611402 77.473909 
L 413.726092 77.473834 
L 413.840783 77.473762 
L 413.955473 77.473693 
L 414.070164 77.473627 
L 414.184854 77.473565 
L 414.299545 77.473506 
L 414.414235 77.473449 
L 414.528926 77.473395 
L 414.643616 77.473343 
L 414.758307 77.473294 
L 414.872997 77.473248 
L 414.987688 77.473203 
L 415.102378 77.473161 
L 415.217069 77.473121 
L 415.331759 77.473082 
L 415.44645 77.473046 
L 415.56114 77.473011 
L 415.675831 77.472978 
L 415.790521 77.472947 
L 415.905212 77.472917 
L 416.019902 77.472888 
L 416.134593 77.472861 
L 416.249283 77.472835 
L 416.363974 77.472811 
L 416.478664 77.472788 
L 416.593355 77.472766 
L 416.708045 77.472745 
L 416.822736 77.472725 
L 416.937426 77.472706 
L 417.052117 77.472688 
L 417.166807 77.472671 
L 417.281498 77.472654 
L 417.396188 77.472639 
L 417.510879 77.472624 
L 417.625569 77.472611 
L 417.74026 77.472597 
" style="fill:none;stroke:#000000;stroke-dasharray:7.4,3.2;stroke-dashoffset:0;stroke-width:2;"/>
   </g>
   <g id="line2d_49">
    <path clip-path="url(#pf580e24eac)" d="M 373.664006 141.942857 
L 373.664006 109.70761 
" style="fill:none;stroke:#000000;stroke-linecap:square;stroke-width:1.5;"/>
   </g>
   <g id="line2d_50">
    <path d="M 338.25974 77.472363 
L 417.74026 77.472363 
" style="fill:none;stroke:#000000;stroke-dasharray:1.5,2.475;stroke-dashoffset:0;stroke-width:1.5;"/>
   </g>
   <g id="line2d_51">
    <path d="M 338.25974 141.942857 
L 417.74026 141.942857 
" style="fill:none;stroke:#000000;stroke-dasharray:1.5,2.475;stroke-dashoffset:0;stroke-width:1.5;"/>
   </g>
   <g id="patch_9">
    <path d="M 334.285714 172.8 
L 334.285714 64.8 
" style="fill:none;stroke:#000000;stroke-linecap:square;stroke-linejoin:miter;stroke-width:0.25;"/>
   </g>
   <g id="patch_10">
    <path d="M 334.285714 172.8 
L 421.714286 172.8 
" style="fill:none;stroke:#000000;stroke-linecap:square;stroke-linejoin:miter;stroke-width:0.25;"/>
   </g>
   <g id="text_17">
    <text style="font-family:DejaVu Sans;font-size:6px;font-stretch:normal;font-style:normal;font-weight:normal;text-anchor:start;" transform="rotate(-0, 334.285714, 58.8)" x="334.285714" y="58.8">30 ((thr=1.87,slope=0.23))</text>
   </g>
  </g>
  <g id="axes_4">
   <g id="patch_11">
    <path d="M 465.428571 172.8 
L 552.857143 172.8 
L 552.857143 64.8 
L 465.428571 64.8 
z
" style="fill:#ffffff;"/>
   </g>
   <g id="matplotlib.axis_7">
    <g id="xtick_7">
     <g id="line2d_52">
      <g>
       <use style="stroke:#000000;stroke-width:0.25;" x="480.756957" xlink:href="#mb818722aaf" y="172.8"/>
      </g>
     </g>
     <g id="text_18">
      <text style="font-family:DejaVu Sans;font-size:10px;font-stretch:normal;font-style:normal;font-weight:normal;text-anchor:middle;" transform="rotate(-0, 480.756957, 187.398438)" x="480.756957" y="187.398438">0</text>
     </g>
    </g>
    <g id="xtick_8">
     <g id="line2d_53">
      <g>
       <use style="stroke:#000000;stroke-width:0.25;" x="551.721707" xlink:href="#mb818722aaf" y="172.8"/>
      </g>
     </g>
     <g id="text_19">
      <text style="font-family:DejaVu Sans;font-size:10px;font-stretch:normal;font-style:normal;font-weight:normal;text-anchor:middle;" transform="rotate(-0, 551.721707, 187.398438)" x="551.721707" y="187.398438">5</text>
     </g>
    </g>
    <g id="text_20">
     <text style="font-family:DejaVu Sans;font-size:15px;font-stretch:normal;font-style:normal;font-weight:normal;text-anchor:middle;" transform="rotate(-0, 509.142857, 204.875781)" x="509.142857" y="204.875781">Stimulus Level</text>
    </g>
   </g>
   <g id="matplotlib.axis_8">
    <g id="ytick_13">
     <g id="line2d_54">
      <g>
       <use style="stroke:#000000;stroke-width:0.25;" x="465.428571" xlink:href="#m090e64d53d" y="157.371429"/>
      </g>
     </g>
    </g>
    <g id="ytick_14">
     <g id="line2d_55">
      <g>
       <use style="stroke:#000000;stroke-width:0.25;" x="465.428571" xlink:href="#m090e64d53d" y="126.514286"/>
      </g>
     </g>
    </g>
    <g id="ytick_15">
     <g id="line2d_56">
      <g>
       <use style="stroke:#000000;stroke-width:0.25;" x="465.428571" xlink:href="#m090e64d53d" y="95.657143"/>
      </g>
     </g>
    </g>
    <g id="ytick_16">
     <g id="line2d_57">
      <g>
       <use style="stroke:#000000;stroke-width:0.25;" x="465.428571" xlink:href="#m090e64d53d" y="64.8"/>
      </g>
     </g>
    </g>
   </g>
   <g id="line2d_58">
    <g>
     <use style="fill:#0069aa;stroke:#0069aa;" x="480.756957" xlink:href="#m4a6e5cc138" y="136.8"/>
    </g>
   </g>
   <g id="line2d_59">
    <g>
     <use style="fill:#0069aa;stroke:#0069aa;" x="494.949907" xlink:href="#m4a6e5cc138" y="100.8"/>
    </g>
   </g>
   <g id="line2d_60">
    <g>
     <use style="fill:#0069aa;stroke:#0069aa;" x="509.142857" xlink:href="#m4a6e5cc138" y="95.657143"/>
    </g>
   </g>
   <g id="line2d_61">
    <g>
     <use style="fill:#0069aa;stroke:#0069aa;" x="523.335807" xlink:href="#m4a6e5cc138" y="90.514286"/>
    </g>
   </g>
   <g id="line2d_62">
    <g>
     <use style="fill:#0069aa;stroke:#0069aa;" x="537.528757" xlink:href="#m4a6e5cc138" y="69.942857"/>
    </g>
   </g>
   <g id="line2d_63">
    <path d="M 480.756957 134.524417 
L 482.575473 132.539436 
L 484.450818 130.150368 
L 486.43982 127.241789 
L 488.599308 123.677667 
L 491.099768 119.10575 
L 494.509485 112.363864 
L 500.590149 100.305985 
L 503.204265 95.668231 
L 505.420582 92.176789 
L 507.466413 89.365258 
L 509.398586 87.089155 
L 511.217102 85.279807 
L 513.035618 83.776849 
L 514.854134 82.554893 
L 516.729479 81.555747 
L 518.718481 80.743776 
L 520.934798 80.084649 
L 523.435257 79.580519 
L 526.447174 79.211325 
L 530.36835 78.969984 
L 536.449013 78.844749 
L 537.528757 78.836583 
L 537.528757 78.836583 
" style="fill:none;stroke:#000000;stroke-linecap:square;stroke-width:2;"/>
   </g>
   <g id="line2d_64">
    <path d="M 469.402597 140.822832 
L 469.517288 140.797063 
L 469.631978 140.770789 
L 469.746669 140.744005 
L 469.861359 140.716701 
L 469.97605 140.688871 
L 470.09074 140.660507 
L 470.205431 140.631601 
L 470.320121 140.602145 
L 470.434812 140.572132 
L 470.549502 140.541553 
L 470.664193 140.5104 
L 470.778883 140.478665 
L 470.893574 140.446341 
L 471.008264 140.413418 
L 471.122955 140.37989 
L 471.237645 140.345747 
L 471.352336 140.310981 
L 471.467026 140.275585 
L 471.581717 140.239549 
L 471.696407 140.202865 
L 471.811098 140.165525 
L 471.925788 140.12752 
L 472.040479 140.088842 
L 472.15517 140.049482 
L 472.26986 140.009432 
L 472.384551 139.968682 
L 472.499241 139.927225 
L 472.613932 139.885051 
L 472.728622 139.842153 
L 472.843313 139.79852 
L 472.958003 139.754145 
L 473.072694 139.709019 
L 473.187384 139.663132 
L 473.302075 139.616476 
L 473.416765 139.569043 
L 473.531456 139.520823 
L 473.646146 139.471807 
L 473.760837 139.421987 
L 473.875527 139.371353 
L 473.990218 139.319897 
L 474.104908 139.267611 
L 474.219599 139.214484 
L 474.334289 139.160509 
L 474.44898 139.105675 
L 474.56367 139.049976 
L 474.678361 138.993401 
L 474.793051 138.935941 
L 474.907742 138.877589 
L 475.022432 138.818334 
L 475.137123 138.758169 
L 475.251813 138.697085 
L 475.366504 138.635072 
L 475.481194 138.572122 
L 475.595885 138.508227 
L 475.710575 138.443377 
L 475.825266 138.377565 
L 475.939956 138.31078 
L 476.054647 138.243016 
L 476.169337 138.174263 
L 476.284028 138.104513 
L 476.398718 138.033758 
L 476.513409 137.961989 
L 476.628099 137.889198 
L 476.74279 137.815376 
L 476.85748 137.740516 
L 476.972171 137.664609 
L 477.086861 137.587647 
L 477.201552 137.509623 
L 477.316242 137.430528 
L 477.430933 137.350354 
L 477.545623 137.269095 
L 477.660314 137.186741 
L 477.775004 137.103286 
L 477.889695 137.018722 
L 478.004385 136.933042 
L 478.119076 136.846237 
L 478.233766 136.758302 
L 478.348457 136.669229 
L 478.463147 136.57901 
L 478.577838 136.48764 
L 478.692528 136.395111 
L 478.807219 136.301416 
L 478.921909 136.206549 
L 479.0366 136.110504 
L 479.15129 136.013274 
L 479.265981 135.914853 
L 479.380671 135.815235 
L 479.495362 135.714413 
L 479.610052 135.612383 
L 479.724743 135.509138 
L 479.839433 135.404673 
L 479.954124 135.298983 
L 480.068814 135.192062 
L 480.183505 135.083905 
L 480.298195 134.974508 
L 480.412886 134.863865 
L 480.527576 134.751971 
L 480.642267 134.638824 
L 480.756957 134.524417 
" style="fill:none;stroke:#000000;stroke-dasharray:7.4,3.2;stroke-dashoffset:0;stroke-width:2;"/>
   </g>
   <g id="line2d_65">
    <path d="M 537.528757 78.836583 
L 537.643447 78.835848 
L 537.758138 78.835135 
L 537.872828 78.834445 
L 537.987519 78.833776 
L 538.102209 78.833128 
L 538.2169 78.8325 
L 538.33159 78.831892 
L 538.446281 78.831303 
L 538.560971 78.830733 
L 538.675662 78.83018 
L 538.790353 78.829646 
L 538.905043 78.829128 
L 539.019734 78.828626 
L 539.134424 78.828141 
L 539.249115 78.827671 
L 539.363805 78.827216 
L 539.478496 78.826776 
L 539.593186 78.82635 
L 539.707877 78.825938 
L 539.822567 78.825539 
L 539.937258 78.825153 
L 540.051948 78.82478 
L 540.166639 78.824418 
L 540.281329 78.824069 
L 540.39602 78.823731 
L 540.51071 78.823405 
L 540.625401 78.823089 
L 540.740091 78.822783 
L 540.854782 78.822488 
L 540.969472 78.822202 
L 541.084163 78.821926 
L 541.198853 78.821659 
L 541.313544 78.821402 
L 541.428234 78.821152 
L 541.542925 78.820912 
L 541.657615 78.820679 
L 541.772306 78.820454 
L 541.886996 78.820237 
L 542.001687 78.820027 
L 542.116377 78.819824 
L 542.231068 78.819629 
L 542.345758 78.81944 
L 542.460449 78.819257 
L 542.575139 78.819081 
L 542.68983 78.818911 
L 542.80452 78.818746 
L 542.919211 78.818588 
L 543.033901 78.818435 
L 543.148592 78.818287 
L 543.263282 78.818144 
L 543.377973 78.818007 
L 543.492663 78.817874 
L 543.607354 78.817746 
L 543.722044 78.817622 
L 543.836735 78.817503 
L 543.951425 78.817388 
L 544.066116 78.817277 
L 544.180806 78.81717 
L 544.295497 78.817067 
L 544.410187 78.816967 
L 544.524878 78.816871 
L 544.639568 78.816779 
L 544.754259 78.816689 
L 544.868949 78.816603 
L 544.98364 78.816521 
L 545.09833 78.816441 
L 545.213021 78.816364 
L 545.327711 78.81629 
L 545.442402 78.816218 
L 545.557092 78.816149 
L 545.671783 78.816083 
L 545.786473 78.816019 
L 545.901164 78.815957 
L 546.015854 78.815898 
L 546.130545 78.815841 
L 546.245235 78.815786 
L 546.359926 78.815733 
L 546.474616 78.815682 
L 546.589307 78.815633 
L 546.703997 78.815586 
L 546.818688 78.815541 
L 546.933378 78.815497 
L 547.048069 78.815455 
L 547.162759 78.815414 
L 547.27745 78.815375 
L 547.39214 78.815338 
L 547.506831 78.815302 
L 547.621521 78.815267 
L 547.736212 78.815234 
L 547.850902 78.815201 
L 547.965593 78.815171 
L 548.080283 78.815141 
L 548.194974 78.815112 
L 548.309664 78.815085 
L 548.424355 78.815058 
L 548.539045 78.815033 
L 548.653736 78.815009 
L 548.768426 78.814985 
L 548.883117 78.814963 
" style="fill:none;stroke:#000000;stroke-dasharray:7.4,3.2;stroke-dashoffset:0;stroke-width:2;"/>
   </g>
   <g id="line2d_66">
    <path clip-path="url(#p3fb989781a)" d="M 495.48837 141.942857 
L 495.48837 110.378645 
" style="fill:none;stroke:#000000;stroke-linecap:square;stroke-width:1.5;"/>
   </g>
   <g id="line2d_67">
    <path d="M 469.402597 78.814434 
L 548.883117 78.814434 
" style="fill:none;stroke:#000000;stroke-dasharray:1.5,2.475;stroke-dashoffset:0;stroke-width:1.5;"/>
   </g>
   <g id="line2d_68">
    <path d="M 469.402597 141.942857 
L 548.883117 141.942857 
" style="fill:none;stroke:#000000;stroke-dasharray:1.5,2.475;stroke-dashoffset:0;stroke-width:1.5;"/>
   </g>
   <g id="patch_12">
    <path d="M 465.428571 172.8 
L 465.428571 64.8 
" style="fill:none;stroke:#000000;stroke-linecap:square;stroke-linejoin:miter;stroke-width:0.25;"/>
   </g>
   <g id="patch_13">
    <path d="M 465.428571 172.8 
L 552.857143 172.8 
" style="fill:none;stroke:#000000;stroke-linecap:square;stroke-linejoin:miter;stroke-width:0.25;"/>
   </g>
   <g id="text_21">
    <text style="font-family:DejaVu Sans;font-size:6px;font-stretch:normal;font-style:normal;font-weight:normal;text-anchor:start;" transform="rotate(-0, 465.428571, 58.8)" x="465.428571" y="58.8">40 ((thr=1.28,slope=0.18))</text>
   </g>
  </g>
  <g id="axes_5">
   <g id="patch_14">
    <path d="M 596.571429 172.8 
L 684 172.8 
L 684 64.8 
L 596.571429 64.8 
z
" style="fill:#ffffff;"/>
   </g>
   <g id="matplotlib.axis_9">
    <g id="xtick_9">
     <g id="line2d_69">
      <g>
       <use style="stroke:#000000;stroke-width:0.25;" x="611.899814" xlink:href="#mb818722aaf" y="172.8"/>
      </g>
     </g>
     <g id="text_22">
      <text style="font-family:DejaVu Sans;font-size:10px;font-stretch:normal;font-style:normal;font-weight:normal;text-anchor:middle;" transform="rotate(-0, 611.899814, 187.398438)" x="611.899814" y="187.398438">0</text>
     </g>
    </g>
    <g id="xtick_10">
     <g id="line2d_70">
      <g>
       <use style="stroke:#000000;stroke-width:0.25;" x="682.864564" xlink:href="#mb818722aaf" y="172.8"/>
      </g>
     </g>
     <g id="text_23">
      <text style="font-family:DejaVu Sans;font-size:10px;font-stretch:normal;font-style:normal;font-weight:normal;text-anchor:middle;" transform="rotate(-0, 682.864564, 187.398438)" x="682.864564" y="187.398438">5</text>
     </g>
    </g>
    <g id="text_24">
     <text style="font-family:DejaVu Sans;font-size:15px;font-stretch:normal;font-style:normal;font-weight:normal;text-anchor:middle;" transform="rotate(-0, 640.285714, 204.875781)" x="640.285714" y="204.875781">Stimulus Level</text>
    </g>
   </g>
   <g id="matplotlib.axis_10">
    <g id="ytick_17">
     <g id="line2d_71">
      <g>
       <use style="stroke:#000000;stroke-width:0.25;" x="596.571429" xlink:href="#m090e64d53d" y="157.371429"/>
      </g>
     </g>
    </g>
    <g id="ytick_18">
     <g id="line2d_72">
      <g>
       <use style="stroke:#000000;stroke-width:0.25;" x="596.571429" xlink:href="#m090e64d53d" y="126.514286"/>
      </g>
     </g>
    </g>
    <g id="ytick_19">
     <g id="line2d_73">
      <g>
       <use style="stroke:#000000;stroke-width:0.25;" x="596.571429" xlink:href="#m090e64d53d" y="95.657143"/>
      </g>
     </g>
    </g>
    <g id="ytick_20">
     <g id="line2d_74">
      <g>
       <use style="stroke:#000000;stroke-width:0.25;" x="596.571429" xlink:href="#m090e64d53d" y="64.8"/>
      </g>
     </g>
    </g>
   </g>
   <g id="line2d_75">
    <g>
     <use style="fill:#0069aa;stroke:#0069aa;" x="611.899814" xlink:href="#m4a6e5cc138" y="126.514286"/>
    </g>
   </g>
   <g id="line2d_76">
    <g>
     <use style="fill:#0069aa;stroke:#0069aa;" x="626.092764" xlink:href="#m4a6e5cc138" y="95.657143"/>
    </g>
   </g>
   <g id="line2d_77">
    <g>
     <use style="fill:#0069aa;stroke:#0069aa;" x="640.285714" xlink:href="#m4a6e5cc138" y="80.228571"/>
    </g>
   </g>
   <g id="line2d_78">
    <g>
     <use style="fill:#0069aa;stroke:#0069aa;" x="654.478664" xlink:href="#m4a6e5cc138" y="80.228571"/>
    </g>
   </g>
   <g id="line2d_79">
    <g>
     <use style="fill:#0069aa;stroke:#0069aa;" x="668.671614" xlink:href="#m4a6e5cc138" y="75.085714"/>
    </g>
   </g>
   <g id="line2d_80">
    <path d="M 611.899814 129.694341 
L 613.547845 126.426382 
L 615.423189 122.191651 
L 617.696335 116.46908 
L 621.958482 104.959284 
L 624.856742 97.489833 
L 626.959401 92.673226 
L 628.777917 89.057464 
L 630.425947 86.267111 
L 631.96032 84.090194 
L 633.437865 82.36199 
L 634.915409 80.966322 
L 636.392953 79.865998 
L 637.927326 78.991045 
L 639.632185 78.281141 
L 641.50753 77.747501 
L 643.723846 77.355816 
L 646.565278 77.092831 
L 650.770596 76.948693 
L 660.374634 76.90492 
L 668.671614 76.904101 
L 668.671614 76.904101 
" style="fill:none;stroke:#000000;stroke-linecap:square;stroke-width:2;"/>
   </g>
   <g id="line2d_81">
    <path d="M 600.545455 140.714251 
L 600.660145 140.677639 
L 600.774836 140.640105 
L 600.889526 140.601631 
L 601.004217 140.562198 
L 601.118907 140.52179 
L 601.233598 140.480387 
L 601.348288 140.437971 
L 601.462979 140.394525 
L 601.577669 140.350028 
L 601.69236 140.304464 
L 601.80705 140.257812 
L 601.921741 140.210054 
L 602.036431 140.16117 
L 602.151122 140.111142 
L 602.265812 140.05995 
L 602.380503 140.007574 
L 602.495193 139.953995 
L 602.609884 139.899193 
L 602.724574 139.843149 
L 602.839265 139.785842 
L 602.953955 139.727254 
L 603.068646 139.667362 
L 603.183336 139.606149 
L 603.298027 139.543593 
L 603.412717 139.479675 
L 603.527408 139.414373 
L 603.642098 139.347669 
L 603.756789 139.279541 
L 603.871479 139.20997 
L 603.98617 139.138935 
L 604.10086 139.066416 
L 604.215551 138.992393 
L 604.330241 138.916845 
L 604.444932 138.839752 
L 604.559622 138.761094 
L 604.674313 138.680852 
L 604.789003 138.599004 
L 604.903694 138.515531 
L 605.018384 138.430413 
L 605.133075 138.343631 
L 605.247765 138.255164 
L 605.362456 138.164993 
L 605.477146 138.073098 
L 605.591837 137.97946 
L 605.706527 137.884061 
L 605.821218 137.78688 
L 605.935908 137.687899 
L 606.050599 137.587099 
L 606.165289 137.484463 
L 606.27998 137.37997 
L 606.39467 137.273604 
L 606.509361 137.165347 
L 606.624051 137.05518 
L 606.738742 136.943087 
L 606.853432 136.82905 
L 606.968123 136.713053 
L 607.082813 136.595079 
L 607.197504 136.475111 
L 607.312194 136.353134 
L 607.426885 136.229132 
L 607.541575 136.10309 
L 607.656266 135.974993 
L 607.770956 135.844825 
L 607.885647 135.712574 
L 608.000337 135.578225 
L 608.115028 135.441765 
L 608.229718 135.30318 
L 608.344409 135.162458 
L 608.459099 135.019587 
L 608.57379 134.874555 
L 608.68848 134.72735 
L 608.803171 134.577962 
L 608.917861 134.426381 
L 609.032552 134.272597 
L 609.147242 134.1166 
L 609.261933 133.958381 
L 609.376623 133.797932 
L 609.491314 133.635246 
L 609.606004 133.470315 
L 609.720695 133.303132 
L 609.835385 133.133691 
L 609.950076 132.961987 
L 610.064766 132.788014 
L 610.179457 132.611769 
L 610.294147 132.433248 
L 610.408838 132.252446 
L 610.523528 132.069363 
L 610.638219 131.883996 
L 610.752909 131.696344 
L 610.8676 131.506406 
L 610.98229 131.314182 
L 611.096981 131.119673 
L 611.211671 130.922881 
L 611.326362 130.723808 
L 611.441052 130.522455 
L 611.555743 130.318828 
L 611.670433 130.11293 
L 611.785124 129.904766 
L 611.899814 129.694341 
" style="fill:none;stroke:#000000;stroke-dasharray:7.4,3.2;stroke-dashoffset:0;stroke-width:2;"/>
   </g>
   <g id="line2d_82">
    <path d="M 668.671614 76.904101 
L 668.786305 76.904101 
L 668.900995 76.9041 
L 669.015686 76.904099 
L 669.130376 76.904099 
L 669.245067 76.904098 
L 669.359757 76.904097 
L 669.474448 76.904097 
L 669.589138 76.904096 
L 669.703829 76.904096 
L 669.818519 76.904096 
L 669.93321 76.904095 
L 670.0479 76.904095 
L 670.162591 76.904094 
L 670.277281 76.904094 
L 670.391972 76.904094 
L 670.506662 76.904094 
L 670.621353 76.904093 
L 670.736043 76.904093 
L 670.850734 76.904093 
L 670.965424 76.904093 
L 671.080115 76.904092 
L 671.194805 76.904092 
L 671.309496 76.904092 
L 671.424186 76.904092 
L 671.538877 76.904092 
L 671.653567 76.904091 
L 671.768258 76.904091 
L 671.882948 76.904091 
L 671.997639 76.904091 
L 672.112329 76.904091 
L 672.22702 76.904091 
L 672.34171 76.904091 
L 672.456401 76.904091 
L 672.571091 76.90409 
L 672.685782 76.90409 
L 672.800472 76.90409 
L 672.915163 76.90409 
L 673.029853 76.90409 
L 673.144544 76.90409 
L 673.259234 76.90409 
L 673.373925 76.90409 
L 673.488615 76.90409 
L 673.603306 76.90409 
L 673.717996 76.90409 
L 673.832687 76.90409 
L 673.947377 76.90409 
L 674.062068 76.90409 
L 674.176758 76.90409 
L 674.291449 76.90409 
L 674.406139 76.90409 
L 674.52083 76.90409 
L 674.63552 76.90409 
L 674.750211 76.90409 
L 674.864901 76.90409 
L 674.979592 76.904089 
L 675.094282 76.904089 
L 675.208973 76.904089 
L 675.323663 76.904089 
L 675.438354 76.904089 
L 675.553044 76.904089 
L 675.667735 76.904089 
L 675.782425 76.904089 
L 675.897116 76.904089 
L 676.011806 76.904089 
L 676.126497 76.904089 
L 676.241187 76.904089 
L 676.355878 76.904089 
L 676.470568 76.904089 
L 676.585259 76.904089 
L 676.699949 76.904089 
L 676.81464 76.904089 
L 676.92933 76.904089 
L 677.044021 76.904089 
L 677.158711 76.904089 
L 677.273402 76.904089 
L 677.388092 76.904089 
L 677.502783 76.904089 
L 677.617473 76.904089 
L 677.732164 76.904089 
L 677.846854 76.904089 
L 677.961545 76.904089 
L 678.076235 76.904089 
L 678.190926 76.904089 
L 678.305616 76.904089 
L 678.420307 76.904089 
L 678.534997 76.904089 
L 678.649688 76.904089 
L 678.764378 76.904089 
L 678.879069 76.904089 
L 678.993759 76.904089 
L 679.10845 76.904089 
L 679.22314 76.904089 
L 679.337831 76.904089 
L 679.452522 76.904089 
L 679.567212 76.904089 
L 679.681903 76.904089 
L 679.796593 76.904089 
L 679.911284 76.904089 
L 680.025974 76.904089 
" style="fill:none;stroke:#000000;stroke-dasharray:7.4,3.2;stroke-dashoffset:0;stroke-width:2;"/>
   </g>
   <g id="line2d_83">
    <path clip-path="url(#pc265ba2f71)" d="M 620.313014 141.942857 
L 620.313014 109.423473 
" style="fill:none;stroke:#000000;stroke-linecap:square;stroke-width:1.5;"/>
   </g>
   <g id="line2d_84">
    <path d="M 600.545455 76.904089 
L 680.025974 76.904089 
" style="fill:none;stroke:#000000;stroke-dasharray:1.5,2.475;stroke-dashoffset:0;stroke-width:1.5;"/>
   </g>
   <g id="line2d_85">
    <path d="M 600.545455 141.942857 
L 680.025974 141.942857 
" style="fill:none;stroke:#000000;stroke-dasharray:1.5,2.475;stroke-dashoffset:0;stroke-width:1.5;"/>
   </g>
   <g id="patch_15">
    <path d="M 596.571429 172.8 
L 596.571429 64.8 
" style="fill:none;stroke:#000000;stroke-linecap:square;stroke-linejoin:miter;stroke-width:0.25;"/>
   </g>
   <g id="patch_16">
    <path d="M 596.571429 172.8 
L 684 172.8 
" style="fill:none;stroke:#000000;stroke-linecap:square;stroke-linejoin:miter;stroke-width:0.25;"/>
   </g>
   <g id="text_25">
    <text style="font-family:DejaVu Sans;font-size:6px;font-stretch:normal;font-style:normal;font-weight:normal;text-anchor:start;" transform="rotate(-0, 596.571429, 58.8)" x="596.571429" y="58.8">50 ((thr=0.75,slope=0.24))</text>
   </g>
  </g>
  <g id="text_26">
   <text style="font-family:DejaVu Sans;font-size:12px;font-stretch:normal;font-style:normal;font-weight:normal;text-anchor:start;" transform="rotate(-0, 36, 32.4)" x="36" y="32.4">Cell 194 (20190504_JC078_fov1, Lm)</text>
  </g>
  <g id="text_27">
   <text style="font-family:DejaVu Sans;font-size:8px;font-stretch:normal;font-style:normal;font-weight:normal;text-anchor:start;" transform="rotate(-0, 0, 6.07875)" x="0" y="6.07875">neuraldata_traces001_dff_ROC-thr-0.05_plushalf_noRF</text>
  </g>
 </g>
 <defs>
  <clipPath id="p7e1b16db66">
   <rect height="108" width="87.428571" x="72" y="64.8"/>
  </clipPath>
  <clipPath id="p6378bccac3">
   <rect height="108" width="87.428571" x="203.142857" y="64.8"/>
  </clipPath>
  <clipPath id="pf580e24eac">
   <rect height="108" width="87.428571" x="334.285714" y="64.8"/>
  </clipPath>
  <clipPath id="p3fb989781a">
   <rect height="108" width="87.428571" x="465.428571" y="64.8"/>
  </clipPath>
  <clipPath id="pc265ba2f71">
   <rect height="108" width="87.428571" x="596.571429" y="64.8"/>
  </clipPath>
 </defs>
</svg>
