<?xml version="1.0" encoding="utf-8" standalone="no"?>
<!DOCTYPE svg PUBLIC "-//W3C//DTD SVG 1.1//EN"
  "http://www.w3.org/Graphics/SVG/1.1/DTD/svg11.dtd">
<!-- Created with matplotlib (https://matplotlib.org/) -->
<svg height="216pt" version="1.1" viewBox="0 0 720 216" width="720pt" xmlns="http://www.w3.org/2000/svg" xmlns:xlink="http://www.w3.org/1999/xlink">
 <metadata>
  <rdf:RDF xmlns:cc="http://creativecommons.org/ns#" xmlns:dc="http://purl.org/dc/elements/1.1/" xmlns:rdf="http://www.w3.org/1999/02/22-rdf-syntax-ns#">
   <cc:Work>
    <dc:type rdf:resource="http://purl.org/dc/dcmitype/StillImage"/>
    <dc:date>2021-04-26T14:37:11.271685</dc:date>
    <dc:format>image/svg+xml</dc:format>
    <dc:creator>
     <cc:Agent>
      <dc:title>Matplotlib v3.3.4, https://matplotlib.org/</dc:title>
     </cc:Agent>
    </dc:creator>
   </cc:Work>
  </rdf:RDF>
 </metadata>
 <defs>
  <style type="text/css">*{stroke-linecap:butt;stroke-linejoin:round;}</style>
 </defs>
 <g id="figure_1">
  <g id="patch_1">
   <path d="M 0 216 
L 720 216 
L 720 0 
L 0 0 
z
" style="fill:#ffffff;"/>
  </g>
  <g id="axes_1">
   <g id="patch_2">
    <path d="M 72 172.8 
L 159.428571 172.8 
L 159.428571 64.8 
L 72 64.8 
z
" style="fill:#ffffff;"/>
   </g>
   <g id="matplotlib.axis_1">
    <g id="xtick_1">
     <g id="line2d_1">
      <defs>
       <path d="M 0 0 
L 0 3.5 
" id="mb01b9aecc5" style="stroke:#000000;stroke-width:0.25;"/>
      </defs>
      <g>
       <use style="stroke:#000000;stroke-width:0.25;" x="87.328386" xlink:href="#mb01b9aecc5" y="172.8"/>
      </g>
     </g>
     <g id="text_1">
      <text style="font-family:DejaVu Sans;font-size:10px;font-stretch:normal;font-style:normal;font-weight:normal;text-anchor:middle;" transform="rotate(-0, 87.328386, 187.398438)" x="87.328386" y="187.398438">0</text>
     </g>
    </g>
    <g id="xtick_2">
     <g id="line2d_2">
      <g>
       <use style="stroke:#000000;stroke-width:0.25;" x="158.293135" xlink:href="#mb01b9aecc5" y="172.8"/>
      </g>
     </g>
     <g id="text_2">
      <text style="font-family:DejaVu Sans;font-size:10px;font-stretch:normal;font-style:normal;font-weight:normal;text-anchor:middle;" transform="rotate(-0, 158.293135, 187.398438)" x="158.293135" y="187.398438">5</text>
     </g>
    </g>
    <g id="text_3">
     <text style="font-family:DejaVu Sans;font-size:15px;font-stretch:normal;font-style:normal;font-weight:normal;text-anchor:middle;" transform="rotate(-0, 115.714286, 204.875781)" x="115.714286" y="204.875781">Stimulus Level</text>
    </g>
   </g>
   <g id="matplotlib.axis_2">
    <g id="ytick_1">
     <g id="line2d_3">
      <defs>
       <path d="M 0 0 
L -3.5 0 
" id="m51356be55a" style="stroke:#000000;stroke-width:0.25;"/>
      </defs>
      <g>
       <use style="stroke:#000000;stroke-width:0.25;" x="72" xlink:href="#m51356be55a" y="157.371429"/>
      </g>
     </g>
     <g id="text_4">
      <text style="font-family:DejaVu Sans;font-size:10px;font-stretch:normal;font-style:normal;font-weight:normal;text-anchor:end;" transform="rotate(-0, 65, 161.170647)" x="65" y="161.170647">0.4</text>
     </g>
    </g>
    <g id="ytick_2">
     <g id="line2d_4">
      <g>
       <use style="stroke:#000000;stroke-width:0.25;" x="72" xlink:href="#m51356be55a" y="126.514286"/>
      </g>
     </g>
     <g id="text_5">
      <text style="font-family:DejaVu Sans;font-size:10px;font-stretch:normal;font-style:normal;font-weight:normal;text-anchor:end;" transform="rotate(-0, 65, 130.313504)" x="65" y="130.313504">0.6</text>
     </g>
    </g>
    <g id="ytick_3">
     <g id="line2d_5">
      <g>
       <use style="stroke:#000000;stroke-width:0.25;" x="72" xlink:href="#m51356be55a" y="95.657143"/>
      </g>
     </g>
     <g id="text_6">
      <text style="font-family:DejaVu Sans;font-size:10px;font-stretch:normal;font-style:normal;font-weight:normal;text-anchor:end;" transform="rotate(-0, 65, 99.456362)" x="65" y="99.456362">0.8</text>
     </g>
    </g>
    <g id="ytick_4">
     <g id="line2d_6">
      <g>
       <use style="stroke:#000000;stroke-width:0.25;" x="72" xlink:href="#m51356be55a" y="64.8"/>
      </g>
     </g>
     <g id="text_7">
      <text style="font-family:DejaVu Sans;font-size:10px;font-stretch:normal;font-style:normal;font-weight:normal;text-anchor:end;" transform="rotate(-0, 65, 68.599219)" x="65" y="68.599219">1.0</text>
     </g>
    </g>
    <g id="text_8">
     <text style="font-family:DejaVu Sans;font-size:15px;font-stretch:normal;font-style:normal;font-weight:normal;text-anchor:middle;" transform="rotate(-90, 41.977344, 118.8)" x="41.977344" y="118.8">Proportion Correct</text>
    </g>
   </g>
   <g id="line2d_7">
    <defs>
     <path d="M 0 2.165064 
C 0.574182 2.165064 1.124923 1.936939 1.530931 1.530931 
C 1.936939 1.124923 2.165064 0.574182 2.165064 0 
C 2.165064 -0.574182 1.936939 -1.124923 1.530931 -1.530931 
C 1.124923 -1.936939 0.574182 -2.165064 0 -2.165064 
C -0.574182 -2.165064 -1.124923 -1.936939 -1.530931 -1.530931 
C -1.936939 -1.124923 -2.165064 -0.574182 -2.165064 0 
C -2.165064 0.574182 -1.936939 1.124923 -1.530931 1.530931 
C -1.124923 1.936939 -0.574182 2.165064 0 2.165064 
z
" id="ma7dcaa83f4" style="stroke:#0069aa;"/>
    </defs>
    <g>
     <use style="fill:#0069aa;stroke:#0069aa;" x="87.328386" xlink:href="#ma7dcaa83f4" y="152.228571"/>
    </g>
   </g>
   <g id="line2d_8">
    <g>
     <use style="fill:#0069aa;stroke:#0069aa;" x="101.521336" xlink:href="#ma7dcaa83f4" y="152.228571"/>
    </g>
   </g>
   <g id="line2d_9">
    <g>
     <use style="fill:#0069aa;stroke:#0069aa;" x="115.714286" xlink:href="#ma7dcaa83f4" y="136.8"/>
    </g>
   </g>
   <g id="line2d_10">
    <g>
     <use style="fill:#0069aa;stroke:#0069aa;" x="129.907236" xlink:href="#ma7dcaa83f4" y="136.8"/>
    </g>
   </g>
   <g id="line2d_11">
    <g>
     <use style="fill:#0069aa;stroke:#0069aa;" x="144.100186" xlink:href="#ma7dcaa83f4" y="147.085714"/>
    </g>
   </g>
   <g id="line2d_12">
    <path d="M 87.328386 141.942857 
L 140.576811 141.834076 
L 141.883869 141.594974 
L 142.793127 141.219149 
L 143.531899 140.688809 
L 144.100186 140.080459 
L 144.100186 140.080459 
" style="fill:none;stroke:#000000;stroke-linecap:square;stroke-width:2;"/>
   </g>
   <g id="line2d_13">
    <path d="M 75.974026 141.942857 
L 76.088716 141.942857 
L 76.203407 141.942857 
L 76.318097 141.942857 
L 76.432788 141.942857 
L 76.547478 141.942857 
L 76.662169 141.942857 
L 76.77686 141.942857 
L 76.89155 141.942857 
L 77.006241 141.942857 
L 77.120931 141.942857 
L 77.235622 141.942857 
L 77.350312 141.942857 
L 77.465003 141.942857 
L 77.579693 141.942857 
L 77.694384 141.942857 
L 77.809074 141.942857 
L 77.923765 141.942857 
L 78.038455 141.942857 
L 78.153146 141.942857 
L 78.267836 141.942857 
L 78.382527 141.942857 
L 78.497217 141.942857 
L 78.611908 141.942857 
L 78.726598 141.942857 
L 78.841289 141.942857 
L 78.955979 141.942857 
L 79.07067 141.942857 
L 79.18536 141.942857 
L 79.300051 141.942857 
L 79.414741 141.942857 
L 79.529432 141.942857 
L 79.644122 141.942857 
L 79.758813 141.942857 
L 79.873503 141.942857 
L 79.988194 141.942857 
L 80.102884 141.942857 
L 80.217575 141.942857 
L 80.332265 141.942857 
L 80.446956 141.942857 
L 80.561646 141.942857 
L 80.676337 141.942857 
L 80.791027 141.942857 
L 80.905718 141.942857 
L 81.020408 141.942857 
L 81.135099 141.942857 
L 81.249789 141.942857 
L 81.36448 141.942857 
L 81.47917 141.942857 
L 81.593861 141.942857 
L 81.708551 141.942857 
L 81.823242 141.942857 
L 81.937932 141.942857 
L 82.052623 141.942857 
L 82.167313 141.942857 
L 82.282004 141.942857 
L 82.396694 141.942857 
L 82.511385 141.942857 
L 82.626075 141.942857 
L 82.740766 141.942857 
L 82.855456 141.942857 
L 82.970147 141.942857 
L 83.084837 141.942857 
L 83.199528 141.942857 
L 83.314218 141.942857 
L 83.428909 141.942857 
L 83.543599 141.942857 
L 83.65829 141.942857 
L 83.77298 141.942857 
L 83.887671 141.942857 
L 84.002361 141.942857 
L 84.117052 141.942857 
L 84.231742 141.942857 
L 84.346433 141.942857 
L 84.461123 141.942857 
L 84.575814 141.942857 
L 84.690504 141.942857 
L 84.805195 141.942857 
L 84.919885 141.942857 
L 85.034576 141.942857 
L 85.149266 141.942857 
L 85.263957 141.942857 
L 85.378647 141.942857 
L 85.493338 141.942857 
L 85.608028 141.942857 
L 85.722719 141.942857 
L 85.837409 141.942857 
L 85.9521 141.942857 
L 86.06679 141.942857 
L 86.181481 141.942857 
L 86.296171 141.942857 
L 86.410862 141.942857 
L 86.525552 141.942857 
L 86.640243 141.942857 
L 86.754933 141.942857 
L 86.869624 141.942857 
L 86.984314 141.942857 
L 87.099005 141.942857 
L 87.213695 141.942857 
L 87.328386 141.942857 
" style="fill:none;stroke:#000000;stroke-dasharray:7.4,3.2;stroke-dashoffset:0;stroke-width:2;"/>
   </g>
   <g id="line2d_14">
    <path d="M 144.100186 140.080459 
L 144.214876 139.931484 
L 144.329567 139.772671 
L 144.444257 139.603552 
L 144.558948 139.423656 
L 144.673638 139.232501 
L 144.788329 139.029604 
L 144.903019 138.814478 
L 145.01771 138.586631 
L 145.1324 138.345574 
L 145.247091 138.090817 
L 145.361781 137.821874 
L 145.476472 137.538262 
L 145.591162 137.239505 
L 145.705853 136.925136 
L 145.820543 136.594698 
L 145.935234 136.247746 
L 146.049924 135.883849 
L 146.164615 135.502593 
L 146.279305 135.103585 
L 146.393996 134.686449 
L 146.508686 134.250835 
L 146.623377 133.796417 
L 146.738067 133.322899 
L 146.852758 132.830011 
L 146.967448 132.317517 
L 147.082139 131.785217 
L 147.196829 131.232942 
L 147.31152 130.660566 
L 147.42621 130.068 
L 147.540901 129.455195 
L 147.655591 128.822149 
L 147.770282 128.168902 
L 147.884972 127.495539 
L 147.999663 126.802194 
L 148.114353 126.089048 
L 148.229044 125.35633 
L 148.343734 124.60432 
L 148.458425 123.833346 
L 148.573115 123.043787 
L 148.687806 122.236072 
L 148.802496 121.410678 
L 148.917187 120.568133 
L 149.031877 119.709014 
L 149.146568 118.833944 
L 149.261258 117.943592 
L 149.375949 117.038675 
L 149.490639 116.119951 
L 149.60533 115.188221 
L 149.72002 114.244324 
L 149.834711 113.289139 
L 149.949401 112.323579 
L 150.064092 111.348588 
L 150.178782 110.365143 
L 150.293473 109.374244 
L 150.408163 108.376919 
L 150.522854 107.374214 
L 150.637544 106.367192 
L 150.752235 105.356932 
L 150.866925 104.344521 
L 150.981616 103.331056 
L 151.096306 102.317634 
L 151.210997 101.305354 
L 151.325687 100.295312 
L 151.440378 99.288595 
L 151.555068 98.286279 
L 151.669759 97.289428 
L 151.784449 96.299086 
L 151.89914 95.316278 
L 152.01383 94.342003 
L 152.128521 93.377235 
L 152.243211 92.422916 
L 152.357902 91.479957 
L 152.472592 90.549232 
L 152.587283 89.631579 
L 152.701973 88.727795 
L 152.816664 87.838636 
L 152.931354 86.964812 
L 153.046045 86.106991 
L 153.160735 85.265792 
L 153.275426 84.441788 
L 153.390116 83.635502 
L 153.504807 82.847408 
L 153.619497 82.077932 
L 153.734188 81.327447 
L 153.848878 80.596279 
L 153.963569 79.884702 
L 154.078259 79.192943 
L 154.19295 78.521178 
L 154.30764 77.869538 
L 154.422331 77.238103 
L 154.537021 76.626912 
L 154.651712 76.035956 
L 154.766402 75.465185 
L 154.881093 74.914507 
L 154.995783 74.383791 
L 155.110474 73.872867 
L 155.225164 73.381531 
L 155.339855 72.909544 
L 155.454545 72.456636 
" style="fill:none;stroke:#000000;stroke-dasharray:7.4,3.2;stroke-dashoffset:0;stroke-width:2;"/>
   </g>
   <g id="line2d_15">
    <path clip-path="url(#p4edbf6d411)" d="M 150.977048 152.228571 
L 150.977048 103.371429 
" style="fill:none;stroke:#000000;stroke-linecap:square;stroke-width:1.5;"/>
   </g>
   <g id="line2d_16">
    <path d="M 75.974026 64.8 
L 155.454545 64.8 
" style="fill:none;stroke:#000000;stroke-dasharray:1.5,2.475;stroke-dashoffset:0;stroke-width:1.5;"/>
   </g>
   <g id="line2d_17">
    <path d="M 75.974026 141.942857 
L 155.454545 141.942857 
" style="fill:none;stroke:#000000;stroke-dasharray:1.5,2.475;stroke-dashoffset:0;stroke-width:1.5;"/>
   </g>
   <g id="patch_3">
    <path d="M 72 172.8 
L 72 64.8 
" style="fill:none;stroke:#000000;stroke-linecap:square;stroke-linejoin:miter;stroke-width:0.25;"/>
   </g>
   <g id="patch_4">
    <path d="M 72 172.8 
L 159.428571 172.8 
" style="fill:none;stroke:#000000;stroke-linecap:square;stroke-linejoin:miter;stroke-width:0.25;"/>
   </g>
   <g id="text_9">
    <text style="font-family:DejaVu Sans;font-size:6px;font-stretch:normal;font-style:normal;font-weight:normal;text-anchor:start;" transform="rotate(-0, 72, 58.8)" x="72" y="58.8">10 ((thr=4.48,slope=0.81))</text>
   </g>
  </g>
  <g id="axes_2">
   <g id="patch_5">
    <path d="M 203.142857 172.8 
L 290.571429 172.8 
L 290.571429 64.8 
L 203.142857 64.8 
z
" style="fill:#ffffff;"/>
   </g>
   <g id="matplotlib.axis_3">
    <g id="xtick_3">
     <g id="line2d_18">
      <g>
       <use style="stroke:#000000;stroke-width:0.25;" x="218.471243" xlink:href="#mb01b9aecc5" y="172.8"/>
      </g>
     </g>
     <g id="text_10">
      <text style="font-family:DejaVu Sans;font-size:10px;font-stretch:normal;font-style:normal;font-weight:normal;text-anchor:middle;" transform="rotate(-0, 218.471243, 187.398438)" x="218.471243" y="187.398438">0</text>
     </g>
    </g>
    <g id="xtick_4">
     <g id="line2d_19">
      <g>
       <use style="stroke:#000000;stroke-width:0.25;" x="289.435993" xlink:href="#mb01b9aecc5" y="172.8"/>
      </g>
     </g>
     <g id="text_11">
      <text style="font-family:DejaVu Sans;font-size:10px;font-stretch:normal;font-style:normal;font-weight:normal;text-anchor:middle;" transform="rotate(-0, 289.435993, 187.398438)" x="289.435993" y="187.398438">5</text>
     </g>
    </g>
    <g id="text_12">
     <text style="font-family:DejaVu Sans;font-size:15px;font-stretch:normal;font-style:normal;font-weight:normal;text-anchor:middle;" transform="rotate(-0, 246.857143, 204.875781)" x="246.857143" y="204.875781">Stimulus Level</text>
    </g>
   </g>
   <g id="matplotlib.axis_4">
    <g id="ytick_5">
     <g id="line2d_20">
      <g>
       <use style="stroke:#000000;stroke-width:0.25;" x="203.142857" xlink:href="#m51356be55a" y="157.371429"/>
      </g>
     </g>
    </g>
    <g id="ytick_6">
     <g id="line2d_21">
      <g>
       <use style="stroke:#000000;stroke-width:0.25;" x="203.142857" xlink:href="#m51356be55a" y="126.514286"/>
      </g>
     </g>
    </g>
    <g id="ytick_7">
     <g id="line2d_22">
      <g>
       <use style="stroke:#000000;stroke-width:0.25;" x="203.142857" xlink:href="#m51356be55a" y="95.657143"/>
      </g>
     </g>
    </g>
    <g id="ytick_8">
     <g id="line2d_23">
      <g>
       <use style="stroke:#000000;stroke-width:0.25;" x="203.142857" xlink:href="#m51356be55a" y="64.8"/>
      </g>
     </g>
    </g>
   </g>
   <g id="line2d_24">
    <g>
     <use style="fill:#0069aa;stroke:#0069aa;" x="218.471243" xlink:href="#ma7dcaa83f4" y="121.371429"/>
    </g>
   </g>
   <g id="line2d_25">
    <g>
     <use style="fill:#0069aa;stroke:#0069aa;" x="232.664193" xlink:href="#ma7dcaa83f4" y="147.085714"/>
    </g>
   </g>
   <g id="line2d_26">
    <g>
     <use style="fill:#0069aa;stroke:#0069aa;" x="246.857143" xlink:href="#ma7dcaa83f4" y="100.8"/>
    </g>
   </g>
   <g id="line2d_27">
    <g>
     <use style="fill:#0069aa;stroke:#0069aa;" x="261.050093" xlink:href="#ma7dcaa83f4" y="105.942857"/>
    </g>
   </g>
   <g id="line2d_28">
    <g>
     <use style="fill:#0069aa;stroke:#0069aa;" x="275.243043" xlink:href="#ma7dcaa83f4" y="95.657143"/>
    </g>
   </g>
   <g id="line2d_29">
    <path d="M 218.471243 141.942857 
L 232.451086 141.837069 
L 233.871801 141.597238 
L 234.894717 141.202853 
L 235.747146 140.624959 
L 236.485918 139.857864 
L 237.22469 138.766773 
L 237.963463 137.281028 
L 238.759063 135.175419 
L 239.668321 132.086742 
L 240.748065 127.529719 
L 242.282438 119.913219 
L 244.498755 108.989763 
L 245.635327 104.515447 
L 246.601414 101.588722 
L 247.453843 99.672716 
L 248.249444 98.384284 
L 249.045045 97.492304 
L 249.897474 96.872615 
L 250.863561 96.46287 
L 252.056962 96.216241 
L 253.875478 96.093522 
L 258.990055 96.065422 
L 275.243043 96.065356 
L 275.243043 96.065356 
" style="fill:none;stroke:#000000;stroke-linecap:square;stroke-width:2;"/>
   </g>
   <g id="line2d_30">
    <path d="M 207.116883 141.942857 
L 207.231574 141.942857 
L 207.346264 141.942857 
L 207.460955 141.942857 
L 207.575645 141.942857 
L 207.690336 141.942857 
L 207.805026 141.942857 
L 207.919717 141.942857 
L 208.034407 141.942857 
L 208.149098 141.942857 
L 208.263788 141.942857 
L 208.378479 141.942857 
L 208.493169 141.942857 
L 208.60786 141.942857 
L 208.72255 141.942857 
L 208.837241 141.942857 
L 208.951931 141.942857 
L 209.066622 141.942857 
L 209.181312 141.942857 
L 209.296003 141.942857 
L 209.410693 141.942857 
L 209.525384 141.942857 
L 209.640074 141.942857 
L 209.754765 141.942857 
L 209.869455 141.942857 
L 209.984146 141.942857 
L 210.098836 141.942857 
L 210.213527 141.942857 
L 210.328217 141.942857 
L 210.442908 141.942857 
L 210.557598 141.942857 
L 210.672289 141.942857 
L 210.786979 141.942857 
L 210.90167 141.942857 
L 211.01636 141.942857 
L 211.131051 141.942857 
L 211.245741 141.942857 
L 211.360432 141.942857 
L 211.475122 141.942857 
L 211.589813 141.942857 
L 211.704503 141.942857 
L 211.819194 141.942857 
L 211.933884 141.942857 
L 212.048575 141.942857 
L 212.163265 141.942857 
L 212.277956 141.942857 
L 212.392646 141.942857 
L 212.507337 141.942857 
L 212.622027 141.942857 
L 212.736718 141.942857 
L 212.851408 141.942857 
L 212.966099 141.942857 
L 213.080789 141.942857 
L 213.19548 141.942857 
L 213.31017 141.942857 
L 213.424861 141.942857 
L 213.539551 141.942857 
L 213.654242 141.942857 
L 213.768932 141.942857 
L 213.883623 141.942857 
L 213.998313 141.942857 
L 214.113004 141.942857 
L 214.227694 141.942857 
L 214.342385 141.942857 
L 214.457075 141.942857 
L 214.571766 141.942857 
L 214.686456 141.942857 
L 214.801147 141.942857 
L 214.915837 141.942857 
L 215.030528 141.942857 
L 215.145218 141.942857 
L 215.259909 141.942857 
L 215.374599 141.942857 
L 215.48929 141.942857 
L 215.60398 141.942857 
L 215.718671 141.942857 
L 215.833361 141.942857 
L 215.948052 141.942857 
L 216.062742 141.942857 
L 216.177433 141.942857 
L 216.292123 141.942857 
L 216.406814 141.942857 
L 216.521504 141.942857 
L 216.636195 141.942857 
L 216.750885 141.942857 
L 216.865576 141.942857 
L 216.980266 141.942857 
L 217.094957 141.942857 
L 217.209647 141.942857 
L 217.324338 141.942857 
L 217.439029 141.942857 
L 217.553719 141.942857 
L 217.66841 141.942857 
L 217.7831 141.942857 
L 217.897791 141.942857 
L 218.012481 141.942857 
L 218.127172 141.942857 
L 218.241862 141.942857 
L 218.356553 141.942857 
L 218.471243 141.942857 
" style="fill:none;stroke:#000000;stroke-dasharray:7.4,3.2;stroke-dashoffset:0;stroke-width:2;"/>
   </g>
   <g id="line2d_31">
    <path d="M 275.243043 96.065356 
L 275.357733 96.065356 
L 275.472424 96.065356 
L 275.587114 96.065356 
L 275.701805 96.065356 
L 275.816495 96.065356 
L 275.931186 96.065356 
L 276.045876 96.065356 
L 276.160567 96.065356 
L 276.275257 96.065356 
L 276.389948 96.065356 
L 276.504638 96.065356 
L 276.619329 96.065356 
L 276.734019 96.065356 
L 276.84871 96.065356 
L 276.9634 96.065356 
L 277.078091 96.065356 
L 277.192781 96.065356 
L 277.307472 96.065356 
L 277.422162 96.065356 
L 277.536853 96.065356 
L 277.651543 96.065356 
L 277.766234 96.065356 
L 277.880924 96.065356 
L 277.995615 96.065356 
L 278.110305 96.065356 
L 278.224996 96.065356 
L 278.339686 96.065356 
L 278.454377 96.065356 
L 278.569067 96.065356 
L 278.683758 96.065356 
L 278.798448 96.065356 
L 278.913139 96.065356 
L 279.027829 96.065356 
L 279.14252 96.065356 
L 279.25721 96.065356 
L 279.371901 96.065356 
L 279.486591 96.065356 
L 279.601282 96.065356 
L 279.715972 96.065356 
L 279.830663 96.065356 
L 279.945353 96.065356 
L 280.060044 96.065356 
L 280.174734 96.065356 
L 280.289425 96.065356 
L 280.404115 96.065356 
L 280.518806 96.065356 
L 280.633496 96.065356 
L 280.748187 96.065356 
L 280.862877 96.065356 
L 280.977568 96.065356 
L 281.092258 96.065356 
L 281.206949 96.065356 
L 281.321639 96.065356 
L 281.43633 96.065356 
L 281.55102 96.065356 
L 281.665711 96.065356 
L 281.780401 96.065356 
L 281.895092 96.065356 
L 282.009782 96.065356 
L 282.124473 96.065356 
L 282.239163 96.065356 
L 282.353854 96.065356 
L 282.468544 96.065356 
L 282.583235 96.065356 
L 282.697925 96.065356 
L 282.812616 96.065356 
L 282.927306 96.065356 
L 283.041997 96.065356 
L 283.156687 96.065356 
L 283.271378 96.065356 
L 283.386068 96.065356 
L 283.500759 96.065356 
L 283.615449 96.065356 
L 283.73014 96.065356 
L 283.84483 96.065356 
L 283.959521 96.065356 
L 284.074212 96.065356 
L 284.188902 96.065356 
L 284.303593 96.065356 
L 284.418283 96.065356 
L 284.532974 96.065356 
L 284.647664 96.065356 
L 284.762355 96.065356 
L 284.877045 96.065356 
L 284.991736 96.065356 
L 285.106426 96.065356 
L 285.221117 96.065356 
L 285.335807 96.065356 
L 285.450498 96.065356 
L 285.565188 96.065356 
L 285.679879 96.065356 
L 285.794569 96.065356 
L 285.90926 96.065356 
L 286.02395 96.065356 
L 286.138641 96.065356 
L 286.253331 96.065356 
L 286.368022 96.065356 
L 286.482712 96.065356 
L 286.597403 96.065356 
" style="fill:none;stroke:#000000;stroke-dasharray:7.4,3.2;stroke-dashoffset:0;stroke-width:2;"/>
   </g>
   <g id="line2d_32">
    <path clip-path="url(#pceb3c30336)" d="M 242.457965 147.085714 
L 242.457965 119.004107 
" style="fill:none;stroke:#000000;stroke-linecap:square;stroke-width:1.5;"/>
   </g>
   <g id="line2d_33">
    <path d="M 207.116883 96.065356 
L 286.597403 96.065356 
" style="fill:none;stroke:#000000;stroke-dasharray:1.5,2.475;stroke-dashoffset:0;stroke-width:1.5;"/>
   </g>
   <g id="line2d_34">
    <path d="M 207.116883 141.942857 
L 286.597403 141.942857 
" style="fill:none;stroke:#000000;stroke-dasharray:1.5,2.475;stroke-dashoffset:0;stroke-width:1.5;"/>
   </g>
   <g id="patch_6">
    <path d="M 203.142857 172.8 
L 203.142857 64.8 
" style="fill:none;stroke:#000000;stroke-linecap:square;stroke-linejoin:miter;stroke-width:0.25;"/>
   </g>
   <g id="patch_7">
    <path d="M 203.142857 172.8 
L 290.571429 172.8 
" style="fill:none;stroke:#000000;stroke-linecap:square;stroke-linejoin:miter;stroke-width:0.25;"/>
   </g>
   <g id="text_13">
    <text style="font-family:DejaVu Sans;font-size:6px;font-stretch:normal;font-style:normal;font-weight:normal;text-anchor:start;" transform="rotate(-0, 203.142857, 58.8)" x="203.142857" y="58.8">20 ((thr=1.94,slope=0.29))</text>
   </g>
  </g>
  <g id="axes_3">
   <g id="patch_8">
    <path d="M 334.285714 172.8 
L 421.714286 172.8 
L 421.714286 64.8 
L 334.285714 64.8 
z
" style="fill:#ffffff;"/>
   </g>
   <g id="matplotlib.axis_5">
    <g id="xtick_5">
     <g id="line2d_35">
      <g>
       <use style="stroke:#000000;stroke-width:0.25;" x="349.6141" xlink:href="#mb01b9aecc5" y="172.8"/>
      </g>
     </g>
     <g id="text_14">
      <text style="font-family:DejaVu Sans;font-size:10px;font-stretch:normal;font-style:normal;font-weight:normal;text-anchor:middle;" transform="rotate(-0, 349.6141, 187.398438)" x="349.6141" y="187.398438">0</text>
     </g>
    </g>
    <g id="xtick_6">
     <g id="line2d_36">
      <g>
       <use style="stroke:#000000;stroke-width:0.25;" x="420.57885" xlink:href="#mb01b9aecc5" y="172.8"/>
      </g>
     </g>
     <g id="text_15">
      <text style="font-family:DejaVu Sans;font-size:10px;font-stretch:normal;font-style:normal;font-weight:normal;text-anchor:middle;" transform="rotate(-0, 420.57885, 187.398438)" x="420.57885" y="187.398438">5</text>
     </g>
    </g>
    <g id="text_16">
     <text style="font-family:DejaVu Sans;font-size:15px;font-stretch:normal;font-style:normal;font-weight:normal;text-anchor:middle;" transform="rotate(-0, 378, 204.875781)" x="378" y="204.875781">Stimulus Level</text>
    </g>
   </g>
   <g id="matplotlib.axis_6">
    <g id="ytick_9">
     <g id="line2d_37">
      <g>
       <use style="stroke:#000000;stroke-width:0.25;" x="334.285714" xlink:href="#m51356be55a" y="157.371429"/>
      </g>
     </g>
    </g>
    <g id="ytick_10">
     <g id="line2d_38">
      <g>
       <use style="stroke:#000000;stroke-width:0.25;" x="334.285714" xlink:href="#m51356be55a" y="126.514286"/>
      </g>
     </g>
    </g>
    <g id="ytick_11">
     <g id="line2d_39">
      <g>
       <use style="stroke:#000000;stroke-width:0.25;" x="334.285714" xlink:href="#m51356be55a" y="95.657143"/>
      </g>
     </g>
    </g>
    <g id="ytick_12">
     <g id="line2d_40">
      <g>
       <use style="stroke:#000000;stroke-width:0.25;" x="334.285714" xlink:href="#m51356be55a" y="64.8"/>
      </g>
     </g>
    </g>
   </g>
   <g id="line2d_41">
    <g>
     <use style="fill:#0069aa;stroke:#0069aa;" x="349.6141" xlink:href="#ma7dcaa83f4" y="152.228571"/>
    </g>
   </g>
   <g id="line2d_42">
    <g>
     <use style="fill:#0069aa;stroke:#0069aa;" x="363.80705" xlink:href="#ma7dcaa83f4" y="105.942857"/>
    </g>
   </g>
   <g id="line2d_43">
    <g>
     <use style="fill:#0069aa;stroke:#0069aa;" x="378" xlink:href="#ma7dcaa83f4" y="80.228571"/>
    </g>
   </g>
   <g id="line2d_44">
    <g>
     <use style="fill:#0069aa;stroke:#0069aa;" x="392.19295" xlink:href="#ma7dcaa83f4" y="80.228571"/>
    </g>
   </g>
   <g id="line2d_45">
    <g>
     <use style="fill:#0069aa;stroke:#0069aa;" x="406.3859" xlink:href="#ma7dcaa83f4" y="75.085714"/>
    </g>
   </g>
   <g id="line2d_46">
    <path d="M 349.6141 141.939344 
L 353.080647 141.818467 
L 354.387705 141.564428 
L 355.296963 141.18045 
L 356.092564 140.602657 
L 356.831336 139.769242 
L 357.51328 138.659441 
L 358.252052 136.991546 
L 358.990824 134.7463 
L 359.786425 131.601732 
L 360.695683 127.048577 
L 361.775427 120.430394 
L 363.480285 108.336776 
L 365.35563 95.457163 
L 366.492203 89.167443 
L 367.458289 85.053379 
L 368.310719 82.359589 
L 369.10632 80.547532 
L 369.845092 79.366393 
L 370.640693 78.513353 
L 371.436293 77.977217 
L 372.40238 77.608333 
L 373.65261 77.392423 
L 375.755269 77.295059 
L 384.336392 77.281078 
L 406.3859 77.281078 
L 406.3859 77.281078 
" style="fill:none;stroke:#000000;stroke-linecap:square;stroke-width:2;"/>
   </g>
   <g id="line2d_47">
    <path d="M 338.25974 141.942857 
L 338.374431 141.942857 
L 338.489121 141.942857 
L 338.603812 141.942857 
L 338.718502 141.942857 
L 338.833193 141.942857 
L 338.947883 141.942857 
L 339.062574 141.942857 
L 339.177264 141.942857 
L 339.291955 141.942857 
L 339.406645 141.942857 
L 339.521336 141.942857 
L 339.636026 141.942857 
L 339.750717 141.942857 
L 339.865407 141.942857 
L 339.980098 141.942857 
L 340.094788 141.942857 
L 340.209479 141.942857 
L 340.324169 141.942857 
L 340.43886 141.942857 
L 340.55355 141.942857 
L 340.668241 141.942857 
L 340.782931 141.942857 
L 340.897622 141.942857 
L 341.012312 141.942857 
L 341.127003 141.942857 
L 341.241693 141.942857 
L 341.356384 141.942857 
L 341.471074 141.942857 
L 341.585765 141.942857 
L 341.700455 141.942857 
L 341.815146 141.942857 
L 341.929836 141.942857 
L 342.044527 141.942857 
L 342.159217 141.942857 
L 342.273908 141.942857 
L 342.388598 141.942857 
L 342.503289 141.942857 
L 342.617979 141.942857 
L 342.73267 141.942857 
L 342.84736 141.942857 
L 342.962051 141.942857 
L 343.076741 141.942857 
L 343.191432 141.942857 
L 343.306122 141.942857 
L 343.420813 141.942857 
L 343.535503 141.942856 
L 343.650194 141.942856 
L 343.764884 141.942856 
L 343.879575 141.942856 
L 343.994265 141.942856 
L 344.108956 141.942855 
L 344.223646 141.942855 
L 344.338337 141.942854 
L 344.453027 141.942854 
L 344.567718 141.942853 
L 344.682409 141.942853 
L 344.797099 141.942852 
L 344.91179 141.942851 
L 345.02648 141.942849 
L 345.141171 141.942848 
L 345.255861 141.942846 
L 345.370552 141.942844 
L 345.485242 141.942842 
L 345.599933 141.942839 
L 345.714623 141.942836 
L 345.829314 141.942832 
L 345.944004 141.942827 
L 346.058695 141.942822 
L 346.173385 141.942816 
L 346.288076 141.942808 
L 346.402766 141.9428 
L 346.517457 141.94279 
L 346.632147 141.942778 
L 346.746838 141.942765 
L 346.861528 141.942749 
L 346.976219 141.942731 
L 347.090909 141.942709 
L 347.2056 141.942685 
L 347.32029 141.942656 
L 347.434981 141.942623 
L 347.549671 141.942585 
L 347.664362 141.94254 
L 347.779052 141.942489 
L 347.893743 141.94243 
L 348.008433 141.942362 
L 348.123124 141.942284 
L 348.237814 141.942195 
L 348.352505 141.942091 
L 348.467195 141.941973 
L 348.581886 141.941838 
L 348.696576 141.941683 
L 348.811267 141.941506 
L 348.925957 141.941304 
L 349.040648 141.941073 
L 349.155338 141.94081 
L 349.270029 141.94051 
L 349.384719 141.94017 
L 349.49941 141.939783 
L 349.6141 141.939344 
" style="fill:none;stroke:#000000;stroke-dasharray:7.4,3.2;stroke-dashoffset:0;stroke-width:2;"/>
   </g>
   <g id="line2d_48">
    <path d="M 406.3859 77.281078 
L 406.50059 77.281078 
L 406.615281 77.281078 
L 406.729971 77.281078 
L 406.844662 77.281078 
L 406.959352 77.281078 
L 407.074043 77.281078 
L 407.188733 77.281078 
L 407.303424 77.281078 
L 407.418114 77.281078 
L 407.532805 77.281078 
L 407.647495 77.281078 
L 407.762186 77.281078 
L 407.876876 77.281078 
L 407.991567 77.281078 
L 408.106257 77.281078 
L 408.220948 77.281078 
L 408.335638 77.281078 
L 408.450329 77.281078 
L 408.565019 77.281078 
L 408.67971 77.281078 
L 408.7944 77.281078 
L 408.909091 77.281078 
L 409.023781 77.281078 
L 409.138472 77.281078 
L 409.253162 77.281078 
L 409.367853 77.281078 
L 409.482543 77.281078 
L 409.597234 77.281078 
L 409.711924 77.281078 
L 409.826615 77.281078 
L 409.941305 77.281078 
L 410.055996 77.281078 
L 410.170686 77.281078 
L 410.285377 77.281078 
L 410.400067 77.281078 
L 410.514758 77.281078 
L 410.629448 77.281078 
L 410.744139 77.281078 
L 410.858829 77.281078 
L 410.97352 77.281078 
L 411.08821 77.281078 
L 411.202901 77.281078 
L 411.317591 77.281078 
L 411.432282 77.281078 
L 411.546973 77.281078 
L 411.661663 77.281078 
L 411.776354 77.281078 
L 411.891044 77.281078 
L 412.005735 77.281078 
L 412.120425 77.281078 
L 412.235116 77.281078 
L 412.349806 77.281078 
L 412.464497 77.281078 
L 412.579187 77.281078 
L 412.693878 77.281078 
L 412.808568 77.281078 
L 412.923259 77.281078 
L 413.037949 77.281078 
L 413.15264 77.281078 
L 413.26733 77.281078 
L 413.382021 77.281078 
L 413.496711 77.281078 
L 413.611402 77.281078 
L 413.726092 77.281078 
L 413.840783 77.281078 
L 413.955473 77.281078 
L 414.070164 77.281078 
L 414.184854 77.281078 
L 414.299545 77.281078 
L 414.414235 77.281078 
L 414.528926 77.281078 
L 414.643616 77.281078 
L 414.758307 77.281078 
L 414.872997 77.281078 
L 414.987688 77.281078 
L 415.102378 77.281078 
L 415.217069 77.281078 
L 415.331759 77.281078 
L 415.44645 77.281078 
L 415.56114 77.281078 
L 415.675831 77.281078 
L 415.790521 77.281078 
L 415.905212 77.281078 
L 416.019902 77.281078 
L 416.134593 77.281078 
L 416.249283 77.281078 
L 416.363974 77.281078 
L 416.478664 77.281078 
L 416.593355 77.281078 
L 416.708045 77.281078 
L 416.822736 77.281078 
L 416.937426 77.281078 
L 417.052117 77.281078 
L 417.166807 77.281078 
L 417.281498 77.281078 
L 417.396188 77.281078 
L 417.510879 77.281078 
L 417.625569 77.281078 
L 417.74026 77.281078 
" style="fill:none;stroke:#000000;stroke-dasharray:7.4,3.2;stroke-dashoffset:0;stroke-width:2;"/>
   </g>
   <g id="line2d_49">
    <path clip-path="url(#pafb6595e85)" d="M 363.305347 152.228571 
L 363.305347 109.611967 
" style="fill:none;stroke:#000000;stroke-linecap:square;stroke-width:1.5;"/>
   </g>
   <g id="line2d_50">
    <path d="M 338.25974 77.281078 
L 417.74026 77.281078 
" style="fill:none;stroke:#000000;stroke-dasharray:1.5,2.475;stroke-dashoffset:0;stroke-width:1.5;"/>
   </g>
   <g id="line2d_51">
    <path d="M 338.25974 141.942857 
L 417.74026 141.942857 
" style="fill:none;stroke:#000000;stroke-dasharray:1.5,2.475;stroke-dashoffset:0;stroke-width:1.5;"/>
   </g>
   <g id="patch_9">
    <path d="M 334.285714 172.8 
L 334.285714 64.8 
" style="fill:none;stroke:#000000;stroke-linecap:square;stroke-linejoin:miter;stroke-width:0.25;"/>
   </g>
   <g id="patch_10">
    <path d="M 334.285714 172.8 
L 421.714286 172.8 
" style="fill:none;stroke:#000000;stroke-linecap:square;stroke-linejoin:miter;stroke-width:0.25;"/>
   </g>
   <g id="text_17">
    <text style="font-family:DejaVu Sans;font-size:6px;font-stretch:normal;font-style:normal;font-weight:normal;text-anchor:start;" transform="rotate(-0, 334.285714, 58.8)" x="334.285714" y="58.8">30 ((thr=1.03,slope=0.65))</text>
   </g>
  </g>
  <g id="axes_4">
   <g id="patch_11">
    <path d="M 465.428571 172.8 
L 552.857143 172.8 
L 552.857143 64.8 
L 465.428571 64.8 
z
" style="fill:#ffffff;"/>
   </g>
   <g id="matplotlib.axis_7">
    <g id="xtick_7">
     <g id="line2d_52">
      <g>
       <use style="stroke:#000000;stroke-width:0.25;" x="480.756957" xlink:href="#mb01b9aecc5" y="172.8"/>
      </g>
     </g>
     <g id="text_18">
      <text style="font-family:DejaVu Sans;font-size:10px;font-stretch:normal;font-style:normal;font-weight:normal;text-anchor:middle;" transform="rotate(-0, 480.756957, 187.398438)" x="480.756957" y="187.398438">0</text>
     </g>
    </g>
    <g id="xtick_8">
     <g id="line2d_53">
      <g>
       <use style="stroke:#000000;stroke-width:0.25;" x="551.721707" xlink:href="#mb01b9aecc5" y="172.8"/>
      </g>
     </g>
     <g id="text_19">
      <text style="font-family:DejaVu Sans;font-size:10px;font-stretch:normal;font-style:normal;font-weight:normal;text-anchor:middle;" transform="rotate(-0, 551.721707, 187.398438)" x="551.721707" y="187.398438">5</text>
     </g>
    </g>
    <g id="text_20">
     <text style="font-family:DejaVu Sans;font-size:15px;font-stretch:normal;font-style:normal;font-weight:normal;text-anchor:middle;" transform="rotate(-0, 509.142857, 204.875781)" x="509.142857" y="204.875781">Stimulus Level</text>
    </g>
   </g>
   <g id="matplotlib.axis_8">
    <g id="ytick_13">
     <g id="line2d_54">
      <g>
       <use style="stroke:#000000;stroke-width:0.25;" x="465.428571" xlink:href="#m51356be55a" y="157.371429"/>
      </g>
     </g>
    </g>
    <g id="ytick_14">
     <g id="line2d_55">
      <g>
       <use style="stroke:#000000;stroke-width:0.25;" x="465.428571" xlink:href="#m51356be55a" y="126.514286"/>
      </g>
     </g>
    </g>
    <g id="ytick_15">
     <g id="line2d_56">
      <g>
       <use style="stroke:#000000;stroke-width:0.25;" x="465.428571" xlink:href="#m51356be55a" y="95.657143"/>
      </g>
     </g>
    </g>
    <g id="ytick_16">
     <g id="line2d_57">
      <g>
       <use style="stroke:#000000;stroke-width:0.25;" x="465.428571" xlink:href="#m51356be55a" y="64.8"/>
      </g>
     </g>
    </g>
   </g>
   <g id="line2d_58">
    <g>
     <use style="fill:#0069aa;stroke:#0069aa;" x="480.756957" xlink:href="#ma7dcaa83f4" y="147.085714"/>
    </g>
   </g>
   <g id="line2d_59">
    <g>
     <use style="fill:#0069aa;stroke:#0069aa;" x="494.949907" xlink:href="#ma7dcaa83f4" y="85.371429"/>
    </g>
   </g>
   <g id="line2d_60">
    <g>
     <use style="fill:#0069aa;stroke:#0069aa;" x="509.142857" xlink:href="#ma7dcaa83f4" y="75.085714"/>
    </g>
   </g>
   <g id="line2d_61">
    <g>
     <use style="fill:#0069aa;stroke:#0069aa;" x="523.335807" xlink:href="#ma7dcaa83f4" y="64.8"/>
    </g>
   </g>
   <g id="line2d_62">
    <g>
     <use style="fill:#0069aa;stroke:#0069aa;" x="537.528757" xlink:href="#ma7dcaa83f4" y="64.8"/>
    </g>
   </g>
   <g id="line2d_63">
    <path d="M 480.756957 133.028182 
L 482.29133 130.632445 
L 483.882532 127.727778 
L 485.587391 124.145557 
L 487.519564 119.538661 
L 489.792709 113.498182 
L 493.031941 104.175126 
L 497.578231 91.162814 
L 499.908205 85.191002 
L 501.840378 80.8223 
L 503.602066 77.36766 
L 505.250096 74.611125 
L 506.841298 72.378321 
L 508.375671 70.601586 
L 509.910044 69.161663 
L 511.444417 68.019412 
L 513.035618 67.103975 
L 514.740477 66.37412 
L 516.67265 65.79355 
L 518.888967 65.364434 
L 521.67357 65.061839 
L 525.594745 64.879514 
L 532.868809 64.806164 
L 537.528757 64.800943 
L 537.528757 64.800943 
" style="fill:none;stroke:#000000;stroke-linecap:square;stroke-width:2;"/>
   </g>
   <g id="line2d_64">
    <path d="M 469.402597 141.07309 
L 469.517288 141.047795 
L 469.631978 141.021863 
L 469.746669 140.995283 
L 469.861359 140.96804 
L 469.97605 140.940123 
L 470.09074 140.911516 
L 470.205431 140.882208 
L 470.320121 140.852184 
L 470.434812 140.82143 
L 470.549502 140.789933 
L 470.664193 140.757678 
L 470.778883 140.724652 
L 470.893574 140.69084 
L 471.008264 140.656226 
L 471.122955 140.620797 
L 471.237645 140.584538 
L 471.352336 140.547434 
L 471.467026 140.509468 
L 471.581717 140.470627 
L 471.696407 140.430895 
L 471.811098 140.390256 
L 471.925788 140.348694 
L 472.040479 140.306194 
L 472.15517 140.262739 
L 472.26986 140.218314 
L 472.384551 140.172902 
L 472.499241 140.126487 
L 472.613932 140.079052 
L 472.728622 140.030581 
L 472.843313 139.981057 
L 472.958003 139.930463 
L 473.072694 139.878783 
L 473.187384 139.825999 
L 473.302075 139.772094 
L 473.416765 139.717051 
L 473.531456 139.660853 
L 473.646146 139.603482 
L 473.760837 139.544921 
L 473.875527 139.485152 
L 473.990218 139.424159 
L 474.104908 139.361922 
L 474.219599 139.298424 
L 474.334289 139.233649 
L 474.44898 139.167577 
L 474.56367 139.100191 
L 474.678361 139.031472 
L 474.793051 138.961404 
L 474.907742 138.889969 
L 475.022432 138.817147 
L 475.137123 138.742921 
L 475.251813 138.667274 
L 475.366504 138.590186 
L 475.481194 138.511641 
L 475.595885 138.43162 
L 475.710575 138.350105 
L 475.825266 138.267078 
L 475.939956 138.182522 
L 476.054647 138.096418 
L 476.169337 138.008748 
L 476.284028 137.919496 
L 476.398718 137.828643 
L 476.513409 137.736171 
L 476.628099 137.642063 
L 476.74279 137.546302 
L 476.85748 137.44887 
L 476.972171 137.349749 
L 477.086861 137.248923 
L 477.201552 137.146375 
L 477.316242 137.042088 
L 477.430933 136.936044 
L 477.545623 136.828228 
L 477.660314 136.718622 
L 477.775004 136.607211 
L 477.889695 136.493978 
L 478.004385 136.378907 
L 478.119076 136.261983 
L 478.233766 136.143189 
L 478.348457 136.02251 
L 478.463147 135.899932 
L 478.577838 135.775438 
L 478.692528 135.649015 
L 478.807219 135.520648 
L 478.921909 135.390322 
L 479.0366 135.258024 
L 479.15129 135.123739 
L 479.265981 134.987454 
L 479.380671 134.849157 
L 479.495362 134.708833 
L 479.610052 134.566471 
L 479.724743 134.422058 
L 479.839433 134.275582 
L 479.954124 134.127032 
L 480.068814 133.976395 
L 480.183505 133.823662 
L 480.298195 133.668821 
L 480.412886 133.511862 
L 480.527576 133.352776 
L 480.642267 133.191552 
L 480.756957 133.028182 
" style="fill:none;stroke:#000000;stroke-dasharray:7.4,3.2;stroke-dashoffset:0;stroke-width:2;"/>
   </g>
   <g id="line2d_65">
    <path d="M 537.528757 64.800943 
L 537.643447 64.800899 
L 537.758138 64.800856 
L 537.872828 64.800815 
L 537.987519 64.800776 
L 538.102209 64.800739 
L 538.2169 64.800704 
L 538.33159 64.80067 
L 538.446281 64.800638 
L 538.560971 64.800607 
L 538.675662 64.800578 
L 538.790353 64.80055 
L 538.905043 64.800523 
L 539.019734 64.800498 
L 539.134424 64.800473 
L 539.249115 64.80045 
L 539.363805 64.800428 
L 539.478496 64.800407 
L 539.593186 64.800387 
L 539.707877 64.800368 
L 539.822567 64.80035 
L 539.937258 64.800333 
L 540.051948 64.800316 
L 540.166639 64.800301 
L 540.281329 64.800286 
L 540.39602 64.800271 
L 540.51071 64.800258 
L 540.625401 64.800245 
L 540.740091 64.800233 
L 540.854782 64.800221 
L 540.969472 64.80021 
L 541.084163 64.800199 
L 541.198853 64.800189 
L 541.313544 64.80018 
L 541.428234 64.800171 
L 541.542925 64.800162 
L 541.657615 64.800154 
L 541.772306 64.800146 
L 541.886996 64.800138 
L 542.001687 64.800131 
L 542.116377 64.800125 
L 542.231068 64.800118 
L 542.345758 64.800112 
L 542.460449 64.800106 
L 542.575139 64.800101 
L 542.68983 64.800096 
L 542.80452 64.800091 
L 542.919211 64.800086 
L 543.033901 64.800082 
L 543.148592 64.800077 
L 543.263282 64.800073 
L 543.377973 64.80007 
L 543.492663 64.800066 
L 543.607354 64.800063 
L 543.722044 64.800059 
L 543.836735 64.800056 
L 543.951425 64.800053 
L 544.066116 64.80005 
L 544.180806 64.800048 
L 544.295497 64.800045 
L 544.410187 64.800043 
L 544.524878 64.800041 
L 544.639568 64.800039 
L 544.754259 64.800037 
L 544.868949 64.800035 
L 544.98364 64.800033 
L 545.09833 64.800031 
L 545.213021 64.80003 
L 545.327711 64.800028 
L 545.442402 64.800027 
L 545.557092 64.800025 
L 545.671783 64.800024 
L 545.786473 64.800023 
L 545.901164 64.800021 
L 546.015854 64.80002 
L 546.130545 64.800019 
L 546.245235 64.800018 
L 546.359926 64.800017 
L 546.474616 64.800016 
L 546.589307 64.800016 
L 546.703997 64.800015 
L 546.818688 64.800014 
L 546.933378 64.800013 
L 547.048069 64.800013 
L 547.162759 64.800012 
L 547.27745 64.800011 
L 547.39214 64.800011 
L 547.506831 64.80001 
L 547.621521 64.80001 
L 547.736212 64.800009 
L 547.850902 64.800009 
L 547.965593 64.800008 
L 548.080283 64.800008 
L 548.194974 64.800008 
L 548.309664 64.800007 
L 548.424355 64.800007 
L 548.539045 64.800007 
L 548.653736 64.800006 
L 548.768426 64.800006 
L 548.883117 64.800006 
" style="fill:none;stroke:#000000;stroke-dasharray:7.4,3.2;stroke-dashoffset:0;stroke-width:2;"/>
   </g>
   <g id="line2d_66">
    <path clip-path="url(#p1d3a8c6df8)" d="M 493.305636 147.085714 
L 493.305636 103.371429 
" style="fill:none;stroke:#000000;stroke-linecap:square;stroke-width:1.5;"/>
   </g>
   <g id="line2d_67">
    <path d="M 469.402597 64.800001 
L 548.883117 64.800001 
" style="fill:none;stroke:#000000;stroke-dasharray:1.5,2.475;stroke-dashoffset:0;stroke-width:1.5;"/>
   </g>
   <g id="line2d_68">
    <path d="M 469.402597 141.942857 
L 548.883117 141.942857 
" style="fill:none;stroke:#000000;stroke-dasharray:1.5,2.475;stroke-dashoffset:0;stroke-width:1.5;"/>
   </g>
   <g id="patch_12">
    <path d="M 465.428571 172.8 
L 465.428571 64.8 
" style="fill:none;stroke:#000000;stroke-linecap:square;stroke-linejoin:miter;stroke-width:0.25;"/>
   </g>
   <g id="patch_13">
    <path d="M 465.428571 172.8 
L 552.857143 172.8 
" style="fill:none;stroke:#000000;stroke-linecap:square;stroke-linejoin:miter;stroke-width:0.25;"/>
   </g>
   <g id="text_21">
    <text style="font-family:DejaVu Sans;font-size:6px;font-stretch:normal;font-style:normal;font-weight:normal;text-anchor:start;" transform="rotate(-0, 465.428571, 58.8)" x="465.428571" y="58.8">40 ((thr=0.88,slope=0.27))</text>
   </g>
  </g>
  <g id="axes_5">
   <g id="patch_14">
    <path d="M 596.571429 172.8 
L 684 172.8 
L 684 64.8 
L 596.571429 64.8 
z
" style="fill:#ffffff;"/>
   </g>
   <g id="matplotlib.axis_9">
    <g id="xtick_9">
     <g id="line2d_69">
      <g>
       <use style="stroke:#000000;stroke-width:0.25;" x="611.899814" xlink:href="#mb01b9aecc5" y="172.8"/>
      </g>
     </g>
     <g id="text_22">
      <text style="font-family:DejaVu Sans;font-size:10px;font-stretch:normal;font-style:normal;font-weight:normal;text-anchor:middle;" transform="rotate(-0, 611.899814, 187.398438)" x="611.899814" y="187.398438">0</text>
     </g>
    </g>
    <g id="xtick_10">
     <g id="line2d_70">
      <g>
       <use style="stroke:#000000;stroke-width:0.25;" x="682.864564" xlink:href="#mb01b9aecc5" y="172.8"/>
      </g>
     </g>
     <g id="text_23">
      <text style="font-family:DejaVu Sans;font-size:10px;font-stretch:normal;font-style:normal;font-weight:normal;text-anchor:middle;" transform="rotate(-0, 682.864564, 187.398438)" x="682.864564" y="187.398438">5</text>
     </g>
    </g>
    <g id="text_24">
     <text style="font-family:DejaVu Sans;font-size:15px;font-stretch:normal;font-style:normal;font-weight:normal;text-anchor:middle;" transform="rotate(-0, 640.285714, 204.875781)" x="640.285714" y="204.875781">Stimulus Level</text>
    </g>
   </g>
   <g id="matplotlib.axis_10">
    <g id="ytick_17">
     <g id="line2d_71">
      <g>
       <use style="stroke:#000000;stroke-width:0.25;" x="596.571429" xlink:href="#m51356be55a" y="157.371429"/>
      </g>
     </g>
    </g>
    <g id="ytick_18">
     <g id="line2d_72">
      <g>
       <use style="stroke:#000000;stroke-width:0.25;" x="596.571429" xlink:href="#m51356be55a" y="126.514286"/>
      </g>
     </g>
    </g>
    <g id="ytick_19">
     <g id="line2d_73">
      <g>
       <use style="stroke:#000000;stroke-width:0.25;" x="596.571429" xlink:href="#m51356be55a" y="95.657143"/>
      </g>
     </g>
    </g>
    <g id="ytick_20">
     <g id="line2d_74">
      <g>
       <use style="stroke:#000000;stroke-width:0.25;" x="596.571429" xlink:href="#m51356be55a" y="64.8"/>
      </g>
     </g>
    </g>
   </g>
   <g id="line2d_75">
    <g>
     <use style="fill:#0069aa;stroke:#0069aa;" x="611.899814" xlink:href="#ma7dcaa83f4" y="136.8"/>
    </g>
   </g>
   <g id="line2d_76">
    <g>
     <use style="fill:#0069aa;stroke:#0069aa;" x="626.092764" xlink:href="#ma7dcaa83f4" y="111.085714"/>
    </g>
   </g>
   <g id="line2d_77">
    <g>
     <use style="fill:#0069aa;stroke:#0069aa;" x="640.285714" xlink:href="#ma7dcaa83f4" y="85.371429"/>
    </g>
   </g>
   <g id="line2d_78">
    <g>
     <use style="fill:#0069aa;stroke:#0069aa;" x="654.478664" xlink:href="#ma7dcaa83f4" y="69.942857"/>
    </g>
   </g>
   <g id="line2d_79">
    <g>
     <use style="fill:#0069aa;stroke:#0069aa;" x="668.671614" xlink:href="#ma7dcaa83f4" y="69.942857"/>
    </g>
   </g>
   <g id="line2d_80">
    <path d="M 611.899814 138.42301 
L 613.491016 137.227557 
L 615.025389 135.797045 
L 616.559762 134.063207 
L 618.150964 131.919596 
L 619.798994 129.312297 
L 621.560681 126.088348 
L 623.492855 122.05996 
L 625.709171 116.889235 
L 628.550603 109.649726 
L 635.199552 92.506377 
L 637.472697 87.383008 
L 639.404871 83.545865 
L 641.223387 80.419133 
L 642.928245 77.926372 
L 644.576276 75.910019 
L 646.167477 74.307098 
L 647.758679 73.010577 
L 649.406709 71.951532 
L 651.168397 71.090092 
L 653.043741 70.422767 
L 655.203229 69.899157 
L 657.760517 69.519116 
L 661.056578 69.267344 
L 666.057497 69.131692 
L 668.671614 69.109577 
L 668.671614 69.109577 
" style="fill:none;stroke:#000000;stroke-linecap:square;stroke-width:2;"/>
   </g>
   <g id="line2d_81">
    <path d="M 600.545455 141.688046 
L 600.660145 141.679927 
L 600.774836 141.671577 
L 600.889526 141.662989 
L 601.004217 141.654159 
L 601.118907 141.64508 
L 601.233598 141.635746 
L 601.348288 141.626152 
L 601.462979 141.61629 
L 601.577669 141.606156 
L 601.69236 141.595741 
L 601.80705 141.58504 
L 601.921741 141.574047 
L 602.036431 141.562753 
L 602.151122 141.551153 
L 602.265812 141.539239 
L 602.380503 141.527004 
L 602.495193 141.514442 
L 602.609884 141.501543 
L 602.724574 141.488302 
L 602.839265 141.47471 
L 602.953955 141.46076 
L 603.068646 141.446443 
L 603.183336 141.431753 
L 603.298027 141.416679 
L 603.412717 141.401216 
L 603.527408 141.385353 
L 603.642098 141.369082 
L 603.756789 141.352396 
L 603.871479 141.335284 
L 603.98617 141.317738 
L 604.10086 141.29975 
L 604.215551 141.281309 
L 604.330241 141.262407 
L 604.444932 141.243035 
L 604.559622 141.223181 
L 604.674313 141.202838 
L 604.789003 141.181995 
L 604.903694 141.160642 
L 605.018384 141.138769 
L 605.133075 141.116367 
L 605.247765 141.093423 
L 605.362456 141.069929 
L 605.477146 141.045874 
L 605.591837 141.021246 
L 605.706527 140.996035 
L 605.821218 140.97023 
L 605.935908 140.94382 
L 606.050599 140.916793 
L 606.165289 140.889139 
L 606.27998 140.860846 
L 606.39467 140.831901 
L 606.509361 140.802295 
L 606.624051 140.772013 
L 606.738742 140.741046 
L 606.853432 140.70938 
L 606.968123 140.677003 
L 607.082813 140.643903 
L 607.197504 140.610068 
L 607.312194 140.575484 
L 607.426885 140.54014 
L 607.541575 140.504023 
L 607.656266 140.467119 
L 607.770956 140.429416 
L 607.885647 140.3909 
L 608.000337 140.351559 
L 608.115028 140.311378 
L 608.229718 140.270346 
L 608.344409 140.228447 
L 608.459099 140.185669 
L 608.57379 140.141998 
L 608.68848 140.097421 
L 608.803171 140.051922 
L 608.917861 140.005489 
L 609.032552 139.958107 
L 609.147242 139.909762 
L 609.261933 139.86044 
L 609.376623 139.810127 
L 609.491314 139.758809 
L 609.606004 139.70647 
L 609.720695 139.653098 
L 609.835385 139.598677 
L 609.950076 139.543192 
L 610.064766 139.486629 
L 610.179457 139.428974 
L 610.294147 139.370212 
L 610.408838 139.310328 
L 610.523528 139.249307 
L 610.638219 139.187135 
L 610.752909 139.123797 
L 610.8676 139.059278 
L 610.98229 138.993562 
L 611.096981 138.926637 
L 611.211671 138.858485 
L 611.326362 138.789093 
L 611.441052 138.718446 
L 611.555743 138.646529 
L 611.670433 138.573328 
L 611.785124 138.498826 
L 611.899814 138.42301 
" style="fill:none;stroke:#000000;stroke-dasharray:7.4,3.2;stroke-dashoffset:0;stroke-width:2;"/>
   </g>
   <g id="line2d_82">
    <path d="M 668.671614 69.109577 
L 668.786305 69.108962 
L 668.900995 69.108369 
L 669.015686 69.107797 
L 669.130376 69.107247 
L 669.245067 69.106716 
L 669.359757 69.106205 
L 669.474448 69.105712 
L 669.589138 69.105238 
L 669.703829 69.104781 
L 669.818519 69.104342 
L 669.93321 69.103918 
L 670.0479 69.103511 
L 670.162591 69.103118 
L 670.277281 69.102741 
L 670.391972 69.102377 
L 670.506662 69.102027 
L 670.621353 69.101691 
L 670.736043 69.101367 
L 670.850734 69.101056 
L 670.965424 69.100756 
L 671.080115 69.100468 
L 671.194805 69.100191 
L 671.309496 69.099924 
L 671.424186 69.099668 
L 671.538877 69.099422 
L 671.653567 69.099185 
L 671.768258 69.098958 
L 671.882948 69.098739 
L 671.997639 69.098529 
L 672.112329 69.098327 
L 672.22702 69.098133 
L 672.34171 69.097947 
L 672.456401 69.097768 
L 672.571091 69.097596 
L 672.685782 69.097431 
L 672.800472 69.097272 
L 672.915163 69.09712 
L 673.029853 69.096974 
L 673.144544 69.096834 
L 673.259234 69.096699 
L 673.373925 69.09657 
L 673.488615 69.096446 
L 673.603306 69.096327 
L 673.717996 69.096213 
L 673.832687 69.096104 
L 673.947377 69.095999 
L 674.062068 69.095898 
L 674.176758 69.095802 
L 674.291449 69.095709 
L 674.406139 69.09562 
L 674.52083 69.095535 
L 674.63552 69.095454 
L 674.750211 69.095376 
L 674.864901 69.095301 
L 674.979592 69.095229 
L 675.094282 69.09516 
L 675.208973 69.095095 
L 675.323663 69.095032 
L 675.438354 69.094971 
L 675.553044 69.094913 
L 675.667735 69.094858 
L 675.782425 69.094805 
L 675.897116 69.094754 
L 676.011806 69.094705 
L 676.126497 69.094659 
L 676.241187 69.094614 
L 676.355878 69.094572 
L 676.470568 69.094531 
L 676.585259 69.094492 
L 676.699949 69.094455 
L 676.81464 69.094419 
L 676.92933 69.094385 
L 677.044021 69.094352 
L 677.158711 69.094321 
L 677.273402 69.094291 
L 677.388092 69.094263 
L 677.502783 69.094235 
L 677.617473 69.094209 
L 677.732164 69.094184 
L 677.846854 69.094161 
L 677.961545 69.094138 
L 678.076235 69.094116 
L 678.190926 69.094095 
L 678.305616 69.094075 
L 678.420307 69.094056 
L 678.534997 69.094038 
L 678.649688 69.094021 
L 678.764378 69.094005 
L 678.879069 69.093989 
L 678.993759 69.093974 
L 679.10845 69.09396 
L 679.22314 69.093946 
L 679.337831 69.093933 
L 679.452522 69.09392 
L 679.567212 69.093908 
L 679.681903 69.093897 
L 679.796593 69.093886 
L 679.911284 69.093876 
L 680.025974 69.093866 
" style="fill:none;stroke:#000000;stroke-dasharray:7.4,3.2;stroke-dashoffset:0;stroke-width:2;"/>
   </g>
   <g id="line2d_83">
    <path clip-path="url(#p76697f3775)" d="M 630.11442 141.942857 
L 630.11442 105.518265 
" style="fill:none;stroke:#000000;stroke-linecap:square;stroke-width:1.5;"/>
   </g>
   <g id="line2d_84">
    <path d="M 600.545455 69.093673 
L 680.025974 69.093673 
" style="fill:none;stroke:#000000;stroke-dasharray:1.5,2.475;stroke-dashoffset:0;stroke-width:1.5;"/>
   </g>
   <g id="line2d_85">
    <path d="M 600.545455 141.942857 
L 680.025974 141.942857 
" style="fill:none;stroke:#000000;stroke-dasharray:1.5,2.475;stroke-dashoffset:0;stroke-width:1.5;"/>
   </g>
   <g id="patch_15">
    <path d="M 596.571429 172.8 
L 596.571429 64.8 
" style="fill:none;stroke:#000000;stroke-linecap:square;stroke-linejoin:miter;stroke-width:0.25;"/>
   </g>
   <g id="patch_16">
    <path d="M 596.571429 172.8 
L 684 172.8 
" style="fill:none;stroke:#000000;stroke-linecap:square;stroke-linejoin:miter;stroke-width:0.25;"/>
   </g>
   <g id="text_25">
    <text style="font-family:DejaVu Sans;font-size:6px;font-stretch:normal;font-style:normal;font-weight:normal;text-anchor:start;" transform="rotate(-0, 596.571429, 58.8)" x="596.571429" y="58.8">50 ((thr=1.34,slope=0.24))</text>
   </g>
  </g>
  <g id="text_26">
   <text style="font-family:DejaVu Sans;font-size:12px;font-stretch:normal;font-style:normal;font-weight:normal;text-anchor:start;" transform="rotate(-0, 36, 32.4)" x="36" y="32.4">Cell 8 (20190507_JC083_fov1, V1)</text>
  </g>
  <g id="text_27">
   <text style="font-family:DejaVu Sans;font-size:8px;font-stretch:normal;font-style:normal;font-weight:normal;text-anchor:start;" transform="rotate(-0, 0, 6.07875)" x="0" y="6.07875">neuraldata_traces001_dff_ROC-thr-0.05_plushalf_noRF</text>
  </g>
 </g>
 <defs>
  <clipPath id="p4edbf6d411">
   <rect height="108" width="87.428571" x="72" y="64.8"/>
  </clipPath>
  <clipPath id="pceb3c30336">
   <rect height="108" width="87.428571" x="203.142857" y="64.8"/>
  </clipPath>
  <clipPath id="pafb6595e85">
   <rect height="108" width="87.428571" x="334.285714" y="64.8"/>
  </clipPath>
  <clipPath id="p1d3a8c6df8">
   <rect height="108" width="87.428571" x="465.428571" y="64.8"/>
  </clipPath>
  <clipPath id="p76697f3775">
   <rect height="108" width="87.428571" x="596.571429" y="64.8"/>
  </clipPath>
 </defs>
</svg>
