<?xml version="1.0" encoding="utf-8" standalone="no"?>
<!DOCTYPE svg PUBLIC "-//W3C//DTD SVG 1.1//EN"
  "http://www.w3.org/Graphics/SVG/1.1/DTD/svg11.dtd">
<!-- Created with matplotlib (https://matplotlib.org/) -->
<svg height="345.6pt" version="1.1" viewBox="0 0 460.8 345.6" width="460.8pt" xmlns="http://www.w3.org/2000/svg" xmlns:xlink="http://www.w3.org/1999/xlink">
 <metadata>
  <rdf:RDF xmlns:cc="http://creativecommons.org/ns#" xmlns:dc="http://purl.org/dc/elements/1.1/" xmlns:rdf="http://www.w3.org/1999/02/22-rdf-syntax-ns#">
   <cc:Work>
    <dc:type rdf:resource="http://purl.org/dc/dcmitype/StillImage"/>
    <dc:date>2021-03-31T20:05:13.262607</dc:date>
    <dc:format>image/svg+xml</dc:format>
    <dc:creator>
     <cc:Agent>
      <dc:title>Matplotlib v3.3.4, https://matplotlib.org/</dc:title>
     </cc:Agent>
    </dc:creator>
   </cc:Work>
  </rdf:RDF>
 </metadata>
 <defs>
  <style type="text/css">*{stroke-linecap:butt;stroke-linejoin:round;}</style>
 </defs>
 <g id="figure_1">
  <g id="patch_1">
   <path d="M 0 345.6 
L 460.8 345.6 
L 460.8 0 
L 0 0 
z
" style="fill:#ffffff;"/>
  </g>
  <g id="axes_1">
   <g id="patch_2">
    <path d="M 69.12 276.48 
L 414.72 276.48 
L 414.72 69.12 
L 69.12 69.12 
z
" style="fill:#ffffff;"/>
   </g>
   <g id="PathCollection_1">
    <defs>
     <path d="M 0 1.691974 
C 0.448717 1.691974 0.879116 1.513697 1.196406 1.196406 
C 1.513697 0.879116 1.691974 0.448717 1.691974 0 
C 1.691974 -0.448717 1.513697 -0.879116 1.196406 -1.196406 
C 0.879116 -1.513697 0.448717 -1.691974 0 -1.691974 
C -0.448717 -1.691974 -0.879116 -1.513697 -1.196406 -1.196406 
C -1.513697 -0.879116 -1.691974 -0.448717 -1.691974 0 
C -1.691974 0.448717 -1.513697 0.879116 -1.196406 1.196406 
C -0.879116 1.513697 -0.448717 1.691974 0 1.691974 
z
" id="medd12ceae6" style="stroke:#262626;stroke-width:1.0125;"/>
    </defs>
    <g clip-path="url(#p4131ed9b51)">
     <use style="fill:#262626;stroke:#262626;stroke-width:1.0125;" x="155.52" xlink:href="#medd12ceae6" y="181.555737"/>
     <use style="fill:#262626;stroke:#262626;stroke-width:1.0125;" x="328.32" xlink:href="#medd12ceae6" y="190.251089"/>
    </g>
   </g>
   <g id="PathCollection_2">
    <defs>
     <path d="M 0 6.767896 
C 1.794867 6.767896 3.516463 6.054788 4.785625 4.785625 
C 6.054788 3.516463 6.767896 1.794867 6.767896 -0 
C 6.767896 -1.794867 6.054788 -3.516463 4.785625 -4.785625 
C 3.516463 -6.054788 1.794867 -6.767896 0 -6.767896 
C -1.794867 -6.767896 -3.516463 -6.054788 -4.785625 -4.785625 
C -6.054788 -3.516463 -6.767896 -1.794867 -6.767896 0 
C -6.767896 1.794867 -6.054788 3.516463 -4.785625 4.785625 
C -3.516463 6.054788 -1.794867 6.767896 0 6.767896 
z
" id="C0_0_33e0be1866"/>
    </defs>
    <g clip-path="url(#p4131ed9b51)">
     <use style="stroke:#000000;stroke-width:4.05;" x="155.52" xlink:href="#C0_0_33e0be1866" y="181.361706"/>
    </g>
    <g clip-path="url(#p4131ed9b51)">
     <use style="stroke:#000000;stroke-width:4.05;" x="328.32" xlink:href="#C0_0_33e0be1866" y="176.455546"/>
    </g>
   </g>
   <g id="line2d_1">
    <path clip-path="url(#p4131ed9b51)" d="M 155.52 181.555737 
L 328.32 190.251089 
" style="fill:none;stroke:#262626;stroke-linecap:square;stroke-width:1.35;"/>
   </g>
   <g id="line2d_2">
    <path clip-path="url(#p4131ed9b51)" d="M 0 0 
" style="fill:none;stroke:#262626;stroke-linecap:square;stroke-width:2.7;"/>
   </g>
   <g id="line2d_3">
    <path clip-path="url(#p4131ed9b51)" d="M 0 0 
" style="fill:none;stroke:#262626;stroke-linecap:square;stroke-width:2.7;"/>
   </g>
   <g id="matplotlib.axis_1">
    <g id="xtick_1">
     <g id="line2d_4">
      <defs>
       <path d="M 0 0 
L 0 3.5 
" id="mba64d3e74a" style="stroke:#000000;stroke-width:0.25;"/>
      </defs>
      <g>
       <use style="stroke:#000000;stroke-width:0.25;" x="155.52" xlink:href="#mba64d3e74a" y="276.48"/>
      </g>
     </g>
     <g id="text_1">
      <text style="font-family:DejaVu Sans;font-size:6px;font-stretch:normal;font-style:normal;font-weight:normal;text-anchor:middle;" transform="rotate(-0, 155.52, 288.039062)" x="155.52" y="288.039062">False</text>
     </g>
    </g>
    <g id="xtick_2">
     <g id="line2d_5">
      <g>
       <use style="stroke:#000000;stroke-width:0.25;" x="328.32" xlink:href="#mba64d3e74a" y="276.48"/>
      </g>
     </g>
     <g id="text_2">
      <text style="font-family:DejaVu Sans;font-size:6px;font-stretch:normal;font-style:normal;font-weight:normal;text-anchor:middle;" transform="rotate(-0, 328.32, 288.039062)" x="328.32" y="288.039062">True</text>
     </g>
    </g>
    <g id="text_3">
     <text style="font-family:DejaVu Sans;font-size:8px;font-stretch:normal;font-style:normal;font-weight:normal;text-anchor:middle;" transform="rotate(-0, 241.92, 299.365625)" x="241.92" y="299.365625">no_feedback</text>
    </g>
   </g>
   <g id="matplotlib.axis_2">
    <g id="ytick_1">
     <g id="line2d_6">
      <defs>
       <path d="M 0 0 
L -3.5 0 
" id="m4123011af3" style="stroke:#000000;stroke-width:0.25;"/>
      </defs>
      <g>
       <use style="stroke:#000000;stroke-width:0.25;" x="67.12" xlink:href="#m4123011af3" y="276.48"/>
      </g>
     </g>
     <g id="text_4">
      <text style="font-family:DejaVu Sans;font-size:6px;font-stretch:normal;font-style:normal;font-weight:normal;text-anchor:end;" transform="rotate(-0, 60.12, 278.759531)" x="60.12" y="278.759531">0.5</text>
     </g>
    </g>
    <g id="ytick_2">
     <g id="line2d_7">
      <g>
       <use style="stroke:#000000;stroke-width:0.25;" x="67.12" xlink:href="#m4123011af3" y="235.008"/>
      </g>
     </g>
     <g id="text_5">
      <text style="font-family:DejaVu Sans;font-size:6px;font-stretch:normal;font-style:normal;font-weight:normal;text-anchor:end;" transform="rotate(-0, 60.12, 237.287531)" x="60.12" y="237.287531">0.6</text>
     </g>
    </g>
    <g id="ytick_3">
     <g id="line2d_8">
      <g>
       <use style="stroke:#000000;stroke-width:0.25;" x="67.12" xlink:href="#m4123011af3" y="193.536"/>
      </g>
     </g>
     <g id="text_6">
      <text style="font-family:DejaVu Sans;font-size:6px;font-stretch:normal;font-style:normal;font-weight:normal;text-anchor:end;" transform="rotate(-0, 60.12, 195.815531)" x="60.12" y="195.815531">0.7</text>
     </g>
    </g>
    <g id="ytick_4">
     <g id="line2d_9">
      <g>
       <use style="stroke:#000000;stroke-width:0.25;" x="67.12" xlink:href="#m4123011af3" y="152.064"/>
      </g>
     </g>
     <g id="text_7">
      <text style="font-family:DejaVu Sans;font-size:6px;font-stretch:normal;font-style:normal;font-weight:normal;text-anchor:end;" transform="rotate(-0, 60.12, 154.343531)" x="60.12" y="154.343531">0.8</text>
     </g>
    </g>
    <g id="ytick_5">
     <g id="line2d_10">
      <g>
       <use style="stroke:#000000;stroke-width:0.25;" x="67.12" xlink:href="#m4123011af3" y="110.592"/>
      </g>
     </g>
     <g id="text_8">
      <text style="font-family:DejaVu Sans;font-size:6px;font-stretch:normal;font-style:normal;font-weight:normal;text-anchor:end;" transform="rotate(-0, 60.12, 112.871531)" x="60.12" y="112.871531">0.9</text>
     </g>
    </g>
    <g id="ytick_6">
     <g id="line2d_11">
      <g>
       <use style="stroke:#000000;stroke-width:0.25;" x="67.12" xlink:href="#m4123011af3" y="69.12"/>
      </g>
     </g>
     <g id="text_9">
      <text style="font-family:DejaVu Sans;font-size:6px;font-stretch:normal;font-style:normal;font-weight:normal;text-anchor:end;" transform="rotate(-0, 60.12, 71.399531)" x="60.12" y="71.399531">1.0</text>
     </g>
    </g>
    <g id="text_10">
     <text style="font-family:DejaVu Sans;font-size:8px;font-stretch:normal;font-style:normal;font-weight:normal;text-anchor:middle;" transform="rotate(-90, 44.914375, 172.8)" x="44.914375" y="172.8">accuracy</text>
    </g>
   </g>
   <g id="PathCollection_3">
    <defs>
     <path d="M 0 1.691974 
C 0.448717 1.691974 0.879116 1.513697 1.196406 1.196406 
C 1.513697 0.879116 1.691974 0.448717 1.691974 0 
C 1.691974 -0.448717 1.513697 -0.879116 1.196406 -1.196406 
C 0.879116 -1.513697 0.448717 -1.691974 0 -1.691974 
C -0.448717 -1.691974 -0.879116 -1.513697 -1.196406 -1.196406 
C -1.513697 -0.879116 -1.691974 -0.448717 -1.691974 0 
C -1.691974 0.448717 -1.513697 0.879116 -1.196406 1.196406 
C -0.879116 1.513697 -0.448717 1.691974 0 1.691974 
z
" id="m82e098f4d5" style="stroke:#232323;stroke-width:1.0125;"/>
    </defs>
    <g clip-path="url(#p4131ed9b51)">
     <use style="fill:#232323;stroke:#232323;stroke-width:1.0125;" x="155.52" xlink:href="#m82e098f4d5" y="163.259266"/>
     <use style="fill:#232323;stroke:#232323;stroke-width:1.0125;" x="328.32" xlink:href="#m82e098f4d5" y="148.163168"/>
    </g>
   </g>
   <g id="line2d_12">
    <path clip-path="url(#p4131ed9b51)" d="M 155.52 163.259266 
L 328.32 148.163168 
" style="fill:none;stroke:#232323;stroke-linecap:square;stroke-width:1.35;"/>
   </g>
   <g id="line2d_13">
    <path clip-path="url(#p4131ed9b51)" d="M 0 0 
" style="fill:none;stroke:#232323;stroke-linecap:square;stroke-width:2.7;"/>
   </g>
   <g id="line2d_14">
    <path clip-path="url(#p4131ed9b51)" d="M 0 0 
" style="fill:none;stroke:#232323;stroke-linecap:square;stroke-width:2.7;"/>
   </g>
   <g id="line2d_15">
    <path clip-path="url(#p4131ed9b51)" d="M 155.52 199.725607 
L 155.52 163.805482 
" style="fill:none;stroke:#000000;stroke-linecap:square;stroke-width:2.7;"/>
   </g>
   <g id="line2d_16">
    <path clip-path="url(#p4131ed9b51)" d="M 328.32 191.38595 
L 328.32 161.871357 
" style="fill:none;stroke:#000000;stroke-linecap:square;stroke-width:2.7;"/>
   </g>
   <g id="patch_3">
    <path d="M 67.12 276.48 
L 67.12 69.12 
" style="fill:none;stroke:#000000;stroke-linecap:square;stroke-linejoin:miter;stroke-width:0.25;"/>
   </g>
   <g id="PathCollection_4">
    <defs>
     <path d="M 0 1.691974 
C 0.448717 1.691974 0.879116 1.513697 1.196406 1.196406 
C 1.513697 0.879116 1.691974 0.448717 1.691974 0 
C 1.691974 -0.448717 1.513697 -0.879116 1.196406 -1.196406 
C 0.879116 -1.513697 0.448717 -1.691974 0 -1.691974 
C -0.448717 -1.691974 -0.879116 -1.513697 -1.196406 -1.196406 
C -1.513697 -0.879116 -1.691974 -0.448717 -1.691974 0 
C -1.691974 0.448717 -1.513697 0.879116 -1.196406 1.196406 
C -0.879116 1.513697 -0.448717 1.691974 0 1.691974 
z
" id="m0c81dd8571" style="stroke:#1f1f1f;stroke-width:1.0125;"/>
    </defs>
    <g clip-path="url(#p4131ed9b51)">
     <use style="fill:#1f1f1f;stroke:#1f1f1f;stroke-width:1.0125;" x="155.52" xlink:href="#m0c81dd8571" y="204.320652"/>
     <use style="fill:#1f1f1f;stroke:#1f1f1f;stroke-width:1.0125;" x="328.32" xlink:href="#m0c81dd8571" y="185.460594"/>
    </g>
   </g>
   <g id="line2d_17">
    <path clip-path="url(#p4131ed9b51)" d="M 155.52 204.320652 
L 328.32 185.460594 
" style="fill:none;stroke:#1f1f1f;stroke-linecap:square;stroke-width:1.35;"/>
   </g>
   <g id="line2d_18">
    <path clip-path="url(#p4131ed9b51)" d="M 0 0 
" style="fill:none;stroke:#1f1f1f;stroke-linecap:square;stroke-width:2.7;"/>
   </g>
   <g id="line2d_19">
    <path clip-path="url(#p4131ed9b51)" d="M 0 0 
" style="fill:none;stroke:#1f1f1f;stroke-linecap:square;stroke-width:2.7;"/>
   </g>
   <g id="text_11">
    <text style="font-family:DejaVu Sans;font-size:12px;font-stretch:normal;font-style:normal;font-weight:normal;text-anchor:start;" transform="rotate(-0, 69.12, 63.12)" x="69.12" y="63.12">Mean performance (n=13 rats)</text>
   </g>
   <g id="PathCollection_5">
    <defs>
     <path d="M 0 1.691974 
C 0.448717 1.691974 0.879116 1.513697 1.196406 1.196406 
C 1.513697 0.879116 1.691974 0.448717 1.691974 0 
C 1.691974 -0.448717 1.513697 -0.879116 1.196406 -1.196406 
C 0.879116 -1.513697 0.448717 -1.691974 0 -1.691974 
C -0.448717 -1.691974 -0.879116 -1.513697 -1.196406 -1.196406 
C -1.513697 -0.879116 -1.691974 -0.448717 -1.691974 0 
C -1.691974 0.448717 -1.513697 0.879116 -1.196406 1.196406 
C -0.879116 1.513697 -0.448717 1.691974 0 1.691974 
z
" id="ma6d9d3261c" style="stroke:#1c1c1c;stroke-width:1.0125;"/>
    </defs>
    <g clip-path="url(#p4131ed9b51)">
     <use style="fill:#1c1c1c;stroke:#1c1c1c;stroke-width:1.0125;" x="155.52" xlink:href="#ma6d9d3261c" y="185.359953"/>
     <use style="fill:#1c1c1c;stroke:#1c1c1c;stroke-width:1.0125;" x="328.32" xlink:href="#ma6d9d3261c" y="161.508119"/>
    </g>
   </g>
   <g id="line2d_20">
    <path clip-path="url(#p4131ed9b51)" d="M 155.52 185.359953 
L 328.32 161.508119 
" style="fill:none;stroke:#1c1c1c;stroke-linecap:square;stroke-width:1.35;"/>
   </g>
   <g id="line2d_21">
    <path clip-path="url(#p4131ed9b51)" d="M 0 0 
" style="fill:none;stroke:#1c1c1c;stroke-linecap:square;stroke-width:2.7;"/>
   </g>
   <g id="line2d_22">
    <path clip-path="url(#p4131ed9b51)" d="M 0 0 
" style="fill:none;stroke:#1c1c1c;stroke-linecap:square;stroke-width:2.7;"/>
   </g>
   <g id="PathCollection_6">
    <defs>
     <path d="M 0 1.691974 
C 0.448717 1.691974 0.879116 1.513697 1.196406 1.196406 
C 1.513697 0.879116 1.691974 0.448717 1.691974 0 
C 1.691974 -0.448717 1.513697 -0.879116 1.196406 -1.196406 
C 0.879116 -1.513697 0.448717 -1.691974 0 -1.691974 
C -0.448717 -1.691974 -0.879116 -1.513697 -1.196406 -1.196406 
C -1.513697 -0.879116 -1.691974 -0.448717 -1.691974 0 
C -1.691974 0.448717 -1.513697 0.879116 -1.196406 1.196406 
C -0.879116 1.513697 -0.448717 1.691974 0 1.691974 
z
" id="m13831d3652" style="stroke:#191919;stroke-width:1.0125;"/>
    </defs>
    <g clip-path="url(#p4131ed9b51)">
     <use style="fill:#191919;stroke:#191919;stroke-width:1.0125;" x="155.52" xlink:href="#m13831d3652" y="241.457053"/>
     <use style="fill:#191919;stroke:#191919;stroke-width:1.0125;" x="328.32" xlink:href="#m13831d3652" y="230.970297"/>
    </g>
   </g>
   <g id="line2d_23">
    <path clip-path="url(#p4131ed9b51)" d="M 155.52 241.457053 
L 328.32 230.970297 
" style="fill:none;stroke:#191919;stroke-linecap:square;stroke-width:1.35;"/>
   </g>
   <g id="line2d_24">
    <path clip-path="url(#p4131ed9b51)" d="M 0 0 
" style="fill:none;stroke:#191919;stroke-linecap:square;stroke-width:2.7;"/>
   </g>
   <g id="line2d_25">
    <path clip-path="url(#p4131ed9b51)" d="M 0 0 
" style="fill:none;stroke:#191919;stroke-linecap:square;stroke-width:2.7;"/>
   </g>
   <g id="PathCollection_7">
    <defs>
     <path d="M 0 1.691974 
C 0.448717 1.691974 0.879116 1.513697 1.196406 1.196406 
C 1.513697 0.879116 1.691974 0.448717 1.691974 0 
C 1.691974 -0.448717 1.513697 -0.879116 1.196406 -1.196406 
C 0.879116 -1.513697 0.448717 -1.691974 0 -1.691974 
C -0.448717 -1.691974 -0.879116 -1.513697 -1.196406 -1.196406 
C -1.513697 -0.879116 -1.691974 -0.448717 -1.691974 0 
C -1.691974 0.448717 -1.513697 0.879116 -1.196406 1.196406 
C -0.879116 1.513697 -0.448717 1.691974 0 1.691974 
z
" id="mbd78f920b5" style="stroke:#161616;stroke-width:1.0125;"/>
    </defs>
    <g clip-path="url(#p4131ed9b51)">
     <use style="fill:#161616;stroke:#161616;stroke-width:1.0125;" x="155.52" xlink:href="#mbd78f920b5" y="136.750518"/>
     <use style="fill:#161616;stroke:#161616;stroke-width:1.0125;" x="328.32" xlink:href="#mbd78f920b5" y="126.263762"/>
    </g>
   </g>
   <g id="line2d_26">
    <path clip-path="url(#p4131ed9b51)" d="M 155.52 136.750518 
L 328.32 126.263762 
" style="fill:none;stroke:#161616;stroke-linecap:square;stroke-width:1.35;"/>
   </g>
   <g id="line2d_27">
    <path clip-path="url(#p4131ed9b51)" d="M 0 0 
" style="fill:none;stroke:#161616;stroke-linecap:square;stroke-width:2.7;"/>
   </g>
   <g id="line2d_28">
    <path clip-path="url(#p4131ed9b51)" d="M 0 0 
" style="fill:none;stroke:#161616;stroke-linecap:square;stroke-width:2.7;"/>
   </g>
   <g id="PathCollection_8">
    <defs>
     <path d="M 0 1.691974 
C 0.448717 1.691974 0.879116 1.513697 1.196406 1.196406 
C 1.513697 0.879116 1.691974 0.448717 1.691974 0 
C 1.691974 -0.448717 1.513697 -0.879116 1.196406 -1.196406 
C 0.879116 -1.513697 0.448717 -1.691974 0 -1.691974 
C -0.448717 -1.691974 -0.879116 -1.513697 -1.196406 -1.196406 
C -1.513697 -0.879116 -1.691974 -0.448717 -1.691974 0 
C -1.691974 0.448717 -1.513697 0.879116 -1.196406 1.196406 
C -0.879116 1.513697 -0.448717 1.691974 0 1.691974 
z
" id="m02f803192f" style="stroke:#131313;stroke-width:1.0125;"/>
    </defs>
    <g clip-path="url(#p4131ed9b51)">
     <use style="fill:#131313;stroke:#131313;stroke-width:1.0125;" x="155.52" xlink:href="#m02f803192f" y="183.186115"/>
     <use style="fill:#131313;stroke:#131313;stroke-width:1.0125;" x="328.32" xlink:href="#m02f803192f" y="180.670099"/>
    </g>
   </g>
   <g id="line2d_29">
    <path clip-path="url(#p4131ed9b51)" d="M 155.52 183.186115 
L 328.32 180.670099 
" style="fill:none;stroke:#131313;stroke-linecap:square;stroke-width:1.35;"/>
   </g>
   <g id="line2d_30">
    <path clip-path="url(#p4131ed9b51)" d="M 0 0 
" style="fill:none;stroke:#131313;stroke-linecap:square;stroke-width:2.7;"/>
   </g>
   <g id="line2d_31">
    <path clip-path="url(#p4131ed9b51)" d="M 0 0 
" style="fill:none;stroke:#131313;stroke-linecap:square;stroke-width:2.7;"/>
   </g>
   <g id="PathCollection_9">
    <defs>
     <path d="M 0 1.691974 
C 0.448717 1.691974 0.879116 1.513697 1.196406 1.196406 
C 1.513697 0.879116 1.691974 0.448717 1.691974 0 
C 1.691974 -0.448717 1.513697 -0.879116 1.196406 -1.196406 
C 0.879116 -1.513697 0.448717 -1.691974 0 -1.691974 
C -0.448717 -1.691974 -0.879116 -1.513697 -1.196406 -1.196406 
C -1.513697 -0.879116 -1.691974 -0.448717 -1.691974 0 
C -1.691974 0.448717 -1.513697 0.879116 -1.196406 1.196406 
C -0.879116 1.513697 -0.448717 1.691974 0 1.691974 
z
" id="m66044dd935" style="stroke:#101010;stroke-width:1.0125;"/>
    </defs>
    <g clip-path="url(#p4131ed9b51)">
     <use style="fill:#101010;stroke:#101010;stroke-width:1.0125;" x="155.52" xlink:href="#m66044dd935" y="220.798272"/>
     <use style="fill:#101010;stroke:#101010;stroke-width:1.0125;" x="328.32" xlink:href="#m66044dd935" y="207.36"/>
    </g>
   </g>
   <g id="line2d_32">
    <path clip-path="url(#p4131ed9b51)" d="M 155.52 220.798272 
L 328.32 207.36 
" style="fill:none;stroke:#101010;stroke-linecap:square;stroke-width:1.35;"/>
   </g>
   <g id="line2d_33">
    <path clip-path="url(#p4131ed9b51)" d="M 0 0 
" style="fill:none;stroke:#101010;stroke-linecap:square;stroke-width:2.7;"/>
   </g>
   <g id="line2d_34">
    <path clip-path="url(#p4131ed9b51)" d="M 0 0 
" style="fill:none;stroke:#101010;stroke-linecap:square;stroke-width:2.7;"/>
   </g>
   <g id="PathCollection_10">
    <defs>
     <path d="M 0 1.691974 
C 0.448717 1.691974 0.879116 1.513697 1.196406 1.196406 
C 1.513697 0.879116 1.691974 0.448717 1.691974 0 
C 1.691974 -0.448717 1.513697 -0.879116 1.196406 -1.196406 
C 0.879116 -1.513697 0.448717 -1.691974 0 -1.691974 
C -0.448717 -1.691974 -0.879116 -1.513697 -1.196406 -1.196406 
C -1.513697 -0.879116 -1.691974 -0.448717 -1.691974 0 
C -1.691974 0.448717 -1.513697 0.879116 -1.196406 1.196406 
C -0.879116 1.513697 -0.448717 1.691974 0 1.691974 
z
" id="mf6140e0c86" style="stroke:#0d0d0d;stroke-width:1.0125;"/>
    </defs>
    <g clip-path="url(#p4131ed9b51)">
     <use style="fill:#0d0d0d;stroke:#0d0d0d;stroke-width:1.0125;" x="155.52" xlink:href="#mf6140e0c86" y="233.432694"/>
     <use style="fill:#0d0d0d;stroke:#0d0d0d;stroke-width:1.0125;" x="328.32" xlink:href="#mf6140e0c86" y="221.109677"/>
    </g>
   </g>
   <g id="line2d_35">
    <path clip-path="url(#p4131ed9b51)" d="M 155.52 233.432694 
L 328.32 221.109677 
" style="fill:none;stroke:#0d0d0d;stroke-linecap:square;stroke-width:1.35;"/>
   </g>
   <g id="line2d_36">
    <path clip-path="url(#p4131ed9b51)" d="M 0 0 
" style="fill:none;stroke:#0d0d0d;stroke-linecap:square;stroke-width:2.7;"/>
   </g>
   <g id="line2d_37">
    <path clip-path="url(#p4131ed9b51)" d="M 0 0 
" style="fill:none;stroke:#0d0d0d;stroke-linecap:square;stroke-width:2.7;"/>
   </g>
   <g id="PathCollection_11">
    <defs>
     <path d="M 0 1.691974 
C 0.448717 1.691974 0.879116 1.513697 1.196406 1.196406 
C 1.513697 0.879116 1.691974 0.448717 1.691974 0 
C 1.691974 -0.448717 1.513697 -0.879116 1.196406 -1.196406 
C 0.879116 -1.513697 0.448717 -1.691974 0 -1.691974 
C -0.448717 -1.691974 -0.879116 -1.513697 -1.196406 -1.196406 
C -1.513697 -0.879116 -1.691974 -0.448717 -1.691974 0 
C -1.691974 0.448717 -1.513697 0.879116 -1.196406 1.196406 
C -0.879116 1.513697 -0.448717 1.691974 0 1.691974 
z
" id="mfb212a221c" style="stroke:#090909;stroke-width:1.0125;"/>
    </defs>
    <g clip-path="url(#p4131ed9b51)">
     <use style="fill:#090909;stroke:#090909;stroke-width:1.0125;" x="155.52" xlink:href="#mfb212a221c" y="154.550275"/>
     <use style="fill:#090909;stroke:#090909;stroke-width:1.0125;" x="328.32" xlink:href="#mfb212a221c" y="147.471781"/>
    </g>
   </g>
   <g id="line2d_38">
    <path clip-path="url(#p4131ed9b51)" d="M 155.52 154.550275 
L 328.32 147.471781 
" style="fill:none;stroke:#090909;stroke-linecap:square;stroke-width:1.35;"/>
   </g>
   <g id="line2d_39">
    <path clip-path="url(#p4131ed9b51)" d="M 0 0 
" style="fill:none;stroke:#090909;stroke-linecap:square;stroke-width:2.7;"/>
   </g>
   <g id="line2d_40">
    <path clip-path="url(#p4131ed9b51)" d="M 0 0 
" style="fill:none;stroke:#090909;stroke-linecap:square;stroke-width:2.7;"/>
   </g>
   <g id="PathCollection_12">
    <defs>
     <path d="M 0 1.691974 
C 0.448717 1.691974 0.879116 1.513697 1.196406 1.196406 
C 1.513697 0.879116 1.691974 0.448717 1.691974 0 
C 1.691974 -0.448717 1.513697 -0.879116 1.196406 -1.196406 
C 0.879116 -1.513697 0.448717 -1.691974 0 -1.691974 
C -0.448717 -1.691974 -0.879116 -1.513697 -1.196406 -1.196406 
C -1.513697 -0.879116 -1.691974 -0.448717 -1.691974 0 
C -1.691974 0.448717 -1.513697 0.879116 -1.196406 1.196406 
C -0.879116 1.513697 -0.448717 1.691974 0 1.691974 
z
" id="m003de0ea4e" style="stroke:#060606;stroke-width:1.0125;"/>
    </defs>
    <g clip-path="url(#p4131ed9b51)">
     <use style="fill:#060606;stroke:#060606;stroke-width:1.0125;" x="155.52" xlink:href="#m003de0ea4e" y="152.23154"/>
     <use style="fill:#060606;stroke:#060606;stroke-width:1.0125;" x="328.32" xlink:href="#m003de0ea4e" y="161.425823"/>
    </g>
   </g>
   <g id="line2d_41">
    <path clip-path="url(#p4131ed9b51)" d="M 155.52 152.23154 
L 328.32 161.425823 
" style="fill:none;stroke:#060606;stroke-linecap:square;stroke-width:1.35;"/>
   </g>
   <g id="line2d_42">
    <path clip-path="url(#p4131ed9b51)" d="M 0 0 
" style="fill:none;stroke:#060606;stroke-linecap:square;stroke-width:2.7;"/>
   </g>
   <g id="line2d_43">
    <path clip-path="url(#p4131ed9b51)" d="M 0 0 
" style="fill:none;stroke:#060606;stroke-linecap:square;stroke-width:2.7;"/>
   </g>
   <g id="PathCollection_13">
    <defs>
     <path d="M 0 1.691974 
C 0.448717 1.691974 0.879116 1.513697 1.196406 1.196406 
C 1.513697 0.879116 1.691974 0.448717 1.691974 0 
C 1.691974 -0.448717 1.513697 -0.879116 1.196406 -1.196406 
C 0.879116 -1.513697 0.448717 -1.691974 0 -1.691974 
C -0.448717 -1.691974 -0.879116 -1.513697 -1.196406 -1.196406 
C -1.513697 -0.879116 -1.691974 -0.448717 -1.691974 0 
C -1.691974 0.448717 -1.513697 0.879116 -1.196406 1.196406 
C -0.879116 1.513697 -0.448717 1.691974 0 1.691974 
z
" id="mdaf66c4f68" style="stroke:#030303;stroke-width:1.0125;"/>
    </defs>
    <g clip-path="url(#p4131ed9b51)">
     <use style="fill:#030303;stroke:#030303;stroke-width:1.0125;" x="155.52" xlink:href="#mdaf66c4f68" y="164.974214"/>
     <use style="fill:#030303;stroke:#030303;stroke-width:1.0125;" x="328.32" xlink:href="#mdaf66c4f68" y="173.76"/>
    </g>
   </g>
   <g id="line2d_44">
    <path clip-path="url(#p4131ed9b51)" d="M 155.52 164.974214 
L 328.32 173.76 
" style="fill:none;stroke:#030303;stroke-linecap:square;stroke-width:1.35;"/>
   </g>
   <g id="line2d_45">
    <path clip-path="url(#p4131ed9b51)" d="M 0 0 
" style="fill:none;stroke:#030303;stroke-linecap:square;stroke-width:2.7;"/>
   </g>
   <g id="line2d_46">
    <path clip-path="url(#p4131ed9b51)" d="M 0 0 
" style="fill:none;stroke:#030303;stroke-linecap:square;stroke-width:2.7;"/>
   </g>
   <g id="PathCollection_14">
    <defs>
     <path d="M 0 1.691974 
C 0.448717 1.691974 0.879116 1.513697 1.196406 1.196406 
C 1.513697 0.879116 1.691974 0.448717 1.691974 0 
C 1.691974 -0.448717 1.513697 -0.879116 1.196406 -1.196406 
C 0.879116 -1.513697 0.448717 -1.691974 0 -1.691974 
C -0.448717 -1.691974 -0.879116 -1.513697 -1.196406 -1.196406 
C -1.513697 -0.879116 -1.691974 -0.448717 -1.691974 0 
C -1.691974 0.448717 -1.513697 0.879116 -1.196406 1.196406 
C -0.879116 1.513697 -0.448717 1.691974 0 1.691974 
z
" id="me19a8e2b73" style="stroke:#000000;stroke-width:1.0125;"/>
    </defs>
    <g clip-path="url(#p4131ed9b51)">
     <use style="stroke:#000000;stroke-width:1.0125;" x="155.52" xlink:href="#me19a8e2b73" y="135.825882"/>
     <use style="stroke:#000000;stroke-width:1.0125;" x="328.32" xlink:href="#me19a8e2b73" y="159.507692"/>
    </g>
   </g>
   <g id="line2d_47">
    <path clip-path="url(#p4131ed9b51)" d="M 155.52 135.825882 
L 328.32 159.507692 
" style="fill:none;stroke:#000000;stroke-linecap:square;stroke-width:1.35;"/>
   </g>
   <g id="line2d_48">
    <path clip-path="url(#p4131ed9b51)" d="M 0 0 
" style="fill:none;stroke:#000000;stroke-linecap:square;stroke-width:2.7;"/>
   </g>
   <g id="line2d_49">
    <path clip-path="url(#p4131ed9b51)" d="M 0 0 
" style="fill:none;stroke:#000000;stroke-linecap:square;stroke-width:2.7;"/>
   </g>
  </g>
  <g id="text_12">
   <text style="font-family:DejaVu Sans;font-size:6px;font-stretch:normal;font-style:normal;font-weight:normal;" transform="translate(0 10.362938)">phase1-2-3-4-5_cohorts_AG-AJ-AN</text>
   <text style="font-family:DejaVu Sans;font-size:6px;font-stretch:normal;font-style:normal;font-weight:normal;" transform="translate(0 17.28)">AG1-11 | AJ1-16 | AN1-8</text>
  </g>
  <g id="text_13">
   <text style="font-family:DejaVu Sans;font-size:10px;font-stretch:normal;font-style:normal;font-weight:normal;" transform="translate(4.608 330.946187)">Mann-Whitney</text>
   <text style="font-family:DejaVu Sans;font-size:10px;font-stretch:normal;font-style:normal;font-weight:normal;" transform="translate(4.608 342.144)">t=78.00, p=0.379</text>
  </g>
 </g>
 <defs>
  <clipPath id="p4131ed9b51">
   <rect height="207.36" width="345.6" x="69.12" y="69.12"/>
  </clipPath>
 </defs>
</svg>
