<?xml version="1.0" encoding="utf-8" standalone="no"?>
<!DOCTYPE svg PUBLIC "-//W3C//DTD SVG 1.1//EN"
  "http://www.w3.org/Graphics/SVG/1.1/DTD/svg11.dtd">
<!-- Created with matplotlib (https://matplotlib.org/) -->
<svg height="345.6pt" version="1.1" viewBox="0 0 460.8 345.6" width="460.8pt" xmlns="http://www.w3.org/2000/svg" xmlns:xlink="http://www.w3.org/1999/xlink">
 <metadata>
  <rdf:RDF xmlns:cc="http://creativecommons.org/ns#" xmlns:dc="http://purl.org/dc/elements/1.1/" xmlns:rdf="http://www.w3.org/1999/02/22-rdf-syntax-ns#">
   <cc:Work>
    <dc:type rdf:resource="http://purl.org/dc/dcmitype/StillImage"/>
    <dc:date>2021-05-11T16:09:33.645932</dc:date>
    <dc:format>image/svg+xml</dc:format>
    <dc:creator>
     <cc:Agent>
      <dc:title>Matplotlib v3.3.4, https://matplotlib.org/</dc:title>
     </cc:Agent>
    </dc:creator>
   </cc:Work>
  </rdf:RDF>
 </metadata>
 <defs>
  <style type="text/css">*{stroke-linecap:butt;stroke-linejoin:round;}</style>
 </defs>
 <g id="figure_1">
  <g id="patch_1">
   <path d="M 0 345.6 
L 460.8 345.6 
L 460.8 0 
L 0 0 
z
" style="fill:#ffffff;"/>
  </g>
  <g id="axes_1">
   <g id="patch_2">
    <path d="M 57.6 307.584 
L 414.72 307.584 
L 414.72 41.472 
L 57.6 41.472 
z
" style="fill:#ffffff;"/>
   </g>
   <g id="patch_3">
    <path clip-path="url(#p08236d61b5)" d="M 64.7424 307.584 
L 121.8816 307.584 
L 121.8816 288.810667 
L 64.7424 288.810667 
z
" style="fill:#1f2e42;"/>
   </g>
   <g id="patch_4">
    <path clip-path="url(#p08236d61b5)" d="M 136.1664 307.584 
L 193.3056 307.584 
L 193.3056 233.859556 
L 136.1664 233.859556 
z
" style="fill:#34673e;"/>
   </g>
   <g id="patch_5">
    <path clip-path="url(#p08236d61b5)" d="M 207.5904 307.584 
L 264.7296 307.584 
L 264.7296 290.151619 
L 207.5904 290.151619 
z
" style="fill:#967855;"/>
   </g>
   <g id="patch_6">
    <path clip-path="url(#p08236d61b5)" d="M 279.0144 307.584 
L 336.1536 307.584 
L 336.1536 284.78781 
L 279.0144 284.78781 
z
" style="fill:#cb98c1;"/>
   </g>
   <g id="patch_7">
    <path clip-path="url(#p08236d61b5)" d="M 350.4384 307.584 
L 407.5776 307.584 
L 407.5776 272.384 
L 350.4384 272.384 
z
" style="fill:#c9d9ed;"/>
   </g>
   <g id="matplotlib.axis_1">
    <g id="xtick_1">
     <g id="line2d_1"/>
     <g id="text_1">
      <!-- 0 -->
      <g transform="translate(90.767 317.16275)scale(0.08 -0.08)">
       <defs>
        <path d="M 31.78125 66.40625 
Q 24.171875 66.40625 20.328125 58.90625 
Q 16.5 51.421875 16.5 36.375 
Q 16.5 21.390625 20.328125 13.890625 
Q 24.171875 6.390625 31.78125 6.390625 
Q 39.453125 6.390625 43.28125 13.890625 
Q 47.125 21.390625 47.125 36.375 
Q 47.125 51.421875 43.28125 58.90625 
Q 39.453125 66.40625 31.78125 66.40625 
z
M 31.78125 74.21875 
Q 44.046875 74.21875 50.515625 64.515625 
Q 56.984375 54.828125 56.984375 36.375 
Q 56.984375 17.96875 50.515625 8.265625 
Q 44.046875 -1.421875 31.78125 -1.421875 
Q 19.53125 -1.421875 13.0625 8.265625 
Q 6.59375 17.96875 6.59375 36.375 
Q 6.59375 54.828125 13.0625 64.515625 
Q 19.53125 74.21875 31.78125 74.21875 
z
" id="DejaVuSans-48"/>
       </defs>
       <use xlink:href="#DejaVuSans-48"/>
      </g>
     </g>
    </g>
    <g id="xtick_2">
     <g id="line2d_2"/>
     <g id="text_2">
      <!-- 1 -->
      <g transform="translate(162.191 317.16275)scale(0.08 -0.08)">
       <defs>
        <path d="M 12.40625 8.296875 
L 28.515625 8.296875 
L 28.515625 63.921875 
L 10.984375 60.40625 
L 10.984375 69.390625 
L 28.421875 72.90625 
L 38.28125 72.90625 
L 38.28125 8.296875 
L 54.390625 8.296875 
L 54.390625 0 
L 12.40625 0 
z
" id="DejaVuSans-49"/>
       </defs>
       <use xlink:href="#DejaVuSans-49"/>
      </g>
     </g>
    </g>
    <g id="xtick_3">
     <g id="line2d_3"/>
     <g id="text_3">
      <!-- 2 -->
      <g transform="translate(233.615 317.16275)scale(0.08 -0.08)">
       <defs>
        <path d="M 19.1875 8.296875 
L 53.609375 8.296875 
L 53.609375 0 
L 7.328125 0 
L 7.328125 8.296875 
Q 12.9375 14.109375 22.625 23.890625 
Q 32.328125 33.6875 34.8125 36.53125 
Q 39.546875 41.84375 41.421875 45.53125 
Q 43.3125 49.21875 43.3125 52.78125 
Q 43.3125 58.59375 39.234375 62.25 
Q 35.15625 65.921875 28.609375 65.921875 
Q 23.96875 65.921875 18.8125 64.3125 
Q 13.671875 62.703125 7.8125 59.421875 
L 7.8125 69.390625 
Q 13.765625 71.78125 18.9375 73 
Q 24.125 74.21875 28.421875 74.21875 
Q 39.75 74.21875 46.484375 68.546875 
Q 53.21875 62.890625 53.21875 53.421875 
Q 53.21875 48.921875 51.53125 44.890625 
Q 49.859375 40.875 45.40625 35.40625 
Q 44.1875 33.984375 37.640625 27.21875 
Q 31.109375 20.453125 19.1875 8.296875 
z
" id="DejaVuSans-50"/>
       </defs>
       <use xlink:href="#DejaVuSans-50"/>
      </g>
     </g>
    </g>
    <g id="xtick_4">
     <g id="line2d_4"/>
     <g id="text_4">
      <!-- 3 -->
      <g transform="translate(305.039 317.16275)scale(0.08 -0.08)">
       <defs>
        <path d="M 40.578125 39.3125 
Q 47.65625 37.796875 51.625 33 
Q 55.609375 28.21875 55.609375 21.1875 
Q 55.609375 10.40625 48.1875 4.484375 
Q 40.765625 -1.421875 27.09375 -1.421875 
Q 22.515625 -1.421875 17.65625 -0.515625 
Q 12.796875 0.390625 7.625 2.203125 
L 7.625 11.71875 
Q 11.71875 9.328125 16.59375 8.109375 
Q 21.484375 6.890625 26.8125 6.890625 
Q 36.078125 6.890625 40.9375 10.546875 
Q 45.796875 14.203125 45.796875 21.1875 
Q 45.796875 27.640625 41.28125 31.265625 
Q 36.765625 34.90625 28.71875 34.90625 
L 20.21875 34.90625 
L 20.21875 43.015625 
L 29.109375 43.015625 
Q 36.375 43.015625 40.234375 45.921875 
Q 44.09375 48.828125 44.09375 54.296875 
Q 44.09375 59.90625 40.109375 62.90625 
Q 36.140625 65.921875 28.71875 65.921875 
Q 24.65625 65.921875 20.015625 65.03125 
Q 15.375 64.15625 9.8125 62.3125 
L 9.8125 71.09375 
Q 15.4375 72.65625 20.34375 73.4375 
Q 25.25 74.21875 29.59375 74.21875 
Q 40.828125 74.21875 47.359375 69.109375 
Q 53.90625 64.015625 53.90625 55.328125 
Q 53.90625 49.265625 50.4375 45.09375 
Q 46.96875 40.921875 40.578125 39.3125 
z
" id="DejaVuSans-51"/>
       </defs>
       <use xlink:href="#DejaVuSans-51"/>
      </g>
     </g>
    </g>
    <g id="xtick_5">
     <g id="line2d_5"/>
     <g id="text_5">
      <!-- 4 -->
      <g transform="translate(376.463 317.16275)scale(0.08 -0.08)">
       <defs>
        <path d="M 37.796875 64.3125 
L 12.890625 25.390625 
L 37.796875 25.390625 
z
M 35.203125 72.90625 
L 47.609375 72.90625 
L 47.609375 25.390625 
L 58.015625 25.390625 
L 58.015625 17.1875 
L 47.609375 17.1875 
L 47.609375 0 
L 37.796875 0 
L 37.796875 17.1875 
L 4.890625 17.1875 
L 4.890625 26.703125 
z
" id="DejaVuSans-52"/>
       </defs>
       <use xlink:href="#DejaVuSans-52"/>
      </g>
     </g>
    </g>
    <g id="text_6">
     <!-- Training phase -->
     <g transform="translate(192.47625 331.944625)scale(0.12 -0.12)">
      <defs>
       <path d="M -0.296875 72.90625 
L 61.375 72.90625 
L 61.375 64.59375 
L 35.5 64.59375 
L 35.5 0 
L 25.59375 0 
L 25.59375 64.59375 
L -0.296875 64.59375 
z
" id="DejaVuSans-84"/>
       <path d="M 41.109375 46.296875 
Q 39.59375 47.171875 37.8125 47.578125 
Q 36.03125 48 33.890625 48 
Q 26.265625 48 22.1875 43.046875 
Q 18.109375 38.09375 18.109375 28.8125 
L 18.109375 0 
L 9.078125 0 
L 9.078125 54.6875 
L 18.109375 54.6875 
L 18.109375 46.1875 
Q 20.953125 51.171875 25.484375 53.578125 
Q 30.03125 56 36.53125 56 
Q 37.453125 56 38.578125 55.875 
Q 39.703125 55.765625 41.0625 55.515625 
z
" id="DejaVuSans-114"/>
       <path d="M 34.28125 27.484375 
Q 23.390625 27.484375 19.1875 25 
Q 14.984375 22.515625 14.984375 16.5 
Q 14.984375 11.71875 18.140625 8.90625 
Q 21.296875 6.109375 26.703125 6.109375 
Q 34.1875 6.109375 38.703125 11.40625 
Q 43.21875 16.703125 43.21875 25.484375 
L 43.21875 27.484375 
z
M 52.203125 31.203125 
L 52.203125 0 
L 43.21875 0 
L 43.21875 8.296875 
Q 40.140625 3.328125 35.546875 0.953125 
Q 30.953125 -1.421875 24.3125 -1.421875 
Q 15.921875 -1.421875 10.953125 3.296875 
Q 6 8.015625 6 15.921875 
Q 6 25.140625 12.171875 29.828125 
Q 18.359375 34.515625 30.609375 34.515625 
L 43.21875 34.515625 
L 43.21875 35.40625 
Q 43.21875 41.609375 39.140625 45 
Q 35.0625 48.390625 27.6875 48.390625 
Q 23 48.390625 18.546875 47.265625 
Q 14.109375 46.140625 10.015625 43.890625 
L 10.015625 52.203125 
Q 14.9375 54.109375 19.578125 55.046875 
Q 24.21875 56 28.609375 56 
Q 40.484375 56 46.34375 49.84375 
Q 52.203125 43.703125 52.203125 31.203125 
z
" id="DejaVuSans-97"/>
       <path d="M 9.421875 54.6875 
L 18.40625 54.6875 
L 18.40625 0 
L 9.421875 0 
z
M 9.421875 75.984375 
L 18.40625 75.984375 
L 18.40625 64.59375 
L 9.421875 64.59375 
z
" id="DejaVuSans-105"/>
       <path d="M 54.890625 33.015625 
L 54.890625 0 
L 45.90625 0 
L 45.90625 32.71875 
Q 45.90625 40.484375 42.875 44.328125 
Q 39.84375 48.1875 33.796875 48.1875 
Q 26.515625 48.1875 22.3125 43.546875 
Q 18.109375 38.921875 18.109375 30.90625 
L 18.109375 0 
L 9.078125 0 
L 9.078125 54.6875 
L 18.109375 54.6875 
L 18.109375 46.1875 
Q 21.34375 51.125 25.703125 53.5625 
Q 30.078125 56 35.796875 56 
Q 45.21875 56 50.046875 50.171875 
Q 54.890625 44.34375 54.890625 33.015625 
z
" id="DejaVuSans-110"/>
       <path d="M 45.40625 27.984375 
Q 45.40625 37.75 41.375 43.109375 
Q 37.359375 48.484375 30.078125 48.484375 
Q 22.859375 48.484375 18.828125 43.109375 
Q 14.796875 37.75 14.796875 27.984375 
Q 14.796875 18.265625 18.828125 12.890625 
Q 22.859375 7.515625 30.078125 7.515625 
Q 37.359375 7.515625 41.375 12.890625 
Q 45.40625 18.265625 45.40625 27.984375 
z
M 54.390625 6.78125 
Q 54.390625 -7.171875 48.1875 -13.984375 
Q 42 -20.796875 29.203125 -20.796875 
Q 24.46875 -20.796875 20.265625 -20.09375 
Q 16.0625 -19.390625 12.109375 -17.921875 
L 12.109375 -9.1875 
Q 16.0625 -11.328125 19.921875 -12.34375 
Q 23.78125 -13.375 27.78125 -13.375 
Q 36.625 -13.375 41.015625 -8.765625 
Q 45.40625 -4.15625 45.40625 5.171875 
L 45.40625 9.625 
Q 42.625 4.78125 38.28125 2.390625 
Q 33.9375 0 27.875 0 
Q 17.828125 0 11.671875 7.65625 
Q 5.515625 15.328125 5.515625 27.984375 
Q 5.515625 40.671875 11.671875 48.328125 
Q 17.828125 56 27.875 56 
Q 33.9375 56 38.28125 53.609375 
Q 42.625 51.21875 45.40625 46.390625 
L 45.40625 54.6875 
L 54.390625 54.6875 
z
" id="DejaVuSans-103"/>
       <path id="DejaVuSans-32"/>
       <path d="M 18.109375 8.203125 
L 18.109375 -20.796875 
L 9.078125 -20.796875 
L 9.078125 54.6875 
L 18.109375 54.6875 
L 18.109375 46.390625 
Q 20.953125 51.265625 25.265625 53.625 
Q 29.59375 56 35.59375 56 
Q 45.5625 56 51.78125 48.09375 
Q 58.015625 40.1875 58.015625 27.296875 
Q 58.015625 14.40625 51.78125 6.484375 
Q 45.5625 -1.421875 35.59375 -1.421875 
Q 29.59375 -1.421875 25.265625 0.953125 
Q 20.953125 3.328125 18.109375 8.203125 
z
M 48.6875 27.296875 
Q 48.6875 37.203125 44.609375 42.84375 
Q 40.53125 48.484375 33.40625 48.484375 
Q 26.265625 48.484375 22.1875 42.84375 
Q 18.109375 37.203125 18.109375 27.296875 
Q 18.109375 17.390625 22.1875 11.75 
Q 26.265625 6.109375 33.40625 6.109375 
Q 40.53125 6.109375 44.609375 11.75 
Q 48.6875 17.390625 48.6875 27.296875 
z
" id="DejaVuSans-112"/>
       <path d="M 54.890625 33.015625 
L 54.890625 0 
L 45.90625 0 
L 45.90625 32.71875 
Q 45.90625 40.484375 42.875 44.328125 
Q 39.84375 48.1875 33.796875 48.1875 
Q 26.515625 48.1875 22.3125 43.546875 
Q 18.109375 38.921875 18.109375 30.90625 
L 18.109375 0 
L 9.078125 0 
L 9.078125 75.984375 
L 18.109375 75.984375 
L 18.109375 46.1875 
Q 21.34375 51.125 25.703125 53.5625 
Q 30.078125 56 35.796875 56 
Q 45.21875 56 50.046875 50.171875 
Q 54.890625 44.34375 54.890625 33.015625 
z
" id="DejaVuSans-104"/>
       <path d="M 44.28125 53.078125 
L 44.28125 44.578125 
Q 40.484375 46.53125 36.375 47.5 
Q 32.28125 48.484375 27.875 48.484375 
Q 21.1875 48.484375 17.84375 46.4375 
Q 14.5 44.390625 14.5 40.28125 
Q 14.5 37.15625 16.890625 35.375 
Q 19.28125 33.59375 26.515625 31.984375 
L 29.59375 31.296875 
Q 39.15625 29.25 43.1875 25.515625 
Q 47.21875 21.78125 47.21875 15.09375 
Q 47.21875 7.46875 41.1875 3.015625 
Q 35.15625 -1.421875 24.609375 -1.421875 
Q 20.21875 -1.421875 15.453125 -0.5625 
Q 10.6875 0.296875 5.421875 2 
L 5.421875 11.28125 
Q 10.40625 8.6875 15.234375 7.390625 
Q 20.0625 6.109375 24.8125 6.109375 
Q 31.15625 6.109375 34.5625 8.28125 
Q 37.984375 10.453125 37.984375 14.40625 
Q 37.984375 18.0625 35.515625 20.015625 
Q 33.0625 21.96875 24.703125 23.78125 
L 21.578125 24.515625 
Q 13.234375 26.265625 9.515625 29.90625 
Q 5.8125 33.546875 5.8125 39.890625 
Q 5.8125 47.609375 11.28125 51.796875 
Q 16.75 56 26.8125 56 
Q 31.78125 56 36.171875 55.265625 
Q 40.578125 54.546875 44.28125 53.078125 
z
" id="DejaVuSans-115"/>
       <path d="M 56.203125 29.59375 
L 56.203125 25.203125 
L 14.890625 25.203125 
Q 15.484375 15.921875 20.484375 11.0625 
Q 25.484375 6.203125 34.421875 6.203125 
Q 39.59375 6.203125 44.453125 7.46875 
Q 49.3125 8.734375 54.109375 11.28125 
L 54.109375 2.78125 
Q 49.265625 0.734375 44.1875 -0.34375 
Q 39.109375 -1.421875 33.890625 -1.421875 
Q 20.796875 -1.421875 13.15625 6.1875 
Q 5.515625 13.8125 5.515625 26.8125 
Q 5.515625 40.234375 12.765625 48.109375 
Q 20.015625 56 32.328125 56 
Q 43.359375 56 49.78125 48.890625 
Q 56.203125 41.796875 56.203125 29.59375 
z
M 47.21875 32.234375 
Q 47.125 39.59375 43.09375 43.984375 
Q 39.0625 48.390625 32.421875 48.390625 
Q 24.90625 48.390625 20.390625 44.140625 
Q 15.875 39.890625 15.1875 32.171875 
z
" id="DejaVuSans-101"/>
      </defs>
      <use xlink:href="#DejaVuSans-84"/>
      <use x="46.333984" xlink:href="#DejaVuSans-114"/>
      <use x="87.447266" xlink:href="#DejaVuSans-97"/>
      <use x="148.726562" xlink:href="#DejaVuSans-105"/>
      <use x="176.509766" xlink:href="#DejaVuSans-110"/>
      <use x="239.888672" xlink:href="#DejaVuSans-105"/>
      <use x="267.671875" xlink:href="#DejaVuSans-110"/>
      <use x="331.050781" xlink:href="#DejaVuSans-103"/>
      <use x="394.527344" xlink:href="#DejaVuSans-32"/>
      <use x="426.314453" xlink:href="#DejaVuSans-112"/>
      <use x="489.791016" xlink:href="#DejaVuSans-104"/>
      <use x="553.169922" xlink:href="#DejaVuSans-97"/>
      <use x="614.449219" xlink:href="#DejaVuSans-115"/>
      <use x="666.548828" xlink:href="#DejaVuSans-101"/>
     </g>
    </g>
   </g>
   <g id="matplotlib.axis_2">
    <g id="ytick_1">
     <g id="line2d_6">
      <defs>
       <path d="M 0 0 
L -3.5 0 
" id="m9205bef505" style="stroke:#000000;stroke-width:0.8;"/>
      </defs>
      <g>
       <use style="stroke:#000000;stroke-width:0.8;" x="55.6" xlink:href="#m9205bef505" y="307.584"/>
      </g>
     </g>
     <g id="text_7">
      <!-- 0 -->
      <g transform="translate(43.51 310.623375)scale(0.08 -0.08)">
       <use xlink:href="#DejaVuSans-48"/>
      </g>
     </g>
    </g>
    <g id="ytick_2">
     <g id="line2d_7">
      <g>
       <use style="stroke:#000000;stroke-width:0.8;" x="55.6" xlink:href="#m9205bef505" y="260.650667"/>
      </g>
     </g>
     <g id="text_8">
      <!-- 5 -->
      <g transform="translate(43.51 263.690042)scale(0.08 -0.08)">
       <defs>
        <path d="M 10.796875 72.90625 
L 49.515625 72.90625 
L 49.515625 64.59375 
L 19.828125 64.59375 
L 19.828125 46.734375 
Q 21.96875 47.46875 24.109375 47.828125 
Q 26.265625 48.1875 28.421875 48.1875 
Q 40.625 48.1875 47.75 41.5 
Q 54.890625 34.8125 54.890625 23.390625 
Q 54.890625 11.625 47.5625 5.09375 
Q 40.234375 -1.421875 26.90625 -1.421875 
Q 22.3125 -1.421875 17.546875 -0.640625 
Q 12.796875 0.140625 7.71875 1.703125 
L 7.71875 11.625 
Q 12.109375 9.234375 16.796875 8.0625 
Q 21.484375 6.890625 26.703125 6.890625 
Q 35.15625 6.890625 40.078125 11.328125 
Q 45.015625 15.765625 45.015625 23.390625 
Q 45.015625 31 40.078125 35.4375 
Q 35.15625 39.890625 26.703125 39.890625 
Q 22.75 39.890625 18.8125 39.015625 
Q 14.890625 38.140625 10.796875 36.28125 
z
" id="DejaVuSans-53"/>
       </defs>
       <use xlink:href="#DejaVuSans-53"/>
      </g>
     </g>
    </g>
    <g id="ytick_3">
     <g id="line2d_8">
      <g>
       <use style="stroke:#000000;stroke-width:0.8;" x="55.6" xlink:href="#m9205bef505" y="213.717333"/>
      </g>
     </g>
     <g id="text_9">
      <!-- 10 -->
      <g transform="translate(38.42 216.756708)scale(0.08 -0.08)">
       <use xlink:href="#DejaVuSans-49"/>
       <use x="63.623047" xlink:href="#DejaVuSans-48"/>
      </g>
     </g>
    </g>
    <g id="ytick_4">
     <g id="line2d_9">
      <g>
       <use style="stroke:#000000;stroke-width:0.8;" x="55.6" xlink:href="#m9205bef505" y="166.784"/>
      </g>
     </g>
     <g id="text_10">
      <!-- 15 -->
      <g transform="translate(38.42 169.823375)scale(0.08 -0.08)">
       <use xlink:href="#DejaVuSans-49"/>
       <use x="63.623047" xlink:href="#DejaVuSans-53"/>
      </g>
     </g>
    </g>
    <g id="ytick_5">
     <g id="line2d_10">
      <g>
       <use style="stroke:#000000;stroke-width:0.8;" x="55.6" xlink:href="#m9205bef505" y="119.850667"/>
      </g>
     </g>
     <g id="text_11">
      <!-- 20 -->
      <g transform="translate(38.42 122.890042)scale(0.08 -0.08)">
       <use xlink:href="#DejaVuSans-50"/>
       <use x="63.623047" xlink:href="#DejaVuSans-48"/>
      </g>
     </g>
    </g>
    <g id="ytick_6">
     <g id="line2d_11">
      <g>
       <use style="stroke:#000000;stroke-width:0.8;" x="55.6" xlink:href="#m9205bef505" y="72.917333"/>
      </g>
     </g>
     <g id="text_12">
      <!-- 25 -->
      <g transform="translate(38.42 75.956708)scale(0.08 -0.08)">
       <use xlink:href="#DejaVuSans-50"/>
       <use x="63.623047" xlink:href="#DejaVuSans-53"/>
      </g>
     </g>
    </g>
    <g id="text_13">
     <!-- N sessions -->
     <g transform="translate(31.924375 206.258625)rotate(-90)scale(0.12 -0.12)">
      <defs>
       <path d="M 9.8125 72.90625 
L 23.09375 72.90625 
L 55.421875 11.921875 
L 55.421875 72.90625 
L 64.984375 72.90625 
L 64.984375 0 
L 51.703125 0 
L 19.390625 60.984375 
L 19.390625 0 
L 9.8125 0 
z
" id="DejaVuSans-78"/>
       <path d="M 30.609375 48.390625 
Q 23.390625 48.390625 19.1875 42.75 
Q 14.984375 37.109375 14.984375 27.296875 
Q 14.984375 17.484375 19.15625 11.84375 
Q 23.34375 6.203125 30.609375 6.203125 
Q 37.796875 6.203125 41.984375 11.859375 
Q 46.1875 17.53125 46.1875 27.296875 
Q 46.1875 37.015625 41.984375 42.703125 
Q 37.796875 48.390625 30.609375 48.390625 
z
M 30.609375 56 
Q 42.328125 56 49.015625 48.375 
Q 55.71875 40.765625 55.71875 27.296875 
Q 55.71875 13.875 49.015625 6.21875 
Q 42.328125 -1.421875 30.609375 -1.421875 
Q 18.84375 -1.421875 12.171875 6.21875 
Q 5.515625 13.875 5.515625 27.296875 
Q 5.515625 40.765625 12.171875 48.375 
Q 18.84375 56 30.609375 56 
z
" id="DejaVuSans-111"/>
      </defs>
      <use xlink:href="#DejaVuSans-78"/>
      <use x="74.804688" xlink:href="#DejaVuSans-32"/>
      <use x="106.591797" xlink:href="#DejaVuSans-115"/>
      <use x="158.691406" xlink:href="#DejaVuSans-101"/>
      <use x="220.214844" xlink:href="#DejaVuSans-115"/>
      <use x="272.314453" xlink:href="#DejaVuSans-115"/>
      <use x="324.414062" xlink:href="#DejaVuSans-105"/>
      <use x="352.197266" xlink:href="#DejaVuSans-111"/>
      <use x="413.378906" xlink:href="#DejaVuSans-110"/>
      <use x="476.757812" xlink:href="#DejaVuSans-115"/>
     </g>
    </g>
   </g>
   <g id="line2d_12">
    <path clip-path="url(#p08236d61b5)" d="M 93.312 292.624 
L 93.312 284.704 
" style="fill:none;stroke:#424242;stroke-linecap:square;stroke-width:2.7;"/>
   </g>
   <g id="line2d_13">
    <path clip-path="url(#p08236d61b5)" d="M 164.736 247.939556 
L 164.736 218.601333 
" style="fill:none;stroke:#424242;stroke-linecap:square;stroke-width:2.7;"/>
   </g>
   <g id="line2d_14">
    <path clip-path="url(#p08236d61b5)" d="M 236.16 294.174476 
L 236.16 285.793524 
" style="fill:none;stroke:#424242;stroke-linecap:square;stroke-width:2.7;"/>
   </g>
   <g id="line2d_15">
    <path clip-path="url(#p08236d61b5)" d="M 307.584 292.498286 
L 307.584 277.077333 
" style="fill:none;stroke:#424242;stroke-linecap:square;stroke-width:2.7;"/>
   </g>
   <g id="line2d_16">
    <path clip-path="url(#p08236d61b5)" d="M 379.008 284.899556 
L 379.008 259.086222 
" style="fill:none;stroke:#424242;stroke-linecap:square;stroke-width:2.7;"/>
   </g>
   <g id="patch_8">
    <path d="M 55.6 307.584 
L 55.6 72.917333 
" style="fill:none;stroke:#000000;stroke-linecap:square;stroke-linejoin:miter;stroke-width:0.8;"/>
   </g>
   <g id="PathCollection_1">
    <defs>
     <path d="M 0 1 
C 0.265203 1 0.51958 0.894634 0.707107 0.707107 
C 0.894634 0.51958 1 0.265203 1 -0 
C 1 -0.265203 0.894634 -0.51958 0.707107 -0.707107 
C 0.51958 -0.894634 0.265203 -1 0 -1 
C -0.265203 -1 -0.51958 -0.894634 -0.707107 -0.707107 
C -0.894634 -0.51958 -1 -0.265203 -1 0 
C -1 0.265203 -0.894634 0.51958 -0.707107 0.707107 
C -0.51958 0.894634 -0.265203 1 0 1 
z
" id="C0_0_9418a2919b"/>
    </defs>
    <g clip-path="url(#p08236d61b5)">
     <use x="87.57051" xlink:href="#C0_0_9418a2919b" y="298.197333"/>
    </g>
    <g clip-path="url(#p08236d61b5)">
     <use x="94.114779" xlink:href="#C0_0_9418a2919b" y="298.197333"/>
    </g>
    <g clip-path="url(#p08236d61b5)">
     <use x="95.912523" xlink:href="#C0_0_9418a2919b" y="298.197333"/>
    </g>
    <g clip-path="url(#p08236d61b5)">
     <use x="93.239907" xlink:href="#C0_0_9418a2919b" y="288.810667"/>
    </g>
    <g clip-path="url(#p08236d61b5)">
     <use x="96.990185" xlink:href="#C0_0_9418a2919b" y="288.810667"/>
    </g>
    <g clip-path="url(#p08236d61b5)">
     <use x="90.794025" xlink:href="#C0_0_9418a2919b" y="288.810667"/>
    </g>
    <g clip-path="url(#p08236d61b5)">
     <use x="92.73537" xlink:href="#C0_0_9418a2919b" y="298.197333"/>
    </g>
    <g clip-path="url(#p08236d61b5)">
     <use x="100.442349" xlink:href="#C0_0_9418a2919b" y="288.810667"/>
    </g>
    <g clip-path="url(#p08236d61b5)">
     <use x="97.288753" xlink:href="#C0_0_9418a2919b" y="288.810667"/>
    </g>
    <g clip-path="url(#p08236d61b5)">
     <use x="88.137267" xlink:href="#C0_0_9418a2919b" y="298.197333"/>
    </g>
    <g clip-path="url(#p08236d61b5)">
     <use x="99.538144" xlink:href="#C0_0_9418a2919b" y="298.197333"/>
    </g>
    <g clip-path="url(#p08236d61b5)">
     <use x="92.833069" xlink:href="#C0_0_9418a2919b" y="298.197333"/>
    </g>
    <g clip-path="url(#p08236d61b5)">
     <use x="99.726163" xlink:href="#C0_0_9418a2919b" y="288.810667"/>
    </g>
    <g clip-path="url(#p08236d61b5)">
     <use x="98.931791" xlink:href="#C0_0_9418a2919b" y="288.810667"/>
    </g>
    <g clip-path="url(#p08236d61b5)">
     <use x="91.884156" xlink:href="#C0_0_9418a2919b" y="298.197333"/>
    </g>
    <g clip-path="url(#p08236d61b5)">
     <use x="87.825817" xlink:href="#C0_0_9418a2919b" y="260.650667"/>
    </g>
    <g clip-path="url(#p08236d61b5)">
     <use x="95.560791" xlink:href="#C0_0_9418a2919b" y="288.810667"/>
    </g>
    <g clip-path="url(#p08236d61b5)">
     <use x="95.801778" xlink:href="#C0_0_9418a2919b" y="279.424"/>
    </g>
    <g clip-path="url(#p08236d61b5)">
     <use x="92.577176" xlink:href="#C0_0_9418a2919b" y="270.037333"/>
    </g>
    <g clip-path="url(#p08236d61b5)">
     <use x="99.068238" xlink:href="#C0_0_9418a2919b" y="288.810667"/>
    </g>
    <g clip-path="url(#p08236d61b5)">
     <use x="96.097028" xlink:href="#C0_0_9418a2919b" y="288.810667"/>
    </g>
    <g clip-path="url(#p08236d61b5)">
     <use x="96.968017" xlink:href="#C0_0_9418a2919b" y="241.877333"/>
    </g>
    <g clip-path="url(#p08236d61b5)">
     <use x="92.901594" xlink:href="#C0_0_9418a2919b" y="288.810667"/>
    </g>
    <g clip-path="url(#p08236d61b5)">
     <use x="88.230959" xlink:href="#C0_0_9418a2919b" y="288.810667"/>
    </g>
    <g clip-path="url(#p08236d61b5)">
     <use x="95.740297" xlink:href="#C0_0_9418a2919b" y="288.810667"/>
    </g>
    <g clip-path="url(#p08236d61b5)">
     <use x="93.584015" xlink:href="#C0_0_9418a2919b" y="298.197333"/>
    </g>
    <g clip-path="url(#p08236d61b5)">
     <use x="95.417707" xlink:href="#C0_0_9418a2919b" y="298.197333"/>
    </g>
    <g clip-path="url(#p08236d61b5)">
     <use x="93.704224" xlink:href="#C0_0_9418a2919b" y="298.197333"/>
    </g>
    <g clip-path="url(#p08236d61b5)">
     <use x="93.350637" xlink:href="#C0_0_9418a2919b" y="298.197333"/>
    </g>
    <g clip-path="url(#p08236d61b5)">
     <use x="95.122586" xlink:href="#C0_0_9418a2919b" y="279.424"/>
    </g>
    <g clip-path="url(#p08236d61b5)">
     <use x="86.254675" xlink:href="#C0_0_9418a2919b" y="288.810667"/>
    </g>
    <g clip-path="url(#p08236d61b5)">
     <use x="98.284938" xlink:href="#C0_0_9418a2919b" y="288.810667"/>
    </g>
   </g>
   <g id="PathCollection_2">
    <defs>
     <path d="M 0 1 
C 0.265203 1 0.51958 0.894634 0.707107 0.707107 
C 0.894634 0.51958 1 0.265203 1 -0 
C 1 -0.265203 0.894634 -0.51958 0.707107 -0.707107 
C 0.51958 -0.894634 0.265203 -1 0 -1 
C -0.265203 -1 -0.51958 -0.894634 -0.707107 -0.707107 
C -0.894634 -0.51958 -1 -0.265203 -1 0 
C -1 0.265203 -0.894634 0.51958 -0.707107 0.707107 
C -0.51958 0.894634 -0.265203 1 0 1 
z
" id="C1_0_543591117a"/>
    </defs>
    <g clip-path="url(#p08236d61b5)">
     <use x="170.235904" xlink:href="#C1_0_543591117a" y="298.197333"/>
    </g>
    <g clip-path="url(#p08236d61b5)">
     <use x="161.861247" xlink:href="#C1_0_543591117a" y="298.197333"/>
    </g>
    <g clip-path="url(#p08236d61b5)">
     <use x="159.514422" xlink:href="#C1_0_543591117a" y="298.197333"/>
    </g>
    <g clip-path="url(#p08236d61b5)">
     <use x="167.480614" xlink:href="#C1_0_543591117a" y="298.197333"/>
    </g>
    <g clip-path="url(#p08236d61b5)">
     <use x="163.942694" xlink:href="#C1_0_543591117a" y="298.197333"/>
    </g>
    <g clip-path="url(#p08236d61b5)">
     <use x="164.593113" xlink:href="#C1_0_543591117a" y="298.197333"/>
    </g>
    <g clip-path="url(#p08236d61b5)">
     <use x="169.376872" xlink:href="#C1_0_543591117a" y="298.197333"/>
    </g>
    <g clip-path="url(#p08236d61b5)">
     <use x="171.507807" xlink:href="#C1_0_543591117a" y="298.197333"/>
    </g>
    <g clip-path="url(#p08236d61b5)">
     <use x="167.597413" xlink:href="#C1_0_543591117a" y="298.197333"/>
    </g>
    <g clip-path="url(#p08236d61b5)">
     <use x="165.213054" xlink:href="#C1_0_543591117a" y="298.197333"/>
    </g>
    <g clip-path="url(#p08236d61b5)">
     <use x="158.357463" xlink:href="#C1_0_543591117a" y="298.197333"/>
    </g>
    <g clip-path="url(#p08236d61b5)">
     <use x="166.902214" xlink:href="#C1_0_543591117a" y="298.197333"/>
    </g>
    <g clip-path="url(#p08236d61b5)">
     <use x="158.360845" xlink:href="#C1_0_543591117a" y="232.490667"/>
    </g>
    <g clip-path="url(#p08236d61b5)">
     <use x="169.381186" xlink:href="#C1_0_543591117a" y="223.104"/>
    </g>
    <g clip-path="url(#p08236d61b5)">
     <use x="162.975782" xlink:href="#C1_0_543591117a" y="223.104"/>
    </g>
    <g clip-path="url(#p08236d61b5)">
     <use x="160.659839" xlink:href="#C1_0_543591117a" y="241.877333"/>
    </g>
    <g clip-path="url(#p08236d61b5)">
     <use x="171.795674" xlink:href="#C1_0_543591117a" y="166.784"/>
    </g>
    <g clip-path="url(#p08236d61b5)">
     <use x="167.620901" xlink:href="#C1_0_543591117a" y="251.264"/>
    </g>
    <g clip-path="url(#p08236d61b5)">
     <use x="170.55298" xlink:href="#C1_0_543591117a" y="223.104"/>
    </g>
    <g clip-path="url(#p08236d61b5)">
     <use x="170.822584" xlink:href="#C1_0_543591117a" y="232.490667"/>
    </g>
    <g clip-path="url(#p08236d61b5)">
     <use x="167.626024" xlink:href="#C1_0_543591117a" y="185.557333"/>
    </g>
    <g clip-path="url(#p08236d61b5)">
     <use x="170.196471" xlink:href="#C1_0_543591117a" y="204.330667"/>
    </g>
    <g clip-path="url(#p08236d61b5)">
     <use x="159.652816" xlink:href="#C1_0_543591117a" y="232.490667"/>
    </g>
    <g clip-path="url(#p08236d61b5)">
     <use x="167.432223" xlink:href="#C1_0_543591117a" y="72.917333"/>
    </g>
    <g clip-path="url(#p08236d61b5)">
     <use x="171.237993" xlink:href="#C1_0_543591117a" y="204.330667"/>
    </g>
    <g clip-path="url(#p08236d61b5)">
     <use x="164.515365" xlink:href="#C1_0_543591117a" y="223.104"/>
    </g>
    <g clip-path="url(#p08236d61b5)">
     <use x="164.262049" xlink:href="#C1_0_543591117a" y="223.104"/>
    </g>
    <g clip-path="url(#p08236d61b5)">
     <use x="162.806707" xlink:href="#C1_0_543591117a" y="241.877333"/>
    </g>
    <g clip-path="url(#p08236d61b5)">
     <use x="164.789125" xlink:href="#C1_0_543591117a" y="166.784"/>
    </g>
    <g clip-path="url(#p08236d61b5)">
     <use x="161.284462" xlink:href="#C1_0_543591117a" y="270.037333"/>
    </g>
    <g clip-path="url(#p08236d61b5)">
     <use x="164.523781" xlink:href="#C1_0_543591117a" y="213.717333"/>
    </g>
    <g clip-path="url(#p08236d61b5)">
     <use x="158.980459" xlink:href="#C1_0_543591117a" y="232.490667"/>
    </g>
    <g clip-path="url(#p08236d61b5)">
     <use x="170.85978" xlink:href="#C1_0_543591117a" y="157.397333"/>
    </g>
    <g clip-path="url(#p08236d61b5)">
     <use x="164.679203" xlink:href="#C1_0_543591117a" y="260.650667"/>
    </g>
    <g clip-path="url(#p08236d61b5)">
     <use x="163.286244" xlink:href="#C1_0_543591117a" y="241.877333"/>
    </g>
    <g clip-path="url(#p08236d61b5)">
     <use x="160.68602" xlink:href="#C1_0_543591117a" y="213.717333"/>
    </g>
    <g clip-path="url(#p08236d61b5)">
     <use x="168.336887" xlink:href="#C1_0_543591117a" y="223.104"/>
    </g>
    <g clip-path="url(#p08236d61b5)">
     <use x="171.210531" xlink:href="#C1_0_543591117a" y="166.784"/>
    </g>
    <g clip-path="url(#p08236d61b5)">
     <use x="157.894376" xlink:href="#C1_0_543591117a" y="241.877333"/>
    </g>
    <g clip-path="url(#p08236d61b5)">
     <use x="167.13756" xlink:href="#C1_0_543591117a" y="232.490667"/>
    </g>
    <g clip-path="url(#p08236d61b5)">
     <use x="164.374373" xlink:href="#C1_0_543591117a" y="54.144"/>
    </g>
    <g clip-path="url(#p08236d61b5)">
     <use x="159.132628" xlink:href="#C1_0_543591117a" y="232.490667"/>
    </g>
    <g clip-path="url(#p08236d61b5)">
     <use x="161.785586" xlink:href="#C1_0_543591117a" y="213.717333"/>
    </g>
    <g clip-path="url(#p08236d61b5)">
     <use x="158.489672" xlink:href="#C1_0_543591117a" y="204.330667"/>
    </g>
    <g clip-path="url(#p08236d61b5)">
     <use x="164.949847" xlink:href="#C1_0_543591117a" y="251.264"/>
    </g>
    <g clip-path="url(#p08236d61b5)">
     <use x="170.223241" xlink:href="#C1_0_543591117a" y="232.490667"/>
    </g>
    <g clip-path="url(#p08236d61b5)">
     <use x="158.433773" xlink:href="#C1_0_543591117a" y="232.490667"/>
    </g>
    <g clip-path="url(#p08236d61b5)">
     <use x="162.8369" xlink:href="#C1_0_543591117a" y="223.104"/>
    </g>
   </g>
   <g id="PathCollection_3">
    <defs>
     <path d="M 0 1 
C 0.265203 1 0.51958 0.894634 0.707107 0.707107 
C 0.894634 0.51958 1 0.265203 1 -0 
C 1 -0.265203 0.894634 -0.51958 0.707107 -0.707107 
C 0.51958 -0.894634 0.265203 -1 0 -1 
C -0.265203 -1 -0.51958 -0.894634 -0.707107 -0.707107 
C -0.894634 -0.51958 -1 -0.265203 -1 0 
C -1 0.265203 -0.894634 0.51958 -0.707107 0.707107 
C -0.51958 0.894634 -0.265203 1 0 1 
z
" id="C2_0_24e9ddadeb"/>
    </defs>
    <g clip-path="url(#p08236d61b5)">
     <use x="229.988969" xlink:href="#C2_0_24e9ddadeb" y="288.810667"/>
    </g>
    <g clip-path="url(#p08236d61b5)">
     <use x="240.531671" xlink:href="#C2_0_24e9ddadeb" y="279.424"/>
    </g>
    <g clip-path="url(#p08236d61b5)">
     <use x="237.195168" xlink:href="#C2_0_24e9ddadeb" y="288.810667"/>
    </g>
    <g clip-path="url(#p08236d61b5)">
     <use x="240.58768" xlink:href="#C2_0_24e9ddadeb" y="298.197333"/>
    </g>
    <g clip-path="url(#p08236d61b5)">
     <use x="231.351882" xlink:href="#C2_0_24e9ddadeb" y="260.650667"/>
    </g>
    <g clip-path="url(#p08236d61b5)">
     <use x="233.746302" xlink:href="#C2_0_24e9ddadeb" y="298.197333"/>
    </g>
    <g clip-path="url(#p08236d61b5)">
     <use x="233.510364" xlink:href="#C2_0_24e9ddadeb" y="288.810667"/>
    </g>
    <g clip-path="url(#p08236d61b5)">
     <use x="241.816323" xlink:href="#C2_0_24e9ddadeb" y="298.197333"/>
    </g>
    <g clip-path="url(#p08236d61b5)">
     <use x="232.049503" xlink:href="#C2_0_24e9ddadeb" y="298.197333"/>
    </g>
    <g clip-path="url(#p08236d61b5)">
     <use x="233.11521" xlink:href="#C2_0_24e9ddadeb" y="298.197333"/>
    </g>
    <g clip-path="url(#p08236d61b5)">
     <use x="242.510252" xlink:href="#C2_0_24e9ddadeb" y="270.037333"/>
    </g>
    <g clip-path="url(#p08236d61b5)">
     <use x="230.947676" xlink:href="#C2_0_24e9ddadeb" y="260.650667"/>
    </g>
    <g clip-path="url(#p08236d61b5)">
     <use x="236.142167" xlink:href="#C2_0_24e9ddadeb" y="270.037333"/>
    </g>
    <g clip-path="url(#p08236d61b5)">
     <use x="241.114378" xlink:href="#C2_0_24e9ddadeb" y="298.197333"/>
    </g>
    <g clip-path="url(#p08236d61b5)">
     <use x="230.159259" xlink:href="#C2_0_24e9ddadeb" y="298.197333"/>
    </g>
    <g clip-path="url(#p08236d61b5)">
     <use x="237.010237" xlink:href="#C2_0_24e9ddadeb" y="298.197333"/>
    </g>
    <g clip-path="url(#p08236d61b5)">
     <use x="239.325798" xlink:href="#C2_0_24e9ddadeb" y="288.810667"/>
    </g>
    <g clip-path="url(#p08236d61b5)">
     <use x="231.908511" xlink:href="#C2_0_24e9ddadeb" y="298.197333"/>
    </g>
    <g clip-path="url(#p08236d61b5)">
     <use x="234.773039" xlink:href="#C2_0_24e9ddadeb" y="298.197333"/>
    </g>
    <g clip-path="url(#p08236d61b5)">
     <use x="233.89971" xlink:href="#C2_0_24e9ddadeb" y="298.197333"/>
    </g>
    <g clip-path="url(#p08236d61b5)">
     <use x="235.558893" xlink:href="#C2_0_24e9ddadeb" y="298.197333"/>
    </g>
    <g clip-path="url(#p08236d61b5)">
     <use x="237.489476" xlink:href="#C2_0_24e9ddadeb" y="298.197333"/>
    </g>
    <g clip-path="url(#p08236d61b5)">
     <use x="229.754963" xlink:href="#C2_0_24e9ddadeb" y="298.197333"/>
    </g>
    <g clip-path="url(#p08236d61b5)">
     <use x="237.79058" xlink:href="#C2_0_24e9ddadeb" y="279.424"/>
    </g>
    <g clip-path="url(#p08236d61b5)">
     <use x="236.662208" xlink:href="#C2_0_24e9ddadeb" y="298.197333"/>
    </g>
    <g clip-path="url(#p08236d61b5)">
     <use x="237.072607" xlink:href="#C2_0_24e9ddadeb" y="298.197333"/>
    </g>
    <g clip-path="url(#p08236d61b5)">
     <use x="235.920065" xlink:href="#C2_0_24e9ddadeb" y="298.197333"/>
    </g>
    <g clip-path="url(#p08236d61b5)">
     <use x="236.395695" xlink:href="#C2_0_24e9ddadeb" y="279.424"/>
    </g>
   </g>
   <g id="PathCollection_4">
    <defs>
     <path d="M 0 1 
C 0.265203 1 0.51958 0.894634 0.707107 0.707107 
C 0.894634 0.51958 1 0.265203 1 -0 
C 1 -0.265203 0.894634 -0.51958 0.707107 -0.707107 
C 0.51958 -0.894634 0.265203 -1 0 -1 
C -0.265203 -1 -0.51958 -0.894634 -0.707107 -0.707107 
C -0.894634 -0.51958 -1 -0.265203 -1 0 
C -1 0.265203 -0.894634 0.51958 -0.707107 0.707107 
C -0.51958 0.894634 -0.265203 1 0 1 
z
" id="C3_0_71b512a4ba"/>
    </defs>
    <g clip-path="url(#p08236d61b5)">
     <use x="308.266412" xlink:href="#C3_0_71b512a4ba" y="298.197333"/>
    </g>
    <g clip-path="url(#p08236d61b5)">
     <use x="301.873195" xlink:href="#C3_0_71b512a4ba" y="298.197333"/>
    </g>
    <g clip-path="url(#p08236d61b5)">
     <use x="310.379455" xlink:href="#C3_0_71b512a4ba" y="213.717333"/>
    </g>
    <g clip-path="url(#p08236d61b5)">
     <use x="313.350145" xlink:href="#C3_0_71b512a4ba" y="270.037333"/>
    </g>
    <g clip-path="url(#p08236d61b5)">
     <use x="314.614325" xlink:href="#C3_0_71b512a4ba" y="298.197333"/>
    </g>
    <g clip-path="url(#p08236d61b5)">
     <use x="311.07916" xlink:href="#C3_0_71b512a4ba" y="260.650667"/>
    </g>
    <g clip-path="url(#p08236d61b5)">
     <use x="306.902531" xlink:href="#C3_0_71b512a4ba" y="298.197333"/>
    </g>
    <g clip-path="url(#p08236d61b5)">
     <use x="302.842002" xlink:href="#C3_0_71b512a4ba" y="298.197333"/>
    </g>
    <g clip-path="url(#p08236d61b5)">
     <use x="309.337951" xlink:href="#C3_0_71b512a4ba" y="298.197333"/>
    </g>
    <g clip-path="url(#p08236d61b5)">
     <use x="302.764428" xlink:href="#C3_0_71b512a4ba" y="251.264"/>
    </g>
    <g clip-path="url(#p08236d61b5)">
     <use x="300.580856" xlink:href="#C3_0_71b512a4ba" y="279.424"/>
    </g>
    <g clip-path="url(#p08236d61b5)">
     <use x="300.883027" xlink:href="#C3_0_71b512a4ba" y="241.877333"/>
    </g>
    <g clip-path="url(#p08236d61b5)">
     <use x="311.034892" xlink:href="#C3_0_71b512a4ba" y="288.810667"/>
    </g>
    <g clip-path="url(#p08236d61b5)">
     <use x="307.692916" xlink:href="#C3_0_71b512a4ba" y="270.037333"/>
    </g>
    <g clip-path="url(#p08236d61b5)">
     <use x="307.171758" xlink:href="#C3_0_71b512a4ba" y="298.197333"/>
    </g>
    <g clip-path="url(#p08236d61b5)">
     <use x="310.990478" xlink:href="#C3_0_71b512a4ba" y="298.197333"/>
    </g>
    <g clip-path="url(#p08236d61b5)">
     <use x="308.117793" xlink:href="#C3_0_71b512a4ba" y="298.197333"/>
    </g>
    <g clip-path="url(#p08236d61b5)">
     <use x="310.541433" xlink:href="#C3_0_71b512a4ba" y="298.197333"/>
    </g>
    <g clip-path="url(#p08236d61b5)">
     <use x="313.623007" xlink:href="#C3_0_71b512a4ba" y="298.197333"/>
    </g>
    <g clip-path="url(#p08236d61b5)">
     <use x="305.752352" xlink:href="#C3_0_71b512a4ba" y="298.197333"/>
    </g>
    <g clip-path="url(#p08236d61b5)">
     <use x="305.793851" xlink:href="#C3_0_71b512a4ba" y="260.650667"/>
    </g>
    <g clip-path="url(#p08236d61b5)">
     <use x="307.116752" xlink:href="#C3_0_71b512a4ba" y="298.197333"/>
    </g>
    <g clip-path="url(#p08236d61b5)">
     <use x="307.093751" xlink:href="#C3_0_71b512a4ba" y="298.197333"/>
    </g>
    <g clip-path="url(#p08236d61b5)">
     <use x="304.889507" xlink:href="#C3_0_71b512a4ba" y="298.197333"/>
    </g>
    <g clip-path="url(#p08236d61b5)">
     <use x="309.946141" xlink:href="#C3_0_71b512a4ba" y="298.197333"/>
    </g>
    <g clip-path="url(#p08236d61b5)">
     <use x="309.715632" xlink:href="#C3_0_71b512a4ba" y="298.197333"/>
    </g>
    <g clip-path="url(#p08236d61b5)">
     <use x="302.399145" xlink:href="#C3_0_71b512a4ba" y="298.197333"/>
    </g>
    <g clip-path="url(#p08236d61b5)">
     <use x="307.181069" xlink:href="#C3_0_71b512a4ba" y="270.037333"/>
    </g>
   </g>
   <g id="PathCollection_5">
    <defs>
     <path d="M 0 1 
C 0.265203 1 0.51958 0.894634 0.707107 0.707107 
C 0.894634 0.51958 1 0.265203 1 -0 
C 1 -0.265203 0.894634 -0.51958 0.707107 -0.707107 
C 0.51958 -0.894634 0.265203 -1 0 -1 
C -0.265203 -1 -0.51958 -0.894634 -0.707107 -0.707107 
C -0.894634 -0.51958 -1 -0.265203 -1 0 
C -1 0.265203 -0.894634 0.51958 -0.707107 0.707107 
C -0.51958 0.894634 -0.265203 1 0 1 
z
" id="C4_0_5f3a7b5a23"/>
    </defs>
    <g clip-path="url(#p08236d61b5)">
     <use x="373.061387" xlink:href="#C4_0_5f3a7b5a23" y="298.197333"/>
    </g>
    <g clip-path="url(#p08236d61b5)">
     <use x="380.704814" xlink:href="#C4_0_5f3a7b5a23" y="298.197333"/>
    </g>
    <g clip-path="url(#p08236d61b5)">
     <use x="379.900824" xlink:href="#C4_0_5f3a7b5a23" y="298.197333"/>
    </g>
    <g clip-path="url(#p08236d61b5)">
     <use x="382.853323" xlink:href="#C4_0_5f3a7b5a23" y="298.197333"/>
    </g>
    <g clip-path="url(#p08236d61b5)">
     <use x="374.444887" xlink:href="#C4_0_5f3a7b5a23" y="288.810667"/>
    </g>
    <g clip-path="url(#p08236d61b5)">
     <use x="378.686547" xlink:href="#C4_0_5f3a7b5a23" y="270.037333"/>
    </g>
    <g clip-path="url(#p08236d61b5)">
     <use x="375.538258" xlink:href="#C4_0_5f3a7b5a23" y="241.877333"/>
    </g>
    <g clip-path="url(#p08236d61b5)">
     <use x="373.444316" xlink:href="#C4_0_5f3a7b5a23" y="241.877333"/>
    </g>
    <g clip-path="url(#p08236d61b5)">
     <use x="382.321048" xlink:href="#C4_0_5f3a7b5a23" y="241.877333"/>
    </g>
    <g clip-path="url(#p08236d61b5)">
     <use x="373.720267" xlink:href="#C4_0_5f3a7b5a23" y="288.810667"/>
    </g>
    <g clip-path="url(#p08236d61b5)">
     <use x="375.36222" xlink:href="#C4_0_5f3a7b5a23" y="260.650667"/>
    </g>
    <g clip-path="url(#p08236d61b5)">
     <use x="372.958727" xlink:href="#C4_0_5f3a7b5a23" y="241.877333"/>
    </g>
   </g>
   <g id="text_14">
    <!-- N sessions per phase (n=48/56 rats) -->
    <g transform="translate(57.6 35.472)scale(0.06 -0.06)">
     <defs>
      <path d="M 31 75.875 
Q 24.46875 64.65625 21.28125 53.65625 
Q 18.109375 42.671875 18.109375 31.390625 
Q 18.109375 20.125 21.3125 9.0625 
Q 24.515625 -2 31 -13.1875 
L 23.1875 -13.1875 
Q 15.875 -1.703125 12.234375 9.375 
Q 8.59375 20.453125 8.59375 31.390625 
Q 8.59375 42.28125 12.203125 53.3125 
Q 15.828125 64.359375 23.1875 75.875 
z
" id="DejaVuSans-40"/>
      <path d="M 10.59375 45.40625 
L 73.1875 45.40625 
L 73.1875 37.203125 
L 10.59375 37.203125 
z
M 10.59375 25.484375 
L 73.1875 25.484375 
L 73.1875 17.1875 
L 10.59375 17.1875 
z
" id="DejaVuSans-61"/>
      <path d="M 31.78125 34.625 
Q 24.75 34.625 20.71875 30.859375 
Q 16.703125 27.09375 16.703125 20.515625 
Q 16.703125 13.921875 20.71875 10.15625 
Q 24.75 6.390625 31.78125 6.390625 
Q 38.8125 6.390625 42.859375 10.171875 
Q 46.921875 13.96875 46.921875 20.515625 
Q 46.921875 27.09375 42.890625 30.859375 
Q 38.875 34.625 31.78125 34.625 
z
M 21.921875 38.8125 
Q 15.578125 40.375 12.03125 44.71875 
Q 8.5 49.078125 8.5 55.328125 
Q 8.5 64.0625 14.71875 69.140625 
Q 20.953125 74.21875 31.78125 74.21875 
Q 42.671875 74.21875 48.875 69.140625 
Q 55.078125 64.0625 55.078125 55.328125 
Q 55.078125 49.078125 51.53125 44.71875 
Q 48 40.375 41.703125 38.8125 
Q 48.828125 37.15625 52.796875 32.3125 
Q 56.78125 27.484375 56.78125 20.515625 
Q 56.78125 9.90625 50.3125 4.234375 
Q 43.84375 -1.421875 31.78125 -1.421875 
Q 19.734375 -1.421875 13.25 4.234375 
Q 6.78125 9.90625 6.78125 20.515625 
Q 6.78125 27.484375 10.78125 32.3125 
Q 14.796875 37.15625 21.921875 38.8125 
z
M 18.3125 54.390625 
Q 18.3125 48.734375 21.84375 45.5625 
Q 25.390625 42.390625 31.78125 42.390625 
Q 38.140625 42.390625 41.71875 45.5625 
Q 45.3125 48.734375 45.3125 54.390625 
Q 45.3125 60.0625 41.71875 63.234375 
Q 38.140625 66.40625 31.78125 66.40625 
Q 25.390625 66.40625 21.84375 63.234375 
Q 18.3125 60.0625 18.3125 54.390625 
z
" id="DejaVuSans-56"/>
      <path d="M 25.390625 72.90625 
L 33.6875 72.90625 
L 8.296875 -9.28125 
L 0 -9.28125 
z
" id="DejaVuSans-47"/>
      <path d="M 33.015625 40.375 
Q 26.375 40.375 22.484375 35.828125 
Q 18.609375 31.296875 18.609375 23.390625 
Q 18.609375 15.53125 22.484375 10.953125 
Q 26.375 6.390625 33.015625 6.390625 
Q 39.65625 6.390625 43.53125 10.953125 
Q 47.40625 15.53125 47.40625 23.390625 
Q 47.40625 31.296875 43.53125 35.828125 
Q 39.65625 40.375 33.015625 40.375 
z
M 52.59375 71.296875 
L 52.59375 62.3125 
Q 48.875 64.0625 45.09375 64.984375 
Q 41.3125 65.921875 37.59375 65.921875 
Q 27.828125 65.921875 22.671875 59.328125 
Q 17.53125 52.734375 16.796875 39.40625 
Q 19.671875 43.65625 24.015625 45.921875 
Q 28.375 48.1875 33.59375 48.1875 
Q 44.578125 48.1875 50.953125 41.515625 
Q 57.328125 34.859375 57.328125 23.390625 
Q 57.328125 12.15625 50.6875 5.359375 
Q 44.046875 -1.421875 33.015625 -1.421875 
Q 20.359375 -1.421875 13.671875 8.265625 
Q 6.984375 17.96875 6.984375 36.375 
Q 6.984375 53.65625 15.1875 63.9375 
Q 23.390625 74.21875 37.203125 74.21875 
Q 40.921875 74.21875 44.703125 73.484375 
Q 48.484375 72.75 52.59375 71.296875 
z
" id="DejaVuSans-54"/>
      <path d="M 18.3125 70.21875 
L 18.3125 54.6875 
L 36.8125 54.6875 
L 36.8125 47.703125 
L 18.3125 47.703125 
L 18.3125 18.015625 
Q 18.3125 11.328125 20.140625 9.421875 
Q 21.96875 7.515625 27.59375 7.515625 
L 36.8125 7.515625 
L 36.8125 0 
L 27.59375 0 
Q 17.1875 0 13.234375 3.875 
Q 9.28125 7.765625 9.28125 18.015625 
L 9.28125 47.703125 
L 2.6875 47.703125 
L 2.6875 54.6875 
L 9.28125 54.6875 
L 9.28125 70.21875 
z
" id="DejaVuSans-116"/>
      <path d="M 8.015625 75.875 
L 15.828125 75.875 
Q 23.140625 64.359375 26.78125 53.3125 
Q 30.421875 42.28125 30.421875 31.390625 
Q 30.421875 20.453125 26.78125 9.375 
Q 23.140625 -1.703125 15.828125 -13.1875 
L 8.015625 -13.1875 
Q 14.5 -2 17.703125 9.0625 
Q 20.90625 20.125 20.90625 31.390625 
Q 20.90625 42.671875 17.703125 53.65625 
Q 14.5 64.65625 8.015625 75.875 
z
" id="DejaVuSans-41"/>
     </defs>
     <use xlink:href="#DejaVuSans-78"/>
     <use x="74.804688" xlink:href="#DejaVuSans-32"/>
     <use x="106.591797" xlink:href="#DejaVuSans-115"/>
     <use x="158.691406" xlink:href="#DejaVuSans-101"/>
     <use x="220.214844" xlink:href="#DejaVuSans-115"/>
     <use x="272.314453" xlink:href="#DejaVuSans-115"/>
     <use x="324.414062" xlink:href="#DejaVuSans-105"/>
     <use x="352.197266" xlink:href="#DejaVuSans-111"/>
     <use x="413.378906" xlink:href="#DejaVuSans-110"/>
     <use x="476.757812" xlink:href="#DejaVuSans-115"/>
     <use x="528.857422" xlink:href="#DejaVuSans-32"/>
     <use x="560.644531" xlink:href="#DejaVuSans-112"/>
     <use x="624.121094" xlink:href="#DejaVuSans-101"/>
     <use x="685.644531" xlink:href="#DejaVuSans-114"/>
     <use x="726.757812" xlink:href="#DejaVuSans-32"/>
     <use x="758.544922" xlink:href="#DejaVuSans-112"/>
     <use x="822.021484" xlink:href="#DejaVuSans-104"/>
     <use x="885.400391" xlink:href="#DejaVuSans-97"/>
     <use x="946.679688" xlink:href="#DejaVuSans-115"/>
     <use x="998.779297" xlink:href="#DejaVuSans-101"/>
     <use x="1060.302734" xlink:href="#DejaVuSans-32"/>
     <use x="1092.089844" xlink:href="#DejaVuSans-40"/>
     <use x="1131.103516" xlink:href="#DejaVuSans-110"/>
     <use x="1194.482422" xlink:href="#DejaVuSans-61"/>
     <use x="1278.271484" xlink:href="#DejaVuSans-52"/>
     <use x="1341.894531" xlink:href="#DejaVuSans-56"/>
     <use x="1405.517578" xlink:href="#DejaVuSans-47"/>
     <use x="1439.208984" xlink:href="#DejaVuSans-53"/>
     <use x="1502.832031" xlink:href="#DejaVuSans-54"/>
     <use x="1566.455078" xlink:href="#DejaVuSans-32"/>
     <use x="1598.242188" xlink:href="#DejaVuSans-114"/>
     <use x="1639.355469" xlink:href="#DejaVuSans-97"/>
     <use x="1700.634766" xlink:href="#DejaVuSans-116"/>
     <use x="1739.84375" xlink:href="#DejaVuSans-115"/>
     <use x="1791.943359" xlink:href="#DejaVuSans-41"/>
    </g>
   </g>
  </g>
 </g>
 <defs>
  <clipPath id="p08236d61b5">
   <rect height="266.112" width="357.12" x="57.6" y="41.472"/>
  </clipPath>
 </defs>
</svg>
