<?xml version="1.0" encoding="utf-8" standalone="no"?>
<!DOCTYPE svg PUBLIC "-//W3C//DTD SVG 1.1//EN"
  "http://www.w3.org/Graphics/SVG/1.1/DTD/svg11.dtd">
<!-- Created with matplotlib (https://matplotlib.org/) -->
<svg height="360pt" version="1.1" viewBox="0 0 360 360" width="360pt" xmlns="http://www.w3.org/2000/svg" xmlns:xlink="http://www.w3.org/1999/xlink">
 <metadata>
  <rdf:RDF xmlns:cc="http://creativecommons.org/ns#" xmlns:dc="http://purl.org/dc/elements/1.1/" xmlns:rdf="http://www.w3.org/1999/02/22-rdf-syntax-ns#">
   <cc:Work>
    <dc:type rdf:resource="http://purl.org/dc/dcmitype/StillImage"/>
    <dc:date>2021-04-17T14:57:09.816164</dc:date>
    <dc:format>image/svg+xml</dc:format>
    <dc:creator>
     <cc:Agent>
      <dc:title>Matplotlib v3.3.4, https://matplotlib.org/</dc:title>
     </cc:Agent>
    </dc:creator>
   </cc:Work>
  </rdf:RDF>
 </metadata>
 <defs>
  <style type="text/css">*{stroke-linecap:butt;stroke-linejoin:round;}</style>
 </defs>
 <g id="figure_1">
  <g id="patch_1">
   <path d="M 0 360 
L 360 360 
L 360 0 
L 0 0 
z
" style="fill:#ffffff;"/>
  </g>
  <g id="axes_1">
   <g id="patch_2">
    <path d="M 75.6 288 
L 320.4 288 
L 320.4 43.2 
L 75.6 43.2 
z
" style="fill:#ffffff;"/>
   </g>
   <g id="PathCollection_1">
    <defs>
     <path d="M 0 1.581139 
C 0.419323 1.581139 0.821528 1.41454 1.118034 1.118034 
C 1.41454 0.821528 1.581139 0.419323 1.581139 0 
C 1.581139 -0.419323 1.41454 -0.821528 1.118034 -1.118034 
C 0.821528 -1.41454 0.419323 -1.581139 0 -1.581139 
C -0.419323 -1.581139 -0.821528 -1.41454 -1.118034 -1.118034 
C -1.41454 -0.821528 -1.581139 -0.419323 -1.581139 0 
C -1.581139 0.419323 -1.41454 0.821528 -1.118034 1.118034 
C -0.821528 1.41454 -0.419323 1.581139 0 1.581139 
z
" id="ma723c5f022" style="stroke:#000000;"/>
    </defs>
    <g clip-path="url(#pf3bc6b6a62)">
     <use style="stroke:#000000;" x="217.928203" xlink:href="#ma723c5f022" y="264.862522"/>
     <use style="stroke:#000000;" x="104.787396" xlink:href="#ma723c5f022" y="98.203949"/>
     <use style="stroke:#000000;" x="111.973674" xlink:href="#ma723c5f022" y="96.0626"/>
     <use style="stroke:#000000;" x="140.770401" xlink:href="#ma723c5f022" y="174.294423"/>
     <use style="stroke:#000000;" x="100.476349" xlink:href="#ma723c5f022" y="67.135259"/>
     <use style="stroke:#000000;" x="129.998916" xlink:href="#ma723c5f022" y="116.519124"/>
     <use style="stroke:#000000;" x="132.802063" xlink:href="#ma723c5f022" y="132.6379"/>
     <use style="stroke:#000000;" x="121.97656" xlink:href="#ma723c5f022" y="117.407866"/>
     <use style="stroke:#000000;" x="115.574182" xlink:href="#ma723c5f022" y="88.359599"/>
     <use style="stroke:#000000;" x="150.95354" xlink:href="#ma723c5f022" y="159.830123"/>
     <use style="stroke:#000000;" x="143.163229" xlink:href="#ma723c5f022" y="101.663331"/>
     <use style="stroke:#000000;" x="101.538754" xlink:href="#ma723c5f022" y="133.017485"/>
     <use style="stroke:#000000;" x="119.372002" xlink:href="#ma723c5f022" y="77.734636"/>
     <use style="stroke:#000000;" x="128.372369" xlink:href="#ma723c5f022" y="84.062469"/>
     <use style="stroke:#000000;" x="121.2153" xlink:href="#ma723c5f022" y="94.544588"/>
     <use style="stroke:#000000;" x="107.613666" xlink:href="#ma723c5f022" y="88.359505"/>
     <use style="stroke:#000000;" x="117.65219" xlink:href="#ma723c5f022" y="137.991802"/>
     <use style="stroke:#000000;" x="123.163249" xlink:href="#ma723c5f022" y="89.054529"/>
     <use style="stroke:#000000;" x="120.506381" xlink:href="#ma723c5f022" y="135.316928"/>
     <use style="stroke:#000000;" x="134.888044" xlink:href="#ma723c5f022" y="176.233077"/>
     <use style="stroke:#000000;" x="159.872025" xlink:href="#ma723c5f022" y="131.565151"/>
     <use style="stroke:#000000;" x="122.375067" xlink:href="#ma723c5f022" y="137.206822"/>
     <use style="stroke:#000000;" x="123.300583" xlink:href="#ma723c5f022" y="119.066991"/>
     <use style="stroke:#000000;" x="114.930028" xlink:href="#ma723c5f022" y="95.833363"/>
     <use style="stroke:#000000;" x="100.028223" xlink:href="#ma723c5f022" y="90.018281"/>
     <use style="stroke:#000000;" x="131.88537" xlink:href="#ma723c5f022" y="85.080868"/>
     <use style="stroke:#000000;" x="106.750047" xlink:href="#ma723c5f022" y="74.564894"/>
     <use style="stroke:#000000;" x="116.573233" xlink:href="#ma723c5f022" y="127.851711"/>
     <use style="stroke:#000000;" x="143.575716" xlink:href="#ma723c5f022" y="131.895137"/>
    </g>
   </g>
   <g id="PolyCollection_1">
    <path clip-path="url(#pf3bc6b6a62)" d="M 75.6 31.615839 
L 75.6 83.914061 
L 78.072727 85.603988 
L 80.545455 87.381675 
L 83.018182 89.115527 
L 85.490909 90.545916 
L 87.963636 92.321266 
L 90.436364 94.105672 
L 92.909091 95.472105 
L 95.381818 97.089663 
L 97.854545 98.580525 
L 100.327273 100.670621 
L 102.8 102.52622 
L 105.272727 104.474511 
L 107.745455 106.315089 
L 110.218182 108.50535 
L 112.690909 110.43596 
L 115.163636 113.319743 
L 117.636364 115.689626 
L 120.109091 118.452941 
L 122.581818 121.553968 
L 125.054545 124.980327 
L 127.527273 128.362316 
L 130 131.898468 
L 132.472727 135.593612 
L 134.945455 139.203326 
L 137.418182 142.80445 
L 139.890909 146.454496 
L 142.363636 150.255385 
L 144.836364 153.857842 
L 147.309091 157.678789 
L 149.781818 161.427647 
L 152.254545 165.305866 
L 154.727273 169.169542 
L 157.2 173.038842 
L 159.672727 177.03864 
L 162.145455 180.958787 
L 164.618182 185.010204 
L 167.090909 189.003087 
L 169.563636 193.04078 
L 172.036364 197.043832 
L 174.509091 201.046678 
L 176.981818 205.043966 
L 179.454545 209.041253 
L 181.927273 213.041064 
L 184.4 217.045314 
L 186.872727 221.061023 
L 189.345455 224.944818 
L 191.818182 228.769269 
L 194.290909 232.651056 
L 196.763636 236.789616 
L 199.236364 240.928176 
L 201.709091 245.020838 
L 204.181818 248.831751 
L 206.654545 252.642663 
L 209.127273 256.453575 
L 211.6 260.523596 
L 214.072727 264.711516 
L 216.545455 268.899435 
L 219.018182 273.045809 
L 221.490909 277.050879 
L 223.963636 281.05595 
L 226.436364 285.061021 
L 228.909091 289.066005 
L 231.381818 293.066279 
L 233.854545 297.066029 
L 236.327273 301.126215 
L 238.8 305.279135 
L 241.272727 309.432055 
L 243.745455 313.547087 
L 246.218182 317.515164 
L 248.690909 321.621137 
L 251.163636 325.724177 
L 253.636364 329.827218 
L 256.109091 333.867088 
L 258.581818 337.870573 
L 261.054545 341.897866 
L 263.527273 346.00824 
L 266 350.118614 
L 268.472727 354.228987 
L 270.945455 358.339361 
L 273.418182 362.449735 
L 275.890909 366.560108 
L 278.363636 370.670482 
L 280.836364 374.780856 
L 283.309091 378.891229 
L 285.781818 383.001603 
L 288.254545 387.111977 
L 290.727273 391.22235 
L 293.2 395.332724 
L 295.672727 399.443098 
L 298.145455 403.553471 
L 300.618182 407.663845 
L 303.090909 411.774219 
L 305.563636 415.884592 
L 308.036364 419.994966 
L 310.509091 424.10534 
L 312.981818 428.215713 
L 315.454545 432.326087 
L 317.927273 436.436461 
L 320.4 440.546834 
L 320.4 235.310625 
L 320.4 235.310625 
L 317.927273 233.762436 
L 315.454545 232.214247 
L 312.981818 230.666059 
L 310.509091 229.11787 
L 308.036364 227.569681 
L 305.563636 226.021492 
L 303.090909 224.473304 
L 300.618182 222.925115 
L 298.145455 221.376926 
L 295.672727 219.828737 
L 293.2 218.280548 
L 290.727273 216.73236 
L 288.254545 215.184171 
L 285.781818 213.635982 
L 283.309091 212.087793 
L 280.836364 210.539604 
L 278.363636 208.991416 
L 275.890909 207.443227 
L 273.418182 205.895038 
L 270.945455 204.346849 
L 268.472727 202.79866 
L 266 201.250472 
L 263.527273 199.702283 
L 261.054545 198.154094 
L 258.581818 196.605905 
L 256.109091 195.057716 
L 253.636364 193.509528 
L 251.163636 191.961339 
L 248.690909 190.41315 
L 246.218182 188.864961 
L 243.745455 187.316772 
L 241.272727 185.768584 
L 238.8 184.220395 
L 236.327273 182.672206 
L 233.854545 181.142123 
L 231.381818 179.635754 
L 228.909091 178.129384 
L 226.436364 176.623015 
L 223.963636 175.116645 
L 221.490909 173.610276 
L 219.018182 172.103906 
L 216.545455 170.493268 
L 214.072727 168.843995 
L 211.6 167.22742 
L 209.127273 165.649207 
L 206.654545 164.170497 
L 204.181818 162.691788 
L 201.709091 161.213078 
L 199.236364 159.582563 
L 196.763636 157.921523 
L 194.290909 156.623889 
L 191.818182 154.893554 
L 189.345455 153.579765 
L 186.872727 151.907143 
L 184.4 150.234522 
L 181.927273 148.587784 
L 179.454545 146.964963 
L 176.981818 145.482881 
L 174.509091 143.931953 
L 172.036364 142.321706 
L 169.563636 140.837422 
L 167.090909 139.291786 
L 164.618182 137.849099 
L 162.145455 136.442273 
L 159.672727 135.035447 
L 157.2 133.509866 
L 154.727273 131.833915 
L 152.254545 130.135968 
L 149.781818 128.424117 
L 147.309091 126.663462 
L 144.836364 124.948 
L 142.363636 123.232538 
L 139.890909 121.140223 
L 137.418182 119.182476 
L 134.945455 117.213199 
L 132.472727 114.972187 
L 130 112.633136 
L 127.527273 110.111698 
L 125.054545 107.123668 
L 122.581818 104.105169 
L 120.109091 100.761887 
L 117.636364 97.183255 
L 115.163636 93.595279 
L 112.690909 90.14848 
L 110.218182 86.45924 
L 107.745455 82.773291 
L 105.272727 79.164288 
L 102.8 75.164383 
L 100.327273 71.415238 
L 97.854545 67.515065 
L 95.381818 63.605217 
L 92.909091 59.668718 
L 90.436364 55.528364 
L 87.963636 51.435419 
L 85.490909 47.427887 
L 83.018182 43.467757 
L 80.545455 39.674298 
L 78.072727 35.667209 
L 75.6 31.615839 
z
" style="fill-opacity:0.15;"/>
   </g>
   <g id="matplotlib.axis_1">
    <g id="xtick_1">
     <g id="line2d_1">
      <defs>
       <path d="M 0 0 
L 0 2 
" id="m4437f81fcb" style="stroke:#000000;stroke-width:0.25;"/>
      </defs>
      <g>
       <use style="stroke:#000000;stroke-width:0.25;" x="75.6" xlink:href="#m4437f81fcb" y="288"/>
      </g>
     </g>
     <g id="text_1">
      <text style="font-family:DejaVu Sans;font-size:6px;font-stretch:normal;font-style:normal;font-weight:normal;text-anchor:middle;" transform="rotate(-0, 75.6, 298.059062)" x="75.6" y="298.059062">0.0</text>
     </g>
    </g>
    <g id="xtick_2">
     <g id="line2d_2">
      <g>
       <use style="stroke:#000000;stroke-width:0.25;" x="116.4" xlink:href="#m4437f81fcb" y="288"/>
      </g>
     </g>
     <g id="text_2">
      <text style="font-family:DejaVu Sans;font-size:6px;font-stretch:normal;font-style:normal;font-weight:normal;text-anchor:middle;" transform="rotate(-0, 116.4, 298.059062)" x="116.4" y="298.059062">0.1</text>
     </g>
    </g>
    <g id="xtick_3">
     <g id="line2d_3">
      <g>
       <use style="stroke:#000000;stroke-width:0.25;" x="157.2" xlink:href="#m4437f81fcb" y="288"/>
      </g>
     </g>
     <g id="text_3">
      <text style="font-family:DejaVu Sans;font-size:6px;font-stretch:normal;font-style:normal;font-weight:normal;text-anchor:middle;" transform="rotate(-0, 157.2, 298.059062)" x="157.2" y="298.059062">0.2</text>
     </g>
    </g>
    <g id="xtick_4">
     <g id="line2d_4">
      <g>
       <use style="stroke:#000000;stroke-width:0.25;" x="198" xlink:href="#m4437f81fcb" y="288"/>
      </g>
     </g>
     <g id="text_4">
      <text style="font-family:DejaVu Sans;font-size:6px;font-stretch:normal;font-style:normal;font-weight:normal;text-anchor:middle;" transform="rotate(-0, 198, 298.059062)" x="198" y="298.059062">0.3</text>
     </g>
    </g>
    <g id="xtick_5">
     <g id="line2d_5">
      <g>
       <use style="stroke:#000000;stroke-width:0.25;" x="238.8" xlink:href="#m4437f81fcb" y="288"/>
      </g>
     </g>
     <g id="text_5">
      <text style="font-family:DejaVu Sans;font-size:6px;font-stretch:normal;font-style:normal;font-weight:normal;text-anchor:middle;" transform="rotate(-0, 238.8, 298.059062)" x="238.8" y="298.059062">0.4</text>
     </g>
    </g>
    <g id="xtick_6">
     <g id="line2d_6">
      <g>
       <use style="stroke:#000000;stroke-width:0.25;" x="279.6" xlink:href="#m4437f81fcb" y="288"/>
      </g>
     </g>
     <g id="text_6">
      <text style="font-family:DejaVu Sans;font-size:6px;font-stretch:normal;font-style:normal;font-weight:normal;text-anchor:middle;" transform="rotate(-0, 279.6, 298.059062)" x="279.6" y="298.059062">0.5</text>
     </g>
    </g>
    <g id="xtick_7">
     <g id="line2d_7">
      <g>
       <use style="stroke:#000000;stroke-width:0.25;" x="320.4" xlink:href="#m4437f81fcb" y="288"/>
      </g>
     </g>
     <g id="text_7">
      <text style="font-family:DejaVu Sans;font-size:6px;font-stretch:normal;font-style:normal;font-weight:normal;text-anchor:middle;" transform="rotate(-0, 320.4, 298.059062)" x="320.4" y="298.059062">0.6</text>
     </g>
    </g>
    <g id="text_8">
     <text style="font-family:DejaVu Sans;font-size:6px;font-stretch:normal;font-style:normal;font-weight:normal;text-anchor:middle;" transform="rotate(-0, 198, 307.865937)" x="198" y="307.865937">morph_ix</text>
    </g>
   </g>
   <g id="matplotlib.axis_2">
    <g id="ytick_1">
     <g id="line2d_8">
      <defs>
       <path d="M 0 0 
L -2 0 
" id="ma076e329ab" style="stroke:#000000;stroke-width:0.25;"/>
      </defs>
      <g>
       <use style="stroke:#000000;stroke-width:0.25;" x="75.6" xlink:href="#ma076e329ab" y="288"/>
      </g>
     </g>
     <g id="text_9">
      <text style="font-family:DejaVu Sans;font-size:6px;font-stretch:normal;font-style:normal;font-weight:normal;text-anchor:end;" transform="rotate(-0, 70.1, 290.279531)" x="70.1" y="290.279531">0.4</text>
     </g>
    </g>
    <g id="ytick_2">
     <g id="line2d_9">
      <g>
       <use style="stroke:#000000;stroke-width:0.25;" x="75.6" xlink:href="#ma076e329ab" y="247.2"/>
      </g>
     </g>
     <g id="text_10">
      <text style="font-family:DejaVu Sans;font-size:6px;font-stretch:normal;font-style:normal;font-weight:normal;text-anchor:end;" transform="rotate(-0, 70.1, 249.479531)" x="70.1" y="249.479531">0.5</text>
     </g>
    </g>
    <g id="ytick_3">
     <g id="line2d_10">
      <g>
       <use style="stroke:#000000;stroke-width:0.25;" x="75.6" xlink:href="#ma076e329ab" y="206.4"/>
      </g>
     </g>
     <g id="text_11">
      <text style="font-family:DejaVu Sans;font-size:6px;font-stretch:normal;font-style:normal;font-weight:normal;text-anchor:end;" transform="rotate(-0, 70.1, 208.679531)" x="70.1" y="208.679531">0.6</text>
     </g>
    </g>
    <g id="ytick_4">
     <g id="line2d_11">
      <g>
       <use style="stroke:#000000;stroke-width:0.25;" x="75.6" xlink:href="#ma076e329ab" y="165.6"/>
      </g>
     </g>
     <g id="text_12">
      <text style="font-family:DejaVu Sans;font-size:6px;font-stretch:normal;font-style:normal;font-weight:normal;text-anchor:end;" transform="rotate(-0, 70.1, 167.879531)" x="70.1" y="167.879531">0.7</text>
     </g>
    </g>
    <g id="ytick_5">
     <g id="line2d_12">
      <g>
       <use style="stroke:#000000;stroke-width:0.25;" x="75.6" xlink:href="#ma076e329ab" y="124.8"/>
      </g>
     </g>
     <g id="text_13">
      <text style="font-family:DejaVu Sans;font-size:6px;font-stretch:normal;font-style:normal;font-weight:normal;text-anchor:end;" transform="rotate(-0, 70.1, 127.079531)" x="70.1" y="127.079531">0.8</text>
     </g>
    </g>
    <g id="ytick_6">
     <g id="line2d_13">
      <g>
       <use style="stroke:#000000;stroke-width:0.25;" x="75.6" xlink:href="#ma076e329ab" y="84"/>
      </g>
     </g>
     <g id="text_14">
      <text style="font-family:DejaVu Sans;font-size:6px;font-stretch:normal;font-style:normal;font-weight:normal;text-anchor:end;" transform="rotate(-0, 70.1, 86.279531)" x="70.1" y="86.279531">0.9</text>
     </g>
    </g>
    <g id="ytick_7">
     <g id="line2d_14">
      <g>
       <use style="stroke:#000000;stroke-width:0.25;" x="75.6" xlink:href="#ma076e329ab" y="43.2"/>
      </g>
     </g>
     <g id="text_15">
      <text style="font-family:DejaVu Sans;font-size:6px;font-stretch:normal;font-style:normal;font-weight:normal;text-anchor:end;" transform="rotate(-0, 70.1, 45.479531)" x="70.1" y="45.479531">1.0</text>
     </g>
    </g>
    <g id="text_16">
     <text style="font-family:DejaVu Sans;font-size:6px;font-stretch:normal;font-style:normal;font-weight:normal;text-anchor:middle;" transform="rotate(-90, 55.143438, 165.6)" x="55.143438" y="165.6">size_tol</text>
    </g>
   </g>
   <g id="line2d_15">
    <path clip-path="url(#pf3bc6b6a62)" d="M 75.6 48.9722 
L 78.072727 52.343145 
L 80.545455 55.71409 
L 83.018182 59.085035 
L 85.490909 62.455979 
L 87.963636 65.826924 
L 90.436364 69.197869 
L 92.909091 72.568814 
L 95.381818 75.939758 
L 97.854545 79.310703 
L 100.327273 82.681648 
L 102.8 86.052593 
L 105.272727 89.423537 
L 107.745455 92.794482 
L 110.218182 96.165427 
L 112.690909 99.536371 
L 115.163636 102.907316 
L 117.636364 106.278261 
L 120.109091 109.649206 
L 122.581818 113.02015 
L 125.054545 116.391095 
L 127.527273 119.76204 
L 130 123.132985 
L 132.472727 126.503929 
L 134.945455 129.874874 
L 137.418182 133.245819 
L 139.890909 136.616764 
L 142.363636 139.987708 
L 144.836364 143.358653 
L 147.309091 146.729598 
L 149.781818 150.100543 
L 152.254545 153.471487 
L 154.727273 156.842432 
L 157.2 160.213377 
L 159.672727 163.584321 
L 162.145455 166.955266 
L 164.618182 170.326211 
L 167.090909 173.697156 
L 169.563636 177.0681 
L 172.036364 180.439045 
L 174.509091 183.80999 
L 176.981818 187.180935 
L 179.454545 190.551879 
L 181.927273 193.922824 
L 184.4 197.293769 
L 186.872727 200.664714 
L 189.345455 204.035658 
L 191.818182 207.406603 
L 194.290909 210.777548 
L 196.763636 214.148493 
L 199.236364 217.519437 
L 201.709091 220.890382 
L 204.181818 224.261327 
L 206.654545 227.632271 
L 209.127273 231.003216 
L 211.6 234.374161 
L 214.072727 237.745106 
L 216.545455 241.11605 
L 219.018182 244.486995 
L 221.490909 247.85794 
L 223.963636 251.228885 
L 226.436364 254.599829 
L 228.909091 257.970774 
L 231.381818 261.341719 
L 233.854545 264.712664 
L 236.327273 268.083608 
L 238.8 271.454553 
L 241.272727 274.825498 
L 243.745455 278.196443 
L 246.218182 281.567387 
L 248.690909 284.938332 
L 251.163636 288.309277 
L 253.636364 291.680222 
L 256.109091 295.051166 
L 258.581818 298.422111 
L 261.054545 301.793056 
L 263.527273 305.164 
L 266 308.534945 
L 268.472727 311.90589 
L 270.945455 315.276835 
L 273.418182 318.647779 
L 275.890909 322.018724 
L 278.363636 325.389669 
L 280.836364 328.760614 
L 283.309091 332.131558 
L 285.781818 335.502503 
L 288.254545 338.873448 
L 290.727273 342.244393 
L 293.2 345.615337 
L 295.672727 348.986282 
L 298.145455 352.357227 
L 300.618182 355.728172 
L 303.090909 359.099116 
L 304.485286 361 
" style="fill:none;stroke:#000000;stroke-linecap:square;stroke-width:2.25;"/>
   </g>
   <g id="patch_3">
    <path d="M 75.6 288 
L 75.6 43.2 
" style="fill:none;stroke:#000000;stroke-linecap:square;stroke-linejoin:miter;stroke-width:0.25;"/>
   </g>
   <g id="patch_4">
    <path d="M 320.4 288 
L 320.4 43.2 
" style="fill:none;stroke:#000000;stroke-linecap:square;stroke-linejoin:miter;stroke-width:0.25;"/>
   </g>
   <g id="patch_5">
    <path d="M 75.6 288 
L 320.4 288 
" style="fill:none;stroke:#000000;stroke-linecap:square;stroke-linejoin:miter;stroke-width:0.25;"/>
   </g>
   <g id="patch_6">
    <path d="M 75.6 43.2 
L 320.4 43.2 
" style="fill:none;stroke:#000000;stroke-linecap:square;stroke-linejoin:miter;stroke-width:0.25;"/>
   </g>
   <g id="text_17">
    <text style="font-family:DejaVu Sans;font-size:7.2px;font-stretch:normal;font-style:normal;font-weight:normal;text-anchor:start;" transform="rotate(-0, 75.6, 37.2)" x="75.6" y="37.2">r=-0.78 (p=0.00)</text>
   </g>
  </g>
  <g id="text_18">
   <text style="font-family:DejaVu Sans;font-size:8px;font-stretch:normal;font-style:normal;font-weight:normal;text-anchor:start;" transform="rotate(-0, 0, 6.11375)" x="0" y="6.11375">neuraldata_traces001_dff_ROC-thr-0.05_plushalf_noRF|Li - 20190422_JC076_fov1</text>
  </g>
 </g>
 <defs>
  <clipPath id="pf3bc6b6a62">
   <rect height="244.8" width="244.8" x="75.6" y="43.2"/>
  </clipPath>
 </defs>
</svg>
