<?xml version="1.0" encoding="utf-8" standalone="no"?>
<!DOCTYPE svg PUBLIC "-//W3C//DTD SVG 1.1//EN"
  "http://www.w3.org/Graphics/SVG/1.1/DTD/svg11.dtd">
<!-- Created with matplotlib (http://matplotlib.org/) -->
<svg height="216pt" version="1.1" viewBox="0 0 432 216" width="432pt" xmlns="http://www.w3.org/2000/svg" xmlns:xlink="http://www.w3.org/1999/xlink">
 <defs>
  <style type="text/css">
*{stroke-linecap:butt;stroke-linejoin:round;}
  </style>
 </defs>
 <g id="figure_1">
  <g id="patch_1">
   <path d="M 0 216 
L 432 216 
L 432 0 
L 0 0 
z
" style="fill:none;opacity:0;"/>
  </g>
  <g id="axes_1">
   <g id="patch_2">
    <path d="M 51.84 172.8 
L 410.4 172.8 
L 410.4 64.8 
L 51.84 64.8 
z
" style="fill:#ffffff;"/>
   </g>
   <g id="PathCollection_1">
    <defs>
     <path d="M 0 2.707159 
C 0.717947 2.707159 1.406585 2.421915 1.91425 1.91425 
C 2.421915 1.406585 2.707159 0.717947 2.707159 0 
C 2.707159 -0.717947 2.421915 -1.406585 1.91425 -1.91425 
C 1.406585 -2.421915 0.717947 -2.707159 0 -2.707159 
C -0.717947 -2.707159 -1.406585 -2.421915 -1.91425 -1.91425 
C -2.421915 -1.406585 -2.707159 -0.717947 -2.707159 0 
C -2.707159 0.717947 -2.421915 1.406585 -1.91425 1.91425 
C -1.406585 2.421915 -0.717947 2.707159 0 2.707159 
z
" id="C0_0_34252badc2"/>
    </defs>
    <g clip-path="url(#p8538966758)">
     <use style="fill:#b61f2e;stroke:#b61f2e;stroke-width:1.62;" x="81.72" xlink:href="#C0_0_34252badc2" y="130.120187"/>
    </g>
    <g clip-path="url(#p8538966758)">
     <use style="fill:#b61f2e;stroke:#b61f2e;stroke-width:1.62;" x="201.24" xlink:href="#C0_0_34252badc2" y="95.642897"/>
    </g>
    <g clip-path="url(#p8538966758)">
     <use style="fill:#b61f2e;stroke:#b61f2e;stroke-width:1.62;" x="320.76" xlink:href="#C0_0_34252badc2" y="135.232337"/>
    </g>
   </g>
   <g id="line2d_1">
    <path clip-path="url(#p8538966758)" d="M 81.72 150.743679 
L 81.72 109.496696 
" style="fill:none;stroke:#b61f2e;stroke-linecap:square;stroke-width:2.7;"/>
   </g>
   <g id="line2d_2">
    <path clip-path="url(#p8538966758)" d="M 201.24 122.307555 
L 201.24 68.97824 
" style="fill:none;stroke:#b61f2e;stroke-linecap:square;stroke-width:2.7;"/>
   </g>
   <g id="line2d_3">
    <path clip-path="url(#p8538966758)" d="M 320.76 142.262094 
L 320.76 128.20258 
" style="fill:none;stroke:#b61f2e;stroke-linecap:square;stroke-width:2.7;"/>
   </g>
   <g id="matplotlib.axis_1">
    <g id="xtick_1">
     <g id="line2d_4"/>
     <g id="text_1">
      <text style="font-family:DejaVu Sans;font-size:6px;font-style:normal;font-weight:normal;text-anchor:middle;" transform="rotate(-0, 111.6, 180.859062)" x="111.6" y="180.859062">V1</text>
     </g>
    </g>
    <g id="xtick_2">
     <g id="line2d_5"/>
     <g id="text_2">
      <text style="font-family:DejaVu Sans;font-size:6px;font-style:normal;font-weight:normal;text-anchor:middle;" transform="rotate(-0, 231.12, 180.859062)" x="231.12" y="180.859062">Lm</text>
     </g>
    </g>
    <g id="xtick_3">
     <g id="line2d_6"/>
     <g id="text_3">
      <text style="font-family:DejaVu Sans;font-size:6px;font-style:normal;font-weight:normal;text-anchor:middle;" transform="rotate(-0, 350.64, 180.859062)" x="350.64" y="180.859062">Li</text>
     </g>
    </g>
   </g>
   <g id="matplotlib.axis_2">
    <g id="ytick_1">
     <g id="line2d_7">
      <defs>
       <path d="M 0 0 
L -3.5 0 
" id="me68feddccc" style="stroke:#000000;stroke-width:0.25;"/>
      </defs>
      <g>
       <use style="stroke:#000000;stroke-width:0.25;" x="49.84" xlink:href="#me68feddccc" y="172.8"/>
      </g>
     </g>
     <g id="text_4">
      <text style="font-family:DejaVu Sans;font-size:6px;font-style:normal;font-weight:normal;text-anchor:end;" transform="rotate(-0, 42.84, 175.079531)" x="42.84" y="175.079531">0.2</text>
     </g>
    </g>
    <g id="ytick_2">
     <g id="line2d_8">
      <g>
       <use style="stroke:#000000;stroke-width:0.25;" x="49.84" xlink:href="#me68feddccc" y="155.81632"/>
      </g>
     </g>
     <g id="text_5">
      <text style="font-family:DejaVu Sans;font-size:6px;font-style:normal;font-weight:normal;text-anchor:end;" transform="rotate(-0, 42.84, 158.095851)" x="42.84" y="158.095851">0.4</text>
     </g>
    </g>
    <g id="ytick_3">
     <g id="line2d_9">
      <g>
       <use style="stroke:#000000;stroke-width:0.25;" x="49.84" xlink:href="#me68feddccc" y="138.832639"/>
      </g>
     </g>
     <g id="text_6">
      <text style="font-family:DejaVu Sans;font-size:6px;font-style:normal;font-weight:normal;text-anchor:end;" transform="rotate(-0, 42.84, 141.11217)" x="42.84" y="141.11217">0.6</text>
     </g>
    </g>
    <g id="ytick_4">
     <g id="line2d_10">
      <g>
       <use style="stroke:#000000;stroke-width:0.25;" x="49.84" xlink:href="#me68feddccc" y="121.848959"/>
      </g>
     </g>
     <g id="text_7">
      <text style="font-family:DejaVu Sans;font-size:6px;font-style:normal;font-weight:normal;text-anchor:end;" transform="rotate(-0, 42.84, 124.12849)" x="42.84" y="124.12849">0.8</text>
     </g>
    </g>
    <g id="ytick_5">
     <g id="line2d_11">
      <g>
       <use style="stroke:#000000;stroke-width:0.25;" x="49.84" xlink:href="#me68feddccc" y="104.865278"/>
      </g>
     </g>
     <g id="text_8">
      <text style="font-family:DejaVu Sans;font-size:6px;font-style:normal;font-weight:normal;text-anchor:end;" transform="rotate(-0, 42.84, 107.144809)" x="42.84" y="107.144809">1.0</text>
     </g>
    </g>
    <g id="ytick_6">
     <g id="line2d_12">
      <g>
       <use style="stroke:#000000;stroke-width:0.25;" x="49.84" xlink:href="#me68feddccc" y="87.881598"/>
      </g>
     </g>
     <g id="text_9">
      <text style="font-family:DejaVu Sans;font-size:6px;font-style:normal;font-weight:normal;text-anchor:end;" transform="rotate(-0, 42.84, 90.161129)" x="42.84" y="90.161129">1.2</text>
     </g>
    </g>
    <g id="text_10">
     <text style="font-family:DejaVu Sans;font-size:8px;font-style:normal;font-weight:normal;text-anchor:middle;" transform="rotate(-90, 27.634375, 118.8)" x="27.634375" y="118.8">generalization</text>
    </g>
   </g>
   <g id="PathCollection_2">
    <defs>
     <path d="M 0 2.707159 
C 0.717947 2.707159 1.406585 2.421915 1.91425 1.91425 
C 2.421915 1.406585 2.707159 0.717947 2.707159 0 
C 2.707159 -0.717947 2.421915 -1.406585 1.91425 -1.91425 
C 1.406585 -2.421915 0.717947 -2.707159 0 -2.707159 
C -0.717947 -2.707159 -1.406585 -2.421915 -1.91425 -1.91425 
C -2.421915 -1.406585 -2.707159 -0.717947 -2.707159 0 
C -2.707159 0.717947 -2.421915 1.406585 -1.91425 1.91425 
C -1.406585 2.421915 -0.717947 2.707159 0 2.707159 
z
" id="C1_0_2342ad9475"/>
    </defs>
    <g clip-path="url(#p8538966758)">
     <use style="fill:#dc6e57;stroke:#dc6e57;stroke-width:1.62;" x="90.257143" xlink:href="#C1_0_2342ad9475" y="116.083035"/>
    </g>
    <g clip-path="url(#p8538966758)">
     <use style="fill:#dc6e57;stroke:#dc6e57;stroke-width:1.62;" x="209.777143" xlink:href="#C1_0_2342ad9475" y="120.402091"/>
    </g>
    <g clip-path="url(#p8538966758)">
     <use style="fill:#dc6e57;stroke:#dc6e57;stroke-width:1.62;" x="329.297143" xlink:href="#C1_0_2342ad9475" y="125.041046"/>
    </g>
   </g>
   <g id="line2d_13">
    <path clip-path="url(#p8538966758)" d="M 90.257143 136.990895 
L 90.257143 95.175176 
" style="fill:none;stroke:#dc6e57;stroke-linecap:square;stroke-width:2.7;"/>
   </g>
   <g id="line2d_14">
    <path clip-path="url(#p8538966758)" d="M 209.777143 144.513194 
L 209.777143 96.290988 
" style="fill:none;stroke:#dc6e57;stroke-linecap:square;stroke-width:2.7;"/>
   </g>
   <g id="line2d_15">
    <path clip-path="url(#p8538966758)" d="M 329.297143 137.461167 
L 329.297143 112.620925 
" style="fill:none;stroke:#dc6e57;stroke-linecap:square;stroke-width:2.7;"/>
   </g>
   <g id="patch_3">
    <path d="M 49.84 172.8 
L 49.84 87.881598 
" style="fill:none;stroke:#000000;stroke-linecap:square;stroke-linejoin:miter;stroke-width:0.25;"/>
   </g>
   <g id="PathCollection_3">
    <defs>
     <path d="M 0 2.707159 
C 0.717947 2.707159 1.406585 2.421915 1.91425 1.91425 
C 2.421915 1.406585 2.707159 0.717947 2.707159 0 
C 2.707159 -0.717947 2.421915 -1.406585 1.91425 -1.91425 
C 1.406585 -2.421915 0.717947 -2.707159 0 -2.707159 
C -0.717947 -2.707159 -1.406585 -2.421915 -1.91425 -1.91425 
C -2.421915 -1.406585 -2.707159 -0.717947 -2.707159 0 
C -2.707159 0.717947 -2.421915 1.406585 -1.91425 1.91425 
C -1.406585 2.421915 -0.717947 2.707159 0 2.707159 
z
" id="C2_0_89910db22a"/>
    </defs>
    <g clip-path="url(#p8538966758)">
     <use style="fill:#f7b799;stroke:#f7b799;stroke-width:1.62;" x="98.794286" xlink:href="#C2_0_89910db22a" y="113.6887"/>
    </g>
    <g clip-path="url(#p8538966758)">
     <use style="fill:#f7b799;stroke:#f7b799;stroke-width:1.62;" x="218.314286" xlink:href="#C2_0_89910db22a" y="112.863939"/>
    </g>
    <g clip-path="url(#p8538966758)">
     <use style="fill:#f7b799;stroke:#f7b799;stroke-width:1.62;" x="337.834286" xlink:href="#C2_0_89910db22a" y="113.70506"/>
    </g>
   </g>
   <g id="line2d_16">
    <path clip-path="url(#p8538966758)" d="M 98.794286 131.460149 
L 98.794286 95.917252 
" style="fill:none;stroke:#f7b799;stroke-linecap:square;stroke-width:2.7;"/>
   </g>
   <g id="line2d_17">
    <path clip-path="url(#p8538966758)" d="M 218.314286 138.038193 
L 218.314286 87.689685 
" style="fill:none;stroke:#f7b799;stroke-linecap:square;stroke-width:2.7;"/>
   </g>
   <g id="line2d_18">
    <path clip-path="url(#p8538966758)" d="M 337.834286 125.105627 
L 337.834286 102.304494 
" style="fill:none;stroke:#f7b799;stroke-linecap:square;stroke-width:2.7;"/>
   </g>
   <g id="PathCollection_4">
    <defs>
     <path d="M 0 2.707159 
C 0.717947 2.707159 1.406585 2.421915 1.91425 1.91425 
C 2.421915 1.406585 2.707159 0.717947 2.707159 0 
C 2.707159 -0.717947 2.421915 -1.406585 1.91425 -1.91425 
C 1.406585 -2.421915 0.717947 -2.707159 0 -2.707159 
C -0.717947 -2.707159 -1.406585 -2.421915 -1.91425 -1.91425 
C -2.421915 -1.406585 -2.707159 -0.717947 -2.707159 0 
C -2.707159 0.717947 -2.421915 1.406585 -1.91425 1.91425 
C -1.406585 2.421915 -0.717947 2.707159 0 2.707159 
z
" id="C3_0_323d58e839"/>
    </defs>
    <g clip-path="url(#p8538966758)">
     <use style="fill:#fae7dc;stroke:#fae7dc;stroke-width:1.62;" x="107.331429" xlink:href="#C3_0_323d58e839" y="106.550328"/>
    </g>
    <g clip-path="url(#p8538966758)">
     <use style="fill:#fae7dc;stroke:#fae7dc;stroke-width:1.62;" x="226.851429" xlink:href="#C3_0_323d58e839" y="104.507205"/>
    </g>
    <g clip-path="url(#p8538966758)">
     <use style="fill:#fae7dc;stroke:#fae7dc;stroke-width:1.62;" x="346.371429" xlink:href="#C3_0_323d58e839" y="104.880164"/>
    </g>
   </g>
   <g id="line2d_19">
    <path clip-path="url(#p8538966758)" d="M 107.331429 121.128841 
L 107.331429 91.971815 
" style="fill:none;stroke:#fae7dc;stroke-linecap:square;stroke-width:2.7;"/>
   </g>
   <g id="line2d_20">
    <path clip-path="url(#p8538966758)" d="M 226.851429 123.607321 
L 226.851429 85.407089 
" style="fill:none;stroke:#fae7dc;stroke-linecap:square;stroke-width:2.7;"/>
   </g>
   <g id="line2d_21">
    <path clip-path="url(#p8538966758)" d="M 346.371429 119.289892 
L 346.371429 90.470437 
" style="fill:none;stroke:#fae7dc;stroke-linecap:square;stroke-width:2.7;"/>
   </g>
   <g id="PathCollection_5">
    <defs>
     <path d="M 0 2.707159 
C 0.717947 2.707159 1.406585 2.421915 1.91425 1.91425 
C 2.421915 1.406585 2.707159 0.717947 2.707159 0 
C 2.707159 -0.717947 2.421915 -1.406585 1.91425 -1.91425 
C 1.406585 -2.421915 0.717947 -2.707159 0 -2.707159 
C -0.717947 -2.707159 -1.406585 -2.421915 -1.91425 -1.91425 
C -2.421915 -1.406585 -2.707159 -0.717947 -2.707159 0 
C -2.707159 0.717947 -2.421915 1.406585 -1.91425 1.91425 
C -1.406585 2.421915 -0.717947 2.707159 0 2.707159 
z
" id="C4_0_2dd1a21752"/>
    </defs>
    <g clip-path="url(#p8538966758)">
     <use style="fill:#e1edf3;stroke:#e1edf3;stroke-width:1.62;" x="115.868571" xlink:href="#C4_0_2dd1a21752" y="115.810427"/>
    </g>
    <g clip-path="url(#p8538966758)">
     <use style="fill:#e1edf3;stroke:#e1edf3;stroke-width:1.62;" x="235.388571" xlink:href="#C4_0_2dd1a21752" y="116.916157"/>
    </g>
    <g clip-path="url(#p8538966758)">
     <use style="fill:#e1edf3;stroke:#e1edf3;stroke-width:1.62;" x="354.908571" xlink:href="#C4_0_2dd1a21752" y="105.053494"/>
    </g>
   </g>
   <g id="line2d_22">
    <path clip-path="url(#p8538966758)" d="M 115.868571 127.513776 
L 115.868571 104.107078 
" style="fill:none;stroke:#e1edf3;stroke-linecap:square;stroke-width:2.7;"/>
   </g>
   <g id="line2d_23">
    <path clip-path="url(#p8538966758)" d="M 235.388571 134.09113 
L 235.388571 99.741183 
" style="fill:none;stroke:#e1edf3;stroke-linecap:square;stroke-width:2.7;"/>
   </g>
   <g id="line2d_24">
    <path clip-path="url(#p8538966758)" d="M 354.908571 117.522497 
L 354.908571 92.584491 
" style="fill:none;stroke:#e1edf3;stroke-linecap:square;stroke-width:2.7;"/>
   </g>
   <g id="legend_1">
    <g id="patch_4">
     <path d="M 338.14475 60.8 
L 440.656 60.8 
Q 442.256 60.8 442.256 59.2 
L 442.256 -0.648125 
Q 442.256 -2.248125 440.656 -2.248125 
L 338.14475 -2.248125 
Q 336.54475 -2.248125 336.54475 -0.648125 
L 336.54475 59.2 
Q 336.54475 60.8 338.14475 60.8 
z
" style="fill:#ffffff;opacity:0.8;stroke:#cccccc;stroke-linejoin:miter;"/>
    </g>
    <g id="text_11">
     <text style="font-family:DejaVu Sans;font-size:10px;font-style:normal;font-weight:normal;text-anchor:start;" transform="rotate(-0, 366.357406, 8.550313)" x="366.357406" y="8.550313">train-test</text>
    </g>
    <g id="PathCollection_6">
     <path d="M 347.74475 19.962329 
C 348.103723 19.962329 348.448043 19.819708 348.701875 19.565875 
C 348.955708 19.312043 349.098329 18.967723 349.098329 18.60875 
C 349.098329 18.249777 348.955708 17.905457 348.701875 17.651625 
C 348.448043 17.397792 348.103723 17.255171 347.74475 17.255171 
C 347.385777 17.255171 347.041457 17.397792 346.787625 17.651625 
C 346.533792 17.905457 346.391171 18.249777 346.391171 18.60875 
C 346.391171 18.967723 346.533792 19.312043 346.787625 19.565875 
C 347.041457 19.819708 347.385777 19.962329 347.74475 19.962329 
z
" style="fill:#b61f2e;stroke:#b61f2e;stroke-width:1.62;"/>
    </g>
    <g id="text_12">
     <text style="font-family:DejaVu Sans;font-size:8px;font-style:normal;font-weight:normal;text-anchor:start;" transform="rotate(-0, 362.14475, 20.70875)" x="362.14475" y="20.70875">-40.0</text>
    </g>
    <g id="PathCollection_7">
     <path d="M 347.74475 31.704829 
C 348.103723 31.704829 348.448043 31.562208 348.701875 31.308375 
C 348.955708 31.054543 349.098329 30.710223 349.098329 30.35125 
C 349.098329 29.992277 348.955708 29.647957 348.701875 29.394125 
C 348.448043 29.140292 348.103723 28.997671 347.74475 28.997671 
C 347.385777 28.997671 347.041457 29.140292 346.787625 29.394125 
C 346.533792 29.647957 346.391171 29.992277 346.391171 30.35125 
C 346.391171 30.710223 346.533792 31.054543 346.787625 31.308375 
C 347.041457 31.562208 347.385777 31.704829 347.74475 31.704829 
z
" style="fill:#dc6e57;stroke:#dc6e57;stroke-width:1.62;"/>
    </g>
    <g id="text_13">
     <text style="font-family:DejaVu Sans;font-size:8px;font-style:normal;font-weight:normal;text-anchor:start;" transform="rotate(-0, 362.14475, 32.45125)" x="362.14475" y="32.45125">-30.0</text>
    </g>
    <g id="PathCollection_8">
     <path d="M 347.74475 43.447329 
C 348.103723 43.447329 348.448043 43.304708 348.701875 43.050875 
C 348.955708 42.797043 349.098329 42.452723 349.098329 42.09375 
C 349.098329 41.734777 348.955708 41.390457 348.701875 41.136625 
C 348.448043 40.882792 348.103723 40.740171 347.74475 40.740171 
C 347.385777 40.740171 347.041457 40.882792 346.787625 41.136625 
C 346.533792 41.390457 346.391171 41.734777 346.391171 42.09375 
C 346.391171 42.452723 346.533792 42.797043 346.787625 43.050875 
C 347.041457 43.304708 347.385777 43.447329 347.74475 43.447329 
z
" style="fill:#f7b799;stroke:#f7b799;stroke-width:1.62;"/>
    </g>
    <g id="text_14">
     <text style="font-family:DejaVu Sans;font-size:8px;font-style:normal;font-weight:normal;text-anchor:start;" transform="rotate(-0, 362.14475, 44.19375)" x="362.14475" y="44.19375">-20.0</text>
    </g>
    <g id="PathCollection_9">
     <path d="M 347.74475 55.189829 
C 348.103723 55.189829 348.448043 55.047208 348.701875 54.793375 
C 348.955708 54.539543 349.098329 54.195223 349.098329 53.83625 
C 349.098329 53.477277 348.955708 53.132957 348.701875 52.879125 
C 348.448043 52.625292 348.103723 52.482671 347.74475 52.482671 
C 347.385777 52.482671 347.041457 52.625292 346.787625 52.879125 
C 346.533792 53.132957 346.391171 53.477277 346.391171 53.83625 
C 346.391171 54.195223 346.533792 54.539543 346.787625 54.793375 
C 347.041457 55.047208 347.385777 55.189829 347.74475 55.189829 
z
" style="fill:#fae7dc;stroke:#fae7dc;stroke-width:1.62;"/>
    </g>
    <g id="text_15">
     <text style="font-family:DejaVu Sans;font-size:8px;font-style:normal;font-weight:normal;text-anchor:start;" transform="rotate(-0, 362.14475, 55.93625)" x="362.14475" y="55.93625">-10.0</text>
    </g>
    <g id="PathCollection_10">
     <path d="M 406.8435 19.962329 
C 407.202473 19.962329 407.546793 19.819708 407.800625 19.565875 
C 408.054458 19.312043 408.197079 18.967723 408.197079 18.60875 
C 408.197079 18.249777 408.054458 17.905457 407.800625 17.651625 
C 407.546793 17.397792 407.202473 17.255171 406.8435 17.255171 
C 406.484527 17.255171 406.140207 17.397792 405.886375 17.651625 
C 405.632542 17.905457 405.489921 18.249777 405.489921 18.60875 
C 405.489921 18.967723 405.632542 19.312043 405.886375 19.565875 
C 406.140207 19.819708 406.484527 19.962329 406.8435 19.962329 
z
" style="fill:#e1edf3;stroke:#e1edf3;stroke-width:1.62;"/>
    </g>
    <g id="text_16">
     <text style="font-family:DejaVu Sans;font-size:8px;font-style:normal;font-weight:normal;text-anchor:start;" transform="rotate(-0, 421.2435, 20.70875)" x="421.2435" y="20.70875">10.0</text>
    </g>
    <g id="PathCollection_11">
     <path d="M 406.8435 31.704829 
C 407.202473 31.704829 407.546793 31.562208 407.800625 31.308375 
C 408.054458 31.054543 408.197079 30.710223 408.197079 30.35125 
C 408.197079 29.992277 408.054458 29.647957 407.800625 29.394125 
C 407.546793 29.140292 407.202473 28.997671 406.8435 28.997671 
C 406.484527 28.997671 406.140207 29.140292 405.886375 29.394125 
C 405.632542 29.647957 405.489921 29.992277 405.489921 30.35125 
C 405.489921 30.710223 405.632542 31.054543 405.886375 31.308375 
C 406.140207 31.562208 406.484527 31.704829 406.8435 31.704829 
z
" style="fill:#a7d0e4;stroke:#a7d0e4;stroke-width:1.62;"/>
    </g>
    <g id="text_17">
     <text style="font-family:DejaVu Sans;font-size:8px;font-style:normal;font-weight:normal;text-anchor:start;" transform="rotate(-0, 421.2435, 32.45125)" x="421.2435" y="32.45125">20.0</text>
    </g>
    <g id="PathCollection_12">
     <path d="M 406.8435 43.447329 
C 407.202473 43.447329 407.546793 43.304708 407.800625 43.050875 
C 408.054458 42.797043 408.197079 42.452723 408.197079 42.09375 
C 408.197079 41.734777 408.054458 41.390457 407.800625 41.136625 
C 407.546793 40.882792 407.202473 40.740171 406.8435 40.740171 
C 406.484527 40.740171 406.140207 40.882792 405.886375 41.136625 
C 405.632542 41.390457 405.489921 41.734777 405.489921 42.09375 
C 405.489921 42.452723 405.632542 42.797043 405.886375 43.050875 
C 406.140207 43.304708 406.484527 43.447329 406.8435 43.447329 
z
" style="fill:#529dc8;stroke:#529dc8;stroke-width:1.62;"/>
    </g>
    <g id="text_18">
     <text style="font-family:DejaVu Sans;font-size:8px;font-style:normal;font-weight:normal;text-anchor:start;" transform="rotate(-0, 421.2435, 44.19375)" x="421.2435" y="44.19375">30.0</text>
    </g>
    <g id="PathCollection_13">
     <path d="M 406.8435 55.189829 
C 407.202473 55.189829 407.546793 55.047208 407.800625 54.793375 
C 408.054458 54.539543 408.197079 54.195223 408.197079 53.83625 
C 408.197079 53.477277 408.054458 53.132957 407.800625 52.879125 
C 407.546793 52.625292 407.202473 52.482671 406.8435 52.482671 
C 406.484527 52.482671 406.140207 52.625292 405.886375 52.879125 
C 405.632542 53.132957 405.489921 53.477277 405.489921 53.83625 
C 405.489921 54.195223 405.632542 54.539543 405.886375 54.793375 
C 406.140207 55.047208 406.484527 55.189829 406.8435 55.189829 
z
" style="fill:#246aae;stroke:#246aae;stroke-width:1.62;"/>
    </g>
    <g id="text_19">
     <text style="font-family:DejaVu Sans;font-size:8px;font-style:normal;font-weight:normal;text-anchor:start;" transform="rotate(-0, 421.2435, 55.93625)" x="421.2435" y="55.93625">40.0</text>
    </g>
   </g>
   <g id="PathCollection_14">
    <defs>
     <path d="M 0 2.707159 
C 0.717947 2.707159 1.406585 2.421915 1.91425 1.91425 
C 2.421915 1.406585 2.707159 0.717947 2.707159 0 
C 2.707159 -0.717947 2.421915 -1.406585 1.91425 -1.91425 
C 1.406585 -2.421915 0.717947 -2.707159 0 -2.707159 
C -0.717947 -2.707159 -1.406585 -2.421915 -1.91425 -1.91425 
C -2.421915 -1.406585 -2.707159 -0.717947 -2.707159 0 
C -2.707159 0.717947 -2.421915 1.406585 -1.91425 1.91425 
C -1.406585 2.421915 -0.717947 2.707159 0 2.707159 
z
" id="C5_0_dce592a3f3"/>
    </defs>
    <g clip-path="url(#p8538966758)">
     <use style="fill:#a7d0e4;stroke:#a7d0e4;stroke-width:1.62;" x="124.405714" xlink:href="#C5_0_dce592a3f3" y="127.592678"/>
    </g>
    <g clip-path="url(#p8538966758)">
     <use style="fill:#a7d0e4;stroke:#a7d0e4;stroke-width:1.62;" x="243.925714" xlink:href="#C5_0_dce592a3f3" y="128.535143"/>
    </g>
    <g clip-path="url(#p8538966758)">
     <use style="fill:#a7d0e4;stroke:#a7d0e4;stroke-width:1.62;" x="363.445714" xlink:href="#C5_0_dce592a3f3" y="110.106612"/>
    </g>
   </g>
   <g id="line2d_25">
    <path clip-path="url(#p8538966758)" d="M 124.405714 141.41648 
L 124.405714 113.768877 
" style="fill:none;stroke:#a7d0e4;stroke-linecap:square;stroke-width:2.7;"/>
   </g>
   <g id="line2d_26">
    <path clip-path="url(#p8538966758)" d="M 243.925714 140.239411 
L 243.925714 116.830875 
" style="fill:none;stroke:#a7d0e4;stroke-linecap:square;stroke-width:2.7;"/>
   </g>
   <g id="line2d_27">
    <path clip-path="url(#p8538966758)" d="M 363.445714 122.519983 
L 363.445714 97.69324 
" style="fill:none;stroke:#a7d0e4;stroke-linecap:square;stroke-width:2.7;"/>
   </g>
   <g id="PathCollection_15">
    <defs>
     <path d="M 0 2.707159 
C 0.717947 2.707159 1.406585 2.421915 1.91425 1.91425 
C 2.421915 1.406585 2.707159 0.717947 2.707159 0 
C 2.707159 -0.717947 2.421915 -1.406585 1.91425 -1.91425 
C 1.406585 -2.421915 0.717947 -2.707159 0 -2.707159 
C -0.717947 -2.707159 -1.406585 -2.421915 -1.91425 -1.91425 
C -2.421915 -1.406585 -2.707159 -0.717947 -2.707159 0 
C -2.707159 0.717947 -2.421915 1.406585 -1.91425 1.91425 
C -1.406585 2.421915 -0.717947 2.707159 0 2.707159 
z
" id="C6_0_c03d871506"/>
    </defs>
    <g clip-path="url(#p8538966758)">
     <use style="fill:#529dc8;stroke:#529dc8;stroke-width:1.62;" x="132.942857" xlink:href="#C6_0_c03d871506" y="137.909007"/>
    </g>
    <g clip-path="url(#p8538966758)">
     <use style="fill:#529dc8;stroke:#529dc8;stroke-width:1.62;" x="252.462857" xlink:href="#C6_0_c03d871506" y="135.832724"/>
    </g>
    <g clip-path="url(#p8538966758)">
     <use style="fill:#529dc8;stroke:#529dc8;stroke-width:1.62;" x="371.982857" xlink:href="#C6_0_c03d871506" y="118.552963"/>
    </g>
   </g>
   <g id="line2d_28">
    <path clip-path="url(#p8538966758)" d="M 132.942857 145.567132 
L 132.942857 130.250882 
" style="fill:none;stroke:#529dc8;stroke-linecap:square;stroke-width:2.7;"/>
   </g>
   <g id="line2d_29">
    <path clip-path="url(#p8538966758)" d="M 252.462857 146.557395 
L 252.462857 125.108054 
" style="fill:none;stroke:#529dc8;stroke-linecap:square;stroke-width:2.7;"/>
   </g>
   <g id="line2d_30">
    <path clip-path="url(#p8538966758)" d="M 371.982857 131.26726 
L 371.982857 105.838667 
" style="fill:none;stroke:#529dc8;stroke-linecap:square;stroke-width:2.7;"/>
   </g>
   <g id="PathCollection_16">
    <defs>
     <path d="M 0 2.707159 
C 0.717947 2.707159 1.406585 2.421915 1.91425 1.91425 
C 2.421915 1.406585 2.707159 0.717947 2.707159 0 
C 2.707159 -0.717947 2.421915 -1.406585 1.91425 -1.91425 
C 1.406585 -2.421915 0.717947 -2.707159 0 -2.707159 
C -0.717947 -2.707159 -1.406585 -2.421915 -1.91425 -1.91425 
C -2.421915 -1.406585 -2.707159 -0.717947 -2.707159 0 
C -2.707159 0.717947 -2.421915 1.406585 -1.91425 1.91425 
C -1.406585 2.421915 -0.717947 2.707159 0 2.707159 
z
" id="C7_0_8f4d7a80c7"/>
    </defs>
    <g clip-path="url(#p8538966758)">
     <use style="fill:#246aae;stroke:#246aae;stroke-width:1.62;" x="141.48" xlink:href="#C7_0_8f4d7a80c7" y="147.160765"/>
    </g>
    <g clip-path="url(#p8538966758)">
     <use style="fill:#246aae;stroke:#246aae;stroke-width:1.62;" x="261" xlink:href="#C7_0_8f4d7a80c7" y="139.029451"/>
    </g>
    <g clip-path="url(#p8538966758)">
     <use style="fill:#246aae;stroke:#246aae;stroke-width:1.62;" x="380.52" xlink:href="#C7_0_8f4d7a80c7" y="124.526116"/>
    </g>
   </g>
   <g id="line2d_31">
    <path clip-path="url(#p8538966758)" d="M 141.48 152.543044 
L 141.48 141.778486 
" style="fill:none;stroke:#246aae;stroke-linecap:square;stroke-width:2.7;"/>
   </g>
   <g id="line2d_32">
    <path clip-path="url(#p8538966758)" d="M 261 143.784494 
L 261 134.274408 
" style="fill:none;stroke:#246aae;stroke-linecap:square;stroke-width:2.7;"/>
   </g>
   <g id="line2d_33">
    <path clip-path="url(#p8538966758)" d="M 380.52 133.83196 
L 380.52 115.220272 
" style="fill:none;stroke:#246aae;stroke-linecap:square;stroke-width:2.7;"/>
   </g>
  </g>
  <g id="text_20">
   <text style="font-family:DejaVu Sans;font-size:10px;font-style:normal;font-weight:normal;text-anchor:start;" transform="rotate(-0, 4.32, 21.6)" x="4.32" y="21.6">Generalization capacity, n=128 cells (overlap0.0, tuneC, n=100)</text>
  </g>
  <g id="text_21">
   <text style="font-family:DejaVu Sans;font-size:8px;font-style:normal;font-weight:normal;text-anchor:start;" transform="rotate(-0, 0, 6.11375)" x="0" y="6.11375">dff-nstds_overlap0.00_iter100|drop_repeats|</text>
  </g>
 </g>
 <defs>
  <clipPath id="p8538966758">
   <rect height="108" width="358.56" x="51.84" y="64.8"/>
  </clipPath>
 </defs>
</svg>
