<?xml version="1.0" encoding="utf-8" standalone="no"?>
<!DOCTYPE svg PUBLIC "-//W3C//DTD SVG 1.1//EN"
  "http://www.w3.org/Graphics/SVG/1.1/DTD/svg11.dtd">
<!-- Created with matplotlib (https://matplotlib.org/) -->
<svg height="288pt" version="1.1" viewBox="0 0 360 288" width="360pt" xmlns="http://www.w3.org/2000/svg" xmlns:xlink="http://www.w3.org/1999/xlink">
 <metadata>
  <rdf:RDF xmlns:cc="http://creativecommons.org/ns#" xmlns:dc="http://purl.org/dc/elements/1.1/" xmlns:rdf="http://www.w3.org/1999/02/22-rdf-syntax-ns#">
   <cc:Work>
    <dc:type rdf:resource="http://purl.org/dc/dcmitype/StillImage"/>
    <dc:date>2021-05-10T21:52:23.493706</dc:date>
    <dc:format>image/svg+xml</dc:format>
    <dc:creator>
     <cc:Agent>
      <dc:title>Matplotlib v3.3.4, https://matplotlib.org/</dc:title>
     </cc:Agent>
    </dc:creator>
   </cc:Work>
  </rdf:RDF>
 </metadata>
 <defs>
  <style type="text/css">*{stroke-linecap:butt;stroke-linejoin:round;}</style>
 </defs>
 <g id="figure_1">
  <g id="patch_1">
   <path d="M 0 288 
L 360 288 
L 360 0 
L 0 0 
z
" style="fill:#ffffff;"/>
  </g>
  <g id="axes_1">
   <g id="patch_2">
    <path d="M 45 256.32 
L 324 256.32 
L 324 34.56 
L 45 34.56 
z
" style="fill:#ffffff;"/>
   </g>
   <g id="PathCollection_1"/>
   <g id="PathCollection_2"/>
   <g id="matplotlib.axis_1">
    <g id="xtick_1">
     <g id="line2d_1">
      <defs>
       <path d="M 0 0 
L 0 3.5 
" id="m2a561f0999" style="stroke:#000000;stroke-width:0.25;"/>
      </defs>
      <g>
       <use style="stroke:#000000;stroke-width:0.25;" x="91.5" xlink:href="#m2a561f0999" y="256.32"/>
      </g>
     </g>
     <g id="text_1">
      <text style="font-family:DejaVu Sans;font-size:6px;font-stretch:normal;font-style:normal;font-weight:normal;text-anchor:middle;" transform="rotate(-0, 91.5, 267.879063)" x="91.5" y="267.879063">V1</text>
     </g>
    </g>
    <g id="xtick_2">
     <g id="line2d_2">
      <g>
       <use style="stroke:#000000;stroke-width:0.25;" x="184.5" xlink:href="#m2a561f0999" y="256.32"/>
      </g>
     </g>
     <g id="text_2">
      <text style="font-family:DejaVu Sans;font-size:6px;font-stretch:normal;font-style:normal;font-weight:normal;text-anchor:middle;" transform="rotate(-0, 184.5, 267.879063)" x="184.5" y="267.879063">Lm</text>
     </g>
    </g>
    <g id="xtick_3">
     <g id="line2d_3">
      <g>
       <use style="stroke:#000000;stroke-width:0.25;" x="277.5" xlink:href="#m2a561f0999" y="256.32"/>
      </g>
     </g>
     <g id="text_3">
      <text style="font-family:DejaVu Sans;font-size:6px;font-stretch:normal;font-style:normal;font-weight:normal;text-anchor:middle;" transform="rotate(-0, 277.5, 267.879063)" x="277.5" y="267.879063">Li</text>
     </g>
    </g>
    <g id="text_4">
     <text style="font-family:DejaVu Sans;font-size:6px;font-stretch:normal;font-style:normal;font-weight:normal;text-anchor:middle;" transform="rotate(-0, 184.5, 277.685938)" x="184.5" y="277.685938">visual_area</text>
    </g>
   </g>
   <g id="matplotlib.axis_2">
    <g id="ytick_1">
     <g id="line2d_4">
      <defs>
       <path d="M 0 0 
L -3.5 0 
" id="m081b2e20fd" style="stroke:#000000;stroke-width:0.25;"/>
      </defs>
      <g>
       <use style="stroke:#000000;stroke-width:0.25;" x="45" xlink:href="#m081b2e20fd" y="249.365581"/>
      </g>
     </g>
     <g id="text_5">
      <text style="font-family:DejaVu Sans;font-size:6px;font-stretch:normal;font-style:normal;font-weight:normal;text-anchor:end;" transform="rotate(-0, 38, 251.645113)" x="38" y="251.645113">0</text>
     </g>
    </g>
    <g id="ytick_2">
     <g id="line2d_5">
      <g>
       <use style="stroke:#000000;stroke-width:0.25;" x="45" xlink:href="#m081b2e20fd" y="218.109767"/>
      </g>
     </g>
     <g id="text_6">
      <text style="font-family:DejaVu Sans;font-size:6px;font-stretch:normal;font-style:normal;font-weight:normal;text-anchor:end;" transform="rotate(-0, 38, 220.389299)" x="38" y="220.389299">20</text>
     </g>
    </g>
    <g id="ytick_3">
     <g id="line2d_6">
      <g>
       <use style="stroke:#000000;stroke-width:0.25;" x="45" xlink:href="#m081b2e20fd" y="186.853953"/>
      </g>
     </g>
     <g id="text_7">
      <text style="font-family:DejaVu Sans;font-size:6px;font-stretch:normal;font-style:normal;font-weight:normal;text-anchor:end;" transform="rotate(-0, 38, 189.133485)" x="38" y="189.133485">40</text>
     </g>
    </g>
    <g id="ytick_4">
     <g id="line2d_7">
      <g>
       <use style="stroke:#000000;stroke-width:0.25;" x="45" xlink:href="#m081b2e20fd" y="155.59814"/>
      </g>
     </g>
     <g id="text_8">
      <text style="font-family:DejaVu Sans;font-size:6px;font-stretch:normal;font-style:normal;font-weight:normal;text-anchor:end;" transform="rotate(-0, 38, 157.877671)" x="38" y="157.877671">60</text>
     </g>
    </g>
    <g id="ytick_5">
     <g id="line2d_8">
      <g>
       <use style="stroke:#000000;stroke-width:0.25;" x="45" xlink:href="#m081b2e20fd" y="124.342326"/>
      </g>
     </g>
     <g id="text_9">
      <text style="font-family:DejaVu Sans;font-size:6px;font-stretch:normal;font-style:normal;font-weight:normal;text-anchor:end;" transform="rotate(-0, 38, 126.621857)" x="38" y="126.621857">80</text>
     </g>
    </g>
    <g id="ytick_6">
     <g id="line2d_9">
      <g>
       <use style="stroke:#000000;stroke-width:0.25;" x="45" xlink:href="#m081b2e20fd" y="93.086512"/>
      </g>
     </g>
     <g id="text_10">
      <text style="font-family:DejaVu Sans;font-size:6px;font-stretch:normal;font-style:normal;font-weight:normal;text-anchor:end;" transform="rotate(-0, 38, 95.366043)" x="38" y="95.366043">100</text>
     </g>
    </g>
    <g id="ytick_7">
     <g id="line2d_10">
      <g>
       <use style="stroke:#000000;stroke-width:0.25;" x="45" xlink:href="#m081b2e20fd" y="61.830698"/>
      </g>
     </g>
     <g id="text_11">
      <text style="font-family:DejaVu Sans;font-size:6px;font-stretch:normal;font-style:normal;font-weight:normal;text-anchor:end;" transform="rotate(-0, 38, 64.110229)" x="38" y="64.110229">120</text>
     </g>
    </g>
    <g id="text_12">
     <text style="font-family:DejaVu Sans;font-size:6px;font-stretch:normal;font-style:normal;font-weight:normal;text-anchor:middle;" transform="rotate(-90, 21.299687, 145.44)" x="21.299687" y="145.44">cell</text>
    </g>
   </g>
   <g id="patch_3">
    <path d="M 45 256.32 
L 45 34.56 
" style="fill:none;stroke:#000000;stroke-linecap:square;stroke-linejoin:miter;stroke-width:0.25;"/>
   </g>
   <g id="patch_4">
    <path d="M 324 256.32 
L 324 34.56 
" style="fill:none;stroke:#000000;stroke-linecap:square;stroke-linejoin:miter;stroke-width:0.25;"/>
   </g>
   <g id="patch_5">
    <path d="M 45 256.32 
L 324 256.32 
" style="fill:none;stroke:#000000;stroke-linecap:square;stroke-linejoin:miter;stroke-width:0.25;"/>
   </g>
   <g id="patch_6">
    <path d="M 45 34.56 
L 324 34.56 
" style="fill:none;stroke:#000000;stroke-linecap:square;stroke-linejoin:miter;stroke-width:0.25;"/>
   </g>
   <g id="PathCollection_3">
    <defs>
     <path d="M 0 2.5 
C 0.663008 2.5 1.29895 2.236584 1.767767 1.767767 
C 2.236584 1.29895 2.5 0.663008 2.5 -0 
C 2.5 -0.663008 2.236584 -1.29895 1.767767 -1.767767 
C 1.29895 -2.236584 0.663008 -2.5 0 -2.5 
C -0.663008 -2.5 -1.29895 -2.236584 -1.767767 -1.767767 
C -2.236584 -1.29895 -2.5 -0.663008 -2.5 0 
C -2.5 0.663008 -2.236584 1.29895 -1.767767 1.767767 
C -1.29895 2.236584 -0.663008 2.5 0 2.5 
z
" id="C0_0_b60d1623a8"/>
    </defs>
    <g clip-path="url(#p21521b44aa)">
     <use style="fill:#f15a29;fill-opacity:0.5;" x="68.831182" xlink:href="#C0_0_b60d1623a8" y="235.300465"/>
    </g>
    <g clip-path="url(#p21521b44aa)">
     <use style="fill:#f15a29;fill-opacity:0.5;" x="72.922735" xlink:href="#C0_0_b60d1623a8" y="235.300465"/>
    </g>
    <g clip-path="url(#p21521b44aa)">
     <use style="fill:#f15a29;fill-opacity:0.5;" x="74.426469" xlink:href="#C0_0_b60d1623a8" y="244.677209"/>
    </g>
    <g clip-path="url(#p21521b44aa)">
     <use style="fill:#f15a29;fill-opacity:0.5;" x="70.861544" xlink:href="#C0_0_b60d1623a8" y="161.849302"/>
    </g>
    <g clip-path="url(#p21521b44aa)">
     <use style="fill:#f15a29;fill-opacity:0.5;" x="76.653315" xlink:href="#C0_0_b60d1623a8" y="236.863256"/>
    </g>
    <g clip-path="url(#p21521b44aa)">
     <use style="fill:#f15a29;fill-opacity:0.5;" x="71.700929" xlink:href="#C0_0_b60d1623a8" y="241.551628"/>
    </g>
    <g clip-path="url(#p21521b44aa)">
     <use style="fill:#f15a29;fill-opacity:0.5;" x="74.654491" xlink:href="#C0_0_b60d1623a8" y="197.793488"/>
    </g>
    <g clip-path="url(#p21521b44aa)">
     <use style="fill:#f15a29;fill-opacity:0.5;" x="75.944695" xlink:href="#C0_0_b60d1623a8" y="180.602791"/>
    </g>
    <g clip-path="url(#p21521b44aa)">
     <use style="fill:#f15a29;fill-opacity:0.5;" x="74.348822" xlink:href="#C0_0_b60d1623a8" y="236.863256"/>
    </g>
    <g clip-path="url(#p21521b44aa)">
     <use style="fill:#f15a29;fill-opacity:0.5;" x="70.394515" xlink:href="#C0_0_b60d1623a8" y="243.114419"/>
    </g>
    <g clip-path="url(#p21521b44aa)">
     <use style="fill:#f15a29;fill-opacity:0.5;" x="77.242852" xlink:href="#C0_0_b60d1623a8" y="46.202791"/>
    </g>
    <g clip-path="url(#p21521b44aa)">
     <use style="fill:#f15a29;fill-opacity:0.5;" x="75.402359" xlink:href="#C0_0_b60d1623a8" y="144.658605"/>
    </g>
    <g clip-path="url(#p21521b44aa)">
     <use style="fill:#f15a29;fill-opacity:0.5;" x="73.809376" xlink:href="#C0_0_b60d1623a8" y="89.96093"/>
    </g>
    <g clip-path="url(#p21521b44aa)">
     <use style="fill:#f15a29;fill-opacity:0.5;" x="74.731918" xlink:href="#C0_0_b60d1623a8" y="111.84"/>
    </g>
    <g clip-path="url(#p21521b44aa)">
     <use style="fill:#f15a29;fill-opacity:0.5;" x="74.523604" xlink:href="#C0_0_b60d1623a8" y="213.421395"/>
    </g>
    <g clip-path="url(#p21521b44aa)">
     <use style="fill:#f15a29;fill-opacity:0.5;" x="68.500202" xlink:href="#C0_0_b60d1623a8" y="174.351628"/>
    </g>
   </g>
   <g id="PathCollection_4">
    <defs>
     <path d="M 0 2.5 
C 0.663008 2.5 1.29895 2.236584 1.767767 1.767767 
C 2.236584 1.29895 2.5 0.663008 2.5 -0 
C 2.5 -0.663008 2.236584 -1.29895 1.767767 -1.767767 
C 1.29895 -2.236584 0.663008 -2.5 0 -2.5 
C -0.663008 -2.5 -1.29895 -2.236584 -1.767767 -1.767767 
C -2.236584 -1.29895 -2.5 -0.663008 -2.5 0 
C -2.5 0.663008 -2.236584 1.29895 -1.767767 1.767767 
C -1.29895 2.236584 -0.663008 2.5 0 2.5 
z
" id="C1_0_3861516a7e"/>
    </defs>
    <g clip-path="url(#p21521b44aa)">
     <use style="fill:#662d91;fill-opacity:0.5;" x="110.925413" xlink:href="#C1_0_3861516a7e" y="82.146977"/>
    </g>
    <g clip-path="url(#p21521b44aa)">
     <use style="fill:#662d91;fill-opacity:0.5;" x="113.817197" xlink:href="#C1_0_3861516a7e" y="64.956279"/>
    </g>
    <g clip-path="url(#p21521b44aa)">
     <use style="fill:#662d91;fill-opacity:0.5;" x="112.881311" xlink:href="#C1_0_3861516a7e" y="44.64"/>
    </g>
    <g clip-path="url(#p21521b44aa)">
     <use style="fill:#662d91;fill-opacity:0.5;" x="111.880868" xlink:href="#C1_0_3861516a7e" y="96.212093"/>
    </g>
    <g clip-path="url(#p21521b44aa)">
     <use style="fill:#662d91;fill-opacity:0.5;" x="108.686979" xlink:href="#C1_0_3861516a7e" y="130.593488"/>
    </g>
    <g clip-path="url(#p21521b44aa)">
     <use style="fill:#662d91;fill-opacity:0.5;" x="107.632066" xlink:href="#C1_0_3861516a7e" y="113.402791"/>
    </g>
    <g clip-path="url(#p21521b44aa)">
     <use style="fill:#662d91;fill-opacity:0.5;" x="113.419107" xlink:href="#C1_0_3861516a7e" y="224.36093"/>
    </g>
   </g>
   <g id="PathCollection_5">
    <defs>
     <path d="M 0 2.5 
C 0.663008 2.5 1.29895 2.236584 1.767767 1.767767 
C 2.236584 1.29895 2.5 0.663008 2.5 -0 
C 2.5 -0.663008 2.236584 -1.29895 1.767767 -1.767767 
C 1.29895 -2.236584 0.663008 -2.5 0 -2.5 
C -0.663008 -2.5 -1.29895 -2.236584 -1.767767 -1.767767 
C -2.236584 -1.29895 -2.5 -0.663008 -2.5 0 
C -2.5 0.663008 -2.236584 1.29895 -1.767767 1.767767 
C -1.29895 2.236584 -0.663008 2.5 0 2.5 
z
" id="C2_0_b939c13fb9"/>
    </defs>
    <g clip-path="url(#p21521b44aa)">
     <use style="fill:#f15a29;fill-opacity:0.5;" x="164.530773" xlink:href="#C2_0_b939c13fb9" y="233.737674"/>
    </g>
    <g clip-path="url(#p21521b44aa)">
     <use style="fill:#f15a29;fill-opacity:0.5;" x="165.005552" xlink:href="#C2_0_b939c13fb9" y="193.105116"/>
    </g>
    <g clip-path="url(#p21521b44aa)">
     <use style="fill:#f15a29;fill-opacity:0.5;" x="167.113938" xlink:href="#C2_0_b939c13fb9" y="236.863256"/>
    </g>
    <g clip-path="url(#p21521b44aa)">
     <use style="fill:#f15a29;fill-opacity:0.5;" x="165.274278" xlink:href="#C2_0_b939c13fb9" y="199.356279"/>
    </g>
    <g clip-path="url(#p21521b44aa)">
     <use style="fill:#f15a29;fill-opacity:0.5;" x="162.017766" xlink:href="#C2_0_b939c13fb9" y="139.970233"/>
    </g>
    <g clip-path="url(#p21521b44aa)">
     <use style="fill:#f15a29;fill-opacity:0.5;" x="161.323819" xlink:href="#C2_0_b939c13fb9" y="241.551628"/>
    </g>
    <g clip-path="url(#p21521b44aa)">
     <use style="fill:#f15a29;fill-opacity:0.5;" x="163.483632" xlink:href="#C2_0_b939c13fb9" y="182.165581"/>
    </g>
    <g clip-path="url(#p21521b44aa)">
     <use style="fill:#f15a29;fill-opacity:0.5;" x="161.880077" xlink:href="#C2_0_b939c13fb9" y="219.672558"/>
    </g>
    <g clip-path="url(#p21521b44aa)">
     <use style="fill:#f15a29;fill-opacity:0.5;" x="168.365431" xlink:href="#C2_0_b939c13fb9" y="219.672558"/>
    </g>
    <g clip-path="url(#p21521b44aa)">
     <use style="fill:#f15a29;fill-opacity:0.5;" x="162.437277" xlink:href="#C2_0_b939c13fb9" y="189.979535"/>
    </g>
    <g clip-path="url(#p21521b44aa)">
     <use style="fill:#f15a29;fill-opacity:0.5;" x="168.550206" xlink:href="#C2_0_b939c13fb9" y="160.286512"/>
    </g>
    <g clip-path="url(#p21521b44aa)">
     <use style="fill:#f15a29;fill-opacity:0.5;" x="165.641577" xlink:href="#C2_0_b939c13fb9" y="227.486512"/>
    </g>
    <g clip-path="url(#p21521b44aa)">
     <use style="fill:#f15a29;fill-opacity:0.5;" x="169.827782" xlink:href="#C2_0_b939c13fb9" y="236.863256"/>
    </g>
   </g>
   <g id="PathCollection_6">
    <defs>
     <path d="M 0 2.5 
C 0.663008 2.5 1.29895 2.236584 1.767767 1.767767 
C 2.236584 1.29895 2.5 0.663008 2.5 -0 
C 2.5 -0.663008 2.236584 -1.29895 1.767767 -1.767767 
C 1.29895 -2.236584 0.663008 -2.5 0 -2.5 
C -0.663008 -2.5 -1.29895 -2.236584 -1.767767 -1.767767 
C -2.236584 -1.29895 -2.5 -0.663008 -2.5 0 
C -2.5 0.663008 -2.236584 1.29895 -1.767767 1.767767 
C -1.29895 2.236584 -0.663008 2.5 0 2.5 
z
" id="C3_0_428d259a5b"/>
    </defs>
    <g clip-path="url(#p21521b44aa)">
     <use style="fill:#662d91;fill-opacity:0.5;" x="199.352907" xlink:href="#C3_0_428d259a5b" y="213.421395"/>
    </g>
    <g clip-path="url(#p21521b44aa)">
     <use style="fill:#662d91;fill-opacity:0.5;" x="201.455245" xlink:href="#C3_0_428d259a5b" y="207.170233"/>
    </g>
    <g clip-path="url(#p21521b44aa)">
     <use style="fill:#662d91;fill-opacity:0.5;" x="198.54978" xlink:href="#C3_0_428d259a5b" y="246.24"/>
    </g>
    <g clip-path="url(#p21521b44aa)">
     <use style="fill:#662d91;fill-opacity:0.5;" x="207.429627" xlink:href="#C3_0_428d259a5b" y="246.24"/>
    </g>
   </g>
   <g id="PathCollection_7">
    <defs>
     <path d="M 0 2.5 
C 0.663008 2.5 1.29895 2.236584 1.767767 1.767767 
C 2.236584 1.29895 2.5 0.663008 2.5 -0 
C 2.5 -0.663008 2.236584 -1.29895 1.767767 -1.767767 
C 1.29895 -2.236584 0.663008 -2.5 0 -2.5 
C -0.663008 -2.5 -1.29895 -2.236584 -1.767767 -1.767767 
C -2.236584 -1.29895 -2.5 -0.663008 -2.5 0 
C -2.5 0.663008 -2.236584 1.29895 -1.767767 1.767767 
C -1.29895 2.236584 -0.663008 2.5 0 2.5 
z
" id="C4_0_9b39bc5dc2"/>
    </defs>
    <g clip-path="url(#p21521b44aa)">
     <use style="fill:#f15a29;fill-opacity:0.5;" x="261.406033" xlink:href="#C4_0_9b39bc5dc2" y="246.24"/>
    </g>
    <g clip-path="url(#p21521b44aa)">
     <use style="fill:#f15a29;fill-opacity:0.5;" x="254.774202" xlink:href="#C4_0_9b39bc5dc2" y="188.416744"/>
    </g>
    <g clip-path="url(#p21521b44aa)">
     <use style="fill:#f15a29;fill-opacity:0.5;" x="261.315749" xlink:href="#C4_0_9b39bc5dc2" y="236.863256"/>
    </g>
   </g>
   <g id="PathCollection_8">
    <defs>
     <path d="M 0 2.5 
C 0.663008 2.5 1.29895 2.236584 1.767767 1.767767 
C 2.236584 1.29895 2.5 0.663008 2.5 -0 
C 2.5 -0.663008 2.236584 -1.29895 1.767767 -1.767767 
C 1.29895 -2.236584 0.663008 -2.5 0 -2.5 
C -0.663008 -2.5 -1.29895 -2.236584 -1.767767 -1.767767 
C -2.236584 -1.29895 -2.5 -0.663008 -2.5 0 
C -2.5 0.663008 -2.236584 1.29895 -1.767767 1.767767 
C -1.29895 2.236584 -0.663008 2.5 0 2.5 
z
" id="C5_0_d0b653ec40"/>
    </defs>
    <g clip-path="url(#p21521b44aa)">
     <use style="fill:#662d91;fill-opacity:0.5;" x="299.467505" xlink:href="#C5_0_d0b653ec40" y="244.677209"/>
    </g>
    <g clip-path="url(#p21521b44aa)">
     <use style="fill:#662d91;fill-opacity:0.5;" x="291.604304" xlink:href="#C5_0_d0b653ec40" y="189.979535"/>
    </g>
    <g clip-path="url(#p21521b44aa)">
     <use style="fill:#662d91;fill-opacity:0.5;" x="300.562723" xlink:href="#C5_0_d0b653ec40" y="239.988837"/>
    </g>
    <g clip-path="url(#p21521b44aa)">
     <use style="fill:#662d91;fill-opacity:0.5;" x="297.298631" xlink:href="#C5_0_d0b653ec40" y="150.909767"/>
    </g>
    <g clip-path="url(#p21521b44aa)">
     <use style="fill:#662d91;fill-opacity:0.5;" x="299.723652" xlink:href="#C5_0_d0b653ec40" y="207.170233"/>
    </g>
    <g clip-path="url(#p21521b44aa)">
     <use style="fill:#662d91;fill-opacity:0.5;" x="292.375404" xlink:href="#C5_0_d0b653ec40" y="168.100465"/>
    </g>
    <g clip-path="url(#p21521b44aa)">
     <use style="fill:#662d91;fill-opacity:0.5;" x="296.913799" xlink:href="#C5_0_d0b653ec40" y="189.979535"/>
    </g>
    <g clip-path="url(#p21521b44aa)">
     <use style="fill:#662d91;fill-opacity:0.5;" x="292.943824" xlink:href="#C5_0_d0b653ec40" y="210.295814"/>
    </g>
    <g clip-path="url(#p21521b44aa)">
     <use style="fill:#662d91;fill-opacity:0.5;" x="298.574078" xlink:href="#C5_0_d0b653ec40" y="135.28186"/>
    </g>
    <g clip-path="url(#p21521b44aa)">
     <use style="fill:#662d91;fill-opacity:0.5;" x="295.175485" xlink:href="#C5_0_d0b653ec40" y="236.863256"/>
    </g>
    <g clip-path="url(#p21521b44aa)">
     <use style="fill:#662d91;fill-opacity:0.5;" x="299.451584" xlink:href="#C5_0_d0b653ec40" y="222.79814"/>
    </g>
    <g clip-path="url(#p21521b44aa)">
     <use style="fill:#662d91;fill-opacity:0.5;" x="295.894319" xlink:href="#C5_0_d0b653ec40" y="214.984186"/>
    </g>
    <g clip-path="url(#p21521b44aa)">
     <use style="fill:#662d91;fill-opacity:0.5;" x="295.666838" xlink:href="#C5_0_d0b653ec40" y="236.863256"/>
    </g>
    <g clip-path="url(#p21521b44aa)">
     <use style="fill:#662d91;fill-opacity:0.5;" x="295.035209" xlink:href="#C5_0_d0b653ec40" y="235.300465"/>
    </g>
    <g clip-path="url(#p21521b44aa)">
     <use style="fill:#662d91;fill-opacity:0.5;" x="295.000355" xlink:href="#C5_0_d0b653ec40" y="219.672558"/>
    </g>
    <g clip-path="url(#p21521b44aa)">
     <use style="fill:#662d91;fill-opacity:0.5;" x="294.352683" xlink:href="#C5_0_d0b653ec40" y="243.114419"/>
    </g>
   </g>
   <g id="legend_1">
    <g id="patch_7">
     <path d="M 282.936562 65.780625 
L 319.8 65.780625 
Q 321 65.780625 321 64.580625 
L 321 38.76 
Q 321 37.56 319.8 37.56 
L 282.936562 37.56 
Q 281.736562 37.56 281.736562 38.76 
L 281.736562 64.580625 
Q 281.736562 65.780625 282.936562 65.780625 
z
" style="fill:#ffffff;opacity:0.8;stroke:#cccccc;stroke-linejoin:miter;"/>
    </g>
    <g id="text_13">
     <text style="font-family:DejaVu Sans;font-size:6px;font-stretch:normal;font-style:normal;font-weight:normal;text-anchor:start;" transform="rotate(-0, 284.136562, 44.519063)" x="284.136562" y="44.519063">experiment</text>
    </g>
    <g id="PathCollection_9">
     <defs>
      <path d="M 0 3.872983 
C 1.027127 3.872983 2.012324 3.464901 2.738613 2.738613 
C 3.464901 2.012324 3.872983 1.027127 3.872983 0 
C 3.872983 -1.027127 3.464901 -2.012324 2.738613 -2.738613 
C 2.012324 -3.464901 1.027127 -3.872983 0 -3.872983 
C -1.027127 -3.872983 -2.012324 -3.464901 -2.738613 -2.738613 
C -3.464901 -2.012324 -3.872983 -1.027127 -3.872983 0 
C -3.872983 1.027127 -3.464901 2.012324 -2.738613 2.738613 
C -2.012324 3.464901 -1.027127 3.872983 0 3.872983 
z
" id="mdaa2350104" style="stroke:#f15a29;"/>
     </defs>
     <g>
      <use style="fill:#f15a29;stroke:#f15a29;" x="291.298594" xlink:href="#mdaa2350104" y="51.750938"/>
     </g>
    </g>
    <g id="text_14">
     <text style="font-family:DejaVu Sans;font-size:6px;font-stretch:normal;font-style:normal;font-weight:normal;text-anchor:start;" transform="rotate(-0, 302.098594, 53.325938)" x="302.098594" y="53.325938">rfs</text>
    </g>
    <g id="PathCollection_10">
     <defs>
      <path d="M 0 3.872983 
C 1.027127 3.872983 2.012324 3.464901 2.738613 2.738613 
C 3.464901 2.012324 3.872983 1.027127 3.872983 0 
C 3.872983 -1.027127 3.464901 -2.012324 2.738613 -2.738613 
C 2.012324 -3.464901 1.027127 -3.872983 0 -3.872983 
C -1.027127 -3.872983 -2.012324 -3.464901 -2.738613 -2.738613 
C -3.464901 -2.012324 -3.872983 -1.027127 -3.872983 0 
C -3.872983 1.027127 -3.464901 2.012324 -2.738613 2.738613 
C -2.012324 3.464901 -1.027127 3.872983 0 3.872983 
z
" id="m9e4e67fb34" style="stroke:#662d91;"/>
     </defs>
     <g>
      <use style="fill:#662d91;stroke:#662d91;" x="291.298594" xlink:href="#m9e4e67fb34" y="60.557813"/>
     </g>
    </g>
    <g id="text_15">
     <text style="font-family:DejaVu Sans;font-size:6px;font-stretch:normal;font-style:normal;font-weight:normal;text-anchor:start;" transform="rotate(-0, 302.098594, 62.132813)" x="302.098594" y="62.132813">rfs10</text>
    </g>
   </g>
  </g>
 </g>
 <defs>
  <clipPath id="p21521b44aa">
   <rect height="221.76" width="279" x="45" y="34.56"/>
  </clipPath>
 </defs>
</svg>
