<?xml version="1.0" encoding="utf-8" standalone="no"?>
<!DOCTYPE svg PUBLIC "-//W3C//DTD SVG 1.1//EN"
  "http://www.w3.org/Graphics/SVG/1.1/DTD/svg11.dtd">
<!-- Created with matplotlib (https://matplotlib.org/) -->
<svg height="216pt" version="1.1" viewBox="0 0 576 216" width="576pt" xmlns="http://www.w3.org/2000/svg" xmlns:xlink="http://www.w3.org/1999/xlink">
 <metadata>
  <rdf:RDF xmlns:cc="http://creativecommons.org/ns#" xmlns:dc="http://purl.org/dc/elements/1.1/" xmlns:rdf="http://www.w3.org/1999/02/22-rdf-syntax-ns#">
   <cc:Work>
    <dc:type rdf:resource="http://purl.org/dc/dcmitype/StillImage"/>
    <dc:date>2021-05-10T21:55:24.519675</dc:date>
    <dc:format>image/svg+xml</dc:format>
    <dc:creator>
     <cc:Agent>
      <dc:title>Matplotlib v3.3.4, https://matplotlib.org/</dc:title>
     </cc:Agent>
    </dc:creator>
   </cc:Work>
  </rdf:RDF>
 </metadata>
 <defs>
  <style type="text/css">*{stroke-linecap:butt;stroke-linejoin:round;}</style>
 </defs>
 <g id="figure_1">
  <g id="patch_1">
   <path d="M 0 216 
L 576 216 
L 576 0 
L 0 0 
z
" style="fill:#ffffff;"/>
  </g>
  <g id="axes_1">
   <g id="patch_2">
    <path d="M 541.8 124.2 
C 541.8 116.399663 540.263504 108.675175 537.278444 101.468604 
C 534.293385 94.262033 529.917814 87.713528 524.402143 82.197857 
C 518.886472 76.682186 512.337967 72.306615 505.131396 69.321556 
C 497.924825 66.336496 490.200337 64.8 482.4 64.8 
C 474.599663 64.8 466.875175 66.336496 459.668604 69.321556 
C 452.462033 72.306615 445.913528 76.682186 440.397857 82.197857 
C 434.882186 87.713528 430.506615 94.262033 427.521556 101.468604 
C 424.536496 108.675175 423 116.399663 423 124.2 
C 423 132.000337 424.536496 139.724825 427.521556 146.931396 
C 430.506615 154.137967 434.882186 160.686472 440.397857 166.202143 
C 445.913528 171.717814 452.462033 176.093385 459.668604 179.078444 
C 466.875175 182.063504 474.599663 183.6 482.4 183.6 
C 490.200337 183.6 497.924825 182.063504 505.131396 179.078444 
C 512.337967 176.093385 518.886472 171.717814 524.402143 166.202143 
C 529.917814 160.686472 534.293385 154.137967 537.278444 146.931396 
C 540.263504 139.724825 541.8 132.000337 541.8 124.2 
M 482.4 124.2 
C 482.4 124.2 482.4 124.2 482.4 124.2 
C 482.4 124.2 482.4 124.2 482.4 124.2 
C 482.4 124.2 482.4 124.2 482.4 124.2 
C 482.4 124.2 482.4 124.2 482.4 124.2 
C 482.4 124.2 482.4 124.2 482.4 124.2 
C 482.4 124.2 482.4 124.2 482.4 124.2 
C 482.4 124.2 482.4 124.2 482.4 124.2 
C 482.4 124.2 482.4 124.2 482.4 124.2 
C 482.4 124.2 482.4 124.2 482.4 124.2 
C 482.4 124.2 482.4 124.2 482.4 124.2 
C 482.4 124.2 482.4 124.2 482.4 124.2 
C 482.4 124.2 482.4 124.2 482.4 124.2 
C 482.4 124.2 482.4 124.2 482.4 124.2 
C 482.4 124.2 482.4 124.2 482.4 124.2 
C 482.4 124.2 482.4 124.2 482.4 124.2 
C 482.4 124.2 482.4 124.2 482.4 124.2 
M 541.8 124.2 
z
" style="fill:#ffffff;"/>
   </g>
   <g id="patch_3">
    <path clip-path="url(#pb5745b4dc9)" d="M 482.4 124.2 
C 482.4 124.2 482.4 124.2 482.4 124.2 
C 482.4 124.2 482.4 124.2 482.4 124.2 
L 531.194641 111.580848 
C 531.745452 113.710675 532.156226 115.874283 532.424326 118.057785 
C 532.692426 120.241287 532.817278 122.440002 532.798081 124.639817 
z
" style="fill:#f15a29;opacity:0.5;"/>
   </g>
   <g id="patch_4">
    <path clip-path="url(#pb5745b4dc9)" d="M 482.4 124.2 
C 482.4 124.2 482.4 124.2 482.4 124.2 
C 482.4 124.2 482.4 124.2 482.4 124.2 
L 507.466244 110.018201 
C 508.085263 111.112313 508.631983 112.245781 509.102895 113.41133 
C 509.573808 114.576879 509.967903 115.772012 510.282652 116.989056 
z
" style="fill:#f15a29;opacity:0.5;"/>
   </g>
   <g id="patch_5">
    <path clip-path="url(#pb5745b4dc9)" d="M 482.4 124.2 
C 482.4 124.2 482.4 124.2 482.4 124.2 
C 482.4 124.2 482.4 124.2 482.4 124.2 
L 484.967702 121.676727 
C 485.077839 121.788804 485.180521 121.907972 485.275088 122.033466 
C 485.369654 122.15896 485.455903 122.290511 485.533281 122.427275 
z
" style="fill:#f15a29;opacity:0.5;"/>
   </g>
   <g id="patch_6">
    <path clip-path="url(#pb5745b4dc9)" d="M 482.4 124.2 
C 482.4 124.2 482.4 124.2 482.4 124.2 
C 482.4 124.2 482.4 124.2 482.4 124.2 
L 482.4 124.2 
C 482.4 124.2 482.4 124.2 482.4 124.2 
C 482.4 124.2 482.4 124.2 482.4 124.2 
z
" style="fill:#f15a29;opacity:0.5;"/>
   </g>
   <g id="patch_7">
    <path clip-path="url(#pb5745b4dc9)" d="M 482.4 124.2 
C 482.4 124.2 482.4 124.2 482.4 124.2 
C 482.4 124.2 482.4 124.2 482.4 124.2 
L 482.4 124.2 
C 482.4 124.2 482.4 124.2 482.4 124.2 
C 482.4 124.2 482.4 124.2 482.4 124.2 
z
" style="fill:#f15a29;opacity:0.5;"/>
   </g>
   <g id="patch_8">
    <path clip-path="url(#pb5745b4dc9)" d="M 482.4 124.2 
C 482.4 124.2 482.4 124.2 482.4 124.2 
C 482.4 124.2 482.4 124.2 482.4 124.2 
L 482.4 124.2 
C 482.4 124.2 482.4 124.2 482.4 124.2 
C 482.4 124.2 482.4 124.2 482.4 124.2 
z
" style="fill:#f15a29;opacity:0.5;"/>
   </g>
   <g id="patch_9">
    <path clip-path="url(#pb5745b4dc9)" d="M 482.4 124.2 
C 482.4 124.2 482.4 124.2 482.4 124.2 
C 482.4 124.2 482.4 124.2 482.4 124.2 
L 482.4 124.2 
C 482.4 124.2 482.4 124.2 482.4 124.2 
C 482.4 124.2 482.4 124.2 482.4 124.2 
z
" style="fill:#f15a29;opacity:0.5;"/>
   </g>
   <g id="patch_10">
    <path clip-path="url(#pb5745b4dc9)" d="M 482.4 124.2 
C 482.4 124.2 482.4 124.2 482.4 124.2 
C 482.4 124.2 482.4 124.2 482.4 124.2 
L 482.4 124.2 
C 482.4 124.2 482.4 124.2 482.4 124.2 
C 482.4 124.2 482.4 124.2 482.4 124.2 
z
" style="fill:#f15a29;opacity:0.5;"/>
   </g>
   <g id="patch_11">
    <path clip-path="url(#pb5745b4dc9)" d="M 482.4 124.2 
C 482.4 124.2 482.4 124.2 482.4 124.2 
C 482.4 124.2 482.4 124.2 482.4 124.2 
L 479.876727 121.632298 
C 479.988804 121.522161 480.107972 121.419479 480.233466 121.324912 
C 480.35896 121.230346 480.490511 121.144097 480.627275 121.066719 
z
" style="fill:#f15a29;opacity:0.5;"/>
   </g>
   <g id="patch_12">
    <path clip-path="url(#pb5745b4dc9)" d="M 482.4 124.2 
C 482.4 124.2 482.4 124.2 482.4 124.2 
C 482.4 124.2 482.4 124.2 482.4 124.2 
L 479.298135 122.372862 
C 479.377887 122.237469 479.466419 122.107443 479.563161 121.983619 
C 479.659904 121.859794 479.76465 121.742436 479.876727 121.632298 
z
" style="fill:#f15a29;opacity:0.5;"/>
   </g>
   <g id="patch_13">
    <path clip-path="url(#pb5745b4dc9)" d="M 482.4 124.2 
C 482.4 124.2 482.4 124.2 482.4 124.2 
C 482.4 124.2 482.4 124.2 482.4 124.2 
L 482.4 124.2 
C 482.4 124.2 482.4 124.2 482.4 124.2 
C 482.4 124.2 482.4 124.2 482.4 124.2 
z
" style="fill:#f15a29;opacity:0.5;"/>
   </g>
   <g id="patch_14">
    <path clip-path="url(#pb5745b4dc9)" d="M 482.4 124.2 
C 482.4 124.2 482.4 124.2 482.4 124.2 
C 482.4 124.2 482.4 124.2 482.4 124.2 
L 482.4 124.2 
C 482.4 124.2 482.4 124.2 482.4 124.2 
C 482.4 124.2 482.4 124.2 482.4 124.2 
z
" style="fill:#f15a29;opacity:0.5;"/>
   </g>
   <g id="patch_15">
    <path clip-path="url(#pb5745b4dc9)" d="M 482.4 124.2 
C 482.4 124.2 482.4 124.2 482.4 124.2 
C 482.4 124.2 482.4 124.2 482.4 124.2 
L 482.4 124.2 
C 482.4 124.2 482.4 124.2 482.4 124.2 
C 482.4 124.2 482.4 124.2 482.4 124.2 
z
" style="fill:#f15a29;opacity:0.5;"/>
   </g>
   <g id="patch_16">
    <path clip-path="url(#pb5745b4dc9)" d="M 482.4 124.2 
C 482.4 124.2 482.4 124.2 482.4 124.2 
C 482.4 124.2 482.4 124.2 482.4 124.2 
L 482.4 124.2 
C 482.4 124.2 482.4 124.2 482.4 124.2 
C 482.4 124.2 482.4 124.2 482.4 124.2 
z
" style="fill:#f15a29;opacity:0.5;"/>
   </g>
   <g id="patch_17">
    <path clip-path="url(#pb5745b4dc9)" d="M 482.4 124.2 
C 482.4 124.2 482.4 124.2 482.4 124.2 
C 482.4 124.2 482.4 124.2 482.4 124.2 
L 479.832298 126.723273 
C 479.722161 126.611196 479.619479 126.492028 479.524912 126.366534 
C 479.430346 126.24104 479.344097 126.109489 479.266719 125.972725 
z
" style="fill:#f15a29;opacity:0.5;"/>
   </g>
   <g id="patch_18">
    <path clip-path="url(#pb5745b4dc9)" d="M 482.4 124.2 
C 482.4 124.2 482.4 124.2 482.4 124.2 
C 482.4 124.2 482.4 124.2 482.4 124.2 
L 482.4 124.2 
C 482.4 124.2 482.4 124.2 482.4 124.2 
C 482.4 124.2 482.4 124.2 482.4 124.2 
z
" style="fill:#f15a29;opacity:0.5;"/>
   </g>
   <g id="patch_19">
    <path clip-path="url(#pb5745b4dc9)" d="M 482.4 124.2 
C 482.4 124.2 482.4 124.2 482.4 124.2 
C 482.4 124.2 482.4 124.2 482.4 124.2 
L 482.4 124.2 
C 482.4 124.2 482.4 124.2 482.4 124.2 
C 482.4 124.2 482.4 124.2 482.4 124.2 
z
" style="fill:#f15a29;opacity:0.5;"/>
   </g>
   <g id="patch_20">
    <path clip-path="url(#pb5745b4dc9)" d="M 482.4 124.2 
C 482.4 124.2 482.4 124.2 482.4 124.2 
C 482.4 124.2 482.4 124.2 482.4 124.2 
L 482.4 124.2 
C 482.4 124.2 482.4 124.2 482.4 124.2 
C 482.4 124.2 482.4 124.2 482.4 124.2 
z
" style="fill:#f15a29;opacity:0.5;"/>
   </g>
   <g id="patch_21">
    <path clip-path="url(#pb5745b4dc9)" d="M 482.4 124.2 
C 482.4 124.2 482.4 124.2 482.4 124.2 
C 482.4 124.2 482.4 124.2 482.4 124.2 
L 484.202736 131.170663 
C 483.898475 131.24935 483.589388 131.308032 483.277459 131.346332 
C 482.96553 131.384632 482.651428 131.402468 482.337169 131.399726 
z
" style="fill:#f15a29;opacity:0.5;"/>
   </g>
   <g id="patch_22">
    <path clip-path="url(#pb5745b4dc9)" d="M 482.4 124.2 
C 482.4 124.2 482.4 124.2 482.4 124.2 
C 482.4 124.2 482.4 124.2 482.4 124.2 
L 482.4 124.2 
C 482.4 124.2 482.4 124.2 482.4 124.2 
C 482.4 124.2 482.4 124.2 482.4 124.2 
z
" style="fill:#f15a29;opacity:0.5;"/>
   </g>
   <g id="patch_23">
    <path clip-path="url(#pb5745b4dc9)" d="M 482.4 124.2 
C 482.4 124.2 482.4 124.2 482.4 124.2 
C 482.4 124.2 482.4 124.2 482.4 124.2 
L 487.446547 129.335403 
C 487.222393 129.555679 486.984056 129.761042 486.733068 129.950176 
C 486.48208 130.139309 486.218978 130.311806 485.94545 130.466561 
z
" style="fill:#f15a29;opacity:0.5;"/>
   </g>
   <g id="patch_24">
    <path clip-path="url(#pb5745b4dc9)" d="M 482.4 124.2 
C 482.4 124.2 482.4 124.2 482.4 124.2 
C 482.4 124.2 482.4 124.2 482.4 124.2 
L 485.501865 126.027138 
C 485.422113 126.162531 485.333581 126.292557 485.236839 126.416381 
C 485.140096 126.540206 485.03535 126.657564 484.923273 126.767702 
z
" style="fill:#f15a29;opacity:0.5;"/>
   </g>
   <g id="patch_25">
    <path clip-path="url(#pb5745b4dc9)" d="M 482.4 124.2 
C 482.4 124.2 482.4 124.2 482.4 124.2 
C 482.4 124.2 482.4 124.2 482.4 124.2 
L 482.4 124.2 
C 482.4 124.2 482.4 124.2 482.4 124.2 
C 482.4 124.2 482.4 124.2 482.4 124.2 
z
" style="fill:#f15a29;opacity:0.5;"/>
   </g>
   <g id="patch_26">
    <path clip-path="url(#pb5745b4dc9)" d="M 482.4 124.2 
C 482.4 124.2 482.4 124.2 482.4 124.2 
C 482.4 124.2 482.4 124.2 482.4 124.2 
L 489.599726 124.262831 
C 489.596983 124.57709 489.573668 124.890833 489.52993 125.202046 
C 489.486192 125.513259 489.422125 125.821275 489.338139 126.124116 
z
" style="fill:#f15a29;opacity:0.5;"/>
   </g>
   <g id="patch_27">
    <path clip-path="url(#pb5745b4dc9)" d="M 482.4 124.2 
C 482.4 124.2 482.4 124.2 482.4 124.2 
C 482.4 124.2 482.4 124.2 482.4 124.2 
L 524.223978 113.383584 
C 524.696102 115.20915 525.048193 117.063671 525.277994 118.935244 
C 525.507794 120.806817 525.61481 122.69143 525.598355 124.576986 
z
" style="fill:#662d91;opacity:0.5;"/>
   </g>
   <g id="patch_28">
    <path clip-path="url(#pb5745b4dc9)" d="M 482.4 124.2 
C 482.4 124.2 482.4 124.2 482.4 124.2 
C 482.4 124.2 482.4 124.2 482.4 124.2 
L 485.533281 122.427275 
C 485.610658 122.564039 485.678998 122.705723 485.737862 122.851416 
C 485.796726 122.99711 485.845988 123.146501 485.885332 123.298632 
z
" style="fill:#662d91;opacity:0.5;"/>
   </g>
   <g id="patch_29">
    <path clip-path="url(#pb5745b4dc9)" d="M 482.4 124.2 
C 482.4 124.2 482.4 124.2 482.4 124.2 
C 482.4 124.2 482.4 124.2 482.4 124.2 
L 482.4 124.2 
C 482.4 124.2 482.4 124.2 482.4 124.2 
C 482.4 124.2 482.4 124.2 482.4 124.2 
z
" style="fill:#662d91;opacity:0.5;"/>
   </g>
   <g id="patch_30">
    <path clip-path="url(#pb5745b4dc9)" d="M 482.4 124.2 
C 482.4 124.2 482.4 124.2 482.4 124.2 
C 482.4 124.2 482.4 124.2 482.4 124.2 
L 482.4 124.2 
C 482.4 124.2 482.4 124.2 482.4 124.2 
C 482.4 124.2 482.4 124.2 482.4 124.2 
z
" style="fill:#662d91;opacity:0.5;"/>
   </g>
   <g id="patch_31">
    <path clip-path="url(#pb5745b4dc9)" d="M 482.4 124.2 
C 482.4 124.2 482.4 124.2 482.4 124.2 
C 482.4 124.2 482.4 124.2 482.4 124.2 
L 482.4 124.2 
C 482.4 124.2 482.4 124.2 482.4 124.2 
C 482.4 124.2 482.4 124.2 482.4 124.2 
z
" style="fill:#662d91;opacity:0.5;"/>
   </g>
   <g id="patch_32">
    <path clip-path="url(#pb5745b4dc9)" d="M 482.4 124.2 
C 482.4 124.2 482.4 124.2 482.4 124.2 
C 482.4 124.2 482.4 124.2 482.4 124.2 
L 482.4 124.2 
C 482.4 124.2 482.4 124.2 482.4 124.2 
C 482.4 124.2 482.4 124.2 482.4 124.2 
z
" style="fill:#662d91;opacity:0.5;"/>
   </g>
   <g id="patch_33">
    <path clip-path="url(#pb5745b4dc9)" d="M 482.4 124.2 
C 482.4 124.2 482.4 124.2 482.4 124.2 
C 482.4 124.2 482.4 124.2 482.4 124.2 
L 478.794528 110.258674 
C 479.40305 110.101299 480.021224 109.983936 480.645081 109.907335 
C 481.268939 109.830735 481.897143 109.795063 482.525662 109.800548 
z
" style="fill:#662d91;opacity:0.5;"/>
   </g>
   <g id="patch_34">
    <path clip-path="url(#pb5745b4dc9)" d="M 482.4 124.2 
C 482.4 124.2 482.4 124.2 482.4 124.2 
C 482.4 124.2 482.4 124.2 482.4 124.2 
L 482.4 124.2 
C 482.4 124.2 482.4 124.2 482.4 124.2 
C 482.4 124.2 482.4 124.2 482.4 124.2 
z
" style="fill:#662d91;opacity:0.5;"/>
   </g>
   <g id="patch_35">
    <path clip-path="url(#pb5745b4dc9)" d="M 482.4 124.2 
C 482.4 124.2 482.4 124.2 482.4 124.2 
C 482.4 124.2 482.4 124.2 482.4 124.2 
L 482.4 124.2 
C 482.4 124.2 482.4 124.2 482.4 124.2 
C 482.4 124.2 482.4 124.2 482.4 124.2 
z
" style="fill:#662d91;opacity:0.5;"/>
   </g>
   <g id="patch_36">
    <path clip-path="url(#pb5745b4dc9)" d="M 482.4 124.2 
C 482.4 124.2 482.4 124.2 482.4 124.2 
C 482.4 124.2 482.4 124.2 482.4 124.2 
L 482.4 124.2 
C 482.4 124.2 482.4 124.2 482.4 124.2 
C 482.4 124.2 482.4 124.2 482.4 124.2 
z
" style="fill:#662d91;opacity:0.5;"/>
   </g>
   <g id="patch_37">
    <path clip-path="url(#pb5745b4dc9)" d="M 482.4 124.2 
C 482.4 124.2 482.4 124.2 482.4 124.2 
C 482.4 124.2 482.4 124.2 482.4 124.2 
L 482.4 124.2 
C 482.4 124.2 482.4 124.2 482.4 124.2 
C 482.4 124.2 482.4 124.2 482.4 124.2 
z
" style="fill:#662d91;opacity:0.5;"/>
   </g>
   <g id="patch_38">
    <path clip-path="url(#pb5745b4dc9)" d="M 482.4 124.2 
C 482.4 124.2 482.4 124.2 482.4 124.2 
C 482.4 124.2 482.4 124.2 482.4 124.2 
L 482.4 124.2 
C 482.4 124.2 482.4 124.2 482.4 124.2 
C 482.4 124.2 482.4 124.2 482.4 124.2 
z
" style="fill:#662d91;opacity:0.5;"/>
   </g>
   <g id="patch_39">
    <path clip-path="url(#pb5745b4dc9)" d="M 482.4 124.2 
C 482.4 124.2 482.4 124.2 482.4 124.2 
C 482.4 124.2 482.4 124.2 482.4 124.2 
L 475.429337 126.002736 
C 475.35065 125.698475 475.291968 125.389388 475.253668 125.077459 
C 475.215368 124.76553 475.197532 124.451428 475.200274 124.137169 
z
" style="fill:#662d91;opacity:0.5;"/>
   </g>
   <g id="patch_40">
    <path clip-path="url(#pb5745b4dc9)" d="M 482.4 124.2 
C 482.4 124.2 482.4 124.2 482.4 124.2 
C 482.4 124.2 482.4 124.2 482.4 124.2 
L 479.266719 125.972725 
C 479.189342 125.835961 479.121002 125.694277 479.062138 125.548584 
C 479.003274 125.40289 478.954012 125.253499 478.914668 125.101368 
z
" style="fill:#662d91;opacity:0.5;"/>
   </g>
   <g id="patch_41">
    <path clip-path="url(#pb5745b4dc9)" d="M 482.4 124.2 
C 482.4 124.2 482.4 124.2 482.4 124.2 
C 482.4 124.2 482.4 124.2 482.4 124.2 
L 482.4 124.2 
C 482.4 124.2 482.4 124.2 482.4 124.2 
C 482.4 124.2 482.4 124.2 482.4 124.2 
z
" style="fill:#662d91;opacity:0.5;"/>
   </g>
   <g id="patch_42">
    <path clip-path="url(#pb5745b4dc9)" d="M 482.4 124.2 
C 482.4 124.2 482.4 124.2 482.4 124.2 
C 482.4 124.2 482.4 124.2 482.4 124.2 
L 482.4 124.2 
C 482.4 124.2 482.4 124.2 482.4 124.2 
C 482.4 124.2 482.4 124.2 482.4 124.2 
z
" style="fill:#662d91;opacity:0.5;"/>
   </g>
   <g id="patch_43">
    <path clip-path="url(#pb5745b4dc9)" d="M 482.4 124.2 
C 482.4 124.2 482.4 124.2 482.4 124.2 
C 482.4 124.2 482.4 124.2 482.4 124.2 
L 482.4 124.2 
C 482.4 124.2 482.4 124.2 482.4 124.2 
C 482.4 124.2 482.4 124.2 482.4 124.2 
z
" style="fill:#662d91;opacity:0.5;"/>
   </g>
   <g id="patch_44">
    <path clip-path="url(#pb5745b4dc9)" d="M 482.4 124.2 
C 482.4 124.2 482.4 124.2 482.4 124.2 
C 482.4 124.2 482.4 124.2 482.4 124.2 
L 482.4 124.2 
C 482.4 124.2 482.4 124.2 482.4 124.2 
C 482.4 124.2 482.4 124.2 482.4 124.2 
z
" style="fill:#662d91;opacity:0.5;"/>
   </g>
   <g id="patch_45">
    <path clip-path="url(#pb5745b4dc9)" d="M 482.4 124.2 
C 482.4 124.2 482.4 124.2 482.4 124.2 
C 482.4 124.2 482.4 124.2 482.4 124.2 
L 484.202736 131.170663 
C 483.898475 131.24935 483.589388 131.308032 483.277459 131.346332 
C 482.96553 131.384632 482.651428 131.402468 482.337169 131.399726 
z
" style="fill:#662d91;opacity:0.5;"/>
   </g>
   <g id="patch_46">
    <path clip-path="url(#pb5745b4dc9)" d="M 482.4 124.2 
C 482.4 124.2 482.4 124.2 482.4 124.2 
C 482.4 124.2 482.4 124.2 482.4 124.2 
L 482.4 124.2 
C 482.4 124.2 482.4 124.2 482.4 124.2 
C 482.4 124.2 482.4 124.2 482.4 124.2 
z
" style="fill:#662d91;opacity:0.5;"/>
   </g>
   <g id="patch_47">
    <path clip-path="url(#pb5745b4dc9)" d="M 482.4 124.2 
C 482.4 124.2 482.4 124.2 482.4 124.2 
C 482.4 124.2 482.4 124.2 482.4 124.2 
L 482.4 124.2 
C 482.4 124.2 482.4 124.2 482.4 124.2 
C 482.4 124.2 482.4 124.2 482.4 124.2 
z
" style="fill:#662d91;opacity:0.5;"/>
   </g>
   <g id="patch_48">
    <path clip-path="url(#pb5745b4dc9)" d="M 482.4 124.2 
C 482.4 124.2 482.4 124.2 482.4 124.2 
C 482.4 124.2 482.4 124.2 482.4 124.2 
L 485.501865 126.027138 
C 485.422113 126.162531 485.333581 126.292557 485.236839 126.416381 
C 485.140096 126.540206 485.03535 126.657564 484.923273 126.767702 
z
" style="fill:#662d91;opacity:0.5;"/>
   </g>
   <g id="patch_49">
    <path clip-path="url(#pb5745b4dc9)" d="M 482.4 124.2 
C 482.4 124.2 482.4 124.2 482.4 124.2 
C 482.4 124.2 482.4 124.2 482.4 124.2 
L 492.807209 127.086174 
C 492.681231 127.540437 492.525646 127.985964 492.341452 128.419896 
C 492.157259 128.853829 491.944852 129.275236 491.705595 129.681414 
z
" style="fill:#662d91;opacity:0.5;"/>
   </g>
   <g id="patch_50">
    <path clip-path="url(#pb5745b4dc9)" d="M 482.4 124.2 
C 482.4 124.2 482.4 124.2 482.4 124.2 
C 482.4 124.2 482.4 124.2 482.4 124.2 
L 507.59904 124.419909 
C 507.589442 125.519817 507.507839 126.617917 507.354755 127.707162 
C 507.201672 128.796407 506.977436 129.874462 506.683487 130.934407 
z
" style="fill:#662d91;opacity:0.5;"/>
   </g>
   <g id="matplotlib.axis_1">
    <g id="xtick_1">
     <g id="line2d_1">
      <path clip-path="url(#pb5745b4dc9)" d="M 482.4 124.2 
L 541.8 124.2 
" style="fill:none;stroke:#b0b0b0;stroke-linecap:square;stroke-width:0.8;"/>
     </g>
     <g id="text_1">
      <!-- $0$ -->
      <g transform="translate(553.88 125.855625)">
       <text>
        <tspan style="font-family:DejaVu Sans;font-size:6px;font-style:book;font-weight:book;" x="0" y="-0.546875">0</tspan>
       </text>
      </g>
     </g>
    </g>
    <g id="xtick_2">
     <g id="line2d_2">
      <path clip-path="url(#pb5745b4dc9)" d="M 482.4 124.2 
L 482.4 64.8 
" style="fill:none;stroke:#b0b0b0;stroke-linecap:square;stroke-width:0.8;"/>
     </g>
     <g id="text_2">
      <!-- $\pi/2$ -->
      <g transform="translate(477.78 52.455625)">
       <text>
        <tspan style="font-family:DejaVu Sans;font-size:6px;font-style:oblique;font-weight:oblique;" x="0" y="-0.546875">π</tspan>
        <tspan style="font-family:DejaVu Sans;font-size:6px;font-style:book;font-weight:book;" x="3.612305 5.383789" y="-0.546875">/2</tspan>
       </text>
      </g>
     </g>
    </g>
    <g id="xtick_3">
     <g id="line2d_3">
      <path clip-path="url(#pb5745b4dc9)" d="M 482.4 124.2 
L 423 124.2 
" style="fill:none;stroke:#b0b0b0;stroke-linecap:square;stroke-width:0.8;"/>
     </g>
     <g id="text_3">
      <!-- $\pi$ -->
      <g transform="translate(407.17 125.855625)">
       <text>
        <tspan style="font-family:DejaVu Sans;font-size:6px;font-style:oblique;font-weight:oblique;" x="0" y="-0.71875">π</tspan>
       </text>
      </g>
     </g>
    </g>
    <g id="xtick_4">
     <g id="line2d_4">
      <path clip-path="url(#pb5745b4dc9)" d="M 482.4 124.2 
L 482.4 183.6 
" style="fill:none;stroke:#b0b0b0;stroke-linecap:square;stroke-width:0.8;"/>
     </g>
     <g id="text_4">
      <!-- $3\pi/2$ -->
      <g transform="translate(475.86 199.255625)">
       <text>
        <tspan style="font-family:DejaVu Sans;font-size:6px;font-style:book;font-weight:book;" x="0 7.429688 9.201172" y="-0.546875">3/2</tspan>
        <tspan style="font-family:DejaVu Sans;font-size:6px;font-style:oblique;font-weight:oblique;" x="3.817383" y="-0.546875">π</tspan>
       </text>
      </g>
     </g>
    </g>
    <g id="xtick_5">
     <g id="line2d_5">
      <path clip-path="url(#pb5745b4dc9)" d="M 482.4 124.2 
L 541.8 124.2 
" style="fill:none;stroke:#b0b0b0;stroke-linecap:square;stroke-width:0.8;"/>
     </g>
     <g id="text_5">
      <!-- $0$ -->
      <g transform="translate(553.88 125.855625)">
       <text>
        <tspan style="font-family:DejaVu Sans;font-size:6px;font-style:book;font-weight:book;" x="0" y="-0.546875">0</tspan>
       </text>
      </g>
     </g>
    </g>
   </g>
   <g id="matplotlib.axis_2">
    <g id="ytick_1">
     <g id="line2d_6">
      <path clip-path="url(#pb5745b4dc9)" d="M 482.4 124.2 
C 482.4 124.2 482.4 124.2 482.4 124.2 
C 482.4 124.2 482.4 124.2 482.4 124.2 
C 482.4 124.2 482.4 124.2 482.4 124.2 
C 482.4 124.2 482.4 124.2 482.4 124.2 
C 482.4 124.2 482.4 124.2 482.4 124.2 
C 482.4 124.2 482.4 124.2 482.4 124.2 
C 482.4 124.2 482.4 124.2 482.4 124.2 
C 482.4 124.2 482.4 124.2 482.4 124.2 
C 482.4 124.2 482.4 124.2 482.4 124.2 
C 482.4 124.2 482.4 124.2 482.4 124.2 
C 482.4 124.2 482.4 124.2 482.4 124.2 
C 482.4 124.2 482.4 124.2 482.4 124.2 
C 482.4 124.2 482.4 124.2 482.4 124.2 
C 482.4 124.2 482.4 124.2 482.4 124.2 
C 482.4 124.2 482.4 124.2 482.4 124.2 
C 482.4 124.2 482.4 124.2 482.4 124.2 
" style="fill:none;stroke:#b0b0b0;stroke-linecap:square;stroke-width:0.8;"/>
     </g>
     <g id="text_6">
      <text style="font-family:DejaVu Sans;font-size:6px;font-stretch:normal;font-style:normal;font-weight:normal;text-anchor:start;" transform="rotate(-0, 482.4, 122.952188)" x="482.4" y="122.952188">0.00</text>
     </g>
    </g>
    <g id="ytick_2">
     <g id="line2d_7">
      <path clip-path="url(#pb5745b4dc9)" d="M 512.1 124.2 
C 512.1 120.299832 511.331752 116.437588 509.839222 112.834302 
C 508.346692 109.231016 506.158907 105.956764 503.401071 103.198929 
C 500.643236 100.441093 497.368984 98.253308 493.765698 96.760778 
C 490.162412 95.268248 486.300168 94.5 482.4 94.5 
C 478.499832 94.5 474.637588 95.268248 471.034302 96.760778 
C 467.431016 98.253308 464.156764 100.441093 461.398929 103.198929 
C 458.641093 105.956764 456.453308 109.231016 454.960778 112.834302 
C 453.468248 116.437588 452.7 120.299832 452.7 124.2 
C 452.7 128.100168 453.468248 131.962412 454.960778 135.565698 
C 456.453308 139.168984 458.641093 142.443236 461.398929 145.201071 
C 464.156764 147.958907 467.431016 150.146692 471.034302 151.639222 
C 474.637588 153.131752 478.499832 153.9 482.4 153.9 
C 486.300168 153.9 490.162412 153.131752 493.765698 151.639222 
C 497.368984 150.146692 500.643236 147.958907 503.401071 145.201071 
C 506.158907 142.443236 508.346692 139.168984 509.839222 135.565698 
C 511.331752 131.962412 512.1 128.100168 512.1 124.2 
" style="fill:none;stroke:#b0b0b0;stroke-linecap:square;stroke-width:0.8;"/>
     </g>
     <g id="text_7">
      <text style="font-family:DejaVu Sans;font-size:6px;font-stretch:normal;font-style:normal;font-weight:normal;text-anchor:start;" transform="rotate(-0, 509.839222, 111.58649)" x="509.839222" y="111.58649">0.25</text>
     </g>
    </g>
    <g id="ytick_3">
     <g id="line2d_8">
      <path clip-path="url(#pb5745b4dc9)" d="M 541.8 124.2 
C 541.8 116.399663 540.263504 108.675175 537.278444 101.468604 
C 534.293385 94.262033 529.917814 87.713528 524.402143 82.197857 
C 518.886472 76.682186 512.337967 72.306615 505.131396 69.321556 
C 497.924825 66.336496 490.200337 64.8 482.4 64.8 
C 474.599663 64.8 466.875175 66.336496 459.668604 69.321556 
C 452.462033 72.306615 445.913528 76.682186 440.397857 82.197857 
C 434.882186 87.713528 430.506615 94.262033 427.521556 101.468604 
C 424.536496 108.675175 423 116.399663 423 124.2 
C 423 132.000337 424.536496 139.724825 427.521556 146.931396 
C 430.506615 154.137967 434.882186 160.686472 440.397857 166.202143 
C 445.913528 171.717814 452.462033 176.093385 459.668604 179.078444 
C 466.875175 182.063504 474.599663 183.6 482.4 183.6 
C 490.200337 183.6 497.924825 182.063504 505.131396 179.078444 
C 512.337967 176.093385 518.886472 171.717814 524.402143 166.202143 
C 529.917814 160.686472 534.293385 154.137967 537.278444 146.931396 
C 540.263504 139.724825 541.8 132.000337 541.8 124.2 
" style="fill:none;stroke:#b0b0b0;stroke-linecap:square;stroke-width:0.8;"/>
     </g>
     <g id="text_8">
      <text style="font-family:DejaVu Sans;font-size:6px;font-stretch:normal;font-style:normal;font-weight:normal;text-anchor:start;" transform="rotate(-0, 537.278444, 100.220792)" x="537.278444" y="100.220792">0.50</text>
     </g>
    </g>
   </g>
   <g id="line2d_9">
    <path clip-path="url(#pb5745b4dc9)" d="M 482.4 124.2 
L 532.764843 122.317819 
" style="fill:none;stroke:#f15a29;stroke-linecap:square;stroke-width:2;"/>
   </g>
   <g id="line2d_10">
    <path clip-path="url(#pb5745b4dc9)" d="M 482.4 124.2 
L 525.599708 124.041087 
" style="fill:none;stroke:#662d91;stroke-linecap:square;stroke-width:2;"/>
   </g>
   <g id="patch_51">
    <path d="M 541.8 124.2 
C 541.8 116.399663 540.263504 108.675175 537.278444 101.468604 
C 534.293385 94.262033 529.917814 87.713528 524.402143 82.197857 
C 518.886472 76.682186 512.337967 72.306615 505.131396 69.321556 
C 497.924825 66.336496 490.200337 64.8 482.4 64.8 
C 474.599663 64.8 466.875175 66.336496 459.668604 69.321556 
C 452.462033 72.306615 445.913528 76.682186 440.397857 82.197857 
C 434.882186 87.713528 430.506615 94.262033 427.521556 101.468604 
C 424.536496 108.675175 423 116.399663 423 124.2 
C 423 132.000337 424.536496 139.724825 427.521556 146.931396 
C 430.506615 154.137967 434.882186 160.686472 440.397857 166.202143 
C 445.913528 171.717814 452.462033 176.093385 459.668604 179.078444 
C 466.875175 182.063504 474.599663 183.6 482.4 183.6 
C 490.200337 183.6 497.924825 182.063504 505.131396 179.078444 
C 512.337967 176.093385 518.886472 171.717814 524.402143 166.202143 
C 529.917814 160.686472 534.293385 154.137967 537.278444 146.931396 
C 540.263504 139.724825 541.8 132.000337 541.8 124.2 
" style="fill:none;stroke:#000000;stroke-linecap:square;stroke-linejoin:miter;stroke-width:0.25;"/>
   </g>
   <g id="text_9">
    <text style="font-family:DejaVu Sans;font-size:8px;font-stretch:normal;font-style:normal;font-weight:normal;text-anchor:start;" transform="rotate(-0, 423, 41.896563)" x="423" y="41.896563">Li, n=33 cells</text>
   </g>
  </g>
  <g id="axes_2">
   <g id="patch_52">
    <path d="M 347.4 124.2 
C 347.4 116.399663 345.863504 108.675175 342.878444 101.468604 
C 339.893385 94.262033 335.517814 87.713528 330.002143 82.197857 
C 324.486472 76.682186 317.937967 72.306615 310.731396 69.321556 
C 303.524825 66.336496 295.800337 64.8 288 64.8 
C 280.199663 64.8 272.475175 66.336496 265.268604 69.321556 
C 258.062033 72.306615 251.513528 76.682186 245.997857 82.197857 
C 240.482186 87.713528 236.106615 94.262033 233.121556 101.468604 
C 230.136496 108.675175 228.6 116.399663 228.6 124.2 
C 228.6 132.000337 230.136496 139.724825 233.121556 146.931396 
C 236.106615 154.137967 240.482186 160.686472 245.997857 166.202143 
C 251.513528 171.717814 258.062033 176.093385 265.268604 179.078444 
C 272.475175 182.063504 280.199663 183.6 288 183.6 
C 295.800337 183.6 303.524825 182.063504 310.731396 179.078444 
C 317.937967 176.093385 324.486472 171.717814 330.002143 166.202143 
C 335.517814 160.686472 339.893385 154.137967 342.878444 146.931396 
C 345.863504 139.724825 347.4 132.000337 347.4 124.2 
M 288 124.2 
C 288 124.2 288 124.2 288 124.2 
C 288 124.2 288 124.2 288 124.2 
C 288 124.2 288 124.2 288 124.2 
C 288 124.2 288 124.2 288 124.2 
C 288 124.2 288 124.2 288 124.2 
C 288 124.2 288 124.2 288 124.2 
C 288 124.2 288 124.2 288 124.2 
C 288 124.2 288 124.2 288 124.2 
C 288 124.2 288 124.2 288 124.2 
C 288 124.2 288 124.2 288 124.2 
C 288 124.2 288 124.2 288 124.2 
C 288 124.2 288 124.2 288 124.2 
C 288 124.2 288 124.2 288 124.2 
C 288 124.2 288 124.2 288 124.2 
C 288 124.2 288 124.2 288 124.2 
C 288 124.2 288 124.2 288 124.2 
M 347.4 124.2 
z
" style="fill:#ffffff;"/>
   </g>
   <g id="patch_53">
    <path clip-path="url(#pd3d880f904)" d="M 288 124.2 
C 288 124.2 288 124.2 288 124.2 
C 288 124.2 288 124.2 288 124.2 
L 322.504782 115.276457 
C 322.894284 116.782549 323.18476 118.312529 323.374345 119.856577 
C 323.56393 121.400624 323.652218 122.95543 323.638643 124.511014 
z
" style="fill:#f15a29;opacity:0.5;"/>
   </g>
   <g id="patch_54">
    <path clip-path="url(#pd3d880f904)" d="M 288 124.2 
C 288 124.2 288 124.2 288 124.2 
C 288 124.2 288 124.2 288 124.2 
L 288 124.2 
C 288 124.2 288 124.2 288 124.2 
C 288 124.2 288 124.2 288 124.2 
z
" style="fill:#f15a29;opacity:0.5;"/>
   </g>
   <g id="patch_55">
    <path clip-path="url(#pd3d880f904)" d="M 288 124.2 
C 288 124.2 288 124.2 288 124.2 
C 288 124.2 288 124.2 288 124.2 
L 288 124.2 
C 288 124.2 288 124.2 288 124.2 
C 288 124.2 288 124.2 288 124.2 
z
" style="fill:#f15a29;opacity:0.5;"/>
   </g>
   <g id="patch_56">
    <path clip-path="url(#pd3d880f904)" d="M 288 124.2 
C 288 124.2 288 124.2 288 124.2 
C 288 124.2 288 124.2 288 124.2 
L 288 124.2 
C 288 124.2 288 124.2 288 124.2 
C 288 124.2 288 124.2 288 124.2 
z
" style="fill:#f15a29;opacity:0.5;"/>
   </g>
   <g id="patch_57">
    <path clip-path="url(#pd3d880f904)" d="M 288 124.2 
C 288 124.2 288 124.2 288 124.2 
C 288 124.2 288 124.2 288 124.2 
L 288 124.2 
C 288 124.2 288 124.2 288 124.2 
C 288 124.2 288 124.2 288 124.2 
z
" style="fill:#f15a29;opacity:0.5;"/>
   </g>
   <g id="patch_58">
    <path clip-path="url(#pd3d880f904)" d="M 288 124.2 
C 288 124.2 288 124.2 288 124.2 
C 288 124.2 288 124.2 288 124.2 
L 288 124.2 
C 288 124.2 288 124.2 288 124.2 
C 288 124.2 288 124.2 288 124.2 
z
" style="fill:#f15a29;opacity:0.5;"/>
   </g>
   <g id="patch_59">
    <path clip-path="url(#pd3d880f904)" d="M 288 124.2 
C 288 124.2 288 124.2 288 124.2 
C 288 124.2 288 124.2 288 124.2 
L 288 124.2 
C 288 124.2 288 124.2 288 124.2 
C 288 124.2 288 124.2 288 124.2 
z
" style="fill:#f15a29;opacity:0.5;"/>
   </g>
   <g id="patch_60">
    <path clip-path="url(#pd3d880f904)" d="M 288 124.2 
C 288 124.2 288 124.2 288 124.2 
C 288 124.2 288 124.2 288 124.2 
L 288 124.2 
C 288 124.2 288 124.2 288 124.2 
C 288 124.2 288 124.2 288 124.2 
z
" style="fill:#f15a29;opacity:0.5;"/>
   </g>
   <g id="patch_61">
    <path clip-path="url(#pd3d880f904)" d="M 288 124.2 
C 288 124.2 288 124.2 288 124.2 
C 288 124.2 288 124.2 288 124.2 
L 279.673198 115.726585 
C 280.043052 115.36313 280.436307 115.02428 280.850438 114.71221 
C 281.264568 114.40014 281.698687 114.115519 282.150008 113.860174 
z
" style="fill:#f15a29;opacity:0.5;"/>
   </g>
   <g id="patch_62">
    <path clip-path="url(#pd3d880f904)" d="M 288 124.2 
C 288 124.2 288 124.2 288 124.2 
C 288 124.2 288 124.2 288 124.2 
L 288 124.2 
C 288 124.2 288 124.2 288 124.2 
C 288 124.2 288 124.2 288 124.2 
z
" style="fill:#f15a29;opacity:0.5;"/>
   </g>
   <g id="patch_63">
    <path clip-path="url(#pd3d880f904)" d="M 288 124.2 
C 288 124.2 288 124.2 288 124.2 
C 288 124.2 288 124.2 288 124.2 
L 288 124.2 
C 288 124.2 288 124.2 288 124.2 
C 288 124.2 288 124.2 288 124.2 
z
" style="fill:#f15a29;opacity:0.5;"/>
   </g>
   <g id="patch_64">
    <path clip-path="url(#pd3d880f904)" d="M 288 124.2 
C 288 124.2 288 124.2 288 124.2 
C 288 124.2 288 124.2 288 124.2 
L 288 124.2 
C 288 124.2 288 124.2 288 124.2 
C 288 124.2 288 124.2 288 124.2 
z
" style="fill:#f15a29;opacity:0.5;"/>
   </g>
   <g id="patch_65">
    <path clip-path="url(#pd3d880f904)" d="M 288 124.2 
C 288 124.2 288 124.2 288 124.2 
C 288 124.2 288 124.2 288 124.2 
L 288 124.2 
C 288 124.2 288 124.2 288 124.2 
C 288 124.2 288 124.2 288 124.2 
z
" style="fill:#f15a29;opacity:0.5;"/>
   </g>
   <g id="patch_66">
    <path clip-path="url(#pd3d880f904)" d="M 288 124.2 
C 288 124.2 288 124.2 288 124.2 
C 288 124.2 288 124.2 288 124.2 
L 288 124.2 
C 288 124.2 288 124.2 288 124.2 
C 288 124.2 288 124.2 288 124.2 
z
" style="fill:#f15a29;opacity:0.5;"/>
   </g>
   <g id="patch_67">
    <path clip-path="url(#pd3d880f904)" d="M 288 124.2 
C 288 124.2 288 124.2 288 124.2 
C 288 124.2 288 124.2 288 124.2 
L 288 124.2 
C 288 124.2 288 124.2 288 124.2 
C 288 124.2 288 124.2 288 124.2 
z
" style="fill:#f15a29;opacity:0.5;"/>
   </g>
   <g id="patch_68">
    <path clip-path="url(#pd3d880f904)" d="M 288 124.2 
C 288 124.2 288 124.2 288 124.2 
C 288 124.2 288 124.2 288 124.2 
L 288 124.2 
C 288 124.2 288 124.2 288 124.2 
C 288 124.2 288 124.2 288 124.2 
z
" style="fill:#f15a29;opacity:0.5;"/>
   </g>
   <g id="patch_69">
    <path clip-path="url(#pd3d880f904)" d="M 288 124.2 
C 288 124.2 288 124.2 288 124.2 
C 288 124.2 288 124.2 288 124.2 
L 288 124.2 
C 288 124.2 288 124.2 288 124.2 
C 288 124.2 288 124.2 288 124.2 
z
" style="fill:#f15a29;opacity:0.5;"/>
   </g>
   <g id="patch_70">
    <path clip-path="url(#pd3d880f904)" d="M 288 124.2 
C 288 124.2 288 124.2 288 124.2 
C 288 124.2 288 124.2 288 124.2 
L 288 124.2 
C 288 124.2 288 124.2 288 124.2 
C 288 124.2 288 124.2 288 124.2 
z
" style="fill:#f15a29;opacity:0.5;"/>
   </g>
   <g id="patch_71">
    <path clip-path="url(#pd3d880f904)" d="M 288 124.2 
C 288 124.2 288 124.2 288 124.2 
C 288 124.2 288 124.2 288 124.2 
L 288 124.2 
C 288 124.2 288 124.2 288 124.2 
C 288 124.2 288 124.2 288 124.2 
z
" style="fill:#f15a29;opacity:0.5;"/>
   </g>
   <g id="patch_72">
    <path clip-path="url(#pd3d880f904)" d="M 288 124.2 
C 288 124.2 288 124.2 288 124.2 
C 288 124.2 288 124.2 288 124.2 
L 288 124.2 
C 288 124.2 288 124.2 288 124.2 
C 288 124.2 288 124.2 288 124.2 
z
" style="fill:#f15a29;opacity:0.5;"/>
   </g>
   <g id="patch_73">
    <path clip-path="url(#pd3d880f904)" d="M 288 124.2 
C 288 124.2 288 124.2 288 124.2 
C 288 124.2 288 124.2 288 124.2 
L 288 124.2 
C 288 124.2 288 124.2 288 124.2 
C 288 124.2 288 124.2 288 124.2 
z
" style="fill:#f15a29;opacity:0.5;"/>
   </g>
   <g id="patch_74">
    <path clip-path="url(#pd3d880f904)" d="M 288 124.2 
C 288 124.2 288 124.2 288 124.2 
C 288 124.2 288 124.2 288 124.2 
L 288 124.2 
C 288 124.2 288 124.2 288 124.2 
C 288 124.2 288 124.2 288 124.2 
z
" style="fill:#f15a29;opacity:0.5;"/>
   </g>
   <g id="patch_75">
    <path clip-path="url(#pd3d880f904)" d="M 288 124.2 
C 288 124.2 288 124.2 288 124.2 
C 288 124.2 288 124.2 288 124.2 
L 299.44793 127.374792 
C 299.309354 127.87448 299.13821 128.36456 298.935598 128.841886 
C 298.732985 129.319212 298.499337 129.78276 298.236154 130.229556 
z
" style="fill:#f15a29;opacity:0.5;"/>
   </g>
   <g id="patch_76">
    <path clip-path="url(#pd3d880f904)" d="M 288 124.2 
C 288 124.2 288 124.2 288 124.2 
C 288 124.2 288 124.2 288 124.2 
L 347.397738 124.718356 
C 347.375113 127.310996 347.182763 129.899376 346.821923 132.466882 
C 346.461084 135.034389 345.932528 137.575517 345.239649 140.07396 
z
" style="fill:#f15a29;opacity:0.5;"/>
   </g>
   <g id="patch_77">
    <path clip-path="url(#pd3d880f904)" d="M 288 124.2 
C 288 124.2 288 124.2 288 124.2 
C 288 124.2 288 124.2 288 124.2 
L 299.501594 121.225486 
C 299.631428 121.727516 299.728253 122.23751 299.791448 122.752192 
C 299.854643 123.266875 299.884073 123.785143 299.879548 124.303671 
z
" style="fill:#662d91;opacity:0.5;"/>
   </g>
   <g id="patch_78">
    <path clip-path="url(#pd3d880f904)" d="M 288 124.2 
C 288 124.2 288 124.2 288 124.2 
C 288 124.2 288 124.2 288 124.2 
L 308.679651 112.500016 
C 309.190342 113.402658 309.641386 114.337769 310.029888 115.299347 
C 310.418391 116.260926 310.74352 117.24691 311.003188 118.250971 
z
" style="fill:#662d91;opacity:0.5;"/>
   </g>
   <g id="patch_79">
    <path clip-path="url(#pd3d880f904)" d="M 288 124.2 
C 288 124.2 288 124.2 288 124.2 
C 288 124.2 288 124.2 288 124.2 
L 296.473415 115.873198 
C 296.83687 116.243052 297.17572 116.636307 297.48779 117.050438 
C 297.79986 117.464568 298.084481 117.898687 298.339826 118.350008 
z
" style="fill:#662d91;opacity:0.5;"/>
   </g>
   <g id="patch_80">
    <path clip-path="url(#pd3d880f904)" d="M 288 124.2 
C 288 124.2 288 124.2 288 124.2 
C 288 124.2 288 124.2 288 124.2 
L 288 124.2 
C 288 124.2 288 124.2 288 124.2 
C 288 124.2 288 124.2 288 124.2 
z
" style="fill:#662d91;opacity:0.5;"/>
   </g>
   <g id="patch_81">
    <path clip-path="url(#pd3d880f904)" d="M 288 124.2 
C 288 124.2 288 124.2 288 124.2 
C 288 124.2 288 124.2 288 124.2 
L 288 124.2 
C 288 124.2 288 124.2 288 124.2 
C 288 124.2 288 124.2 288 124.2 
z
" style="fill:#662d91;opacity:0.5;"/>
   </g>
   <g id="patch_82">
    <path clip-path="url(#pd3d880f904)" d="M 288 124.2 
C 288 124.2 288 124.2 288 124.2 
C 288 124.2 288 124.2 288 124.2 
L 288 124.2 
C 288 124.2 288 124.2 288 124.2 
C 288 124.2 288 124.2 288 124.2 
z
" style="fill:#662d91;opacity:0.5;"/>
   </g>
   <g id="patch_83">
    <path clip-path="url(#pd3d880f904)" d="M 288 124.2 
C 288 124.2 288 124.2 288 124.2 
C 288 124.2 288 124.2 288 124.2 
L 285.025486 112.698406 
C 285.527516 112.568572 286.03751 112.471747 286.552192 112.408552 
C 287.066875 112.345357 287.585143 112.315927 288.103671 112.320452 
z
" style="fill:#662d91;opacity:0.5;"/>
   </g>
   <g id="patch_84">
    <path clip-path="url(#pd3d880f904)" d="M 288 124.2 
C 288 124.2 288 124.2 288 124.2 
C 288 124.2 288 124.2 288 124.2 
L 288 124.2 
C 288 124.2 288 124.2 288 124.2 
C 288 124.2 288 124.2 288 124.2 
z
" style="fill:#662d91;opacity:0.5;"/>
   </g>
   <g id="patch_85">
    <path clip-path="url(#pd3d880f904)" d="M 288 124.2 
C 288 124.2 288 124.2 288 124.2 
C 288 124.2 288 124.2 288 124.2 
L 288 124.2 
C 288 124.2 288 124.2 288 124.2 
C 288 124.2 288 124.2 288 124.2 
z
" style="fill:#662d91;opacity:0.5;"/>
   </g>
   <g id="patch_86">
    <path clip-path="url(#pd3d880f904)" d="M 288 124.2 
C 288 124.2 288 124.2 288 124.2 
C 288 124.2 288 124.2 288 124.2 
L 288 124.2 
C 288 124.2 288 124.2 288 124.2 
C 288 124.2 288 124.2 288 124.2 
z
" style="fill:#662d91;opacity:0.5;"/>
   </g>
   <g id="patch_87">
    <path clip-path="url(#pd3d880f904)" d="M 288 124.2 
C 288 124.2 288 124.2 288 124.2 
C 288 124.2 288 124.2 288 124.2 
L 288 124.2 
C 288 124.2 288 124.2 288 124.2 
C 288 124.2 288 124.2 288 124.2 
z
" style="fill:#662d91;opacity:0.5;"/>
   </g>
   <g id="patch_88">
    <path clip-path="url(#pd3d880f904)" d="M 288 124.2 
C 288 124.2 288 124.2 288 124.2 
C 288 124.2 288 124.2 288 124.2 
L 288 124.2 
C 288 124.2 288 124.2 288 124.2 
C 288 124.2 288 124.2 288 124.2 
z
" style="fill:#662d91;opacity:0.5;"/>
   </g>
   <g id="patch_89">
    <path clip-path="url(#pd3d880f904)" d="M 288 124.2 
C 288 124.2 288 124.2 288 124.2 
C 288 124.2 288 124.2 288 124.2 
L 288 124.2 
C 288 124.2 288 124.2 288 124.2 
C 288 124.2 288 124.2 288 124.2 
z
" style="fill:#662d91;opacity:0.5;"/>
   </g>
   <g id="patch_90">
    <path clip-path="url(#pd3d880f904)" d="M 288 124.2 
C 288 124.2 288 124.2 288 124.2 
C 288 124.2 288 124.2 288 124.2 
L 288 124.2 
C 288 124.2 288 124.2 288 124.2 
C 288 124.2 288 124.2 288 124.2 
z
" style="fill:#662d91;opacity:0.5;"/>
   </g>
   <g id="patch_91">
    <path clip-path="url(#pd3d880f904)" d="M 288 124.2 
C 288 124.2 288 124.2 288 124.2 
C 288 124.2 288 124.2 288 124.2 
L 279.526585 132.526802 
C 279.16313 132.156948 278.82428 131.763693 278.51221 131.349562 
C 278.20014 130.935432 277.915519 130.501313 277.660174 130.049992 
z
" style="fill:#662d91;opacity:0.5;"/>
   </g>
   <g id="patch_92">
    <path clip-path="url(#pd3d880f904)" d="M 288 124.2 
C 288 124.2 288 124.2 288 124.2 
C 288 124.2 288 124.2 288 124.2 
L 288 124.2 
C 288 124.2 288 124.2 288 124.2 
C 288 124.2 288 124.2 288 124.2 
z
" style="fill:#662d91;opacity:0.5;"/>
   </g>
   <g id="patch_93">
    <path clip-path="url(#pd3d880f904)" d="M 288 124.2 
C 288 124.2 288 124.2 288 124.2 
C 288 124.2 288 124.2 288 124.2 
L 288 124.2 
C 288 124.2 288 124.2 288 124.2 
C 288 124.2 288 124.2 288 124.2 
z
" style="fill:#662d91;opacity:0.5;"/>
   </g>
   <g id="patch_94">
    <path clip-path="url(#pd3d880f904)" d="M 288 124.2 
C 288 124.2 288 124.2 288 124.2 
C 288 124.2 288 124.2 288 124.2 
L 288 124.2 
C 288 124.2 288 124.2 288 124.2 
C 288 124.2 288 124.2 288 124.2 
z
" style="fill:#662d91;opacity:0.5;"/>
   </g>
   <g id="patch_95">
    <path clip-path="url(#pd3d880f904)" d="M 288 124.2 
C 288 124.2 288 124.2 288 124.2 
C 288 124.2 288 124.2 288 124.2 
L 290.974514 135.701594 
C 290.472484 135.831428 289.96249 135.928253 289.447808 135.991448 
C 288.933125 136.054643 288.414857 136.084073 287.896329 136.079548 
z
" style="fill:#662d91;opacity:0.5;"/>
   </g>
   <g id="patch_96">
    <path clip-path="url(#pd3d880f904)" d="M 288 124.2 
C 288 124.2 288 124.2 288 124.2 
C 288 124.2 288 124.2 288 124.2 
L 288 124.2 
C 288 124.2 288 124.2 288 124.2 
C 288 124.2 288 124.2 288 124.2 
z
" style="fill:#662d91;opacity:0.5;"/>
   </g>
   <g id="patch_97">
    <path clip-path="url(#pd3d880f904)" d="M 288 124.2 
C 288 124.2 288 124.2 288 124.2 
C 288 124.2 288 124.2 288 124.2 
L 288 124.2 
C 288 124.2 288 124.2 288 124.2 
C 288 124.2 288 124.2 288 124.2 
z
" style="fill:#662d91;opacity:0.5;"/>
   </g>
   <g id="patch_98">
    <path clip-path="url(#pd3d880f904)" d="M 288 124.2 
C 288 124.2 288 124.2 288 124.2 
C 288 124.2 288 124.2 288 124.2 
L 288 124.2 
C 288 124.2 288 124.2 288 124.2 
C 288 124.2 288 124.2 288 124.2 
z
" style="fill:#662d91;opacity:0.5;"/>
   </g>
   <g id="patch_99">
    <path clip-path="url(#pd3d880f904)" d="M 288 124.2 
C 288 124.2 288 124.2 288 124.2 
C 288 124.2 288 124.2 288 124.2 
L 299.44793 127.374792 
C 299.309354 127.87448 299.13821 128.36456 298.935598 128.841886 
C 298.732985 129.319212 298.499337 129.78276 298.236154 130.229556 
z
" style="fill:#662d91;opacity:0.5;"/>
   </g>
   <g id="patch_100">
    <path clip-path="url(#pd3d880f904)" d="M 288 124.2 
C 288 124.2 288 124.2 288 124.2 
C 288 124.2 288 124.2 288 124.2 
L 311.759095 124.407342 
C 311.750045 125.444399 311.673105 126.47975 311.528769 127.506753 
C 311.384434 128.533755 311.173011 129.550207 310.89586 130.549584 
z
" style="fill:#662d91;opacity:0.5;"/>
   </g>
   <g id="matplotlib.axis_3">
    <g id="xtick_6">
     <g id="line2d_11">
      <path clip-path="url(#pd3d880f904)" d="M 288 124.2 
L 347.4 124.2 
" style="fill:none;stroke:#b0b0b0;stroke-linecap:square;stroke-width:0.8;"/>
     </g>
     <g id="text_10">
      <!-- $0$ -->
      <g transform="translate(359.48 125.855625)">
       <text>
        <tspan style="font-family:DejaVu Sans;font-size:6px;font-style:book;font-weight:book;" x="0" y="-0.546875">0</tspan>
       </text>
      </g>
     </g>
    </g>
    <g id="xtick_7">
     <g id="line2d_12">
      <path clip-path="url(#pd3d880f904)" d="M 288 124.2 
L 288 64.8 
" style="fill:none;stroke:#b0b0b0;stroke-linecap:square;stroke-width:0.8;"/>
     </g>
     <g id="text_11">
      <!-- $\pi/2$ -->
      <g transform="translate(283.38 52.455625)">
       <text>
        <tspan style="font-family:DejaVu Sans;font-size:6px;font-style:oblique;font-weight:oblique;" x="0" y="-0.546875">π</tspan>
        <tspan style="font-family:DejaVu Sans;font-size:6px;font-style:book;font-weight:book;" x="3.612305 5.383789" y="-0.546875">/2</tspan>
       </text>
      </g>
     </g>
    </g>
    <g id="xtick_8">
     <g id="line2d_13">
      <path clip-path="url(#pd3d880f904)" d="M 288 124.2 
L 228.6 124.2 
" style="fill:none;stroke:#b0b0b0;stroke-linecap:square;stroke-width:0.8;"/>
     </g>
     <g id="text_12">
      <!-- $\pi$ -->
      <g transform="translate(212.77 125.855625)">
       <text>
        <tspan style="font-family:DejaVu Sans;font-size:6px;font-style:oblique;font-weight:oblique;" x="0" y="-0.71875">π</tspan>
       </text>
      </g>
     </g>
    </g>
    <g id="xtick_9">
     <g id="line2d_14">
      <path clip-path="url(#pd3d880f904)" d="M 288 124.2 
L 288 183.6 
" style="fill:none;stroke:#b0b0b0;stroke-linecap:square;stroke-width:0.8;"/>
     </g>
     <g id="text_13">
      <!-- $3\pi/2$ -->
      <g transform="translate(281.46 199.255625)">
       <text>
        <tspan style="font-family:DejaVu Sans;font-size:6px;font-style:book;font-weight:book;" x="0 7.429688 9.201172" y="-0.546875">3/2</tspan>
        <tspan style="font-family:DejaVu Sans;font-size:6px;font-style:oblique;font-weight:oblique;" x="3.817383" y="-0.546875">π</tspan>
       </text>
      </g>
     </g>
    </g>
    <g id="xtick_10">
     <g id="line2d_15">
      <path clip-path="url(#pd3d880f904)" d="M 288 124.2 
L 347.4 124.2 
" style="fill:none;stroke:#b0b0b0;stroke-linecap:square;stroke-width:0.8;"/>
     </g>
     <g id="text_14">
      <!-- $0$ -->
      <g transform="translate(359.48 125.855625)">
       <text>
        <tspan style="font-family:DejaVu Sans;font-size:6px;font-style:book;font-weight:book;" x="0" y="-0.546875">0</tspan>
       </text>
      </g>
     </g>
    </g>
   </g>
   <g id="matplotlib.axis_4">
    <g id="ytick_4">
     <g id="line2d_16">
      <path clip-path="url(#pd3d880f904)" d="M 288 124.2 
C 288 124.2 288 124.2 288 124.2 
C 288 124.2 288 124.2 288 124.2 
C 288 124.2 288 124.2 288 124.2 
C 288 124.2 288 124.2 288 124.2 
C 288 124.2 288 124.2 288 124.2 
C 288 124.2 288 124.2 288 124.2 
C 288 124.2 288 124.2 288 124.2 
C 288 124.2 288 124.2 288 124.2 
C 288 124.2 288 124.2 288 124.2 
C 288 124.2 288 124.2 288 124.2 
C 288 124.2 288 124.2 288 124.2 
C 288 124.2 288 124.2 288 124.2 
C 288 124.2 288 124.2 288 124.2 
C 288 124.2 288 124.2 288 124.2 
C 288 124.2 288 124.2 288 124.2 
C 288 124.2 288 124.2 288 124.2 
" style="fill:none;stroke:#b0b0b0;stroke-linecap:square;stroke-width:0.8;"/>
     </g>
     <g id="text_15">
      <text style="font-family:DejaVu Sans;font-size:6px;font-stretch:normal;font-style:normal;font-weight:normal;text-anchor:start;" transform="rotate(-0, 288, 122.952188)" x="288" y="122.952188">0.00</text>
     </g>
    </g>
    <g id="ytick_5">
     <g id="line2d_17">
      <path clip-path="url(#pd3d880f904)" d="M 317.7 124.2 
C 317.7 120.299832 316.931752 116.437588 315.439222 112.834302 
C 313.946692 109.231016 311.758907 105.956764 309.001071 103.198929 
C 306.243236 100.441093 302.968984 98.253308 299.365698 96.760778 
C 295.762412 95.268248 291.900168 94.5 288 94.5 
C 284.099832 94.5 280.237588 95.268248 276.634302 96.760778 
C 273.031016 98.253308 269.756764 100.441093 266.998929 103.198929 
C 264.241093 105.956764 262.053308 109.231016 260.560778 112.834302 
C 259.068248 116.437588 258.3 120.299832 258.3 124.2 
C 258.3 128.100168 259.068248 131.962412 260.560778 135.565698 
C 262.053308 139.168984 264.241093 142.443236 266.998929 145.201071 
C 269.756764 147.958907 273.031016 150.146692 276.634302 151.639222 
C 280.237588 153.131752 284.099832 153.9 288 153.9 
C 291.900168 153.9 295.762412 153.131752 299.365698 151.639222 
C 302.968984 150.146692 306.243236 147.958907 309.001071 145.201071 
C 311.758907 142.443236 313.946692 139.168984 315.439222 135.565698 
C 316.931752 131.962412 317.7 128.100168 317.7 124.2 
" style="fill:none;stroke:#b0b0b0;stroke-linecap:square;stroke-width:0.8;"/>
     </g>
     <g id="text_16">
      <text style="font-family:DejaVu Sans;font-size:6px;font-stretch:normal;font-style:normal;font-weight:normal;text-anchor:start;" transform="rotate(-0, 315.439222, 111.58649)" x="315.439222" y="111.58649">0.25</text>
     </g>
    </g>
    <g id="ytick_6">
     <g id="line2d_18">
      <path clip-path="url(#pd3d880f904)" d="M 347.4 124.2 
C 347.4 116.399663 345.863504 108.675175 342.878444 101.468604 
C 339.893385 94.262033 335.517814 87.713528 330.002143 82.197857 
C 324.486472 76.682186 317.937967 72.306615 310.731396 69.321556 
C 303.524825 66.336496 295.800337 64.8 288 64.8 
C 280.199663 64.8 272.475175 66.336496 265.268604 69.321556 
C 258.062033 72.306615 251.513528 76.682186 245.997857 82.197857 
C 240.482186 87.713528 236.106615 94.262033 233.121556 101.468604 
C 230.136496 108.675175 228.6 116.399663 228.6 124.2 
C 228.6 132.000337 230.136496 139.724825 233.121556 146.931396 
C 236.106615 154.137967 240.482186 160.686472 245.997857 166.202143 
C 251.513528 171.717814 258.062033 176.093385 265.268604 179.078444 
C 272.475175 182.063504 280.199663 183.6 288 183.6 
C 295.800337 183.6 303.524825 182.063504 310.731396 179.078444 
C 317.937967 176.093385 324.486472 171.717814 330.002143 166.202143 
C 335.517814 160.686472 339.893385 154.137967 342.878444 146.931396 
C 345.863504 139.724825 347.4 132.000337 347.4 124.2 
" style="fill:none;stroke:#b0b0b0;stroke-linecap:square;stroke-width:0.8;"/>
     </g>
     <g id="text_17">
      <text style="font-family:DejaVu Sans;font-size:6px;font-stretch:normal;font-style:normal;font-weight:normal;text-anchor:start;" transform="rotate(-0, 342.878444, 100.220792)" x="342.878444" y="100.220792">0.50</text>
     </g>
    </g>
   </g>
   <g id="line2d_19">
    <path clip-path="url(#pd3d880f904)" d="M 288 124.2 
L 347.393059 123.291966 
" style="fill:none;stroke:#f15a29;stroke-linecap:square;stroke-width:2;"/>
   </g>
   <g id="line2d_20">
    <path clip-path="url(#pd3d880f904)" d="M 288 124.2 
L 311.735635 123.124244 
" style="fill:none;stroke:#662d91;stroke-linecap:square;stroke-width:2;"/>
   </g>
   <g id="patch_101">
    <path d="M 347.4 124.2 
C 347.4 116.399663 345.863504 108.675175 342.878444 101.468604 
C 339.893385 94.262033 335.517814 87.713528 330.002143 82.197857 
C 324.486472 76.682186 317.937967 72.306615 310.731396 69.321556 
C 303.524825 66.336496 295.800337 64.8 288 64.8 
C 280.199663 64.8 272.475175 66.336496 265.268604 69.321556 
C 258.062033 72.306615 251.513528 76.682186 245.997857 82.197857 
C 240.482186 87.713528 236.106615 94.262033 233.121556 101.468604 
C 230.136496 108.675175 228.6 116.399663 228.6 124.2 
C 228.6 132.000337 230.136496 139.724825 233.121556 146.931396 
C 236.106615 154.137967 240.482186 160.686472 245.997857 166.202143 
C 251.513528 171.717814 258.062033 176.093385 265.268604 179.078444 
C 272.475175 182.063504 280.199663 183.6 288 183.6 
C 295.800337 183.6 303.524825 182.063504 310.731396 179.078444 
C 317.937967 176.093385 324.486472 171.717814 330.002143 166.202143 
C 335.517814 160.686472 339.893385 154.137967 342.878444 146.931396 
C 345.863504 139.724825 347.4 132.000337 347.4 124.2 
" style="fill:none;stroke:#000000;stroke-linecap:square;stroke-linejoin:miter;stroke-width:0.25;"/>
   </g>
   <g id="text_18">
    <text style="font-family:DejaVu Sans;font-size:8px;font-stretch:normal;font-style:normal;font-weight:normal;text-anchor:start;" transform="rotate(-0, 228.6, 41.896563)" x="228.6" y="41.896563">Lm, n=10 cells</text>
   </g>
  </g>
  <g id="axes_3">
   <g id="patch_102">
    <path d="M 153 124.2 
C 153 116.399663 151.463504 108.675175 148.478444 101.468604 
C 145.493385 94.262033 141.117814 87.713528 135.602143 82.197857 
C 130.086472 76.682186 123.537967 72.306615 116.331396 69.321556 
C 109.124825 66.336496 101.400337 64.8 93.6 64.8 
C 85.799663 64.8 78.075175 66.336496 70.868604 69.321556 
C 63.662033 72.306615 57.113528 76.682186 51.597857 82.197857 
C 46.082186 87.713528 41.706615 94.262033 38.721556 101.468604 
C 35.736496 108.675175 34.2 116.399663 34.2 124.2 
C 34.2 132.000337 35.736496 139.724825 38.721556 146.931396 
C 41.706615 154.137967 46.082186 160.686472 51.597857 166.202143 
C 57.113528 171.717814 63.662033 176.093385 70.868604 179.078444 
C 78.075175 182.063504 85.799663 183.6 93.6 183.6 
C 101.400337 183.6 109.124825 182.063504 116.331396 179.078444 
C 123.537967 176.093385 130.086472 171.717814 135.602143 166.202143 
C 141.117814 160.686472 145.493385 154.137967 148.478444 146.931396 
C 151.463504 139.724825 153 132.000337 153 124.2 
M 93.6 124.2 
C 93.6 124.2 93.6 124.2 93.6 124.2 
C 93.6 124.2 93.6 124.2 93.6 124.2 
C 93.6 124.2 93.6 124.2 93.6 124.2 
C 93.6 124.2 93.6 124.2 93.6 124.2 
C 93.6 124.2 93.6 124.2 93.6 124.2 
C 93.6 124.2 93.6 124.2 93.6 124.2 
C 93.6 124.2 93.6 124.2 93.6 124.2 
C 93.6 124.2 93.6 124.2 93.6 124.2 
C 93.6 124.2 93.6 124.2 93.6 124.2 
C 93.6 124.2 93.6 124.2 93.6 124.2 
C 93.6 124.2 93.6 124.2 93.6 124.2 
C 93.6 124.2 93.6 124.2 93.6 124.2 
C 93.6 124.2 93.6 124.2 93.6 124.2 
C 93.6 124.2 93.6 124.2 93.6 124.2 
C 93.6 124.2 93.6 124.2 93.6 124.2 
C 93.6 124.2 93.6 124.2 93.6 124.2 
M 153 124.2 
z
" style="fill:#ffffff;"/>
   </g>
   <g id="patch_103">
    <path clip-path="url(#p727e4ae41e)" d="M 93.6 124.2 
C 93.6 124.2 93.6 124.2 93.6 124.2 
C 93.6 124.2 93.6 124.2 93.6 124.2 
L 130.98018 114.532828 
C 131.402141 116.164428 131.716823 117.821906 131.922207 119.494625 
C 132.127591 121.167343 132.223237 122.851715 132.20853 124.536932 
z
" style="fill:#f15a29;opacity:0.5;"/>
   </g>
   <g id="patch_104">
    <path clip-path="url(#p727e4ae41e)" d="M 93.6 124.2 
C 93.6 124.2 93.6 124.2 93.6 124.2 
C 93.6 124.2 93.6 124.2 93.6 124.2 
L 112.556347 113.475015 
C 113.02448 114.302437 113.437937 115.159622 113.794064 116.041068 
C 114.150192 116.922515 114.448227 117.826334 114.686256 118.746724 
z
" style="fill:#f15a29;opacity:0.5;"/>
   </g>
   <g id="patch_105">
    <path clip-path="url(#p727e4ae41e)" d="M 93.6 124.2 
C 93.6 124.2 93.6 124.2 93.6 124.2 
C 93.6 124.2 93.6 124.2 93.6 124.2 
L 99.955062 117.954898 
C 100.227653 118.232289 100.48179 118.52723 100.715842 118.837828 
C 100.949895 119.148426 101.16336 119.474015 101.354869 119.812506 
z
" style="fill:#f15a29;opacity:0.5;"/>
   </g>
   <g id="patch_106">
    <path clip-path="url(#p727e4ae41e)" d="M 93.6 124.2 
C 93.6 124.2 93.6 124.2 93.6 124.2 
C 93.6 124.2 93.6 124.2 93.6 124.2 
L 96.614778 119.081923 
C 96.838176 119.213514 97.052719 119.359591 97.257029 119.519216 
C 97.46134 119.678841 97.65498 119.851672 97.836708 120.036599 
z
" style="fill:#f15a29;opacity:0.5;"/>
   </g>
   <g id="patch_107">
    <path clip-path="url(#p727e4ae41e)" d="M 93.6 124.2 
C 93.6 124.2 93.6 124.2 93.6 124.2 
C 93.6 124.2 93.6 124.2 93.6 124.2 
L 94.129132 122.292012 
C 94.212413 122.315108 94.294093 122.343632 94.373648 122.3774 
C 94.453202 122.411169 94.53046 122.45011 94.604926 122.493974 
z
" style="fill:#f15a29;opacity:0.5;"/>
   </g>
   <g id="patch_108">
    <path clip-path="url(#p727e4ae41e)" d="M 93.6 124.2 
C 93.6 124.2 93.6 124.2 93.6 124.2 
C 93.6 124.2 93.6 124.2 93.6 124.2 
L 93.608639 123.210038 
C 93.65185 123.210415 93.69499 123.213621 93.737781 123.219635 
C 93.780573 123.225649 93.822925 123.234458 93.864566 123.246006 
z
" style="fill:#f15a29;opacity:0.5;"/>
   </g>
   <g id="patch_109">
    <path clip-path="url(#p727e4ae41e)" d="M 93.6 124.2 
C 93.6 124.2 93.6 124.2 93.6 124.2 
C 93.6 124.2 93.6 124.2 93.6 124.2 
L 93.104248 122.283068 
C 93.187919 122.261429 93.272918 122.245291 93.358699 122.234759 
C 93.444479 122.224226 93.530857 122.219321 93.617279 122.220075 
z
" style="fill:#f15a29;opacity:0.5;"/>
   </g>
   <g id="patch_110">
    <path clip-path="url(#p727e4ae41e)" d="M 93.6 124.2 
C 93.6 124.2 93.6 124.2 93.6 124.2 
C 93.6 124.2 93.6 124.2 93.6 124.2 
L 92.137502 121.615044 
C 92.250332 121.551207 92.367221 121.494827 92.487418 121.446264 
C 92.607616 121.397701 92.730864 121.35706 92.856371 121.324602 
z
" style="fill:#f15a29;opacity:0.5;"/>
   </g>
   <g id="patch_111">
    <path clip-path="url(#p727e4ae41e)" d="M 93.6 124.2 
C 93.6 124.2 93.6 124.2 93.6 124.2 
C 93.6 124.2 93.6 124.2 93.6 124.2 
L 92.2122 122.787764 
C 92.273842 122.727188 92.339384 122.670713 92.408406 122.618702 
C 92.477428 122.56669 92.549781 122.519253 92.625001 122.476696 
z
" style="fill:#f15a29;opacity:0.5;"/>
   </g>
   <g id="patch_112">
    <path clip-path="url(#p727e4ae41e)" d="M 93.6 124.2 
C 93.6 124.2 93.6 124.2 93.6 124.2 
C 93.6 124.2 93.6 124.2 93.6 124.2 
L 89.334936 121.687685 
C 89.444595 121.50152 89.566326 121.322735 89.699347 121.152476 
C 89.832368 120.982217 89.976393 120.82085 90.130499 120.66941 
z
" style="fill:#f15a29;opacity:0.5;"/>
   </g>
   <g id="patch_113">
    <path clip-path="url(#p727e4ae41e)" d="M 93.6 124.2 
C 93.6 124.2 93.6 124.2 93.6 124.2 
C 93.6 124.2 93.6 124.2 93.6 124.2 
L 91.692012 123.670868 
C 91.715108 123.587587 91.743632 123.505907 91.7774 123.426352 
C 91.811169 123.346798 91.85011 123.26954 91.893974 123.195074 
z
" style="fill:#f15a29;opacity:0.5;"/>
   </g>
   <g id="patch_114">
    <path clip-path="url(#p727e4ae41e)" d="M 93.6 124.2 
C 93.6 124.2 93.6 124.2 93.6 124.2 
C 93.6 124.2 93.6 124.2 93.6 124.2 
L 92.610038 124.191361 
C 92.610415 124.14815 92.613621 124.10501 92.619635 124.062219 
C 92.625649 124.019427 92.634458 123.977075 92.646006 123.935434 
z
" style="fill:#f15a29;opacity:0.5;"/>
   </g>
   <g id="patch_115">
    <path clip-path="url(#p727e4ae41e)" d="M 93.6 124.2 
C 93.6 124.2 93.6 124.2 93.6 124.2 
C 93.6 124.2 93.6 124.2 93.6 124.2 
L 89.766135 125.191505 
C 89.722857 125.024161 89.690582 124.854163 89.669517 124.682603 
C 89.648452 124.511042 89.638642 124.338286 89.640151 124.165443 
z
" style="fill:#f15a29;opacity:0.5;"/>
   </g>
   <g id="patch_116">
    <path clip-path="url(#p727e4ae41e)" d="M 93.6 124.2 
C 93.6 124.2 93.6 124.2 93.6 124.2 
C 93.6 124.2 93.6 124.2 93.6 124.2 
L 92.738348 124.687499 
C 92.717069 124.649889 92.698276 124.610926 92.682088 124.570861 
C 92.6659 124.530795 92.652353 124.489712 92.641534 124.447876 
z
" style="fill:#f15a29;opacity:0.5;"/>
   </g>
   <g id="patch_117">
    <path clip-path="url(#p727e4ae41e)" d="M 93.6 124.2 
C 93.6 124.2 93.6 124.2 93.6 124.2 
C 93.6 124.2 93.6 124.2 93.6 124.2 
L 92.893882 124.8939 
C 92.863594 124.863079 92.835357 124.830308 92.809351 124.795797 
C 92.783345 124.761286 92.759627 124.725109 92.738348 124.687499 
z
" style="fill:#f15a29;opacity:0.5;"/>
   </g>
   <g id="patch_118">
    <path clip-path="url(#p727e4ae41e)" d="M 93.6 124.2 
C 93.6 124.2 93.6 124.2 93.6 124.2 
C 93.6 124.2 93.6 124.2 93.6 124.2 
L 93.6 124.2 
C 93.6 124.2 93.6 124.2 93.6 124.2 
C 93.6 124.2 93.6 124.2 93.6 124.2 
z
" style="fill:#f15a29;opacity:0.5;"/>
   </g>
   <g id="patch_119">
    <path clip-path="url(#p727e4ae41e)" d="M 93.6 124.2 
C 93.6 124.2 93.6 124.2 93.6 124.2 
C 93.6 124.2 93.6 124.2 93.6 124.2 
L 93.6 124.2 
C 93.6 124.2 93.6 124.2 93.6 124.2 
C 93.6 124.2 93.6 124.2 93.6 124.2 
z
" style="fill:#f15a29;opacity:0.5;"/>
   </g>
   <g id="patch_120">
    <path clip-path="url(#p727e4ae41e)" d="M 93.6 124.2 
C 93.6 124.2 93.6 124.2 93.6 124.2 
C 93.6 124.2 93.6 124.2 93.6 124.2 
L 93.565443 128.159849 
C 93.3926 128.158341 93.220042 128.145518 93.048875 128.121462 
C 92.877707 128.097406 92.708299 128.062169 92.541736 128.015977 
z
" style="fill:#f15a29;opacity:0.5;"/>
   </g>
   <g id="patch_121">
    <path clip-path="url(#p727e4ae41e)" d="M 93.6 124.2 
C 93.6 124.2 93.6 124.2 93.6 124.2 
C 93.6 124.2 93.6 124.2 93.6 124.2 
L 94.095752 126.116932 
C 94.012081 126.138571 93.927082 126.154709 93.841301 126.165241 
C 93.755521 126.175774 93.669143 126.180679 93.582721 126.179925 
z
" style="fill:#f15a29;opacity:0.5;"/>
   </g>
   <g id="patch_122">
    <path clip-path="url(#p727e4ae41e)" d="M 93.6 124.2 
C 93.6 124.2 93.6 124.2 93.6 124.2 
C 93.6 124.2 93.6 124.2 93.6 124.2 
L 96.037497 128.508261 
C 95.849446 128.614655 95.654631 128.708622 95.454303 128.78956 
C 95.253974 128.870498 95.048561 128.938233 94.839381 128.992331 
z
" style="fill:#f15a29;opacity:0.5;"/>
   </g>
   <g id="patch_123">
    <path clip-path="url(#p727e4ae41e)" d="M 93.6 124.2 
C 93.6 124.2 93.6 124.2 93.6 124.2 
C 93.6 124.2 93.6 124.2 93.6 124.2 
L 97.069501 127.73059 
C 96.915395 127.882029 96.751539 128.023217 96.578984 128.153246 
C 96.40643 128.283275 96.225547 128.401867 96.037497 128.508261 
z
" style="fill:#f15a29;opacity:0.5;"/>
   </g>
   <g id="patch_124">
    <path clip-path="url(#p727e4ae41e)" d="M 93.6 124.2 
C 93.6 124.2 93.6 124.2 93.6 124.2 
C 93.6 124.2 93.6 124.2 93.6 124.2 
L 102.130129 129.22463 
C 101.91081 129.59696 101.667348 129.954531 101.401306 130.295049 
C 101.135265 130.635566 100.847214 130.9583 100.539002 131.261179 
z
" style="fill:#f15a29;opacity:0.5;"/>
   </g>
   <g id="patch_125">
    <path clip-path="url(#p727e4ae41e)" d="M 93.6 124.2 
C 93.6 124.2 93.6 124.2 93.6 124.2 
C 93.6 124.2 93.6 124.2 93.6 124.2 
L 115.541865 130.285018 
C 115.276262 131.242754 114.948237 132.182073 114.559896 133.096948 
C 114.171554 134.011822 113.72373 134.90029 113.219296 135.756649 
z
" style="fill:#f15a29;opacity:0.5;"/>
   </g>
   <g id="patch_126">
    <path clip-path="url(#p727e4ae41e)" d="M 93.6 124.2 
C 93.6 124.2 93.6 124.2 93.6 124.2 
C 93.6 124.2 93.6 124.2 93.6 124.2 
L 144.088077 124.640603 
C 144.068846 126.844347 143.905348 129.044469 143.598635 131.22685 
C 143.291921 133.40923 142.842649 135.56919 142.253702 137.692866 
z
" style="fill:#f15a29;opacity:0.5;"/>
   </g>
   <g id="patch_127">
    <path clip-path="url(#p727e4ae41e)" d="M 93.6 124.2 
C 93.6 124.2 93.6 124.2 93.6 124.2 
C 93.6 124.2 93.6 124.2 93.6 124.2 
L 124.270917 116.267961 
C 124.617141 117.60671 124.875342 118.966692 125.043862 120.339179 
C 125.212382 121.711666 125.290861 123.093715 125.278794 124.476457 
z
" style="fill:#662d91;opacity:0.5;"/>
   </g>
   <g id="patch_128">
    <path clip-path="url(#p727e4ae41e)" d="M 93.6 124.2 
C 93.6 124.2 93.6 124.2 93.6 124.2 
C 93.6 124.2 93.6 124.2 93.6 124.2 
L 118.587912 110.06252 
C 119.204996 111.153212 119.750008 112.283138 120.219448 113.445045 
C 120.688889 114.606952 121.081753 115.798349 121.395519 117.01159 
z
" style="fill:#662d91;opacity:0.5;"/>
   </g>
   <g id="patch_129">
    <path clip-path="url(#p727e4ae41e)" d="M 93.6 124.2 
C 93.6 124.2 93.6 124.2 93.6 124.2 
C 93.6 124.2 93.6 124.2 93.6 124.2 
L 98.542826 119.342699 
C 98.754841 119.558447 98.952503 119.787846 99.134544 120.029422 
C 99.316585 120.270998 99.482614 120.524234 99.631565 120.787505 
z
" style="fill:#662d91;opacity:0.5;"/>
   </g>
   <g id="patch_130">
    <path clip-path="url(#p727e4ae41e)" d="M 93.6 124.2 
C 93.6 124.2 93.6 124.2 93.6 124.2 
C 93.6 124.2 93.6 124.2 93.6 124.2 
L 102.644334 108.845768 
C 103.314527 109.240543 103.958156 109.678774 104.571087 110.157648 
C 105.184019 110.636523 105.764941 111.155015 106.310123 111.709797 
z
" style="fill:#662d91;opacity:0.5;"/>
   </g>
   <g id="patch_131">
    <path clip-path="url(#p727e4ae41e)" d="M 93.6 124.2 
C 93.6 124.2 93.6 124.2 93.6 124.2 
C 93.6 124.2 93.6 124.2 93.6 124.2 
L 94.658264 120.384023 
C 94.824827 120.430215 94.988187 120.487263 95.147295 120.554801 
C 95.306404 120.622338 95.46092 120.700221 95.609852 120.787949 
z
" style="fill:#662d91;opacity:0.5;"/>
   </g>
   <g id="patch_132">
    <path clip-path="url(#p727e4ae41e)" d="M 93.6 124.2 
C 93.6 124.2 93.6 124.2 93.6 124.2 
C 93.6 124.2 93.6 124.2 93.6 124.2 
L 93.643196 119.250188 
C 93.85925 119.252074 94.074948 119.268103 94.288907 119.298173 
C 94.502866 119.328243 94.714626 119.372289 94.92283 119.430029 
z
" style="fill:#662d91;opacity:0.5;"/>
   </g>
   <g id="patch_133">
    <path clip-path="url(#p727e4ae41e)" d="M 93.6 124.2 
C 93.6 124.2 93.6 124.2 93.6 124.2 
C 93.6 124.2 93.6 124.2 93.6 124.2 
L 93.352124 123.241534 
C 93.39396 123.230714 93.436459 123.222646 93.479349 123.217379 
C 93.52224 123.212113 93.565429 123.209661 93.608639 123.210038 
z
" style="fill:#662d91;opacity:0.5;"/>
   </g>
   <g id="patch_134">
    <path clip-path="url(#p727e4ae41e)" d="M 93.6 124.2 
C 93.6 124.2 93.6 124.2 93.6 124.2 
C 93.6 124.2 93.6 124.2 93.6 124.2 
L 93.6 124.2 
C 93.6 124.2 93.6 124.2 93.6 124.2 
C 93.6 124.2 93.6 124.2 93.6 124.2 
z
" style="fill:#662d91;opacity:0.5;"/>
   </g>
   <g id="patch_135">
    <path clip-path="url(#p727e4ae41e)" d="M 93.6 124.2 
C 93.6 124.2 93.6 124.2 93.6 124.2 
C 93.6 124.2 93.6 124.2 93.6 124.2 
L 92.9061 123.493882 
C 92.936921 123.463594 92.969692 123.435357 93.004203 123.409351 
C 93.038714 123.383345 93.074891 123.359627 93.112501 123.338348 
z
" style="fill:#662d91;opacity:0.5;"/>
   </g>
   <g id="patch_136">
    <path clip-path="url(#p727e4ae41e)" d="M 93.6 124.2 
C 93.6 124.2 93.6 124.2 93.6 124.2 
C 93.6 124.2 93.6 124.2 93.6 124.2 
L 91.893974 123.195074 
C 91.937838 123.120608 91.98653 123.049094 92.039739 122.98099 
C 92.092947 122.912887 92.150557 122.84834 92.2122 122.787764 
z
" style="fill:#662d91;opacity:0.5;"/>
   </g>
   <g id="patch_137">
    <path clip-path="url(#p727e4ae41e)" d="M 93.6 124.2 
C 93.6 124.2 93.6 124.2 93.6 124.2 
C 93.6 124.2 93.6 124.2 93.6 124.2 
L 90.738018 123.406302 
C 90.772662 123.28138 90.815447 123.15886 90.866101 123.039529 
C 90.916754 122.920197 90.975166 122.80431 91.040961 122.692611 
z
" style="fill:#662d91;opacity:0.5;"/>
   </g>
   <g id="patch_138">
    <path clip-path="url(#p727e4ae41e)" d="M 93.6 124.2 
C 93.6 124.2 93.6 124.2 93.6 124.2 
C 93.6 124.2 93.6 124.2 93.6 124.2 
L 90.630113 124.174082 
C 90.631244 124.04445 90.640862 123.915031 90.658904 123.786656 
C 90.676946 123.658281 90.703374 123.531224 90.738018 123.406302 
z
" style="fill:#662d91;opacity:0.5;"/>
   </g>
   <g id="patch_139">
    <path clip-path="url(#p727e4ae41e)" d="M 93.6 124.2 
C 93.6 124.2 93.6 124.2 93.6 124.2 
C 93.6 124.2 93.6 124.2 93.6 124.2 
L 89.766135 125.191505 
C 89.722857 125.024161 89.690582 124.854163 89.669517 124.682603 
C 89.648452 124.511042 89.638642 124.338286 89.640151 124.165443 
z
" style="fill:#662d91;opacity:0.5;"/>
   </g>
   <g id="patch_140">
    <path clip-path="url(#p727e4ae41e)" d="M 93.6 124.2 
C 93.6 124.2 93.6 124.2 93.6 124.2 
C 93.6 124.2 93.6 124.2 93.6 124.2 
L 91.015044 125.662498 
C 90.951207 125.549668 90.894827 125.432779 90.846264 125.312582 
C 90.797701 125.192384 90.75706 125.069136 90.724602 124.943629 
z
" style="fill:#662d91;opacity:0.5;"/>
   </g>
   <g id="patch_141">
    <path clip-path="url(#p727e4ae41e)" d="M 93.6 124.2 
C 93.6 124.2 93.6 124.2 93.6 124.2 
C 93.6 124.2 93.6 124.2 93.6 124.2 
L 93.6 124.2 
C 93.6 124.2 93.6 124.2 93.6 124.2 
C 93.6 124.2 93.6 124.2 93.6 124.2 
z
" style="fill:#662d91;opacity:0.5;"/>
   </g>
   <g id="patch_142">
    <path clip-path="url(#p727e4ae41e)" d="M 93.6 124.2 
C 93.6 124.2 93.6 124.2 93.6 124.2 
C 93.6 124.2 93.6 124.2 93.6 124.2 
L 91.590148 127.612051 
C 91.441216 127.524324 91.298188 127.426939 91.161981 127.320523 
C 91.025773 127.214106 90.89668 127.098885 90.775528 126.975601 
z
" style="fill:#662d91;opacity:0.5;"/>
   </g>
   <g id="patch_143">
    <path clip-path="url(#p727e4ae41e)" d="M 93.6 124.2 
C 93.6 124.2 93.6 124.2 93.6 124.2 
C 93.6 124.2 93.6 124.2 93.6 124.2 
L 92.806302 127.061982 
C 92.68138 127.027338 92.55886 126.984553 92.439529 126.933899 
C 92.320197 126.883246 92.20431 126.824834 92.092611 126.759039 
z
" style="fill:#662d91;opacity:0.5;"/>
   </g>
   <g id="patch_144">
    <path clip-path="url(#p727e4ae41e)" d="M 93.6 124.2 
C 93.6 124.2 93.6 124.2 93.6 124.2 
C 93.6 124.2 93.6 124.2 93.6 124.2 
L 93.548164 130.139774 
C 93.2889 130.137511 93.030062 130.118276 92.773312 130.082192 
C 92.516561 130.046108 92.262448 129.993253 92.012604 129.923965 
z
" style="fill:#662d91;opacity:0.5;"/>
   </g>
   <g id="patch_145">
    <path clip-path="url(#p727e4ae41e)" d="M 93.6 124.2 
C 93.6 124.2 93.6 124.2 93.6 124.2 
C 93.6 124.2 93.6 124.2 93.6 124.2 
L 94.591505 128.033865 
C 94.424161 128.077143 94.254163 128.109418 94.082603 128.130483 
C 93.911042 128.151548 93.738286 128.161358 93.565443 128.159849 
z
" style="fill:#662d91;opacity:0.5;"/>
   </g>
   <g id="patch_146">
    <path clip-path="url(#p727e4ae41e)" d="M 93.6 124.2 
C 93.6 124.2 93.6 124.2 93.6 124.2 
C 93.6 124.2 93.6 124.2 93.6 124.2 
L 95.062498 126.784956 
C 94.949668 126.848793 94.832779 126.905173 94.712582 126.953736 
C 94.592384 127.002299 94.469136 127.04294 94.343629 127.075398 
z
" style="fill:#662d91;opacity:0.5;"/>
   </g>
   <g id="patch_147">
    <path clip-path="url(#p727e4ae41e)" d="M 93.6 124.2 
C 93.6 124.2 93.6 124.2 93.6 124.2 
C 93.6 124.2 93.6 124.2 93.6 124.2 
L 97.069501 127.73059 
C 96.915395 127.882029 96.751539 128.023217 96.578984 128.153246 
C 96.40643 128.283275 96.225547 128.401867 96.037497 128.508261 
z
" style="fill:#662d91;opacity:0.5;"/>
   </g>
   <g id="patch_148">
    <path clip-path="url(#p727e4ae41e)" d="M 93.6 124.2 
C 93.6 124.2 93.6 124.2 93.6 124.2 
C 93.6 124.2 93.6 124.2 93.6 124.2 
L 102.983142 129.727093 
C 102.741891 130.136656 102.474083 130.529984 102.181437 130.904553 
C 101.888791 131.279123 101.571935 131.63413 101.232902 131.967297 
z
" style="fill:#662d91;opacity:0.5;"/>
   </g>
   <g id="patch_149">
    <path clip-path="url(#p727e4ae41e)" d="M 93.6 124.2 
C 93.6 124.2 93.6 124.2 93.6 124.2 
C 93.6 124.2 93.6 124.2 93.6 124.2 
L 115.541865 130.285018 
C 115.276262 131.242754 114.948237 132.182073 114.559896 133.096948 
C 114.171554 134.011822 113.72373 134.90029 113.219296 135.756649 
z
" style="fill:#662d91;opacity:0.5;"/>
   </g>
   <g id="patch_150">
    <path clip-path="url(#p727e4ae41e)" d="M 93.6 124.2 
C 93.6 124.2 93.6 124.2 93.6 124.2 
C 93.6 124.2 93.6 124.2 93.6 124.2 
L 122.308907 124.450539 
C 122.297971 125.703648 122.205002 126.954698 122.030596 128.19566 
C 121.85619 129.436621 121.600722 130.664833 121.26583 131.872414 
z
" style="fill:#662d91;opacity:0.5;"/>
   </g>
   <g id="matplotlib.axis_5">
    <g id="xtick_11">
     <g id="line2d_21">
      <path clip-path="url(#p727e4ae41e)" d="M 93.6 124.2 
L 153 124.2 
" style="fill:none;stroke:#b0b0b0;stroke-linecap:square;stroke-width:0.8;"/>
     </g>
     <g id="text_19">
      <!-- $0$ -->
      <g transform="translate(165.08 125.855625)">
       <text>
        <tspan style="font-family:DejaVu Sans;font-size:6px;font-style:book;font-weight:book;" x="0" y="-0.546875">0</tspan>
       </text>
      </g>
     </g>
    </g>
    <g id="xtick_12">
     <g id="line2d_22">
      <path clip-path="url(#p727e4ae41e)" d="M 93.6 124.2 
L 93.6 64.8 
" style="fill:none;stroke:#b0b0b0;stroke-linecap:square;stroke-width:0.8;"/>
     </g>
     <g id="text_20">
      <!-- $\pi/2$ -->
      <g transform="translate(88.98 52.455625)">
       <text>
        <tspan style="font-family:DejaVu Sans;font-size:6px;font-style:oblique;font-weight:oblique;" x="0" y="-0.546875">π</tspan>
        <tspan style="font-family:DejaVu Sans;font-size:6px;font-style:book;font-weight:book;" x="3.612305 5.383789" y="-0.546875">/2</tspan>
       </text>
      </g>
     </g>
    </g>
    <g id="xtick_13">
     <g id="line2d_23">
      <path clip-path="url(#p727e4ae41e)" d="M 93.6 124.2 
L 34.2 124.2 
" style="fill:none;stroke:#b0b0b0;stroke-linecap:square;stroke-width:0.8;"/>
     </g>
     <g id="text_21">
      <!-- $\pi$ -->
      <g transform="translate(18.37 125.855625)">
       <text>
        <tspan style="font-family:DejaVu Sans;font-size:6px;font-style:oblique;font-weight:oblique;" x="0" y="-0.71875">π</tspan>
       </text>
      </g>
     </g>
    </g>
    <g id="xtick_14">
     <g id="line2d_24">
      <path clip-path="url(#p727e4ae41e)" d="M 93.6 124.2 
L 93.6 183.6 
" style="fill:none;stroke:#b0b0b0;stroke-linecap:square;stroke-width:0.8;"/>
     </g>
     <g id="text_22">
      <!-- $3\pi/2$ -->
      <g transform="translate(87.06 199.255625)">
       <text>
        <tspan style="font-family:DejaVu Sans;font-size:6px;font-style:book;font-weight:book;" x="0 7.429688 9.201172" y="-0.546875">3/2</tspan>
        <tspan style="font-family:DejaVu Sans;font-size:6px;font-style:oblique;font-weight:oblique;" x="3.817383" y="-0.546875">π</tspan>
       </text>
      </g>
     </g>
    </g>
    <g id="xtick_15">
     <g id="line2d_25">
      <path clip-path="url(#p727e4ae41e)" d="M 93.6 124.2 
L 153 124.2 
" style="fill:none;stroke:#b0b0b0;stroke-linecap:square;stroke-width:0.8;"/>
     </g>
     <g id="text_23">
      <!-- $0$ -->
      <g transform="translate(165.08 125.855625)">
       <text>
        <tspan style="font-family:DejaVu Sans;font-size:6px;font-style:book;font-weight:book;" x="0" y="-0.546875">0</tspan>
       </text>
      </g>
     </g>
    </g>
   </g>
   <g id="matplotlib.axis_6">
    <g id="ytick_7">
     <g id="line2d_26">
      <path clip-path="url(#p727e4ae41e)" d="M 93.6 124.2 
C 93.6 124.2 93.6 124.2 93.6 124.2 
C 93.6 124.2 93.6 124.2 93.6 124.2 
C 93.6 124.2 93.6 124.2 93.6 124.2 
C 93.6 124.2 93.6 124.2 93.6 124.2 
C 93.6 124.2 93.6 124.2 93.6 124.2 
C 93.6 124.2 93.6 124.2 93.6 124.2 
C 93.6 124.2 93.6 124.2 93.6 124.2 
C 93.6 124.2 93.6 124.2 93.6 124.2 
C 93.6 124.2 93.6 124.2 93.6 124.2 
C 93.6 124.2 93.6 124.2 93.6 124.2 
C 93.6 124.2 93.6 124.2 93.6 124.2 
C 93.6 124.2 93.6 124.2 93.6 124.2 
C 93.6 124.2 93.6 124.2 93.6 124.2 
C 93.6 124.2 93.6 124.2 93.6 124.2 
C 93.6 124.2 93.6 124.2 93.6 124.2 
C 93.6 124.2 93.6 124.2 93.6 124.2 
" style="fill:none;stroke:#b0b0b0;stroke-linecap:square;stroke-width:0.8;"/>
     </g>
     <g id="text_24">
      <text style="font-family:DejaVu Sans;font-size:6px;font-stretch:normal;font-style:normal;font-weight:normal;text-anchor:start;" transform="rotate(-0, 93.6, 122.952188)" x="93.6" y="122.952188">0.00</text>
     </g>
    </g>
    <g id="ytick_8">
     <g id="line2d_27">
      <path clip-path="url(#p727e4ae41e)" d="M 123.3 124.2 
C 123.3 120.299832 122.531752 116.437588 121.039222 112.834302 
C 119.546692 109.231016 117.358907 105.956764 114.601071 103.198929 
C 111.843236 100.441093 108.568984 98.253308 104.965698 96.760778 
C 101.362412 95.268248 97.500168 94.5 93.6 94.5 
C 89.699832 94.5 85.837588 95.268248 82.234302 96.760778 
C 78.631016 98.253308 75.356764 100.441093 72.598929 103.198929 
C 69.841093 105.956764 67.653308 109.231016 66.160778 112.834302 
C 64.668248 116.437588 63.9 120.299832 63.9 124.2 
C 63.9 128.100168 64.668248 131.962412 66.160778 135.565698 
C 67.653308 139.168984 69.841093 142.443236 72.598929 145.201071 
C 75.356764 147.958907 78.631016 150.146692 82.234302 151.639222 
C 85.837588 153.131752 89.699832 153.9 93.6 153.9 
C 97.500168 153.9 101.362412 153.131752 104.965698 151.639222 
C 108.568984 150.146692 111.843236 147.958907 114.601071 145.201071 
C 117.358907 142.443236 119.546692 139.168984 121.039222 135.565698 
C 122.531752 131.962412 123.3 128.100168 123.3 124.2 
" style="fill:none;stroke:#b0b0b0;stroke-linecap:square;stroke-width:0.8;"/>
     </g>
     <g id="text_25">
      <text style="font-family:DejaVu Sans;font-size:6px;font-stretch:normal;font-style:normal;font-weight:normal;text-anchor:start;" transform="rotate(-0, 121.039222, 111.58649)" x="121.039222" y="111.58649">0.15</text>
     </g>
    </g>
    <g id="ytick_9">
     <g id="line2d_28">
      <path clip-path="url(#p727e4ae41e)" d="M 153 124.2 
C 153 116.399663 151.463504 108.675175 148.478444 101.468604 
C 145.493385 94.262033 141.117814 87.713528 135.602143 82.197857 
C 130.086472 76.682186 123.537967 72.306615 116.331396 69.321556 
C 109.124825 66.336496 101.400337 64.8 93.6 64.8 
C 85.799663 64.8 78.075175 66.336496 70.868604 69.321556 
C 63.662033 72.306615 57.113528 76.682186 51.597857 82.197857 
C 46.082186 87.713528 41.706615 94.262033 38.721556 101.468604 
C 35.736496 108.675175 34.2 116.399663 34.2 124.2 
C 34.2 132.000337 35.736496 139.724825 38.721556 146.931396 
C 41.706615 154.137967 46.082186 160.686472 51.597857 166.202143 
C 57.113528 171.717814 63.662033 176.093385 70.868604 179.078444 
C 78.075175 182.063504 85.799663 183.6 93.6 183.6 
C 101.400337 183.6 109.124825 182.063504 116.331396 179.078444 
C 123.537967 176.093385 130.086472 171.717814 135.602143 166.202143 
C 141.117814 160.686472 145.493385 154.137967 148.478444 146.931396 
C 151.463504 139.724825 153 132.000337 153 124.2 
" style="fill:none;stroke:#b0b0b0;stroke-linecap:square;stroke-width:0.8;"/>
     </g>
     <g id="text_26">
      <text style="font-family:DejaVu Sans;font-size:6px;font-stretch:normal;font-style:normal;font-weight:normal;text-anchor:start;" transform="rotate(-0, 148.478444, 100.220792)" x="148.478444" y="100.220792">0.30</text>
     </g>
    </g>
   </g>
   <g id="line2d_29">
    <path clip-path="url(#p727e4ae41e)" d="M 93.6 124.2 
L 144.089263 124.472795 
" style="fill:none;stroke:#f15a29;stroke-linecap:square;stroke-width:2;"/>
   </g>
   <g id="line2d_30">
    <path clip-path="url(#p727e4ae41e)" d="M 93.6 124.2 
L 125.263221 123.169055 
" style="fill:none;stroke:#662d91;stroke-linecap:square;stroke-width:2;"/>
   </g>
   <g id="patch_151">
    <path d="M 153 124.2 
C 153 116.399663 151.463504 108.675175 148.478444 101.468604 
C 145.493385 94.262033 141.117814 87.713528 135.602143 82.197857 
C 130.086472 76.682186 123.537967 72.306615 116.331396 69.321556 
C 109.124825 66.336496 101.400337 64.8 93.6 64.8 
C 85.799663 64.8 78.075175 66.336496 70.868604 69.321556 
C 63.662033 72.306615 57.113528 76.682186 51.597857 82.197857 
C 46.082186 87.713528 41.706615 94.262033 38.721556 101.468604 
C 35.736496 108.675175 34.2 116.399663 34.2 124.2 
C 34.2 132.000337 35.736496 139.724825 38.721556 146.931396 
C 41.706615 154.137967 46.082186 160.686472 51.597857 166.202143 
C 57.113528 171.717814 63.662033 176.093385 70.868604 179.078444 
C 78.075175 182.063504 85.799663 183.6 93.6 183.6 
C 101.400337 183.6 109.124825 182.063504 116.331396 179.078444 
C 123.537967 176.093385 130.086472 171.717814 135.602143 166.202143 
C 141.117814 160.686472 145.493385 154.137967 148.478444 146.931396 
C 151.463504 139.724825 153 132.000337 153 124.2 
" style="fill:none;stroke:#000000;stroke-linecap:square;stroke-linejoin:miter;stroke-width:0.25;"/>
   </g>
   <g id="text_27">
    <text style="font-family:DejaVu Sans;font-size:8px;font-stretch:normal;font-style:normal;font-weight:normal;text-anchor:start;" transform="rotate(-0, 34.2, 41.896563)" x="34.2" y="41.896563">V1, n=200 cells</text>
   </g>
   <g id="legend_1">
    <g id="patch_152">
     <path d="M 38.4 206.01375 
L 72.939375 206.01375 
Q 74.139375 206.01375 74.139375 204.81375 
L 74.139375 187.8 
Q 74.139375 186.6 72.939375 186.6 
L 38.4 186.6 
Q 37.2 186.6 37.2 187.8 
L 37.2 204.81375 
Q 37.2 206.01375 38.4 206.01375 
z
" style="fill:#ffffff;opacity:0.8;stroke:#cccccc;stroke-linejoin:miter;"/>
    </g>
    <g id="patch_153">
     <path d="M 39.6 193.559062 
L 51.6 193.559062 
L 51.6 189.359062 
L 39.6 189.359062 
z
" style="fill:#f15a29;opacity:0.5;"/>
    </g>
    <g id="text_28">
     <text style="font-family:DejaVu Sans;font-size:6px;font-stretch:normal;font-style:normal;font-weight:normal;text-anchor:start;" transform="rotate(-0, 56.4, 193.559062)" x="56.4" y="193.559062">rfs</text>
    </g>
    <g id="patch_154">
     <path d="M 39.6 202.365938 
L 51.6 202.365938 
L 51.6 198.165938 
L 39.6 198.165938 
z
" style="fill:#662d91;opacity:0.5;"/>
    </g>
    <g id="text_29">
     <text style="font-family:DejaVu Sans;font-size:6px;font-stretch:normal;font-style:normal;font-weight:normal;text-anchor:start;" transform="rotate(-0, 56.4, 202.365938)" x="56.4" y="202.365938">rfs10</text>
    </g>
   </g>
  </g>
  <g id="text_30">
   <text style="font-family:DejaVu Sans;font-size:6px;font-stretch:normal;font-style:normal;font-weight:normal;text-anchor:start;" transform="rotate(-0, 0, 21.6)" x="0" y="21.6">Distributions of theta, polar</text>
  </g>
  <g id="text_31">
   <text style="font-family:DejaVu Sans;font-size:8px;font-stretch:normal;font-style:normal;font-weight:normal;text-anchor:start;" transform="rotate(-0, 0, 6.07875)" x="0" y="6.07875">traces001_fit-2dgaus_dff-no-cutoff</text>
  </g>
 </g>
 <defs>
  <clipPath id="pb5745b4dc9">
   <path d="M 541.8 124.2 
C 541.8 116.399663 540.263504 108.675175 537.278444 101.468604 
C 534.293385 94.262033 529.917814 87.713528 524.402143 82.197857 
C 518.886472 76.682186 512.337967 72.306615 505.131396 69.321556 
C 497.924825 66.336496 490.200337 64.8 482.4 64.8 
C 474.599663 64.8 466.875175 66.336496 459.668604 69.321556 
C 452.462033 72.306615 445.913528 76.682186 440.397857 82.197857 
C 434.882186 87.713528 430.506615 94.262033 427.521556 101.468604 
C 424.536496 108.675175 423 116.399663 423 124.2 
C 423 132.000337 424.536496 139.724825 427.521556 146.931396 
C 430.506615 154.137967 434.882186 160.686472 440.397857 166.202143 
C 445.913528 171.717814 452.462033 176.093385 459.668604 179.078444 
C 466.875175 182.063504 474.599663 183.6 482.4 183.6 
C 490.200337 183.6 497.924825 182.063504 505.131396 179.078444 
C 512.337967 176.093385 518.886472 171.717814 524.402143 166.202143 
C 529.917814 160.686472 534.293385 154.137967 537.278444 146.931396 
C 540.263504 139.724825 541.8 132.000337 541.8 124.2 
M 482.4 124.2 
C 482.4 124.2 482.4 124.2 482.4 124.2 
C 482.4 124.2 482.4 124.2 482.4 124.2 
C 482.4 124.2 482.4 124.2 482.4 124.2 
C 482.4 124.2 482.4 124.2 482.4 124.2 
C 482.4 124.2 482.4 124.2 482.4 124.2 
C 482.4 124.2 482.4 124.2 482.4 124.2 
C 482.4 124.2 482.4 124.2 482.4 124.2 
C 482.4 124.2 482.4 124.2 482.4 124.2 
C 482.4 124.2 482.4 124.2 482.4 124.2 
C 482.4 124.2 482.4 124.2 482.4 124.2 
C 482.4 124.2 482.4 124.2 482.4 124.2 
C 482.4 124.2 482.4 124.2 482.4 124.2 
C 482.4 124.2 482.4 124.2 482.4 124.2 
C 482.4 124.2 482.4 124.2 482.4 124.2 
C 482.4 124.2 482.4 124.2 482.4 124.2 
C 482.4 124.2 482.4 124.2 482.4 124.2 
M 541.8 124.2 
z
"/>
  </clipPath>
  <clipPath id="pd3d880f904">
   <path d="M 347.4 124.2 
C 347.4 116.399663 345.863504 108.675175 342.878444 101.468604 
C 339.893385 94.262033 335.517814 87.713528 330.002143 82.197857 
C 324.486472 76.682186 317.937967 72.306615 310.731396 69.321556 
C 303.524825 66.336496 295.800337 64.8 288 64.8 
C 280.199663 64.8 272.475175 66.336496 265.268604 69.321556 
C 258.062033 72.306615 251.513528 76.682186 245.997857 82.197857 
C 240.482186 87.713528 236.106615 94.262033 233.121556 101.468604 
C 230.136496 108.675175 228.6 116.399663 228.6 124.2 
C 228.6 132.000337 230.136496 139.724825 233.121556 146.931396 
C 236.106615 154.137967 240.482186 160.686472 245.997857 166.202143 
C 251.513528 171.717814 258.062033 176.093385 265.268604 179.078444 
C 272.475175 182.063504 280.199663 183.6 288 183.6 
C 295.800337 183.6 303.524825 182.063504 310.731396 179.078444 
C 317.937967 176.093385 324.486472 171.717814 330.002143 166.202143 
C 335.517814 160.686472 339.893385 154.137967 342.878444 146.931396 
C 345.863504 139.724825 347.4 132.000337 347.4 124.2 
M 288 124.2 
C 288 124.2 288 124.2 288 124.2 
C 288 124.2 288 124.2 288 124.2 
C 288 124.2 288 124.2 288 124.2 
C 288 124.2 288 124.2 288 124.2 
C 288 124.2 288 124.2 288 124.2 
C 288 124.2 288 124.2 288 124.2 
C 288 124.2 288 124.2 288 124.2 
C 288 124.2 288 124.2 288 124.2 
C 288 124.2 288 124.2 288 124.2 
C 288 124.2 288 124.2 288 124.2 
C 288 124.2 288 124.2 288 124.2 
C 288 124.2 288 124.2 288 124.2 
C 288 124.2 288 124.2 288 124.2 
C 288 124.2 288 124.2 288 124.2 
C 288 124.2 288 124.2 288 124.2 
C 288 124.2 288 124.2 288 124.2 
M 347.4 124.2 
z
"/>
  </clipPath>
  <clipPath id="p727e4ae41e">
   <path d="M 153 124.2 
C 153 116.399663 151.463504 108.675175 148.478444 101.468604 
C 145.493385 94.262033 141.117814 87.713528 135.602143 82.197857 
C 130.086472 76.682186 123.537967 72.306615 116.331396 69.321556 
C 109.124825 66.336496 101.400337 64.8 93.6 64.8 
C 85.799663 64.8 78.075175 66.336496 70.868604 69.321556 
C 63.662033 72.306615 57.113528 76.682186 51.597857 82.197857 
C 46.082186 87.713528 41.706615 94.262033 38.721556 101.468604 
C 35.736496 108.675175 34.2 116.399663 34.2 124.2 
C 34.2 132.000337 35.736496 139.724825 38.721556 146.931396 
C 41.706615 154.137967 46.082186 160.686472 51.597857 166.202143 
C 57.113528 171.717814 63.662033 176.093385 70.868604 179.078444 
C 78.075175 182.063504 85.799663 183.6 93.6 183.6 
C 101.400337 183.6 109.124825 182.063504 116.331396 179.078444 
C 123.537967 176.093385 130.086472 171.717814 135.602143 166.202143 
C 141.117814 160.686472 145.493385 154.137967 148.478444 146.931396 
C 151.463504 139.724825 153 132.000337 153 124.2 
M 93.6 124.2 
C 93.6 124.2 93.6 124.2 93.6 124.2 
C 93.6 124.2 93.6 124.2 93.6 124.2 
C 93.6 124.2 93.6 124.2 93.6 124.2 
C 93.6 124.2 93.6 124.2 93.6 124.2 
C 93.6 124.2 93.6 124.2 93.6 124.2 
C 93.6 124.2 93.6 124.2 93.6 124.2 
C 93.6 124.2 93.6 124.2 93.6 124.2 
C 93.6 124.2 93.6 124.2 93.6 124.2 
C 93.6 124.2 93.6 124.2 93.6 124.2 
C 93.6 124.2 93.6 124.2 93.6 124.2 
C 93.6 124.2 93.6 124.2 93.6 124.2 
C 93.6 124.2 93.6 124.2 93.6 124.2 
C 93.6 124.2 93.6 124.2 93.6 124.2 
C 93.6 124.2 93.6 124.2 93.6 124.2 
C 93.6 124.2 93.6 124.2 93.6 124.2 
C 93.6 124.2 93.6 124.2 93.6 124.2 
M 153 124.2 
z
"/>
  </clipPath>
 </defs>
</svg>
