<?xml version="1.0" encoding="utf-8" standalone="no"?>
<!DOCTYPE svg PUBLIC "-//W3C//DTD SVG 1.1//EN"
  "http://www.w3.org/Graphics/SVG/1.1/DTD/svg11.dtd">
<!-- Created with matplotlib (http://matplotlib.org/) -->
<svg height="216pt" version="1.1" viewBox="0 0 720 216" width="720pt" xmlns="http://www.w3.org/2000/svg" xmlns:xlink="http://www.w3.org/1999/xlink">
 <defs>
  <style type="text/css">
*{stroke-linecap:butt;stroke-linejoin:round;}
  </style>
 </defs>
 <g id="figure_1">
  <g id="patch_1">
   <path d="M 0 216 
L 720 216 
L 720 0 
L 0 0 
z
" style="fill:none;opacity:0;"/>
  </g>
  <g id="axes_1">
   <g id="patch_2">
    <path d="M 36 148.885714 
L 128.571429 148.885714 
L 128.571429 56.314286 
L 36 56.314286 
z
" style="fill:#ffffff;"/>
   </g>
   <g id="PathCollection_1">
    <defs>
     <path d="M 0 0.707107 
C 0.187527 0.707107 0.367398 0.632602 0.5 0.5 
C 0.632602 0.367398 0.707107 0.187527 0.707107 0 
C 0.707107 -0.187527 0.632602 -0.367398 0.5 -0.5 
C 0.367398 -0.632602 0.187527 -0.707107 0 -0.707107 
C -0.187527 -0.707107 -0.367398 -0.632602 -0.5 -0.5 
C -0.632602 -0.367398 -0.707107 -0.187527 -0.707107 0 
C -0.707107 0.187527 -0.632602 0.367398 -0.5 0.5 
C -0.367398 0.632602 -0.187527 0.707107 0 0.707107 
z
" id="me9315c9c30" style="stroke:#000000;stroke-opacity:0.8;"/>
    </defs>
    <g clip-path="url(#p0735eb9ec7)">
     <use style="fill-opacity:0.8;stroke:#000000;stroke-opacity:0.8;" x="88.92811" xlink:href="#me9315c9c30" y="115.987613"/>
     <use style="fill-opacity:0.8;stroke:#000000;stroke-opacity:0.8;" x="121.396478" xlink:href="#me9315c9c30" y="64.113294"/>
     <use style="fill-opacity:0.8;stroke:#000000;stroke-opacity:0.8;" x="109.276534" xlink:href="#me9315c9c30" y="56.314286"/>
     <use style="fill-opacity:0.8;stroke:#000000;stroke-opacity:0.8;" x="74.327348" xlink:href="#me9315c9c30" y="109.544353"/>
     <use style="fill-opacity:0.8;stroke:#000000;stroke-opacity:0.8;" x="89.581499" xlink:href="#me9315c9c30" y="77.467407"/>
     <use style="fill-opacity:0.8;stroke:#000000;stroke-opacity:0.8;" x="93.257209" xlink:href="#me9315c9c30" y="66.211809"/>
     <use style="fill-opacity:0.8;stroke:#000000;stroke-opacity:0.8;" x="83.431535" xlink:href="#me9315c9c30" y="95.791426"/>
     <use style="fill-opacity:0.8;stroke:#000000;stroke-opacity:0.8;" x="59.922043" xlink:href="#me9315c9c30" y="125.48596"/>
     <use style="fill-opacity:0.8;stroke:#000000;stroke-opacity:0.8;" x="79.285261" xlink:href="#me9315c9c30" y="94.832397"/>
     <use style="fill-opacity:0.8;stroke:#000000;stroke-opacity:0.8;" x="72.804183" xlink:href="#me9315c9c30" y="103.67011"/>
     <use style="fill-opacity:0.8;stroke:#000000;stroke-opacity:0.8;" x="70.55467" xlink:href="#me9315c9c30" y="73.096415"/>
     <use style="fill-opacity:0.8;stroke:#000000;stroke-opacity:0.8;" x="68.249367" xlink:href="#me9315c9c30" y="108.125441"/>
     <use style="fill-opacity:0.8;stroke:#000000;stroke-opacity:0.8;" x="80.800769" xlink:href="#me9315c9c30" y="90.812267"/>
     <use style="fill-opacity:0.8;stroke:#000000;stroke-opacity:0.8;" x="79.072216" xlink:href="#me9315c9c30" y="63.490084"/>
     <use style="fill-opacity:0.8;stroke:#000000;stroke-opacity:0.8;" x="61.347167" xlink:href="#me9315c9c30" y="94.120093"/>
     <use style="fill-opacity:0.8;stroke:#000000;stroke-opacity:0.8;" x="79.74586" xlink:href="#me9315c9c30" y="81.515404"/>
     <use style="fill-opacity:0.8;stroke:#000000;stroke-opacity:0.8;" x="91.205855" xlink:href="#me9315c9c30" y="78.197729"/>
     <use style="fill-opacity:0.8;stroke:#000000;stroke-opacity:0.8;" x="60.534253" xlink:href="#me9315c9c30" y="148.885714"/>
     <use style="fill-opacity:0.8;stroke:#000000;stroke-opacity:0.8;" x="83.191777" xlink:href="#me9315c9c30" y="79.927915"/>
     <use style="fill-opacity:0.8;stroke:#000000;stroke-opacity:0.8;" x="99.828726" xlink:href="#me9315c9c30" y="97.785424"/>
     <use style="fill-opacity:0.8;stroke:#000000;stroke-opacity:0.8;" x="89.975574" xlink:href="#me9315c9c30" y="63.401679"/>
     <use style="fill-opacity:0.8;stroke:#000000;stroke-opacity:0.8;" x="88.310164" xlink:href="#me9315c9c30" y="94.83362"/>
     <use style="fill-opacity:0.8;stroke:#000000;stroke-opacity:0.8;" x="76.397101" xlink:href="#me9315c9c30" y="101.391446"/>
     <use style="fill-opacity:0.8;stroke:#000000;stroke-opacity:0.8;" x="84.423653" xlink:href="#me9315c9c30" y="92.370029"/>
     <use style="fill-opacity:0.8;stroke:#000000;stroke-opacity:0.8;" x="81.70297" xlink:href="#me9315c9c30" y="97.228087"/>
     <use style="fill-opacity:0.8;stroke:#000000;stroke-opacity:0.8;" x="111.414131" xlink:href="#me9315c9c30" y="75.843005"/>
     <use style="fill-opacity:0.8;stroke:#000000;stroke-opacity:0.8;" x="71.823968" xlink:href="#me9315c9c30" y="88.134294"/>
     <use style="fill-opacity:0.8;stroke:#000000;stroke-opacity:0.8;" x="79.499612" xlink:href="#me9315c9c30" y="92.952583"/>
     <use style="fill-opacity:0.8;stroke:#000000;stroke-opacity:0.8;" x="78.115623" xlink:href="#me9315c9c30" y="107.547706"/>
     <use style="fill-opacity:0.8;stroke:#000000;stroke-opacity:0.8;" x="81.766932" xlink:href="#me9315c9c30" y="101.995091"/>
     <use style="fill-opacity:0.8;stroke:#000000;stroke-opacity:0.8;" x="71.588698" xlink:href="#me9315c9c30" y="93.916003"/>
     <use style="fill-opacity:0.8;stroke:#000000;stroke-opacity:0.8;" x="69.67639" xlink:href="#me9315c9c30" y="62.091458"/>
     <use style="fill-opacity:0.8;stroke:#000000;stroke-opacity:0.8;" x="73.99429" xlink:href="#me9315c9c30" y="89.982857"/>
     <use style="fill-opacity:0.8;stroke:#000000;stroke-opacity:0.8;" x="80.88805" xlink:href="#me9315c9c30" y="124.847065"/>
     <use style="fill-opacity:0.8;stroke:#000000;stroke-opacity:0.8;" x="88.538984" xlink:href="#me9315c9c30" y="104.989524"/>
    </g>
   </g>
   <g id="PolyCollection_1">
    <path clip-path="url(#p0735eb9ec7)" d="M 36 104.545052 
L 36 151.601942 
L 36.935065 150.460761 
L 37.87013 149.295886 
L 38.805195 148.129484 
L 39.74026 146.963082 
L 40.675325 145.79668 
L 41.61039 144.630278 
L 42.545455 143.463876 
L 43.480519 142.297474 
L 44.415584 141.130762 
L 45.350649 139.963319 
L 46.285714 138.795876 
L 47.220779 137.611416 
L 48.155844 136.401884 
L 49.090909 135.190206 
L 50.025974 133.941843 
L 50.961039 132.747926 
L 51.896104 131.558851 
L 52.831169 130.349818 
L 53.766234 129.140784 
L 54.701299 127.93175 
L 55.636364 126.895131 
L 56.571429 125.86978 
L 57.506494 124.72447 
L 58.441558 123.5782 
L 59.376623 122.498367 
L 60.311688 121.311405 
L 61.246753 120.136992 
L 62.181818 118.968088 
L 63.116883 117.844898 
L 64.051948 116.831948 
L 64.987013 115.687373 
L 65.922078 114.577894 
L 66.857143 113.691652 
L 67.792208 112.759655 
L 68.727273 111.486159 
L 69.662338 110.456675 
L 70.597403 109.567807 
L 71.532468 108.679716 
L 72.467532 107.484873 
L 73.402597 106.47751 
L 74.337662 105.51604 
L 75.272727 104.626163 
L 76.207792 103.7976 
L 77.142857 102.956941 
L 78.077922 102.098815 
L 79.012987 101.180925 
L 79.948052 100.32274 
L 80.883117 99.441244 
L 81.818182 98.475451 
L 82.753247 97.626135 
L 83.688312 96.895856 
L 84.623377 96.191787 
L 85.558442 95.361637 
L 86.493506 94.476421 
L 87.428571 93.621254 
L 88.363636 93.044686 
L 89.298701 92.4629 
L 90.233766 91.8993 
L 91.168831 91.329677 
L 92.103896 90.851389 
L 93.038961 90.493712 
L 93.974026 90.016612 
L 94.909091 89.519192 
L 95.844156 89.176509 
L 96.779221 88.656436 
L 97.714286 88.192811 
L 98.649351 87.987023 
L 99.584416 87.600125 
L 100.519481 87.185034 
L 101.454545 86.892679 
L 102.38961 86.515002 
L 103.324675 86.270688 
L 104.25974 85.913896 
L 105.194805 85.634027 
L 106.12987 85.351769 
L 107.064935 85.067177 
L 108 84.78257 
L 108.935065 84.445407 
L 109.87013 84.058797 
L 110.805195 83.670528 
L 111.74026 83.282258 
L 112.675325 83.041756 
L 113.61039 82.823915 
L 114.545455 82.479562 
L 115.480519 82.13521 
L 116.415584 81.789128 
L 117.350649 81.44226 
L 118.285714 81.095392 
L 119.220779 80.748524 
L 120.155844 80.4262 
L 121.090909 80.111486 
L 122.025974 79.796771 
L 122.961039 79.482057 
L 123.896104 79.167342 
L 124.831169 78.852627 
L 125.766234 78.537913 
L 126.701299 78.223198 
L 127.636364 77.908483 
L 128.571429 77.593769 
L 128.571429 34.071341 
L 128.571429 34.071341 
L 127.636364 35.232948 
L 126.701299 36.290689 
L 125.766234 37.34843 
L 124.831169 38.44611 
L 123.896104 39.691748 
L 122.961039 40.939703 
L 122.025974 42.188633 
L 121.090909 43.400723 
L 120.155844 44.568099 
L 119.220779 45.735475 
L 118.285714 46.902851 
L 117.350649 48.070226 
L 116.415584 49.116744 
L 115.480519 50.152992 
L 114.545455 51.303789 
L 113.61039 52.519834 
L 112.675325 53.769527 
L 111.74026 55.01922 
L 110.805195 56.241856 
L 109.87013 57.284554 
L 108.935065 58.43011 
L 108 59.619322 
L 107.064935 60.822333 
L 106.12987 61.990831 
L 105.194805 62.977488 
L 104.25974 64.125684 
L 103.324675 65.301993 
L 102.38961 66.244665 
L 101.454545 67.30138 
L 100.519481 68.369966 
L 99.584416 69.342864 
L 98.649351 70.335967 
L 97.714286 71.357557 
L 96.779221 72.485351 
L 95.844156 73.402051 
L 94.909091 74.421837 
L 93.974026 75.520038 
L 93.038961 76.519784 
L 92.103896 77.569644 
L 91.168831 78.474744 
L 90.233766 79.391616 
L 89.298701 80.312125 
L 88.363636 81.20924 
L 87.428571 82.106996 
L 86.493506 82.937238 
L 85.558442 83.803384 
L 84.623377 84.681529 
L 83.688312 85.27181 
L 82.753247 85.874923 
L 81.818182 86.432585 
L 80.883117 87.006189 
L 79.948052 87.443621 
L 79.012987 88.072843 
L 78.077922 88.74029 
L 77.142857 89.217171 
L 76.207792 89.649241 
L 75.272727 90.207352 
L 74.337662 90.676694 
L 73.402597 90.945916 
L 72.467532 91.361223 
L 71.532468 91.545183 
L 70.597403 92.01169 
L 69.662338 92.487994 
L 68.727273 92.860422 
L 67.792208 93.225482 
L 66.857143 93.526891 
L 65.922078 93.914037 
L 64.987013 94.088094 
L 64.051948 94.342892 
L 63.116883 94.516682 
L 62.181818 94.851286 
L 61.246753 95.223925 
L 60.311688 95.496659 
L 59.376623 95.929837 
L 58.441558 96.214285 
L 57.506494 96.468008 
L 56.571429 96.776144 
L 55.636364 97.12254 
L 54.701299 97.468936 
L 53.766234 97.815332 
L 52.831169 98.161728 
L 51.896104 98.508547 
L 50.961039 98.85538 
L 50.025974 99.202213 
L 49.090909 99.549045 
L 48.155844 99.895878 
L 47.220779 100.294805 
L 46.285714 100.602189 
L 45.350649 100.960631 
L 44.415584 101.319073 
L 43.480519 101.677515 
L 42.545455 102.035957 
L 41.61039 102.394399 
L 40.675325 102.752841 
L 39.74026 103.111283 
L 38.805195 103.469726 
L 37.87013 103.828168 
L 36.935065 104.18661 
L 36 104.545052 
z
" style="fill-opacity:0.15;"/>
   </g>
   <g id="matplotlib.axis_1">
    <g id="xtick_1">
     <g id="line2d_1">
      <defs>
       <path d="M 0 0 
L 0 3.5 
" id="m17e275adb9" style="stroke:#000000;stroke-width:0.25;"/>
      </defs>
      <g>
       <use style="stroke:#000000;stroke-width:0.25;" x="69.691556" xlink:href="#m17e275adb9" y="148.885714"/>
      </g>
     </g>
     <g id="text_1">
      <text style="font-family:DejaVu Sans;font-size:6px;font-style:normal;font-weight:normal;text-anchor:middle;" transform="rotate(-0, 69.691556, 160.444777)" x="69.691556" y="160.444777">10</text>
     </g>
    </g>
    <g id="xtick_2">
     <g id="line2d_2">
      <g>
       <use style="stroke:#000000;stroke-width:0.25;" x="105.992024" xlink:href="#m17e275adb9" y="148.885714"/>
      </g>
     </g>
     <g id="text_2">
      <text style="font-family:DejaVu Sans;font-size:6px;font-style:normal;font-weight:normal;text-anchor:middle;" transform="rotate(-0, 105.992024, 160.444777)" x="105.992024" y="160.444777">15</text>
     </g>
    </g>
    <g id="text_3">
     <text style="font-family:DejaVu Sans;font-size:8px;font-style:normal;font-weight:normal;text-anchor:middle;" transform="rotate(-0, 82.285714, 171.771339)" x="82.285714" y="171.771339">rf 5</text>
    </g>
   </g>
   <g id="matplotlib.axis_2">
    <g id="ytick_1">
     <g id="line2d_3">
      <defs>
       <path d="M 0 0 
L -3.5 0 
" id="m2802495367" style="stroke:#000000;stroke-width:0.25;"/>
      </defs>
      <g>
       <use style="stroke:#000000;stroke-width:0.25;" x="36" xlink:href="#m2802495367" y="144.234532"/>
      </g>
     </g>
     <g id="text_4">
      <text style="font-family:DejaVu Sans;font-size:6px;font-style:normal;font-weight:normal;text-anchor:end;" transform="rotate(-0, 29, 146.514063)" x="29" y="146.514063">6</text>
     </g>
    </g>
    <g id="ytick_2">
     <g id="line2d_4">
      <g>
       <use style="stroke:#000000;stroke-width:0.25;" x="36" xlink:href="#m2802495367" y="129.714345"/>
      </g>
     </g>
     <g id="text_5">
      <text style="font-family:DejaVu Sans;font-size:6px;font-style:normal;font-weight:normal;text-anchor:end;" transform="rotate(-0, 29, 131.993876)" x="29" y="131.993876">8</text>
     </g>
    </g>
    <g id="ytick_3">
     <g id="line2d_5">
      <g>
       <use style="stroke:#000000;stroke-width:0.25;" x="36" xlink:href="#m2802495367" y="115.194158"/>
      </g>
     </g>
     <g id="text_6">
      <text style="font-family:DejaVu Sans;font-size:6px;font-style:normal;font-weight:normal;text-anchor:end;" transform="rotate(-0, 29, 117.473689)" x="29" y="117.473689">10</text>
     </g>
    </g>
    <g id="ytick_4">
     <g id="line2d_6">
      <g>
       <use style="stroke:#000000;stroke-width:0.25;" x="36" xlink:href="#m2802495367" y="100.673971"/>
      </g>
     </g>
     <g id="text_7">
      <text style="font-family:DejaVu Sans;font-size:6px;font-style:normal;font-weight:normal;text-anchor:end;" transform="rotate(-0, 29, 102.953502)" x="29" y="102.953502">12</text>
     </g>
    </g>
    <g id="ytick_5">
     <g id="line2d_7">
      <g>
       <use style="stroke:#000000;stroke-width:0.25;" x="36" xlink:href="#m2802495367" y="86.153784"/>
      </g>
     </g>
     <g id="text_8">
      <text style="font-family:DejaVu Sans;font-size:6px;font-style:normal;font-weight:normal;text-anchor:end;" transform="rotate(-0, 29, 88.433315)" x="29" y="88.433315">14</text>
     </g>
    </g>
    <g id="ytick_6">
     <g id="line2d_8">
      <g>
       <use style="stroke:#000000;stroke-width:0.25;" x="36" xlink:href="#m2802495367" y="71.633597"/>
      </g>
     </g>
     <g id="text_9">
      <text style="font-family:DejaVu Sans;font-size:6px;font-style:normal;font-weight:normal;text-anchor:end;" transform="rotate(-0, 29, 73.913128)" x="29" y="73.913128">16</text>
     </g>
    </g>
    <g id="ytick_7">
     <g id="line2d_9">
      <g>
       <use style="stroke:#000000;stroke-width:0.25;" x="36" xlink:href="#m2802495367" y="57.11341"/>
      </g>
     </g>
     <g id="text_10">
      <text style="font-family:DejaVu Sans;font-size:6px;font-style:normal;font-weight:normal;text-anchor:end;" transform="rotate(-0, 29, 59.392941)" x="29" y="59.392941">18</text>
     </g>
    </g>
    <g id="text_11">
     <text style="font-family:DejaVu Sans;font-size:8px;font-style:normal;font-weight:normal;text-anchor:middle;" transform="rotate(-90, 15.70125, 102.6)" x="15.70125" y="102.6">rf 10</text>
    </g>
   </g>
   <g id="line2d_10">
    <path clip-path="url(#p0735eb9ec7)" d="M 36 127.398364 
L 36.935065 126.679173 
L 37.87013 125.959982 
L 38.805195 125.240791 
L 39.74026 124.521599 
L 40.675325 123.802408 
L 41.61039 123.083217 
L 42.545455 122.364026 
L 43.480519 121.644834 
L 44.415584 120.925643 
L 45.350649 120.206452 
L 46.285714 119.487261 
L 47.220779 118.768069 
L 48.155844 118.048878 
L 49.090909 117.329687 
L 50.025974 116.610496 
L 50.961039 115.891304 
L 51.896104 115.172113 
L 52.831169 114.452922 
L 53.766234 113.733731 
L 54.701299 113.014539 
L 55.636364 112.295348 
L 56.571429 111.576157 
L 57.506494 110.856966 
L 58.441558 110.137775 
L 59.376623 109.418583 
L 60.311688 108.699392 
L 61.246753 107.980201 
L 62.181818 107.26101 
L 63.116883 106.541818 
L 64.051948 105.822627 
L 64.987013 105.103436 
L 65.922078 104.384245 
L 66.857143 103.665053 
L 67.792208 102.945862 
L 68.727273 102.226671 
L 69.662338 101.50748 
L 70.597403 100.788288 
L 71.532468 100.069097 
L 72.467532 99.349906 
L 73.402597 98.630715 
L 74.337662 97.911523 
L 75.272727 97.192332 
L 76.207792 96.473141 
L 77.142857 95.75395 
L 78.077922 95.034758 
L 79.012987 94.315567 
L 79.948052 93.596376 
L 80.883117 92.877185 
L 81.818182 92.157993 
L 82.753247 91.438802 
L 83.688312 90.719611 
L 84.623377 90.00042 
L 85.558442 89.281229 
L 86.493506 88.562037 
L 87.428571 87.842846 
L 88.363636 87.123655 
L 89.298701 86.404464 
L 90.233766 85.685272 
L 91.168831 84.966081 
L 92.103896 84.24689 
L 93.038961 83.527699 
L 93.974026 82.808507 
L 94.909091 82.089316 
L 95.844156 81.370125 
L 96.779221 80.650934 
L 97.714286 79.931742 
L 98.649351 79.212551 
L 99.584416 78.49336 
L 100.519481 77.774169 
L 101.454545 77.054977 
L 102.38961 76.335786 
L 103.324675 75.616595 
L 104.25974 74.897404 
L 105.194805 74.178212 
L 106.12987 73.459021 
L 107.064935 72.73983 
L 108 72.020639 
L 108.935065 71.301448 
L 109.87013 70.582256 
L 110.805195 69.863065 
L 111.74026 69.143874 
L 112.675325 68.424683 
L 113.61039 67.705491 
L 114.545455 66.9863 
L 115.480519 66.267109 
L 116.415584 65.547918 
L 117.350649 64.828726 
L 118.285714 64.109535 
L 119.220779 63.390344 
L 120.155844 62.671153 
L 121.090909 61.951961 
L 122.025974 61.23277 
L 122.961039 60.513579 
L 123.896104 59.794388 
L 124.831169 59.075196 
L 125.766234 58.356005 
L 126.701299 57.636814 
L 127.636364 56.917623 
L 128.571429 56.198431 
" style="fill:none;stroke:#000000;stroke-linecap:square;"/>
   </g>
   <g id="line2d_11">
    <path clip-path="url(#p0735eb9ec7)" d="M 36 148.885714 
L 128.571429 56.314286 
" style="fill:none;stroke:#ff0000;stroke-dasharray:7.4,3.2;stroke-dashoffset:0;stroke-width:2;"/>
   </g>
   <g id="patch_3">
    <path d="M 36 148.885714 
L 36 56.314286 
" style="fill:none;stroke:#000000;stroke-linecap:square;stroke-linejoin:miter;stroke-width:0.25;"/>
   </g>
   <g id="patch_4">
    <path d="M 128.571429 148.885714 
L 128.571429 56.314286 
" style="fill:none;stroke:#000000;stroke-linecap:square;stroke-linejoin:miter;stroke-width:0.25;"/>
   </g>
   <g id="patch_5">
    <path d="M 36 148.885714 
L 128.571429 148.885714 
" style="fill:none;stroke:#000000;stroke-linecap:square;stroke-linejoin:miter;stroke-width:0.25;"/>
   </g>
   <g id="patch_6">
    <path d="M 36 56.314286 
L 128.571429 56.314286 
" style="fill:none;stroke:#000000;stroke-linecap:square;stroke-linejoin:miter;stroke-width:0.25;"/>
   </g>
   <g id="text_12">
    <text style="font-family:DejaVu Sans;font-size:12px;font-style:normal;font-weight:normal;text-anchor:start;" transform="rotate(-0, 36, 50.314286)" x="36" y="50.314286">major_axis</text>
   </g>
  </g>
  <g id="axes_2">
   <g id="patch_7">
    <path d="M 174.857143 148.885714 
L 267.428571 148.885714 
L 267.428571 56.314286 
L 174.857143 56.314286 
z
" style="fill:#ffffff;"/>
   </g>
   <g id="PathCollection_2">
    <g clip-path="url(#pfc9b86d2a1)">
     <use style="fill-opacity:0.8;stroke:#000000;stroke-opacity:0.8;" x="221.418759" xlink:href="#me9315c9c30" y="108.9515"/>
     <use style="fill-opacity:0.8;stroke:#000000;stroke-opacity:0.8;" x="247.711271" xlink:href="#me9315c9c30" y="89.456783"/>
     <use style="fill-opacity:0.8;stroke:#000000;stroke-opacity:0.8;" x="251.361922" xlink:href="#me9315c9c30" y="75.762722"/>
     <use style="fill-opacity:0.8;stroke:#000000;stroke-opacity:0.8;" x="219.267475" xlink:href="#me9315c9c30" y="97.838198"/>
     <use style="fill-opacity:0.8;stroke:#000000;stroke-opacity:0.8;" x="235.281649" xlink:href="#me9315c9c30" y="81.464871"/>
     <use style="fill-opacity:0.8;stroke:#000000;stroke-opacity:0.8;" x="216.438533" xlink:href="#me9315c9c30" y="97.633531"/>
     <use style="fill-opacity:0.8;stroke:#000000;stroke-opacity:0.8;" x="219.39787" xlink:href="#me9315c9c30" y="124.629851"/>
     <use style="fill-opacity:0.8;stroke:#000000;stroke-opacity:0.8;" x="204.279879" xlink:href="#me9315c9c30" y="112.57154"/>
     <use style="fill-opacity:0.8;stroke:#000000;stroke-opacity:0.8;" x="199.085077" xlink:href="#me9315c9c30" y="111.15415"/>
     <use style="fill-opacity:0.8;stroke:#000000;stroke-opacity:0.8;" x="212.146074" xlink:href="#me9315c9c30" y="112.84634"/>
     <use style="fill-opacity:0.8;stroke:#000000;stroke-opacity:0.8;" x="196.577444" xlink:href="#me9315c9c30" y="101.560449"/>
     <use style="fill-opacity:0.8;stroke:#000000;stroke-opacity:0.8;" x="197.076103" xlink:href="#me9315c9c30" y="118.64678"/>
     <use style="fill-opacity:0.8;stroke:#000000;stroke-opacity:0.8;" x="206.133347" xlink:href="#me9315c9c30" y="91.767925"/>
     <use style="fill-opacity:0.8;stroke:#000000;stroke-opacity:0.8;" x="197.638812" xlink:href="#me9315c9c30" y="97.086552"/>
     <use style="fill-opacity:0.8;stroke:#000000;stroke-opacity:0.8;" x="200.808575" xlink:href="#me9315c9c30" y="101.427847"/>
     <use style="fill-opacity:0.8;stroke:#000000;stroke-opacity:0.8;" x="201.302817" xlink:href="#me9315c9c30" y="99.775255"/>
     <use style="fill-opacity:0.8;stroke:#000000;stroke-opacity:0.8;" x="224.10783" xlink:href="#me9315c9c30" y="91.782454"/>
     <use style="fill-opacity:0.8;stroke:#000000;stroke-opacity:0.8;" x="178.38465" xlink:href="#me9315c9c30" y="148.885714"/>
     <use style="fill-opacity:0.8;stroke:#000000;stroke-opacity:0.8;" x="224.347716" xlink:href="#me9315c9c30" y="86.207796"/>
     <use style="fill-opacity:0.8;stroke:#000000;stroke-opacity:0.8;" x="231.059407" xlink:href="#me9315c9c30" y="84.831788"/>
     <use style="fill-opacity:0.8;stroke:#000000;stroke-opacity:0.8;" x="229.999673" xlink:href="#me9315c9c30" y="56.314286"/>
     <use style="fill-opacity:0.8;stroke:#000000;stroke-opacity:0.8;" x="226.650054" xlink:href="#me9315c9c30" y="99.363176"/>
     <use style="fill-opacity:0.8;stroke:#000000;stroke-opacity:0.8;" x="220.365508" xlink:href="#me9315c9c30" y="96.278661"/>
     <use style="fill-opacity:0.8;stroke:#000000;stroke-opacity:0.8;" x="213.8445" xlink:href="#me9315c9c30" y="95.667348"/>
     <use style="fill-opacity:0.8;stroke:#000000;stroke-opacity:0.8;" x="211.944247" xlink:href="#me9315c9c30" y="97.350222"/>
     <use style="fill-opacity:0.8;stroke:#000000;stroke-opacity:0.8;" x="237.627223" xlink:href="#me9315c9c30" y="102.881474"/>
     <use style="fill-opacity:0.8;stroke:#000000;stroke-opacity:0.8;" x="207.168978" xlink:href="#me9315c9c30" y="102.532724"/>
     <use style="fill-opacity:0.8;stroke:#000000;stroke-opacity:0.8;" x="205.339945" xlink:href="#me9315c9c30" y="106.763433"/>
     <use style="fill-opacity:0.8;stroke:#000000;stroke-opacity:0.8;" x="232.283258" xlink:href="#me9315c9c30" y="98.644755"/>
     <use style="fill-opacity:0.8;stroke:#000000;stroke-opacity:0.8;" x="212.516084" xlink:href="#me9315c9c30" y="114.297187"/>
     <use style="fill-opacity:0.8;stroke:#000000;stroke-opacity:0.8;" x="211.682712" xlink:href="#me9315c9c30" y="96.508835"/>
     <use style="fill-opacity:0.8;stroke:#000000;stroke-opacity:0.8;" x="204.987652" xlink:href="#me9315c9c30" y="116.196798"/>
     <use style="fill-opacity:0.8;stroke:#000000;stroke-opacity:0.8;" x="219.826301" xlink:href="#me9315c9c30" y="113.905435"/>
     <use style="fill-opacity:0.8;stroke:#000000;stroke-opacity:0.8;" x="204.384897" xlink:href="#me9315c9c30" y="114.554178"/>
     <use style="fill-opacity:0.8;stroke:#000000;stroke-opacity:0.8;" x="229.433055" xlink:href="#me9315c9c30" y="113.858803"/>
    </g>
   </g>
   <g id="PolyCollection_2">
    <path clip-path="url(#pfc9b86d2a1)" d="M 174.857143 113.407639 
L 174.857143 139.093202 
L 175.792208 138.36888 
L 176.727273 137.644558 
L 177.662338 136.840372 
L 178.597403 136.034527 
L 179.532468 135.222811 
L 180.467532 134.408876 
L 181.402597 133.618702 
L 182.337662 132.814693 
L 183.272727 132.009912 
L 184.207792 131.203735 
L 185.142857 130.397558 
L 186.077922 129.577573 
L 187.012987 128.784029 
L 187.948052 127.882283 
L 188.883117 126.917549 
L 189.818182 126.132553 
L 190.753247 125.291384 
L 191.688312 124.401962 
L 192.623377 123.631525 
L 193.558442 122.913909 
L 194.493506 122.174518 
L 195.428571 121.336784 
L 196.363636 120.461215 
L 197.298701 119.666505 
L 198.233766 118.869961 
L 199.168831 118.080328 
L 200.103896 117.257527 
L 201.038961 116.430874 
L 201.974026 115.734527 
L 202.909091 114.954596 
L 203.844156 114.282445 
L 204.779221 113.525564 
L 205.714286 112.779011 
L 206.649351 112.065134 
L 207.584416 111.34423 
L 208.519481 110.588967 
L 209.454545 109.881254 
L 210.38961 109.174398 
L 211.324675 108.502445 
L 212.25974 107.914232 
L 213.194805 107.264847 
L 214.12987 106.62702 
L 215.064935 106.187069 
L 216 105.608704 
L 216.935065 105.056102 
L 217.87013 104.559197 
L 218.805195 104.097206 
L 219.74026 103.582336 
L 220.675325 103.047153 
L 221.61039 102.569619 
L 222.545455 102.114789 
L 223.480519 101.56446 
L 224.415584 101.207437 
L 225.350649 100.642113 
L 226.285714 100.224663 
L 227.220779 99.930087 
L 228.155844 99.532752 
L 229.090909 99.234145 
L 230.025974 98.830326 
L 230.961039 98.491401 
L 231.896104 98.147946 
L 232.831169 97.795335 
L 233.766234 97.532024 
L 234.701299 97.268387 
L 235.636364 96.95286 
L 236.571429 96.664308 
L 237.506494 96.337325 
L 238.441558 95.960939 
L 239.376623 95.687786 
L 240.311688 95.416078 
L 241.246753 95.144369 
L 242.181818 94.856541 
L 243.116883 94.554573 
L 244.051948 94.252606 
L 244.987013 93.950638 
L 245.922078 93.654801 
L 246.857143 93.375861 
L 247.792208 93.096921 
L 248.727273 92.829873 
L 249.662338 92.615872 
L 250.597403 92.34282 
L 251.532468 92.055611 
L 252.467532 91.767832 
L 253.402597 91.480053 
L 254.337662 91.192274 
L 255.272727 90.904495 
L 256.207792 90.616716 
L 257.142857 90.328938 
L 258.077922 90.041159 
L 259.012987 89.755453 
L 259.948052 89.476923 
L 260.883117 89.202669 
L 261.818182 88.947912 
L 262.753247 88.693156 
L 263.688312 88.438399 
L 264.623377 88.183642 
L 265.558442 87.928886 
L 266.493506 87.674129 
L 267.428571 87.419372 
L 267.428571 53.638857 
L 267.428571 53.638857 
L 266.493506 54.449914 
L 265.558442 55.248373 
L 264.623377 56.046832 
L 263.688312 56.845291 
L 262.753247 57.64375 
L 261.818182 58.442209 
L 260.883117 59.260776 
L 259.948052 60.080775 
L 259.012987 60.900774 
L 258.077922 61.720773 
L 257.142857 62.541547 
L 256.207792 63.362776 
L 255.272727 64.184005 
L 254.337662 65.005235 
L 253.402597 65.850493 
L 252.467532 66.69693 
L 251.532468 67.517431 
L 250.597403 68.354106 
L 249.662338 69.17162 
L 248.727273 69.989133 
L 247.792208 70.806647 
L 246.857143 71.625128 
L 245.922078 72.520188 
L 244.987013 73.431474 
L 244.051948 74.308313 
L 243.116883 75.112753 
L 242.181818 75.920065 
L 241.246753 76.815433 
L 240.311688 77.567235 
L 239.376623 78.331739 
L 238.441558 79.133982 
L 237.506494 79.854747 
L 236.571429 80.617232 
L 235.636364 81.47667 
L 234.701299 82.319561 
L 233.766234 83.15204 
L 232.831169 83.967073 
L 231.896104 84.837422 
L 230.961039 85.707772 
L 230.025974 86.47735 
L 229.090909 87.230922 
L 228.155844 87.990867 
L 227.220779 88.791372 
L 226.285714 89.598612 
L 225.350649 90.425765 
L 224.415584 91.243462 
L 223.480519 91.949916 
L 222.545455 92.519698 
L 221.61039 93.264844 
L 220.675325 93.87144 
L 219.74026 94.532008 
L 218.805195 95.234567 
L 217.87013 95.830775 
L 216.935065 96.55488 
L 216 97.214641 
L 215.064935 97.830264 
L 214.12987 98.402306 
L 213.194805 98.877498 
L 212.25974 99.508927 
L 211.324675 100.000879 
L 210.38961 100.656598 
L 209.454545 101.184775 
L 208.519481 101.58401 
L 207.584416 102.02679 
L 206.649351 102.390902 
L 205.714286 102.782503 
L 204.779221 103.236322 
L 203.844156 103.627161 
L 202.909091 104.114938 
L 201.974026 104.40914 
L 201.038961 104.75602 
L 200.103896 105.143579 
L 199.168831 105.576543 
L 198.233766 105.933823 
L 197.298701 106.2606 
L 196.363636 106.572983 
L 195.428571 106.844765 
L 194.493506 107.24235 
L 193.558442 107.549047 
L 192.623377 107.934833 
L 191.688312 108.205882 
L 190.753247 108.53015 
L 189.818182 108.829556 
L 188.883117 109.15795 
L 187.948052 109.423723 
L 187.012987 109.721686 
L 186.077922 110.031449 
L 185.142857 110.316771 
L 184.207792 110.56708 
L 183.272727 110.810152 
L 182.337662 111.053224 
L 181.402597 111.321656 
L 180.467532 111.637296 
L 179.532468 111.941736 
L 178.597403 112.225284 
L 177.662338 112.543776 
L 176.727273 112.783195 
L 175.792208 113.047113 
L 174.857143 113.407639 
z
" style="fill-opacity:0.15;"/>
   </g>
   <g id="matplotlib.axis_3">
    <g id="xtick_3">
     <g id="line2d_12">
      <g>
       <use style="stroke:#000000;stroke-width:0.25;" x="191.464864" xlink:href="#m17e275adb9" y="148.885714"/>
      </g>
     </g>
     <g id="text_13">
      <text style="font-family:DejaVu Sans;font-size:6px;font-style:normal;font-weight:normal;text-anchor:middle;" transform="rotate(-0, 191.464864, 160.444777)" x="191.464864" y="160.444777">5</text>
     </g>
    </g>
    <g id="xtick_4">
     <g id="line2d_13">
      <g>
       <use style="stroke:#000000;stroke-width:0.25;" x="226.952903" xlink:href="#m17e275adb9" y="148.885714"/>
      </g>
     </g>
     <g id="text_14">
      <text style="font-family:DejaVu Sans;font-size:6px;font-style:normal;font-weight:normal;text-anchor:middle;" transform="rotate(-0, 226.952903, 160.444777)" x="226.952903" y="160.444777">10</text>
     </g>
    </g>
    <g id="xtick_5">
     <g id="line2d_14">
      <g>
       <use style="stroke:#000000;stroke-width:0.25;" x="262.440942" xlink:href="#m17e275adb9" y="148.885714"/>
      </g>
     </g>
     <g id="text_15">
      <text style="font-family:DejaVu Sans;font-size:6px;font-style:normal;font-weight:normal;text-anchor:middle;" transform="rotate(-0, 262.440942, 160.444777)" x="262.440942" y="160.444777">15</text>
     </g>
    </g>
    <g id="text_16">
     <text style="font-family:DejaVu Sans;font-size:8px;font-style:normal;font-weight:normal;text-anchor:middle;" transform="rotate(-0, 221.142857, 171.771339)" x="221.142857" y="171.771339">rf 5</text>
    </g>
   </g>
   <g id="matplotlib.axis_4">
    <g id="ytick_8">
     <g id="line2d_15">
      <g>
       <use style="stroke:#000000;stroke-width:0.25;" x="174.857143" xlink:href="#m2802495367" y="139.375601"/>
      </g>
     </g>
     <g id="text_17">
      <text style="font-family:DejaVu Sans;font-size:6px;font-style:normal;font-weight:normal;text-anchor:end;" transform="rotate(-0, 167.857143, 141.655132)" x="167.857143" y="141.655132">4</text>
     </g>
    </g>
    <g id="ytick_9">
     <g id="line2d_16">
      <g>
       <use style="stroke:#000000;stroke-width:0.25;" x="174.857143" xlink:href="#m2802495367" y="125.180386"/>
      </g>
     </g>
     <g id="text_18">
      <text style="font-family:DejaVu Sans;font-size:6px;font-style:normal;font-weight:normal;text-anchor:end;" transform="rotate(-0, 167.857143, 127.459917)" x="167.857143" y="127.459917">6</text>
     </g>
    </g>
    <g id="ytick_10">
     <g id="line2d_17">
      <g>
       <use style="stroke:#000000;stroke-width:0.25;" x="174.857143" xlink:href="#m2802495367" y="110.98517"/>
      </g>
     </g>
     <g id="text_19">
      <text style="font-family:DejaVu Sans;font-size:6px;font-style:normal;font-weight:normal;text-anchor:end;" transform="rotate(-0, 167.857143, 113.264701)" x="167.857143" y="113.264701">8</text>
     </g>
    </g>
    <g id="ytick_11">
     <g id="line2d_18">
      <g>
       <use style="stroke:#000000;stroke-width:0.25;" x="174.857143" xlink:href="#m2802495367" y="96.789955"/>
      </g>
     </g>
     <g id="text_20">
      <text style="font-family:DejaVu Sans;font-size:6px;font-style:normal;font-weight:normal;text-anchor:end;" transform="rotate(-0, 167.857143, 99.069486)" x="167.857143" y="99.069486">10</text>
     </g>
    </g>
    <g id="ytick_12">
     <g id="line2d_19">
      <g>
       <use style="stroke:#000000;stroke-width:0.25;" x="174.857143" xlink:href="#m2802495367" y="82.594739"/>
      </g>
     </g>
     <g id="text_21">
      <text style="font-family:DejaVu Sans;font-size:6px;font-style:normal;font-weight:normal;text-anchor:end;" transform="rotate(-0, 167.857143, 84.87427)" x="167.857143" y="84.87427">12</text>
     </g>
    </g>
    <g id="ytick_13">
     <g id="line2d_20">
      <g>
       <use style="stroke:#000000;stroke-width:0.25;" x="174.857143" xlink:href="#m2802495367" y="68.399523"/>
      </g>
     </g>
     <g id="text_22">
      <text style="font-family:DejaVu Sans;font-size:6px;font-style:normal;font-weight:normal;text-anchor:end;" transform="rotate(-0, 167.857143, 70.679055)" x="167.857143" y="70.679055">14</text>
     </g>
    </g>
    <g id="text_23">
     <text style="font-family:DejaVu Sans;font-size:8px;font-style:normal;font-weight:normal;text-anchor:middle;" transform="rotate(-90, 154.558393, 102.6)" x="154.558393" y="102.6">rf 10</text>
    </g>
   </g>
   <g id="line2d_21">
    <path clip-path="url(#pfc9b86d2a1)" d="M 174.857143 127.056771 
L 175.792208 126.477146 
L 176.727273 125.897522 
L 177.662338 125.317898 
L 178.597403 124.738274 
L 179.532468 124.158649 
L 180.467532 123.579025 
L 181.402597 122.999401 
L 182.337662 122.419776 
L 183.272727 121.840152 
L 184.207792 121.260528 
L 185.142857 120.680903 
L 186.077922 120.101279 
L 187.012987 119.521655 
L 187.948052 118.94203 
L 188.883117 118.362406 
L 189.818182 117.782782 
L 190.753247 117.203157 
L 191.688312 116.623533 
L 192.623377 116.043909 
L 193.558442 115.464284 
L 194.493506 114.88466 
L 195.428571 114.305036 
L 196.363636 113.725412 
L 197.298701 113.145787 
L 198.233766 112.566163 
L 199.168831 111.986539 
L 200.103896 111.406914 
L 201.038961 110.82729 
L 201.974026 110.247666 
L 202.909091 109.668041 
L 203.844156 109.088417 
L 204.779221 108.508793 
L 205.714286 107.929168 
L 206.649351 107.349544 
L 207.584416 106.76992 
L 208.519481 106.190295 
L 209.454545 105.610671 
L 210.38961 105.031047 
L 211.324675 104.451423 
L 212.25974 103.871798 
L 213.194805 103.292174 
L 214.12987 102.71255 
L 215.064935 102.132925 
L 216 101.553301 
L 216.935065 100.973677 
L 217.87013 100.394052 
L 218.805195 99.814428 
L 219.74026 99.234804 
L 220.675325 98.655179 
L 221.61039 98.075555 
L 222.545455 97.495931 
L 223.480519 96.916306 
L 224.415584 96.336682 
L 225.350649 95.757058 
L 226.285714 95.177433 
L 227.220779 94.597809 
L 228.155844 94.018185 
L 229.090909 93.438561 
L 230.025974 92.858936 
L 230.961039 92.279312 
L 231.896104 91.699688 
L 232.831169 91.120063 
L 233.766234 90.540439 
L 234.701299 89.960815 
L 235.636364 89.38119 
L 236.571429 88.801566 
L 237.506494 88.221942 
L 238.441558 87.642317 
L 239.376623 87.062693 
L 240.311688 86.483069 
L 241.246753 85.903444 
L 242.181818 85.32382 
L 243.116883 84.744196 
L 244.051948 84.164571 
L 244.987013 83.584947 
L 245.922078 83.005323 
L 246.857143 82.425699 
L 247.792208 81.846074 
L 248.727273 81.26645 
L 249.662338 80.686826 
L 250.597403 80.107201 
L 251.532468 79.527577 
L 252.467532 78.947953 
L 253.402597 78.368328 
L 254.337662 77.788704 
L 255.272727 77.20908 
L 256.207792 76.629455 
L 257.142857 76.049831 
L 258.077922 75.470207 
L 259.012987 74.890582 
L 259.948052 74.310958 
L 260.883117 73.731334 
L 261.818182 73.15171 
L 262.753247 72.572085 
L 263.688312 71.992461 
L 264.623377 71.412837 
L 265.558442 70.833212 
L 266.493506 70.253588 
L 267.428571 69.673964 
" style="fill:none;stroke:#000000;stroke-linecap:square;"/>
   </g>
   <g id="line2d_22">
    <path clip-path="url(#pfc9b86d2a1)" d="M 174.857143 148.885714 
L 267.428571 56.314286 
" style="fill:none;stroke:#ff0000;stroke-dasharray:7.4,3.2;stroke-dashoffset:0;stroke-width:2;"/>
   </g>
   <g id="patch_8">
    <path d="M 174.857143 148.885714 
L 174.857143 56.314286 
" style="fill:none;stroke:#000000;stroke-linecap:square;stroke-linejoin:miter;stroke-width:0.25;"/>
   </g>
   <g id="patch_9">
    <path d="M 267.428571 148.885714 
L 267.428571 56.314286 
" style="fill:none;stroke:#000000;stroke-linecap:square;stroke-linejoin:miter;stroke-width:0.25;"/>
   </g>
   <g id="patch_10">
    <path d="M 174.857143 148.885714 
L 267.428571 148.885714 
" style="fill:none;stroke:#000000;stroke-linecap:square;stroke-linejoin:miter;stroke-width:0.25;"/>
   </g>
   <g id="patch_11">
    <path d="M 174.857143 56.314286 
L 267.428571 56.314286 
" style="fill:none;stroke:#000000;stroke-linecap:square;stroke-linejoin:miter;stroke-width:0.25;"/>
   </g>
   <g id="text_24">
    <text style="font-family:DejaVu Sans;font-size:12px;font-style:normal;font-weight:normal;text-anchor:start;" transform="rotate(-0, 174.857143, 50.314286)" x="174.857143" y="50.314286">minor_axis</text>
   </g>
  </g>
  <g id="axes_3">
   <g id="patch_12">
    <path d="M 313.714286 148.885714 
L 406.285714 148.885714 
L 406.285714 56.314286 
L 313.714286 56.314286 
z
" style="fill:#ffffff;"/>
   </g>
   <g id="PathCollection_3">
    <g clip-path="url(#p36dd796e56)">
     <use style="fill-opacity:0.8;stroke:#000000;stroke-opacity:0.8;" x="350.909994" xlink:href="#me9315c9c30" y="124.287636"/>
     <use style="fill-opacity:0.8;stroke:#000000;stroke-opacity:0.8;" x="388.935612" xlink:href="#me9315c9c30" y="85.775518"/>
     <use style="fill-opacity:0.8;stroke:#000000;stroke-opacity:0.8;" x="383.984096" xlink:href="#me9315c9c30" y="68.774384"/>
     <use style="fill-opacity:0.8;stroke:#000000;stroke-opacity:0.8;" x="343.001412" xlink:href="#me9315c9c30" y="115.484159"/>
     <use style="fill-opacity:0.8;stroke:#000000;stroke-opacity:0.8;" x="360.251928" xlink:href="#me9315c9c30" y="86.931997"/>
     <use style="fill-opacity:0.8;stroke:#000000;stroke-opacity:0.8;" x="349.530673" xlink:href="#me9315c9c30" y="93.943772"/>
     <use style="fill-opacity:0.8;stroke:#000000;stroke-opacity:0.8;" x="347.143523" xlink:href="#me9315c9c30" y="126.083023"/>
     <use style="fill-opacity:0.8;stroke:#000000;stroke-opacity:0.8;" x="329.933399" xlink:href="#me9315c9c30" y="129.816876"/>
     <use style="fill-opacity:0.8;stroke:#000000;stroke-opacity:0.8;" x="333.517437" xlink:href="#me9315c9c30" y="116.95856"/>
     <use style="fill-opacity:0.8;stroke:#000000;stroke-opacity:0.8;" x="338.520014" xlink:href="#me9315c9c30" y="121.489922"/>
     <use style="fill-opacity:0.8;stroke:#000000;stroke-opacity:0.8;" x="329.564899" xlink:href="#me9315c9c30" y="100.523893"/>
     <use style="fill-opacity:0.8;stroke:#000000;stroke-opacity:0.8;" x="329.155158" xlink:href="#me9315c9c30" y="126.473446"/>
     <use style="fill-opacity:0.8;stroke:#000000;stroke-opacity:0.8;" x="338.138115" xlink:href="#me9315c9c30" y="102.097499"/>
     <use style="fill-opacity:0.8;stroke:#000000;stroke-opacity:0.8;" x="332.616692" xlink:href="#me9315c9c30" y="92.118511"/>
     <use style="fill-opacity:0.8;stroke:#000000;stroke-opacity:0.8;" x="328.846054" xlink:href="#me9315c9c30" y="110.250189"/>
     <use style="fill-opacity:0.8;stroke:#000000;stroke-opacity:0.8;" x="334.949898" xlink:href="#me9315c9c30" y="103.116143"/>
     <use style="fill-opacity:0.8;stroke:#000000;stroke-opacity:0.8;" x="353.745414" xlink:href="#me9315c9c30" y="95.349275"/>
     <use style="fill-opacity:0.8;stroke:#000000;stroke-opacity:0.8;" x="318.55826" xlink:href="#me9315c9c30" y="148.885714"/>
     <use style="fill-opacity:0.8;stroke:#000000;stroke-opacity:0.8;" x="350.041266" xlink:href="#me9315c9c30" y="92.036416"/>
     <use style="fill-opacity:0.8;stroke:#000000;stroke-opacity:0.8;" x="362.923253" xlink:href="#me9315c9c30" y="101.432097"/>
     <use style="fill-opacity:0.8;stroke:#000000;stroke-opacity:0.8;" x="357.013052" xlink:href="#me9315c9c30" y="56.314286"/>
     <use style="fill-opacity:0.8;stroke:#000000;stroke-opacity:0.8;" x="353.989471" xlink:href="#me9315c9c30" y="109.230641"/>
     <use style="fill-opacity:0.8;stroke:#000000;stroke-opacity:0.8;" x="344.539026" xlink:href="#me9315c9c30" y="110.514311"/>
     <use style="fill-opacity:0.8;stroke:#000000;stroke-opacity:0.8;" x="344.167589" xlink:href="#me9315c9c30" y="105.555834"/>
     <use style="fill-opacity:0.8;stroke:#000000;stroke-opacity:0.8;" x="341.923857" xlink:href="#me9315c9c30" y="109.100068"/>
     <use style="fill-opacity:0.8;stroke:#000000;stroke-opacity:0.8;" x="374.350583" xlink:href="#me9315c9c30" y="102.848755"/>
     <use style="fill-opacity:0.8;stroke:#000000;stroke-opacity:0.8;" x="335.509238" xlink:href="#me9315c9c30" y="108.226798"/>
     <use style="fill-opacity:0.8;stroke:#000000;stroke-opacity:0.8;" x="337.216966" xlink:href="#me9315c9c30" y="113.272083"/>
     <use style="fill-opacity:0.8;stroke:#000000;stroke-opacity:0.8;" x="352.127707" xlink:href="#me9315c9c30" y="114.956076"/>
     <use style="fill-opacity:0.8;stroke:#000000;stroke-opacity:0.8;" x="342.290504" xlink:href="#me9315c9c30" y="121.71901"/>
     <use style="fill-opacity:0.8;stroke:#000000;stroke-opacity:0.8;" x="337.795246" xlink:href="#me9315c9c30" y="106.898732"/>
     <use style="fill-opacity:0.8;stroke:#000000;stroke-opacity:0.8;" x="333.617708" xlink:href="#me9315c9c30" y="108.359094"/>
     <use style="fill-opacity:0.8;stroke:#000000;stroke-opacity:0.8;" x="343.155798" xlink:href="#me9315c9c30" y="116.920258"/>
     <use style="fill-opacity:0.8;stroke:#000000;stroke-opacity:0.8;" x="337.135931" xlink:href="#me9315c9c30" y="130.448201"/>
     <use style="fill-opacity:0.8;stroke:#000000;stroke-opacity:0.8;" x="355.897923" xlink:href="#me9315c9c30" y="122.591955"/>
    </g>
   </g>
   <g id="PolyCollection_3">
    <path clip-path="url(#p36dd796e56)" d="M 313.714286 117.939061 
L 313.714286 140.052791 
L 314.649351 139.151821 
L 315.584416 138.350082 
L 316.519481 137.544382 
L 317.454545 136.52103 
L 318.38961 135.476505 
L 319.324675 134.668392 
L 320.25974 133.83302 
L 321.194805 132.864493 
L 322.12987 132.118988 
L 323.064935 131.127979 
L 324 130.296943 
L 324.935065 129.408612 
L 325.87013 128.438539 
L 326.805195 127.471835 
L 327.74026 126.675738 
L 328.675325 125.773625 
L 329.61039 124.913515 
L 330.545455 124.131923 
L 331.480519 123.194736 
L 332.415584 122.492206 
L 333.350649 121.671685 
L 334.285714 120.811827 
L 335.220779 120.010423 
L 336.155844 119.258466 
L 337.090909 118.531133 
L 338.025974 117.782679 
L 338.961039 117.056752 
L 339.896104 116.415797 
L 340.831169 115.721273 
L 341.766234 115.023778 
L 342.701299 114.356419 
L 343.636364 113.804599 
L 344.571429 113.218063 
L 345.506494 112.573625 
L 346.441558 112.118134 
L 347.376623 111.600963 
L 348.311688 111.057844 
L 349.246753 110.50416 
L 350.181818 109.99254 
L 351.116883 109.41385 
L 352.051948 108.944027 
L 352.987013 108.526538 
L 353.922078 108.015115 
L 354.857143 107.758411 
L 355.792208 107.360686 
L 356.727273 107.048897 
L 357.662338 106.651823 
L 358.597403 106.250279 
L 359.532468 105.830044 
L 360.467532 105.476423 
L 361.402597 105.073171 
L 362.337662 104.761885 
L 363.272727 104.372243 
L 364.207792 103.916922 
L 365.142857 103.572622 
L 366.077922 103.124207 
L 367.012987 102.722523 
L 367.948052 102.294563 
L 368.883117 101.963418 
L 369.818182 101.535957 
L 370.753247 101.233468 
L 371.688312 100.928437 
L 372.623377 100.625384 
L 373.558442 100.323304 
L 374.493506 100.021224 
L 375.428571 99.719144 
L 376.363636 99.416285 
L 377.298701 99.112796 
L 378.233766 98.783301 
L 379.168831 98.442159 
L 380.103896 98.101017 
L 381.038961 97.759874 
L 381.974026 97.418732 
L 382.909091 97.07759 
L 383.844156 96.736448 
L 384.779221 96.397051 
L 385.714286 96.165151 
L 386.649351 95.949713 
L 387.584416 95.715137 
L 388.519481 95.394998 
L 389.454545 95.073111 
L 390.38961 94.750831 
L 391.324675 94.42855 
L 392.25974 94.10627 
L 393.194805 93.783989 
L 394.12987 93.461709 
L 395.064935 93.132848 
L 396 92.79531 
L 396.935065 92.493948 
L 397.87013 92.174471 
L 398.805195 91.853146 
L 399.74026 91.531791 
L 400.675325 91.208698 
L 401.61039 90.853539 
L 402.545455 90.564648 
L 403.480519 90.243927 
L 404.415584 89.923206 
L 405.350649 89.602485 
L 406.285714 89.281763 
L 406.285714 44.567867 
L 406.285714 44.567867 
L 405.350649 45.521047 
L 404.415584 46.456428 
L 403.480519 47.376047 
L 402.545455 48.295667 
L 401.61039 49.215286 
L 400.675325 50.134906 
L 399.74026 51.054525 
L 398.805195 51.974145 
L 397.87013 52.893764 
L 396.935065 53.826268 
L 396 54.778713 
L 395.064935 55.731158 
L 394.12987 56.683603 
L 393.194805 57.636047 
L 392.25974 58.588492 
L 391.324675 59.540937 
L 390.38961 60.493981 
L 389.454545 61.448696 
L 388.519481 62.364494 
L 387.584416 63.2952 
L 386.649351 64.300968 
L 385.714286 65.25813 
L 384.779221 66.190855 
L 383.844156 67.079587 
L 382.909091 67.969313 
L 381.974026 68.860934 
L 381.038961 69.752563 
L 380.103896 70.644192 
L 379.168831 71.57268 
L 378.233766 72.464225 
L 377.298701 73.329992 
L 376.363636 74.201641 
L 375.428571 75.090027 
L 374.493506 75.978413 
L 373.558442 76.866799 
L 372.623377 77.756295 
L 371.688312 78.646229 
L 370.753247 79.53814 
L 369.818182 80.456152 
L 368.883117 81.375349 
L 367.948052 82.298304 
L 367.012987 83.249712 
L 366.077922 84.201378 
L 365.142857 85.153905 
L 364.207792 86.105335 
L 363.272727 87.056766 
L 362.337662 88.008196 
L 361.402597 88.959626 
L 360.467532 89.809984 
L 359.532468 90.726623 
L 358.597403 91.481169 
L 357.662338 92.312218 
L 356.727273 93.235032 
L 355.792208 94.121398 
L 354.857143 94.968457 
L 353.922078 95.730715 
L 352.987013 96.562041 
L 352.051948 97.328114 
L 351.116883 98.20188 
L 350.181818 98.973127 
L 349.246753 99.742918 
L 348.311688 100.524165 
L 347.376623 101.347941 
L 346.441558 102.144717 
L 345.506494 102.891821 
L 344.571429 103.62918 
L 343.636364 104.30898 
L 342.701299 104.940997 
L 341.766234 105.523034 
L 340.831169 106.148637 
L 339.896104 106.944641 
L 338.961039 107.417708 
L 338.025974 107.990701 
L 337.090909 108.545771 
L 336.155844 109.057624 
L 335.220779 109.459028 
L 334.285714 109.98657 
L 333.350649 110.408108 
L 332.415584 110.861381 
L 331.480519 111.367844 
L 330.545455 111.828842 
L 329.61039 112.255746 
L 328.675325 112.664905 
L 327.74026 112.899301 
L 326.805195 113.310638 
L 325.87013 113.697197 
L 324.935065 114.12371 
L 324 114.496029 
L 323.064935 114.956421 
L 322.12987 115.293398 
L 321.194805 115.554935 
L 320.25974 115.84914 
L 319.324675 116.143346 
L 318.38961 116.437551 
L 317.454545 116.734053 
L 316.519481 117.032512 
L 315.584416 117.33097 
L 314.649351 117.629428 
L 313.714286 117.939061 
z
" style="fill-opacity:0.15;"/>
   </g>
   <g id="matplotlib.axis_5">
    <g id="xtick_6">
     <g id="line2d_23">
      <g>
       <use style="stroke:#000000;stroke-width:0.25;" x="331.664418" xlink:href="#m17e275adb9" y="148.885714"/>
      </g>
     </g>
     <g id="text_25">
      <text style="font-family:DejaVu Sans;font-size:6px;font-style:normal;font-weight:normal;text-anchor:middle;" transform="rotate(-0, 331.664418, 160.444777)" x="331.664418" y="160.444777">200</text>
     </g>
    </g>
    <g id="xtick_7">
     <g id="line2d_24">
      <g>
       <use style="stroke:#000000;stroke-width:0.25;" x="354.794206" xlink:href="#m17e275adb9" y="148.885714"/>
      </g>
     </g>
     <g id="text_26">
      <text style="font-family:DejaVu Sans;font-size:6px;font-style:normal;font-weight:normal;text-anchor:middle;" transform="rotate(-0, 354.794206, 160.444777)" x="354.794206" y="160.444777">400</text>
     </g>
    </g>
    <g id="xtick_8">
     <g id="line2d_25">
      <g>
       <use style="stroke:#000000;stroke-width:0.25;" x="377.923994" xlink:href="#m17e275adb9" y="148.885714"/>
      </g>
     </g>
     <g id="text_27">
      <text style="font-family:DejaVu Sans;font-size:6px;font-style:normal;font-weight:normal;text-anchor:middle;" transform="rotate(-0, 377.923994, 160.444777)" x="377.923994" y="160.444777">600</text>
     </g>
    </g>
    <g id="xtick_9">
     <g id="line2d_26">
      <g>
       <use style="stroke:#000000;stroke-width:0.25;" x="401.053782" xlink:href="#m17e275adb9" y="148.885714"/>
      </g>
     </g>
     <g id="text_28">
      <text style="font-family:DejaVu Sans;font-size:6px;font-style:normal;font-weight:normal;text-anchor:middle;" transform="rotate(-0, 401.053782, 160.444777)" x="401.053782" y="160.444777">800</text>
     </g>
    </g>
    <g id="text_29">
     <text style="font-family:DejaVu Sans;font-size:8px;font-style:normal;font-weight:normal;text-anchor:middle;" transform="rotate(-0, 360, 171.771339)" x="360" y="171.771339">rf 5</text>
    </g>
   </g>
   <g id="matplotlib.axis_6">
    <g id="ytick_14">
     <g id="line2d_27">
      <g>
       <use style="stroke:#000000;stroke-width:0.25;" x="313.714286" xlink:href="#m2802495367" y="130.935582"/>
      </g>
     </g>
     <g id="text_30">
      <text style="font-family:DejaVu Sans;font-size:6px;font-style:normal;font-weight:normal;text-anchor:end;" transform="rotate(-0, 306.714286, 133.215114)" x="306.714286" y="133.215114">200</text>
     </g>
    </g>
    <g id="ytick_15">
     <g id="line2d_28">
      <g>
       <use style="stroke:#000000;stroke-width:0.25;" x="313.714286" xlink:href="#m2802495367" y="107.805794"/>
      </g>
     </g>
     <g id="text_31">
      <text style="font-family:DejaVu Sans;font-size:6px;font-style:normal;font-weight:normal;text-anchor:end;" transform="rotate(-0, 306.714286, 110.085326)" x="306.714286" y="110.085326">400</text>
     </g>
    </g>
    <g id="ytick_16">
     <g id="line2d_29">
      <g>
       <use style="stroke:#000000;stroke-width:0.25;" x="313.714286" xlink:href="#m2802495367" y="84.676006"/>
      </g>
     </g>
     <g id="text_32">
      <text style="font-family:DejaVu Sans;font-size:6px;font-style:normal;font-weight:normal;text-anchor:end;" transform="rotate(-0, 306.714286, 86.955538)" x="306.714286" y="86.955538">600</text>
     </g>
    </g>
    <g id="ytick_17">
     <g id="line2d_30">
      <g>
       <use style="stroke:#000000;stroke-width:0.25;" x="313.714286" xlink:href="#m2802495367" y="61.546218"/>
      </g>
     </g>
     <g id="text_33">
      <text style="font-family:DejaVu Sans;font-size:6px;font-style:normal;font-weight:normal;text-anchor:end;" transform="rotate(-0, 306.714286, 63.82575)" x="306.714286" y="63.82575">800</text>
     </g>
    </g>
    <g id="text_34">
     <text style="font-family:DejaVu Sans;font-size:8px;font-style:normal;font-weight:normal;text-anchor:middle;" transform="rotate(-90, 289.598036, 102.6)" x="289.598036" y="102.6">rf 10</text>
    </g>
   </g>
   <g id="line2d_31">
    <path clip-path="url(#p36dd796e56)" d="M 313.714286 129.641207 
L 314.649351 129.004979 
L 315.584416 128.36875 
L 316.519481 127.732521 
L 317.454545 127.096292 
L 318.38961 126.460063 
L 319.324675 125.823834 
L 320.25974 125.187606 
L 321.194805 124.551377 
L 322.12987 123.915148 
L 323.064935 123.278919 
L 324 122.64269 
L 324.935065 122.006461 
L 325.87013 121.370233 
L 326.805195 120.734004 
L 327.74026 120.097775 
L 328.675325 119.461546 
L 329.61039 118.825317 
L 330.545455 118.189089 
L 331.480519 117.55286 
L 332.415584 116.916631 
L 333.350649 116.280402 
L 334.285714 115.644173 
L 335.220779 115.007944 
L 336.155844 114.371716 
L 337.090909 113.735487 
L 338.025974 113.099258 
L 338.961039 112.463029 
L 339.896104 111.8268 
L 340.831169 111.190571 
L 341.766234 110.554343 
L 342.701299 109.918114 
L 343.636364 109.281885 
L 344.571429 108.645656 
L 345.506494 108.009427 
L 346.441558 107.373198 
L 347.376623 106.73697 
L 348.311688 106.100741 
L 349.246753 105.464512 
L 350.181818 104.828283 
L 351.116883 104.192054 
L 352.051948 103.555825 
L 352.987013 102.919597 
L 353.922078 102.283368 
L 354.857143 101.647139 
L 355.792208 101.01091 
L 356.727273 100.374681 
L 357.662338 99.738453 
L 358.597403 99.102224 
L 359.532468 98.465995 
L 360.467532 97.829766 
L 361.402597 97.193537 
L 362.337662 96.557308 
L 363.272727 95.92108 
L 364.207792 95.284851 
L 365.142857 94.648622 
L 366.077922 94.012393 
L 367.012987 93.376164 
L 367.948052 92.739935 
L 368.883117 92.103707 
L 369.818182 91.467478 
L 370.753247 90.831249 
L 371.688312 90.19502 
L 372.623377 89.558791 
L 373.558442 88.922562 
L 374.493506 88.286334 
L 375.428571 87.650105 
L 376.363636 87.013876 
L 377.298701 86.377647 
L 378.233766 85.741418 
L 379.168831 85.105189 
L 380.103896 84.468961 
L 381.038961 83.832732 
L 381.974026 83.196503 
L 382.909091 82.560274 
L 383.844156 81.924045 
L 384.779221 81.287817 
L 385.714286 80.651588 
L 386.649351 80.015359 
L 387.584416 79.37913 
L 388.519481 78.742901 
L 389.454545 78.106672 
L 390.38961 77.470444 
L 391.324675 76.834215 
L 392.25974 76.197986 
L 393.194805 75.561757 
L 394.12987 74.925528 
L 395.064935 74.289299 
L 396 73.653071 
L 396.935065 73.016842 
L 397.87013 72.380613 
L 398.805195 71.744384 
L 399.74026 71.108155 
L 400.675325 70.471926 
L 401.61039 69.835698 
L 402.545455 69.199469 
L 403.480519 68.56324 
L 404.415584 67.927011 
L 405.350649 67.290782 
L 406.285714 66.654553 
" style="fill:none;stroke:#000000;stroke-linecap:square;"/>
   </g>
   <g id="line2d_32">
    <path clip-path="url(#p36dd796e56)" d="M 313.714286 148.885714 
L 406.285714 56.314286 
" style="fill:none;stroke:#ff0000;stroke-dasharray:7.4,3.2;stroke-dashoffset:0;stroke-width:2;"/>
   </g>
   <g id="patch_13">
    <path d="M 313.714286 148.885714 
L 313.714286 56.314286 
" style="fill:none;stroke:#000000;stroke-linecap:square;stroke-linejoin:miter;stroke-width:0.25;"/>
   </g>
   <g id="patch_14">
    <path d="M 406.285714 148.885714 
L 406.285714 56.314286 
" style="fill:none;stroke:#000000;stroke-linecap:square;stroke-linejoin:miter;stroke-width:0.25;"/>
   </g>
   <g id="patch_15">
    <path d="M 313.714286 148.885714 
L 406.285714 148.885714 
" style="fill:none;stroke:#000000;stroke-linecap:square;stroke-linejoin:miter;stroke-width:0.25;"/>
   </g>
   <g id="patch_16">
    <path d="M 313.714286 56.314286 
L 406.285714 56.314286 
" style="fill:none;stroke:#000000;stroke-linecap:square;stroke-linejoin:miter;stroke-width:0.25;"/>
   </g>
   <g id="text_35">
    <text style="font-family:DejaVu Sans;font-size:12px;font-style:normal;font-weight:normal;text-anchor:start;" transform="rotate(-0, 313.714286, 50.314286)" x="313.714286" y="50.314286">area</text>
   </g>
  </g>
  <g id="axes_4">
   <g id="patch_17">
    <path d="M 452.571429 148.885714 
L 545.142857 148.885714 
L 545.142857 56.314286 
L 452.571429 56.314286 
z
" style="fill:#ffffff;"/>
   </g>
   <g id="PathCollection_4">
    <g clip-path="url(#pc1376a5228)">
     <use style="fill-opacity:0.8;stroke:#000000;stroke-opacity:0.8;" x="513.954527" xlink:href="#me9315c9c30" y="91.547374"/>
     <use style="fill-opacity:0.8;stroke:#000000;stroke-opacity:0.8;" x="521.44712" xlink:href="#me9315c9c30" y="85.991188"/>
     <use style="fill-opacity:0.8;stroke:#000000;stroke-opacity:0.8;" x="538.073625" xlink:href="#me9315c9c30" y="59.975754"/>
     <use style="fill-opacity:0.8;stroke:#000000;stroke-opacity:0.8;" x="506.581009" xlink:href="#me9315c9c30" y="101.97261"/>
     <use style="fill-opacity:0.8;stroke:#000000;stroke-opacity:0.8;" x="461.527096" xlink:href="#me9315c9c30" y="148.885714"/>
     <use style="fill-opacity:0.8;stroke:#000000;stroke-opacity:0.8;" x="535.225132" xlink:href="#me9315c9c30" y="59.357653"/>
     <use style="fill-opacity:0.8;stroke:#000000;stroke-opacity:0.8;" x="514.707639" xlink:href="#me9315c9c30" y="89.681097"/>
     <use style="fill-opacity:0.8;stroke:#000000;stroke-opacity:0.8;" x="498.045573" xlink:href="#me9315c9c30" y="97.464528"/>
     <use style="fill-opacity:0.8;stroke:#000000;stroke-opacity:0.8;" x="537.017407" xlink:href="#me9315c9c30" y="58.781015"/>
     <use style="fill-opacity:0.8;stroke:#000000;stroke-opacity:0.8;" x="527.451633" xlink:href="#me9315c9c30" y="73.340076"/>
     <use style="fill-opacity:0.8;stroke:#000000;stroke-opacity:0.8;" x="528.348807" xlink:href="#me9315c9c30" y="70.053829"/>
     <use style="fill-opacity:0.8;stroke:#000000;stroke-opacity:0.8;" x="525.986855" xlink:href="#me9315c9c30" y="73.977493"/>
     <use style="fill-opacity:0.8;stroke:#000000;stroke-opacity:0.8;" x="523.423243" xlink:href="#me9315c9c30" y="76.256897"/>
     <use style="fill-opacity:0.8;stroke:#000000;stroke-opacity:0.8;" x="526.819404" xlink:href="#me9315c9c30" y="67.522027"/>
     <use style="fill-opacity:0.8;stroke:#000000;stroke-opacity:0.8;" x="520.899746" xlink:href="#me9315c9c30" y="79.349502"/>
     <use style="fill-opacity:0.8;stroke:#000000;stroke-opacity:0.8;" x="521.932082" xlink:href="#me9315c9c30" y="75.721987"/>
     <use style="fill-opacity:0.8;stroke:#000000;stroke-opacity:0.8;" x="522.083292" xlink:href="#me9315c9c30" y="73.194703"/>
     <use style="fill-opacity:0.8;stroke:#000000;stroke-opacity:0.8;" x="522.153514" xlink:href="#me9315c9c30" y="81.689203"/>
     <use style="fill-opacity:0.8;stroke:#000000;stroke-opacity:0.8;" x="524.254513" xlink:href="#me9315c9c30" y="77.948144"/>
     <use style="fill-opacity:0.8;stroke:#000000;stroke-opacity:0.8;" x="513.524864" xlink:href="#me9315c9c30" y="84.814294"/>
     <use style="fill-opacity:0.8;stroke:#000000;stroke-opacity:0.8;" x="536.273996" xlink:href="#me9315c9c30" y="58.735244"/>
     <use style="fill-opacity:0.8;stroke:#000000;stroke-opacity:0.8;" x="524.856845" xlink:href="#me9315c9c30" y="79.427246"/>
     <use style="fill-opacity:0.8;stroke:#000000;stroke-opacity:0.8;" x="517.264768" xlink:href="#me9315c9c30" y="77.099149"/>
     <use style="fill-opacity:0.8;stroke:#000000;stroke-opacity:0.8;" x="515.319709" xlink:href="#me9315c9c30" y="79.926976"/>
     <use style="fill-opacity:0.8;stroke:#000000;stroke-opacity:0.8;" x="517.552284" xlink:href="#me9315c9c30" y="80.291237"/>
     <use style="fill-opacity:0.8;stroke:#000000;stroke-opacity:0.8;" x="537.994059" xlink:href="#me9315c9c30" y="56.314286"/>
     <use style="fill-opacity:0.8;stroke:#000000;stroke-opacity:0.8;" x="536.579133" xlink:href="#me9315c9c30" y="63.785063"/>
     <use style="fill-opacity:0.8;stroke:#000000;stroke-opacity:0.8;" x="533.724524" xlink:href="#me9315c9c30" y="70.968426"/>
     <use style="fill-opacity:0.8;stroke:#000000;stroke-opacity:0.8;" x="522.219618" xlink:href="#me9315c9c30" y="80.109406"/>
     <use style="fill-opacity:0.8;stroke:#000000;stroke-opacity:0.8;" x="527.590703" xlink:href="#me9315c9c30" y="75.722329"/>
     <use style="fill-opacity:0.8;stroke:#000000;stroke-opacity:0.8;" x="525.703638" xlink:href="#me9315c9c30" y="74.74441"/>
     <use style="fill-opacity:0.8;stroke:#000000;stroke-opacity:0.8;" x="516.718165" xlink:href="#me9315c9c30" y="59.542145"/>
     <use style="fill-opacity:0.8;stroke:#000000;stroke-opacity:0.8;" x="522.86429" xlink:href="#me9315c9c30" y="84.90194"/>
     <use style="fill-opacity:0.8;stroke:#000000;stroke-opacity:0.8;" x="513.26248" xlink:href="#me9315c9c30" y="93.49707"/>
     <use style="fill-opacity:0.8;stroke:#000000;stroke-opacity:0.8;" x="518.927473" xlink:href="#me9315c9c30" y="87.398755"/>
    </g>
   </g>
   <g id="PolyCollection_4">
    <path clip-path="url(#pc1376a5228)" d="M 452.571429 141.147837 
L 452.571429 167.369454 
L 453.506494 166.181815 
L 454.441558 164.994176 
L 455.376623 163.806537 
L 456.311688 162.618898 
L 457.246753 161.431259 
L 458.181818 160.24362 
L 459.116883 159.055981 
L 460.051948 157.868342 
L 460.987013 156.680703 
L 461.922078 155.493064 
L 462.857143 154.305425 
L 463.792208 153.117786 
L 464.727273 151.930147 
L 465.662338 150.742508 
L 466.597403 149.554869 
L 467.532468 148.36723 
L 468.467532 147.179591 
L 469.402597 145.991952 
L 470.337662 144.804313 
L 471.272727 143.616674 
L 472.207792 142.429035 
L 473.142857 141.241396 
L 474.077922 140.053757 
L 475.012987 138.866118 
L 475.948052 137.678179 
L 476.883117 136.490136 
L 477.818182 135.296956 
L 478.753247 134.085181 
L 479.688312 132.868219 
L 480.623377 131.651256 
L 481.558442 130.434294 
L 482.493506 129.217331 
L 483.428571 128.000369 
L 484.363636 126.783406 
L 485.298701 125.608161 
L 486.233766 124.409161 
L 487.168831 123.246885 
L 488.103896 122.084609 
L 489.038961 120.922333 
L 489.974026 119.760057 
L 490.909091 118.597782 
L 491.844156 117.42784 
L 492.779221 116.233578 
L 493.714286 115.043691 
L 494.649351 113.84919 
L 495.584416 112.654534 
L 496.519481 111.459265 
L 497.454545 110.264865 
L 498.38961 109.070803 
L 499.324675 107.876333 
L 500.25974 106.681625 
L 501.194805 105.526728 
L 502.12987 104.335349 
L 503.064935 103.123649 
L 504 101.922184 
L 504.935065 100.754682 
L 505.87013 99.586477 
L 506.805195 98.418272 
L 507.74026 97.218494 
L 508.675325 96.021008 
L 509.61039 94.847661 
L 510.545455 93.674084 
L 511.480519 92.500445 
L 512.415584 91.367093 
L 513.350649 90.179419 
L 514.285714 88.991432 
L 515.220779 87.812891 
L 516.155844 86.748138 
L 517.090909 85.632072 
L 518.025974 84.50009 
L 518.961039 83.392937 
L 519.896104 82.316938 
L 520.831169 81.199372 
L 521.766234 80.110984 
L 522.701299 79.02083 
L 523.636364 77.921151 
L 524.571429 76.820889 
L 525.506494 75.724111 
L 526.441558 74.665915 
L 527.376623 73.657151 
L 528.311688 72.598302 
L 529.246753 71.563793 
L 530.181818 70.533599 
L 531.116883 69.524631 
L 532.051948 68.536132 
L 532.987013 67.608538 
L 533.922078 66.674471 
L 534.857143 65.741266 
L 535.792208 64.800996 
L 536.727273 63.894336 
L 537.662338 63.012488 
L 538.597403 62.141922 
L 539.532468 61.181656 
L 540.467532 60.281607 
L 541.402597 59.350155 
L 542.337662 58.440548 
L 543.272727 57.563021 
L 544.207792 56.672283 
L 545.142857 55.808848 
L 545.142857 49.389757 
L 545.142857 49.389757 
L 544.207792 50.511843 
L 543.272727 51.64961 
L 542.337662 52.770983 
L 541.402597 53.921013 
L 540.467532 55.022071 
L 539.532468 56.116424 
L 538.597403 57.22491 
L 537.662338 58.335726 
L 536.727273 59.453438 
L 535.792208 60.563943 
L 534.857143 61.630465 
L 533.922078 62.709397 
L 532.987013 63.779228 
L 532.051948 64.875079 
L 531.116883 65.933551 
L 530.181818 66.994679 
L 529.246753 68.082909 
L 528.311688 69.093085 
L 527.376623 70.1122 
L 526.441558 71.11864 
L 525.506494 72.116627 
L 524.571429 73.104448 
L 523.636364 74.094017 
L 522.701299 75.138211 
L 521.766234 76.076822 
L 520.831169 77.011843 
L 519.896104 77.996304 
L 518.961039 78.968275 
L 518.025974 79.916441 
L 517.090909 80.863168 
L 516.155844 81.857251 
L 515.220779 82.806817 
L 514.285714 83.706084 
L 513.350649 84.601438 
L 512.415584 85.513734 
L 511.480519 86.416226 
L 510.545455 87.251939 
L 509.61039 88.106238 
L 508.675325 89.036392 
L 507.74026 89.968117 
L 506.805195 90.901155 
L 505.87013 91.777645 
L 504.935065 92.608785 
L 504 93.440196 
L 503.064935 94.272389 
L 502.12987 95.104583 
L 501.194805 96.00642 
L 500.25974 96.943417 
L 499.324675 97.878866 
L 498.38961 98.718505 
L 497.454545 99.567898 
L 496.519481 100.480742 
L 495.584416 101.394349 
L 494.649351 102.290757 
L 493.714286 103.155243 
L 492.779221 103.981104 
L 491.844156 104.807952 
L 490.909091 105.699684 
L 489.974026 106.591417 
L 489.038961 107.471389 
L 488.103896 108.334865 
L 487.168831 109.199707 
L 486.233766 110.064549 
L 485.298701 110.929391 
L 484.363636 111.794233 
L 483.428571 112.659075 
L 482.493506 113.538782 
L 481.558442 114.445649 
L 480.623377 115.352515 
L 479.688312 116.259382 
L 478.753247 117.166248 
L 477.818182 118.072959 
L 476.883117 118.903309 
L 475.948052 119.73366 
L 475.012987 120.56401 
L 474.077922 121.394361 
L 473.142857 122.224711 
L 472.207792 123.055062 
L 471.272727 123.888286 
L 470.337662 124.751166 
L 469.402597 125.614047 
L 468.467532 126.476927 
L 467.532468 127.339807 
L 466.597403 128.202687 
L 465.662338 129.065568 
L 464.727273 129.928448 
L 463.792208 130.791328 
L 462.857143 131.654208 
L 461.922078 132.517088 
L 460.987013 133.379969 
L 460.051948 134.242849 
L 459.116883 135.105729 
L 458.181818 135.968609 
L 457.246753 136.83149 
L 456.311688 137.69437 
L 455.376623 138.55725 
L 454.441558 139.42013 
L 453.506494 140.283527 
L 452.571429 141.147837 
z
" style="fill-opacity:0.15;"/>
   </g>
   <g id="matplotlib.axis_7">
    <g id="xtick_10">
     <g id="line2d_33">
      <g>
       <use style="stroke:#000000;stroke-width:0.25;" x="468.399905" xlink:href="#m17e275adb9" y="148.885714"/>
      </g>
     </g>
     <g id="text_36">
      <text style="font-family:DejaVu Sans;font-size:6px;font-style:normal;font-weight:normal;text-anchor:middle;" transform="rotate(-0, 468.399905, 160.444777)" x="468.399905" y="160.444777">0</text>
     </g>
    </g>
    <g id="xtick_11">
     <g id="line2d_34">
      <g>
       <use style="stroke:#000000;stroke-width:0.25;" x="487.286199" xlink:href="#m17e275adb9" y="148.885714"/>
      </g>
     </g>
     <g id="text_37">
      <text style="font-family:DejaVu Sans;font-size:6px;font-style:normal;font-weight:normal;text-anchor:middle;" transform="rotate(-0, 487.286199, 160.444777)" x="487.286199" y="160.444777">10</text>
     </g>
    </g>
    <g id="xtick_12">
     <g id="line2d_35">
      <g>
       <use style="stroke:#000000;stroke-width:0.25;" x="506.172494" xlink:href="#m17e275adb9" y="148.885714"/>
      </g>
     </g>
     <g id="text_38">
      <text style="font-family:DejaVu Sans;font-size:6px;font-style:normal;font-weight:normal;text-anchor:middle;" transform="rotate(-0, 506.172494, 160.444777)" x="506.172494" y="160.444777">20</text>
     </g>
    </g>
    <g id="xtick_13">
     <g id="line2d_36">
      <g>
       <use style="stroke:#000000;stroke-width:0.25;" x="525.058788" xlink:href="#m17e275adb9" y="148.885714"/>
      </g>
     </g>
     <g id="text_39">
      <text style="font-family:DejaVu Sans;font-size:6px;font-style:normal;font-weight:normal;text-anchor:middle;" transform="rotate(-0, 525.058788, 160.444777)" x="525.058788" y="160.444777">30</text>
     </g>
    </g>
    <g id="xtick_14">
     <g id="line2d_37">
      <g>
       <use style="stroke:#000000;stroke-width:0.25;" x="543.945082" xlink:href="#m17e275adb9" y="148.885714"/>
      </g>
     </g>
     <g id="text_40">
      <text style="font-family:DejaVu Sans;font-size:6px;font-style:normal;font-weight:normal;text-anchor:middle;" transform="rotate(-0, 543.945082, 160.444777)" x="543.945082" y="160.444777">40</text>
     </g>
    </g>
    <g id="text_41">
     <text style="font-family:DejaVu Sans;font-size:8px;font-style:normal;font-weight:normal;text-anchor:middle;" transform="rotate(-0, 498.857143, 171.771339)" x="498.857143" y="171.771339">rf 5</text>
    </g>
   </g>
   <g id="matplotlib.axis_8">
    <g id="ytick_18">
     <g id="line2d_38">
      <g>
       <use style="stroke:#000000;stroke-width:0.25;" x="452.571429" xlink:href="#m2802495367" y="133.057238"/>
      </g>
     </g>
     <g id="text_42">
      <text style="font-family:DejaVu Sans;font-size:6px;font-style:normal;font-weight:normal;text-anchor:end;" transform="rotate(-0, 445.571429, 135.336769)" x="445.571429" y="135.336769">0</text>
     </g>
    </g>
    <g id="ytick_19">
     <g id="line2d_39">
      <g>
       <use style="stroke:#000000;stroke-width:0.25;" x="452.571429" xlink:href="#m2802495367" y="114.170944"/>
      </g>
     </g>
     <g id="text_43">
      <text style="font-family:DejaVu Sans;font-size:6px;font-style:normal;font-weight:normal;text-anchor:end;" transform="rotate(-0, 445.571429, 116.450475)" x="445.571429" y="116.450475">10</text>
     </g>
    </g>
    <g id="ytick_20">
     <g id="line2d_40">
      <g>
       <use style="stroke:#000000;stroke-width:0.25;" x="452.571429" xlink:href="#m2802495367" y="95.284649"/>
      </g>
     </g>
     <g id="text_44">
      <text style="font-family:DejaVu Sans;font-size:6px;font-style:normal;font-weight:normal;text-anchor:end;" transform="rotate(-0, 445.571429, 97.56418)" x="445.571429" y="97.56418">20</text>
     </g>
    </g>
    <g id="ytick_21">
     <g id="line2d_41">
      <g>
       <use style="stroke:#000000;stroke-width:0.25;" x="452.571429" xlink:href="#m2802495367" y="76.398355"/>
      </g>
     </g>
     <g id="text_45">
      <text style="font-family:DejaVu Sans;font-size:6px;font-style:normal;font-weight:normal;text-anchor:end;" transform="rotate(-0, 445.571429, 78.677886)" x="445.571429" y="78.677886">30</text>
     </g>
    </g>
    <g id="ytick_22">
     <g id="line2d_42">
      <g>
       <use style="stroke:#000000;stroke-width:0.25;" x="452.571429" xlink:href="#m2802495367" y="57.512061"/>
      </g>
     </g>
     <g id="text_46">
      <text style="font-family:DejaVu Sans;font-size:6px;font-style:normal;font-weight:normal;text-anchor:end;" transform="rotate(-0, 445.571429, 59.791592)" x="445.571429" y="59.791592">40</text>
     </g>
    </g>
    <g id="text_47">
     <text style="font-family:DejaVu Sans;font-size:8px;font-style:normal;font-weight:normal;text-anchor:middle;" transform="rotate(-90, 432.272679, 102.6)" x="432.272679" y="102.6">rf 10</text>
    </g>
   </g>
   <g id="line2d_43">
    <path clip-path="url(#pc1376a5228)" d="M 452.571429 156.589877 
L 453.506494 155.530535 
L 454.441558 154.471193 
L 455.376623 153.411851 
L 456.311688 152.352509 
L 457.246753 151.293167 
L 458.181818 150.233825 
L 459.116883 149.174483 
L 460.051948 148.115141 
L 460.987013 147.055798 
L 461.922078 145.996456 
L 462.857143 144.937114 
L 463.792208 143.877772 
L 464.727273 142.81843 
L 465.662338 141.759088 
L 466.597403 140.699746 
L 467.532468 139.640404 
L 468.467532 138.581062 
L 469.402597 137.52172 
L 470.337662 136.462377 
L 471.272727 135.403035 
L 472.207792 134.343693 
L 473.142857 133.284351 
L 474.077922 132.225009 
L 475.012987 131.165667 
L 475.948052 130.106325 
L 476.883117 129.046983 
L 477.818182 127.987641 
L 478.753247 126.928299 
L 479.688312 125.868956 
L 480.623377 124.809614 
L 481.558442 123.750272 
L 482.493506 122.69093 
L 483.428571 121.631588 
L 484.363636 120.572246 
L 485.298701 119.512904 
L 486.233766 118.453562 
L 487.168831 117.39422 
L 488.103896 116.334878 
L 489.038961 115.275535 
L 489.974026 114.216193 
L 490.909091 113.156851 
L 491.844156 112.097509 
L 492.779221 111.038167 
L 493.714286 109.978825 
L 494.649351 108.919483 
L 495.584416 107.860141 
L 496.519481 106.800799 
L 497.454545 105.741457 
L 498.38961 104.682114 
L 499.324675 103.622772 
L 500.25974 102.56343 
L 501.194805 101.504088 
L 502.12987 100.444746 
L 503.064935 99.385404 
L 504 98.326062 
L 504.935065 97.26672 
L 505.87013 96.207378 
L 506.805195 95.148036 
L 507.74026 94.088693 
L 508.675325 93.029351 
L 509.61039 91.970009 
L 510.545455 90.910667 
L 511.480519 89.851325 
L 512.415584 88.791983 
L 513.350649 87.732641 
L 514.285714 86.673299 
L 515.220779 85.613957 
L 516.155844 84.554615 
L 517.090909 83.495272 
L 518.025974 82.43593 
L 518.961039 81.376588 
L 519.896104 80.317246 
L 520.831169 79.257904 
L 521.766234 78.198562 
L 522.701299 77.13922 
L 523.636364 76.079878 
L 524.571429 75.020536 
L 525.506494 73.961193 
L 526.441558 72.901851 
L 527.376623 71.842509 
L 528.311688 70.783167 
L 529.246753 69.723825 
L 530.181818 68.664483 
L 531.116883 67.605141 
L 532.051948 66.545799 
L 532.987013 65.486457 
L 533.922078 64.427115 
L 534.857143 63.367772 
L 535.792208 62.30843 
L 536.727273 61.249088 
L 537.662338 60.189746 
L 538.597403 59.130404 
L 539.532468 58.071062 
L 540.467532 57.01172 
L 541.402597 55.952378 
L 542.337662 54.893036 
L 543.272727 53.833694 
L 544.207792 52.774351 
L 545.142857 51.715009 
" style="fill:none;stroke:#000000;stroke-linecap:square;"/>
   </g>
   <g id="line2d_44">
    <path clip-path="url(#pc1376a5228)" d="M 452.571429 148.885714 
L 545.142857 56.314286 
" style="fill:none;stroke:#ff0000;stroke-dasharray:7.4,3.2;stroke-dashoffset:0;stroke-width:2;"/>
   </g>
   <g id="patch_18">
    <path d="M 452.571429 148.885714 
L 452.571429 56.314286 
" style="fill:none;stroke:#000000;stroke-linecap:square;stroke-linejoin:miter;stroke-width:0.25;"/>
   </g>
   <g id="patch_19">
    <path d="M 545.142857 148.885714 
L 545.142857 56.314286 
" style="fill:none;stroke:#000000;stroke-linecap:square;stroke-linejoin:miter;stroke-width:0.25;"/>
   </g>
   <g id="patch_20">
    <path d="M 452.571429 148.885714 
L 545.142857 148.885714 
" style="fill:none;stroke:#000000;stroke-linecap:square;stroke-linejoin:miter;stroke-width:0.25;"/>
   </g>
   <g id="patch_21">
    <path d="M 452.571429 56.314286 
L 545.142857 56.314286 
" style="fill:none;stroke:#000000;stroke-linecap:square;stroke-linejoin:miter;stroke-width:0.25;"/>
   </g>
   <g id="text_48">
    <text style="font-family:DejaVu Sans;font-size:12px;font-style:normal;font-weight:normal;text-anchor:start;" transform="rotate(-0, 452.571429, 50.314286)" x="452.571429" y="50.314286">x0</text>
   </g>
  </g>
  <g id="axes_5">
   <g id="patch_22">
    <path d="M 591.428571 148.885714 
L 684 148.885714 
L 684 56.314286 
L 591.428571 56.314286 
z
" style="fill:#ffffff;"/>
   </g>
   <g id="PathCollection_5">
    <g clip-path="url(#p4d85fd3138)">
     <use style="fill-opacity:0.8;stroke:#000000;stroke-opacity:0.8;" x="628.032787" xlink:href="#me9315c9c30" y="120.334419"/>
     <use style="fill-opacity:0.8;stroke:#000000;stroke-opacity:0.8;" x="647.904787" xlink:href="#me9315c9c30" y="93.166672"/>
     <use style="fill-opacity:0.8;stroke:#000000;stroke-opacity:0.8;" x="648.233561" xlink:href="#me9315c9c30" y="92.407261"/>
     <use style="fill-opacity:0.8;stroke:#000000;stroke-opacity:0.8;" x="637.895135" xlink:href="#me9315c9c30" y="108.51466"/>
     <use style="fill-opacity:0.8;stroke:#000000;stroke-opacity:0.8;" x="684" xlink:href="#me9315c9c30" y="60.30661"/>
     <use style="fill-opacity:0.8;stroke:#000000;stroke-opacity:0.8;" x="605.510983" xlink:href="#me9315c9c30" y="148.885714"/>
     <use style="fill-opacity:0.8;stroke:#000000;stroke-opacity:0.8;" x="622.46846" xlink:href="#me9315c9c30" y="94.554607"/>
     <use style="fill-opacity:0.8;stroke:#000000;stroke-opacity:0.8;" x="637.923007" xlink:href="#me9315c9c30" y="107.04976"/>
     <use style="fill-opacity:0.8;stroke:#000000;stroke-opacity:0.8;" x="620.642638" xlink:href="#me9315c9c30" y="136.283432"/>
     <use style="fill-opacity:0.8;stroke:#000000;stroke-opacity:0.8;" x="628.895207" xlink:href="#me9315c9c30" y="125.466759"/>
     <use style="fill-opacity:0.8;stroke:#000000;stroke-opacity:0.8;" x="613.108613" xlink:href="#me9315c9c30" y="141.208243"/>
     <use style="fill-opacity:0.8;stroke:#000000;stroke-opacity:0.8;" x="632.326828" xlink:href="#me9315c9c30" y="116.76145"/>
     <use style="fill-opacity:0.8;stroke:#000000;stroke-opacity:0.8;" x="627.634796" xlink:href="#me9315c9c30" y="130.536811"/>
     <use style="fill-opacity:0.8;stroke:#000000;stroke-opacity:0.8;" x="635.207714" xlink:href="#me9315c9c30" y="116.522931"/>
     <use style="fill-opacity:0.8;stroke:#000000;stroke-opacity:0.8;" x="624.475667" xlink:href="#me9315c9c30" y="123.77867"/>
     <use style="fill-opacity:0.8;stroke:#000000;stroke-opacity:0.8;" x="614.669122" xlink:href="#me9315c9c30" y="134.146148"/>
     <use style="fill-opacity:0.8;stroke:#000000;stroke-opacity:0.8;" x="624.773811" xlink:href="#me9315c9c30" y="128.265417"/>
     <use style="fill-opacity:0.8;stroke:#000000;stroke-opacity:0.8;" x="610.128627" xlink:href="#me9315c9c30" y="142.399206"/>
     <use style="fill-opacity:0.8;stroke:#000000;stroke-opacity:0.8;" x="602.8566" xlink:href="#me9315c9c30" y="143.14892"/>
     <use style="fill-opacity:0.8;stroke:#000000;stroke-opacity:0.8;" x="625.234268" xlink:href="#me9315c9c30" y="107.569167"/>
     <use style="fill-opacity:0.8;stroke:#000000;stroke-opacity:0.8;" x="630.275666" xlink:href="#me9315c9c30" y="111.01334"/>
     <use style="fill-opacity:0.8;stroke:#000000;stroke-opacity:0.8;" x="625.512462" xlink:href="#me9315c9c30" y="119.111574"/>
     <use style="fill-opacity:0.8;stroke:#000000;stroke-opacity:0.8;" x="623.127068" xlink:href="#me9315c9c30" y="124.915516"/>
     <use style="fill-opacity:0.8;stroke:#000000;stroke-opacity:0.8;" x="619.404683" xlink:href="#me9315c9c30" y="123.188637"/>
     <use style="fill-opacity:0.8;stroke:#000000;stroke-opacity:0.8;" x="626.849618" xlink:href="#me9315c9c30" y="117.292931"/>
     <use style="fill-opacity:0.8;stroke:#000000;stroke-opacity:0.8;" x="654.988072" xlink:href="#me9315c9c30" y="95.534137"/>
     <use style="fill-opacity:0.8;stroke:#000000;stroke-opacity:0.8;" x="647.10957" xlink:href="#me9315c9c30" y="74.540088"/>
     <use style="fill-opacity:0.8;stroke:#000000;stroke-opacity:0.8;" x="639.03081" xlink:href="#me9315c9c30" y="84.760882"/>
     <use style="fill-opacity:0.8;stroke:#000000;stroke-opacity:0.8;" x="647.731997" xlink:href="#me9315c9c30" y="84.862227"/>
     <use style="fill-opacity:0.8;stroke:#000000;stroke-opacity:0.8;" x="652.951718" xlink:href="#me9315c9c30" y="98.755936"/>
     <use style="fill-opacity:0.8;stroke:#000000;stroke-opacity:0.8;" x="649.014967" xlink:href="#me9315c9c30" y="85.243002"/>
     <use style="fill-opacity:0.8;stroke:#000000;stroke-opacity:0.8;" x="647.071141" xlink:href="#me9315c9c30" y="91.229697"/>
     <use style="fill-opacity:0.8;stroke:#000000;stroke-opacity:0.8;" x="653.672166" xlink:href="#me9315c9c30" y="86.918425"/>
     <use style="fill-opacity:0.8;stroke:#000000;stroke-opacity:0.8;" x="643.522725" xlink:href="#me9315c9c30" y="100.390112"/>
     <use style="fill-opacity:0.8;stroke:#000000;stroke-opacity:0.8;" x="660.028566" xlink:href="#me9315c9c30" y="70.417834"/>
    </g>
   </g>
   <g id="PolyCollection_5">
    <path clip-path="url(#p4d85fd3138)" d="M 591.428571 153.142003 
L 591.428571 168.717703 
L 592.363636 167.424069 
L 593.298701 166.171725 
L 594.233766 164.910415 
L 595.168831 163.641883 
L 596.103896 162.391696 
L 597.038961 161.118725 
L 597.974026 159.834993 
L 598.909091 158.565983 
L 599.844156 157.296878 
L 600.779221 156.027903 
L 601.714286 154.749735 
L 602.649351 153.476163 
L 603.584416 152.185478 
L 604.519481 150.855328 
L 605.454545 149.581258 
L 606.38961 148.28067 
L 607.324675 147.009986 
L 608.25974 145.714927 
L 609.194805 144.435248 
L 610.12987 143.182751 
L 611.064935 141.93006 
L 612 140.677004 
L 612.935065 139.465269 
L 613.87013 138.219082 
L 614.805195 136.944848 
L 615.74026 135.713459 
L 616.675325 134.482541 
L 617.61039 133.23889 
L 618.545455 132.006046 
L 619.480519 130.794948 
L 620.415584 129.620385 
L 621.350649 128.41172 
L 622.285714 127.244969 
L 623.220779 126.022069 
L 624.155844 124.816676 
L 625.090909 123.594114 
L 626.025974 122.423232 
L 626.961039 121.304457 
L 627.896104 120.129282 
L 628.831169 118.944351 
L 629.766234 117.773786 
L 630.701299 116.563745 
L 631.636364 115.43055 
L 632.571429 114.280207 
L 633.506494 113.162468 
L 634.441558 112.060608 
L 635.376623 110.984332 
L 636.311688 109.890988 
L 637.246753 108.732447 
L 638.181818 107.627454 
L 639.116883 106.552823 
L 640.051948 105.478792 
L 640.987013 104.449014 
L 641.922078 103.368985 
L 642.857143 102.343509 
L 643.792208 101.334685 
L 644.727273 100.290258 
L 645.662338 99.195622 
L 646.597403 98.106892 
L 647.532468 97.08574 
L 648.467532 96.068536 
L 649.402597 95.017449 
L 650.337662 93.987824 
L 651.272727 92.972866 
L 652.207792 91.915819 
L 653.142857 90.821628 
L 654.077922 89.78714 
L 655.012987 88.73677 
L 655.948052 87.661236 
L 656.883117 86.65815 
L 657.818182 85.654382 
L 658.753247 84.621705 
L 659.688312 83.612964 
L 660.623377 82.582375 
L 661.558442 81.523205 
L 662.493506 80.497204 
L 663.428571 79.493218 
L 664.363636 78.510111 
L 665.298701 77.527911 
L 666.233766 76.55712 
L 667.168831 75.546956 
L 668.103896 74.534318 
L 669.038961 73.510726 
L 669.974026 72.474852 
L 670.909091 71.471669 
L 671.844156 70.48626 
L 672.779221 69.500147 
L 673.714286 68.513527 
L 674.649351 67.526907 
L 675.584416 66.540056 
L 676.519481 65.497388 
L 677.454545 64.450147 
L 678.38961 63.420064 
L 679.324675 62.415001 
L 680.25974 61.420468 
L 681.194805 60.41145 
L 682.12987 59.414527 
L 683.064935 58.427407 
L 684 57.439983 
L 684 39.489636 
L 684 39.489636 
L 683.064935 40.761477 
L 682.12987 42.033318 
L 681.194805 43.305158 
L 680.25974 44.635386 
L 679.324675 45.973443 
L 678.38961 47.275027 
L 677.454545 48.563589 
L 676.519481 49.852151 
L 675.584416 51.140792 
L 674.649351 52.430585 
L 673.714286 53.721545 
L 672.779221 55.012505 
L 671.844156 56.345465 
L 670.909091 57.709573 
L 669.974026 58.94989 
L 669.038961 60.180339 
L 668.103896 61.457278 
L 667.168831 62.745432 
L 666.233766 64.034837 
L 665.298701 65.324241 
L 664.363636 66.613645 
L 663.428571 67.90305 
L 662.493506 69.192454 
L 661.558442 70.481688 
L 660.623377 71.767568 
L 659.688312 73.057616 
L 658.753247 74.339537 
L 657.818182 75.633765 
L 656.883117 76.925399 
L 655.948052 78.188211 
L 655.012987 79.426364 
L 654.077922 80.654407 
L 653.142857 81.929926 
L 652.207792 83.219332 
L 651.272727 84.442651 
L 650.337662 85.704906 
L 649.402597 86.901981 
L 648.467532 88.141741 
L 647.532468 89.377718 
L 646.597403 90.569797 
L 645.662338 91.80241 
L 644.727273 93.012368 
L 643.792208 94.19002 
L 642.857143 95.354002 
L 641.922078 96.503258 
L 640.987013 97.69545 
L 640.051948 98.865905 
L 639.116883 100.013045 
L 638.181818 101.208136 
L 637.246753 102.408762 
L 636.311688 103.597947 
L 635.376623 104.79398 
L 634.441558 105.952893 
L 633.506494 107.096961 
L 632.571429 108.18215 
L 631.636364 109.280693 
L 630.701299 110.372074 
L 629.766234 111.535511 
L 628.831169 112.600327 
L 627.896104 113.65303 
L 626.961039 114.665847 
L 626.025974 115.762511 
L 625.090909 116.803225 
L 624.155844 117.836506 
L 623.220779 118.907677 
L 622.285714 119.975737 
L 621.350649 120.99102 
L 620.415584 122.087161 
L 619.480519 122.985365 
L 618.545455 124.012869 
L 617.61039 125.084624 
L 616.675325 126.101686 
L 615.74026 127.149854 
L 614.805195 128.130638 
L 613.87013 129.067787 
L 612.935065 130.060054 
L 612 131.05229 
L 611.064935 132.046432 
L 610.12987 133.040573 
L 609.194805 134.034715 
L 608.25974 135.028857 
L 607.324675 136.022999 
L 606.38961 137.01714 
L 605.454545 138.045495 
L 604.519481 139.097981 
L 603.584416 140.137084 
L 602.649351 141.124592 
L 601.714286 142.1121 
L 600.779221 143.099608 
L 599.844156 144.116322 
L 598.909091 145.177555 
L 597.974026 146.170645 
L 597.038961 147.134797 
L 596.103896 148.170178 
L 595.168831 149.188752 
L 594.233766 150.165642 
L 593.298701 151.145399 
L 592.363636 152.154587 
L 591.428571 153.142003 
z
" style="fill-opacity:0.15;"/>
   </g>
   <g id="matplotlib.axis_9">
    <g id="xtick_15">
     <g id="line2d_45">
      <g>
       <use style="stroke:#000000;stroke-width:0.25;" x="593.871436" xlink:href="#m17e275adb9" y="148.885714"/>
      </g>
     </g>
     <g id="text_49">
      <text style="font-family:DejaVu Sans;font-size:6px;font-style:normal;font-weight:normal;text-anchor:middle;" transform="rotate(-0, 593.871436, 160.444777)" x="593.871436" y="160.444777">10</text>
     </g>
    </g>
    <g id="xtick_16">
     <g id="line2d_46">
      <g>
       <use style="stroke:#000000;stroke-width:0.25;" x="618.962807" xlink:href="#m17e275adb9" y="148.885714"/>
      </g>
     </g>
     <g id="text_50">
      <text style="font-family:DejaVu Sans;font-size:6px;font-style:normal;font-weight:normal;text-anchor:middle;" transform="rotate(-0, 618.962807, 160.444777)" x="618.962807" y="160.444777">5</text>
     </g>
    </g>
    <g id="xtick_17">
     <g id="line2d_47">
      <g>
       <use style="stroke:#000000;stroke-width:0.25;" x="644.054177" xlink:href="#m17e275adb9" y="148.885714"/>
      </g>
     </g>
     <g id="text_51">
      <text style="font-family:DejaVu Sans;font-size:6px;font-style:normal;font-weight:normal;text-anchor:middle;" transform="rotate(-0, 644.054177, 160.444777)" x="644.054177" y="160.444777">0</text>
     </g>
    </g>
    <g id="xtick_18">
     <g id="line2d_48">
      <g>
       <use style="stroke:#000000;stroke-width:0.25;" x="669.145547" xlink:href="#m17e275adb9" y="148.885714"/>
      </g>
     </g>
     <g id="text_52">
      <text style="font-family:DejaVu Sans;font-size:6px;font-style:normal;font-weight:normal;text-anchor:middle;" transform="rotate(-0, 669.145547, 160.444777)" x="669.145547" y="160.444777">5</text>
     </g>
    </g>
    <g id="text_53">
     <text style="font-family:DejaVu Sans;font-size:8px;font-style:normal;font-weight:normal;text-anchor:middle;" transform="rotate(-0, 637.714286, 171.771339)" x="637.714286" y="171.771339">rf 5</text>
    </g>
   </g>
   <g id="matplotlib.axis_10">
    <g id="ytick_23">
     <g id="line2d_49">
      <g>
       <use style="stroke:#000000;stroke-width:0.25;" x="591.428571" xlink:href="#m2802495367" y="146.442849"/>
      </g>
     </g>
     <g id="text_54">
      <text style="font-family:DejaVu Sans;font-size:6px;font-style:normal;font-weight:normal;text-anchor:end;" transform="rotate(-0, 584.428571, 148.722381)" x="584.428571" y="148.722381">10</text>
     </g>
    </g>
    <g id="ytick_24">
     <g id="line2d_50">
      <g>
       <use style="stroke:#000000;stroke-width:0.25;" x="591.428571" xlink:href="#m2802495367" y="121.351479"/>
      </g>
     </g>
     <g id="text_55">
      <text style="font-family:DejaVu Sans;font-size:6px;font-style:normal;font-weight:normal;text-anchor:end;" transform="rotate(-0, 584.428571, 123.63101)" x="584.428571" y="123.63101">5</text>
     </g>
    </g>
    <g id="ytick_25">
     <g id="line2d_51">
      <g>
       <use style="stroke:#000000;stroke-width:0.25;" x="591.428571" xlink:href="#m2802495367" y="96.260109"/>
      </g>
     </g>
     <g id="text_56">
      <text style="font-family:DejaVu Sans;font-size:6px;font-style:normal;font-weight:normal;text-anchor:end;" transform="rotate(-0, 584.428571, 98.53964)" x="584.428571" y="98.53964">0</text>
     </g>
    </g>
    <g id="ytick_26">
     <g id="line2d_52">
      <g>
       <use style="stroke:#000000;stroke-width:0.25;" x="591.428571" xlink:href="#m2802495367" y="71.168739"/>
      </g>
     </g>
     <g id="text_57">
      <text style="font-family:DejaVu Sans;font-size:6px;font-style:normal;font-weight:normal;text-anchor:end;" transform="rotate(-0, 584.428571, 73.44827)" x="584.428571" y="73.44827">5</text>
     </g>
    </g>
    <g id="text_58">
     <text style="font-family:DejaVu Sans;font-size:8px;font-style:normal;font-weight:normal;text-anchor:middle;" transform="rotate(-90, 566.102009, 102.6)" x="566.102009" y="102.6">rf 10</text>
    </g>
   </g>
   <g id="line2d_53">
    <path clip-path="url(#p4d85fd3138)" d="M 591.428571 160.530368 
L 592.363636 159.415543 
L 593.298701 158.300718 
L 594.233766 157.185893 
L 595.168831 156.071069 
L 596.103896 154.956244 
L 597.038961 153.841419 
L 597.974026 152.726595 
L 598.909091 151.61177 
L 599.844156 150.496945 
L 600.779221 149.38212 
L 601.714286 148.267296 
L 602.649351 147.152471 
L 603.584416 146.037646 
L 604.519481 144.922821 
L 605.454545 143.807997 
L 606.38961 142.693172 
L 607.324675 141.578347 
L 608.25974 140.463523 
L 609.194805 139.348698 
L 610.12987 138.233873 
L 611.064935 137.119048 
L 612 136.004224 
L 612.935065 134.889399 
L 613.87013 133.774574 
L 614.805195 132.659749 
L 615.74026 131.544925 
L 616.675325 130.4301 
L 617.61039 129.315275 
L 618.545455 128.200451 
L 619.480519 127.085626 
L 620.415584 125.970801 
L 621.350649 124.855976 
L 622.285714 123.741152 
L 623.220779 122.626327 
L 624.155844 121.511502 
L 625.090909 120.396677 
L 626.025974 119.281853 
L 626.961039 118.167028 
L 627.896104 117.052203 
L 628.831169 115.937379 
L 629.766234 114.822554 
L 630.701299 113.707729 
L 631.636364 112.592904 
L 632.571429 111.47808 
L 633.506494 110.363255 
L 634.441558 109.24843 
L 635.376623 108.133605 
L 636.311688 107.018781 
L 637.246753 105.903956 
L 638.181818 104.789131 
L 639.116883 103.674306 
L 640.051948 102.559482 
L 640.987013 101.444657 
L 641.922078 100.329832 
L 642.857143 99.215008 
L 643.792208 98.100183 
L 644.727273 96.985358 
L 645.662338 95.870533 
L 646.597403 94.755709 
L 647.532468 93.640884 
L 648.467532 92.526059 
L 649.402597 91.411234 
L 650.337662 90.29641 
L 651.272727 89.181585 
L 652.207792 88.06676 
L 653.142857 86.951936 
L 654.077922 85.837111 
L 655.012987 84.722286 
L 655.948052 83.607461 
L 656.883117 82.492637 
L 657.818182 81.377812 
L 658.753247 80.262987 
L 659.688312 79.148162 
L 660.623377 78.033338 
L 661.558442 76.918513 
L 662.493506 75.803688 
L 663.428571 74.688864 
L 664.363636 73.574039 
L 665.298701 72.459214 
L 666.233766 71.344389 
L 667.168831 70.229565 
L 668.103896 69.11474 
L 669.038961 67.999915 
L 669.974026 66.88509 
L 670.909091 65.770266 
L 671.844156 64.655441 
L 672.779221 63.540616 
L 673.714286 62.425792 
L 674.649351 61.310967 
L 675.584416 60.196142 
L 676.519481 59.081317 
L 677.454545 57.966493 
L 678.38961 56.851668 
L 679.324675 55.736843 
L 680.25974 54.622018 
L 681.194805 53.507194 
L 682.12987 52.392369 
L 683.064935 51.277544 
L 684 50.162719 
" style="fill:none;stroke:#000000;stroke-linecap:square;"/>
   </g>
   <g id="line2d_54">
    <path clip-path="url(#p4d85fd3138)" d="M 591.428571 148.885714 
L 684 56.314286 
" style="fill:none;stroke:#ff0000;stroke-dasharray:7.4,3.2;stroke-dashoffset:0;stroke-width:2;"/>
   </g>
   <g id="patch_23">
    <path d="M 591.428571 148.885714 
L 591.428571 56.314286 
" style="fill:none;stroke:#000000;stroke-linecap:square;stroke-linejoin:miter;stroke-width:0.25;"/>
   </g>
   <g id="patch_24">
    <path d="M 684 148.885714 
L 684 56.314286 
" style="fill:none;stroke:#000000;stroke-linecap:square;stroke-linejoin:miter;stroke-width:0.25;"/>
   </g>
   <g id="patch_25">
    <path d="M 591.428571 148.885714 
L 684 148.885714 
" style="fill:none;stroke:#000000;stroke-linecap:square;stroke-linejoin:miter;stroke-width:0.25;"/>
   </g>
   <g id="patch_26">
    <path d="M 591.428571 56.314286 
L 684 56.314286 
" style="fill:none;stroke:#000000;stroke-linecap:square;stroke-linejoin:miter;stroke-width:0.25;"/>
   </g>
   <g id="text_59">
    <text style="font-family:DejaVu Sans;font-size:12px;font-style:normal;font-weight:normal;text-anchor:start;" transform="rotate(-0, 591.428571, 50.314286)" x="591.428571" y="50.314286">y0</text>
   </g>
  </g>
  <g id="text_60">
   <text style="font-family:DejaVu Sans;font-size:10px;font-style:normal;font-weight:normal;text-anchor:start;" transform="rotate(-0, 7.2, 21.6)" x="7.2" y="21.6">Cells fit to both rf-5 and rf-10</text>
  </g>
  <g id="text_61">
   <text style="font-family:DejaVu Sans;font-size:8px;font-style:normal;font-weight:normal;text-anchor:start;" transform="rotate(-0, 0, 6.11375)" x="0" y="6.11375">traces001|fit-2dgaus_dff_sphr-thr-0.50|drop_repeats</text>
  </g>
 </g>
 <defs>
  <clipPath id="p0735eb9ec7">
   <rect height="92.571429" width="92.571429" x="36" y="56.314286"/>
  </clipPath>
  <clipPath id="pfc9b86d2a1">
   <rect height="92.571429" width="92.571429" x="174.857143" y="56.314286"/>
  </clipPath>
  <clipPath id="p36dd796e56">
   <rect height="92.571429" width="92.571429" x="313.714286" y="56.314286"/>
  </clipPath>
  <clipPath id="pc1376a5228">
   <rect height="92.571429" width="92.571429" x="452.571429" y="56.314286"/>
  </clipPath>
  <clipPath id="p4d85fd3138">
   <rect height="92.571429" width="92.571429" x="591.428571" y="56.314286"/>
  </clipPath>
 </defs>
</svg>
