<?xml version="1.0" encoding="utf-8" standalone="no"?>
<!DOCTYPE svg PUBLIC "-//W3C//DTD SVG 1.1//EN"
  "http://www.w3.org/Graphics/SVG/1.1/DTD/svg11.dtd">
<!-- Created with matplotlib (https://matplotlib.org/) -->
<svg height="288pt" version="1.1" viewBox="0 0 288 288" width="288pt" xmlns="http://www.w3.org/2000/svg" xmlns:xlink="http://www.w3.org/1999/xlink">
 <metadata>
  <rdf:RDF xmlns:cc="http://creativecommons.org/ns#" xmlns:dc="http://purl.org/dc/elements/1.1/" xmlns:rdf="http://www.w3.org/1999/02/22-rdf-syntax-ns#">
   <cc:Work>
    <dc:type rdf:resource="http://purl.org/dc/dcmitype/StillImage"/>
    <dc:date>2021-04-17T15:01:15.216979</dc:date>
    <dc:format>image/svg+xml</dc:format>
    <dc:creator>
     <cc:Agent>
      <dc:title>Matplotlib v3.3.4, https://matplotlib.org/</dc:title>
     </cc:Agent>
    </dc:creator>
   </cc:Work>
  </rdf:RDF>
 </metadata>
 <defs>
  <style type="text/css">*{stroke-linecap:butt;stroke-linejoin:round;}</style>
 </defs>
 <g id="figure_1">
  <g id="patch_1">
   <path d="M 0 288 
L 288 288 
L 288 0 
L 0 0 
z
" style="fill:#ffffff;"/>
  </g>
  <g id="axes_1">
   <g id="patch_2">
    <path d="M 72 230.4 
L 259.2 230.4 
L 259.2 57.6 
L 72 57.6 
z
" style="fill:#ffffff;"/>
   </g>
   <g id="PathCollection_1">
    <defs>
     <path d="M 0 3.5 
C 0.928211 3.5 1.81853 3.131218 2.474874 2.474874 
C 3.131218 1.81853 3.5 0.928211 3.5 -0 
C 3.5 -0.928211 3.131218 -1.81853 2.474874 -2.474874 
C 1.81853 -3.131218 0.928211 -3.5 0 -3.5 
C -0.928211 -3.5 -1.81853 -3.131218 -2.474874 -2.474874 
C -3.131218 -1.81853 -3.5 -0.928211 -3.5 0 
C -3.5 0.928211 -3.131218 1.81853 -2.474874 2.474874 
C -1.81853 3.131218 -0.928211 3.5 0 3.5 
z
" id="C0_0_c74000e521"/>
    </defs>
    <g clip-path="url(#p0c0aa16aa3)">
     <use style="fill:#ff86ff;" x="80.519873" xlink:href="#C0_0_c74000e521" y="153.785076"/>
    </g>
    <g clip-path="url(#p0c0aa16aa3)">
     <use style="fill:#ff86ff;" x="90.20078" xlink:href="#C0_0_c74000e521" y="147.068833"/>
    </g>
    <g clip-path="url(#p0c0aa16aa3)">
     <use style="fill:#ff86ff;" x="80.509091" xlink:href="#C0_0_c74000e521" y="133.171581"/>
    </g>
    <g clip-path="url(#p0c0aa16aa3)">
     <use style="fill:#ff86ff;" x="87.948563" xlink:href="#C0_0_c74000e521" y="96.961779"/>
    </g>
    <g clip-path="url(#p0c0aa16aa3)">
     <use style="fill:#ff86ff;" x="90.89663" xlink:href="#C0_0_c74000e521" y="99.545361"/>
    </g>
    <g clip-path="url(#p0c0aa16aa3)">
     <use style="fill:#ff86ff;" x="93.708652" xlink:href="#C0_0_c74000e521" y="99.351186"/>
    </g>
   </g>
   <g id="PathCollection_2">
    <defs>
     <path d="M 0 3.5 
C 0.928211 3.5 1.81853 3.131218 2.474874 2.474874 
C 3.131218 1.81853 3.5 0.928211 3.5 -0 
C 3.5 -0.928211 3.131218 -1.81853 2.474874 -2.474874 
C 1.81853 -3.131218 0.928211 -3.5 0 -3.5 
C -0.928211 -3.5 -1.81853 -3.131218 -2.474874 -2.474874 
C -3.131218 -1.81853 -3.5 -0.928211 -3.5 0 
C -3.5 0.928211 -3.131218 1.81853 -2.474874 2.474874 
C -1.81853 3.131218 -0.928211 3.5 0 3.5 
z
" id="C1_0_39e2491080"/>
    </defs>
    <g clip-path="url(#p0c0aa16aa3)">
     <use style="fill:#5e1d8b;" x="171.71525" xlink:href="#C1_0_39e2491080" y="177.045502"/>
    </g>
    <g clip-path="url(#p0c0aa16aa3)">
     <use style="fill:#5e1d8b;" x="168.048166" xlink:href="#C1_0_39e2491080" y="146.176442"/>
    </g>
    <g clip-path="url(#p0c0aa16aa3)">
     <use style="fill:#5e1d8b;" x="161.838456" xlink:href="#C1_0_39e2491080" y="157.917818"/>
    </g>
    <g clip-path="url(#p0c0aa16aa3)">
     <use style="fill:#5e1d8b;" x="163.353986" xlink:href="#C1_0_39e2491080" y="186.765732"/>
    </g>
    <g clip-path="url(#p0c0aa16aa3)">
     <use style="fill:#5e1d8b;" x="165.729171" xlink:href="#C1_0_39e2491080" y="127.516808"/>
    </g>
    <g clip-path="url(#p0c0aa16aa3)">
     <use style="fill:#5e1d8b;" x="166.521613" xlink:href="#C1_0_39e2491080" y="153.752682"/>
    </g>
    <g clip-path="url(#p0c0aa16aa3)">
     <use style="fill:#5e1d8b;" x="168.154448" xlink:href="#C1_0_39e2491080" y="196.235882"/>
    </g>
    <g clip-path="url(#p0c0aa16aa3)">
     <use style="fill:#5e1d8b;" x="160.855856" xlink:href="#C1_0_39e2491080" y="170.517017"/>
    </g>
   </g>
   <g id="PathCollection_3">
    <defs>
     <path d="M 0 3.5 
C 0.928211 3.5 1.81853 3.131218 2.474874 2.474874 
C 3.131218 1.81853 3.5 0.928211 3.5 -0 
C 3.5 -0.928211 3.131218 -1.81853 2.474874 -2.474874 
C 1.81853 -3.131218 0.928211 -3.5 0 -3.5 
C -0.928211 -3.5 -1.81853 -3.131218 -2.474874 -2.474874 
C -3.131218 -1.81853 -3.5 -0.928211 -3.5 0 
C -3.5 0.928211 -3.131218 1.81853 -2.474874 2.474874 
C -1.81853 3.131218 -0.928211 3.5 0 3.5 
z
" id="C2_0_8c7a3a7b58"/>
    </defs>
    <g clip-path="url(#p0c0aa16aa3)">
     <use style="fill:#1accff;" x="242.001674" xlink:href="#C2_0_8c7a3a7b58" y="136.257717"/>
    </g>
    <g clip-path="url(#p0c0aa16aa3)">
     <use style="fill:#1accff;" x="246.211078" xlink:href="#C2_0_8c7a3a7b58" y="195.293795"/>
    </g>
    <g clip-path="url(#p0c0aa16aa3)">
     <use style="fill:#1accff;" x="248.066997" xlink:href="#C2_0_8c7a3a7b58" y="150.018146"/>
    </g>
    <g clip-path="url(#p0c0aa16aa3)">
     <use style="fill:#1accff;" x="250.690909" xlink:href="#C2_0_8c7a3a7b58" y="130.651252"/>
    </g>
    <g clip-path="url(#p0c0aa16aa3)">
     <use style="fill:#1accff;" x="238.301188" xlink:href="#C2_0_8c7a3a7b58" y="134.656526"/>
    </g>
    <g clip-path="url(#p0c0aa16aa3)">
     <use style="fill:#1accff;" x="243.414325" xlink:href="#C2_0_8c7a3a7b58" y="153.378873"/>
    </g>
   </g>
   <g id="PathCollection_4"/>
   <g id="PathCollection_5"/>
   <g id="PathCollection_6"/>
   <g id="PathCollection_7">
    <defs>
     <path d="M 6.767896 0 
L -6.767896 -0 
" id="m4273141de0" style="stroke:#262626;stroke-width:4.05;"/>
    </defs>
    <g clip-path="url(#p0c0aa16aa3)">
     <use style="fill:#262626;stroke:#262626;stroke-width:4.05;" x="86.898934" xlink:href="#m4273141de0" y="121.647303"/>
    </g>
   </g>
   <g id="line2d_1">
    <path clip-path="url(#p0c0aa16aa3)" d="M 86.898934 140.956405 
L 86.898934 104.183112 
" style="fill:none;stroke:#262626;stroke-linecap:square;stroke-width:2.7;"/>
   </g>
   <g id="line2d_2">
    <path clip-path="url(#p0c0aa16aa3)" d="M 0 0 
" style="fill:none;stroke:#262626;stroke-linecap:square;stroke-width:2.7;"/>
   </g>
   <g id="line2d_3">
    <path clip-path="url(#p0c0aa16aa3)" d="M 0 0 
" style="fill:none;stroke:#262626;stroke-linecap:square;stroke-width:2.7;"/>
   </g>
   <g id="matplotlib.axis_1">
    <g id="xtick_1">
     <g id="line2d_4"/>
     <g id="text_1">
      <text style="font-family:DejaVu Sans;font-size:6px;font-stretch:normal;font-style:normal;font-weight:normal;text-anchor:middle;" transform="rotate(-0, 86.898934, 238.459063)" x="86.898934" y="238.459063">V1</text>
     </g>
    </g>
    <g id="xtick_2">
     <g id="line2d_5"/>
     <g id="text_2">
      <text style="font-family:DejaVu Sans;font-size:6px;font-stretch:normal;font-style:normal;font-weight:normal;text-anchor:middle;" transform="rotate(-0, 165.592014, 238.459063)" x="165.592014" y="238.459063">Lm</text>
     </g>
    </g>
    <g id="xtick_3">
     <g id="line2d_6"/>
     <g id="text_3">
      <text style="font-family:DejaVu Sans;font-size:6px;font-stretch:normal;font-style:normal;font-weight:normal;text-anchor:middle;" transform="rotate(-0, 244.285095, 238.459063)" x="244.285095" y="238.459063">Li</text>
     </g>
    </g>
   </g>
   <g id="matplotlib.axis_2">
    <g id="ytick_1">
     <g id="line2d_7">
      <defs>
       <path d="M 0 0 
L -3.5 0 
" id="m5fd62a3823" style="stroke:#000000;stroke-width:0.25;"/>
      </defs>
      <g>
       <use style="stroke:#000000;stroke-width:0.25;" x="70" xlink:href="#m5fd62a3823" y="230.4"/>
      </g>
     </g>
     <g id="text_4">
      <text style="font-family:DejaVu Sans;font-size:6px;font-stretch:normal;font-style:normal;font-weight:normal;text-anchor:end;" transform="rotate(-0, 63, 232.679531)" x="63" y="232.679531">−1.0</text>
     </g>
    </g>
    <g id="ytick_2">
     <g id="line2d_8">
      <g>
       <use style="stroke:#000000;stroke-width:0.25;" x="70" xlink:href="#m5fd62a3823" y="144"/>
      </g>
     </g>
     <g id="text_5">
      <text style="font-family:DejaVu Sans;font-size:6px;font-stretch:normal;font-style:normal;font-weight:normal;text-anchor:end;" transform="rotate(-0, 63, 146.279531)" x="63" y="146.279531">−0.5</text>
     </g>
    </g>
    <g id="ytick_3">
     <g id="line2d_9">
      <g>
       <use style="stroke:#000000;stroke-width:0.25;" x="70" xlink:href="#m5fd62a3823" y="57.6"/>
      </g>
     </g>
     <g id="text_6">
      <text style="font-family:DejaVu Sans;font-size:6px;font-stretch:normal;font-style:normal;font-weight:normal;text-anchor:end;" transform="rotate(-0, 63, 59.879531)" x="63" y="59.879531">0.0</text>
     </g>
    </g>
    <g id="text_7">
     <text style="font-family:DejaVu Sans;font-size:6px;font-stretch:normal;font-style:normal;font-weight:normal;text-anchor:middle;" transform="rotate(-90, 43.015625, 144)" x="43.015625" y="144">pearsons_r</text>
    </g>
   </g>
   <g id="PathCollection_8">
    <defs>
     <path d="M 6.767896 0 
L -6.767896 -0 
" id="md3997af304" style="stroke:#131313;stroke-width:4.05;"/>
    </defs>
    <g clip-path="url(#p0c0aa16aa3)">
     <use style="fill:#131313;stroke:#131313;stroke-width:4.05;" x="165.592014" xlink:href="#md3997af304" y="164.490985"/>
    </g>
   </g>
   <g id="line2d_10">
    <path clip-path="url(#p0c0aa16aa3)" d="M 0 0 
" style="fill:none;stroke:#131313;stroke-linecap:square;stroke-width:2.7;"/>
   </g>
   <g id="line2d_11">
    <path clip-path="url(#p0c0aa16aa3)" d="M 165.592014 178.186425 
L 165.592014 150.1826 
" style="fill:none;stroke:#131313;stroke-linecap:square;stroke-width:2.7;"/>
   </g>
   <g id="line2d_12">
    <path clip-path="url(#p0c0aa16aa3)" d="M 0 0 
" style="fill:none;stroke:#131313;stroke-linecap:square;stroke-width:2.7;"/>
   </g>
   <g id="line2d_13">
    <path clip-path="url(#p0c0aa16aa3)" d="M 86.898934 74.88 
L 86.898934 74.88 
L 165.592014 74.88 
L 165.592014 74.88 
" style="fill:none;stroke:#000000;stroke-linecap:square;stroke-width:0.25;"/>
   </g>
   <g id="patch_3">
    <path d="M 70 230.4 
L 70 57.6 
" style="fill:none;stroke:#000000;stroke-linecap:square;stroke-linejoin:miter;stroke-width:0.25;"/>
   </g>
   <g id="PathCollection_9">
    <defs>
     <path d="M 6.767896 0 
L -6.767896 -0 
" id="m2eb8ef92db" style="stroke:#000000;stroke-width:4.05;"/>
    </defs>
    <g clip-path="url(#p0c0aa16aa3)">
     <use style="stroke:#000000;stroke-width:4.05;" x="244.285095" xlink:href="#m2eb8ef92db" y="150.042718"/>
    </g>
   </g>
   <g id="line2d_14">
    <path clip-path="url(#p0c0aa16aa3)" d="M 0 0 
" style="fill:none;stroke:#000000;stroke-linecap:square;stroke-width:2.7;"/>
   </g>
   <g id="line2d_15">
    <path clip-path="url(#p0c0aa16aa3)" d="M 0 0 
" style="fill:none;stroke:#000000;stroke-linecap:square;stroke-width:2.7;"/>
   </g>
   <g id="line2d_16">
    <path clip-path="url(#p0c0aa16aa3)" d="M 244.285095 170.0957 
L 244.285095 136.304025 
" style="fill:none;stroke:#000000;stroke-linecap:square;stroke-width:2.7;"/>
   </g>
   <g id="text_8">
    <text style="font-family:DejaVu Sans;font-size:6px;font-stretch:normal;font-style:normal;font-weight:normal;text-anchor:start;" transform="rotate(-0, 126.245474, 73.8)" x="126.245474" y="73.8">*</text>
   </g>
  </g>
  <g id="text_9">
   <text style="font-family:DejaVu Sans;font-size:8px;font-stretch:normal;font-style:normal;font-weight:normal;text-anchor:start;" transform="rotate(-0, 0, 6.07875)" x="0" y="6.07875">neuraldata_traces001_dff_ROC-thr-0.05_plushalf_noRF</text>
  </g>
 </g>
 <defs>
  <clipPath id="p0c0aa16aa3">
   <rect height="172.8" width="187.2" x="72" y="57.6"/>
  </clipPath>
 </defs>
</svg>
