<?xml version="1.0" encoding="utf-8" standalone="no"?>
<!DOCTYPE svg PUBLIC "-//W3C//DTD SVG 1.1//EN"
  "http://www.w3.org/Graphics/SVG/1.1/DTD/svg11.dtd">
<!-- Created with matplotlib (https://matplotlib.org/) -->
<svg height="360pt" version="1.1" viewBox="0 0 576 360" width="576pt" xmlns="http://www.w3.org/2000/svg" xmlns:xlink="http://www.w3.org/1999/xlink">
 <metadata>
  <rdf:RDF xmlns:cc="http://creativecommons.org/ns#" xmlns:dc="http://purl.org/dc/elements/1.1/" xmlns:rdf="http://www.w3.org/1999/02/22-rdf-syntax-ns#">
   <cc:Work>
    <dc:type rdf:resource="http://purl.org/dc/dcmitype/StillImage"/>
    <dc:date>2021-04-17T14:57:12.669684</dc:date>
    <dc:format>image/svg+xml</dc:format>
    <dc:creator>
     <cc:Agent>
      <dc:title>Matplotlib v3.3.4, https://matplotlib.org/</dc:title>
     </cc:Agent>
    </dc:creator>
   </cc:Work>
  </rdf:RDF>
 </metadata>
 <defs>
  <style type="text/css">*{stroke-linecap:butt;stroke-linejoin:round;}</style>
 </defs>
 <g id="figure_1">
  <g id="patch_1">
   <path d="M 0 360 
L 576 360 
L 576 0 
L 0 0 
z
" style="fill:#ffffff;"/>
  </g>
  <g id="axes_1">
   <g id="patch_2">
    <path d="M 57.6 306 
L 280.145455 306 
L 280.145455 126 
L 57.6 126 
z
" style="fill:#ffffff;"/>
   </g>
   <g id="matplotlib.axis_1">
    <g id="xtick_1">
     <g id="line2d_1">
      <defs>
       <path d="M 0 0 
L 0 3.5 
" id="m5fcf002965" style="stroke:#000000;stroke-width:0.25;"/>
      </defs>
      <g>
       <use style="stroke:#000000;stroke-width:0.25;" x="67.715702" xlink:href="#m5fcf002965" y="308"/>
      </g>
     </g>
     <g id="text_1">
      <text style="font-family:DejaVu Sans;font-size:6px;font-stretch:normal;font-style:normal;font-weight:normal;text-anchor:middle;" transform="rotate(-0, 67.715702, 319.559062)" x="67.715702" y="319.559062">0</text>
     </g>
    </g>
    <g id="xtick_2">
     <g id="line2d_2">
      <g>
       <use style="stroke:#000000;stroke-width:0.25;" x="168.872727" xlink:href="#m5fcf002965" y="308"/>
      </g>
     </g>
     <g id="text_2">
      <text style="font-family:DejaVu Sans;font-size:6px;font-stretch:normal;font-style:normal;font-weight:normal;text-anchor:middle;" transform="rotate(-0, 168.872727, 319.559062)" x="168.872727" y="319.559062">0.5</text>
     </g>
    </g>
    <g id="xtick_3">
     <g id="line2d_3">
      <g>
       <use style="stroke:#000000;stroke-width:0.25;" x="270.029752" xlink:href="#m5fcf002965" y="308"/>
      </g>
     </g>
     <g id="text_3">
      <text style="font-family:DejaVu Sans;font-size:6px;font-stretch:normal;font-style:normal;font-weight:normal;text-anchor:middle;" transform="rotate(-0, 270.029752, 319.559062)" x="270.029752" y="319.559062">1</text>
     </g>
    </g>
    <g id="text_4">
     <text style="font-family:DejaVu Sans;font-size:6px;font-stretch:normal;font-style:normal;font-weight:normal;text-anchor:middle;" transform="rotate(-0, 168.872727, 329.365937)" x="168.872727" y="329.365937">Morph level</text>
    </g>
   </g>
   <g id="matplotlib.axis_2">
    <g id="ytick_1">
     <g id="line2d_4">
      <defs>
       <path d="M 0 0 
L -3.5 0 
" id="md1cbaa11d6" style="stroke:#000000;stroke-width:0.25;"/>
      </defs>
      <g>
       <use style="stroke:#000000;stroke-width:0.25;" x="55.6" xlink:href="#md1cbaa11d6" y="306"/>
      </g>
     </g>
     <g id="text_5">
      <text style="font-family:DejaVu Sans;font-size:6px;font-stretch:normal;font-style:normal;font-weight:normal;text-anchor:end;" transform="rotate(-0, 48.6, 308.279531)" x="48.6" y="308.279531">0.0</text>
     </g>
    </g>
    <g id="ytick_2">
     <g id="line2d_5">
      <g>
       <use style="stroke:#000000;stroke-width:0.25;" x="55.6" xlink:href="#md1cbaa11d6" y="270.356436"/>
      </g>
     </g>
     <g id="text_6">
      <text style="font-family:DejaVu Sans;font-size:6px;font-stretch:normal;font-style:normal;font-weight:normal;text-anchor:end;" transform="rotate(-0, 48.6, 272.635967)" x="48.6" y="272.635967">0.2</text>
     </g>
    </g>
    <g id="ytick_3">
     <g id="line2d_6">
      <g>
       <use style="stroke:#000000;stroke-width:0.25;" x="55.6" xlink:href="#md1cbaa11d6" y="234.712871"/>
      </g>
     </g>
     <g id="text_7">
      <text style="font-family:DejaVu Sans;font-size:6px;font-stretch:normal;font-style:normal;font-weight:normal;text-anchor:end;" transform="rotate(-0, 48.6, 236.992403)" x="48.6" y="236.992403">0.4</text>
     </g>
    </g>
    <g id="ytick_4">
     <g id="line2d_7">
      <g>
       <use style="stroke:#000000;stroke-width:0.25;" x="55.6" xlink:href="#md1cbaa11d6" y="199.069307"/>
      </g>
     </g>
     <g id="text_8">
      <text style="font-family:DejaVu Sans;font-size:6px;font-stretch:normal;font-style:normal;font-weight:normal;text-anchor:end;" transform="rotate(-0, 48.6, 201.348838)" x="48.6" y="201.348838">0.6</text>
     </g>
    </g>
    <g id="ytick_5">
     <g id="line2d_8">
      <g>
       <use style="stroke:#000000;stroke-width:0.25;" x="55.6" xlink:href="#md1cbaa11d6" y="163.425743"/>
      </g>
     </g>
     <g id="text_9">
      <text style="font-family:DejaVu Sans;font-size:6px;font-stretch:normal;font-style:normal;font-weight:normal;text-anchor:end;" transform="rotate(-0, 48.6, 165.705274)" x="48.6" y="165.705274">0.8</text>
     </g>
    </g>
    <g id="ytick_6">
     <g id="line2d_9">
      <g>
       <use style="stroke:#000000;stroke-width:0.25;" x="55.6" xlink:href="#md1cbaa11d6" y="127.782178"/>
      </g>
     </g>
     <g id="text_10">
      <text style="font-family:DejaVu Sans;font-size:6px;font-stretch:normal;font-style:normal;font-weight:normal;text-anchor:end;" transform="rotate(-0, 48.6, 130.061709)" x="48.6" y="130.061709">1.0</text>
     </g>
    </g>
    <g id="text_11">
     <text style="font-family:DejaVu Sans;font-size:6px;font-stretch:normal;font-style:normal;font-weight:normal;text-anchor:middle;" transform="rotate(-90, 33.810313, 216)" x="33.810313" y="216">Normalized df/f</text>
    </g>
   </g>
   <g id="line2d_10">
    <path clip-path="url(#pcf5904d5df)" d="M 67.715702 143.19355 
L 93.004959 186.910566 
L 118.294215 199.621476 
L 143.583471 189.886669 
L 168.872727 201.319394 
L 194.161983 183.870866 
L 219.45124 127.782178 
L 244.740496 196.46941 
L 270.029752 218.346718 
" style="fill:none;stroke:#808080;stroke-linecap:square;stroke-width:0.25;"/>
   </g>
   <g id="line2d_11">
    <path clip-path="url(#pcf5904d5df)" d="M 67.715702 127.782178 
L 93.004959 136.678229 
L 118.294215 137.271961 
L 143.583471 142.135142 
L 168.872727 140.145756 
L 194.161983 146.623786 
L 219.45124 130.330402 
L 244.740496 148.198556 
L 270.029752 142.867987 
" style="fill:none;stroke:#808080;stroke-linecap:square;stroke-width:0.25;"/>
   </g>
   <g id="line2d_12">
    <path clip-path="url(#pcf5904d5df)" d="M 67.715702 137.332244 
L 93.004959 138.469159 
L 118.294215 143.461052 
L 143.583471 145.923009 
L 168.872727 147.282834 
L 194.161983 142.235582 
L 219.45124 141.285422 
L 244.740496 153.374728 
L 270.029752 127.782178 
" style="fill:none;stroke:#808080;stroke-linecap:square;stroke-width:0.25;"/>
   </g>
   <g id="line2d_13">
    <path clip-path="url(#pcf5904d5df)" d="M 67.715702 127.782178 
L 93.004959 150.341137 
L 118.294215 156.834464 
L 143.583471 142.020095 
L 168.872727 156.68647 
L 194.161983 154.661169 
L 219.45124 161.358042 
L 244.740496 163.672836 
L 270.029752 164.419036 
" style="fill:none;stroke:#808080;stroke-linecap:square;stroke-width:0.25;"/>
   </g>
   <g id="line2d_14">
    <path clip-path="url(#pcf5904d5df)" d="M 67.715702 127.782178 
L 93.004959 134.528123 
L 118.294215 138.677777 
L 143.583471 131.733294 
L 168.872727 147.486373 
L 194.161983 133.870537 
L 219.45124 148.56432 
L 244.740496 138.409437 
L 270.029752 135.917149 
" style="fill:none;stroke:#808080;stroke-linecap:square;stroke-width:0.25;"/>
   </g>
   <g id="line2d_15">
    <path clip-path="url(#pcf5904d5df)" d="M 67.715702 161.374534 
L 93.004959 139.497257 
L 118.294215 145.674788 
L 143.583471 155.592585 
L 168.872727 155.795202 
L 194.161983 155.065331 
L 219.45124 140.13304 
L 244.740496 159.219911 
L 270.029752 127.782178 
" style="fill:none;stroke:#808080;stroke-linecap:square;stroke-width:0.25;"/>
   </g>
   <g id="line2d_16">
    <path clip-path="url(#pcf5904d5df)" d="M 67.715702 172.549837 
L 93.004959 157.425995 
L 118.294215 141.07495 
L 143.583471 150.968508 
L 168.872727 132.787074 
L 194.161983 127.782178 
L 219.45124 155.945838 
L 244.740496 161.2223 
L 270.029752 150.173651 
" style="fill:none;stroke:#808080;stroke-linecap:square;stroke-width:0.25;"/>
   </g>
   <g id="line2d_17">
    <path clip-path="url(#pcf5904d5df)" d="M 67.715702 138.450357 
L 93.004959 145.925823 
L 118.294215 152.131329 
L 143.583471 151.994804 
L 168.872727 146.466371 
L 194.161983 153.126072 
L 219.45124 144.546465 
L 244.740496 151.677567 
L 270.029752 127.782178 
" style="fill:none;stroke:#808080;stroke-linecap:square;stroke-width:0.25;"/>
   </g>
   <g id="line2d_18">
    <path clip-path="url(#pcf5904d5df)" d="M 67.715702 127.782178 
L 93.004959 137.57826 
L 118.294215 143.884562 
L 143.583471 147.497871 
L 168.872727 142.858129 
L 194.161983 159.598838 
L 219.45124 144.947602 
L 244.740496 142.782845 
L 270.029752 142.797781 
" style="fill:none;stroke:#808080;stroke-linecap:square;stroke-width:0.25;"/>
   </g>
   <g id="line2d_19">
    <path clip-path="url(#pcf5904d5df)" d="M 67.715702 183.846617 
L 93.004959 177.270701 
L 118.294215 180.354349 
L 143.583471 176.838325 
L 168.872727 145.05932 
L 194.161983 131.524462 
L 219.45124 159.04267 
L 244.740496 131.641449 
L 270.029752 127.782178 
" style="fill:none;stroke:#808080;stroke-linecap:square;stroke-width:0.25;"/>
   </g>
   <g id="line2d_20">
    <path clip-path="url(#pcf5904d5df)" d="M 67.715702 151.234021 
L 93.004959 163.697759 
L 118.294215 127.782178 
L 143.583471 159.280167 
L 168.872727 134.275337 
L 194.161983 160.845861 
L 219.45124 170.163958 
L 244.740496 156.945925 
L 270.029752 161.91188 
" style="fill:none;stroke:#808080;stroke-linecap:square;stroke-width:0.25;"/>
   </g>
   <g id="line2d_21">
    <path clip-path="url(#pcf5904d5df)" d="M 67.715702 150.384933 
L 93.004959 133.322418 
L 118.294215 138.257786 
L 143.583471 127.782178 
L 168.872727 136.039274 
L 194.161983 147.591696 
L 219.45124 136.756816 
L 244.740496 133.263644 
L 270.029752 137.282979 
" style="fill:none;stroke:#808080;stroke-linecap:square;stroke-width:0.25;"/>
   </g>
   <g id="line2d_22">
    <path clip-path="url(#pcf5904d5df)" d="M 67.715702 151.819658 
L 93.004959 152.811177 
L 118.294215 147.705038 
L 143.583471 140.065206 
L 168.872727 148.007478 
L 194.161983 153.890618 
L 219.45124 143.80516 
L 244.740496 137.112913 
L 270.029752 127.782178 
" style="fill:none;stroke:#808080;stroke-linecap:square;stroke-width:0.25;"/>
   </g>
   <g id="line2d_23">
    <path clip-path="url(#pcf5904d5df)" d="M 67.715702 156.182104 
L 93.004959 156.091499 
L 118.294215 158.315487 
L 143.583471 127.782178 
L 168.872727 138.201963 
L 194.161983 152.715581 
L 219.45124 139.629594 
L 244.740496 152.763082 
L 270.029752 152.769424 
" style="fill:none;stroke:#808080;stroke-linecap:square;stroke-width:0.25;"/>
   </g>
   <g id="line2d_24">
    <path clip-path="url(#pcf5904d5df)" d="M 67.715702 144.776896 
L 93.004959 148.27231 
L 118.294215 136.534175 
L 143.583471 156.42424 
L 168.872727 160.967256 
L 194.161983 139.141405 
L 219.45124 149.180402 
L 244.740496 127.782178 
L 270.029752 146.361908 
" style="fill:none;stroke:#808080;stroke-linecap:square;stroke-width:0.25;"/>
   </g>
   <g id="line2d_25">
    <path clip-path="url(#pcf5904d5df)" d="M 67.715702 128.117574 
L 93.004959 144.741376 
L 118.294215 144.603536 
L 143.583471 155.617453 
L 168.872727 139.521127 
L 194.161983 133.343961 
L 219.45124 144.516764 
L 244.740496 143.666335 
L 270.029752 127.782178 
" style="fill:none;stroke:#808080;stroke-linecap:square;stroke-width:0.25;"/>
   </g>
   <g id="line2d_26">
    <path clip-path="url(#pcf5904d5df)" d="M 67.715702 147.365767 
L 93.004959 143.276015 
L 118.294215 142.162223 
L 143.583471 136.356496 
L 168.872727 133.806042 
L 194.161983 158.924171 
L 219.45124 145.677974 
L 244.740496 161.638731 
L 270.029752 127.782178 
" style="fill:none;stroke:#808080;stroke-linecap:square;stroke-width:0.25;"/>
   </g>
   <g id="line2d_27">
    <path clip-path="url(#pcf5904d5df)" d="M 67.715702 153.834592 
L 93.004959 136.41913 
L 118.294215 153.900928 
L 143.583471 152.272119 
L 168.872727 137.041335 
L 194.161983 141.530293 
L 219.45124 151.378223 
L 244.740496 162.089014 
L 270.029752 127.782178 
" style="fill:none;stroke:#808080;stroke-linecap:square;stroke-width:0.25;"/>
   </g>
   <g id="line2d_28">
    <path clip-path="url(#pcf5904d5df)" d="M 67.715702 141.952636 
L 93.004959 164.537972 
L 118.294215 144.437744 
L 143.583471 148.234507 
L 168.872727 138.340119 
L 194.161983 144.668807 
L 219.45124 127.782178 
L 244.740496 148.499886 
L 270.029752 148.509627 
" style="fill:none;stroke:#808080;stroke-linecap:square;stroke-width:0.25;"/>
   </g>
   <g id="line2d_29">
    <path clip-path="url(#pcf5904d5df)" d="M 67.715702 127.782178 
L 93.004959 142.401475 
L 118.294215 145.999596 
L 143.583471 149.302515 
L 168.872727 148.162411 
L 194.161983 162.623663 
L 219.45124 161.532473 
L 244.740496 176.697764 
L 270.029752 142.717646 
" style="fill:none;stroke:#808080;stroke-linecap:square;stroke-width:0.25;"/>
   </g>
   <g id="line2d_30">
    <path clip-path="url(#pcf5904d5df)" d="M 67.715702 150.915956 
L 93.004959 163.103158 
L 118.294215 162.345208 
L 143.583471 175.895369 
L 168.872727 161.19967 
L 194.161983 165.455515 
L 219.45124 159.643575 
L 244.740496 178.184794 
L 270.029752 127.782178 
" style="fill:none;stroke:#808080;stroke-linecap:square;stroke-width:0.25;"/>
   </g>
   <g id="line2d_31">
    <path clip-path="url(#pcf5904d5df)" d="M 67.715702 143.691304 
L 93.004959 143.581267 
L 118.294215 127.782178 
L 143.583471 139.517423 
L 168.872727 152.279999 
L 194.161983 151.015015 
L 219.45124 152.19674 
L 244.740496 161.933366 
L 270.029752 141.496243 
" style="fill:none;stroke:#808080;stroke-linecap:square;stroke-width:0.25;"/>
   </g>
   <g id="line2d_32">
    <path clip-path="url(#pcf5904d5df)" d="M 67.715702 153.329579 
L 93.004959 146.205917 
L 118.294215 137.984787 
L 143.583471 149.780435 
L 168.872727 149.093562 
L 194.161983 127.782178 
L 219.45124 147.172701 
L 244.740496 149.140796 
L 270.029752 156.237767 
" style="fill:none;stroke:#808080;stroke-linecap:square;stroke-width:0.25;"/>
   </g>
   <g id="line2d_33">
    <path clip-path="url(#pcf5904d5df)" d="M 67.715702 164.264854 
L 93.004959 127.782178 
L 118.294215 142.398336 
L 143.583471 151.521458 
L 168.872727 144.695987 
L 194.161983 136.296025 
L 219.45124 135.951071 
L 244.740496 143.424159 
L 270.029752 141.143022 
" style="fill:none;stroke:#808080;stroke-linecap:square;stroke-width:0.25;"/>
   </g>
   <g id="line2d_34">
    <path clip-path="url(#pcf5904d5df)" d="M 67.715702 136.782952 
L 93.004959 133.596852 
L 118.294215 127.782178 
L 143.583471 128.308981 
L 168.872727 145.696143 
L 194.161983 146.501644 
L 219.45124 143.135041 
L 244.740496 142.863204 
L 270.029752 130.736233 
" style="fill:none;stroke:#808080;stroke-linecap:square;stroke-width:0.25;"/>
   </g>
   <g id="line2d_35">
    <path clip-path="url(#pcf5904d5df)" d="M 67.715702 159.589836 
L 93.004959 157.545307 
L 118.294215 147.12126 
L 143.583471 148.94058 
L 168.872727 163.719518 
L 194.161983 137.213264 
L 219.45124 127.782178 
L 244.740496 157.340957 
L 270.029752 147.474076 
" style="fill:none;stroke:#808080;stroke-linecap:square;stroke-width:0.25;"/>
   </g>
   <g id="line2d_36">
    <path clip-path="url(#pcf5904d5df)" d="M 67.715702 151.093231 
L 93.004959 137.438161 
L 118.294215 138.374914 
L 143.583471 138.964457 
L 168.872727 136.276539 
L 194.161983 131.450549 
L 219.45124 150.073633 
L 244.740496 147.438756 
L 270.029752 127.782178 
" style="fill:none;stroke:#808080;stroke-linecap:square;stroke-width:0.25;"/>
   </g>
   <g id="line2d_37">
    <path clip-path="url(#pcf5904d5df)" d="M 67.715702 150.642716 
L 93.004959 127.782178 
L 118.294215 144.732767 
L 143.583471 147.420947 
L 168.872727 137.567597 
L 194.161983 144.154801 
L 219.45124 142.508704 
L 244.740496 143.546506 
L 270.029752 154.863 
" style="fill:none;stroke:#808080;stroke-linecap:square;stroke-width:0.25;"/>
   </g>
   <g id="line2d_38">
    <path clip-path="url(#pcf5904d5df)" d="M 67.715702 140.69045 
L 93.004959 145.017075 
L 118.294215 127.782178 
L 143.583471 155.201803 
L 168.872727 157.496098 
L 194.161983 157.366797 
L 219.45124 168.179893 
L 244.740496 171.837484 
L 270.029752 164.006729 
" style="fill:none;stroke:#808080;stroke-linecap:square;stroke-width:0.25;"/>
   </g>
   <g id="line2d_39">
    <path clip-path="url(#pcf5904d5df)" d="M 67.715702 127.782178 
L 93.004959 150.341137 
L 118.294215 156.834464 
L 143.583471 142.020095 
L 168.872727 156.68647 
L 194.161983 154.661169 
L 219.45124 161.358042 
L 244.740496 163.672836 
L 270.029752 164.419036 
" style="fill:none;stroke:#6495ed;stroke-linecap:square;stroke-width:2;"/>
   </g>
   <g id="line2d_40">
    <path clip-path="url(#pcf5904d5df)" d="M 67.715702 143.19355 
L 93.004959 186.910566 
L 118.294215 199.621476 
L 143.583471 189.886669 
L 168.872727 201.319394 
L 194.161983 183.870866 
L 219.45124 127.782178 
L 244.740496 196.46941 
L 270.029752 218.346718 
" style="fill:none;stroke:#ffa500;stroke-linecap:square;stroke-width:2;"/>
   </g>
   <g id="patch_3">
    <path d="M 55.6 306 
L 55.6 127.782178 
" style="fill:none;stroke:#000000;stroke-linecap:square;stroke-linejoin:miter;stroke-width:0.25;"/>
   </g>
   <g id="patch_4">
    <path d="M 67.715702 308 
L 270.029752 308 
" style="fill:none;stroke:#000000;stroke-linecap:square;stroke-linejoin:miter;stroke-width:0.25;"/>
   </g>
   <g id="text_12">
    <text style="font-family:DejaVu Sans;font-size:7.2px;font-stretch:normal;font-style:normal;font-weight:normal;text-anchor:middle;" transform="rotate(-0, 168.872727, 120)" x="168.872727" y="120">Morph tuning</text>
   </g>
   <g id="legend_1">
    <g id="patch_5">
     <path d="M 109.12679 87 
L 228.618665 87 
Q 229.818665 87 229.818665 85.8 
L 229.818665 68.78625 
Q 229.818665 67.58625 228.618665 67.58625 
L 109.12679 67.58625 
Q 107.92679 67.58625 107.92679 68.78625 
L 107.92679 85.8 
Q 107.92679 87 109.12679 87 
z
" style="fill:#ffffff;opacity:0.8;stroke:#cccccc;stroke-linejoin:miter;"/>
    </g>
    <g id="line2d_41">
     <path d="M 110.32679 72.445313 
L 122.32679 72.445313 
" style="fill:none;stroke:#6495ed;stroke-linecap:square;stroke-width:2;"/>
    </g>
    <g id="line2d_42"/>
    <g id="text_13">
     <text style="font-family:DejaVu Sans;font-size:6px;font-stretch:normal;font-style:normal;font-weight:normal;text-anchor:start;" transform="rotate(-0, 127.12679, 74.545313)" x="127.12679" y="74.545313">Cell 119, MX=0.16 (best sz=119)</text>
    </g>
    <g id="line2d_43">
     <path d="M 110.32679 81.252188 
L 122.32679 81.252188 
" style="fill:none;stroke:#ffa500;stroke-linecap:square;stroke-width:2;"/>
    </g>
    <g id="line2d_44"/>
    <g id="text_14">
     <text style="font-family:DejaVu Sans;font-size:6px;font-stretch:normal;font-style:normal;font-weight:normal;text-anchor:start;" transform="rotate(-0, 127.12679, 83.352188)" x="127.12679" y="83.352188">Cell 76, MX=0.35 (best sz=76)</text>
    </g>
   </g>
  </g>
  <g id="axes_2">
   <g id="patch_6">
    <path d="M 324.654545 306 
L 547.2 306 
L 547.2 126 
L 324.654545 126 
z
" style="fill:#ffffff;"/>
   </g>
   <g id="matplotlib.axis_3">
    <g id="xtick_4">
     <g id="line2d_45">
      <g>
       <use style="stroke:#000000;stroke-width:0.25;" x="334.770248" xlink:href="#m5fcf002965" y="308"/>
      </g>
     </g>
     <g id="text_15">
      <text style="font-family:DejaVu Sans;font-size:6px;font-stretch:normal;font-style:normal;font-weight:normal;text-anchor:middle;" transform="rotate(-0, 334.770248, 319.559062)" x="334.770248" y="319.559062">10</text>
     </g>
    </g>
    <g id="xtick_5">
     <g id="line2d_46">
      <g>
       <use style="stroke:#000000;stroke-width:0.25;" x="385.34876" xlink:href="#m5fcf002965" y="308"/>
      </g>
     </g>
     <g id="text_16">
      <text style="font-family:DejaVu Sans;font-size:6px;font-stretch:normal;font-style:normal;font-weight:normal;text-anchor:middle;" transform="rotate(-0, 385.34876, 319.559062)" x="385.34876" y="319.559062">20</text>
     </g>
    </g>
    <g id="xtick_6">
     <g id="line2d_47">
      <g>
       <use style="stroke:#000000;stroke-width:0.25;" x="435.927273" xlink:href="#m5fcf002965" y="308"/>
      </g>
     </g>
     <g id="text_17">
      <text style="font-family:DejaVu Sans;font-size:6px;font-stretch:normal;font-style:normal;font-weight:normal;text-anchor:middle;" transform="rotate(-0, 435.927273, 319.559062)" x="435.927273" y="319.559062">30</text>
     </g>
    </g>
    <g id="xtick_7">
     <g id="line2d_48">
      <g>
       <use style="stroke:#000000;stroke-width:0.25;" x="486.505785" xlink:href="#m5fcf002965" y="308"/>
      </g>
     </g>
     <g id="text_18">
      <text style="font-family:DejaVu Sans;font-size:6px;font-stretch:normal;font-style:normal;font-weight:normal;text-anchor:middle;" transform="rotate(-0, 486.505785, 319.559062)" x="486.505785" y="319.559062">40</text>
     </g>
    </g>
    <g id="xtick_8">
     <g id="line2d_49">
      <g>
       <use style="stroke:#000000;stroke-width:0.25;" x="537.084298" xlink:href="#m5fcf002965" y="308"/>
      </g>
     </g>
     <g id="text_19">
      <text style="font-family:DejaVu Sans;font-size:6px;font-stretch:normal;font-style:normal;font-weight:normal;text-anchor:middle;" transform="rotate(-0, 537.084298, 319.559062)" x="537.084298" y="319.559062">50</text>
     </g>
    </g>
    <g id="text_20">
     <text style="font-family:DejaVu Sans;font-size:6px;font-stretch:normal;font-style:normal;font-weight:normal;text-anchor:middle;" transform="rotate(-0, 435.927273, 329.365937)" x="435.927273" y="329.365937">Size (deg)</text>
    </g>
   </g>
   <g id="matplotlib.axis_4">
    <g id="ytick_7">
     <g id="line2d_50">
      <g>
       <use style="stroke:#000000;stroke-width:0.25;" x="322.654545" xlink:href="#md1cbaa11d6" y="306"/>
      </g>
     </g>
    </g>
    <g id="ytick_8">
     <g id="line2d_51">
      <g>
       <use style="stroke:#000000;stroke-width:0.25;" x="322.654545" xlink:href="#md1cbaa11d6" y="270.356436"/>
      </g>
     </g>
    </g>
    <g id="ytick_9">
     <g id="line2d_52">
      <g>
       <use style="stroke:#000000;stroke-width:0.25;" x="322.654545" xlink:href="#md1cbaa11d6" y="234.712871"/>
      </g>
     </g>
    </g>
    <g id="ytick_10">
     <g id="line2d_53">
      <g>
       <use style="stroke:#000000;stroke-width:0.25;" x="322.654545" xlink:href="#md1cbaa11d6" y="199.069307"/>
      </g>
     </g>
    </g>
    <g id="ytick_11">
     <g id="line2d_54">
      <g>
       <use style="stroke:#000000;stroke-width:0.25;" x="322.654545" xlink:href="#md1cbaa11d6" y="163.425743"/>
      </g>
     </g>
    </g>
    <g id="ytick_12">
     <g id="line2d_55">
      <g>
       <use style="stroke:#000000;stroke-width:0.25;" x="322.654545" xlink:href="#md1cbaa11d6" y="127.782178"/>
      </g>
     </g>
    </g>
   </g>
   <g id="line2d_56">
    <path clip-path="url(#pa36f80ce9d)" d="M 334.770248 127.782178 
L 385.34876 218.947992 
L 435.927273 207.074253 
L 486.505785 233.000233 
L 537.084298 239.40243 
" style="fill:none;stroke:#808080;stroke-linecap:square;stroke-width:0.25;"/>
   </g>
   <g id="line2d_57">
    <path clip-path="url(#pa36f80ce9d)" d="M 334.770248 127.782178 
L 385.34876 144.960967 
L 435.927273 158.026061 
L 486.505785 154.276761 
L 537.084298 149.969669 
" style="fill:none;stroke:#808080;stroke-linecap:square;stroke-width:0.25;"/>
   </g>
   <g id="line2d_58">
    <path clip-path="url(#pa36f80ce9d)" d="M 334.770248 152.109658 
L 385.34876 127.782178 
L 435.927273 155.644655 
L 486.505785 144.772668 
L 537.084298 150.96504 
" style="fill:none;stroke:#808080;stroke-linecap:square;stroke-width:0.25;"/>
   </g>
   <g id="line2d_59">
    <path clip-path="url(#pa36f80ce9d)" d="M 334.770248 127.782178 
L 385.34876 130.17952 
L 435.927273 196.359453 
L 486.505785 205.439631 
L 537.084298 208.202683 
" style="fill:none;stroke:#808080;stroke-linecap:square;stroke-width:0.25;"/>
   </g>
   <g id="line2d_60">
    <path clip-path="url(#pa36f80ce9d)" d="M 334.770248 127.782178 
L 385.34876 133.29953 
L 435.927273 148.339904 
L 486.505785 137.880694 
L 537.084298 133.429072 
" style="fill:none;stroke:#808080;stroke-linecap:square;stroke-width:0.25;"/>
   </g>
   <g id="line2d_61">
    <path clip-path="url(#pa36f80ce9d)" d="M 334.770248 161.274433 
L 385.34876 127.782178 
L 435.927273 188.607926 
L 486.505785 143.519467 
L 537.084298 145.832518 
" style="fill:none;stroke:#808080;stroke-linecap:square;stroke-width:0.25;"/>
   </g>
   <g id="line2d_62">
    <path clip-path="url(#pa36f80ce9d)" d="M 334.770248 179.471094 
L 385.34876 168.572743 
L 435.927273 163.217105 
L 486.505785 156.13667 
L 537.084298 127.782178 
" style="fill:none;stroke:#808080;stroke-linecap:square;stroke-width:0.25;"/>
   </g>
   <g id="line2d_63">
    <path clip-path="url(#pa36f80ce9d)" d="M 334.770248 153.951886 
L 385.34876 127.782178 
L 435.927273 180.698868 
L 486.505785 148.324059 
L 537.084298 157.812372 
" style="fill:none;stroke:#808080;stroke-linecap:square;stroke-width:0.25;"/>
   </g>
   <g id="line2d_64">
    <path clip-path="url(#pa36f80ce9d)" d="M 334.770248 138.500247 
L 385.34876 148.596581 
L 435.927273 155.973046 
L 486.505785 146.963204 
L 537.084298 127.782178 
" style="fill:none;stroke:#808080;stroke-linecap:square;stroke-width:0.25;"/>
   </g>
   <g id="line2d_65">
    <path clip-path="url(#pa36f80ce9d)" d="M 334.770248 177.528508 
L 385.34876 127.782178 
L 435.927273 164.123603 
L 486.505785 189.576807 
L 537.084298 183.679859 
" style="fill:none;stroke:#808080;stroke-linecap:square;stroke-width:0.25;"/>
   </g>
   <g id="line2d_66">
    <path clip-path="url(#pa36f80ce9d)" d="M 334.770248 175.907379 
L 385.34876 142.06105 
L 435.927273 147.328127 
L 486.505785 147.98125 
L 537.084298 127.782178 
" style="fill:none;stroke:#808080;stroke-linecap:square;stroke-width:0.25;"/>
   </g>
   <g id="line2d_67">
    <path clip-path="url(#pa36f80ce9d)" d="M 334.770248 185.204407 
L 385.34876 144.986199 
L 435.927273 127.782178 
L 486.505785 154.067865 
L 537.084298 183.802364 
" style="fill:none;stroke:#808080;stroke-linecap:square;stroke-width:0.25;"/>
   </g>
   <g id="line2d_68">
    <path clip-path="url(#pa36f80ce9d)" d="M 334.770248 147.105301 
L 385.34876 148.306617 
L 435.927273 134.379178 
L 486.505785 127.782178 
L 537.084298 141.677692 
" style="fill:none;stroke:#808080;stroke-linecap:square;stroke-width:0.25;"/>
   </g>
   <g id="line2d_69">
    <path clip-path="url(#pa36f80ce9d)" d="M 334.770248 139.763059 
L 385.34876 140.487307 
L 435.927273 127.782178 
L 486.505785 150.697937 
L 537.084298 151.576687 
" style="fill:none;stroke:#808080;stroke-linecap:square;stroke-width:0.25;"/>
   </g>
   <g id="line2d_70">
    <path clip-path="url(#pa36f80ce9d)" d="M 334.770248 149.287942 
L 385.34876 146.309654 
L 435.927273 142.013118 
L 486.505785 127.782178 
L 537.084298 163.228986 
" style="fill:none;stroke:#808080;stroke-linecap:square;stroke-width:0.25;"/>
   </g>
   <g id="line2d_71">
    <path clip-path="url(#pa36f80ce9d)" d="M 334.770248 152.904181 
L 385.34876 148.651549 
L 435.927273 155.609409 
L 486.505785 132.867776 
L 537.084298 127.782178 
" style="fill:none;stroke:#808080;stroke-linecap:square;stroke-width:0.25;"/>
   </g>
   <g id="line2d_72">
    <path clip-path="url(#pa36f80ce9d)" d="M 334.770248 184.17185 
L 385.34876 166.183243 
L 435.927273 172.628947 
L 486.505785 153.76809 
L 537.084298 127.782178 
" style="fill:none;stroke:#808080;stroke-linecap:square;stroke-width:0.25;"/>
   </g>
   <g id="line2d_73">
    <path clip-path="url(#pa36f80ce9d)" d="M 334.770248 154.912977 
L 385.34876 127.782178 
L 435.927273 158.385301 
L 486.505785 134.169456 
L 537.084298 143.779552 
" style="fill:none;stroke:#808080;stroke-linecap:square;stroke-width:0.25;"/>
   </g>
   <g id="line2d_74">
    <path clip-path="url(#pa36f80ce9d)" d="M 334.770248 127.782178 
L 385.34876 159.301596 
L 435.927273 170.252877 
L 486.505785 170.160677 
L 537.084298 172.36335 
" style="fill:none;stroke:#808080;stroke-linecap:square;stroke-width:0.25;"/>
   </g>
   <g id="line2d_75">
    <path clip-path="url(#pa36f80ce9d)" d="M 334.770248 199.812545 
L 385.34876 190.416156 
L 435.927273 184.753272 
L 486.505785 168.586593 
L 537.084298 127.782178 
" style="fill:none;stroke:#808080;stroke-linecap:square;stroke-width:0.25;"/>
   </g>
   <g id="line2d_76">
    <path clip-path="url(#pa36f80ce9d)" d="M 334.770248 187.049425 
L 385.34876 153.238269 
L 435.927273 161.986128 
L 486.505785 163.249446 
L 537.084298 127.782178 
" style="fill:none;stroke:#808080;stroke-linecap:square;stroke-width:0.25;"/>
   </g>
   <g id="line2d_77">
    <path clip-path="url(#pa36f80ce9d)" d="M 334.770248 193.793221 
L 385.34876 145.872491 
L 435.927273 127.782178 
L 486.505785 161.922879 
L 537.084298 173.791995 
" style="fill:none;stroke:#808080;stroke-linecap:square;stroke-width:0.25;"/>
   </g>
   <g id="line2d_78">
    <path clip-path="url(#pa36f80ce9d)" d="M 334.770248 167.98477 
L 385.34876 172.801196 
L 435.927273 157.935642 
L 486.505785 144.964456 
L 537.084298 127.782178 
" style="fill:none;stroke:#808080;stroke-linecap:square;stroke-width:0.25;"/>
   </g>
   <g id="line2d_79">
    <path clip-path="url(#pa36f80ce9d)" d="M 334.770248 161.117641 
L 385.34876 127.782178 
L 435.927273 146.605513 
L 486.505785 143.699734 
L 537.084298 151.668602 
" style="fill:none;stroke:#808080;stroke-linecap:square;stroke-width:0.25;"/>
   </g>
   <g id="line2d_80">
    <path clip-path="url(#pa36f80ce9d)" d="M 334.770248 151.611484 
L 385.34876 153.806252 
L 435.927273 131.742647 
L 486.505785 155.770801 
L 537.084298 127.782178 
" style="fill:none;stroke:#808080;stroke-linecap:square;stroke-width:0.25;"/>
   </g>
   <g id="line2d_81">
    <path clip-path="url(#pa36f80ce9d)" d="M 334.770248 144.743875 
L 385.34876 157.368205 
L 435.927273 127.782178 
L 486.505785 139.158334 
L 537.084298 143.033956 
" style="fill:none;stroke:#808080;stroke-linecap:square;stroke-width:0.25;"/>
   </g>
   <g id="line2d_82">
    <path clip-path="url(#pa36f80ce9d)" d="M 334.770248 130.306205 
L 385.34876 144.846595 
L 435.927273 140.193377 
L 486.505785 150.584331 
L 537.084298 127.782178 
" style="fill:none;stroke:#808080;stroke-linecap:square;stroke-width:0.25;"/>
   </g>
   <g id="line2d_83">
    <path clip-path="url(#pa36f80ce9d)" d="M 334.770248 127.782178 
L 385.34876 155.949651 
L 435.927273 178.32647 
L 486.505785 166.444403 
L 537.084298 158.314498 
" style="fill:none;stroke:#808080;stroke-linecap:square;stroke-width:0.25;"/>
   </g>
   <g id="line2d_84">
    <path clip-path="url(#pa36f80ce9d)" d="M 334.770248 182.853892 
L 385.34876 160.038937 
L 435.927273 166.681386 
L 486.505785 156.525617 
L 537.084298 127.782178 
" style="fill:none;stroke:#808080;stroke-linecap:square;stroke-width:0.25;"/>
   </g>
   <g id="line2d_85">
    <path clip-path="url(#pa36f80ce9d)" d="M 334.770248 127.782178 
L 385.34876 130.17952 
L 435.927273 196.359453 
L 486.505785 205.439631 
L 537.084298 208.202683 
" style="fill:none;stroke:#6495ed;stroke-linecap:square;stroke-width:2;"/>
   </g>
   <g id="line2d_86">
    <path clip-path="url(#pa36f80ce9d)" d="M 334.770248 127.782178 
L 385.34876 218.947992 
L 435.927273 207.074253 
L 486.505785 233.000233 
L 537.084298 239.40243 
" style="fill:none;stroke:#ffa500;stroke-linecap:square;stroke-width:2;"/>
   </g>
   <g id="patch_7">
    <path d="M 322.654545 306 
L 322.654545 127.782178 
" style="fill:none;stroke:#000000;stroke-linecap:square;stroke-linejoin:miter;stroke-width:0.25;"/>
   </g>
   <g id="patch_8">
    <path d="M 334.770248 308 
L 537.084298 308 
" style="fill:none;stroke:#000000;stroke-linecap:square;stroke-linejoin:miter;stroke-width:0.25;"/>
   </g>
   <g id="text_21">
    <text style="font-family:DejaVu Sans;font-size:7.2px;font-stretch:normal;font-style:normal;font-weight:normal;text-anchor:middle;" transform="rotate(-0, 435.927273, 120)" x="435.927273" y="120">Size tolerance</text>
   </g>
   <g id="legend_2">
    <g id="patch_9">
     <path d="M 379.216023 87 
L 492.638523 87 
Q 493.838523 87 493.838523 85.8 
L 493.838523 68.78625 
Q 493.838523 67.58625 492.638523 67.58625 
L 379.216023 67.58625 
Q 378.016023 67.58625 378.016023 68.78625 
L 378.016023 85.8 
Q 378.016023 87 379.216023 87 
z
" style="fill:#ffffff;opacity:0.8;stroke:#cccccc;stroke-linejoin:miter;"/>
    </g>
    <g id="line2d_87">
     <path d="M 380.416023 72.445313 
L 392.416023 72.445313 
" style="fill:none;stroke:#6495ed;stroke-linecap:square;stroke-width:2;"/>
    </g>
    <g id="line2d_88"/>
    <g id="text_22">
     <text style="font-family:DejaVu Sans;font-size:6px;font-stretch:normal;font-style:normal;font-weight:normal;text-anchor:start;" transform="rotate(-0, 397.216023, 74.545313)" x="397.216023" y="74.545313">Cell 119, ST=0.68 (best mp=0)</text>
    </g>
    <g id="line2d_89">
     <path d="M 380.416023 81.252188 
L 392.416023 81.252188 
" style="fill:none;stroke:#ffa500;stroke-linecap:square;stroke-width:2;"/>
    </g>
    <g id="line2d_90"/>
    <g id="text_23">
     <text style="font-family:DejaVu Sans;font-size:6px;font-stretch:normal;font-style:normal;font-weight:normal;text-anchor:start;" transform="rotate(-0, 397.216023, 83.352188)" x="397.216023" y="83.352188">Cell 76, ST=0.46 (best mp=79)</text>
    </g>
   </g>
  </g>
  <g id="text_24">
   <text style="font-family:DejaVu Sans;font-size:6px;font-stretch:normal;font-style:normal;font-weight:normal;text-anchor:start;" transform="rotate(-0, 28.8, 18)" x="28.8" y="18">Li (20190422_JC076_fov1)</text>
  </g>
  <g id="text_25">
   <text style="font-family:DejaVu Sans;font-size:8px;font-stretch:normal;font-style:normal;font-weight:normal;text-anchor:start;" transform="rotate(-0, 0, 6.11375)" x="0" y="6.11375">neuraldata_traces001_dff_ROC-thr-0.05_plushalf_noRF|Li - 20190422_JC076_fov1</text>
  </g>
 </g>
 <defs>
  <clipPath id="pcf5904d5df">
   <rect height="180" width="222.545455" x="57.6" y="126"/>
  </clipPath>
  <clipPath id="pa36f80ce9d">
   <rect height="180" width="222.545455" x="324.654545" y="126"/>
  </clipPath>
 </defs>
</svg>
