<?xml version="1.0" encoding="utf-8" standalone="no"?>
<!DOCTYPE svg PUBLIC "-//W3C//DTD SVG 1.1//EN"
  "http://www.w3.org/Graphics/SVG/1.1/DTD/svg11.dtd">
<!-- Created with matplotlib (https://matplotlib.org/) -->
<svg height="360pt" version="1.1" viewBox="0 0 360 360" width="360pt" xmlns="http://www.w3.org/2000/svg" xmlns:xlink="http://www.w3.org/1999/xlink">
 <metadata>
  <rdf:RDF xmlns:cc="http://creativecommons.org/ns#" xmlns:dc="http://purl.org/dc/elements/1.1/" xmlns:rdf="http://www.w3.org/1999/02/22-rdf-syntax-ns#">
   <cc:Work>
    <dc:type rdf:resource="http://purl.org/dc/dcmitype/StillImage"/>
    <dc:date>2021-04-17T14:58:00.973252</dc:date>
    <dc:format>image/svg+xml</dc:format>
    <dc:creator>
     <cc:Agent>
      <dc:title>Matplotlib v3.3.4, https://matplotlib.org/</dc:title>
     </cc:Agent>
    </dc:creator>
   </cc:Work>
  </rdf:RDF>
 </metadata>
 <defs>
  <style type="text/css">*{stroke-linecap:butt;stroke-linejoin:round;}</style>
 </defs>
 <g id="figure_1">
  <g id="patch_1">
   <path d="M 0 360 
L 360 360 
L 360 0 
L 0 0 
z
" style="fill:#ffffff;"/>
  </g>
  <g id="axes_1">
   <g id="patch_2">
    <path d="M 75.6 288 
L 320.4 288 
L 320.4 43.2 
L 75.6 43.2 
z
" style="fill:#ffffff;"/>
   </g>
   <g id="PathCollection_1">
    <defs>
     <path d="M 0 1.581139 
C 0.419323 1.581139 0.821528 1.41454 1.118034 1.118034 
C 1.41454 0.821528 1.581139 0.419323 1.581139 0 
C 1.581139 -0.419323 1.41454 -0.821528 1.118034 -1.118034 
C 0.821528 -1.41454 0.419323 -1.581139 0 -1.581139 
C -0.419323 -1.581139 -0.821528 -1.41454 -1.118034 -1.118034 
C -1.41454 -0.821528 -1.581139 -0.419323 -1.581139 0 
C -1.581139 0.419323 -1.41454 0.821528 -1.118034 1.118034 
C -0.821528 1.41454 -0.419323 1.581139 0 1.581139 
z
" id="m92f1849c5d" style="stroke:#000000;"/>
    </defs>
    <g clip-path="url(#pf2f8a3c11d)">
     <use style="stroke:#000000;" x="163.54255" xlink:href="#m92f1849c5d" y="122.687543"/>
     <use style="stroke:#000000;" x="103.531798" xlink:href="#m92f1849c5d" y="152.80387"/>
     <use style="stroke:#000000;" x="111.792156" xlink:href="#m92f1849c5d" y="110.904576"/>
     <use style="stroke:#000000;" x="99.643883" xlink:href="#m92f1849c5d" y="82.941892"/>
     <use style="stroke:#000000;" x="112.216492" xlink:href="#m92f1849c5d" y="121.135675"/>
     <use style="stroke:#000000;" x="114.324226" xlink:href="#m92f1849c5d" y="81.543635"/>
     <use style="stroke:#000000;" x="153.440219" xlink:href="#m92f1849c5d" y="128.879451"/>
     <use style="stroke:#000000;" x="99.395749" xlink:href="#m92f1849c5d" y="65.951941"/>
     <use style="stroke:#000000;" x="154.702159" xlink:href="#m92f1849c5d" y="105.815814"/>
     <use style="stroke:#000000;" x="111.624121" xlink:href="#m92f1849c5d" y="121.451008"/>
     <use style="stroke:#000000;" x="117.143138" xlink:href="#m92f1849c5d" y="96.268606"/>
     <use style="stroke:#000000;" x="114.025705" xlink:href="#m92f1849c5d" y="100.913561"/>
     <use style="stroke:#000000;" x="154.094502" xlink:href="#m92f1849c5d" y="134.161589"/>
     <use style="stroke:#000000;" x="123.545109" xlink:href="#m92f1849c5d" y="71.935496"/>
     <use style="stroke:#000000;" x="112.381287" xlink:href="#m92f1849c5d" y="71.460275"/>
     <use style="stroke:#000000;" x="109.367721" xlink:href="#m92f1849c5d" y="88.319869"/>
     <use style="stroke:#000000;" x="106.308855" xlink:href="#m92f1849c5d" y="74.028827"/>
     <use style="stroke:#000000;" x="147.313053" xlink:href="#m92f1849c5d" y="125.223969"/>
     <use style="stroke:#000000;" x="157.182305" xlink:href="#m92f1849c5d" y="102.851715"/>
     <use style="stroke:#000000;" x="114.789557" xlink:href="#m92f1849c5d" y="94.036951"/>
     <use style="stroke:#000000;" x="99.277319" xlink:href="#m92f1849c5d" y="97.445593"/>
     <use style="stroke:#000000;" x="121.87554" xlink:href="#m92f1849c5d" y="80.524682"/>
     <use style="stroke:#000000;" x="115.866244" xlink:href="#m92f1849c5d" y="108.372422"/>
     <use style="stroke:#000000;" x="112.440505" xlink:href="#m92f1849c5d" y="96.566736"/>
     <use style="stroke:#000000;" x="129.170439" xlink:href="#m92f1849c5d" y="94.204162"/>
     <use style="stroke:#000000;" x="140.147314" xlink:href="#m92f1849c5d" y="117.309777"/>
     <use style="stroke:#000000;" x="106.903443" xlink:href="#m92f1849c5d" y="62.167243"/>
     <use style="stroke:#000000;" x="117.433786" xlink:href="#m92f1849c5d" y="122.07889"/>
     <use style="stroke:#000000;" x="97.425383" xlink:href="#m92f1849c5d" y="72.400562"/>
     <use style="stroke:#000000;" x="148.607127" xlink:href="#m92f1849c5d" y="137.290053"/>
     <use style="stroke:#000000;" x="139.668108" xlink:href="#m92f1849c5d" y="152.479665"/>
     <use style="stroke:#000000;" x="108.726204" xlink:href="#m92f1849c5d" y="74.137655"/>
     <use style="stroke:#000000;" x="128.937486" xlink:href="#m92f1849c5d" y="109.545869"/>
     <use style="stroke:#000000;" x="108.097125" xlink:href="#m92f1849c5d" y="115.886801"/>
     <use style="stroke:#000000;" x="152.398923" xlink:href="#m92f1849c5d" y="102.667618"/>
     <use style="stroke:#000000;" x="136.105762" xlink:href="#m92f1849c5d" y="133.927083"/>
     <use style="stroke:#000000;" x="121.916207" xlink:href="#m92f1849c5d" y="118.412894"/>
     <use style="stroke:#000000;" x="154.88961" xlink:href="#m92f1849c5d" y="134.570195"/>
     <use style="stroke:#000000;" x="157.445877" xlink:href="#m92f1849c5d" y="130.730198"/>
     <use style="stroke:#000000;" x="120.037927" xlink:href="#m92f1849c5d" y="86.635467"/>
     <use style="stroke:#000000;" x="116.425548" xlink:href="#m92f1849c5d" y="129.921226"/>
     <use style="stroke:#000000;" x="136.513907" xlink:href="#m92f1849c5d" y="131.487438"/>
     <use style="stroke:#000000;" x="111.71623" xlink:href="#m92f1849c5d" y="152.489794"/>
     <use style="stroke:#000000;" x="121.06918" xlink:href="#m92f1849c5d" y="62.535221"/>
     <use style="stroke:#000000;" x="129.761412" xlink:href="#m92f1849c5d" y="117.645048"/>
     <use style="stroke:#000000;" x="112.540559" xlink:href="#m92f1849c5d" y="78.849193"/>
     <use style="stroke:#000000;" x="139.319931" xlink:href="#m92f1849c5d" y="129.324525"/>
     <use style="stroke:#000000;" x="116.289253" xlink:href="#m92f1849c5d" y="104.037368"/>
     <use style="stroke:#000000;" x="126.973925" xlink:href="#m92f1849c5d" y="120.355839"/>
     <use style="stroke:#000000;" x="98.799942" xlink:href="#m92f1849c5d" y="148.901141"/>
     <use style="stroke:#000000;" x="117.217687" xlink:href="#m92f1849c5d" y="118.696956"/>
     <use style="stroke:#000000;" x="130.64655" xlink:href="#m92f1849c5d" y="133.810283"/>
     <use style="stroke:#000000;" x="160.196054" xlink:href="#m92f1849c5d" y="102.599295"/>
     <use style="stroke:#000000;" x="119.804231" xlink:href="#m92f1849c5d" y="113.252725"/>
     <use style="stroke:#000000;" x="100.870192" xlink:href="#m92f1849c5d" y="127.029616"/>
     <use style="stroke:#000000;" x="127.792647" xlink:href="#m92f1849c5d" y="131.420344"/>
     <use style="stroke:#000000;" x="150.634996" xlink:href="#m92f1849c5d" y="121.385351"/>
     <use style="stroke:#000000;" x="151.146737" xlink:href="#m92f1849c5d" y="110.347336"/>
     <use style="stroke:#000000;" x="90.565864" xlink:href="#m92f1849c5d" y="104.679662"/>
     <use style="stroke:#000000;" x="126.349771" xlink:href="#m92f1849c5d" y="77.662505"/>
     <use style="stroke:#000000;" x="136.497951" xlink:href="#m92f1849c5d" y="74.670963"/>
     <use style="stroke:#000000;" x="107.448549" xlink:href="#m92f1849c5d" y="68.248803"/>
     <use style="stroke:#000000;" x="149.878664" xlink:href="#m92f1849c5d" y="146.427986"/>
     <use style="stroke:#000000;" x="168.372345" xlink:href="#m92f1849c5d" y="90.737712"/>
     <use style="stroke:#000000;" x="140.420834" xlink:href="#m92f1849c5d" y="71.233714"/>
     <use style="stroke:#000000;" x="122.705374" xlink:href="#m92f1849c5d" y="103.205304"/>
     <use style="stroke:#000000;" x="108.616645" xlink:href="#m92f1849c5d" y="61.943458"/>
     <use style="stroke:#000000;" x="192.86036" xlink:href="#m92f1849c5d" y="126.213588"/>
     <use style="stroke:#000000;" x="163.680431" xlink:href="#m92f1849c5d" y="124.065703"/>
     <use style="stroke:#000000;" x="138.810828" xlink:href="#m92f1849c5d" y="87.923816"/>
     <use style="stroke:#000000;" x="177.476709" xlink:href="#m92f1849c5d" y="128.525037"/>
     <use style="stroke:#000000;" x="140.960716" xlink:href="#m92f1849c5d" y="70.541031"/>
     <use style="stroke:#000000;" x="110.87059" xlink:href="#m92f1849c5d" y="116.086652"/>
     <use style="stroke:#000000;" x="138.684502" xlink:href="#m92f1849c5d" y="130.827518"/>
     <use style="stroke:#000000;" x="120.514733" xlink:href="#m92f1849c5d" y="92.500081"/>
     <use style="stroke:#000000;" x="128.449545" xlink:href="#m92f1849c5d" y="148.73403"/>
     <use style="stroke:#000000;" x="128.618309" xlink:href="#m92f1849c5d" y="120.438541"/>
     <use style="stroke:#000000;" x="149.979735" xlink:href="#m92f1849c5d" y="110.479047"/>
     <use style="stroke:#000000;" x="101.870348" xlink:href="#m92f1849c5d" y="121.562035"/>
     <use style="stroke:#000000;" x="126.124001" xlink:href="#m92f1849c5d" y="127.723885"/>
     <use style="stroke:#000000;" x="166.015521" xlink:href="#m92f1849c5d" y="127.024671"/>
     <use style="stroke:#000000;" x="135.454346" xlink:href="#m92f1849c5d" y="104.596917"/>
     <use style="stroke:#000000;" x="125.740083" xlink:href="#m92f1849c5d" y="121.322511"/>
     <use style="stroke:#000000;" x="136.334417" xlink:href="#m92f1849c5d" y="173.559765"/>
     <use style="stroke:#000000;" x="109.50632" xlink:href="#m92f1849c5d" y="102.035227"/>
     <use style="stroke:#000000;" x="144.127287" xlink:href="#m92f1849c5d" y="95.93497"/>
     <use style="stroke:#000000;" x="143.316163" xlink:href="#m92f1849c5d" y="141.407694"/>
     <use style="stroke:#000000;" x="139.6138" xlink:href="#m92f1849c5d" y="98.166784"/>
     <use style="stroke:#000000;" x="127.062376" xlink:href="#m92f1849c5d" y="98.51799"/>
     <use style="stroke:#000000;" x="173.023846" xlink:href="#m92f1849c5d" y="106.447746"/>
     <use style="stroke:#000000;" x="132.357263" xlink:href="#m92f1849c5d" y="200.550529"/>
     <use style="stroke:#000000;" x="230.254423" xlink:href="#m92f1849c5d" y="148.62184"/>
     <use style="stroke:#000000;" x="181.364498" xlink:href="#m92f1849c5d" y="114.765981"/>
     <use style="stroke:#000000;" x="98.855256" xlink:href="#m92f1849c5d" y="89.934368"/>
     <use style="stroke:#000000;" x="149.441421" xlink:href="#m92f1849c5d" y="112.593695"/>
     <use style="stroke:#000000;" x="188.680382" xlink:href="#m92f1849c5d" y="98.868585"/>
     <use style="stroke:#000000;" x="169.130924" xlink:href="#m92f1849c5d" y="100.920769"/>
     <use style="stroke:#000000;" x="212.201727" xlink:href="#m92f1849c5d" y="168.074921"/>
     <use style="stroke:#000000;" x="122.874252" xlink:href="#m92f1849c5d" y="107.314372"/>
     <use style="stroke:#000000;" x="108.919488" xlink:href="#m92f1849c5d" y="136.714756"/>
     <use style="stroke:#000000;" x="142.043777" xlink:href="#m92f1849c5d" y="127.847988"/>
     <use style="stroke:#000000;" x="106.439178" xlink:href="#m92f1849c5d" y="124.718542"/>
     <use style="stroke:#000000;" x="194.121654" xlink:href="#m92f1849c5d" y="161.08314"/>
     <use style="stroke:#000000;" x="120.426677" xlink:href="#m92f1849c5d" y="129.866964"/>
     <use style="stroke:#000000;" x="163.152054" xlink:href="#m92f1849c5d" y="77.813303"/>
     <use style="stroke:#000000;" x="140.498158" xlink:href="#m92f1849c5d" y="84.070103"/>
     <use style="stroke:#000000;" x="119.30176" xlink:href="#m92f1849c5d" y="203.905697"/>
     <use style="stroke:#000000;" x="103.127368" xlink:href="#m92f1849c5d" y="90.697546"/>
     <use style="stroke:#000000;" x="121.117672" xlink:href="#m92f1849c5d" y="73.017768"/>
     <use style="stroke:#000000;" x="125.258945" xlink:href="#m92f1849c5d" y="94.321207"/>
     <use style="stroke:#000000;" x="124.024487" xlink:href="#m92f1849c5d" y="150.85327"/>
     <use style="stroke:#000000;" x="97.939739" xlink:href="#m92f1849c5d" y="150.247624"/>
     <use style="stroke:#000000;" x="120.952422" xlink:href="#m92f1849c5d" y="175.322042"/>
     <use style="stroke:#000000;" x="183.183796" xlink:href="#m92f1849c5d" y="137.162732"/>
     <use style="stroke:#000000;" x="114.906909" xlink:href="#m92f1849c5d" y="117.597985"/>
     <use style="stroke:#000000;" x="203.844683" xlink:href="#m92f1849c5d" y="123.852218"/>
     <use style="stroke:#000000;" x="129.099662" xlink:href="#m92f1849c5d" y="79.662305"/>
     <use style="stroke:#000000;" x="114.830778" xlink:href="#m92f1849c5d" y="139.222308"/>
     <use style="stroke:#000000;" x="119.901845" xlink:href="#m92f1849c5d" y="101.980658"/>
     <use style="stroke:#000000;" x="176.022564" xlink:href="#m92f1849c5d" y="200.181286"/>
     <use style="stroke:#000000;" x="104.063752" xlink:href="#m92f1849c5d" y="117.469575"/>
     <use style="stroke:#000000;" x="104.915142" xlink:href="#m92f1849c5d" y="94.155766"/>
     <use style="stroke:#000000;" x="136.277863" xlink:href="#m92f1849c5d" y="157.150862"/>
     <use style="stroke:#000000;" x="102.942854" xlink:href="#m92f1849c5d" y="86.409995"/>
     <use style="stroke:#000000;" x="117.118179" xlink:href="#m92f1849c5d" y="93.964942"/>
     <use style="stroke:#000000;" x="102.065939" xlink:href="#m92f1849c5d" y="104.801871"/>
     <use style="stroke:#000000;" x="122.41698" xlink:href="#m92f1849c5d" y="162.27393"/>
     <use style="stroke:#000000;" x="102.020959" xlink:href="#m92f1849c5d" y="97.687077"/>
     <use style="stroke:#000000;" x="127.403189" xlink:href="#m92f1849c5d" y="114.028529"/>
     <use style="stroke:#000000;" x="142.011615" xlink:href="#m92f1849c5d" y="144.878683"/>
     <use style="stroke:#000000;" x="159.532602" xlink:href="#m92f1849c5d" y="123.038627"/>
     <use style="stroke:#000000;" x="146.985491" xlink:href="#m92f1849c5d" y="78.405024"/>
     <use style="stroke:#000000;" x="91.090348" xlink:href="#m92f1849c5d" y="92.916483"/>
     <use style="stroke:#000000;" x="111.954499" xlink:href="#m92f1849c5d" y="80.214331"/>
     <use style="stroke:#000000;" x="114.964839" xlink:href="#m92f1849c5d" y="116.961712"/>
     <use style="stroke:#000000;" x="119.934385" xlink:href="#m92f1849c5d" y="102.651654"/>
     <use style="stroke:#000000;" x="118.094548" xlink:href="#m92f1849c5d" y="98.34596"/>
     <use style="stroke:#000000;" x="184.07024" xlink:href="#m92f1849c5d" y="107.730308"/>
     <use style="stroke:#000000;" x="136.299797" xlink:href="#m92f1849c5d" y="58.841956"/>
     <use style="stroke:#000000;" x="201.582856" xlink:href="#m92f1849c5d" y="209.466024"/>
     <use style="stroke:#000000;" x="116.419694" xlink:href="#m92f1849c5d" y="175.429679"/>
     <use style="stroke:#000000;" x="120.279325" xlink:href="#m92f1849c5d" y="100.988197"/>
     <use style="stroke:#000000;" x="122.637816" xlink:href="#m92f1849c5d" y="162.449015"/>
     <use style="stroke:#000000;" x="130.986168" xlink:href="#m92f1849c5d" y="106.449739"/>
     <use style="stroke:#000000;" x="121.973954" xlink:href="#m92f1849c5d" y="170.798611"/>
     <use style="stroke:#000000;" x="110.939539" xlink:href="#m92f1849c5d" y="64.509132"/>
     <use style="stroke:#000000;" x="113.384557" xlink:href="#m92f1849c5d" y="171.705215"/>
     <use style="stroke:#000000;" x="145.553522" xlink:href="#m92f1849c5d" y="147.496621"/>
     <use style="stroke:#000000;" x="117.406053" xlink:href="#m92f1849c5d" y="161.220928"/>
     <use style="stroke:#000000;" x="129.374904" xlink:href="#m92f1849c5d" y="187.27477"/>
     <use style="stroke:#000000;" x="190.977153" xlink:href="#m92f1849c5d" y="79.177743"/>
     <use style="stroke:#000000;" x="125.262258" xlink:href="#m92f1849c5d" y="122.128456"/>
     <use style="stroke:#000000;" x="174.791463" xlink:href="#m92f1849c5d" y="95.615983"/>
     <use style="stroke:#000000;" x="116.802901" xlink:href="#m92f1849c5d" y="76.280893"/>
     <use style="stroke:#000000;" x="137.158097" xlink:href="#m92f1849c5d" y="82.47899"/>
     <use style="stroke:#000000;" x="143.586842" xlink:href="#m92f1849c5d" y="259.990441"/>
     <use style="stroke:#000000;" x="137.176273" xlink:href="#m92f1849c5d" y="93.974605"/>
     <use style="stroke:#000000;" x="99.689746" xlink:href="#m92f1849c5d" y="87.407307"/>
     <use style="stroke:#000000;" x="110.154672" xlink:href="#m92f1849c5d" y="93.100301"/>
     <use style="stroke:#000000;" x="110.86011" xlink:href="#m92f1849c5d" y="114.48821"/>
     <use style="stroke:#000000;" x="119.093044" xlink:href="#m92f1849c5d" y="139.14957"/>
     <use style="stroke:#000000;" x="114.726771" xlink:href="#m92f1849c5d" y="80.351822"/>
     <use style="stroke:#000000;" x="115.997995" xlink:href="#m92f1849c5d" y="145.456824"/>
     <use style="stroke:#000000;" x="124.72556" xlink:href="#m92f1849c5d" y="103.687948"/>
     <use style="stroke:#000000;" x="102.767323" xlink:href="#m92f1849c5d" y="142.871731"/>
     <use style="stroke:#000000;" x="96.019427" xlink:href="#m92f1849c5d" y="135.037636"/>
     <use style="stroke:#000000;" x="123.628965" xlink:href="#m92f1849c5d" y="125.196556"/>
     <use style="stroke:#000000;" x="131.447464" xlink:href="#m92f1849c5d" y="138.678062"/>
     <use style="stroke:#000000;" x="113.249205" xlink:href="#m92f1849c5d" y="131.990322"/>
     <use style="stroke:#000000;" x="138.889657" xlink:href="#m92f1849c5d" y="96.853616"/>
     <use style="stroke:#000000;" x="111.851824" xlink:href="#m92f1849c5d" y="100.661338"/>
     <use style="stroke:#000000;" x="113.454975" xlink:href="#m92f1849c5d" y="106.618395"/>
     <use style="stroke:#000000;" x="122.927613" xlink:href="#m92f1849c5d" y="163.665956"/>
     <use style="stroke:#000000;" x="128.737261" xlink:href="#m92f1849c5d" y="149.432752"/>
     <use style="stroke:#000000;" x="106.695821" xlink:href="#m92f1849c5d" y="155.504884"/>
     <use style="stroke:#000000;" x="107.182437" xlink:href="#m92f1849c5d" y="116.702988"/>
     <use style="stroke:#000000;" x="155.790263" xlink:href="#m92f1849c5d" y="79.34458"/>
     <use style="stroke:#000000;" x="117.150471" xlink:href="#m92f1849c5d" y="121.313117"/>
     <use style="stroke:#000000;" x="110.030489" xlink:href="#m92f1849c5d" y="137.231803"/>
     <use style="stroke:#000000;" x="101.742361" xlink:href="#m92f1849c5d" y="91.217769"/>
     <use style="stroke:#000000;" x="123.990333" xlink:href="#m92f1849c5d" y="121.854835"/>
     <use style="stroke:#000000;" x="103.689115" xlink:href="#m92f1849c5d" y="103.750031"/>
     <use style="stroke:#000000;" x="108.205121" xlink:href="#m92f1849c5d" y="105.684466"/>
     <use style="stroke:#000000;" x="99.093398" xlink:href="#m92f1849c5d" y="90.520115"/>
    </g>
   </g>
   <g id="PolyCollection_1">
    <path clip-path="url(#pf2f8a3c11d)" d="M 75.6 91.297934 
L 75.6 110.145779 
L 78.072727 110.482992 
L 80.545455 110.734575 
L 83.018182 111.102627 
L 85.490909 111.556423 
L 87.963636 112.006414 
L 90.436364 112.459256 
L 92.909091 112.873277 
L 95.381818 113.156528 
L 97.854545 113.480281 
L 100.327273 113.872986 
L 102.8 114.339594 
L 105.272727 114.698014 
L 107.745455 115.10915 
L 110.218182 115.594124 
L 112.690909 116.106712 
L 115.163636 116.581521 
L 117.636364 117.086442 
L 120.109091 117.531379 
L 122.581818 118.256972 
L 125.054545 118.890934 
L 127.527273 119.568327 
L 130 120.213786 
L 132.472727 120.932265 
L 134.945455 121.737835 
L 137.418182 122.609087 
L 139.890909 123.466522 
L 142.363636 124.313301 
L 144.836364 125.096474 
L 147.309091 126.09437 
L 149.781818 127.191931 
L 152.254545 128.223506 
L 154.727273 129.1401 
L 157.2 130.213411 
L 159.672727 131.261624 
L 162.145455 132.271591 
L 164.618182 133.330008 
L 167.090909 134.414068 
L 169.563636 135.486762 
L 172.036364 136.714733 
L 174.509091 137.807821 
L 176.981818 138.899889 
L 179.454545 139.990573 
L 181.927273 141.078339 
L 184.4 142.166106 
L 186.872727 143.253872 
L 189.345455 144.33693 
L 191.818182 145.428424 
L 194.290909 146.517171 
L 196.763636 147.55304 
L 199.236364 148.560538 
L 201.709091 149.628533 
L 204.181818 150.664505 
L 206.654545 151.697972 
L 209.127273 152.731439 
L 211.6 153.764906 
L 214.072727 154.798373 
L 216.545455 155.83184 
L 219.018182 156.865308 
L 221.490909 157.898775 
L 223.963636 158.932242 
L 226.436364 159.966942 
L 228.909091 161.050012 
L 231.381818 162.132923 
L 233.854545 163.215189 
L 236.327273 164.297455 
L 238.8 165.379721 
L 241.272727 166.482551 
L 243.745455 167.557585 
L 246.218182 168.641699 
L 248.690909 169.782242 
L 251.163636 170.884337 
L 253.636364 172.003589 
L 256.109091 173.125436 
L 258.581818 174.247282 
L 261.054545 175.381851 
L 263.527273 176.577766 
L 266 177.773681 
L 268.472727 178.969463 
L 270.945455 180.164958 
L 273.418182 181.213354 
L 275.890909 182.220198 
L 278.363636 183.289258 
L 280.836364 184.436352 
L 283.309091 185.583445 
L 285.781818 186.702976 
L 288.254545 187.781555 
L 290.727273 188.859273 
L 293.2 189.93879 
L 295.672727 191.058871 
L 298.145455 192.178952 
L 300.618182 193.299032 
L 303.090909 194.419113 
L 305.563636 195.529877 
L 308.036364 196.619841 
L 310.509091 197.709405 
L 312.981818 198.797997 
L 315.454545 199.886589 
L 317.927273 200.963448 
L 320.4 202.030013 
L 320.4 133.871064 
L 320.4 133.871064 
L 317.927273 133.610405 
L 315.454545 133.349746 
L 312.981818 133.089087 
L 310.509091 132.830453 
L 308.036364 132.571854 
L 305.563636 132.313255 
L 303.090909 132.054655 
L 300.618182 131.796056 
L 298.145455 131.537457 
L 295.672727 131.278858 
L 293.2 131.020259 
L 290.727273 130.76166 
L 288.254545 130.503061 
L 285.781818 130.244648 
L 283.309091 130.02158 
L 280.836364 129.798511 
L 278.363636 129.575443 
L 275.890909 129.30291 
L 273.418182 129.01966 
L 270.945455 128.736411 
L 268.472727 128.453161 
L 266 128.169912 
L 263.527273 127.908086 
L 261.054545 127.647944 
L 258.581818 127.387802 
L 256.109091 127.12766 
L 253.636364 126.867517 
L 251.163636 126.576081 
L 248.690909 126.279332 
L 246.218182 125.982582 
L 243.745455 125.685833 
L 241.272727 125.389083 
L 238.8 125.092333 
L 236.327273 124.795584 
L 233.854545 124.498834 
L 231.381818 124.202085 
L 228.909091 123.911919 
L 226.436364 123.627731 
L 223.963636 123.344148 
L 221.490909 123.16004 
L 219.018182 122.98675 
L 216.545455 122.814422 
L 214.072727 122.642094 
L 211.6 122.454994 
L 209.127273 122.196678 
L 206.654545 121.93496 
L 204.181818 121.668699 
L 201.709091 121.365162 
L 199.236364 121.062675 
L 196.763636 120.844436 
L 194.290909 120.639352 
L 191.818182 120.381201 
L 189.345455 120.094213 
L 186.872727 119.763303 
L 184.4 119.521268 
L 181.927273 119.20911 
L 179.454545 118.898374 
L 176.981818 118.583882 
L 174.509091 118.271554 
L 172.036364 117.958525 
L 169.563636 117.611444 
L 167.090909 117.334572 
L 164.618182 117.117222 
L 162.145455 116.930733 
L 159.672727 116.634097 
L 157.2 116.329648 
L 154.727273 116.009113 
L 152.254545 115.635284 
L 149.781818 115.178827 
L 147.309091 114.780132 
L 144.836364 114.443528 
L 142.363636 114.01477 
L 139.890909 113.583457 
L 137.418182 113.020228 
L 134.945455 112.657825 
L 132.472727 112.052089 
L 130 111.429017 
L 127.527273 110.764976 
L 125.054545 110.200187 
L 122.581818 109.515901 
L 120.109091 108.672437 
L 117.636364 107.878237 
L 115.163636 107.08617 
L 112.690909 106.185504 
L 110.218182 105.324857 
L 107.745455 104.353297 
L 105.272727 103.403446 
L 102.8 102.367879 
L 100.327273 101.312836 
L 97.854545 100.288298 
L 95.381818 99.316924 
L 92.909091 98.290854 
L 90.436364 97.286963 
L 87.963636 96.275845 
L 85.490909 95.269168 
L 83.018182 94.28355 
L 80.545455 93.335114 
L 78.072727 92.359641 
L 75.6 91.297934 
z
" style="fill-opacity:0.15;"/>
   </g>
   <g id="matplotlib.axis_1">
    <g id="xtick_1">
     <g id="line2d_1">
      <defs>
       <path d="M 0 0 
L 0 2 
" id="m17e4f0b9e4" style="stroke:#000000;stroke-width:0.25;"/>
      </defs>
      <g>
       <use style="stroke:#000000;stroke-width:0.25;" x="75.6" xlink:href="#m17e4f0b9e4" y="288"/>
      </g>
     </g>
     <g id="text_1">
      <text style="font-family:DejaVu Sans;font-size:6px;font-stretch:normal;font-style:normal;font-weight:normal;text-anchor:middle;" transform="rotate(-0, 75.6, 298.059062)" x="75.6" y="298.059062">0.0</text>
     </g>
    </g>
    <g id="xtick_2">
     <g id="line2d_2">
      <g>
       <use style="stroke:#000000;stroke-width:0.25;" x="116.4" xlink:href="#m17e4f0b9e4" y="288"/>
      </g>
     </g>
     <g id="text_2">
      <text style="font-family:DejaVu Sans;font-size:6px;font-stretch:normal;font-style:normal;font-weight:normal;text-anchor:middle;" transform="rotate(-0, 116.4, 298.059062)" x="116.4" y="298.059062">0.1</text>
     </g>
    </g>
    <g id="xtick_3">
     <g id="line2d_3">
      <g>
       <use style="stroke:#000000;stroke-width:0.25;" x="157.2" xlink:href="#m17e4f0b9e4" y="288"/>
      </g>
     </g>
     <g id="text_3">
      <text style="font-family:DejaVu Sans;font-size:6px;font-stretch:normal;font-style:normal;font-weight:normal;text-anchor:middle;" transform="rotate(-0, 157.2, 298.059062)" x="157.2" y="298.059062">0.2</text>
     </g>
    </g>
    <g id="xtick_4">
     <g id="line2d_4">
      <g>
       <use style="stroke:#000000;stroke-width:0.25;" x="198" xlink:href="#m17e4f0b9e4" y="288"/>
      </g>
     </g>
     <g id="text_4">
      <text style="font-family:DejaVu Sans;font-size:6px;font-stretch:normal;font-style:normal;font-weight:normal;text-anchor:middle;" transform="rotate(-0, 198, 298.059062)" x="198" y="298.059062">0.3</text>
     </g>
    </g>
    <g id="xtick_5">
     <g id="line2d_5">
      <g>
       <use style="stroke:#000000;stroke-width:0.25;" x="238.8" xlink:href="#m17e4f0b9e4" y="288"/>
      </g>
     </g>
     <g id="text_5">
      <text style="font-family:DejaVu Sans;font-size:6px;font-stretch:normal;font-style:normal;font-weight:normal;text-anchor:middle;" transform="rotate(-0, 238.8, 298.059062)" x="238.8" y="298.059062">0.4</text>
     </g>
    </g>
    <g id="xtick_6">
     <g id="line2d_6">
      <g>
       <use style="stroke:#000000;stroke-width:0.25;" x="279.6" xlink:href="#m17e4f0b9e4" y="288"/>
      </g>
     </g>
     <g id="text_6">
      <text style="font-family:DejaVu Sans;font-size:6px;font-stretch:normal;font-style:normal;font-weight:normal;text-anchor:middle;" transform="rotate(-0, 279.6, 298.059062)" x="279.6" y="298.059062">0.5</text>
     </g>
    </g>
    <g id="xtick_7">
     <g id="line2d_7">
      <g>
       <use style="stroke:#000000;stroke-width:0.25;" x="320.4" xlink:href="#m17e4f0b9e4" y="288"/>
      </g>
     </g>
     <g id="text_7">
      <text style="font-family:DejaVu Sans;font-size:6px;font-stretch:normal;font-style:normal;font-weight:normal;text-anchor:middle;" transform="rotate(-0, 320.4, 298.059062)" x="320.4" y="298.059062">0.6</text>
     </g>
    </g>
    <g id="text_8">
     <text style="font-family:DejaVu Sans;font-size:6px;font-stretch:normal;font-style:normal;font-weight:normal;text-anchor:middle;" transform="rotate(-0, 198, 307.865937)" x="198" y="307.865937">morph_ix</text>
    </g>
   </g>
   <g id="matplotlib.axis_2">
    <g id="ytick_1">
     <g id="line2d_8">
      <defs>
       <path d="M 0 0 
L -2 0 
" id="m8ee505fdab" style="stroke:#000000;stroke-width:0.25;"/>
      </defs>
      <g>
       <use style="stroke:#000000;stroke-width:0.25;" x="75.6" xlink:href="#m8ee505fdab" y="288"/>
      </g>
     </g>
     <g id="text_9">
      <text style="font-family:DejaVu Sans;font-size:6px;font-stretch:normal;font-style:normal;font-weight:normal;text-anchor:end;" transform="rotate(-0, 70.1, 290.279531)" x="70.1" y="290.279531">0.4</text>
     </g>
    </g>
    <g id="ytick_2">
     <g id="line2d_9">
      <g>
       <use style="stroke:#000000;stroke-width:0.25;" x="75.6" xlink:href="#m8ee505fdab" y="247.2"/>
      </g>
     </g>
     <g id="text_10">
      <text style="font-family:DejaVu Sans;font-size:6px;font-stretch:normal;font-style:normal;font-weight:normal;text-anchor:end;" transform="rotate(-0, 70.1, 249.479531)" x="70.1" y="249.479531">0.5</text>
     </g>
    </g>
    <g id="ytick_3">
     <g id="line2d_10">
      <g>
       <use style="stroke:#000000;stroke-width:0.25;" x="75.6" xlink:href="#m8ee505fdab" y="206.4"/>
      </g>
     </g>
     <g id="text_11">
      <text style="font-family:DejaVu Sans;font-size:6px;font-stretch:normal;font-style:normal;font-weight:normal;text-anchor:end;" transform="rotate(-0, 70.1, 208.679531)" x="70.1" y="208.679531">0.6</text>
     </g>
    </g>
    <g id="ytick_4">
     <g id="line2d_11">
      <g>
       <use style="stroke:#000000;stroke-width:0.25;" x="75.6" xlink:href="#m8ee505fdab" y="165.6"/>
      </g>
     </g>
     <g id="text_12">
      <text style="font-family:DejaVu Sans;font-size:6px;font-stretch:normal;font-style:normal;font-weight:normal;text-anchor:end;" transform="rotate(-0, 70.1, 167.879531)" x="70.1" y="167.879531">0.7</text>
     </g>
    </g>
    <g id="ytick_5">
     <g id="line2d_12">
      <g>
       <use style="stroke:#000000;stroke-width:0.25;" x="75.6" xlink:href="#m8ee505fdab" y="124.8"/>
      </g>
     </g>
     <g id="text_13">
      <text style="font-family:DejaVu Sans;font-size:6px;font-stretch:normal;font-style:normal;font-weight:normal;text-anchor:end;" transform="rotate(-0, 70.1, 127.079531)" x="70.1" y="127.079531">0.8</text>
     </g>
    </g>
    <g id="ytick_6">
     <g id="line2d_13">
      <g>
       <use style="stroke:#000000;stroke-width:0.25;" x="75.6" xlink:href="#m8ee505fdab" y="84"/>
      </g>
     </g>
     <g id="text_14">
      <text style="font-family:DejaVu Sans;font-size:6px;font-stretch:normal;font-style:normal;font-weight:normal;text-anchor:end;" transform="rotate(-0, 70.1, 86.279531)" x="70.1" y="86.279531">0.9</text>
     </g>
    </g>
    <g id="ytick_7">
     <g id="line2d_14">
      <g>
       <use style="stroke:#000000;stroke-width:0.25;" x="75.6" xlink:href="#m8ee505fdab" y="43.2"/>
      </g>
     </g>
     <g id="text_15">
      <text style="font-family:DejaVu Sans;font-size:6px;font-stretch:normal;font-style:normal;font-weight:normal;text-anchor:end;" transform="rotate(-0, 70.1, 45.479531)" x="70.1" y="45.479531">1.0</text>
     </g>
    </g>
    <g id="text_16">
     <text style="font-family:DejaVu Sans;font-size:6px;font-stretch:normal;font-style:normal;font-weight:normal;text-anchor:middle;" transform="rotate(-90, 55.143438, 165.6)" x="55.143438" y="165.6">size_tol</text>
    </g>
   </g>
   <g id="line2d_15">
    <path clip-path="url(#pf2f8a3c11d)" d="M 75.6 101.121128 
L 78.072727 101.792224 
L 80.545455 102.46332 
L 83.018182 103.134416 
L 85.490909 103.805512 
L 87.963636 104.476608 
L 90.436364 105.147705 
L 92.909091 105.818801 
L 95.381818 106.489897 
L 97.854545 107.160993 
L 100.327273 107.832089 
L 102.8 108.503185 
L 105.272727 109.174281 
L 107.745455 109.845378 
L 110.218182 110.516474 
L 112.690909 111.18757 
L 115.163636 111.858666 
L 117.636364 112.529762 
L 120.109091 113.200858 
L 122.581818 113.871954 
L 125.054545 114.543051 
L 127.527273 115.214147 
L 130 115.885243 
L 132.472727 116.556339 
L 134.945455 117.227435 
L 137.418182 117.898531 
L 139.890909 118.569627 
L 142.363636 119.240724 
L 144.836364 119.91182 
L 147.309091 120.582916 
L 149.781818 121.254012 
L 152.254545 121.925108 
L 154.727273 122.596204 
L 157.2 123.2673 
L 159.672727 123.938397 
L 162.145455 124.609493 
L 164.618182 125.280589 
L 167.090909 125.951685 
L 169.563636 126.622781 
L 172.036364 127.293877 
L 174.509091 127.964973 
L 176.981818 128.63607 
L 179.454545 129.307166 
L 181.927273 129.978262 
L 184.4 130.649358 
L 186.872727 131.320454 
L 189.345455 131.99155 
L 191.818182 132.662646 
L 194.290909 133.333743 
L 196.763636 134.004839 
L 199.236364 134.675935 
L 201.709091 135.347031 
L 204.181818 136.018127 
L 206.654545 136.689223 
L 209.127273 137.360319 
L 211.6 138.031416 
L 214.072727 138.702512 
L 216.545455 139.373608 
L 219.018182 140.044704 
L 221.490909 140.7158 
L 223.963636 141.386896 
L 226.436364 142.057992 
L 228.909091 142.729089 
L 231.381818 143.400185 
L 233.854545 144.071281 
L 236.327273 144.742377 
L 238.8 145.413473 
L 241.272727 146.084569 
L 243.745455 146.755666 
L 246.218182 147.426762 
L 248.690909 148.097858 
L 251.163636 148.768954 
L 253.636364 149.44005 
L 256.109091 150.111146 
L 258.581818 150.782242 
L 261.054545 151.453339 
L 263.527273 152.124435 
L 266 152.795531 
L 268.472727 153.466627 
L 270.945455 154.137723 
L 273.418182 154.808819 
L 275.890909 155.479915 
L 278.363636 156.151012 
L 280.836364 156.822108 
L 283.309091 157.493204 
L 285.781818 158.1643 
L 288.254545 158.835396 
L 290.727273 159.506492 
L 293.2 160.177588 
L 295.672727 160.848685 
L 298.145455 161.519781 
L 300.618182 162.190877 
L 303.090909 162.861973 
L 305.563636 163.533069 
L 308.036364 164.204165 
L 310.509091 164.875261 
L 312.981818 165.546358 
L 315.454545 166.217454 
L 317.927273 166.88855 
L 320.4 167.559646 
" style="fill:none;stroke:#000000;stroke-linecap:square;stroke-width:2.25;"/>
   </g>
   <g id="patch_3">
    <path d="M 75.6 288 
L 75.6 43.2 
" style="fill:none;stroke:#000000;stroke-linecap:square;stroke-linejoin:miter;stroke-width:0.25;"/>
   </g>
   <g id="patch_4">
    <path d="M 320.4 288 
L 320.4 43.2 
" style="fill:none;stroke:#000000;stroke-linecap:square;stroke-linejoin:miter;stroke-width:0.25;"/>
   </g>
   <g id="patch_5">
    <path d="M 75.6 288 
L 320.4 288 
" style="fill:none;stroke:#000000;stroke-linecap:square;stroke-linejoin:miter;stroke-width:0.25;"/>
   </g>
   <g id="patch_6">
    <path d="M 75.6 43.2 
L 320.4 43.2 
" style="fill:none;stroke:#000000;stroke-linecap:square;stroke-linejoin:miter;stroke-width:0.25;"/>
   </g>
   <g id="text_17">
    <text style="font-family:DejaVu Sans;font-size:7.2px;font-stretch:normal;font-style:normal;font-weight:normal;text-anchor:start;" transform="rotate(-0, 75.6, 37.2)" x="75.6" y="37.2">r=-0.21 (p=0.00)</text>
   </g>
  </g>
  <g id="text_18">
   <text style="font-family:DejaVu Sans;font-size:8px;font-stretch:normal;font-style:normal;font-weight:normal;text-anchor:start;" transform="rotate(-0, 0, 6.11375)" x="0" y="6.11375">neuraldata_traces001_dff_ROC-thr-0.05_plushalf_noRF|V1 - 20190616_JC097_fov1</text>
  </g>
 </g>
 <defs>
  <clipPath id="pf2f8a3c11d">
   <rect height="244.8" width="244.8" x="75.6" y="43.2"/>
  </clipPath>
 </defs>
</svg>
