<?xml version="1.0" encoding="utf-8" standalone="no"?>
<!DOCTYPE svg PUBLIC "-//W3C//DTD SVG 1.1//EN"
  "http://www.w3.org/Graphics/SVG/1.1/DTD/svg11.dtd">
<!-- Created with matplotlib (https://matplotlib.org/) -->
<svg height="360pt" version="1.1" viewBox="0 0 360 360" width="360pt" xmlns="http://www.w3.org/2000/svg" xmlns:xlink="http://www.w3.org/1999/xlink">
 <metadata>
  <rdf:RDF xmlns:cc="http://creativecommons.org/ns#" xmlns:dc="http://purl.org/dc/elements/1.1/" xmlns:rdf="http://www.w3.org/1999/02/22-rdf-syntax-ns#">
   <cc:Work>
    <dc:type rdf:resource="http://purl.org/dc/dcmitype/StillImage"/>
    <dc:date>2021-04-17T14:56:57.802215</dc:date>
    <dc:format>image/svg+xml</dc:format>
    <dc:creator>
     <cc:Agent>
      <dc:title>Matplotlib v3.3.4, https://matplotlib.org/</dc:title>
     </cc:Agent>
    </dc:creator>
   </cc:Work>
  </rdf:RDF>
 </metadata>
 <defs>
  <style type="text/css">*{stroke-linecap:butt;stroke-linejoin:round;}</style>
 </defs>
 <g id="figure_1">
  <g id="patch_1">
   <path d="M 0 360 
L 360 360 
L 360 0 
L 0 0 
z
" style="fill:#ffffff;"/>
  </g>
  <g id="axes_1">
   <g id="patch_2">
    <path d="M 75.6 288 
L 320.4 288 
L 320.4 43.2 
L 75.6 43.2 
z
" style="fill:#ffffff;"/>
   </g>
   <g id="PathCollection_1">
    <defs>
     <path d="M 0 1.581139 
C 0.419323 1.581139 0.821528 1.41454 1.118034 1.118034 
C 1.41454 0.821528 1.581139 0.419323 1.581139 0 
C 1.581139 -0.419323 1.41454 -0.821528 1.118034 -1.118034 
C 0.821528 -1.41454 0.419323 -1.581139 0 -1.581139 
C -0.419323 -1.581139 -0.821528 -1.41454 -1.118034 -1.118034 
C -1.41454 -0.821528 -1.581139 -0.419323 -1.581139 0 
C -1.581139 0.419323 -1.41454 0.821528 -1.118034 1.118034 
C -0.821528 1.41454 -0.419323 1.581139 0 1.581139 
z
" id="m6f47d45158" style="stroke:#000000;"/>
    </defs>
    <g clip-path="url(#p899434d945)">
     <use style="stroke:#000000;" x="105.951429" xlink:href="#m6f47d45158" y="99.875575"/>
     <use style="stroke:#000000;" x="114.240259" xlink:href="#m6f47d45158" y="146.222087"/>
     <use style="stroke:#000000;" x="155.255096" xlink:href="#m6f47d45158" y="132.897182"/>
     <use style="stroke:#000000;" x="104.026753" xlink:href="#m6f47d45158" y="79.245288"/>
     <use style="stroke:#000000;" x="99.406125" xlink:href="#m6f47d45158" y="132.636266"/>
     <use style="stroke:#000000;" x="107.101193" xlink:href="#m6f47d45158" y="86.270654"/>
     <use style="stroke:#000000;" x="177.637307" xlink:href="#m6f47d45158" y="172.945684"/>
     <use style="stroke:#000000;" x="144.202247" xlink:href="#m6f47d45158" y="126.359447"/>
     <use style="stroke:#000000;" x="125.687325" xlink:href="#m6f47d45158" y="104.614009"/>
     <use style="stroke:#000000;" x="127.39704" xlink:href="#m6f47d45158" y="146.886673"/>
     <use style="stroke:#000000;" x="152.880797" xlink:href="#m6f47d45158" y="117.663308"/>
     <use style="stroke:#000000;" x="107.281405" xlink:href="#m6f47d45158" y="93.488018"/>
     <use style="stroke:#000000;" x="122.385601" xlink:href="#m6f47d45158" y="166.308037"/>
     <use style="stroke:#000000;" x="150.559373" xlink:href="#m6f47d45158" y="179.684082"/>
     <use style="stroke:#000000;" x="93.098346" xlink:href="#m6f47d45158" y="67.892184"/>
     <use style="stroke:#000000;" x="108.120411" xlink:href="#m6f47d45158" y="92.682024"/>
     <use style="stroke:#000000;" x="125.621591" xlink:href="#m6f47d45158" y="112.621845"/>
     <use style="stroke:#000000;" x="110.333561" xlink:href="#m6f47d45158" y="84.148598"/>
     <use style="stroke:#000000;" x="168.707164" xlink:href="#m6f47d45158" y="121.589837"/>
     <use style="stroke:#000000;" x="163.730583" xlink:href="#m6f47d45158" y="189.312101"/>
     <use style="stroke:#000000;" x="125.833744" xlink:href="#m6f47d45158" y="139.173159"/>
     <use style="stroke:#000000;" x="113.863617" xlink:href="#m6f47d45158" y="79.221671"/>
     <use style="stroke:#000000;" x="112.765663" xlink:href="#m6f47d45158" y="110.933866"/>
     <use style="stroke:#000000;" x="98.651644" xlink:href="#m6f47d45158" y="163.168065"/>
     <use style="stroke:#000000;" x="127.898955" xlink:href="#m6f47d45158" y="103.990251"/>
     <use style="stroke:#000000;" x="101.174336" xlink:href="#m6f47d45158" y="82.628535"/>
     <use style="stroke:#000000;" x="129.1563" xlink:href="#m6f47d45158" y="109.885819"/>
     <use style="stroke:#000000;" x="158.098195" xlink:href="#m6f47d45158" y="233.23551"/>
     <use style="stroke:#000000;" x="125.923356" xlink:href="#m6f47d45158" y="132.498081"/>
     <use style="stroke:#000000;" x="91.472016" xlink:href="#m6f47d45158" y="64.663936"/>
     <use style="stroke:#000000;" x="128.228189" xlink:href="#m6f47d45158" y="111.800617"/>
     <use style="stroke:#000000;" x="262.748194" xlink:href="#m6f47d45158" y="271.294178"/>
     <use style="stroke:#000000;" x="94.904541" xlink:href="#m6f47d45158" y="67.677353"/>
     <use style="stroke:#000000;" x="118.316457" xlink:href="#m6f47d45158" y="80.001744"/>
     <use style="stroke:#000000;" x="117.284766" xlink:href="#m6f47d45158" y="88.573852"/>
     <use style="stroke:#000000;" x="116.276127" xlink:href="#m6f47d45158" y="112.994754"/>
     <use style="stroke:#000000;" x="145.104117" xlink:href="#m6f47d45158" y="103.032784"/>
     <use style="stroke:#000000;" x="119.199871" xlink:href="#m6f47d45158" y="120.819989"/>
     <use style="stroke:#000000;" x="123.780895" xlink:href="#m6f47d45158" y="91.388762"/>
     <use style="stroke:#000000;" x="111.369894" xlink:href="#m6f47d45158" y="75.252705"/>
     <use style="stroke:#000000;" x="120.986262" xlink:href="#m6f47d45158" y="106.50336"/>
     <use style="stroke:#000000;" x="98.766515" xlink:href="#m6f47d45158" y="101.561273"/>
     <use style="stroke:#000000;" x="146.811197" xlink:href="#m6f47d45158" y="117.055739"/>
     <use style="stroke:#000000;" x="146.634694" xlink:href="#m6f47d45158" y="110.890191"/>
     <use style="stroke:#000000;" x="110.369131" xlink:href="#m6f47d45158" y="106.963576"/>
     <use style="stroke:#000000;" x="92.03148" xlink:href="#m6f47d45158" y="106.555538"/>
     <use style="stroke:#000000;" x="132.05022" xlink:href="#m6f47d45158" y="150.187969"/>
     <use style="stroke:#000000;" x="113.618535" xlink:href="#m6f47d45158" y="118.381588"/>
     <use style="stroke:#000000;" x="118.76684" xlink:href="#m6f47d45158" y="90.385354"/>
     <use style="stroke:#000000;" x="140.827749" xlink:href="#m6f47d45158" y="156.849965"/>
     <use style="stroke:#000000;" x="124.555109" xlink:href="#m6f47d45158" y="104.800432"/>
     <use style="stroke:#000000;" x="136.897303" xlink:href="#m6f47d45158" y="169.990951"/>
     <use style="stroke:#000000;" x="118.717168" xlink:href="#m6f47d45158" y="97.348348"/>
     <use style="stroke:#000000;" x="145.271361" xlink:href="#m6f47d45158" y="153.480036"/>
     <use style="stroke:#000000;" x="166.909553" xlink:href="#m6f47d45158" y="141.677105"/>
     <use style="stroke:#000000;" x="126.465826" xlink:href="#m6f47d45158" y="115.335528"/>
     <use style="stroke:#000000;" x="113.287349" xlink:href="#m6f47d45158" y="87.368351"/>
     <use style="stroke:#000000;" x="106.62846" xlink:href="#m6f47d45158" y="102.078107"/>
     <use style="stroke:#000000;" x="121.158235" xlink:href="#m6f47d45158" y="158.740832"/>
    </g>
   </g>
   <g id="PolyCollection_1">
    <path clip-path="url(#p899434d945)" d="M 75.6 53.452403 
L 75.6 82.588602 
L 78.072727 84.546157 
L 80.545455 86.41702 
L 83.018182 88.532698 
L 85.490909 90.592846 
L 87.963636 92.493331 
L 90.436364 94.224167 
L 92.909091 96.102471 
L 95.381818 98.357141 
L 97.854545 100.264321 
L 100.327273 102.236619 
L 102.8 104.522044 
L 105.272727 106.699002 
L 107.745455 108.841613 
L 110.218182 110.979845 
L 112.690909 113.557502 
L 115.163636 115.649961 
L 117.636364 117.954559 
L 120.109091 120.386504 
L 122.581818 122.938175 
L 125.054545 125.505495 
L 127.527273 128.214605 
L 130 130.957243 
L 132.472727 133.617346 
L 134.945455 136.490491 
L 137.418182 139.610221 
L 139.890909 142.453208 
L 142.363636 145.486197 
L 144.836364 148.41227 
L 147.309091 151.533276 
L 149.781818 154.602698 
L 152.254545 157.700984 
L 154.727273 160.950584 
L 157.2 164.374933 
L 159.672727 167.825391 
L 162.145455 171.161243 
L 164.618182 174.31225 
L 167.090909 177.435979 
L 169.563636 180.57012 
L 172.036364 183.558026 
L 174.509091 186.545931 
L 176.981818 189.598789 
L 179.454545 193.005631 
L 181.927273 196.373897 
L 184.4 199.531175 
L 186.872727 202.748707 
L 189.345455 205.919326 
L 191.818182 209.229057 
L 194.290909 212.353803 
L 196.763636 215.444347 
L 199.236364 218.682686 
L 201.709091 221.892957 
L 204.181818 225.161797 
L 206.654545 228.423163 
L 209.127273 231.516562 
L 211.6 234.544022 
L 214.072727 237.753004 
L 216.545455 241.001353 
L 219.018182 244.248944 
L 221.490909 247.49373 
L 223.963636 250.738516 
L 226.436364 253.983303 
L 228.909091 257.224916 
L 231.381818 260.352575 
L 233.854545 263.480235 
L 236.327273 266.607895 
L 238.8 269.735554 
L 241.272727 272.863214 
L 243.745455 275.990873 
L 246.218182 279.118533 
L 248.690909 282.246193 
L 251.163636 285.373852 
L 253.636364 288.501512 
L 256.109091 291.629172 
L 258.581818 294.756831 
L 261.054545 297.950474 
L 263.527273 301.175113 
L 266 304.399751 
L 268.472727 307.624389 
L 270.945455 310.849028 
L 273.418182 314.073666 
L 275.890909 317.298304 
L 278.363636 320.522943 
L 280.836364 323.747581 
L 283.309091 326.97222 
L 285.781818 330.196858 
L 288.254545 333.421496 
L 290.727273 336.646135 
L 293.2 339.870773 
L 295.672727 343.095411 
L 298.145455 346.32005 
L 300.618182 349.544688 
L 303.090909 352.769326 
L 305.563636 355.993965 
L 308.036364 359.218603 
L 310.509091 362.443242 
L 312.981818 365.66788 
L 315.454545 368.892518 
L 317.927273 372.117157 
L 320.4 375.341795 
L 320.4 263.418441 
L 320.4 263.418441 
L 317.927273 261.637466 
L 315.454545 259.85649 
L 312.981818 258.075514 
L 310.509091 256.294539 
L 308.036364 254.513563 
L 305.563636 252.683381 
L 303.090909 250.797348 
L 300.618182 248.911316 
L 298.145455 247.025283 
L 295.672727 245.13925 
L 293.2 243.253217 
L 290.727273 241.367184 
L 288.254545 239.481152 
L 285.781818 237.595119 
L 283.309091 235.709086 
L 280.836364 233.823053 
L 278.363636 231.93702 
L 275.890909 230.050988 
L 273.418182 228.164955 
L 270.945455 226.298789 
L 268.472727 224.479641 
L 266 222.660493 
L 263.527273 220.841345 
L 261.054545 219.022197 
L 258.581818 217.203049 
L 256.109091 215.383901 
L 253.636364 213.564753 
L 251.163636 211.745605 
L 248.690909 209.926457 
L 246.218182 208.107309 
L 243.745455 206.288161 
L 241.272727 204.469013 
L 238.8 202.649864 
L 236.327273 200.690999 
L 233.854545 198.720143 
L 231.381818 196.753054 
L 228.909091 194.786177 
L 226.436364 192.8193 
L 223.963636 191.033578 
L 221.490909 189.302535 
L 219.018182 187.572452 
L 216.545455 185.750048 
L 214.072727 183.735276 
L 211.6 181.878144 
L 209.127273 180.086875 
L 206.654545 178.298783 
L 204.181818 176.37535 
L 201.709091 174.34061 
L 199.236364 172.466218 
L 196.763636 170.684592 
L 194.290909 168.906178 
L 191.818182 167.127763 
L 189.345455 165.349348 
L 186.872727 163.532714 
L 184.4 161.59873 
L 181.927273 159.63381 
L 179.454545 157.593859 
L 176.981818 155.796776 
L 174.509091 153.931509 
L 172.036364 152.194109 
L 169.563636 150.248039 
L 167.090909 148.120495 
L 164.618182 146.113727 
L 162.145455 144.376641 
L 159.672727 142.395767 
L 157.2 140.450376 
L 154.727273 138.494605 
L 152.254545 136.673041 
L 149.781818 134.492404 
L 147.309091 132.484799 
L 144.836364 130.355528 
L 142.363636 128.330869 
L 139.890909 126.265901 
L 137.418182 124.17027 
L 134.945455 121.871893 
L 132.472727 119.465485 
L 130 117.065403 
L 127.527273 114.672476 
L 125.054545 112.0969 
L 122.581818 109.670397 
L 120.109091 106.988828 
L 117.636364 104.254973 
L 115.163636 101.42194 
L 112.690909 98.595062 
L 110.218182 95.781961 
L 107.745455 93.017891 
L 105.272727 90.115548 
L 102.8 87.213852 
L 100.327273 84.206583 
L 97.854545 81.409355 
L 95.381818 78.43459 
L 92.909091 75.396656 
L 90.436364 72.506701 
L 87.963636 69.484491 
L 85.490909 66.42406 
L 83.018182 63.02808 
L 80.545455 59.810437 
L 78.072727 56.491978 
L 75.6 53.452403 
z
" style="fill-opacity:0.15;"/>
   </g>
   <g id="matplotlib.axis_1">
    <g id="xtick_1">
     <g id="line2d_1">
      <defs>
       <path d="M 0 0 
L 0 2 
" id="m2b16e0286c" style="stroke:#000000;stroke-width:0.25;"/>
      </defs>
      <g>
       <use style="stroke:#000000;stroke-width:0.25;" x="75.6" xlink:href="#m2b16e0286c" y="288"/>
      </g>
     </g>
     <g id="text_1">
      <text style="font-family:DejaVu Sans;font-size:6px;font-stretch:normal;font-style:normal;font-weight:normal;text-anchor:middle;" transform="rotate(-0, 75.6, 298.059062)" x="75.6" y="298.059062">0.0</text>
     </g>
    </g>
    <g id="xtick_2">
     <g id="line2d_2">
      <g>
       <use style="stroke:#000000;stroke-width:0.25;" x="116.4" xlink:href="#m2b16e0286c" y="288"/>
      </g>
     </g>
     <g id="text_2">
      <text style="font-family:DejaVu Sans;font-size:6px;font-stretch:normal;font-style:normal;font-weight:normal;text-anchor:middle;" transform="rotate(-0, 116.4, 298.059062)" x="116.4" y="298.059062">0.1</text>
     </g>
    </g>
    <g id="xtick_3">
     <g id="line2d_3">
      <g>
       <use style="stroke:#000000;stroke-width:0.25;" x="157.2" xlink:href="#m2b16e0286c" y="288"/>
      </g>
     </g>
     <g id="text_3">
      <text style="font-family:DejaVu Sans;font-size:6px;font-stretch:normal;font-style:normal;font-weight:normal;text-anchor:middle;" transform="rotate(-0, 157.2, 298.059062)" x="157.2" y="298.059062">0.2</text>
     </g>
    </g>
    <g id="xtick_4">
     <g id="line2d_4">
      <g>
       <use style="stroke:#000000;stroke-width:0.25;" x="198" xlink:href="#m2b16e0286c" y="288"/>
      </g>
     </g>
     <g id="text_4">
      <text style="font-family:DejaVu Sans;font-size:6px;font-stretch:normal;font-style:normal;font-weight:normal;text-anchor:middle;" transform="rotate(-0, 198, 298.059062)" x="198" y="298.059062">0.3</text>
     </g>
    </g>
    <g id="xtick_5">
     <g id="line2d_5">
      <g>
       <use style="stroke:#000000;stroke-width:0.25;" x="238.8" xlink:href="#m2b16e0286c" y="288"/>
      </g>
     </g>
     <g id="text_5">
      <text style="font-family:DejaVu Sans;font-size:6px;font-stretch:normal;font-style:normal;font-weight:normal;text-anchor:middle;" transform="rotate(-0, 238.8, 298.059062)" x="238.8" y="298.059062">0.4</text>
     </g>
    </g>
    <g id="xtick_6">
     <g id="line2d_6">
      <g>
       <use style="stroke:#000000;stroke-width:0.25;" x="279.6" xlink:href="#m2b16e0286c" y="288"/>
      </g>
     </g>
     <g id="text_6">
      <text style="font-family:DejaVu Sans;font-size:6px;font-stretch:normal;font-style:normal;font-weight:normal;text-anchor:middle;" transform="rotate(-0, 279.6, 298.059062)" x="279.6" y="298.059062">0.5</text>
     </g>
    </g>
    <g id="xtick_7">
     <g id="line2d_7">
      <g>
       <use style="stroke:#000000;stroke-width:0.25;" x="320.4" xlink:href="#m2b16e0286c" y="288"/>
      </g>
     </g>
     <g id="text_7">
      <text style="font-family:DejaVu Sans;font-size:6px;font-stretch:normal;font-style:normal;font-weight:normal;text-anchor:middle;" transform="rotate(-0, 320.4, 298.059062)" x="320.4" y="298.059062">0.6</text>
     </g>
    </g>
    <g id="text_8">
     <text style="font-family:DejaVu Sans;font-size:6px;font-stretch:normal;font-style:normal;font-weight:normal;text-anchor:middle;" transform="rotate(-0, 198, 307.865937)" x="198" y="307.865937">morph_ix</text>
    </g>
   </g>
   <g id="matplotlib.axis_2">
    <g id="ytick_1">
     <g id="line2d_8">
      <defs>
       <path d="M 0 0 
L -2 0 
" id="m51e661fa6c" style="stroke:#000000;stroke-width:0.25;"/>
      </defs>
      <g>
       <use style="stroke:#000000;stroke-width:0.25;" x="75.6" xlink:href="#m51e661fa6c" y="288"/>
      </g>
     </g>
     <g id="text_9">
      <text style="font-family:DejaVu Sans;font-size:6px;font-stretch:normal;font-style:normal;font-weight:normal;text-anchor:end;" transform="rotate(-0, 70.1, 290.279531)" x="70.1" y="290.279531">0.4</text>
     </g>
    </g>
    <g id="ytick_2">
     <g id="line2d_9">
      <g>
       <use style="stroke:#000000;stroke-width:0.25;" x="75.6" xlink:href="#m51e661fa6c" y="247.2"/>
      </g>
     </g>
     <g id="text_10">
      <text style="font-family:DejaVu Sans;font-size:6px;font-stretch:normal;font-style:normal;font-weight:normal;text-anchor:end;" transform="rotate(-0, 70.1, 249.479531)" x="70.1" y="249.479531">0.5</text>
     </g>
    </g>
    <g id="ytick_3">
     <g id="line2d_10">
      <g>
       <use style="stroke:#000000;stroke-width:0.25;" x="75.6" xlink:href="#m51e661fa6c" y="206.4"/>
      </g>
     </g>
     <g id="text_11">
      <text style="font-family:DejaVu Sans;font-size:6px;font-stretch:normal;font-style:normal;font-weight:normal;text-anchor:end;" transform="rotate(-0, 70.1, 208.679531)" x="70.1" y="208.679531">0.6</text>
     </g>
    </g>
    <g id="ytick_4">
     <g id="line2d_11">
      <g>
       <use style="stroke:#000000;stroke-width:0.25;" x="75.6" xlink:href="#m51e661fa6c" y="165.6"/>
      </g>
     </g>
     <g id="text_12">
      <text style="font-family:DejaVu Sans;font-size:6px;font-stretch:normal;font-style:normal;font-weight:normal;text-anchor:end;" transform="rotate(-0, 70.1, 167.879531)" x="70.1" y="167.879531">0.7</text>
     </g>
    </g>
    <g id="ytick_5">
     <g id="line2d_12">
      <g>
       <use style="stroke:#000000;stroke-width:0.25;" x="75.6" xlink:href="#m51e661fa6c" y="124.8"/>
      </g>
     </g>
     <g id="text_13">
      <text style="font-family:DejaVu Sans;font-size:6px;font-stretch:normal;font-style:normal;font-weight:normal;text-anchor:end;" transform="rotate(-0, 70.1, 127.079531)" x="70.1" y="127.079531">0.8</text>
     </g>
    </g>
    <g id="ytick_6">
     <g id="line2d_13">
      <g>
       <use style="stroke:#000000;stroke-width:0.25;" x="75.6" xlink:href="#m51e661fa6c" y="84"/>
      </g>
     </g>
     <g id="text_14">
      <text style="font-family:DejaVu Sans;font-size:6px;font-stretch:normal;font-style:normal;font-weight:normal;text-anchor:end;" transform="rotate(-0, 70.1, 86.279531)" x="70.1" y="86.279531">0.9</text>
     </g>
    </g>
    <g id="ytick_7">
     <g id="line2d_14">
      <g>
       <use style="stroke:#000000;stroke-width:0.25;" x="75.6" xlink:href="#m51e661fa6c" y="43.2"/>
      </g>
     </g>
     <g id="text_15">
      <text style="font-family:DejaVu Sans;font-size:6px;font-stretch:normal;font-style:normal;font-weight:normal;text-anchor:end;" transform="rotate(-0, 70.1, 45.479531)" x="70.1" y="45.479531">1.0</text>
     </g>
    </g>
    <g id="text_16">
     <text style="font-family:DejaVu Sans;font-size:6px;font-stretch:normal;font-style:normal;font-weight:normal;text-anchor:middle;" transform="rotate(-90, 55.143438, 165.6)" x="55.143438" y="165.6">size_tol</text>
    </g>
   </g>
   <g id="line2d_15">
    <path clip-path="url(#p899434d945)" d="M 75.6 66.344497 
L 78.072727 68.9582 
L 80.545455 71.571902 
L 83.018182 74.185605 
L 85.490909 76.799308 
L 87.963636 79.41301 
L 90.436364 82.026713 
L 92.909091 84.640416 
L 95.381818 87.254118 
L 97.854545 89.867821 
L 100.327273 92.481524 
L 102.8 95.095226 
L 105.272727 97.708929 
L 107.745455 100.322632 
L 110.218182 102.936334 
L 112.690909 105.550037 
L 115.163636 108.16374 
L 117.636364 110.777443 
L 120.109091 113.391145 
L 122.581818 116.004848 
L 125.054545 118.618551 
L 127.527273 121.232253 
L 130 123.845956 
L 132.472727 126.459659 
L 134.945455 129.073361 
L 137.418182 131.687064 
L 139.890909 134.300767 
L 142.363636 136.914469 
L 144.836364 139.528172 
L 147.309091 142.141875 
L 149.781818 144.755577 
L 152.254545 147.36928 
L 154.727273 149.982983 
L 157.2 152.596686 
L 159.672727 155.210388 
L 162.145455 157.824091 
L 164.618182 160.437794 
L 167.090909 163.051496 
L 169.563636 165.665199 
L 172.036364 168.278902 
L 174.509091 170.892604 
L 176.981818 173.506307 
L 179.454545 176.12001 
L 181.927273 178.733712 
L 184.4 181.347415 
L 186.872727 183.961118 
L 189.345455 186.57482 
L 191.818182 189.188523 
L 194.290909 191.802226 
L 196.763636 194.415928 
L 199.236364 197.029631 
L 201.709091 199.643334 
L 204.181818 202.257037 
L 206.654545 204.870739 
L 209.127273 207.484442 
L 211.6 210.098145 
L 214.072727 212.711847 
L 216.545455 215.32555 
L 219.018182 217.939253 
L 221.490909 220.552955 
L 223.963636 223.166658 
L 226.436364 225.780361 
L 228.909091 228.394063 
L 231.381818 231.007766 
L 233.854545 233.621469 
L 236.327273 236.235171 
L 238.8 238.848874 
L 241.272727 241.462577 
L 243.745455 244.076279 
L 246.218182 246.689982 
L 248.690909 249.303685 
L 251.163636 251.917388 
L 253.636364 254.53109 
L 256.109091 257.144793 
L 258.581818 259.758496 
L 261.054545 262.372198 
L 263.527273 264.985901 
L 266 267.599604 
L 268.472727 270.213306 
L 270.945455 272.827009 
L 273.418182 275.440712 
L 275.890909 278.054414 
L 278.363636 280.668117 
L 280.836364 283.28182 
L 283.309091 285.895522 
L 285.781818 288.509225 
L 288.254545 291.122928 
L 290.727273 293.736631 
L 293.2 296.350333 
L 295.672727 298.964036 
L 298.145455 301.577739 
L 300.618182 304.191441 
L 303.090909 306.805144 
L 305.563636 309.418847 
L 308.036364 312.032549 
L 310.509091 314.646252 
L 312.981818 317.259955 
L 315.454545 319.873657 
L 317.927273 322.48736 
L 320.4 325.101063 
" style="fill:none;stroke:#000000;stroke-linecap:square;stroke-width:2.25;"/>
   </g>
   <g id="patch_3">
    <path d="M 75.6 288 
L 75.6 43.2 
" style="fill:none;stroke:#000000;stroke-linecap:square;stroke-linejoin:miter;stroke-width:0.25;"/>
   </g>
   <g id="patch_4">
    <path d="M 320.4 288 
L 320.4 43.2 
" style="fill:none;stroke:#000000;stroke-linecap:square;stroke-linejoin:miter;stroke-width:0.25;"/>
   </g>
   <g id="patch_5">
    <path d="M 75.6 288 
L 320.4 288 
" style="fill:none;stroke:#000000;stroke-linecap:square;stroke-linejoin:miter;stroke-width:0.25;"/>
   </g>
   <g id="patch_6">
    <path d="M 75.6 43.2 
L 320.4 43.2 
" style="fill:none;stroke:#000000;stroke-linecap:square;stroke-linejoin:miter;stroke-width:0.25;"/>
   </g>
   <g id="text_17">
    <text style="font-family:DejaVu Sans;font-size:7.2px;font-stretch:normal;font-style:normal;font-weight:normal;text-anchor:start;" transform="rotate(-0, 75.6, 37.2)" x="75.6" y="37.2">r=-0.74 (p=0.00)</text>
   </g>
  </g>
  <g id="text_18">
   <text style="font-family:DejaVu Sans;font-size:8px;font-stretch:normal;font-style:normal;font-weight:normal;text-anchor:start;" transform="rotate(-0, 0, 6.11375)" x="0" y="6.11375">neuraldata_traces001_dff_ROC-thr-0.05_plushalf_noRF|Lm - 20190504_JC078_fov1</text>
  </g>
 </g>
 <defs>
  <clipPath id="p899434d945">
   <rect height="244.8" width="244.8" x="75.6" y="43.2"/>
  </clipPath>
 </defs>
</svg>
