<?xml version="1.0" encoding="utf-8" standalone="no"?>
<!DOCTYPE svg PUBLIC "-//W3C//DTD SVG 1.1//EN"
  "http://www.w3.org/Graphics/SVG/1.1/DTD/svg11.dtd">
<!-- Created with matplotlib (https://matplotlib.org/) -->
<svg height="360pt" version="1.1" viewBox="0 0 576 360" width="576pt" xmlns="http://www.w3.org/2000/svg" xmlns:xlink="http://www.w3.org/1999/xlink">
 <metadata>
  <rdf:RDF xmlns:cc="http://creativecommons.org/ns#" xmlns:dc="http://purl.org/dc/elements/1.1/" xmlns:rdf="http://www.w3.org/1999/02/22-rdf-syntax-ns#">
   <cc:Work>
    <dc:type rdf:resource="http://purl.org/dc/dcmitype/StillImage"/>
    <dc:date>2021-04-17T14:56:47.215674</dc:date>
    <dc:format>image/svg+xml</dc:format>
    <dc:creator>
     <cc:Agent>
      <dc:title>Matplotlib v3.3.4, https://matplotlib.org/</dc:title>
     </cc:Agent>
    </dc:creator>
   </cc:Work>
  </rdf:RDF>
 </metadata>
 <defs>
  <style type="text/css">*{stroke-linecap:butt;stroke-linejoin:round;}</style>
 </defs>
 <g id="figure_1">
  <g id="patch_1">
   <path d="M 0 360 
L 576 360 
L 576 0 
L 0 0 
z
" style="fill:#ffffff;"/>
  </g>
  <g id="axes_1">
   <g id="patch_2">
    <path d="M 57.6 306 
L 280.145455 306 
L 280.145455 126 
L 57.6 126 
z
" style="fill:#ffffff;"/>
   </g>
   <g id="matplotlib.axis_1">
    <g id="xtick_1">
     <g id="line2d_1">
      <defs>
       <path d="M 0 0 
L 0 3.5 
" id="m81483bd2a2" style="stroke:#000000;stroke-width:0.25;"/>
      </defs>
      <g>
       <use style="stroke:#000000;stroke-width:0.25;" x="67.715702" xlink:href="#m81483bd2a2" y="308"/>
      </g>
     </g>
     <g id="text_1">
      <text style="font-family:DejaVu Sans;font-size:6px;font-stretch:normal;font-style:normal;font-weight:normal;text-anchor:middle;" transform="rotate(-0, 67.715702, 319.559062)" x="67.715702" y="319.559062">0</text>
     </g>
    </g>
    <g id="xtick_2">
     <g id="line2d_2">
      <g>
       <use style="stroke:#000000;stroke-width:0.25;" x="168.872727" xlink:href="#m81483bd2a2" y="308"/>
      </g>
     </g>
     <g id="text_2">
      <text style="font-family:DejaVu Sans;font-size:6px;font-stretch:normal;font-style:normal;font-weight:normal;text-anchor:middle;" transform="rotate(-0, 168.872727, 319.559062)" x="168.872727" y="319.559062">0.5</text>
     </g>
    </g>
    <g id="xtick_3">
     <g id="line2d_3">
      <g>
       <use style="stroke:#000000;stroke-width:0.25;" x="270.029752" xlink:href="#m81483bd2a2" y="308"/>
      </g>
     </g>
     <g id="text_3">
      <text style="font-family:DejaVu Sans;font-size:6px;font-stretch:normal;font-style:normal;font-weight:normal;text-anchor:middle;" transform="rotate(-0, 270.029752, 319.559062)" x="270.029752" y="319.559062">1</text>
     </g>
    </g>
    <g id="text_4">
     <text style="font-family:DejaVu Sans;font-size:6px;font-stretch:normal;font-style:normal;font-weight:normal;text-anchor:middle;" transform="rotate(-0, 168.872727, 329.365937)" x="168.872727" y="329.365937">Morph level</text>
    </g>
   </g>
   <g id="matplotlib.axis_2">
    <g id="ytick_1">
     <g id="line2d_4">
      <defs>
       <path d="M 0 0 
L -3.5 0 
" id="mfc65732440" style="stroke:#000000;stroke-width:0.25;"/>
      </defs>
      <g>
       <use style="stroke:#000000;stroke-width:0.25;" x="55.6" xlink:href="#mfc65732440" y="306"/>
      </g>
     </g>
     <g id="text_5">
      <text style="font-family:DejaVu Sans;font-size:6px;font-stretch:normal;font-style:normal;font-weight:normal;text-anchor:end;" transform="rotate(-0, 48.6, 308.279531)" x="48.6" y="308.279531">0.0</text>
     </g>
    </g>
    <g id="ytick_2">
     <g id="line2d_5">
      <g>
       <use style="stroke:#000000;stroke-width:0.25;" x="55.6" xlink:href="#mfc65732440" y="270.356436"/>
      </g>
     </g>
     <g id="text_6">
      <text style="font-family:DejaVu Sans;font-size:6px;font-stretch:normal;font-style:normal;font-weight:normal;text-anchor:end;" transform="rotate(-0, 48.6, 272.635967)" x="48.6" y="272.635967">0.2</text>
     </g>
    </g>
    <g id="ytick_3">
     <g id="line2d_6">
      <g>
       <use style="stroke:#000000;stroke-width:0.25;" x="55.6" xlink:href="#mfc65732440" y="234.712871"/>
      </g>
     </g>
     <g id="text_7">
      <text style="font-family:DejaVu Sans;font-size:6px;font-stretch:normal;font-style:normal;font-weight:normal;text-anchor:end;" transform="rotate(-0, 48.6, 236.992403)" x="48.6" y="236.992403">0.4</text>
     </g>
    </g>
    <g id="ytick_4">
     <g id="line2d_7">
      <g>
       <use style="stroke:#000000;stroke-width:0.25;" x="55.6" xlink:href="#mfc65732440" y="199.069307"/>
      </g>
     </g>
     <g id="text_8">
      <text style="font-family:DejaVu Sans;font-size:6px;font-stretch:normal;font-style:normal;font-weight:normal;text-anchor:end;" transform="rotate(-0, 48.6, 201.348838)" x="48.6" y="201.348838">0.6</text>
     </g>
    </g>
    <g id="ytick_5">
     <g id="line2d_8">
      <g>
       <use style="stroke:#000000;stroke-width:0.25;" x="55.6" xlink:href="#mfc65732440" y="163.425743"/>
      </g>
     </g>
     <g id="text_9">
      <text style="font-family:DejaVu Sans;font-size:6px;font-stretch:normal;font-style:normal;font-weight:normal;text-anchor:end;" transform="rotate(-0, 48.6, 165.705274)" x="48.6" y="165.705274">0.8</text>
     </g>
    </g>
    <g id="ytick_6">
     <g id="line2d_9">
      <g>
       <use style="stroke:#000000;stroke-width:0.25;" x="55.6" xlink:href="#mfc65732440" y="127.782178"/>
      </g>
     </g>
     <g id="text_10">
      <text style="font-family:DejaVu Sans;font-size:6px;font-stretch:normal;font-style:normal;font-weight:normal;text-anchor:end;" transform="rotate(-0, 48.6, 130.061709)" x="48.6" y="130.061709">1.0</text>
     </g>
    </g>
    <g id="text_11">
     <text style="font-family:DejaVu Sans;font-size:6px;font-stretch:normal;font-style:normal;font-weight:normal;text-anchor:middle;" transform="rotate(-90, 33.810313, 216)" x="33.810313" y="216">Normalized df/f</text>
    </g>
   </g>
   <g id="line2d_10">
    <path clip-path="url(#p1ac4d43cec)" d="M 67.715702 145.895718 
L 93.004959 137.979919 
L 118.294215 149.422921 
L 143.583471 128.705333 
L 168.872727 129.803787 
L 194.161983 142.147255 
L 219.45124 141.802885 
L 244.740496 127.782178 
L 270.029752 152.561678 
" style="fill:none;stroke:#808080;stroke-linecap:square;stroke-width:0.25;"/>
   </g>
   <g id="line2d_11">
    <path clip-path="url(#p1ac4d43cec)" d="M 67.715702 133.956801 
L 93.004959 127.782178 
L 118.294215 135.062271 
L 143.583471 157.113021 
L 168.872727 145.997662 
L 194.161983 154.711481 
L 219.45124 142.092878 
L 244.740496 149.312357 
L 270.029752 139.038071 
" style="fill:none;stroke:#808080;stroke-linecap:square;stroke-width:0.25;"/>
   </g>
   <g id="line2d_12">
    <path clip-path="url(#p1ac4d43cec)" d="M 67.715702 176.382628 
L 93.004959 178.781427 
L 118.294215 167.978276 
L 143.583471 150.150228 
L 168.872727 154.954224 
L 194.161983 170.397689 
L 219.45124 159.123314 
L 244.740496 142.84175 
L 270.029752 127.782178 
" style="fill:none;stroke:#808080;stroke-linecap:square;stroke-width:0.25;"/>
   </g>
   <g id="line2d_13">
    <path clip-path="url(#p1ac4d43cec)" d="M 67.715702 136.392333 
L 93.004959 141.403877 
L 118.294215 148.498495 
L 143.583471 148.488466 
L 168.872727 134.390808 
L 194.161983 139.425419 
L 219.45124 139.913891 
L 244.740496 133.080492 
L 270.029752 127.782178 
" style="fill:none;stroke:#808080;stroke-linecap:square;stroke-width:0.25;"/>
   </g>
   <g id="line2d_14">
    <path clip-path="url(#p1ac4d43cec)" d="M 67.715702 127.782178 
L 93.004959 137.286947 
L 118.294215 129.513733 
L 143.583471 140.209124 
L 168.872727 139.858957 
L 194.161983 149.155578 
L 219.45124 139.248956 
L 244.740496 136.628826 
L 270.029752 133.545024 
" style="fill:none;stroke:#808080;stroke-linecap:square;stroke-width:0.25;"/>
   </g>
   <g id="line2d_15">
    <path clip-path="url(#p1ac4d43cec)" d="M 67.715702 140.928512 
L 93.004959 136.484227 
L 118.294215 141.158761 
L 143.583471 148.67996 
L 168.872727 140.789626 
L 194.161983 140.794527 
L 219.45124 146.10373 
L 244.740496 137.397964 
L 270.029752 127.782178 
" style="fill:none;stroke:#808080;stroke-linecap:square;stroke-width:0.25;"/>
   </g>
   <g id="line2d_16">
    <path clip-path="url(#p1ac4d43cec)" d="M 67.715702 127.782178 
L 93.004959 176.549611 
L 118.294215 184.652725 
L 143.583471 179.034951 
L 168.872727 157.28144 
L 194.161983 154.140665 
L 219.45124 175.846089 
L 244.740496 188.67183 
L 270.029752 162.646128 
" style="fill:none;stroke:#808080;stroke-linecap:square;stroke-width:0.25;"/>
   </g>
   <g id="line2d_17">
    <path clip-path="url(#p1ac4d43cec)" d="M 67.715702 127.782178 
L 93.004959 147.789015 
L 118.294215 159.559122 
L 143.583471 160.837225 
L 168.872727 167.614289 
L 194.161983 149.124405 
L 219.45124 164.943228 
L 244.740496 158.255759 
L 270.029752 153.862677 
" style="fill:none;stroke:#808080;stroke-linecap:square;stroke-width:0.25;"/>
   </g>
   <g id="line2d_18">
    <path clip-path="url(#p1ac4d43cec)" d="M 67.715702 127.782178 
L 93.004959 156.644489 
L 118.294215 162.745602 
L 143.583471 153.819772 
L 168.872727 147.230288 
L 194.161983 145.261824 
L 219.45124 148.46055 
L 244.740496 150.339001 
L 270.029752 132.784408 
" style="fill:none;stroke:#808080;stroke-linecap:square;stroke-width:0.25;"/>
   </g>
   <g id="line2d_19">
    <path clip-path="url(#p1ac4d43cec)" d="M 67.715702 162.918504 
L 93.004959 165.858054 
L 118.294215 135.403587 
L 143.583471 139.097768 
L 168.872727 127.782178 
L 194.161983 155.846922 
L 219.45124 142.528943 
L 244.740496 156.900003 
L 270.029752 144.706697 
" style="fill:none;stroke:#808080;stroke-linecap:square;stroke-width:0.25;"/>
   </g>
   <g id="line2d_20">
    <path clip-path="url(#p1ac4d43cec)" d="M 67.715702 180.122238 
L 93.004959 179.034083 
L 118.294215 170.351786 
L 143.583471 166.723508 
L 168.872727 141.682419 
L 194.161983 146.782009 
L 219.45124 147.147983 
L 244.740496 160.468601 
L 270.029752 127.782178 
" style="fill:none;stroke:#808080;stroke-linecap:square;stroke-width:0.25;"/>
   </g>
   <g id="line2d_21">
    <path clip-path="url(#p1ac4d43cec)" d="M 67.715702 146.909763 
L 93.004959 149.09799 
L 118.294215 137.719863 
L 143.583471 127.782178 
L 168.872727 128.292366 
L 194.161983 157.640353 
L 219.45124 140.380517 
L 244.740496 137.353282 
L 270.029752 135.572917 
" style="fill:none;stroke:#808080;stroke-linecap:square;stroke-width:0.25;"/>
   </g>
   <g id="line2d_22">
    <path clip-path="url(#p1ac4d43cec)" d="M 67.715702 143.850557 
L 93.004959 141.327739 
L 118.294215 157.35552 
L 143.583471 147.06429 
L 168.872727 145.931788 
L 194.161983 149.514485 
L 219.45124 140.19686 
L 244.740496 127.782178 
L 270.029752 160.50693 
" style="fill:none;stroke:#808080;stroke-linecap:square;stroke-width:0.25;"/>
   </g>
   <g id="line2d_23">
    <path clip-path="url(#p1ac4d43cec)" d="M 67.715702 155.549601 
L 93.004959 170.830888 
L 118.294215 127.782178 
L 143.583471 137.065465 
L 168.872727 160.658562 
L 194.161983 146.732649 
L 219.45124 165.803936 
L 244.740496 182.594684 
L 270.029752 164.964703 
" style="fill:none;stroke:#808080;stroke-linecap:square;stroke-width:0.25;"/>
   </g>
   <g id="line2d_24">
    <path clip-path="url(#p1ac4d43cec)" d="M 67.715702 136.489436 
L 93.004959 134.768684 
L 118.294215 140.395663 
L 143.583471 136.003737 
L 168.872727 127.782178 
L 194.161983 132.849786 
L 219.45124 133.502914 
L 244.740496 133.914535 
L 270.029752 135.480063 
" style="fill:none;stroke:#808080;stroke-linecap:square;stroke-width:0.25;"/>
   </g>
   <g id="line2d_25">
    <path clip-path="url(#p1ac4d43cec)" d="M 67.715702 141.494536 
L 93.004959 146.024165 
L 118.294215 140.660403 
L 143.583471 154.10699 
L 168.872727 144.591183 
L 194.161983 141.364264 
L 219.45124 133.991729 
L 244.740496 127.782178 
L 270.029752 133.665661 
" style="fill:none;stroke:#808080;stroke-linecap:square;stroke-width:0.25;"/>
   </g>
   <g id="line2d_26">
    <path clip-path="url(#p1ac4d43cec)" d="M 67.715702 127.782178 
L 93.004959 146.474371 
L 118.294215 156.207993 
L 143.583471 156.709099 
L 168.872727 147.554097 
L 194.161983 154.163259 
L 219.45124 156.879917 
L 244.740496 130.557503 
L 270.029752 148.509988 
" style="fill:none;stroke:#808080;stroke-linecap:square;stroke-width:0.25;"/>
   </g>
   <g id="line2d_27">
    <path clip-path="url(#p1ac4d43cec)" d="M 67.715702 127.782178 
L 93.004959 146.458659 
L 118.294215 152.99859 
L 143.583471 140.646685 
L 168.872727 141.411575 
L 194.161983 146.851721 
L 219.45124 140.116065 
L 244.740496 139.490553 
L 270.029752 135.658863 
" style="fill:none;stroke:#808080;stroke-linecap:square;stroke-width:0.25;"/>
   </g>
   <g id="line2d_28">
    <path clip-path="url(#p1ac4d43cec)" d="M 67.715702 189.306076 
L 93.004959 182.186301 
L 118.294215 150.613561 
L 143.583471 150.887833 
L 168.872727 164.572233 
L 194.161983 170.624515 
L 219.45124 175.290358 
L 244.740496 164.136471 
L 270.029752 127.782178 
" style="fill:none;stroke:#808080;stroke-linecap:square;stroke-width:0.25;"/>
   </g>
   <g id="line2d_29">
    <path clip-path="url(#p1ac4d43cec)" d="M 67.715702 172.68424 
L 93.004959 172.536263 
L 118.294215 134.822472 
L 143.583471 131.980999 
L 168.872727 127.782178 
L 194.161983 175.590128 
L 219.45124 174.876509 
L 244.740496 188.261942 
L 270.029752 179.474294 
" style="fill:none;stroke:#808080;stroke-linecap:square;stroke-width:0.25;"/>
   </g>
   <g id="line2d_30">
    <path clip-path="url(#p1ac4d43cec)" d="M 67.715702 133.8022 
L 93.004959 146.657277 
L 118.294215 164.974588 
L 143.583471 144.389714 
L 168.872727 127.782178 
L 194.161983 155.86577 
L 219.45124 150.802744 
L 244.740496 138.074248 
L 270.029752 163.231051 
" style="fill:none;stroke:#808080;stroke-linecap:square;stroke-width:0.25;"/>
   </g>
   <g id="line2d_31">
    <path clip-path="url(#p1ac4d43cec)" d="M 67.715702 139.081353 
L 93.004959 127.782178 
L 118.294215 144.92318 
L 143.583471 148.628164 
L 168.872727 139.231663 
L 194.161983 145.762807 
L 219.45124 143.896623 
L 244.740496 146.394092 
L 270.029752 148.050495 
" style="fill:none;stroke:#808080;stroke-linecap:square;stroke-width:0.25;"/>
   </g>
   <g id="line2d_32">
    <path clip-path="url(#p1ac4d43cec)" d="M 67.715702 127.782178 
L 93.004959 141.514529 
L 118.294215 154.479804 
L 143.583471 142.040045 
L 168.872727 143.113437 
L 194.161983 149.834092 
L 219.45124 132.665469 
L 244.740496 137.99072 
L 270.029752 150.493515 
" style="fill:none;stroke:#808080;stroke-linecap:square;stroke-width:0.25;"/>
   </g>
   <g id="line2d_33">
    <path clip-path="url(#p1ac4d43cec)" d="M 67.715702 134.655347 
L 93.004959 131.120382 
L 118.294215 140.230406 
L 143.583471 151.170552 
L 168.872727 133.382309 
L 194.161983 140.723652 
L 219.45124 135.634947 
L 244.740496 127.782178 
L 270.029752 135.893044 
" style="fill:none;stroke:#808080;stroke-linecap:square;stroke-width:0.25;"/>
   </g>
   <g id="line2d_34">
    <path clip-path="url(#p1ac4d43cec)" d="M 67.715702 127.782178 
L 93.004959 150.242118 
L 118.294215 155.050079 
L 143.583471 150.523024 
L 168.872727 138.143413 
L 194.161983 160.656368 
L 219.45124 148.736226 
L 244.740496 150.390069 
L 270.029752 151.273106 
" style="fill:none;stroke:#808080;stroke-linecap:square;stroke-width:0.25;"/>
   </g>
   <g id="line2d_35">
    <path clip-path="url(#p1ac4d43cec)" d="M 67.715702 127.782178 
L 93.004959 135.241681 
L 118.294215 138.338718 
L 143.583471 136.149336 
L 168.872727 129.685524 
L 194.161983 144.917228 
L 219.45124 140.362343 
L 244.740496 142.742495 
L 270.029752 144.188778 
" style="fill:none;stroke:#808080;stroke-linecap:square;stroke-width:0.25;"/>
   </g>
   <g id="line2d_36">
    <path clip-path="url(#p1ac4d43cec)" d="M 67.715702 127.782178 
L 93.004959 152.130283 
L 118.294215 145.066901 
L 143.583471 148.631909 
L 168.872727 135.511004 
L 194.161983 162.21147 
L 219.45124 150.72187 
L 244.740496 159.000426 
L 270.029752 156.13429 
" style="fill:none;stroke:#808080;stroke-linecap:square;stroke-width:0.25;"/>
   </g>
   <g id="line2d_37">
    <path clip-path="url(#p1ac4d43cec)" d="M 67.715702 127.782178 
L 93.004959 140.993586 
L 118.294215 151.999185 
L 143.583471 172.033697 
L 168.872727 159.992323 
L 194.161983 164.319591 
L 219.45124 172.306124 
L 244.740496 179.713293 
L 270.029752 169.186855 
" style="fill:none;stroke:#808080;stroke-linecap:square;stroke-width:0.25;"/>
   </g>
   <g id="line2d_38">
    <path clip-path="url(#p1ac4d43cec)" d="M 67.715702 132.675359 
L 93.004959 150.160438 
L 118.294215 173.017138 
L 143.583471 149.986589 
L 168.872727 127.782178 
L 194.161983 156.004239 
L 219.45124 130.99912 
L 244.740496 143.672063 
L 270.029752 161.595792 
" style="fill:none;stroke:#808080;stroke-linecap:square;stroke-width:0.25;"/>
   </g>
   <g id="line2d_39">
    <path clip-path="url(#p1ac4d43cec)" d="M 67.715702 127.782178 
L 93.004959 128.88707 
L 118.294215 139.758619 
L 143.583471 134.335748 
L 168.872727 131.054271 
L 194.161983 137.879916 
L 219.45124 131.682248 
L 244.740496 133.795099 
L 270.029752 140.328692 
" style="fill:none;stroke:#808080;stroke-linecap:square;stroke-width:0.25;"/>
   </g>
   <g id="line2d_40">
    <path clip-path="url(#p1ac4d43cec)" d="M 67.715702 141.77475 
L 93.004959 153.956917 
L 118.294215 144.886168 
L 143.583471 150.2177 
L 168.872727 157.976314 
L 194.161983 133.006732 
L 219.45124 165.976205 
L 244.740496 158.370114 
L 270.029752 127.782178 
" style="fill:none;stroke:#808080;stroke-linecap:square;stroke-width:0.25;"/>
   </g>
   <g id="line2d_41">
    <path clip-path="url(#p1ac4d43cec)" d="M 67.715702 229.541824 
L 93.004959 238.757684 
L 118.294215 245.553049 
L 143.583471 233.156352 
L 168.872727 216.843036 
L 194.161983 185.197307 
L 219.45124 170.870698 
L 244.740496 156.320681 
L 270.029752 127.782178 
" style="fill:none;stroke:#808080;stroke-linecap:square;stroke-width:0.25;"/>
   </g>
   <g id="line2d_42">
    <path clip-path="url(#p1ac4d43cec)" d="M 67.715702 140.478004 
L 93.004959 132.449907 
L 118.294215 137.406747 
L 143.583471 136.842583 
L 168.872727 143.347974 
L 194.161983 127.782178 
L 219.45124 133.425767 
L 244.740496 134.236918 
L 270.029752 131.528608 
" style="fill:none;stroke:#808080;stroke-linecap:square;stroke-width:0.25;"/>
   </g>
   <g id="line2d_43">
    <path clip-path="url(#p1ac4d43cec)" d="M 67.715702 142.963886 
L 93.004959 147.613462 
L 118.294215 145.079948 
L 143.583471 153.490689 
L 168.872727 146.106975 
L 194.161983 151.941344 
L 219.45124 140.653975 
L 244.740496 143.678401 
L 270.029752 127.782178 
" style="fill:none;stroke:#808080;stroke-linecap:square;stroke-width:0.25;"/>
   </g>
   <g id="line2d_44">
    <path clip-path="url(#p1ac4d43cec)" d="M 67.715702 152.840526 
L 93.004959 150.698495 
L 118.294215 147.573271 
L 143.583471 135.014873 
L 168.872727 141.608653 
L 194.161983 157.150108 
L 219.45124 148.746803 
L 244.740496 134.290741 
L 270.029752 127.782178 
" style="fill:none;stroke:#808080;stroke-linecap:square;stroke-width:0.25;"/>
   </g>
   <g id="line2d_45">
    <path clip-path="url(#p1ac4d43cec)" d="M 67.715702 127.782178 
L 93.004959 150.273688 
L 118.294215 155.184755 
L 143.583471 145.701256 
L 168.872727 147.436317 
L 194.161983 134.84299 
L 219.45124 137.380259 
L 244.740496 143.101331 
L 270.029752 150.478216 
" style="fill:none;stroke:#808080;stroke-linecap:square;stroke-width:0.25;"/>
   </g>
   <g id="line2d_46">
    <path clip-path="url(#p1ac4d43cec)" d="M 67.715702 178.927737 
L 93.004959 162.325947 
L 118.294215 163.878143 
L 143.583471 143.074944 
L 168.872727 147.680973 
L 194.161983 167.093047 
L 219.45124 160.754479 
L 244.740496 141.402007 
L 270.029752 127.782178 
" style="fill:none;stroke:#808080;stroke-linecap:square;stroke-width:0.25;"/>
   </g>
   <g id="line2d_47">
    <path clip-path="url(#p1ac4d43cec)" d="M 67.715702 127.782178 
L 93.004959 147.908665 
L 118.294215 165.111435 
L 143.583471 142.835983 
L 168.872727 130.812306 
L 194.161983 158.811455 
L 219.45124 141.370666 
L 244.740496 133.529914 
L 270.029752 154.235318 
" style="fill:none;stroke:#808080;stroke-linecap:square;stroke-width:0.25;"/>
   </g>
   <g id="line2d_48">
    <path clip-path="url(#p1ac4d43cec)" d="M 67.715702 143.522688 
L 93.004959 151.19736 
L 118.294215 127.782178 
L 143.583471 139.71016 
L 168.872727 148.306381 
L 194.161983 152.921918 
L 219.45124 140.099227 
L 244.740496 160.742922 
L 270.029752 154.12332 
" style="fill:none;stroke:#808080;stroke-linecap:square;stroke-width:0.25;"/>
   </g>
   <g id="line2d_49">
    <path clip-path="url(#p1ac4d43cec)" d="M 67.715702 135.621586 
L 93.004959 146.897818 
L 118.294215 150.181589 
L 143.583471 145.914063 
L 168.872727 148.826682 
L 194.161983 136.76446 
L 219.45124 144.682879 
L 244.740496 138.365067 
L 270.029752 127.782178 
" style="fill:none;stroke:#808080;stroke-linecap:square;stroke-width:0.25;"/>
   </g>
   <g id="line2d_50">
    <path clip-path="url(#p1ac4d43cec)" d="M 67.715702 127.782178 
L 93.004959 148.002102 
L 118.294215 153.113306 
L 143.583471 151.422437 
L 168.872727 143.961603 
L 194.161983 158.144637 
L 219.45124 147.930633 
L 244.740496 131.695934 
L 270.029752 146.587576 
" style="fill:none;stroke:#808080;stroke-linecap:square;stroke-width:0.25;"/>
   </g>
   <g id="line2d_51">
    <path clip-path="url(#p1ac4d43cec)" d="M 67.715702 127.782178 
L 93.004959 133.220094 
L 118.294215 144.757193 
L 143.583471 141.755717 
L 168.872727 133.753071 
L 194.161983 134.705694 
L 219.45124 140.606842 
L 244.740496 136.462565 
L 270.029752 137.950873 
" style="fill:none;stroke:#808080;stroke-linecap:square;stroke-width:0.25;"/>
   </g>
   <g id="line2d_52">
    <path clip-path="url(#p1ac4d43cec)" d="M 67.715702 161.57616 
L 93.004959 168.012962 
L 118.294215 162.523544 
L 143.583471 164.02944 
L 168.872727 169.636002 
L 194.161983 149.158524 
L 219.45124 150.157406 
L 244.740496 146.008572 
L 270.029752 127.782178 
" style="fill:none;stroke:#808080;stroke-linecap:square;stroke-width:0.25;"/>
   </g>
   <g id="line2d_53">
    <path clip-path="url(#p1ac4d43cec)" d="M 67.715702 174.082621 
L 93.004959 166.19342 
L 118.294215 162.427106 
L 143.583471 162.756118 
L 168.872727 171.168293 
L 194.161983 151.267621 
L 219.45124 151.771258 
L 244.740496 130.819391 
L 270.029752 127.782178 
" style="fill:none;stroke:#808080;stroke-linecap:square;stroke-width:0.25;"/>
   </g>
   <g id="line2d_54">
    <path clip-path="url(#p1ac4d43cec)" d="M 67.715702 127.782178 
L 93.004959 136.945907 
L 118.294215 160.084216 
L 143.583471 145.044036 
L 168.872727 137.331806 
L 194.161983 147.011037 
L 219.45124 129.766733 
L 244.740496 130.51785 
L 270.029752 157.055425 
" style="fill:none;stroke:#808080;stroke-linecap:square;stroke-width:0.25;"/>
   </g>
   <g id="line2d_55">
    <path clip-path="url(#p1ac4d43cec)" d="M 67.715702 133.1185 
L 93.004959 132.16676 
L 118.294215 127.782178 
L 143.583471 139.452002 
L 168.872727 133.755303 
L 194.161983 137.247468 
L 219.45124 131.610864 
L 244.740496 129.537988 
L 270.029752 142.787806 
" style="fill:none;stroke:#808080;stroke-linecap:square;stroke-width:0.25;"/>
   </g>
   <g id="line2d_56">
    <path clip-path="url(#p1ac4d43cec)" d="M 67.715702 163.943476 
L 93.004959 127.782178 
L 118.294215 142.881984 
L 143.583471 156.305532 
L 168.872727 164.477458 
L 194.161983 155.907706 
L 219.45124 135.618043 
L 244.740496 160.374238 
L 270.029752 140.012426 
" style="fill:none;stroke:#808080;stroke-linecap:square;stroke-width:0.25;"/>
   </g>
   <g id="line2d_57">
    <path clip-path="url(#p1ac4d43cec)" d="M 67.715702 131.566027 
L 93.004959 141.500463 
L 118.294215 157.931157 
L 143.583471 143.143303 
L 168.872727 134.865026 
L 194.161983 158.430012 
L 219.45124 127.782178 
L 244.740496 133.943199 
L 270.029752 153.73276 
" style="fill:none;stroke:#808080;stroke-linecap:square;stroke-width:0.25;"/>
   </g>
   <g id="line2d_58">
    <path clip-path="url(#p1ac4d43cec)" d="M 67.715702 131.709235 
L 93.004959 137.266435 
L 118.294215 127.782178 
L 143.583471 142.146894 
L 168.872727 149.115506 
L 194.161983 156.166323 
L 219.45124 154.578007 
L 244.740496 151.229568 
L 270.029752 150.890558 
" style="fill:none;stroke:#808080;stroke-linecap:square;stroke-width:0.25;"/>
   </g>
   <g id="line2d_59">
    <path clip-path="url(#p1ac4d43cec)" d="M 67.715702 165.199271 
L 93.004959 161.639835 
L 118.294215 145.447 
L 143.583471 157.76711 
L 168.872727 127.782178 
L 194.161983 168.47874 
L 219.45124 154.27545 
L 244.740496 150.867375 
L 270.029752 146.518869 
" style="fill:none;stroke:#808080;stroke-linecap:square;stroke-width:0.25;"/>
   </g>
   <g id="line2d_60">
    <path clip-path="url(#p1ac4d43cec)" d="M 67.715702 141.902803 
L 93.004959 142.567004 
L 118.294215 142.957724 
L 143.583471 146.345898 
L 168.872727 140.996684 
L 194.161983 164.143344 
L 219.45124 168.801253 
L 244.740496 145.614733 
L 270.029752 127.782178 
" style="fill:none;stroke:#808080;stroke-linecap:square;stroke-width:0.25;"/>
   </g>
   <g id="line2d_61">
    <path clip-path="url(#p1ac4d43cec)" d="M 67.715702 127.782178 
L 93.004959 151.122059 
L 118.294215 146.240373 
L 143.583471 157.682901 
L 168.872727 154.336444 
L 194.161983 158.615984 
L 219.45124 155.076906 
L 244.740496 151.511841 
L 270.029752 161.872326 
" style="fill:none;stroke:#808080;stroke-linecap:square;stroke-width:0.25;"/>
   </g>
   <g id="line2d_62">
    <path clip-path="url(#p1ac4d43cec)" d="M 67.715702 145.705805 
L 93.004959 138.807215 
L 118.294215 154.161333 
L 143.583471 145.456113 
L 168.872727 151.349976 
L 194.161983 150.660083 
L 219.45124 127.782178 
L 244.740496 141.923857 
L 270.029752 144.864569 
" style="fill:none;stroke:#808080;stroke-linecap:square;stroke-width:0.25;"/>
   </g>
   <g id="line2d_63">
    <path clip-path="url(#p1ac4d43cec)" d="M 67.715702 127.782178 
L 93.004959 154.668202 
L 118.294215 171.315721 
L 143.583471 154.258494 
L 168.872727 159.039278 
L 194.161983 157.611203 
L 219.45124 155.602727 
L 244.740496 144.022515 
L 270.029752 169.203565 
" style="fill:none;stroke:#808080;stroke-linecap:square;stroke-width:0.25;"/>
   </g>
   <g id="line2d_64">
    <path clip-path="url(#p1ac4d43cec)" d="M 67.715702 166.176164 
L 93.004959 175.893058 
L 118.294215 173.716186 
L 143.583471 161.401413 
L 168.872727 127.782178 
L 194.161983 159.545712 
L 219.45124 164.158705 
L 244.740496 178.967294 
L 270.029752 161.47712 
" style="fill:none;stroke:#808080;stroke-linecap:square;stroke-width:0.25;"/>
   </g>
   <g id="line2d_65">
    <path clip-path="url(#p1ac4d43cec)" d="M 67.715702 127.782178 
L 93.004959 143.602617 
L 118.294215 167.113769 
L 143.583471 149.109142 
L 168.872727 145.207027 
L 194.161983 155.721559 
L 219.45124 142.381211 
L 244.740496 138.117924 
L 270.029752 158.753134 
" style="fill:none;stroke:#808080;stroke-linecap:square;stroke-width:0.25;"/>
   </g>
   <g id="line2d_66">
    <path clip-path="url(#p1ac4d43cec)" d="M 67.715702 133.243118 
L 93.004959 142.703712 
L 118.294215 139.651497 
L 143.583471 127.782178 
L 168.872727 149.250781 
L 194.161983 150.089484 
L 219.45124 144.2345 
L 244.740496 144.809773 
L 270.029752 149.971761 
" style="fill:none;stroke:#808080;stroke-linecap:square;stroke-width:0.25;"/>
   </g>
   <g id="line2d_67">
    <path clip-path="url(#p1ac4d43cec)" d="M 67.715702 127.782178 
L 93.004959 139.212201 
L 118.294215 152.073821 
L 143.583471 130.334307 
L 168.872727 134.152758 
L 194.161983 144.371425 
L 219.45124 145.84316 
L 244.740496 137.907955 
L 270.029752 146.789731 
" style="fill:none;stroke:#808080;stroke-linecap:square;stroke-width:0.25;"/>
   </g>
   <g id="line2d_68">
    <path clip-path="url(#p1ac4d43cec)" d="M 67.715702 159.117674 
L 93.004959 176.127046 
L 118.294215 128.334881 
L 143.583471 145.857412 
L 168.872727 138.19903 
L 194.161983 157.069703 
L 219.45124 127.782178 
L 244.740496 130.587201 
L 270.029752 146.16623 
" style="fill:none;stroke:#808080;stroke-linecap:square;stroke-width:0.25;"/>
   </g>
   <g id="line2d_69">
    <path clip-path="url(#p1ac4d43cec)" d="M 67.715702 229.541824 
L 93.004959 238.757684 
L 118.294215 245.553049 
L 143.583471 233.156352 
L 168.872727 216.843036 
L 194.161983 185.197307 
L 219.45124 170.870698 
L 244.740496 156.320681 
L 270.029752 127.782178 
" style="fill:none;stroke:#6495ed;stroke-linecap:square;stroke-width:2;"/>
   </g>
   <g id="line2d_70">
    <path clip-path="url(#p1ac4d43cec)" d="M 67.715702 127.782178 
L 93.004959 140.993586 
L 118.294215 151.999185 
L 143.583471 172.033697 
L 168.872727 159.992323 
L 194.161983 164.319591 
L 219.45124 172.306124 
L 244.740496 179.713293 
L 270.029752 169.186855 
" style="fill:none;stroke:#ffa500;stroke-linecap:square;stroke-width:2;"/>
   </g>
   <g id="patch_3">
    <path d="M 55.6 306 
L 55.6 127.782178 
" style="fill:none;stroke:#000000;stroke-linecap:square;stroke-linejoin:miter;stroke-width:0.25;"/>
   </g>
   <g id="patch_4">
    <path d="M 67.715702 308 
L 270.029752 308 
" style="fill:none;stroke:#000000;stroke-linecap:square;stroke-linejoin:miter;stroke-width:0.25;"/>
   </g>
   <g id="text_12">
    <text style="font-family:DejaVu Sans;font-size:7.2px;font-stretch:normal;font-style:normal;font-weight:normal;text-anchor:middle;" transform="rotate(-0, 168.872727, 120)" x="168.872727" y="120">Morph tuning</text>
   </g>
   <g id="legend_1">
    <g id="patch_5">
     <path d="M 109.12679 87 
L 228.618665 87 
Q 229.818665 87 229.818665 85.8 
L 229.818665 68.78625 
Q 229.818665 67.58625 228.618665 67.58625 
L 109.12679 67.58625 
Q 107.92679 67.58625 107.92679 68.78625 
L 107.92679 85.8 
Q 107.92679 87 109.12679 87 
z
" style="fill:#ffffff;opacity:0.8;stroke:#cccccc;stroke-linejoin:miter;"/>
    </g>
    <g id="line2d_71">
     <path d="M 110.32679 72.445313 
L 122.32679 72.445313 
" style="fill:none;stroke:#6495ed;stroke-linecap:square;stroke-width:2;"/>
    </g>
    <g id="line2d_72"/>
    <g id="text_13">
     <text style="font-family:DejaVu Sans;font-size:6px;font-stretch:normal;font-style:normal;font-weight:normal;text-anchor:start;" transform="rotate(-0, 127.12679, 74.545313)" x="127.12679" y="74.545313">Cell 194, MX=0.46 (best sz=194)</text>
    </g>
    <g id="line2d_73">
     <path d="M 110.32679 81.252188 
L 122.32679 81.252188 
" style="fill:none;stroke:#ffa500;stroke-linecap:square;stroke-width:2;"/>
    </g>
    <g id="line2d_74"/>
    <g id="text_14">
     <text style="font-family:DejaVu Sans;font-size:6px;font-stretch:normal;font-style:normal;font-weight:normal;text-anchor:start;" transform="rotate(-0, 127.12679, 83.352188)" x="127.12679" y="83.352188">Cell 185, MX=0.20 (best sz=185)</text>
    </g>
   </g>
  </g>
  <g id="axes_2">
   <g id="patch_6">
    <path d="M 324.654545 306 
L 547.2 306 
L 547.2 126 
L 324.654545 126 
z
" style="fill:#ffffff;"/>
   </g>
   <g id="matplotlib.axis_3">
    <g id="xtick_4">
     <g id="line2d_75">
      <g>
       <use style="stroke:#000000;stroke-width:0.25;" x="334.770248" xlink:href="#m81483bd2a2" y="308"/>
      </g>
     </g>
     <g id="text_15">
      <text style="font-family:DejaVu Sans;font-size:6px;font-stretch:normal;font-style:normal;font-weight:normal;text-anchor:middle;" transform="rotate(-0, 334.770248, 319.559062)" x="334.770248" y="319.559062">10</text>
     </g>
    </g>
    <g id="xtick_5">
     <g id="line2d_76">
      <g>
       <use style="stroke:#000000;stroke-width:0.25;" x="385.34876" xlink:href="#m81483bd2a2" y="308"/>
      </g>
     </g>
     <g id="text_16">
      <text style="font-family:DejaVu Sans;font-size:6px;font-stretch:normal;font-style:normal;font-weight:normal;text-anchor:middle;" transform="rotate(-0, 385.34876, 319.559062)" x="385.34876" y="319.559062">20</text>
     </g>
    </g>
    <g id="xtick_6">
     <g id="line2d_77">
      <g>
       <use style="stroke:#000000;stroke-width:0.25;" x="435.927273" xlink:href="#m81483bd2a2" y="308"/>
      </g>
     </g>
     <g id="text_17">
      <text style="font-family:DejaVu Sans;font-size:6px;font-stretch:normal;font-style:normal;font-weight:normal;text-anchor:middle;" transform="rotate(-0, 435.927273, 319.559062)" x="435.927273" y="319.559062">30</text>
     </g>
    </g>
    <g id="xtick_7">
     <g id="line2d_78">
      <g>
       <use style="stroke:#000000;stroke-width:0.25;" x="486.505785" xlink:href="#m81483bd2a2" y="308"/>
      </g>
     </g>
     <g id="text_18">
      <text style="font-family:DejaVu Sans;font-size:6px;font-stretch:normal;font-style:normal;font-weight:normal;text-anchor:middle;" transform="rotate(-0, 486.505785, 319.559062)" x="486.505785" y="319.559062">40</text>
     </g>
    </g>
    <g id="xtick_8">
     <g id="line2d_79">
      <g>
       <use style="stroke:#000000;stroke-width:0.25;" x="537.084298" xlink:href="#m81483bd2a2" y="308"/>
      </g>
     </g>
     <g id="text_19">
      <text style="font-family:DejaVu Sans;font-size:6px;font-stretch:normal;font-style:normal;font-weight:normal;text-anchor:middle;" transform="rotate(-0, 537.084298, 319.559062)" x="537.084298" y="319.559062">50</text>
     </g>
    </g>
    <g id="text_20">
     <text style="font-family:DejaVu Sans;font-size:6px;font-stretch:normal;font-style:normal;font-weight:normal;text-anchor:middle;" transform="rotate(-0, 435.927273, 329.365937)" x="435.927273" y="329.365937">Size (deg)</text>
    </g>
   </g>
   <g id="matplotlib.axis_4">
    <g id="ytick_7">
     <g id="line2d_80">
      <g>
       <use style="stroke:#000000;stroke-width:0.25;" x="322.654545" xlink:href="#mfc65732440" y="306"/>
      </g>
     </g>
    </g>
    <g id="ytick_8">
     <g id="line2d_81">
      <g>
       <use style="stroke:#000000;stroke-width:0.25;" x="322.654545" xlink:href="#mfc65732440" y="270.356436"/>
      </g>
     </g>
    </g>
    <g id="ytick_9">
     <g id="line2d_82">
      <g>
       <use style="stroke:#000000;stroke-width:0.25;" x="322.654545" xlink:href="#mfc65732440" y="234.712871"/>
      </g>
     </g>
    </g>
    <g id="ytick_10">
     <g id="line2d_83">
      <g>
       <use style="stroke:#000000;stroke-width:0.25;" x="322.654545" xlink:href="#mfc65732440" y="199.069307"/>
      </g>
     </g>
    </g>
    <g id="ytick_11">
     <g id="line2d_84">
      <g>
       <use style="stroke:#000000;stroke-width:0.25;" x="322.654545" xlink:href="#mfc65732440" y="163.425743"/>
      </g>
     </g>
    </g>
    <g id="ytick_12">
     <g id="line2d_85">
      <g>
       <use style="stroke:#000000;stroke-width:0.25;" x="322.654545" xlink:href="#mfc65732440" y="127.782178"/>
      </g>
     </g>
    </g>
   </g>
   <g id="line2d_86">
    <path clip-path="url(#p45cde89af9)" d="M 334.770248 127.782178 
L 385.34876 149.112364 
L 435.927273 154.849837 
L 486.505785 150.89389 
L 537.084298 155.298088 
" style="fill:none;stroke:#808080;stroke-linecap:square;stroke-width:0.25;"/>
   </g>
   <g id="line2d_87">
    <path clip-path="url(#p45cde89af9)" d="M 334.770248 176.955849 
L 385.34876 179.789118 
L 435.927273 171.670686 
L 486.505785 162.716706 
L 537.084298 127.782178 
" style="fill:none;stroke:#808080;stroke-linecap:square;stroke-width:0.25;"/>
   </g>
   <g id="line2d_88">
    <path clip-path="url(#p45cde89af9)" d="M 334.770248 170.078061 
L 385.34876 159.012523 
L 435.927273 127.782178 
L 486.505785 184.909981 
L 537.084298 153.850073 
" style="fill:none;stroke:#808080;stroke-linecap:square;stroke-width:0.25;"/>
   </g>
   <g id="line2d_89">
    <path clip-path="url(#p45cde89af9)" d="M 334.770248 148.350432 
L 385.34876 144.269911 
L 435.927273 134.265227 
L 486.505785 147.222678 
L 537.084298 127.782178 
" style="fill:none;stroke:#808080;stroke-linecap:square;stroke-width:0.25;"/>
   </g>
   <g id="line2d_90">
    <path clip-path="url(#p45cde89af9)" d="M 334.770248 174.26701 
L 385.34876 165.059651 
L 435.927273 166.531913 
L 486.505785 161.536182 
L 537.084298 127.782178 
" style="fill:none;stroke:#808080;stroke-linecap:square;stroke-width:0.25;"/>
   </g>
   <g id="line2d_91">
    <path clip-path="url(#p45cde89af9)" d="M 334.770248 157.885929 
L 385.34876 155.746779 
L 435.927273 136.034584 
L 486.505785 136.715912 
L 537.084298 127.782178 
" style="fill:none;stroke:#808080;stroke-linecap:square;stroke-width:0.25;"/>
   </g>
   <g id="line2d_92">
    <path clip-path="url(#p45cde89af9)" d="M 334.770248 196.710437 
L 385.34876 193.679299 
L 435.927273 175.09813 
L 486.505785 127.782178 
L 537.084298 172.336859 
" style="fill:none;stroke:#808080;stroke-linecap:square;stroke-width:0.25;"/>
   </g>
   <g id="line2d_93">
    <path clip-path="url(#p45cde89af9)" d="M 334.770248 192.865072 
L 385.34876 181.802658 
L 435.927273 150.320107 
L 486.505785 131.439852 
L 537.084298 127.782178 
" style="fill:none;stroke:#808080;stroke-linecap:square;stroke-width:0.25;"/>
   </g>
   <g id="line2d_94">
    <path clip-path="url(#p45cde89af9)" d="M 334.770248 162.347609 
L 385.34876 140.65142 
L 435.927273 158.783927 
L 486.505785 156.650373 
L 537.084298 127.782178 
" style="fill:none;stroke:#808080;stroke-linecap:square;stroke-width:0.25;"/>
   </g>
   <g id="line2d_95">
    <path clip-path="url(#p45cde89af9)" d="M 334.770248 203.692619 
L 385.34876 190.243598 
L 435.927273 149.460252 
L 486.505785 127.782178 
L 537.084298 148.897078 
" style="fill:none;stroke:#808080;stroke-linecap:square;stroke-width:0.25;"/>
   </g>
   <g id="line2d_96">
    <path clip-path="url(#p45cde89af9)" d="M 334.770248 200.078862 
L 385.34876 151.302315 
L 435.927273 127.782178 
L 486.505785 144.363251 
L 537.084298 145.489074 
" style="fill:none;stroke:#808080;stroke-linecap:square;stroke-width:0.25;"/>
   </g>
   <g id="line2d_97">
    <path clip-path="url(#p45cde89af9)" d="M 334.770248 148.610678 
L 385.34876 155.603247 
L 435.927273 127.782178 
L 486.505785 146.981228 
L 537.084298 147.798472 
" style="fill:none;stroke:#808080;stroke-linecap:square;stroke-width:0.25;"/>
   </g>
   <g id="line2d_98">
    <path clip-path="url(#p45cde89af9)" d="M 334.770248 127.782178 
L 385.34876 171.406411 
L 435.927273 191.201226 
L 486.505785 186.319047 
L 537.084298 177.300522 
" style="fill:none;stroke:#808080;stroke-linecap:square;stroke-width:0.25;"/>
   </g>
   <g id="line2d_99">
    <path clip-path="url(#p45cde89af9)" d="M 334.770248 207.439502 
L 385.34876 179.056995 
L 435.927273 127.782178 
L 486.505785 179.572507 
L 537.084298 183.529277 
" style="fill:none;stroke:#808080;stroke-linecap:square;stroke-width:0.25;"/>
   </g>
   <g id="line2d_100">
    <path clip-path="url(#p45cde89af9)" d="M 334.770248 143.771822 
L 385.34876 132.147752 
L 435.927273 127.782178 
L 486.505785 140.722324 
L 537.084298 137.629826 
" style="fill:none;stroke:#808080;stroke-linecap:square;stroke-width:0.25;"/>
   </g>
   <g id="line2d_101">
    <path clip-path="url(#p45cde89af9)" d="M 334.770248 134.314542 
L 385.34876 155.392042 
L 435.927273 153.20062 
L 486.505785 154.678162 
L 537.084298 127.782178 
" style="fill:none;stroke:#808080;stroke-linecap:square;stroke-width:0.25;"/>
   </g>
   <g id="line2d_102">
    <path clip-path="url(#p45cde89af9)" d="M 334.770248 127.782178 
L 385.34876 145.408571 
L 435.927273 154.865368 
L 486.505785 174.62401 
L 537.084298 157.52694 
" style="fill:none;stroke:#808080;stroke-linecap:square;stroke-width:0.25;"/>
   </g>
   <g id="line2d_103">
    <path clip-path="url(#p45cde89af9)" d="M 334.770248 127.782178 
L 385.34876 146.434355 
L 435.927273 151.319232 
L 486.505785 147.00967 
L 537.084298 137.912219 
" style="fill:none;stroke:#808080;stroke-linecap:square;stroke-width:0.25;"/>
   </g>
   <g id="line2d_104">
    <path clip-path="url(#p45cde89af9)" d="M 334.770248 170.312573 
L 385.34876 146.467228 
L 435.927273 127.782178 
L 486.505785 167.082539 
L 537.084298 164.231726 
" style="fill:none;stroke:#808080;stroke-linecap:square;stroke-width:0.25;"/>
   </g>
   <g id="line2d_105">
    <path clip-path="url(#p45cde89af9)" d="M 334.770248 177.43772 
L 385.34876 127.782178 
L 435.927273 166.388061 
L 486.505785 211.250933 
L 537.084298 211.343963 
" style="fill:none;stroke:#808080;stroke-linecap:square;stroke-width:0.25;"/>
   </g>
   <g id="line2d_106">
    <path clip-path="url(#p45cde89af9)" d="M 334.770248 127.782178 
L 385.34876 173.317205 
L 435.927273 162.760461 
L 486.505785 188.195318 
L 537.084298 154.543252 
" style="fill:none;stroke:#808080;stroke-linecap:square;stroke-width:0.25;"/>
   </g>
   <g id="line2d_107">
    <path clip-path="url(#p45cde89af9)" d="M 334.770248 137.114163 
L 385.34876 152.62528 
L 435.927273 145.263669 
L 486.505785 127.782178 
L 537.084298 139.063873 
" style="fill:none;stroke:#808080;stroke-linecap:square;stroke-width:0.25;"/>
   </g>
   <g id="line2d_108">
    <path clip-path="url(#p45cde89af9)" d="M 334.770248 127.782178 
L 385.34876 148.43282 
L 435.927273 167.457707 
L 486.505785 158.27199 
L 537.084298 155.31308 
" style="fill:none;stroke:#808080;stroke-linecap:square;stroke-width:0.25;"/>
   </g>
   <g id="line2d_109">
    <path clip-path="url(#p45cde89af9)" d="M 334.770248 127.782178 
L 385.34876 165.198891 
L 435.927273 176.076155 
L 486.505785 191.695799 
L 537.084298 187.770095 
" style="fill:none;stroke:#808080;stroke-linecap:square;stroke-width:0.25;"/>
   </g>
   <g id="line2d_110">
    <path clip-path="url(#p45cde89af9)" d="M 334.770248 127.782178 
L 385.34876 149.180604 
L 435.927273 170.586148 
L 486.505785 155.106687 
L 537.084298 142.470039 
" style="fill:none;stroke:#808080;stroke-linecap:square;stroke-width:0.25;"/>
   </g>
   <g id="line2d_111">
    <path clip-path="url(#p45cde89af9)" d="M 334.770248 127.782178 
L 385.34876 142.137679 
L 435.927273 151.224116 
L 486.505785 143.930384 
L 537.084298 142.727392 
" style="fill:none;stroke:#808080;stroke-linecap:square;stroke-width:0.25;"/>
   </g>
   <g id="line2d_112">
    <path clip-path="url(#p45cde89af9)" d="M 334.770248 127.782178 
L 385.34876 164.59131 
L 435.927273 177.104603 
L 486.505785 155.047459 
L 537.084298 130.901039 
" style="fill:none;stroke:#808080;stroke-linecap:square;stroke-width:0.25;"/>
   </g>
   <g id="line2d_113">
    <path clip-path="url(#p45cde89af9)" d="M 334.770248 217.414424 
L 385.34876 222.694016 
L 435.927273 215.394438 
L 486.505785 187.662253 
L 537.084298 127.782178 
" style="fill:none;stroke:#808080;stroke-linecap:square;stroke-width:0.25;"/>
   </g>
   <g id="line2d_114">
    <path clip-path="url(#p45cde89af9)" d="M 334.770248 127.782178 
L 385.34876 172.33543 
L 435.927273 167.609723 
L 486.505785 169.620598 
L 537.084298 157.587565 
" style="fill:none;stroke:#808080;stroke-linecap:square;stroke-width:0.25;"/>
   </g>
   <g id="line2d_115">
    <path clip-path="url(#p45cde89af9)" d="M 334.770248 127.782178 
L 385.34876 132.714516 
L 435.927273 144.745397 
L 486.505785 138.10606 
L 537.084298 133.065249 
" style="fill:none;stroke:#808080;stroke-linecap:square;stroke-width:0.25;"/>
   </g>
   <g id="line2d_116">
    <path clip-path="url(#p45cde89af9)" d="M 334.770248 167.871382 
L 385.34876 127.782178 
L 435.927273 138.4712 
L 486.505785 166.991631 
L 537.084298 157.655799 
" style="fill:none;stroke:#808080;stroke-linecap:square;stroke-width:0.25;"/>
   </g>
   <g id="line2d_117">
    <path clip-path="url(#p45cde89af9)" d="M 334.770248 275.810077 
L 385.34876 253.207267 
L 435.927273 201.82535 
L 486.505785 178.819819 
L 537.084298 127.782178 
" style="fill:none;stroke:#808080;stroke-linecap:square;stroke-width:0.25;"/>
   </g>
   <g id="line2d_118">
    <path clip-path="url(#p45cde89af9)" d="M 334.770248 142.266502 
L 385.34876 132.758832 
L 435.927273 137.048566 
L 486.505785 141.822465 
L 537.084298 127.782178 
" style="fill:none;stroke:#808080;stroke-linecap:square;stroke-width:0.25;"/>
   </g>
   <g id="line2d_119">
    <path clip-path="url(#p45cde89af9)" d="M 334.770248 149.730629 
L 385.34876 134.749017 
L 435.927273 127.782178 
L 486.505785 147.258473 
L 537.084298 143.691835 
" style="fill:none;stroke:#808080;stroke-linecap:square;stroke-width:0.25;"/>
   </g>
   <g id="line2d_120">
    <path clip-path="url(#p45cde89af9)" d="M 334.770248 152.84912 
L 385.34876 138.015279 
L 435.927273 127.782178 
L 486.505785 151.709041 
L 537.084298 147.83399 
" style="fill:none;stroke:#808080;stroke-linecap:square;stroke-width:0.25;"/>
   </g>
   <g id="line2d_121">
    <path clip-path="url(#p45cde89af9)" d="M 334.770248 127.782178 
L 385.34876 144.984593 
L 435.927273 157.696773 
L 486.505785 164.944288 
L 537.084298 165.450796 
" style="fill:none;stroke:#808080;stroke-linecap:square;stroke-width:0.25;"/>
   </g>
   <g id="line2d_122">
    <path clip-path="url(#p45cde89af9)" d="M 334.770248 178.741553 
L 385.34876 149.853301 
L 435.927273 127.782178 
L 486.505785 151.271878 
L 537.084298 135.803827 
" style="fill:none;stroke:#808080;stroke-linecap:square;stroke-width:0.25;"/>
   </g>
   <g id="line2d_123">
    <path clip-path="url(#p45cde89af9)" d="M 334.770248 127.782178 
L 385.34876 147.598644 
L 435.927273 175.754095 
L 486.505785 165.800432 
L 537.084298 157.595791 
" style="fill:none;stroke:#808080;stroke-linecap:square;stroke-width:0.25;"/>
   </g>
   <g id="line2d_124">
    <path clip-path="url(#p45cde89af9)" d="M 334.770248 155.244504 
L 385.34876 127.782178 
L 435.927273 143.80943 
L 486.505785 136.537943 
L 537.084298 159.733858 
" style="fill:none;stroke:#808080;stroke-linecap:square;stroke-width:0.25;"/>
   </g>
   <g id="line2d_125">
    <path clip-path="url(#p45cde89af9)" d="M 334.770248 144.650427 
L 385.34876 139.776498 
L 435.927273 146.410978 
L 486.505785 136.294371 
L 537.084298 127.782178 
" style="fill:none;stroke:#808080;stroke-linecap:square;stroke-width:0.25;"/>
   </g>
   <g id="line2d_126">
    <path clip-path="url(#p45cde89af9)" d="M 334.770248 127.782178 
L 385.34876 144.500182 
L 435.927273 169.231529 
L 486.505785 168.956023 
L 537.084298 139.046734 
" style="fill:none;stroke:#808080;stroke-linecap:square;stroke-width:0.25;"/>
   </g>
   <g id="line2d_127">
    <path clip-path="url(#p45cde89af9)" d="M 334.770248 127.782178 
L 385.34876 152.706473 
L 435.927273 164.874848 
L 486.505785 159.102922 
L 537.084298 136.415244 
" style="fill:none;stroke:#808080;stroke-linecap:square;stroke-width:0.25;"/>
   </g>
   <g id="line2d_128">
    <path clip-path="url(#p45cde89af9)" d="M 334.770248 188.807367 
L 385.34876 158.871925 
L 435.927273 148.463199 
L 486.505785 144.029446 
L 537.084298 127.782178 
" style="fill:none;stroke:#808080;stroke-linecap:square;stroke-width:0.25;"/>
   </g>
   <g id="line2d_129">
    <path clip-path="url(#p45cde89af9)" d="M 334.770248 175.159936 
L 385.34876 160.873015 
L 435.927273 155.794504 
L 486.505785 137.57183 
L 537.084298 127.782178 
" style="fill:none;stroke:#808080;stroke-linecap:square;stroke-width:0.25;"/>
   </g>
   <g id="line2d_130">
    <path clip-path="url(#p45cde89af9)" d="M 334.770248 127.782178 
L 385.34876 140.78949 
L 435.927273 164.090236 
L 486.505785 163.144675 
L 537.084298 154.514171 
" style="fill:none;stroke:#808080;stroke-linecap:square;stroke-width:0.25;"/>
   </g>
   <g id="line2d_131">
    <path clip-path="url(#p45cde89af9)" d="M 334.770248 127.782178 
L 385.34876 165.163499 
L 435.927273 152.416755 
L 486.505785 150.209383 
L 537.084298 154.035997 
" style="fill:none;stroke:#808080;stroke-linecap:square;stroke-width:0.25;"/>
   </g>
   <g id="line2d_132">
    <path clip-path="url(#p45cde89af9)" d="M 334.770248 127.782178 
L 385.34876 171.05719 
L 435.927273 178.427205 
L 486.505785 180.751062 
L 537.084298 167.826224 
" style="fill:none;stroke:#808080;stroke-linecap:square;stroke-width:0.25;"/>
   </g>
   <g id="line2d_133">
    <path clip-path="url(#p45cde89af9)" d="M 334.770248 127.782178 
L 385.34876 158.340099 
L 435.927273 154.128873 
L 486.505785 175.178629 
L 537.084298 154.840905 
" style="fill:none;stroke:#808080;stroke-linecap:square;stroke-width:0.25;"/>
   </g>
   <g id="line2d_134">
    <path clip-path="url(#p45cde89af9)" d="M 334.770248 159.677657 
L 385.34876 149.808935 
L 435.927273 144.3553 
L 486.505785 139.730654 
L 537.084298 127.782178 
" style="fill:none;stroke:#808080;stroke-linecap:square;stroke-width:0.25;"/>
   </g>
   <g id="line2d_135">
    <path clip-path="url(#p45cde89af9)" d="M 334.770248 180.81866 
L 385.34876 127.782178 
L 435.927273 157.054353 
L 486.505785 180.517309 
L 537.084298 191.311423 
" style="fill:none;stroke:#808080;stroke-linecap:square;stroke-width:0.25;"/>
   </g>
   <g id="line2d_136">
    <path clip-path="url(#p45cde89af9)" d="M 334.770248 148.758169 
L 385.34876 149.825458 
L 435.927273 127.782178 
L 486.505785 170.487874 
L 537.084298 149.687552 
" style="fill:none;stroke:#808080;stroke-linecap:square;stroke-width:0.25;"/>
   </g>
   <g id="line2d_137">
    <path clip-path="url(#p45cde89af9)" d="M 334.770248 127.782178 
L 385.34876 165.683639 
L 435.927273 191.456966 
L 486.505785 177.867845 
L 537.084298 197.653666 
" style="fill:none;stroke:#808080;stroke-linecap:square;stroke-width:0.25;"/>
   </g>
   <g id="line2d_138">
    <path clip-path="url(#p45cde89af9)" d="M 334.770248 127.782178 
L 385.34876 146.25616 
L 435.927273 146.172762 
L 486.505785 151.163797 
L 537.084298 162.145805 
" style="fill:none;stroke:#808080;stroke-linecap:square;stroke-width:0.25;"/>
   </g>
   <g id="line2d_139">
    <path clip-path="url(#p45cde89af9)" d="M 334.770248 127.782178 
L 385.34876 176.09535 
L 435.927273 190.962008 
L 486.505785 173.934168 
L 537.084298 162.822166 
" style="fill:none;stroke:#808080;stroke-linecap:square;stroke-width:0.25;"/>
   </g>
   <g id="line2d_140">
    <path clip-path="url(#p45cde89af9)" d="M 334.770248 184.752529 
L 385.34876 147.381914 
L 435.927273 127.782178 
L 486.505785 172.631368 
L 537.084298 178.425404 
" style="fill:none;stroke:#808080;stroke-linecap:square;stroke-width:0.25;"/>
   </g>
   <g id="line2d_141">
    <path clip-path="url(#p45cde89af9)" d="M 334.770248 127.782178 
L 385.34876 160.035063 
L 435.927273 164.016428 
L 486.505785 161.789188 
L 537.084298 151.325649 
" style="fill:none;stroke:#808080;stroke-linecap:square;stroke-width:0.25;"/>
   </g>
   <g id="line2d_142">
    <path clip-path="url(#p45cde89af9)" d="M 334.770248 156.366486 
L 385.34876 141.588467 
L 435.927273 127.782178 
L 486.505785 156.438181 
L 537.084298 133.908004 
" style="fill:none;stroke:#808080;stroke-linecap:square;stroke-width:0.25;"/>
   </g>
   <g id="line2d_143">
    <path clip-path="url(#p45cde89af9)" d="M 334.770248 127.782178 
L 385.34876 145.2946 
L 435.927273 153.007816 
L 486.505785 160.532422 
L 537.084298 155.167678 
" style="fill:none;stroke:#808080;stroke-linecap:square;stroke-width:0.25;"/>
   </g>
   <g id="line2d_144">
    <path clip-path="url(#p45cde89af9)" d="M 334.770248 173.780573 
L 385.34876 127.782178 
L 435.927273 170.697562 
L 486.505785 185.025846 
L 537.084298 183.501551 
" style="fill:none;stroke:#808080;stroke-linecap:square;stroke-width:0.25;"/>
   </g>
   <g id="line2d_145">
    <path clip-path="url(#p45cde89af9)" d="M 334.770248 275.810077 
L 385.34876 253.207267 
L 435.927273 201.82535 
L 486.505785 178.819819 
L 537.084298 127.782178 
" style="fill:none;stroke:#6495ed;stroke-linecap:square;stroke-width:2;"/>
   </g>
   <g id="line2d_146">
    <path clip-path="url(#p45cde89af9)" d="M 334.770248 217.414424 
L 385.34876 222.694016 
L 435.927273 215.394438 
L 486.505785 187.662253 
L 537.084298 127.782178 
" style="fill:none;stroke:#ffa500;stroke-linecap:square;stroke-width:2;"/>
   </g>
   <g id="patch_7">
    <path d="M 322.654545 306 
L 322.654545 127.782178 
" style="fill:none;stroke:#000000;stroke-linecap:square;stroke-linejoin:miter;stroke-width:0.25;"/>
   </g>
   <g id="patch_8">
    <path d="M 334.770248 308 
L 537.084298 308 
" style="fill:none;stroke:#000000;stroke-linecap:square;stroke-linejoin:miter;stroke-width:0.25;"/>
   </g>
   <g id="text_21">
    <text style="font-family:DejaVu Sans;font-size:7.2px;font-stretch:normal;font-style:normal;font-weight:normal;text-anchor:middle;" transform="rotate(-0, 435.927273, 120)" x="435.927273" y="120">Size tolerance</text>
   </g>
   <g id="legend_2">
    <g id="patch_9">
     <path d="M 375.398523 87 
L 496.456023 87 
Q 497.656023 87 497.656023 85.8 
L 497.656023 68.78625 
Q 497.656023 67.58625 496.456023 67.58625 
L 375.398523 67.58625 
Q 374.198523 67.58625 374.198523 68.78625 
L 374.198523 85.8 
Q 374.198523 87 375.398523 87 
z
" style="fill:#ffffff;opacity:0.8;stroke:#cccccc;stroke-linejoin:miter;"/>
    </g>
    <g id="line2d_147">
     <path d="M 376.598523 72.445313 
L 388.598523 72.445313 
" style="fill:none;stroke:#6495ed;stroke-linecap:square;stroke-width:2;"/>
    </g>
    <g id="line2d_148"/>
    <g id="text_22">
     <text style="font-family:DejaVu Sans;font-size:6px;font-stretch:normal;font-style:normal;font-weight:normal;text-anchor:start;" transform="rotate(-0, 393.398523, 74.545313)" x="393.398523" y="74.545313">Cell 194, ST=0.44 (best mp=106)</text>
    </g>
    <g id="line2d_149">
     <path d="M 376.598523 81.252188 
L 388.598523 81.252188 
" style="fill:none;stroke:#ffa500;stroke-linecap:square;stroke-width:2;"/>
    </g>
    <g id="line2d_150"/>
    <g id="text_23">
     <text style="font-family:DejaVu Sans;font-size:6px;font-stretch:normal;font-style:normal;font-weight:normal;text-anchor:start;" transform="rotate(-0, 393.398523, 83.352188)" x="393.398523" y="83.352188">Cell 185, ST=0.53 (best mp=0)</text>
    </g>
   </g>
  </g>
  <g id="text_24">
   <text style="font-family:DejaVu Sans;font-size:6px;font-stretch:normal;font-style:normal;font-weight:normal;text-anchor:start;" transform="rotate(-0, 28.8, 18)" x="28.8" y="18">Lm (20190504_JC078_fov1)</text>
  </g>
  <g id="text_25">
   <text style="font-family:DejaVu Sans;font-size:8px;font-stretch:normal;font-style:normal;font-weight:normal;text-anchor:start;" transform="rotate(-0, 0, 6.11375)" x="0" y="6.11375">neuraldata_traces001_dff_ROC-thr-0.05_plushalf_noRF|Lm - 20190504_JC078_fov1</text>
  </g>
 </g>
 <defs>
  <clipPath id="p1ac4d43cec">
   <rect height="180" width="222.545455" x="57.6" y="126"/>
  </clipPath>
  <clipPath id="p45cde89af9">
   <rect height="180" width="222.545455" x="324.654545" y="126"/>
  </clipPath>
 </defs>
</svg>
