<?xml version="1.0" encoding="utf-8" standalone="no"?>
<!DOCTYPE svg PUBLIC "-//W3C//DTD SVG 1.1//EN"
  "http://www.w3.org/Graphics/SVG/1.1/DTD/svg11.dtd">
<!-- Created with matplotlib (https://matplotlib.org/) -->
<svg height="216pt" version="1.1" viewBox="0 0 720 216" width="720pt" xmlns="http://www.w3.org/2000/svg" xmlns:xlink="http://www.w3.org/1999/xlink">
 <metadata>
  <rdf:RDF xmlns:cc="http://creativecommons.org/ns#" xmlns:dc="http://purl.org/dc/elements/1.1/" xmlns:rdf="http://www.w3.org/1999/02/22-rdf-syntax-ns#">
   <cc:Work>
    <dc:type rdf:resource="http://purl.org/dc/dcmitype/StillImage"/>
    <dc:date>2021-04-26T17:33:28.006536</dc:date>
    <dc:format>image/svg+xml</dc:format>
    <dc:creator>
     <cc:Agent>
      <dc:title>Matplotlib v3.3.4, https://matplotlib.org/</dc:title>
     </cc:Agent>
    </dc:creator>
   </cc:Work>
  </rdf:RDF>
 </metadata>
 <defs>
  <style type="text/css">*{stroke-linecap:butt;stroke-linejoin:round;}</style>
 </defs>
 <g id="figure_1">
  <g id="patch_1">
   <path d="M 0 216 
L 720 216 
L 720 0 
L 0 0 
z
" style="fill:#ffffff;"/>
  </g>
  <g id="axes_1">
   <g id="patch_2">
    <path d="M 72 162.514286 
L 159.428571 162.514286 
L 159.428571 75.085714 
L 72 75.085714 
z
" style="fill:#ffffff;"/>
   </g>
   <g id="matplotlib.axis_1">
    <g id="xtick_1">
     <g id="line2d_1">
      <defs>
       <path d="M 0 0 
L 0 3.5 
" id="m5eab559457" style="stroke:#000000;stroke-width:0.25;"/>
      </defs>
      <g>
       <use style="stroke:#000000;stroke-width:0.25;" x="75.974026" xlink:href="#m5eab559457" y="162.514286"/>
      </g>
     </g>
     <g id="text_1">
      <text style="font-family:DejaVu Sans;font-size:6px;font-stretch:normal;font-style:normal;font-weight:normal;text-anchor:middle;" transform="rotate(-0, 75.974026, 174.073348)" x="75.974026" y="174.073348">0.0</text>
     </g>
    </g>
    <g id="xtick_2">
     <g id="line2d_2">
      <g>
       <use style="stroke:#000000;stroke-width:0.25;" x="115.714286" xlink:href="#m5eab559457" y="162.514286"/>
      </g>
     </g>
     <g id="text_2">
      <text style="font-family:DejaVu Sans;font-size:6px;font-stretch:normal;font-style:normal;font-weight:normal;text-anchor:middle;" transform="rotate(-0, 115.714286, 174.073348)" x="115.714286" y="174.073348">0.5</text>
     </g>
    </g>
    <g id="xtick_3">
     <g id="line2d_3">
      <g>
       <use style="stroke:#000000;stroke-width:0.25;" x="155.454545" xlink:href="#m5eab559457" y="162.514286"/>
      </g>
     </g>
     <g id="text_3">
      <text style="font-family:DejaVu Sans;font-size:6px;font-stretch:normal;font-style:normal;font-weight:normal;text-anchor:middle;" transform="rotate(-0, 155.454545, 174.073348)" x="155.454545" y="174.073348">1.0</text>
     </g>
    </g>
    <g id="text_4">
     <text style="font-family:DejaVu Sans;font-size:6px;font-stretch:normal;font-style:normal;font-weight:normal;text-anchor:middle;" transform="rotate(-0, 115.714286, 183.880223)" x="115.714286" y="183.880223">p(F)</text>
    </g>
   </g>
   <g id="matplotlib.axis_2">
    <g id="ytick_1">
     <g id="line2d_4">
      <defs>
       <path d="M 0 0 
L -3.5 0 
" id="m21ee9babc9" style="stroke:#000000;stroke-width:0.25;"/>
      </defs>
      <g>
       <use style="stroke:#000000;stroke-width:0.25;" x="72" xlink:href="#m21ee9babc9" y="158.54026"/>
      </g>
     </g>
     <g id="text_5">
      <text style="font-family:DejaVu Sans;font-size:6px;font-stretch:normal;font-style:normal;font-weight:normal;text-anchor:end;" transform="rotate(-0, 65, 160.819791)" x="65" y="160.819791">0.0</text>
     </g>
    </g>
    <g id="ytick_2">
     <g id="line2d_5">
      <g>
       <use style="stroke:#000000;stroke-width:0.25;" x="72" xlink:href="#m21ee9babc9" y="142.644156"/>
      </g>
     </g>
     <g id="text_6">
      <text style="font-family:DejaVu Sans;font-size:6px;font-stretch:normal;font-style:normal;font-weight:normal;text-anchor:end;" transform="rotate(-0, 65, 144.923687)" x="65" y="144.923687">0.2</text>
     </g>
    </g>
    <g id="ytick_3">
     <g id="line2d_6">
      <g>
       <use style="stroke:#000000;stroke-width:0.25;" x="72" xlink:href="#m21ee9babc9" y="126.748052"/>
      </g>
     </g>
     <g id="text_7">
      <text style="font-family:DejaVu Sans;font-size:6px;font-stretch:normal;font-style:normal;font-weight:normal;text-anchor:end;" transform="rotate(-0, 65, 129.027583)" x="65" y="129.027583">0.4</text>
     </g>
    </g>
    <g id="ytick_4">
     <g id="line2d_7">
      <g>
       <use style="stroke:#000000;stroke-width:0.25;" x="72" xlink:href="#m21ee9babc9" y="110.851948"/>
      </g>
     </g>
     <g id="text_8">
      <text style="font-family:DejaVu Sans;font-size:6px;font-stretch:normal;font-style:normal;font-weight:normal;text-anchor:end;" transform="rotate(-0, 65, 113.131479)" x="65" y="113.131479">0.6</text>
     </g>
    </g>
    <g id="ytick_5">
     <g id="line2d_8">
      <g>
       <use style="stroke:#000000;stroke-width:0.25;" x="72" xlink:href="#m21ee9babc9" y="94.955844"/>
      </g>
     </g>
     <g id="text_9">
      <text style="font-family:DejaVu Sans;font-size:6px;font-stretch:normal;font-style:normal;font-weight:normal;text-anchor:end;" transform="rotate(-0, 65, 97.235375)" x="65" y="97.235375">0.8</text>
     </g>
    </g>
    <g id="ytick_6">
     <g id="line2d_9">
      <g>
       <use style="stroke:#000000;stroke-width:0.25;" x="72" xlink:href="#m21ee9babc9" y="79.05974"/>
      </g>
     </g>
     <g id="text_10">
      <text style="font-family:DejaVu Sans;font-size:6px;font-stretch:normal;font-style:normal;font-weight:normal;text-anchor:end;" transform="rotate(-0, 65, 81.339272)" x="65" y="81.339272">1.0</text>
     </g>
    </g>
    <g id="text_11">
     <text style="font-family:DejaVu Sans;font-size:6px;font-stretch:normal;font-style:normal;font-weight:normal;text-anchor:middle;" transform="rotate(-90, 50.210313, 118.8)" x="50.210313" y="118.8">p(H)</text>
    </g>
   </g>
   <g id="line2d_10">
    <path clip-path="url(#pbdb88ab4cd)" d="M 155.454545 79.05974 
L 155.454545 79.05974 
L 155.454545 79.05974 
L 155.454545 79.05974 
L 155.454545 79.05974 
L 155.454545 84.73692 
L 149.777365 90.4141 
L 149.777365 96.09128 
L 138.423006 96.09128 
L 132.745826 96.09128 
L 115.714286 101.76846 
L 110.037106 107.44564 
L 110.037106 124.47718 
L 104.359926 124.47718 
L 93.005566 124.47718 
L 87.328386 130.15436 
L 87.328386 147.1859 
L 81.651206 147.1859 
L 81.651206 152.86308 
L 75.974026 152.86308 
L 75.974026 152.86308 
L 75.974026 152.86308 
L 75.974026 152.86308 
L 75.974026 158.54026 
L 75.974026 158.54026 
L 75.974026 158.54026 
L 75.974026 158.54026 
L 75.974026 158.54026 
L 75.974026 158.54026 
L 75.974026 158.54026 
L 75.974026 158.54026 
L 75.974026 158.54026 
L 75.974026 158.54026 
L 75.974026 158.54026 
L 75.974026 158.54026 
L 75.974026 158.54026 
L 75.974026 158.54026 
L 75.974026 158.54026 
L 75.974026 158.54026 
L 75.974026 158.54026 
L 75.974026 158.54026 
L 75.974026 158.54026 
L 75.974026 158.54026 
L 75.974026 158.54026 
L 75.974026 158.54026 
L 75.974026 158.54026 
L 75.974026 158.54026 
L 75.974026 158.54026 
L 75.974026 158.54026 
L 75.974026 158.54026 
" style="fill:none;stroke:#ab3c37;stroke-linecap:square;stroke-width:0.5;"/>
   </g>
   <g id="line2d_11">
    <path clip-path="url(#pbdb88ab4cd)" d="M 75.974026 158.54026 
L 155.454545 79.05974 
" style="fill:none;stroke:#000000;stroke-dasharray:1,1.65;stroke-dashoffset:0;"/>
   </g>
   <g id="line2d_12">
    <path clip-path="url(#pbdb88ab4cd)" d="M 152.713838 79.05974 
L 149.97313 79.05974 
L 149.97313 79.05974 
L 149.97313 79.05974 
L 149.97313 79.05974 
L 149.97313 79.05974 
L 149.97313 79.05974 
L 149.97313 81.800448 
L 141.751008 87.281863 
L 133.528885 92.763278 
L 122.566055 95.503986 
L 114.343932 103.726108 
L 111.603224 111.948231 
L 106.121809 117.429646 
L 106.121809 122.911061 
L 100.640394 128.392476 
L 89.677564 131.133184 
L 86.936856 133.873892 
L 84.196149 139.355307 
L 81.455441 144.836722 
L 81.455441 144.836722 
L 78.714734 147.577429 
L 78.714734 147.577429 
L 75.974026 150.318137 
L 75.974026 153.058845 
L 75.974026 155.799552 
L 75.974026 155.799552 
L 75.974026 155.799552 
L 75.974026 155.799552 
L 75.974026 155.799552 
L 75.974026 155.799552 
L 75.974026 155.799552 
L 75.974026 155.799552 
L 75.974026 155.799552 
L 75.974026 155.799552 
L 75.974026 155.799552 
L 75.974026 155.799552 
L 75.974026 155.799552 
L 75.974026 155.799552 
L 75.974026 158.54026 
L 75.974026 158.54026 
L 75.974026 158.54026 
L 75.974026 158.54026 
L 75.974026 158.54026 
L 75.974026 158.54026 
L 75.974026 158.54026 
L 75.974026 158.54026 
L 75.974026 158.54026 
L 75.974026 158.54026 
L 75.974026 158.54026 
" style="fill:none;stroke:#d29c82;stroke-linecap:square;stroke-width:0.5;"/>
   </g>
   <g id="line2d_13">
    <path clip-path="url(#pbdb88ab4cd)" d="M 75.974026 158.54026 
L 155.454545 79.05974 
" style="fill:none;stroke:#000000;stroke-dasharray:1,1.65;stroke-dashoffset:0;"/>
   </g>
   <g id="line2d_14">
    <path clip-path="url(#pbdb88ab4cd)" d="M 155.454545 79.05974 
L 155.454545 79.05974 
L 155.454545 79.05974 
L 155.454545 79.05974 
L 155.454545 79.05974 
L 155.454545 79.05974 
L 147.232423 79.05974 
L 144.491715 79.05974 
L 144.491715 79.05974 
L 136.269592 81.800448 
L 128.04747 87.281863 
L 122.566055 100.985401 
L 119.825347 106.466816 
L 114.343932 111.948231 
L 106.121809 114.688939 
L 103.381102 125.651769 
L 97.899687 133.873892 
L 89.677564 139.355307 
L 86.936856 142.096014 
L 84.196149 144.836722 
L 84.196149 144.836722 
L 84.196149 147.577429 
L 84.196149 150.318137 
L 78.714734 150.318137 
L 78.714734 150.318137 
L 78.714734 150.318137 
L 78.714734 150.318137 
L 75.974026 155.799552 
L 75.974026 155.799552 
L 75.974026 158.54026 
L 75.974026 158.54026 
L 75.974026 158.54026 
L 75.974026 158.54026 
L 75.974026 158.54026 
L 75.974026 158.54026 
L 75.974026 158.54026 
L 75.974026 158.54026 
L 75.974026 158.54026 
L 75.974026 158.54026 
L 75.974026 158.54026 
L 75.974026 158.54026 
L 75.974026 158.54026 
L 75.974026 158.54026 
L 75.974026 158.54026 
L 75.974026 158.54026 
L 75.974026 158.54026 
L 75.974026 158.54026 
L 75.974026 158.54026 
L 75.974026 158.54026 
L 75.974026 158.54026 
" style="fill:none;stroke:#d1d2d2;stroke-linecap:square;stroke-width:0.5;"/>
   </g>
   <g id="line2d_15">
    <path clip-path="url(#pbdb88ab4cd)" d="M 75.974026 158.54026 
L 155.454545 79.05974 
" style="fill:none;stroke:#000000;stroke-dasharray:1,1.65;stroke-dashoffset:0;"/>
   </g>
   <g id="line2d_16">
    <path clip-path="url(#pbdb88ab4cd)" d="M 155.454545 81.800448 
L 155.454545 81.800448 
L 155.454545 81.800448 
L 155.454545 81.800448 
L 155.454545 81.800448 
L 155.454545 81.800448 
L 155.454545 81.800448 
L 155.454545 84.541155 
L 155.454545 84.541155 
L 149.97313 84.541155 
L 144.491715 84.541155 
L 133.528885 87.281863 
L 125.306762 90.022571 
L 119.825347 95.503986 
L 111.603224 98.244693 
L 106.121809 106.466816 
L 95.158979 111.948231 
L 92.418271 111.948231 
L 89.677564 117.429646 
L 86.936856 120.170354 
L 86.936856 125.651769 
L 84.196149 133.873892 
L 81.455441 133.873892 
L 75.974026 139.355307 
L 75.974026 139.355307 
L 75.974026 142.096014 
L 75.974026 147.577429 
L 75.974026 150.318137 
L 75.974026 150.318137 
L 75.974026 153.058845 
L 75.974026 158.54026 
L 75.974026 158.54026 
L 75.974026 158.54026 
L 75.974026 158.54026 
L 75.974026 158.54026 
L 75.974026 158.54026 
L 75.974026 158.54026 
L 75.974026 158.54026 
L 75.974026 158.54026 
L 75.974026 158.54026 
L 75.974026 158.54026 
L 75.974026 158.54026 
L 75.974026 158.54026 
L 75.974026 158.54026 
L 75.974026 158.54026 
L 75.974026 158.54026 
L 75.974026 158.54026 
L 75.974026 158.54026 
L 75.974026 158.54026 
L 75.974026 158.54026 
" style="fill:none;stroke:#8eb1c2;stroke-linecap:square;stroke-width:0.5;"/>
   </g>
   <g id="line2d_17">
    <path clip-path="url(#pbdb88ab4cd)" d="M 75.974026 158.54026 
L 155.454545 79.05974 
" style="fill:none;stroke:#000000;stroke-dasharray:1,1.65;stroke-dashoffset:0;"/>
   </g>
   <g id="line2d_18">
    <path clip-path="url(#pbdb88ab4cd)" d="M 155.454545 79.05974 
L 155.454545 79.05974 
L 155.454545 79.05974 
L 155.454545 79.05974 
L 155.454545 81.800448 
L 155.454545 81.800448 
L 155.454545 81.800448 
L 155.454545 81.800448 
L 152.713838 81.800448 
L 152.713838 81.800448 
L 133.528885 81.800448 
L 117.084639 95.503986 
L 114.343932 98.244693 
L 103.381102 98.244693 
L 97.899687 103.726108 
L 89.677564 106.466816 
L 81.455441 109.207524 
L 81.455441 111.948231 
L 81.455441 117.429646 
L 78.714734 128.392476 
L 75.974026 136.614599 
L 75.974026 139.355307 
L 75.974026 142.096014 
L 75.974026 144.836722 
L 75.974026 147.577429 
L 75.974026 150.318137 
L 75.974026 153.058845 
L 75.974026 153.058845 
L 75.974026 155.799552 
L 75.974026 155.799552 
L 75.974026 155.799552 
L 75.974026 158.54026 
L 75.974026 158.54026 
L 75.974026 158.54026 
L 75.974026 158.54026 
L 75.974026 158.54026 
L 75.974026 158.54026 
L 75.974026 158.54026 
L 75.974026 158.54026 
L 75.974026 158.54026 
L 75.974026 158.54026 
L 75.974026 158.54026 
L 75.974026 158.54026 
L 75.974026 158.54026 
L 75.974026 158.54026 
L 75.974026 158.54026 
L 75.974026 158.54026 
L 75.974026 158.54026 
L 75.974026 158.54026 
L 75.974026 158.54026 
" style="fill:none;stroke:#2f6f9f;stroke-linecap:square;stroke-width:0.5;"/>
   </g>
   <g id="line2d_19">
    <path clip-path="url(#pbdb88ab4cd)" d="M 75.974026 158.54026 
L 155.454545 79.05974 
" style="fill:none;stroke:#000000;stroke-dasharray:1,1.65;stroke-dashoffset:0;"/>
   </g>
   <g id="patch_3">
    <path d="M 72 162.514286 
L 72 75.085714 
" style="fill:none;stroke:#000000;stroke-linecap:square;stroke-linejoin:miter;stroke-width:0.25;"/>
   </g>
   <g id="patch_4">
    <path d="M 159.428571 162.514286 
L 159.428571 75.085714 
" style="fill:none;stroke:#000000;stroke-linecap:square;stroke-linejoin:miter;stroke-width:0.25;"/>
   </g>
   <g id="patch_5">
    <path d="M 72 162.514286 
L 159.428571 162.514286 
" style="fill:none;stroke:#000000;stroke-linecap:square;stroke-linejoin:miter;stroke-width:0.25;"/>
   </g>
   <g id="patch_6">
    <path d="M 72 75.085714 
L 159.428571 75.085714 
" style="fill:none;stroke:#000000;stroke-linecap:square;stroke-linejoin:miter;stroke-width:0.25;"/>
   </g>
   <g id="text_12">
    <text style="font-family:DejaVu Sans;font-size:7.2px;font-stretch:normal;font-style:normal;font-weight:normal;text-anchor:middle;" transform="rotate(-0, 115.714286, 69.085714)" x="115.714286" y="69.085714">10.0</text>
   </g>
  </g>
  <g id="axes_2">
   <g id="patch_7">
    <path d="M 203.142857 162.514286 
L 290.571429 162.514286 
L 290.571429 75.085714 
L 203.142857 75.085714 
z
" style="fill:#ffffff;"/>
   </g>
   <g id="matplotlib.axis_3">
    <g id="xtick_4">
     <g id="line2d_20">
      <g>
       <use style="stroke:#000000;stroke-width:0.25;" x="207.116883" xlink:href="#m5eab559457" y="162.514286"/>
      </g>
     </g>
     <g id="text_13">
      <text style="font-family:DejaVu Sans;font-size:6px;font-stretch:normal;font-style:normal;font-weight:normal;text-anchor:middle;" transform="rotate(-0, 207.116883, 174.073348)" x="207.116883" y="174.073348">0.0</text>
     </g>
    </g>
    <g id="xtick_5">
     <g id="line2d_21">
      <g>
       <use style="stroke:#000000;stroke-width:0.25;" x="246.857143" xlink:href="#m5eab559457" y="162.514286"/>
      </g>
     </g>
     <g id="text_14">
      <text style="font-family:DejaVu Sans;font-size:6px;font-stretch:normal;font-style:normal;font-weight:normal;text-anchor:middle;" transform="rotate(-0, 246.857143, 174.073348)" x="246.857143" y="174.073348">0.5</text>
     </g>
    </g>
    <g id="xtick_6">
     <g id="line2d_22">
      <g>
       <use style="stroke:#000000;stroke-width:0.25;" x="286.597403" xlink:href="#m5eab559457" y="162.514286"/>
      </g>
     </g>
     <g id="text_15">
      <text style="font-family:DejaVu Sans;font-size:6px;font-stretch:normal;font-style:normal;font-weight:normal;text-anchor:middle;" transform="rotate(-0, 286.597403, 174.073348)" x="286.597403" y="174.073348">1.0</text>
     </g>
    </g>
    <g id="text_16">
     <text style="font-family:DejaVu Sans;font-size:6px;font-stretch:normal;font-style:normal;font-weight:normal;text-anchor:middle;" transform="rotate(-0, 246.857143, 183.880223)" x="246.857143" y="183.880223">p(F)</text>
    </g>
   </g>
   <g id="matplotlib.axis_4">
    <g id="ytick_7">
     <g id="line2d_23">
      <g>
       <use style="stroke:#000000;stroke-width:0.25;" x="203.142857" xlink:href="#m21ee9babc9" y="158.54026"/>
      </g>
     </g>
     <g id="text_17">
      <text style="font-family:DejaVu Sans;font-size:6px;font-stretch:normal;font-style:normal;font-weight:normal;text-anchor:end;" transform="rotate(-0, 196.142857, 160.819791)" x="196.142857" y="160.819791">0.0</text>
     </g>
    </g>
    <g id="ytick_8">
     <g id="line2d_24">
      <g>
       <use style="stroke:#000000;stroke-width:0.25;" x="203.142857" xlink:href="#m21ee9babc9" y="142.644156"/>
      </g>
     </g>
     <g id="text_18">
      <text style="font-family:DejaVu Sans;font-size:6px;font-stretch:normal;font-style:normal;font-weight:normal;text-anchor:end;" transform="rotate(-0, 196.142857, 144.923687)" x="196.142857" y="144.923687">0.2</text>
     </g>
    </g>
    <g id="ytick_9">
     <g id="line2d_25">
      <g>
       <use style="stroke:#000000;stroke-width:0.25;" x="203.142857" xlink:href="#m21ee9babc9" y="126.748052"/>
      </g>
     </g>
     <g id="text_19">
      <text style="font-family:DejaVu Sans;font-size:6px;font-stretch:normal;font-style:normal;font-weight:normal;text-anchor:end;" transform="rotate(-0, 196.142857, 129.027583)" x="196.142857" y="129.027583">0.4</text>
     </g>
    </g>
    <g id="ytick_10">
     <g id="line2d_26">
      <g>
       <use style="stroke:#000000;stroke-width:0.25;" x="203.142857" xlink:href="#m21ee9babc9" y="110.851948"/>
      </g>
     </g>
     <g id="text_20">
      <text style="font-family:DejaVu Sans;font-size:6px;font-stretch:normal;font-style:normal;font-weight:normal;text-anchor:end;" transform="rotate(-0, 196.142857, 113.131479)" x="196.142857" y="113.131479">0.6</text>
     </g>
    </g>
    <g id="ytick_11">
     <g id="line2d_27">
      <g>
       <use style="stroke:#000000;stroke-width:0.25;" x="203.142857" xlink:href="#m21ee9babc9" y="94.955844"/>
      </g>
     </g>
     <g id="text_21">
      <text style="font-family:DejaVu Sans;font-size:6px;font-stretch:normal;font-style:normal;font-weight:normal;text-anchor:end;" transform="rotate(-0, 196.142857, 97.235375)" x="196.142857" y="97.235375">0.8</text>
     </g>
    </g>
    <g id="ytick_12">
     <g id="line2d_28">
      <g>
       <use style="stroke:#000000;stroke-width:0.25;" x="203.142857" xlink:href="#m21ee9babc9" y="79.05974"/>
      </g>
     </g>
     <g id="text_22">
      <text style="font-family:DejaVu Sans;font-size:6px;font-stretch:normal;font-style:normal;font-weight:normal;text-anchor:end;" transform="rotate(-0, 196.142857, 81.339272)" x="196.142857" y="81.339272">1.0</text>
     </g>
    </g>
    <g id="text_23">
     <text style="font-family:DejaVu Sans;font-size:6px;font-stretch:normal;font-style:normal;font-weight:normal;text-anchor:middle;" transform="rotate(-90, 181.35317, 118.8)" x="181.35317" y="118.8">p(H)</text>
    </g>
   </g>
   <g id="line2d_29">
    <path clip-path="url(#p34eda7d29f)" d="M 286.597403 79.05974 
L 286.597403 79.05974 
L 286.597403 79.05974 
L 286.597403 79.05974 
L 286.597403 79.05974 
L 286.597403 79.05974 
L 286.597403 79.05974 
L 286.597403 79.05974 
L 286.597403 79.05974 
L 280.920223 84.73692 
L 280.920223 90.4141 
L 275.243043 90.4141 
L 263.888683 101.76846 
L 252.534323 113.12282 
L 241.179963 118.8 
L 235.502783 141.50872 
L 229.825603 141.50872 
L 224.148423 141.50872 
L 218.471243 141.50872 
L 212.794063 141.50872 
L 212.794063 141.50872 
L 212.794063 147.1859 
L 212.794063 147.1859 
L 212.794063 147.1859 
L 207.116883 158.54026 
L 207.116883 158.54026 
L 207.116883 158.54026 
L 207.116883 158.54026 
L 207.116883 158.54026 
L 207.116883 158.54026 
L 207.116883 158.54026 
L 207.116883 158.54026 
L 207.116883 158.54026 
L 207.116883 158.54026 
L 207.116883 158.54026 
L 207.116883 158.54026 
L 207.116883 158.54026 
L 207.116883 158.54026 
L 207.116883 158.54026 
L 207.116883 158.54026 
L 207.116883 158.54026 
L 207.116883 158.54026 
L 207.116883 158.54026 
L 207.116883 158.54026 
L 207.116883 158.54026 
L 207.116883 158.54026 
L 207.116883 158.54026 
L 207.116883 158.54026 
L 207.116883 158.54026 
L 207.116883 158.54026 
" style="fill:none;stroke:#ab3c37;stroke-linecap:square;stroke-width:0.5;"/>
   </g>
   <g id="line2d_30">
    <path clip-path="url(#p34eda7d29f)" d="M 207.116883 158.54026 
L 286.597403 79.05974 
" style="fill:none;stroke:#000000;stroke-dasharray:1,1.65;stroke-dashoffset:0;"/>
   </g>
   <g id="line2d_31">
    <path clip-path="url(#p34eda7d29f)" d="M 286.597403 79.05974 
L 286.597403 79.05974 
L 286.597403 79.05974 
L 286.597403 81.800448 
L 286.597403 81.800448 
L 286.597403 81.800448 
L 286.597403 81.800448 
L 283.856695 84.541155 
L 278.37528 84.541155 
L 278.37528 84.541155 
L 272.893865 90.022571 
L 267.41245 92.763278 
L 261.931034 100.985401 
L 253.708912 109.207524 
L 242.746082 117.429646 
L 234.523959 120.170354 
L 231.783251 128.392476 
L 231.783251 131.133184 
L 223.561129 139.355307 
L 220.820421 142.096014 
L 218.079713 150.318137 
L 218.079713 150.318137 
L 215.339006 150.318137 
L 212.598298 153.058845 
L 212.598298 153.058845 
L 212.598298 153.058845 
L 212.598298 155.799552 
L 207.116883 155.799552 
L 207.116883 155.799552 
L 207.116883 155.799552 
L 207.116883 158.54026 
L 207.116883 158.54026 
L 207.116883 158.54026 
L 207.116883 158.54026 
L 207.116883 158.54026 
L 207.116883 158.54026 
L 207.116883 158.54026 
L 207.116883 158.54026 
L 207.116883 158.54026 
L 207.116883 158.54026 
L 207.116883 158.54026 
L 207.116883 158.54026 
L 207.116883 158.54026 
L 207.116883 158.54026 
L 207.116883 158.54026 
L 207.116883 158.54026 
L 207.116883 158.54026 
L 207.116883 158.54026 
L 207.116883 158.54026 
L 207.116883 158.54026 
" style="fill:none;stroke:#d29c82;stroke-linecap:square;stroke-width:0.5;"/>
   </g>
   <g id="line2d_32">
    <path clip-path="url(#p34eda7d29f)" d="M 207.116883 158.54026 
L 286.597403 79.05974 
" style="fill:none;stroke:#000000;stroke-dasharray:1,1.65;stroke-dashoffset:0;"/>
   </g>
   <g id="line2d_33">
    <path clip-path="url(#p34eda7d29f)" d="M 286.597403 79.05974 
L 286.597403 81.800448 
L 286.597403 81.800448 
L 286.597403 81.800448 
L 286.597403 81.800448 
L 286.597403 84.541155 
L 286.597403 84.541155 
L 286.597403 84.541155 
L 281.115987 87.281863 
L 278.37528 87.281863 
L 272.893865 90.022571 
L 261.931034 98.244693 
L 256.449619 98.244693 
L 242.746082 106.466816 
L 229.042544 109.207524 
L 226.301836 111.948231 
L 226.301836 120.170354 
L 223.561129 122.911061 
L 218.079713 128.392476 
L 218.079713 139.355307 
L 218.079713 139.355307 
L 218.079713 139.355307 
L 215.339006 142.096014 
L 215.339006 147.577429 
L 215.339006 147.577429 
L 212.598298 150.318137 
L 212.598298 150.318137 
L 212.598298 153.058845 
L 212.598298 153.058845 
L 212.598298 153.058845 
L 212.598298 155.799552 
L 212.598298 155.799552 
L 209.857591 155.799552 
L 209.857591 155.799552 
L 209.857591 155.799552 
L 209.857591 155.799552 
L 209.857591 155.799552 
L 207.116883 155.799552 
L 207.116883 158.54026 
L 207.116883 158.54026 
L 207.116883 158.54026 
L 207.116883 158.54026 
L 207.116883 158.54026 
L 207.116883 158.54026 
L 207.116883 158.54026 
L 207.116883 158.54026 
L 207.116883 158.54026 
L 207.116883 158.54026 
L 207.116883 158.54026 
L 207.116883 158.54026 
" style="fill:none;stroke:#d1d2d2;stroke-linecap:square;stroke-width:0.5;"/>
   </g>
   <g id="line2d_34">
    <path clip-path="url(#p34eda7d29f)" d="M 207.116883 158.54026 
L 286.597403 79.05974 
" style="fill:none;stroke:#000000;stroke-dasharray:1,1.65;stroke-dashoffset:0;"/>
   </g>
   <g id="line2d_35">
    <path clip-path="url(#p34eda7d29f)" d="M 286.597403 79.05974 
L 286.597403 79.05974 
L 286.597403 79.05974 
L 286.597403 79.05974 
L 286.597403 79.05974 
L 286.597403 79.05974 
L 283.856695 79.05974 
L 283.856695 79.05974 
L 283.856695 81.800448 
L 283.856695 81.800448 
L 283.856695 81.800448 
L 275.634572 84.541155 
L 264.671742 87.281863 
L 253.708912 92.763278 
L 248.227497 100.985401 
L 240.005374 109.207524 
L 237.264666 114.688939 
L 231.783251 120.170354 
L 229.042544 122.911061 
L 223.561129 125.651769 
L 220.820421 125.651769 
L 218.079713 131.133184 
L 218.079713 136.614599 
L 218.079713 142.096014 
L 218.079713 147.577429 
L 215.339006 147.577429 
L 212.598298 150.318137 
L 209.857591 150.318137 
L 207.116883 153.058845 
L 207.116883 153.058845 
L 207.116883 153.058845 
L 207.116883 153.058845 
L 207.116883 153.058845 
L 207.116883 155.799552 
L 207.116883 155.799552 
L 207.116883 158.54026 
L 207.116883 158.54026 
L 207.116883 158.54026 
L 207.116883 158.54026 
L 207.116883 158.54026 
L 207.116883 158.54026 
L 207.116883 158.54026 
L 207.116883 158.54026 
L 207.116883 158.54026 
L 207.116883 158.54026 
L 207.116883 158.54026 
L 207.116883 158.54026 
L 207.116883 158.54026 
L 207.116883 158.54026 
L 207.116883 158.54026 
" style="fill:none;stroke:#8eb1c2;stroke-linecap:square;stroke-width:0.5;"/>
   </g>
   <g id="line2d_36">
    <path clip-path="url(#p34eda7d29f)" d="M 207.116883 158.54026 
L 286.597403 79.05974 
" style="fill:none;stroke:#000000;stroke-dasharray:1,1.65;stroke-dashoffset:0;"/>
   </g>
   <g id="line2d_37">
    <path clip-path="url(#p34eda7d29f)" d="M 286.597403 79.05974 
L 286.597403 79.05974 
L 286.597403 79.05974 
L 286.597403 79.05974 
L 286.597403 79.05974 
L 286.597403 79.05974 
L 286.597403 79.05974 
L 278.37528 79.05974 
L 278.37528 79.05974 
L 275.634572 84.541155 
L 275.634572 84.541155 
L 267.41245 84.541155 
L 259.190327 90.022571 
L 245.486789 95.503986 
L 240.005374 95.503986 
L 234.523959 100.985401 
L 226.301836 106.466816 
L 220.820421 117.429646 
L 218.079713 117.429646 
L 218.079713 120.170354 
L 218.079713 125.651769 
L 212.598298 131.133184 
L 209.857591 136.614599 
L 209.857591 139.355307 
L 209.857591 144.836722 
L 209.857591 144.836722 
L 209.857591 144.836722 
L 209.857591 150.318137 
L 207.116883 150.318137 
L 207.116883 150.318137 
L 207.116883 150.318137 
L 207.116883 150.318137 
L 207.116883 153.058845 
L 207.116883 153.058845 
L 207.116883 155.799552 
L 207.116883 155.799552 
L 207.116883 155.799552 
L 207.116883 155.799552 
L 207.116883 155.799552 
L 207.116883 155.799552 
L 207.116883 158.54026 
L 207.116883 158.54026 
L 207.116883 158.54026 
L 207.116883 158.54026 
L 207.116883 158.54026 
L 207.116883 158.54026 
L 207.116883 158.54026 
L 207.116883 158.54026 
L 207.116883 158.54026 
L 207.116883 158.54026 
" style="fill:none;stroke:#2f6f9f;stroke-linecap:square;stroke-width:0.5;"/>
   </g>
   <g id="line2d_38">
    <path clip-path="url(#p34eda7d29f)" d="M 207.116883 158.54026 
L 286.597403 79.05974 
" style="fill:none;stroke:#000000;stroke-dasharray:1,1.65;stroke-dashoffset:0;"/>
   </g>
   <g id="patch_8">
    <path d="M 203.142857 162.514286 
L 203.142857 75.085714 
" style="fill:none;stroke:#000000;stroke-linecap:square;stroke-linejoin:miter;stroke-width:0.25;"/>
   </g>
   <g id="patch_9">
    <path d="M 290.571429 162.514286 
L 290.571429 75.085714 
" style="fill:none;stroke:#000000;stroke-linecap:square;stroke-linejoin:miter;stroke-width:0.25;"/>
   </g>
   <g id="patch_10">
    <path d="M 203.142857 162.514286 
L 290.571429 162.514286 
" style="fill:none;stroke:#000000;stroke-linecap:square;stroke-linejoin:miter;stroke-width:0.25;"/>
   </g>
   <g id="patch_11">
    <path d="M 203.142857 75.085714 
L 290.571429 75.085714 
" style="fill:none;stroke:#000000;stroke-linecap:square;stroke-linejoin:miter;stroke-width:0.25;"/>
   </g>
   <g id="text_24">
    <text style="font-family:DejaVu Sans;font-size:7.2px;font-stretch:normal;font-style:normal;font-weight:normal;text-anchor:middle;" transform="rotate(-0, 246.857143, 69.085714)" x="246.857143" y="69.085714">20.0</text>
   </g>
  </g>
  <g id="axes_3">
   <g id="patch_12">
    <path d="M 334.285714 162.514286 
L 421.714286 162.514286 
L 421.714286 75.085714 
L 334.285714 75.085714 
z
" style="fill:#ffffff;"/>
   </g>
   <g id="matplotlib.axis_5">
    <g id="xtick_7">
     <g id="line2d_39">
      <g>
       <use style="stroke:#000000;stroke-width:0.25;" x="338.25974" xlink:href="#m5eab559457" y="162.514286"/>
      </g>
     </g>
     <g id="text_25">
      <text style="font-family:DejaVu Sans;font-size:6px;font-stretch:normal;font-style:normal;font-weight:normal;text-anchor:middle;" transform="rotate(-0, 338.25974, 174.073348)" x="338.25974" y="174.073348">0.0</text>
     </g>
    </g>
    <g id="xtick_8">
     <g id="line2d_40">
      <g>
       <use style="stroke:#000000;stroke-width:0.25;" x="378" xlink:href="#m5eab559457" y="162.514286"/>
      </g>
     </g>
     <g id="text_26">
      <text style="font-family:DejaVu Sans;font-size:6px;font-stretch:normal;font-style:normal;font-weight:normal;text-anchor:middle;" transform="rotate(-0, 378, 174.073348)" x="378" y="174.073348">0.5</text>
     </g>
    </g>
    <g id="xtick_9">
     <g id="line2d_41">
      <g>
       <use style="stroke:#000000;stroke-width:0.25;" x="417.74026" xlink:href="#m5eab559457" y="162.514286"/>
      </g>
     </g>
     <g id="text_27">
      <text style="font-family:DejaVu Sans;font-size:6px;font-stretch:normal;font-style:normal;font-weight:normal;text-anchor:middle;" transform="rotate(-0, 417.74026, 174.073348)" x="417.74026" y="174.073348">1.0</text>
     </g>
    </g>
    <g id="text_28">
     <text style="font-family:DejaVu Sans;font-size:6px;font-stretch:normal;font-style:normal;font-weight:normal;text-anchor:middle;" transform="rotate(-0, 378, 183.880223)" x="378" y="183.880223">p(F)</text>
    </g>
   </g>
   <g id="matplotlib.axis_6">
    <g id="ytick_13">
     <g id="line2d_42">
      <g>
       <use style="stroke:#000000;stroke-width:0.25;" x="334.285714" xlink:href="#m21ee9babc9" y="158.54026"/>
      </g>
     </g>
     <g id="text_29">
      <text style="font-family:DejaVu Sans;font-size:6px;font-stretch:normal;font-style:normal;font-weight:normal;text-anchor:end;" transform="rotate(-0, 327.285714, 160.819791)" x="327.285714" y="160.819791">0.0</text>
     </g>
    </g>
    <g id="ytick_14">
     <g id="line2d_43">
      <g>
       <use style="stroke:#000000;stroke-width:0.25;" x="334.285714" xlink:href="#m21ee9babc9" y="142.644156"/>
      </g>
     </g>
     <g id="text_30">
      <text style="font-family:DejaVu Sans;font-size:6px;font-stretch:normal;font-style:normal;font-weight:normal;text-anchor:end;" transform="rotate(-0, 327.285714, 144.923687)" x="327.285714" y="144.923687">0.2</text>
     </g>
    </g>
    <g id="ytick_15">
     <g id="line2d_44">
      <g>
       <use style="stroke:#000000;stroke-width:0.25;" x="334.285714" xlink:href="#m21ee9babc9" y="126.748052"/>
      </g>
     </g>
     <g id="text_31">
      <text style="font-family:DejaVu Sans;font-size:6px;font-stretch:normal;font-style:normal;font-weight:normal;text-anchor:end;" transform="rotate(-0, 327.285714, 129.027583)" x="327.285714" y="129.027583">0.4</text>
     </g>
    </g>
    <g id="ytick_16">
     <g id="line2d_45">
      <g>
       <use style="stroke:#000000;stroke-width:0.25;" x="334.285714" xlink:href="#m21ee9babc9" y="110.851948"/>
      </g>
     </g>
     <g id="text_32">
      <text style="font-family:DejaVu Sans;font-size:6px;font-stretch:normal;font-style:normal;font-weight:normal;text-anchor:end;" transform="rotate(-0, 327.285714, 113.131479)" x="327.285714" y="113.131479">0.6</text>
     </g>
    </g>
    <g id="ytick_17">
     <g id="line2d_46">
      <g>
       <use style="stroke:#000000;stroke-width:0.25;" x="334.285714" xlink:href="#m21ee9babc9" y="94.955844"/>
      </g>
     </g>
     <g id="text_33">
      <text style="font-family:DejaVu Sans;font-size:6px;font-stretch:normal;font-style:normal;font-weight:normal;text-anchor:end;" transform="rotate(-0, 327.285714, 97.235375)" x="327.285714" y="97.235375">0.8</text>
     </g>
    </g>
    <g id="ytick_18">
     <g id="line2d_47">
      <g>
       <use style="stroke:#000000;stroke-width:0.25;" x="334.285714" xlink:href="#m21ee9babc9" y="79.05974"/>
      </g>
     </g>
     <g id="text_34">
      <text style="font-family:DejaVu Sans;font-size:6px;font-stretch:normal;font-style:normal;font-weight:normal;text-anchor:end;" transform="rotate(-0, 327.285714, 81.339272)" x="327.285714" y="81.339272">1.0</text>
     </g>
    </g>
    <g id="text_35">
     <text style="font-family:DejaVu Sans;font-size:6px;font-stretch:normal;font-style:normal;font-weight:normal;text-anchor:middle;" transform="rotate(-90, 312.496027, 118.8)" x="312.496027" y="118.8">p(H)</text>
    </g>
   </g>
   <g id="line2d_48">
    <path clip-path="url(#paf6b39c50d)" d="M 417.74026 79.05974 
L 417.74026 79.05974 
L 417.74026 79.05974 
L 417.74026 79.05974 
L 417.74026 79.05974 
L 417.74026 79.05974 
L 412.06308 90.4141 
L 412.06308 96.09128 
L 412.06308 101.76846 
L 412.06308 118.8 
L 406.3859 118.8 
L 395.03154 118.8 
L 383.67718 124.47718 
L 372.32282 124.47718 
L 355.29128 135.83154 
L 355.29128 135.83154 
L 349.6141 141.50872 
L 349.6141 141.50872 
L 349.6141 141.50872 
L 349.6141 147.1859 
L 343.93692 147.1859 
L 343.93692 152.86308 
L 343.93692 152.86308 
L 343.93692 152.86308 
L 343.93692 158.54026 
L 343.93692 158.54026 
L 338.25974 158.54026 
L 338.25974 158.54026 
L 338.25974 158.54026 
L 338.25974 158.54026 
L 338.25974 158.54026 
L 338.25974 158.54026 
L 338.25974 158.54026 
L 338.25974 158.54026 
L 338.25974 158.54026 
L 338.25974 158.54026 
L 338.25974 158.54026 
L 338.25974 158.54026 
L 338.25974 158.54026 
L 338.25974 158.54026 
L 338.25974 158.54026 
L 338.25974 158.54026 
L 338.25974 158.54026 
L 338.25974 158.54026 
L 338.25974 158.54026 
L 338.25974 158.54026 
L 338.25974 158.54026 
L 338.25974 158.54026 
L 338.25974 158.54026 
L 338.25974 158.54026 
" style="fill:none;stroke:#ab3c37;stroke-linecap:square;stroke-width:0.5;"/>
   </g>
   <g id="line2d_49">
    <path clip-path="url(#paf6b39c50d)" d="M 338.25974 158.54026 
L 417.74026 79.05974 
" style="fill:none;stroke:#000000;stroke-dasharray:1,1.65;stroke-dashoffset:0;"/>
   </g>
   <g id="line2d_50">
    <path clip-path="url(#paf6b39c50d)" d="M 412.258845 79.05974 
L 412.258845 79.05974 
L 412.258845 79.05974 
L 412.258845 79.05974 
L 412.258845 79.05974 
L 412.258845 79.05974 
L 412.258845 79.05974 
L 412.258845 81.800448 
L 406.777429 87.281863 
L 404.036722 90.022571 
L 401.296014 92.763278 
L 387.592476 98.244693 
L 379.370354 103.726108 
L 373.888939 120.170354 
L 365.666816 131.133184 
L 360.185401 131.133184 
L 357.444693 139.355307 
L 354.703986 142.096014 
L 343.741155 142.096014 
L 343.741155 144.836722 
L 343.741155 147.577429 
L 343.741155 150.318137 
L 343.741155 153.058845 
L 343.741155 153.058845 
L 343.741155 155.799552 
L 343.741155 155.799552 
L 343.741155 155.799552 
L 343.741155 158.54026 
L 343.741155 158.54026 
L 343.741155 158.54026 
L 343.741155 158.54026 
L 341.000448 158.54026 
L 338.25974 158.54026 
L 338.25974 158.54026 
L 338.25974 158.54026 
L 338.25974 158.54026 
L 338.25974 158.54026 
L 338.25974 158.54026 
L 338.25974 158.54026 
L 338.25974 158.54026 
L 338.25974 158.54026 
L 338.25974 158.54026 
L 338.25974 158.54026 
L 338.25974 158.54026 
L 338.25974 158.54026 
L 338.25974 158.54026 
L 338.25974 158.54026 
L 338.25974 158.54026 
L 338.25974 158.54026 
L 338.25974 158.54026 
" style="fill:none;stroke:#d29c82;stroke-linecap:square;stroke-width:0.5;"/>
   </g>
   <g id="line2d_51">
    <path clip-path="url(#paf6b39c50d)" d="M 338.25974 158.54026 
L 417.74026 79.05974 
" style="fill:none;stroke:#000000;stroke-dasharray:1,1.65;stroke-dashoffset:0;"/>
   </g>
   <g id="line2d_52">
    <path clip-path="url(#paf6b39c50d)" d="M 417.74026 79.05974 
L 417.74026 81.800448 
L 417.74026 81.800448 
L 414.999552 84.541155 
L 414.999552 84.541155 
L 414.999552 84.541155 
L 412.258845 84.541155 
L 409.518137 84.541155 
L 404.036722 84.541155 
L 401.296014 90.022571 
L 382.111061 103.726108 
L 376.629646 109.207524 
L 362.926108 114.688939 
L 360.185401 120.170354 
L 357.444693 120.170354 
L 357.444693 125.651769 
L 343.741155 139.355307 
L 341.000448 139.355307 
L 341.000448 144.836722 
L 341.000448 155.799552 
L 341.000448 155.799552 
L 338.25974 155.799552 
L 338.25974 155.799552 
L 338.25974 155.799552 
L 338.25974 155.799552 
L 338.25974 155.799552 
L 338.25974 158.54026 
L 338.25974 158.54026 
L 338.25974 158.54026 
L 338.25974 158.54026 
L 338.25974 158.54026 
L 338.25974 158.54026 
L 338.25974 158.54026 
L 338.25974 158.54026 
L 338.25974 158.54026 
L 338.25974 158.54026 
L 338.25974 158.54026 
L 338.25974 158.54026 
L 338.25974 158.54026 
L 338.25974 158.54026 
L 338.25974 158.54026 
L 338.25974 158.54026 
L 338.25974 158.54026 
L 338.25974 158.54026 
L 338.25974 158.54026 
L 338.25974 158.54026 
L 338.25974 158.54026 
L 338.25974 158.54026 
L 338.25974 158.54026 
L 338.25974 158.54026 
" style="fill:none;stroke:#d1d2d2;stroke-linecap:square;stroke-width:0.5;"/>
   </g>
   <g id="line2d_53">
    <path clip-path="url(#paf6b39c50d)" d="M 338.25974 158.54026 
L 417.74026 79.05974 
" style="fill:none;stroke:#000000;stroke-dasharray:1,1.65;stroke-dashoffset:0;"/>
   </g>
   <g id="line2d_54">
    <path clip-path="url(#paf6b39c50d)" d="M 417.74026 79.05974 
L 417.74026 79.05974 
L 417.74026 79.05974 
L 417.74026 79.05974 
L 417.74026 81.800448 
L 414.999552 81.800448 
L 414.999552 81.800448 
L 409.518137 87.281863 
L 404.036722 92.763278 
L 401.296014 95.503986 
L 395.814599 98.244693 
L 384.851769 100.985401 
L 371.148231 103.726108 
L 368.407524 111.948231 
L 365.666816 117.429646 
L 354.703986 125.651769 
L 351.963278 133.873892 
L 349.222571 139.355307 
L 349.222571 139.355307 
L 349.222571 144.836722 
L 349.222571 147.577429 
L 343.741155 147.577429 
L 343.741155 147.577429 
L 341.000448 150.318137 
L 341.000448 150.318137 
L 341.000448 150.318137 
L 341.000448 150.318137 
L 338.25974 153.058845 
L 338.25974 153.058845 
L 338.25974 153.058845 
L 338.25974 153.058845 
L 338.25974 153.058845 
L 338.25974 153.058845 
L 338.25974 153.058845 
L 338.25974 153.058845 
L 338.25974 153.058845 
L 338.25974 153.058845 
L 338.25974 153.058845 
L 338.25974 153.058845 
L 338.25974 155.799552 
L 338.25974 155.799552 
L 338.25974 155.799552 
L 338.25974 155.799552 
L 338.25974 155.799552 
L 338.25974 155.799552 
L 338.25974 155.799552 
L 338.25974 155.799552 
L 338.25974 155.799552 
L 338.25974 155.799552 
L 338.25974 158.54026 
" style="fill:none;stroke:#8eb1c2;stroke-linecap:square;stroke-width:0.5;"/>
   </g>
   <g id="line2d_55">
    <path clip-path="url(#paf6b39c50d)" d="M 338.25974 158.54026 
L 417.74026 79.05974 
" style="fill:none;stroke:#000000;stroke-dasharray:1,1.65;stroke-dashoffset:0;"/>
   </g>
   <g id="line2d_56">
    <path clip-path="url(#paf6b39c50d)" d="M 417.74026 79.05974 
L 417.74026 79.05974 
L 417.74026 79.05974 
L 417.74026 79.05974 
L 417.74026 79.05974 
L 417.74026 79.05974 
L 417.74026 79.05974 
L 412.258845 79.05974 
L 412.258845 79.05974 
L 404.036722 79.05974 
L 390.333184 79.05974 
L 387.592476 81.800448 
L 382.111061 81.800448 
L 371.148231 81.800448 
L 360.185401 84.541155 
L 357.444693 92.763278 
L 357.444693 103.726108 
L 357.444693 111.948231 
L 346.481863 117.429646 
L 346.481863 117.429646 
L 343.741155 120.170354 
L 343.741155 125.651769 
L 343.741155 125.651769 
L 343.741155 131.133184 
L 343.741155 133.873892 
L 341.000448 139.355307 
L 341.000448 142.096014 
L 338.25974 144.836722 
L 338.25974 144.836722 
L 338.25974 147.577429 
L 338.25974 147.577429 
L 338.25974 150.318137 
L 338.25974 155.799552 
L 338.25974 155.799552 
L 338.25974 155.799552 
L 338.25974 155.799552 
L 338.25974 158.54026 
L 338.25974 158.54026 
L 338.25974 158.54026 
L 338.25974 158.54026 
L 338.25974 158.54026 
L 338.25974 158.54026 
L 338.25974 158.54026 
L 338.25974 158.54026 
L 338.25974 158.54026 
L 338.25974 158.54026 
L 338.25974 158.54026 
L 338.25974 158.54026 
L 338.25974 158.54026 
L 338.25974 158.54026 
" style="fill:none;stroke:#2f6f9f;stroke-linecap:square;stroke-width:0.5;"/>
   </g>
   <g id="line2d_57">
    <path clip-path="url(#paf6b39c50d)" d="M 338.25974 158.54026 
L 417.74026 79.05974 
" style="fill:none;stroke:#000000;stroke-dasharray:1,1.65;stroke-dashoffset:0;"/>
   </g>
   <g id="patch_13">
    <path d="M 334.285714 162.514286 
L 334.285714 75.085714 
" style="fill:none;stroke:#000000;stroke-linecap:square;stroke-linejoin:miter;stroke-width:0.25;"/>
   </g>
   <g id="patch_14">
    <path d="M 421.714286 162.514286 
L 421.714286 75.085714 
" style="fill:none;stroke:#000000;stroke-linecap:square;stroke-linejoin:miter;stroke-width:0.25;"/>
   </g>
   <g id="patch_15">
    <path d="M 334.285714 162.514286 
L 421.714286 162.514286 
" style="fill:none;stroke:#000000;stroke-linecap:square;stroke-linejoin:miter;stroke-width:0.25;"/>
   </g>
   <g id="patch_16">
    <path d="M 334.285714 75.085714 
L 421.714286 75.085714 
" style="fill:none;stroke:#000000;stroke-linecap:square;stroke-linejoin:miter;stroke-width:0.25;"/>
   </g>
   <g id="text_36">
    <text style="font-family:DejaVu Sans;font-size:7.2px;font-stretch:normal;font-style:normal;font-weight:normal;text-anchor:middle;" transform="rotate(-0, 378, 69.085714)" x="378" y="69.085714">30.0</text>
   </g>
  </g>
  <g id="axes_4">
   <g id="patch_17">
    <path d="M 465.428571 162.514286 
L 552.857143 162.514286 
L 552.857143 75.085714 
L 465.428571 75.085714 
z
" style="fill:#ffffff;"/>
   </g>
   <g id="matplotlib.axis_7">
    <g id="xtick_10">
     <g id="line2d_58">
      <g>
       <use style="stroke:#000000;stroke-width:0.25;" x="469.402597" xlink:href="#m5eab559457" y="162.514286"/>
      </g>
     </g>
     <g id="text_37">
      <text style="font-family:DejaVu Sans;font-size:6px;font-stretch:normal;font-style:normal;font-weight:normal;text-anchor:middle;" transform="rotate(-0, 469.402597, 174.073348)" x="469.402597" y="174.073348">0.0</text>
     </g>
    </g>
    <g id="xtick_11">
     <g id="line2d_59">
      <g>
       <use style="stroke:#000000;stroke-width:0.25;" x="509.142857" xlink:href="#m5eab559457" y="162.514286"/>
      </g>
     </g>
     <g id="text_38">
      <text style="font-family:DejaVu Sans;font-size:6px;font-stretch:normal;font-style:normal;font-weight:normal;text-anchor:middle;" transform="rotate(-0, 509.142857, 174.073348)" x="509.142857" y="174.073348">0.5</text>
     </g>
    </g>
    <g id="xtick_12">
     <g id="line2d_60">
      <g>
       <use style="stroke:#000000;stroke-width:0.25;" x="548.883117" xlink:href="#m5eab559457" y="162.514286"/>
      </g>
     </g>
     <g id="text_39">
      <text style="font-family:DejaVu Sans;font-size:6px;font-stretch:normal;font-style:normal;font-weight:normal;text-anchor:middle;" transform="rotate(-0, 548.883117, 174.073348)" x="548.883117" y="174.073348">1.0</text>
     </g>
    </g>
    <g id="text_40">
     <text style="font-family:DejaVu Sans;font-size:6px;font-stretch:normal;font-style:normal;font-weight:normal;text-anchor:middle;" transform="rotate(-0, 509.142857, 183.880223)" x="509.142857" y="183.880223">p(F)</text>
    </g>
   </g>
   <g id="matplotlib.axis_8">
    <g id="ytick_19">
     <g id="line2d_61">
      <g>
       <use style="stroke:#000000;stroke-width:0.25;" x="465.428571" xlink:href="#m21ee9babc9" y="158.54026"/>
      </g>
     </g>
     <g id="text_41">
      <text style="font-family:DejaVu Sans;font-size:6px;font-stretch:normal;font-style:normal;font-weight:normal;text-anchor:end;" transform="rotate(-0, 458.428571, 160.819791)" x="458.428571" y="160.819791">0.0</text>
     </g>
    </g>
    <g id="ytick_20">
     <g id="line2d_62">
      <g>
       <use style="stroke:#000000;stroke-width:0.25;" x="465.428571" xlink:href="#m21ee9babc9" y="142.644156"/>
      </g>
     </g>
     <g id="text_42">
      <text style="font-family:DejaVu Sans;font-size:6px;font-stretch:normal;font-style:normal;font-weight:normal;text-anchor:end;" transform="rotate(-0, 458.428571, 144.923687)" x="458.428571" y="144.923687">0.2</text>
     </g>
    </g>
    <g id="ytick_21">
     <g id="line2d_63">
      <g>
       <use style="stroke:#000000;stroke-width:0.25;" x="465.428571" xlink:href="#m21ee9babc9" y="126.748052"/>
      </g>
     </g>
     <g id="text_43">
      <text style="font-family:DejaVu Sans;font-size:6px;font-stretch:normal;font-style:normal;font-weight:normal;text-anchor:end;" transform="rotate(-0, 458.428571, 129.027583)" x="458.428571" y="129.027583">0.4</text>
     </g>
    </g>
    <g id="ytick_22">
     <g id="line2d_64">
      <g>
       <use style="stroke:#000000;stroke-width:0.25;" x="465.428571" xlink:href="#m21ee9babc9" y="110.851948"/>
      </g>
     </g>
     <g id="text_44">
      <text style="font-family:DejaVu Sans;font-size:6px;font-stretch:normal;font-style:normal;font-weight:normal;text-anchor:end;" transform="rotate(-0, 458.428571, 113.131479)" x="458.428571" y="113.131479">0.6</text>
     </g>
    </g>
    <g id="ytick_23">
     <g id="line2d_65">
      <g>
       <use style="stroke:#000000;stroke-width:0.25;" x="465.428571" xlink:href="#m21ee9babc9" y="94.955844"/>
      </g>
     </g>
     <g id="text_45">
      <text style="font-family:DejaVu Sans;font-size:6px;font-stretch:normal;font-style:normal;font-weight:normal;text-anchor:end;" transform="rotate(-0, 458.428571, 97.235375)" x="458.428571" y="97.235375">0.8</text>
     </g>
    </g>
    <g id="ytick_24">
     <g id="line2d_66">
      <g>
       <use style="stroke:#000000;stroke-width:0.25;" x="465.428571" xlink:href="#m21ee9babc9" y="79.05974"/>
      </g>
     </g>
     <g id="text_46">
      <text style="font-family:DejaVu Sans;font-size:6px;font-stretch:normal;font-style:normal;font-weight:normal;text-anchor:end;" transform="rotate(-0, 458.428571, 81.339272)" x="458.428571" y="81.339272">1.0</text>
     </g>
    </g>
    <g id="text_47">
     <text style="font-family:DejaVu Sans;font-size:6px;font-stretch:normal;font-style:normal;font-weight:normal;text-anchor:middle;" transform="rotate(-90, 443.638884, 118.8)" x="443.638884" y="118.8">p(H)</text>
    </g>
   </g>
   <g id="line2d_67">
    <path clip-path="url(#pe6bc68e626)" d="M 548.883117 79.05974 
L 548.883117 79.05974 
L 548.883117 79.05974 
L 548.883117 79.05974 
L 548.883117 79.05974 
L 537.528757 79.05974 
L 537.528757 84.73692 
L 537.528757 90.4141 
L 526.174397 90.4141 
L 520.497217 96.09128 
L 509.142857 113.12282 
L 503.465677 124.47718 
L 492.111317 135.83154 
L 486.434137 141.50872 
L 475.079777 141.50872 
L 475.079777 147.1859 
L 475.079777 152.86308 
L 469.402597 152.86308 
L 469.402597 152.86308 
L 469.402597 152.86308 
L 469.402597 158.54026 
L 469.402597 158.54026 
L 469.402597 158.54026 
L 469.402597 158.54026 
L 469.402597 158.54026 
L 469.402597 158.54026 
L 469.402597 158.54026 
L 469.402597 158.54026 
L 469.402597 158.54026 
L 469.402597 158.54026 
L 469.402597 158.54026 
L 469.402597 158.54026 
L 469.402597 158.54026 
L 469.402597 158.54026 
L 469.402597 158.54026 
L 469.402597 158.54026 
L 469.402597 158.54026 
L 469.402597 158.54026 
L 469.402597 158.54026 
L 469.402597 158.54026 
L 469.402597 158.54026 
L 469.402597 158.54026 
L 469.402597 158.54026 
L 469.402597 158.54026 
L 469.402597 158.54026 
L 469.402597 158.54026 
L 469.402597 158.54026 
L 469.402597 158.54026 
L 469.402597 158.54026 
L 469.402597 158.54026 
" style="fill:none;stroke:#ab3c37;stroke-linecap:square;stroke-width:0.5;"/>
   </g>
   <g id="line2d_68">
    <path clip-path="url(#pe6bc68e626)" d="M 469.402597 158.54026 
L 548.883117 79.05974 
" style="fill:none;stroke:#000000;stroke-dasharray:1,1.65;stroke-dashoffset:0;"/>
   </g>
   <g id="line2d_69">
    <path clip-path="url(#pe6bc68e626)" d="M 548.883117 79.05974 
L 548.883117 79.05974 
L 548.883117 79.05974 
L 546.142409 81.800448 
L 543.401702 87.281863 
L 543.401702 87.281863 
L 537.920287 87.281863 
L 535.179579 90.022571 
L 526.957456 98.244693 
L 515.994626 106.466816 
L 510.513211 109.207524 
L 507.772503 128.392476 
L 499.550381 133.873892 
L 488.58755 133.873892 
L 483.106135 136.614599 
L 477.62472 136.614599 
L 472.143305 136.614599 
L 469.402597 144.836722 
L 469.402597 147.577429 
L 469.402597 150.318137 
L 469.402597 150.318137 
L 469.402597 153.058845 
L 469.402597 155.799552 
L 469.402597 155.799552 
L 469.402597 158.54026 
L 469.402597 158.54026 
L 469.402597 158.54026 
L 469.402597 158.54026 
L 469.402597 158.54026 
L 469.402597 158.54026 
L 469.402597 158.54026 
L 469.402597 158.54026 
L 469.402597 158.54026 
L 469.402597 158.54026 
L 469.402597 158.54026 
L 469.402597 158.54026 
L 469.402597 158.54026 
L 469.402597 158.54026 
L 469.402597 158.54026 
L 469.402597 158.54026 
L 469.402597 158.54026 
L 469.402597 158.54026 
L 469.402597 158.54026 
L 469.402597 158.54026 
L 469.402597 158.54026 
L 469.402597 158.54026 
L 469.402597 158.54026 
L 469.402597 158.54026 
L 469.402597 158.54026 
L 469.402597 158.54026 
" style="fill:none;stroke:#d29c82;stroke-linecap:square;stroke-width:0.5;"/>
   </g>
   <g id="line2d_70">
    <path clip-path="url(#pe6bc68e626)" d="M 469.402597 158.54026 
L 548.883117 79.05974 
" style="fill:none;stroke:#000000;stroke-dasharray:1,1.65;stroke-dashoffset:0;"/>
   </g>
   <g id="line2d_71">
    <path clip-path="url(#pe6bc68e626)" d="M 546.142409 79.05974 
L 546.142409 79.05974 
L 546.142409 79.05974 
L 546.142409 84.541155 
L 546.142409 84.541155 
L 540.660994 84.541155 
L 540.660994 84.541155 
L 535.179579 84.541155 
L 529.698164 87.281863 
L 515.994626 95.503986 
L 507.772503 100.985401 
L 502.291088 109.207524 
L 494.068966 120.170354 
L 488.58755 133.873892 
L 485.846843 142.096014 
L 480.365428 144.836722 
L 477.62472 150.318137 
L 477.62472 153.058845 
L 469.402597 153.058845 
L 469.402597 158.54026 
L 469.402597 158.54026 
L 469.402597 158.54026 
L 469.402597 158.54026 
L 469.402597 158.54026 
L 469.402597 158.54026 
L 469.402597 158.54026 
L 469.402597 158.54026 
L 469.402597 158.54026 
L 469.402597 158.54026 
L 469.402597 158.54026 
L 469.402597 158.54026 
L 469.402597 158.54026 
L 469.402597 158.54026 
L 469.402597 158.54026 
L 469.402597 158.54026 
L 469.402597 158.54026 
L 469.402597 158.54026 
L 469.402597 158.54026 
L 469.402597 158.54026 
L 469.402597 158.54026 
L 469.402597 158.54026 
L 469.402597 158.54026 
L 469.402597 158.54026 
L 469.402597 158.54026 
L 469.402597 158.54026 
L 469.402597 158.54026 
L 469.402597 158.54026 
L 469.402597 158.54026 
L 469.402597 158.54026 
L 469.402597 158.54026 
" style="fill:none;stroke:#d1d2d2;stroke-linecap:square;stroke-width:0.5;"/>
   </g>
   <g id="line2d_72">
    <path clip-path="url(#pe6bc68e626)" d="M 469.402597 158.54026 
L 548.883117 79.05974 
" style="fill:none;stroke:#000000;stroke-dasharray:1,1.65;stroke-dashoffset:0;"/>
   </g>
   <g id="line2d_73">
    <path clip-path="url(#pe6bc68e626)" d="M 546.142409 79.05974 
L 546.142409 79.05974 
L 546.142409 79.05974 
L 546.142409 79.05974 
L 546.142409 79.05974 
L 543.401702 79.05974 
L 540.660994 84.541155 
L 537.920287 84.541155 
L 529.698164 87.281863 
L 524.216749 95.503986 
L 515.994626 98.244693 
L 513.253918 98.244693 
L 502.291088 98.244693 
L 491.328258 109.207524 
L 485.846843 114.688939 
L 483.106135 120.170354 
L 477.62472 125.651769 
L 477.62472 133.873892 
L 477.62472 139.355307 
L 477.62472 144.836722 
L 477.62472 144.836722 
L 474.884013 147.577429 
L 472.143305 147.577429 
L 469.402597 150.318137 
L 469.402597 150.318137 
L 469.402597 153.058845 
L 469.402597 153.058845 
L 469.402597 153.058845 
L 469.402597 153.058845 
L 469.402597 155.799552 
L 469.402597 155.799552 
L 469.402597 155.799552 
L 469.402597 155.799552 
L 469.402597 155.799552 
L 469.402597 155.799552 
L 469.402597 155.799552 
L 469.402597 155.799552 
L 469.402597 155.799552 
L 469.402597 155.799552 
L 469.402597 155.799552 
L 469.402597 155.799552 
L 469.402597 155.799552 
L 469.402597 158.54026 
L 469.402597 158.54026 
L 469.402597 158.54026 
L 469.402597 158.54026 
L 469.402597 158.54026 
L 469.402597 158.54026 
L 469.402597 158.54026 
L 469.402597 158.54026 
" style="fill:none;stroke:#8eb1c2;stroke-linecap:square;stroke-width:0.5;"/>
   </g>
   <g id="line2d_74">
    <path clip-path="url(#pe6bc68e626)" d="M 469.402597 158.54026 
L 548.883117 79.05974 
" style="fill:none;stroke:#000000;stroke-dasharray:1,1.65;stroke-dashoffset:0;"/>
   </g>
   <g id="line2d_75">
    <path clip-path="url(#pe6bc68e626)" d="M 548.883117 79.05974 
L 548.883117 79.05974 
L 546.142409 79.05974 
L 543.401702 79.05974 
L 543.401702 79.05974 
L 543.401702 79.05974 
L 540.660994 81.800448 
L 537.920287 84.541155 
L 529.698164 84.541155 
L 518.735334 87.281863 
L 513.253918 90.022571 
L 505.031796 95.503986 
L 494.068966 98.244693 
L 485.846843 106.466816 
L 483.106135 114.688939 
L 483.106135 122.911061 
L 483.106135 133.873892 
L 477.62472 139.355307 
L 474.884013 139.355307 
L 474.884013 142.096014 
L 474.884013 147.577429 
L 472.143305 147.577429 
L 472.143305 153.058845 
L 472.143305 153.058845 
L 472.143305 153.058845 
L 472.143305 153.058845 
L 472.143305 153.058845 
L 472.143305 155.799552 
L 472.143305 155.799552 
L 472.143305 155.799552 
L 469.402597 158.54026 
L 469.402597 158.54026 
L 469.402597 158.54026 
L 469.402597 158.54026 
L 469.402597 158.54026 
L 469.402597 158.54026 
L 469.402597 158.54026 
L 469.402597 158.54026 
L 469.402597 158.54026 
L 469.402597 158.54026 
L 469.402597 158.54026 
L 469.402597 158.54026 
L 469.402597 158.54026 
L 469.402597 158.54026 
L 469.402597 158.54026 
L 469.402597 158.54026 
L 469.402597 158.54026 
L 469.402597 158.54026 
L 469.402597 158.54026 
L 469.402597 158.54026 
" style="fill:none;stroke:#2f6f9f;stroke-linecap:square;stroke-width:0.5;"/>
   </g>
   <g id="line2d_76">
    <path clip-path="url(#pe6bc68e626)" d="M 469.402597 158.54026 
L 548.883117 79.05974 
" style="fill:none;stroke:#000000;stroke-dasharray:1,1.65;stroke-dashoffset:0;"/>
   </g>
   <g id="patch_18">
    <path d="M 465.428571 162.514286 
L 465.428571 75.085714 
" style="fill:none;stroke:#000000;stroke-linecap:square;stroke-linejoin:miter;stroke-width:0.25;"/>
   </g>
   <g id="patch_19">
    <path d="M 552.857143 162.514286 
L 552.857143 75.085714 
" style="fill:none;stroke:#000000;stroke-linecap:square;stroke-linejoin:miter;stroke-width:0.25;"/>
   </g>
   <g id="patch_20">
    <path d="M 465.428571 162.514286 
L 552.857143 162.514286 
" style="fill:none;stroke:#000000;stroke-linecap:square;stroke-linejoin:miter;stroke-width:0.25;"/>
   </g>
   <g id="patch_21">
    <path d="M 465.428571 75.085714 
L 552.857143 75.085714 
" style="fill:none;stroke:#000000;stroke-linecap:square;stroke-linejoin:miter;stroke-width:0.25;"/>
   </g>
   <g id="text_48">
    <text style="font-family:DejaVu Sans;font-size:7.2px;font-stretch:normal;font-style:normal;font-weight:normal;text-anchor:middle;" transform="rotate(-0, 509.142857, 69.085714)" x="509.142857" y="69.085714">40.0</text>
   </g>
  </g>
  <g id="axes_5">
   <g id="patch_22">
    <path d="M 596.571429 162.514286 
L 684 162.514286 
L 684 75.085714 
L 596.571429 75.085714 
z
" style="fill:#ffffff;"/>
   </g>
   <g id="matplotlib.axis_9">
    <g id="xtick_13">
     <g id="line2d_77">
      <g>
       <use style="stroke:#000000;stroke-width:0.25;" x="600.545455" xlink:href="#m5eab559457" y="162.514286"/>
      </g>
     </g>
     <g id="text_49">
      <text style="font-family:DejaVu Sans;font-size:6px;font-stretch:normal;font-style:normal;font-weight:normal;text-anchor:middle;" transform="rotate(-0, 600.545455, 174.073348)" x="600.545455" y="174.073348">0.0</text>
     </g>
    </g>
    <g id="xtick_14">
     <g id="line2d_78">
      <g>
       <use style="stroke:#000000;stroke-width:0.25;" x="640.285714" xlink:href="#m5eab559457" y="162.514286"/>
      </g>
     </g>
     <g id="text_50">
      <text style="font-family:DejaVu Sans;font-size:6px;font-stretch:normal;font-style:normal;font-weight:normal;text-anchor:middle;" transform="rotate(-0, 640.285714, 174.073348)" x="640.285714" y="174.073348">0.5</text>
     </g>
    </g>
    <g id="xtick_15">
     <g id="line2d_79">
      <g>
       <use style="stroke:#000000;stroke-width:0.25;" x="680.025974" xlink:href="#m5eab559457" y="162.514286"/>
      </g>
     </g>
     <g id="text_51">
      <text style="font-family:DejaVu Sans;font-size:6px;font-stretch:normal;font-style:normal;font-weight:normal;text-anchor:middle;" transform="rotate(-0, 680.025974, 174.073348)" x="680.025974" y="174.073348">1.0</text>
     </g>
    </g>
    <g id="text_52">
     <text style="font-family:DejaVu Sans;font-size:6px;font-stretch:normal;font-style:normal;font-weight:normal;text-anchor:middle;" transform="rotate(-0, 640.285714, 183.880223)" x="640.285714" y="183.880223">p(F)</text>
    </g>
   </g>
   <g id="matplotlib.axis_10">
    <g id="ytick_25">
     <g id="line2d_80">
      <g>
       <use style="stroke:#000000;stroke-width:0.25;" x="596.571429" xlink:href="#m21ee9babc9" y="158.54026"/>
      </g>
     </g>
     <g id="text_53">
      <text style="font-family:DejaVu Sans;font-size:6px;font-stretch:normal;font-style:normal;font-weight:normal;text-anchor:end;" transform="rotate(-0, 589.571429, 160.819791)" x="589.571429" y="160.819791">0.0</text>
     </g>
    </g>
    <g id="ytick_26">
     <g id="line2d_81">
      <g>
       <use style="stroke:#000000;stroke-width:0.25;" x="596.571429" xlink:href="#m21ee9babc9" y="142.644156"/>
      </g>
     </g>
     <g id="text_54">
      <text style="font-family:DejaVu Sans;font-size:6px;font-stretch:normal;font-style:normal;font-weight:normal;text-anchor:end;" transform="rotate(-0, 589.571429, 144.923687)" x="589.571429" y="144.923687">0.2</text>
     </g>
    </g>
    <g id="ytick_27">
     <g id="line2d_82">
      <g>
       <use style="stroke:#000000;stroke-width:0.25;" x="596.571429" xlink:href="#m21ee9babc9" y="126.748052"/>
      </g>
     </g>
     <g id="text_55">
      <text style="font-family:DejaVu Sans;font-size:6px;font-stretch:normal;font-style:normal;font-weight:normal;text-anchor:end;" transform="rotate(-0, 589.571429, 129.027583)" x="589.571429" y="129.027583">0.4</text>
     </g>
    </g>
    <g id="ytick_28">
     <g id="line2d_83">
      <g>
       <use style="stroke:#000000;stroke-width:0.25;" x="596.571429" xlink:href="#m21ee9babc9" y="110.851948"/>
      </g>
     </g>
     <g id="text_56">
      <text style="font-family:DejaVu Sans;font-size:6px;font-stretch:normal;font-style:normal;font-weight:normal;text-anchor:end;" transform="rotate(-0, 589.571429, 113.131479)" x="589.571429" y="113.131479">0.6</text>
     </g>
    </g>
    <g id="ytick_29">
     <g id="line2d_84">
      <g>
       <use style="stroke:#000000;stroke-width:0.25;" x="596.571429" xlink:href="#m21ee9babc9" y="94.955844"/>
      </g>
     </g>
     <g id="text_57">
      <text style="font-family:DejaVu Sans;font-size:6px;font-stretch:normal;font-style:normal;font-weight:normal;text-anchor:end;" transform="rotate(-0, 589.571429, 97.235375)" x="589.571429" y="97.235375">0.8</text>
     </g>
    </g>
    <g id="ytick_30">
     <g id="line2d_85">
      <g>
       <use style="stroke:#000000;stroke-width:0.25;" x="596.571429" xlink:href="#m21ee9babc9" y="79.05974"/>
      </g>
     </g>
     <g id="text_58">
      <text style="font-family:DejaVu Sans;font-size:6px;font-stretch:normal;font-style:normal;font-weight:normal;text-anchor:end;" transform="rotate(-0, 589.571429, 81.339272)" x="589.571429" y="81.339272">1.0</text>
     </g>
    </g>
    <g id="text_59">
     <text style="font-family:DejaVu Sans;font-size:6px;font-stretch:normal;font-style:normal;font-weight:normal;text-anchor:middle;" transform="rotate(-90, 574.781741, 118.8)" x="574.781741" y="118.8">p(H)</text>
    </g>
   </g>
   <g id="line2d_86">
    <path clip-path="url(#pf8e0883413)" d="M 680.025974 79.05974 
L 680.025974 79.05974 
L 680.025974 79.05974 
L 680.025974 79.05974 
L 680.025974 84.73692 
L 680.025974 84.73692 
L 680.025974 84.73692 
L 668.671614 90.4141 
L 662.994434 90.4141 
L 657.317254 96.09128 
L 645.962894 113.12282 
L 640.285714 124.47718 
L 640.285714 130.15436 
L 628.931354 130.15436 
L 617.576994 141.50872 
L 600.545455 141.50872 
L 600.545455 141.50872 
L 600.545455 141.50872 
L 600.545455 141.50872 
L 600.545455 152.86308 
L 600.545455 152.86308 
L 600.545455 152.86308 
L 600.545455 158.54026 
L 600.545455 158.54026 
L 600.545455 158.54026 
L 600.545455 158.54026 
L 600.545455 158.54026 
L 600.545455 158.54026 
L 600.545455 158.54026 
L 600.545455 158.54026 
L 600.545455 158.54026 
L 600.545455 158.54026 
L 600.545455 158.54026 
L 600.545455 158.54026 
L 600.545455 158.54026 
L 600.545455 158.54026 
L 600.545455 158.54026 
L 600.545455 158.54026 
L 600.545455 158.54026 
L 600.545455 158.54026 
L 600.545455 158.54026 
L 600.545455 158.54026 
L 600.545455 158.54026 
L 600.545455 158.54026 
L 600.545455 158.54026 
L 600.545455 158.54026 
L 600.545455 158.54026 
L 600.545455 158.54026 
L 600.545455 158.54026 
L 600.545455 158.54026 
" style="fill:none;stroke:#ab3c37;stroke-linecap:square;stroke-width:0.5;"/>
   </g>
   <g id="line2d_87">
    <path clip-path="url(#pf8e0883413)" d="M 600.545455 158.54026 
L 680.025974 79.05974 
" style="fill:none;stroke:#000000;stroke-dasharray:1,1.65;stroke-dashoffset:0;"/>
   </g>
   <g id="line2d_88">
    <path clip-path="url(#pf8e0883413)" d="M 680.025974 79.05974 
L 680.025974 79.05974 
L 680.025974 79.05974 
L 677.285266 81.800448 
L 677.285266 84.541155 
L 674.544559 87.281863 
L 674.544559 87.281863 
L 666.322436 87.281863 
L 663.581729 92.763278 
L 658.100313 98.244693 
L 647.137483 109.207524 
L 627.95253 117.429646 
L 619.730408 120.170354 
L 619.730408 122.911061 
L 616.9897 131.133184 
L 611.508285 131.133184 
L 608.767577 136.614599 
L 606.02687 144.836722 
L 603.286162 150.318137 
L 603.286162 150.318137 
L 603.286162 153.058845 
L 600.545455 155.799552 
L 600.545455 158.54026 
L 600.545455 158.54026 
L 600.545455 158.54026 
L 600.545455 158.54026 
L 600.545455 158.54026 
L 600.545455 158.54026 
L 600.545455 158.54026 
L 600.545455 158.54026 
L 600.545455 158.54026 
L 600.545455 158.54026 
L 600.545455 158.54026 
L 600.545455 158.54026 
L 600.545455 158.54026 
L 600.545455 158.54026 
L 600.545455 158.54026 
L 600.545455 158.54026 
L 600.545455 158.54026 
L 600.545455 158.54026 
L 600.545455 158.54026 
L 600.545455 158.54026 
L 600.545455 158.54026 
L 600.545455 158.54026 
L 600.545455 158.54026 
L 600.545455 158.54026 
L 600.545455 158.54026 
L 600.545455 158.54026 
L 600.545455 158.54026 
L 600.545455 158.54026 
" style="fill:none;stroke:#d29c82;stroke-linecap:square;stroke-width:0.5;"/>
   </g>
   <g id="line2d_89">
    <path clip-path="url(#pf8e0883413)" d="M 600.545455 158.54026 
L 680.025974 79.05974 
" style="fill:none;stroke:#000000;stroke-dasharray:1,1.65;stroke-dashoffset:0;"/>
   </g>
   <g id="line2d_90">
    <path clip-path="url(#pf8e0883413)" d="M 680.025974 79.05974 
L 680.025974 79.05974 
L 680.025974 79.05974 
L 677.285266 79.05974 
L 677.285266 79.05974 
L 674.544559 79.05974 
L 666.322436 79.05974 
L 666.322436 87.281863 
L 658.100313 90.022571 
L 649.878191 92.763278 
L 647.137483 98.244693 
L 633.433945 109.207524 
L 625.211823 111.948231 
L 616.9897 131.133184 
L 611.508285 133.873892 
L 611.508285 139.355307 
L 608.767577 142.096014 
L 603.286162 144.836722 
L 603.286162 147.577429 
L 603.286162 147.577429 
L 603.286162 150.318137 
L 600.545455 150.318137 
L 600.545455 153.058845 
L 600.545455 155.799552 
L 600.545455 158.54026 
L 600.545455 158.54026 
L 600.545455 158.54026 
L 600.545455 158.54026 
L 600.545455 158.54026 
L 600.545455 158.54026 
L 600.545455 158.54026 
L 600.545455 158.54026 
L 600.545455 158.54026 
L 600.545455 158.54026 
L 600.545455 158.54026 
L 600.545455 158.54026 
L 600.545455 158.54026 
L 600.545455 158.54026 
L 600.545455 158.54026 
L 600.545455 158.54026 
L 600.545455 158.54026 
L 600.545455 158.54026 
L 600.545455 158.54026 
L 600.545455 158.54026 
L 600.545455 158.54026 
L 600.545455 158.54026 
L 600.545455 158.54026 
L 600.545455 158.54026 
L 600.545455 158.54026 
L 600.545455 158.54026 
" style="fill:none;stroke:#d1d2d2;stroke-linecap:square;stroke-width:0.5;"/>
   </g>
   <g id="line2d_91">
    <path clip-path="url(#pf8e0883413)" d="M 600.545455 158.54026 
L 680.025974 79.05974 
" style="fill:none;stroke:#000000;stroke-dasharray:1,1.65;stroke-dashoffset:0;"/>
   </g>
   <g id="line2d_92">
    <path clip-path="url(#pf8e0883413)" d="M 680.025974 79.05974 
L 680.025974 79.05974 
L 677.285266 79.05974 
L 677.285266 79.05974 
L 674.544559 79.05974 
L 674.544559 79.05974 
L 669.063144 79.05974 
L 669.063144 79.05974 
L 660.841021 79.05974 
L 652.618898 87.281863 
L 647.137483 95.503986 
L 644.396776 109.207524 
L 636.174653 122.911061 
L 633.433945 125.651769 
L 630.693238 128.392476 
L 622.471115 131.133184 
L 619.730408 139.355307 
L 611.508285 144.836722 
L 608.767577 147.577429 
L 608.767577 147.577429 
L 606.02687 150.318137 
L 603.286162 150.318137 
L 600.545455 153.058845 
L 600.545455 153.058845 
L 600.545455 153.058845 
L 600.545455 155.799552 
L 600.545455 155.799552 
L 600.545455 155.799552 
L 600.545455 155.799552 
L 600.545455 155.799552 
L 600.545455 155.799552 
L 600.545455 155.799552 
L 600.545455 158.54026 
L 600.545455 158.54026 
L 600.545455 158.54026 
L 600.545455 158.54026 
L 600.545455 158.54026 
L 600.545455 158.54026 
L 600.545455 158.54026 
L 600.545455 158.54026 
L 600.545455 158.54026 
L 600.545455 158.54026 
L 600.545455 158.54026 
L 600.545455 158.54026 
L 600.545455 158.54026 
L 600.545455 158.54026 
L 600.545455 158.54026 
L 600.545455 158.54026 
L 600.545455 158.54026 
L 600.545455 158.54026 
" style="fill:none;stroke:#8eb1c2;stroke-linecap:square;stroke-width:0.5;"/>
   </g>
   <g id="line2d_93">
    <path clip-path="url(#pf8e0883413)" d="M 600.545455 158.54026 
L 680.025974 79.05974 
" style="fill:none;stroke:#000000;stroke-dasharray:1,1.65;stroke-dashoffset:0;"/>
   </g>
   <g id="line2d_94">
    <path clip-path="url(#pf8e0883413)" d="M 680.025974 79.05974 
L 680.025974 79.05974 
L 680.025974 79.05974 
L 677.285266 79.05974 
L 674.544559 79.05974 
L 674.544559 79.05974 
L 671.803851 81.800448 
L 669.063144 81.800448 
L 669.063144 81.800448 
L 660.841021 81.800448 
L 658.100313 84.541155 
L 644.396776 84.541155 
L 638.915361 90.022571 
L 633.433945 98.244693 
L 616.9897 111.948231 
L 611.508285 120.170354 
L 606.02687 136.614599 
L 606.02687 142.096014 
L 606.02687 144.836722 
L 603.286162 144.836722 
L 603.286162 144.836722 
L 603.286162 150.318137 
L 603.286162 150.318137 
L 600.545455 150.318137 
L 600.545455 150.318137 
L 600.545455 150.318137 
L 600.545455 150.318137 
L 600.545455 150.318137 
L 600.545455 153.058845 
L 600.545455 153.058845 
L 600.545455 153.058845 
L 600.545455 153.058845 
L 600.545455 153.058845 
L 600.545455 153.058845 
L 600.545455 155.799552 
L 600.545455 155.799552 
L 600.545455 155.799552 
L 600.545455 155.799552 
L 600.545455 155.799552 
L 600.545455 158.54026 
L 600.545455 158.54026 
L 600.545455 158.54026 
L 600.545455 158.54026 
L 600.545455 158.54026 
L 600.545455 158.54026 
L 600.545455 158.54026 
L 600.545455 158.54026 
L 600.545455 158.54026 
L 600.545455 158.54026 
L 600.545455 158.54026 
" style="fill:none;stroke:#2f6f9f;stroke-linecap:square;stroke-width:0.5;"/>
   </g>
   <g id="line2d_95">
    <path clip-path="url(#pf8e0883413)" d="M 600.545455 158.54026 
L 680.025974 79.05974 
" style="fill:none;stroke:#000000;stroke-dasharray:1,1.65;stroke-dashoffset:0;"/>
   </g>
   <g id="patch_23">
    <path d="M 596.571429 162.514286 
L 596.571429 75.085714 
" style="fill:none;stroke:#000000;stroke-linecap:square;stroke-linejoin:miter;stroke-width:0.25;"/>
   </g>
   <g id="patch_24">
    <path d="M 684 162.514286 
L 684 75.085714 
" style="fill:none;stroke:#000000;stroke-linecap:square;stroke-linejoin:miter;stroke-width:0.25;"/>
   </g>
   <g id="patch_25">
    <path d="M 596.571429 162.514286 
L 684 162.514286 
" style="fill:none;stroke:#000000;stroke-linecap:square;stroke-linejoin:miter;stroke-width:0.25;"/>
   </g>
   <g id="patch_26">
    <path d="M 596.571429 75.085714 
L 684 75.085714 
" style="fill:none;stroke:#000000;stroke-linecap:square;stroke-linejoin:miter;stroke-width:0.25;"/>
   </g>
   <g id="text_60">
    <text style="font-family:DejaVu Sans;font-size:7.2px;font-stretch:normal;font-style:normal;font-weight:normal;text-anchor:middle;" transform="rotate(-0, 640.285714, 69.085714)" x="640.285714" y="69.085714">50.0</text>
   </g>
   <g id="legend_1">
    <g id="patch_27">
     <path d="M 526.3125 50.228571 
L 679.8 50.228571 
Q 681 50.228571 681 49.028571 
L 681 32.014821 
Q 681 30.814821 679.8 30.814821 
L 526.3125 30.814821 
Q 525.1125 30.814821 525.1125 32.014821 
L 525.1125 49.028571 
Q 525.1125 50.228571 526.3125 50.228571 
z
" style="fill:#ffffff;opacity:0.8;stroke:#cccccc;stroke-linejoin:miter;"/>
    </g>
    <g id="text_61">
     <text style="font-family:DejaVu Sans;font-size:6px;font-stretch:normal;font-style:normal;font-weight:normal;text-anchor:start;" transform="rotate(-0, 586.77, 37.773884)" x="586.77" y="37.773884">morphstep</text>
    </g>
    <g id="line2d_96">
     <path d="M 527.5125 44.480759 
L 539.5125 44.480759 
" style="fill:none;stroke:#ab3c37;stroke-linecap:square;stroke-width:0.5;"/>
    </g>
    <g id="line2d_97"/>
    <g id="text_62">
     <text style="font-family:DejaVu Sans;font-size:6px;font-stretch:normal;font-style:normal;font-weight:normal;text-anchor:start;" transform="rotate(-0, 544.3125, 46.580759)" x="544.3125" y="46.580759">0</text>
    </g>
    <g id="line2d_98">
     <path d="M 560.13 44.480759 
L 572.13 44.480759 
" style="fill:none;stroke:#d29c82;stroke-linecap:square;stroke-width:0.5;"/>
    </g>
    <g id="line2d_99"/>
    <g id="text_63">
     <text style="font-family:DejaVu Sans;font-size:6px;font-stretch:normal;font-style:normal;font-weight:normal;text-anchor:start;" transform="rotate(-0, 576.93, 46.580759)" x="576.93" y="46.580759">1</text>
    </g>
    <g id="line2d_100">
     <path d="M 592.7475 44.480759 
L 604.7475 44.480759 
" style="fill:none;stroke:#d1d2d2;stroke-linecap:square;stroke-width:0.5;"/>
    </g>
    <g id="line2d_101"/>
    <g id="text_64">
     <text style="font-family:DejaVu Sans;font-size:6px;font-stretch:normal;font-style:normal;font-weight:normal;text-anchor:start;" transform="rotate(-0, 609.5475, 46.580759)" x="609.5475" y="46.580759">2</text>
    </g>
    <g id="line2d_102">
     <path d="M 625.365 44.480759 
L 637.365 44.480759 
" style="fill:none;stroke:#8eb1c2;stroke-linecap:square;stroke-width:0.5;"/>
    </g>
    <g id="line2d_103"/>
    <g id="text_65">
     <text style="font-family:DejaVu Sans;font-size:6px;font-stretch:normal;font-style:normal;font-weight:normal;text-anchor:start;" transform="rotate(-0, 642.165, 46.580759)" x="642.165" y="46.580759">3</text>
    </g>
    <g id="line2d_104">
     <path d="M 657.9825 44.480759 
L 669.9825 44.480759 
" style="fill:none;stroke:#2f6f9f;stroke-linecap:square;stroke-width:0.5;"/>
    </g>
    <g id="line2d_105"/>
    <g id="text_66">
     <text style="font-family:DejaVu Sans;font-size:6px;font-stretch:normal;font-style:normal;font-weight:normal;text-anchor:start;" transform="rotate(-0, 674.7825, 46.580759)" x="674.7825" y="46.580759">4</text>
    </g>
   </g>
  </g>
  <g id="text_67">
   <text style="font-family:DejaVu Sans;font-size:12px;font-stretch:normal;font-style:normal;font-weight:normal;text-anchor:start;" transform="rotate(-0, 36, 32.4)" x="36" y="32.4">Cell 50 (20190602_JC091_fov1, Li)</text>
  </g>
  <g id="text_68">
   <text style="font-family:DejaVu Sans;font-size:8px;font-stretch:normal;font-style:normal;font-weight:normal;text-anchor:start;" transform="rotate(-0, 0, 6.07875)" x="0" y="6.07875">neuraldata_traces001_dff_ROC-thr-0.05_plushalf_noRF</text>
  </g>
 </g>
 <defs>
  <clipPath id="pbdb88ab4cd">
   <rect height="87.428571" width="87.428571" x="72" y="75.085714"/>
  </clipPath>
  <clipPath id="p34eda7d29f">
   <rect height="87.428571" width="87.428571" x="203.142857" y="75.085714"/>
  </clipPath>
  <clipPath id="paf6b39c50d">
   <rect height="87.428571" width="87.428571" x="334.285714" y="75.085714"/>
  </clipPath>
  <clipPath id="pe6bc68e626">
   <rect height="87.428571" width="87.428571" x="465.428571" y="75.085714"/>
  </clipPath>
  <clipPath id="pf8e0883413">
   <rect height="87.428571" width="87.428571" x="596.571429" y="75.085714"/>
  </clipPath>
 </defs>
</svg>
