<?xml version="1.0" encoding="utf-8" standalone="no"?>
<!DOCTYPE svg PUBLIC "-//W3C//DTD SVG 1.1//EN"
  "http://www.w3.org/Graphics/SVG/1.1/DTD/svg11.dtd">
<!-- Created with matplotlib (https://matplotlib.org/) -->
<svg height="216pt" version="1.1" viewBox="0 0 720 216" width="720pt" xmlns="http://www.w3.org/2000/svg" xmlns:xlink="http://www.w3.org/1999/xlink">
 <metadata>
  <rdf:RDF xmlns:cc="http://creativecommons.org/ns#" xmlns:dc="http://purl.org/dc/elements/1.1/" xmlns:rdf="http://www.w3.org/1999/02/22-rdf-syntax-ns#">
   <cc:Work>
    <dc:type rdf:resource="http://purl.org/dc/dcmitype/StillImage"/>
    <dc:date>2021-04-26T17:33:43.148368</dc:date>
    <dc:format>image/svg+xml</dc:format>
    <dc:creator>
     <cc:Agent>
      <dc:title>Matplotlib v3.3.4, https://matplotlib.org/</dc:title>
     </cc:Agent>
    </dc:creator>
   </cc:Work>
  </rdf:RDF>
 </metadata>
 <defs>
  <style type="text/css">*{stroke-linecap:butt;stroke-linejoin:round;}</style>
 </defs>
 <g id="figure_1">
  <g id="patch_1">
   <path d="M 0 216 
L 720 216 
L 720 0 
L 0 0 
z
" style="fill:#ffffff;"/>
  </g>
  <g id="axes_1">
   <g id="patch_2">
    <path d="M 72 172.8 
L 159.428571 172.8 
L 159.428571 64.8 
L 72 64.8 
z
" style="fill:#ffffff;"/>
   </g>
   <g id="matplotlib.axis_1">
    <g id="xtick_1">
     <g id="line2d_1">
      <defs>
       <path d="M 0 0 
L 0 3.5 
" id="m60f56d2a06" style="stroke:#000000;stroke-width:0.25;"/>
      </defs>
      <g>
       <use style="stroke:#000000;stroke-width:0.25;" x="87.328386" xlink:href="#m60f56d2a06" y="172.8"/>
      </g>
     </g>
     <g id="text_1">
      <text style="font-family:DejaVu Sans;font-size:10px;font-stretch:normal;font-style:normal;font-weight:normal;text-anchor:middle;" transform="rotate(-0, 87.328386, 187.398438)" x="87.328386" y="187.398438">0</text>
     </g>
    </g>
    <g id="xtick_2">
     <g id="line2d_2">
      <g>
       <use style="stroke:#000000;stroke-width:0.25;" x="158.293135" xlink:href="#m60f56d2a06" y="172.8"/>
      </g>
     </g>
     <g id="text_2">
      <text style="font-family:DejaVu Sans;font-size:10px;font-stretch:normal;font-style:normal;font-weight:normal;text-anchor:middle;" transform="rotate(-0, 158.293135, 187.398438)" x="158.293135" y="187.398438">5</text>
     </g>
    </g>
    <g id="text_3">
     <text style="font-family:DejaVu Sans;font-size:15px;font-stretch:normal;font-style:normal;font-weight:normal;text-anchor:middle;" transform="rotate(-0, 115.714286, 204.875781)" x="115.714286" y="204.875781">Stimulus Level</text>
    </g>
   </g>
   <g id="matplotlib.axis_2">
    <g id="ytick_1">
     <g id="line2d_3">
      <defs>
       <path d="M 0 0 
L -3.5 0 
" id="m2ea0b13167" style="stroke:#000000;stroke-width:0.25;"/>
      </defs>
      <g>
       <use style="stroke:#000000;stroke-width:0.25;" x="72" xlink:href="#m2ea0b13167" y="157.371429"/>
      </g>
     </g>
     <g id="text_4">
      <text style="font-family:DejaVu Sans;font-size:10px;font-stretch:normal;font-style:normal;font-weight:normal;text-anchor:end;" transform="rotate(-0, 65, 161.170647)" x="65" y="161.170647">0.4</text>
     </g>
    </g>
    <g id="ytick_2">
     <g id="line2d_4">
      <g>
       <use style="stroke:#000000;stroke-width:0.25;" x="72" xlink:href="#m2ea0b13167" y="126.514286"/>
      </g>
     </g>
     <g id="text_5">
      <text style="font-family:DejaVu Sans;font-size:10px;font-stretch:normal;font-style:normal;font-weight:normal;text-anchor:end;" transform="rotate(-0, 65, 130.313504)" x="65" y="130.313504">0.6</text>
     </g>
    </g>
    <g id="ytick_3">
     <g id="line2d_5">
      <g>
       <use style="stroke:#000000;stroke-width:0.25;" x="72" xlink:href="#m2ea0b13167" y="95.657143"/>
      </g>
     </g>
     <g id="text_6">
      <text style="font-family:DejaVu Sans;font-size:10px;font-stretch:normal;font-style:normal;font-weight:normal;text-anchor:end;" transform="rotate(-0, 65, 99.456362)" x="65" y="99.456362">0.8</text>
     </g>
    </g>
    <g id="ytick_4">
     <g id="line2d_6">
      <g>
       <use style="stroke:#000000;stroke-width:0.25;" x="72" xlink:href="#m2ea0b13167" y="64.8"/>
      </g>
     </g>
     <g id="text_7">
      <text style="font-family:DejaVu Sans;font-size:10px;font-stretch:normal;font-style:normal;font-weight:normal;text-anchor:end;" transform="rotate(-0, 65, 68.599219)" x="65" y="68.599219">1.0</text>
     </g>
    </g>
    <g id="text_8">
     <text style="font-family:DejaVu Sans;font-size:15px;font-stretch:normal;font-style:normal;font-weight:normal;text-anchor:middle;" transform="rotate(-90, 41.977344, 118.8)" x="41.977344" y="118.8">Proportion Correct</text>
    </g>
   </g>
   <g id="line2d_7">
    <defs>
     <path d="M 0 2.128673 
C 0.564531 2.128673 1.106016 1.904383 1.505199 1.505199 
C 1.904383 1.106016 2.128673 0.564531 2.128673 0 
C 2.128673 -0.564531 1.904383 -1.106016 1.505199 -1.505199 
C 1.106016 -1.904383 0.564531 -2.128673 0 -2.128673 
C -0.564531 -2.128673 -1.106016 -1.904383 -1.505199 -1.505199 
C -1.904383 -1.106016 -2.128673 -0.564531 -2.128673 0 
C -2.128673 0.564531 -1.904383 1.106016 -1.505199 1.505199 
C -1.106016 1.904383 -0.564531 2.128673 0 2.128673 
z
" id="mf57aff1a75" style="stroke:#0069aa;"/>
    </defs>
    <g>
     <use style="fill:#0069aa;stroke:#0069aa;" x="87.328386" xlink:href="#mf57aff1a75" y="128.642365"/>
    </g>
   </g>
   <g id="line2d_8">
    <g>
     <use style="fill:#0069aa;stroke:#0069aa;" x="101.521336" xlink:href="#mf57aff1a75" y="128.642365"/>
    </g>
   </g>
   <g id="line2d_9">
    <g>
     <use style="fill:#0069aa;stroke:#0069aa;" x="115.714286" xlink:href="#mf57aff1a75" y="123.322167"/>
    </g>
   </g>
   <g id="line2d_10">
    <g>
     <use style="fill:#0069aa;stroke:#0069aa;" x="129.907236" xlink:href="#mf57aff1a75" y="107.361576"/>
    </g>
   </g>
   <g id="line2d_11">
    <g>
     <use style="fill:#0069aa;stroke:#0069aa;" x="144.100186" xlink:href="#mf57aff1a75" y="96.721182"/>
    </g>
   </g>
   <g id="line2d_12">
    <path d="M 87.328386 141.923354 
L 96.420966 141.76681 
L 101.080914 141.473913 
L 104.433803 141.050018 
L 107.161577 140.490297 
L 109.54838 139.778521 
L 111.707867 138.904222 
L 113.696869 137.863065 
L 115.629043 136.598437 
L 117.504388 135.10117 
L 119.379732 133.311839 
L 121.255077 131.210524 
L 123.18725 128.707005 
L 125.233081 125.68063 
L 127.449397 121.983722 
L 129.893028 117.454698 
L 132.791289 111.592932 
L 137.451236 101.576694 
L 142.054355 91.86364 
L 144.100186 87.861801 
L 144.100186 87.861801 
" style="fill:none;stroke:#000000;stroke-linecap:square;stroke-width:2;"/>
   </g>
   <g id="line2d_13">
    <path d="M 75.974026 141.942132 
L 76.088716 141.942106 
L 76.203407 141.942078 
L 76.318097 141.942049 
L 76.432788 141.942019 
L 76.547478 141.941989 
L 76.662169 141.941957 
L 76.77686 141.941924 
L 76.89155 141.94189 
L 77.006241 141.941854 
L 77.120931 141.941818 
L 77.235622 141.94178 
L 77.350312 141.941741 
L 77.465003 141.941701 
L 77.579693 141.941659 
L 77.694384 141.941616 
L 77.809074 141.941571 
L 77.923765 141.941525 
L 78.038455 141.941477 
L 78.153146 141.941428 
L 78.267836 141.941376 
L 78.382527 141.941324 
L 78.497217 141.941269 
L 78.611908 141.941212 
L 78.726598 141.941154 
L 78.841289 141.941094 
L 78.955979 141.941031 
L 79.07067 141.940967 
L 79.18536 141.9409 
L 79.300051 141.940832 
L 79.414741 141.94076 
L 79.529432 141.940687 
L 79.644122 141.940611 
L 79.758813 141.940533 
L 79.873503 141.940452 
L 79.988194 141.940368 
L 80.102884 141.940282 
L 80.217575 141.940192 
L 80.332265 141.9401 
L 80.446956 141.940005 
L 80.561646 141.939907 
L 80.676337 141.939805 
L 80.791027 141.939701 
L 80.905718 141.939592 
L 81.020408 141.939481 
L 81.135099 141.939366 
L 81.249789 141.939247 
L 81.36448 141.939124 
L 81.47917 141.938997 
L 81.593861 141.938866 
L 81.708551 141.938731 
L 81.823242 141.938592 
L 81.937932 141.938449 
L 82.052623 141.9383 
L 82.167313 141.938147 
L 82.282004 141.93799 
L 82.396694 141.937827 
L 82.511385 141.937659 
L 82.626075 141.937486 
L 82.740766 141.937308 
L 82.855456 141.937124 
L 82.970147 141.936934 
L 83.084837 141.936738 
L 83.199528 141.936536 
L 83.314218 141.936328 
L 83.428909 141.936114 
L 83.543599 141.935893 
L 83.65829 141.935665 
L 83.77298 141.93543 
L 83.887671 141.935188 
L 84.002361 141.934938 
L 84.117052 141.934681 
L 84.231742 141.934416 
L 84.346433 141.934143 
L 84.461123 141.933862 
L 84.575814 141.933573 
L 84.690504 141.933274 
L 84.805195 141.932967 
L 84.919885 141.93265 
L 85.034576 141.932324 
L 85.149266 141.931988 
L 85.263957 141.931642 
L 85.378647 141.931286 
L 85.493338 141.930919 
L 85.608028 141.930542 
L 85.722719 141.930153 
L 85.837409 141.929753 
L 85.9521 141.929341 
L 86.06679 141.928916 
L 86.181481 141.92848 
L 86.296171 141.928031 
L 86.410862 141.927568 
L 86.525552 141.927093 
L 86.640243 141.926603 
L 86.754933 141.926099 
L 86.869624 141.925581 
L 86.984314 141.925048 
L 87.099005 141.924499 
L 87.213695 141.923935 
L 87.328386 141.923354 
" style="fill:none;stroke:#000000;stroke-dasharray:7.4,3.2;stroke-dashoffset:0;stroke-width:2;"/>
   </g>
   <g id="line2d_14">
    <path d="M 144.100186 87.861801 
L 144.214876 87.645586 
L 144.329567 87.430305 
L 144.444257 87.21597 
L 144.558948 87.002589 
L 144.673638 86.790173 
L 144.788329 86.57873 
L 144.903019 86.368271 
L 145.01771 86.158803 
L 145.1324 85.950337 
L 145.247091 85.742881 
L 145.361781 85.536444 
L 145.476472 85.331033 
L 145.591162 85.126658 
L 145.705853 84.923327 
L 145.820543 84.721046 
L 145.935234 84.519825 
L 146.049924 84.319671 
L 146.164615 84.12059 
L 146.279305 83.922591 
L 146.393996 83.72568 
L 146.508686 83.529864 
L 146.623377 83.33515 
L 146.738067 83.141544 
L 146.852758 82.949053 
L 146.967448 82.757682 
L 147.082139 82.567438 
L 147.196829 82.378326 
L 147.31152 82.190352 
L 147.42621 82.003522 
L 147.540901 81.817839 
L 147.655591 81.633311 
L 147.770282 81.44994 
L 147.884972 81.267733 
L 147.999663 81.086693 
L 148.114353 80.906825 
L 148.229044 80.728132 
L 148.343734 80.55062 
L 148.458425 80.374291 
L 148.573115 80.199149 
L 148.687806 80.025198 
L 148.802496 79.852441 
L 148.917187 79.68088 
L 149.031877 79.510519 
L 149.146568 79.34136 
L 149.261258 79.173407 
L 149.375949 79.00666 
L 149.490639 78.841123 
L 149.60533 78.676797 
L 149.72002 78.513684 
L 149.834711 78.351786 
L 149.949401 78.191104 
L 150.064092 78.03164 
L 150.178782 77.873395 
L 150.293473 77.716369 
L 150.408163 77.560564 
L 150.522854 77.40598 
L 150.637544 77.252617 
L 150.752235 77.100476 
L 150.866925 76.949558 
L 150.981616 76.799861 
L 151.096306 76.651386 
L 151.210997 76.504133 
L 151.325687 76.358101 
L 151.440378 76.213289 
L 151.555068 76.069696 
L 151.669759 75.927323 
L 151.784449 75.786167 
L 151.89914 75.646227 
L 152.01383 75.507502 
L 152.128521 75.36999 
L 152.243211 75.23369 
L 152.357902 75.0986 
L 152.472592 74.964718 
L 152.587283 74.832041 
L 152.701973 74.700568 
L 152.816664 74.570296 
L 152.931354 74.441222 
L 153.046045 74.313345 
L 153.160735 74.18666 
L 153.275426 74.061166 
L 153.390116 73.936859 
L 153.504807 73.813736 
L 153.619497 73.691794 
L 153.734188 73.571029 
L 153.848878 73.451438 
L 153.963569 73.333016 
L 154.078259 73.215761 
L 154.19295 73.099669 
L 154.30764 72.984735 
L 154.422331 72.870955 
L 154.537021 72.758326 
L 154.651712 72.646842 
L 154.766402 72.5365 
L 154.881093 72.427294 
L 154.995783 72.319221 
L 155.110474 72.212275 
L 155.225164 72.106452 
L 155.339855 72.001746 
L 155.454545 71.898153 
" style="fill:none;stroke:#000000;stroke-dasharray:7.4,3.2;stroke-dashoffset:0;stroke-width:2;"/>
   </g>
   <g id="line2d_15">
    <path clip-path="url(#p1a879857be)" d="M 136.624144 141.942857 
L 136.624144 103.371438 
" style="fill:none;stroke:#000000;stroke-linecap:square;stroke-width:1.5;"/>
   </g>
   <g id="line2d_16">
    <path d="M 75.974026 64.800019 
L 155.454545 64.800019 
" style="fill:none;stroke:#000000;stroke-dasharray:1.5,2.475;stroke-dashoffset:0;stroke-width:1.5;"/>
   </g>
   <g id="line2d_17">
    <path d="M 75.974026 141.942857 
L 155.454545 141.942857 
" style="fill:none;stroke:#000000;stroke-dasharray:1.5,2.475;stroke-dashoffset:0;stroke-width:1.5;"/>
   </g>
   <g id="patch_3">
    <path d="M 72 172.8 
L 72 64.8 
" style="fill:none;stroke:#000000;stroke-linecap:square;stroke-linejoin:miter;stroke-width:0.25;"/>
   </g>
   <g id="patch_4">
    <path d="M 72 172.8 
L 159.428571 172.8 
" style="fill:none;stroke:#000000;stroke-linecap:square;stroke-linejoin:miter;stroke-width:0.25;"/>
   </g>
   <g id="text_9">
    <text style="font-family:DejaVu Sans;font-size:6px;font-stretch:normal;font-style:normal;font-weight:normal;text-anchor:start;" transform="rotate(-0, 72, 58.8)" x="72" y="58.8">10 ((thr=3.47,slope=0.20))</text>
   </g>
  </g>
  <g id="axes_2">
   <g id="patch_5">
    <path d="M 203.142857 172.8 
L 290.571429 172.8 
L 290.571429 64.8 
L 203.142857 64.8 
z
" style="fill:#ffffff;"/>
   </g>
   <g id="matplotlib.axis_3">
    <g id="xtick_3">
     <g id="line2d_18">
      <g>
       <use style="stroke:#000000;stroke-width:0.25;" x="218.471243" xlink:href="#m60f56d2a06" y="172.8"/>
      </g>
     </g>
     <g id="text_10">
      <text style="font-family:DejaVu Sans;font-size:10px;font-stretch:normal;font-style:normal;font-weight:normal;text-anchor:middle;" transform="rotate(-0, 218.471243, 187.398438)" x="218.471243" y="187.398438">0</text>
     </g>
    </g>
    <g id="xtick_4">
     <g id="line2d_19">
      <g>
       <use style="stroke:#000000;stroke-width:0.25;" x="289.435993" xlink:href="#m60f56d2a06" y="172.8"/>
      </g>
     </g>
     <g id="text_11">
      <text style="font-family:DejaVu Sans;font-size:10px;font-stretch:normal;font-style:normal;font-weight:normal;text-anchor:middle;" transform="rotate(-0, 289.435993, 187.398438)" x="289.435993" y="187.398438">5</text>
     </g>
    </g>
    <g id="text_12">
     <text style="font-family:DejaVu Sans;font-size:15px;font-stretch:normal;font-style:normal;font-weight:normal;text-anchor:middle;" transform="rotate(-0, 246.857143, 204.875781)" x="246.857143" y="204.875781">Stimulus Level</text>
    </g>
   </g>
   <g id="matplotlib.axis_4">
    <g id="ytick_5">
     <g id="line2d_20">
      <g>
       <use style="stroke:#000000;stroke-width:0.25;" x="203.142857" xlink:href="#m2ea0b13167" y="157.371429"/>
      </g>
     </g>
    </g>
    <g id="ytick_6">
     <g id="line2d_21">
      <g>
       <use style="stroke:#000000;stroke-width:0.25;" x="203.142857" xlink:href="#m2ea0b13167" y="126.514286"/>
      </g>
     </g>
    </g>
    <g id="ytick_7">
     <g id="line2d_22">
      <g>
       <use style="stroke:#000000;stroke-width:0.25;" x="203.142857" xlink:href="#m2ea0b13167" y="95.657143"/>
      </g>
     </g>
    </g>
    <g id="ytick_8">
     <g id="line2d_23">
      <g>
       <use style="stroke:#000000;stroke-width:0.25;" x="203.142857" xlink:href="#m2ea0b13167" y="64.8"/>
      </g>
     </g>
    </g>
   </g>
   <g id="line2d_24">
    <g>
     <use style="fill:#0069aa;stroke:#0069aa;" x="218.471243" xlink:href="#mf57aff1a75" y="139.282759"/>
    </g>
   </g>
   <g id="line2d_25">
    <g>
     <use style="fill:#0069aa;stroke:#0069aa;" x="232.664193" xlink:href="#mf57aff1a75" y="133.962562"/>
    </g>
   </g>
   <g id="line2d_26">
    <g>
     <use style="fill:#0069aa;stroke:#0069aa;" x="246.857143" xlink:href="#mf57aff1a75" y="123.322167"/>
    </g>
   </g>
   <g id="line2d_27">
    <g>
     <use style="fill:#0069aa;stroke:#0069aa;" x="261.050093" xlink:href="#mf57aff1a75" y="118.00197"/>
    </g>
   </g>
   <g id="line2d_28">
    <g>
     <use style="fill:#0069aa;stroke:#0069aa;" x="275.243043" xlink:href="#mf57aff1a75" y="102.041379"/>
    </g>
   </g>
   <g id="line2d_29">
    <path d="M 218.471243 141.942212 
L 235.122031 141.828578 
L 239.838807 141.576846 
L 243.078039 141.188127 
L 245.635327 140.662709 
L 247.794815 140.00035 
L 249.783817 139.1566 
L 251.602333 138.142397 
L 253.364021 136.89781 
L 255.06888 135.412744 
L 256.773738 133.621716 
L 258.478597 131.501505 
L 260.240285 128.949772 
L 262.11563 125.827547 
L 264.104632 122.076279 
L 266.377777 117.292275 
L 269.105551 111.002736 
L 274.333785 98.22375 
L 275.243043 96.030008 
L 275.243043 96.030008 
" style="fill:none;stroke:#000000;stroke-linecap:square;stroke-width:2;"/>
   </g>
   <g id="line2d_30">
    <path d="M 207.116883 141.94285 
L 207.231574 141.94285 
L 207.346264 141.942849 
L 207.460955 141.942849 
L 207.575645 141.942848 
L 207.690336 141.942848 
L 207.805026 141.942848 
L 207.919717 141.942847 
L 208.034407 141.942847 
L 208.149098 141.942846 
L 208.263788 141.942845 
L 208.378479 141.942845 
L 208.493169 141.942844 
L 208.60786 141.942844 
L 208.72255 141.942843 
L 208.837241 141.942842 
L 208.951931 141.942842 
L 209.066622 141.942841 
L 209.181312 141.94284 
L 209.296003 141.942839 
L 209.410693 141.942838 
L 209.525384 141.942837 
L 209.640074 141.942836 
L 209.754765 141.942835 
L 209.869455 141.942834 
L 209.984146 141.942833 
L 210.098836 141.942832 
L 210.213527 141.942831 
L 210.328217 141.942829 
L 210.442908 141.942828 
L 210.557598 141.942827 
L 210.672289 141.942825 
L 210.786979 141.942824 
L 210.90167 141.942822 
L 211.01636 141.94282 
L 211.131051 141.942819 
L 211.245741 141.942817 
L 211.360432 141.942815 
L 211.475122 141.942813 
L 211.589813 141.942811 
L 211.704503 141.942809 
L 211.819194 141.942806 
L 211.933884 141.942804 
L 212.048575 141.942802 
L 212.163265 141.942799 
L 212.277956 141.942796 
L 212.392646 141.942793 
L 212.507337 141.94279 
L 212.622027 141.942787 
L 212.736718 141.942784 
L 212.851408 141.942781 
L 212.966099 141.942777 
L 213.080789 141.942773 
L 213.19548 141.942769 
L 213.31017 141.942765 
L 213.424861 141.942761 
L 213.539551 141.942757 
L 213.654242 141.942752 
L 213.768932 141.942747 
L 213.883623 141.942742 
L 213.998313 141.942737 
L 214.113004 141.942731 
L 214.227694 141.942726 
L 214.342385 141.94272 
L 214.457075 141.942713 
L 214.571766 141.942707 
L 214.686456 141.9427 
L 214.801147 141.942693 
L 214.915837 141.942686 
L 215.030528 141.942678 
L 215.145218 141.94267 
L 215.259909 141.942662 
L 215.374599 141.942653 
L 215.48929 141.942644 
L 215.60398 141.942634 
L 215.718671 141.942624 
L 215.833361 141.942614 
L 215.948052 141.942603 
L 216.062742 141.942592 
L 216.177433 141.94258 
L 216.292123 141.942568 
L 216.406814 141.942556 
L 216.521504 141.942542 
L 216.636195 141.942529 
L 216.750885 141.942514 
L 216.865576 141.942499 
L 216.980266 141.942484 
L 217.094957 141.942467 
L 217.209647 141.942451 
L 217.324338 141.942433 
L 217.439029 141.942415 
L 217.553719 141.942396 
L 217.66841 141.942376 
L 217.7831 141.942355 
L 217.897791 141.942334 
L 218.012481 141.942311 
L 218.127172 141.942288 
L 218.241862 141.942264 
L 218.356553 141.942239 
L 218.471243 141.942212 
" style="fill:none;stroke:#000000;stroke-dasharray:7.4,3.2;stroke-dashoffset:0;stroke-width:2;"/>
   </g>
   <g id="line2d_31">
    <path d="M 275.243043 96.030008 
L 275.357733 95.75578 
L 275.472424 95.482181 
L 275.587114 95.209233 
L 275.701805 94.936956 
L 275.816495 94.665373 
L 275.931186 94.394504 
L 276.045876 94.12437 
L 276.160567 93.854992 
L 276.275257 93.586391 
L 276.389948 93.318586 
L 276.504638 93.051598 
L 276.619329 92.785447 
L 276.734019 92.520152 
L 276.84871 92.255734 
L 276.9634 91.992211 
L 277.078091 91.729603 
L 277.192781 91.467928 
L 277.307472 91.207206 
L 277.422162 90.947454 
L 277.536853 90.688691 
L 277.651543 90.430935 
L 277.766234 90.174203 
L 277.880924 89.918513 
L 277.995615 89.663883 
L 278.110305 89.410328 
L 278.224996 89.157867 
L 278.339686 88.906515 
L 278.454377 88.656289 
L 278.569067 88.407205 
L 278.683758 88.159278 
L 278.798448 87.912524 
L 278.913139 87.666957 
L 279.027829 87.422594 
L 279.14252 87.179448 
L 279.25721 86.937534 
L 279.371901 86.696865 
L 279.486591 86.457457 
L 279.601282 86.219321 
L 279.715972 85.982472 
L 279.830663 85.746922 
L 279.945353 85.512684 
L 280.060044 85.27977 
L 280.174734 85.048192 
L 280.289425 84.817962 
L 280.404115 84.589092 
L 280.518806 84.361592 
L 280.633496 84.135474 
L 280.748187 83.910748 
L 280.862877 83.687424 
L 280.977568 83.465512 
L 281.092258 83.245023 
L 281.206949 83.025964 
L 281.321639 82.808346 
L 281.43633 82.592177 
L 281.55102 82.377466 
L 281.665711 82.16422 
L 281.780401 81.952448 
L 281.895092 81.742157 
L 282.009782 81.533354 
L 282.124473 81.326047 
L 282.239163 81.120242 
L 282.353854 80.915945 
L 282.468544 80.713162 
L 282.583235 80.5119 
L 282.697925 80.312163 
L 282.812616 80.113956 
L 282.927306 79.917286 
L 283.041997 79.722155 
L 283.156687 79.528569 
L 283.271378 79.336531 
L 283.386068 79.146045 
L 283.500759 78.957115 
L 283.615449 78.769743 
L 283.73014 78.583933 
L 283.84483 78.399686 
L 283.959521 78.217006 
L 284.074212 78.035893 
L 284.188902 77.856351 
L 284.303593 77.678379 
L 284.418283 77.50198 
L 284.532974 77.327154 
L 284.647664 77.153901 
L 284.762355 76.982223 
L 284.877045 76.812119 
L 284.991736 76.643589 
L 285.106426 76.476632 
L 285.221117 76.311247 
L 285.335807 76.147434 
L 285.450498 75.985192 
L 285.565188 75.824519 
L 285.679879 75.665412 
L 285.794569 75.507871 
L 285.90926 75.351893 
L 286.02395 75.197475 
L 286.138641 75.044615 
L 286.253331 74.893309 
L 286.368022 74.743555 
L 286.482712 74.595349 
L 286.597403 74.448688 
" style="fill:none;stroke:#000000;stroke-dasharray:7.4,3.2;stroke-dashoffset:0;stroke-width:2;"/>
   </g>
   <g id="line2d_32">
    <path clip-path="url(#p8b15e905c6)" d="M 272.23492 141.942857 
L 272.23492 103.371429 
" style="fill:none;stroke:#000000;stroke-linecap:square;stroke-width:1.5;"/>
   </g>
   <g id="line2d_33">
    <path d="M 207.116883 64.8 
L 286.597403 64.8 
" style="fill:none;stroke:#000000;stroke-dasharray:1.5,2.475;stroke-dashoffset:0;stroke-width:1.5;"/>
   </g>
   <g id="line2d_34">
    <path d="M 207.116883 141.942857 
L 286.597403 141.942857 
" style="fill:none;stroke:#000000;stroke-dasharray:1.5,2.475;stroke-dashoffset:0;stroke-width:1.5;"/>
   </g>
   <g id="patch_6">
    <path d="M 203.142857 172.8 
L 203.142857 64.8 
" style="fill:none;stroke:#000000;stroke-linecap:square;stroke-linejoin:miter;stroke-width:0.25;"/>
   </g>
   <g id="patch_7">
    <path d="M 203.142857 172.8 
L 290.571429 172.8 
" style="fill:none;stroke:#000000;stroke-linecap:square;stroke-linejoin:miter;stroke-width:0.25;"/>
   </g>
   <g id="text_13">
    <text style="font-family:DejaVu Sans;font-size:6px;font-stretch:normal;font-style:normal;font-weight:normal;text-anchor:start;" transform="rotate(-0, 203.142857, 58.8)" x="203.142857" y="58.8">20 ((thr=3.79,slope=0.23))</text>
   </g>
  </g>
  <g id="axes_3">
   <g id="patch_8">
    <path d="M 334.285714 172.8 
L 421.714286 172.8 
L 421.714286 64.8 
L 334.285714 64.8 
z
" style="fill:#ffffff;"/>
   </g>
   <g id="matplotlib.axis_5">
    <g id="xtick_5">
     <g id="line2d_35">
      <g>
       <use style="stroke:#000000;stroke-width:0.25;" x="349.6141" xlink:href="#m60f56d2a06" y="172.8"/>
      </g>
     </g>
     <g id="text_14">
      <text style="font-family:DejaVu Sans;font-size:10px;font-stretch:normal;font-style:normal;font-weight:normal;text-anchor:middle;" transform="rotate(-0, 349.6141, 187.398438)" x="349.6141" y="187.398438">0</text>
     </g>
    </g>
    <g id="xtick_6">
     <g id="line2d_36">
      <g>
       <use style="stroke:#000000;stroke-width:0.25;" x="420.57885" xlink:href="#m60f56d2a06" y="172.8"/>
      </g>
     </g>
     <g id="text_15">
      <text style="font-family:DejaVu Sans;font-size:10px;font-stretch:normal;font-style:normal;font-weight:normal;text-anchor:middle;" transform="rotate(-0, 420.57885, 187.398438)" x="420.57885" y="187.398438">5</text>
     </g>
    </g>
    <g id="text_16">
     <text style="font-family:DejaVu Sans;font-size:15px;font-stretch:normal;font-style:normal;font-weight:normal;text-anchor:middle;" transform="rotate(-0, 378, 204.875781)" x="378" y="204.875781">Stimulus Level</text>
    </g>
   </g>
   <g id="matplotlib.axis_6">
    <g id="ytick_9">
     <g id="line2d_37">
      <g>
       <use style="stroke:#000000;stroke-width:0.25;" x="334.285714" xlink:href="#m2ea0b13167" y="157.371429"/>
      </g>
     </g>
    </g>
    <g id="ytick_10">
     <g id="line2d_38">
      <g>
       <use style="stroke:#000000;stroke-width:0.25;" x="334.285714" xlink:href="#m2ea0b13167" y="126.514286"/>
      </g>
     </g>
    </g>
    <g id="ytick_11">
     <g id="line2d_39">
      <g>
       <use style="stroke:#000000;stroke-width:0.25;" x="334.285714" xlink:href="#m2ea0b13167" y="95.657143"/>
      </g>
     </g>
    </g>
    <g id="ytick_12">
     <g id="line2d_40">
      <g>
       <use style="stroke:#000000;stroke-width:0.25;" x="334.285714" xlink:href="#m2ea0b13167" y="64.8"/>
      </g>
     </g>
    </g>
   </g>
   <g id="line2d_41">
    <g>
     <use style="fill:#0069aa;stroke:#0069aa;" x="349.6141" xlink:href="#mf57aff1a75" y="155.24335"/>
    </g>
   </g>
   <g id="line2d_42">
    <g>
     <use style="fill:#0069aa;stroke:#0069aa;" x="363.80705" xlink:href="#mf57aff1a75" y="144.602956"/>
    </g>
   </g>
   <g id="line2d_43">
    <g>
     <use style="fill:#0069aa;stroke:#0069aa;" x="378" xlink:href="#mf57aff1a75" y="123.322167"/>
    </g>
   </g>
   <g id="line2d_44">
    <g>
     <use style="fill:#0069aa;stroke:#0069aa;" x="392.19295" xlink:href="#mf57aff1a75" y="123.322167"/>
    </g>
   </g>
   <g id="line2d_45">
    <g>
     <use style="fill:#0069aa;stroke:#0069aa;" x="406.3859" xlink:href="#mf57aff1a75" y="86.080788"/>
    </g>
   </g>
   <g id="line2d_46">
    <path d="M 349.6141 141.942806 
L 368.822177 141.831902 
L 372.743352 141.585371 
L 375.414297 141.207178 
L 377.573785 140.681045 
L 379.392301 140.014387 
L 381.040332 139.17629 
L 382.574705 138.147718 
L 384.052249 136.888594 
L 385.529793 135.327343 
L 387.007338 133.430412 
L 388.541711 131.077663 
L 390.132912 128.208851 
L 391.837771 124.651614 
L 393.713116 120.195736 
L 395.872604 114.465521 
L 398.827692 105.932924 
L 404.112755 90.619154 
L 406.3859 84.778692 
L 406.3859 84.778692 
" style="fill:none;stroke:#000000;stroke-linecap:square;stroke-width:2;"/>
   </g>
   <g id="line2d_47">
    <path d="M 338.25974 141.942857 
L 338.374431 141.942857 
L 338.489121 141.942857 
L 338.603812 141.942857 
L 338.718502 141.942857 
L 338.833193 141.942857 
L 338.947883 141.942857 
L 339.062574 141.942857 
L 339.177264 141.942857 
L 339.291955 141.942857 
L 339.406645 141.942857 
L 339.521336 141.942857 
L 339.636026 141.942857 
L 339.750717 141.942857 
L 339.865407 141.942857 
L 339.980098 141.942857 
L 340.094788 141.942857 
L 340.209479 141.942857 
L 340.324169 141.942857 
L 340.43886 141.942857 
L 340.55355 141.942857 
L 340.668241 141.942857 
L 340.782931 141.942857 
L 340.897622 141.942857 
L 341.012312 141.942857 
L 341.127003 141.942857 
L 341.241693 141.942857 
L 341.356384 141.942856 
L 341.471074 141.942856 
L 341.585765 141.942856 
L 341.700455 141.942856 
L 341.815146 141.942856 
L 341.929836 141.942856 
L 342.044527 141.942856 
L 342.159217 141.942856 
L 342.273908 141.942856 
L 342.388598 141.942856 
L 342.503289 141.942856 
L 342.617979 141.942856 
L 342.73267 141.942856 
L 342.84736 141.942856 
L 342.962051 141.942855 
L 343.076741 141.942855 
L 343.191432 141.942855 
L 343.306122 141.942855 
L 343.420813 141.942855 
L 343.535503 141.942855 
L 343.650194 141.942855 
L 343.764884 141.942855 
L 343.879575 141.942854 
L 343.994265 141.942854 
L 344.108956 141.942854 
L 344.223646 141.942854 
L 344.338337 141.942854 
L 344.453027 141.942853 
L 344.567718 141.942853 
L 344.682409 141.942853 
L 344.797099 141.942853 
L 344.91179 141.942852 
L 345.02648 141.942852 
L 345.141171 141.942852 
L 345.255861 141.942851 
L 345.370552 141.942851 
L 345.485242 141.942851 
L 345.599933 141.94285 
L 345.714623 141.94285 
L 345.829314 141.942849 
L 345.944004 141.942849 
L 346.058695 141.942849 
L 346.173385 141.942848 
L 346.288076 141.942847 
L 346.402766 141.942847 
L 346.517457 141.942846 
L 346.632147 141.942846 
L 346.746838 141.942845 
L 346.861528 141.942844 
L 346.976219 141.942843 
L 347.090909 141.942843 
L 347.2056 141.942842 
L 347.32029 141.942841 
L 347.434981 141.94284 
L 347.549671 141.942839 
L 347.664362 141.942838 
L 347.779052 141.942836 
L 347.893743 141.942835 
L 348.008433 141.942834 
L 348.123124 141.942833 
L 348.237814 141.942831 
L 348.352505 141.94283 
L 348.467195 141.942828 
L 348.581886 141.942826 
L 348.696576 141.942824 
L 348.811267 141.942823 
L 348.925957 141.942821 
L 349.040648 141.942818 
L 349.155338 141.942816 
L 349.270029 141.942814 
L 349.384719 141.942811 
L 349.49941 141.942809 
L 349.6141 141.942806 
" style="fill:none;stroke:#000000;stroke-dasharray:7.4,3.2;stroke-dashoffset:0;stroke-width:2;"/>
   </g>
   <g id="line2d_48">
    <path d="M 406.3859 84.778692 
L 406.50059 84.503138 
L 406.615281 84.229582 
L 406.729971 83.958045 
L 406.844662 83.688544 
L 406.959352 83.421096 
L 407.074043 83.15572 
L 407.188733 82.89243 
L 407.303424 82.631243 
L 407.418114 82.372174 
L 407.532805 82.115236 
L 407.647495 81.860444 
L 407.762186 81.607811 
L 407.876876 81.357348 
L 407.991567 81.109069 
L 408.106257 80.862984 
L 408.220948 80.619103 
L 408.335638 80.377437 
L 408.450329 80.137994 
L 408.565019 79.900784 
L 408.67971 79.665814 
L 408.7944 79.433092 
L 408.909091 79.202624 
L 409.023781 78.974417 
L 409.138472 78.748477 
L 409.253162 78.524807 
L 409.367853 78.303413 
L 409.482543 78.084298 
L 409.597234 77.867465 
L 409.711924 77.652917 
L 409.826615 77.440656 
L 409.941305 77.230684 
L 410.055996 77.023 
L 410.170686 76.817605 
L 410.285377 76.614499 
L 410.400067 76.413682 
L 410.514758 76.21515 
L 410.629448 76.018904 
L 410.744139 75.82494 
L 410.858829 75.633254 
L 410.97352 75.443845 
L 411.08821 75.256706 
L 411.202901 75.071835 
L 411.317591 74.889226 
L 411.432282 74.708872 
L 411.546973 74.53077 
L 411.661663 74.354911 
L 411.776354 74.181288 
L 411.891044 74.009895 
L 412.005735 73.840724 
L 412.120425 73.673766 
L 412.235116 73.509012 
L 412.349806 73.346453 
L 412.464497 73.18608 
L 412.579187 73.027883 
L 412.693878 72.871851 
L 412.808568 72.717973 
L 412.923259 72.566239 
L 413.037949 72.416637 
L 413.15264 72.269155 
L 413.26733 72.123781 
L 413.382021 71.980502 
L 413.496711 71.839305 
L 413.611402 71.700178 
L 413.726092 71.563106 
L 413.840783 71.428076 
L 413.955473 71.295074 
L 414.070164 71.164085 
L 414.184854 71.035095 
L 414.299545 70.908089 
L 414.414235 70.783051 
L 414.528926 70.659967 
L 414.643616 70.53882 
L 414.758307 70.419595 
L 414.872997 70.302275 
L 414.987688 70.186845 
L 415.102378 70.073287 
L 415.217069 69.961586 
L 415.331759 69.851723 
L 415.44645 69.743683 
L 415.56114 69.637448 
L 415.675831 69.533001 
L 415.790521 69.430323 
L 415.905212 69.329399 
L 416.019902 69.230209 
L 416.134593 69.132736 
L 416.249283 69.036962 
L 416.363974 68.942869 
L 416.478664 68.850438 
L 416.593355 68.759652 
L 416.708045 68.670493 
L 416.822736 68.582941 
L 416.937426 68.496978 
L 417.052117 68.412586 
L 417.166807 68.329747 
L 417.281498 68.248441 
L 417.396188 68.16865 
L 417.510879 68.090356 
L 417.625569 68.013539 
L 417.74026 67.938182 
" style="fill:none;stroke:#000000;stroke-dasharray:7.4,3.2;stroke-dashoffset:0;stroke-width:2;"/>
   </g>
   <g id="line2d_49">
    <path clip-path="url(#paa53a058e1)" d="M 399.690667 155.24335 
L 399.690667 103.371429 
" style="fill:none;stroke:#000000;stroke-linecap:square;stroke-width:1.5;"/>
   </g>
   <g id="line2d_50">
    <path d="M 338.25974 64.8 
L 417.74026 64.8 
" style="fill:none;stroke:#000000;stroke-dasharray:1.5,2.475;stroke-dashoffset:0;stroke-width:1.5;"/>
   </g>
   <g id="line2d_51">
    <path d="M 338.25974 141.942857 
L 417.74026 141.942857 
" style="fill:none;stroke:#000000;stroke-dasharray:1.5,2.475;stroke-dashoffset:0;stroke-width:1.5;"/>
   </g>
   <g id="patch_9">
    <path d="M 334.285714 172.8 
L 334.285714 64.8 
" style="fill:none;stroke:#000000;stroke-linecap:square;stroke-linejoin:miter;stroke-width:0.25;"/>
   </g>
   <g id="patch_10">
    <path d="M 334.285714 172.8 
L 421.714286 172.8 
" style="fill:none;stroke:#000000;stroke-linecap:square;stroke-linejoin:miter;stroke-width:0.25;"/>
   </g>
   <g id="text_17">
    <text style="font-family:DejaVu Sans;font-size:6px;font-stretch:normal;font-style:normal;font-weight:normal;text-anchor:start;" transform="rotate(-0, 334.285714, 58.8)" x="334.285714" y="58.8">30 ((thr=3.53,slope=0.27))</text>
   </g>
  </g>
  <g id="axes_4">
   <g id="patch_11">
    <path d="M 465.428571 172.8 
L 552.857143 172.8 
L 552.857143 64.8 
L 465.428571 64.8 
z
" style="fill:#ffffff;"/>
   </g>
   <g id="matplotlib.axis_7">
    <g id="xtick_7">
     <g id="line2d_52">
      <g>
       <use style="stroke:#000000;stroke-width:0.25;" x="480.756957" xlink:href="#m60f56d2a06" y="172.8"/>
      </g>
     </g>
     <g id="text_18">
      <text style="font-family:DejaVu Sans;font-size:10px;font-stretch:normal;font-style:normal;font-weight:normal;text-anchor:middle;" transform="rotate(-0, 480.756957, 187.398438)" x="480.756957" y="187.398438">0</text>
     </g>
    </g>
    <g id="xtick_8">
     <g id="line2d_53">
      <g>
       <use style="stroke:#000000;stroke-width:0.25;" x="551.721707" xlink:href="#m60f56d2a06" y="172.8"/>
      </g>
     </g>
     <g id="text_19">
      <text style="font-family:DejaVu Sans;font-size:10px;font-stretch:normal;font-style:normal;font-weight:normal;text-anchor:middle;" transform="rotate(-0, 551.721707, 187.398438)" x="551.721707" y="187.398438">5</text>
     </g>
    </g>
    <g id="text_20">
     <text style="font-family:DejaVu Sans;font-size:15px;font-stretch:normal;font-style:normal;font-weight:normal;text-anchor:middle;" transform="rotate(-0, 509.142857, 204.875781)" x="509.142857" y="204.875781">Stimulus Level</text>
    </g>
   </g>
   <g id="matplotlib.axis_8">
    <g id="ytick_13">
     <g id="line2d_54">
      <g>
       <use style="stroke:#000000;stroke-width:0.25;" x="465.428571" xlink:href="#m2ea0b13167" y="157.371429"/>
      </g>
     </g>
    </g>
    <g id="ytick_14">
     <g id="line2d_55">
      <g>
       <use style="stroke:#000000;stroke-width:0.25;" x="465.428571" xlink:href="#m2ea0b13167" y="126.514286"/>
      </g>
     </g>
    </g>
    <g id="ytick_15">
     <g id="line2d_56">
      <g>
       <use style="stroke:#000000;stroke-width:0.25;" x="465.428571" xlink:href="#m2ea0b13167" y="95.657143"/>
      </g>
     </g>
    </g>
    <g id="ytick_16">
     <g id="line2d_57">
      <g>
       <use style="stroke:#000000;stroke-width:0.25;" x="465.428571" xlink:href="#m2ea0b13167" y="64.8"/>
      </g>
     </g>
    </g>
   </g>
   <g id="line2d_58">
    <g>
     <use style="fill:#0069aa;stroke:#0069aa;" x="480.756957" xlink:href="#mf57aff1a75" y="133.962562"/>
    </g>
   </g>
   <g id="line2d_59">
    <g>
     <use style="fill:#0069aa;stroke:#0069aa;" x="494.949907" xlink:href="#mf57aff1a75" y="133.962562"/>
    </g>
   </g>
   <g id="line2d_60">
    <g>
     <use style="fill:#0069aa;stroke:#0069aa;" x="509.142857" xlink:href="#mf57aff1a75" y="128.642365"/>
    </g>
   </g>
   <g id="line2d_61">
    <g>
     <use style="fill:#0069aa;stroke:#0069aa;" x="523.335807" xlink:href="#mf57aff1a75" y="118.00197"/>
    </g>
   </g>
   <g id="line2d_62">
    <g>
     <use style="fill:#0069aa;stroke:#0069aa;" x="537.528757" xlink:href="#mf57aff1a75" y="107.361576"/>
    </g>
   </g>
   <g id="line2d_63">
    <path d="M 480.756957 141.942685 
L 500.419663 141.830685 
L 505.022782 141.583256 
L 508.205185 141.197311 
L 510.705644 140.6766 
L 512.865132 140.001622 
L 514.797306 139.163703 
L 516.558993 138.16098 
L 518.263852 136.933891 
L 519.911882 135.473595 
L 521.559912 133.714653 
L 523.264771 131.556565 
L 525.026459 128.948661 
L 526.844975 125.850597 
L 528.833977 122.008101 
L 531.050293 117.226252 
L 533.778067 110.77669 
L 537.528757 101.389592 
L 537.528757 101.389592 
" style="fill:none;stroke:#000000;stroke-linecap:square;stroke-width:2;"/>
   </g>
   <g id="line2d_64">
    <path d="M 469.402597 141.942856 
L 469.517288 141.942856 
L 469.631978 141.942856 
L 469.746669 141.942856 
L 469.861359 141.942856 
L 469.97605 141.942855 
L 470.09074 141.942855 
L 470.205431 141.942855 
L 470.320121 141.942855 
L 470.434812 141.942855 
L 470.549502 141.942855 
L 470.664193 141.942855 
L 470.778883 141.942855 
L 470.893574 141.942855 
L 471.008264 141.942854 
L 471.122955 141.942854 
L 471.237645 141.942854 
L 471.352336 141.942854 
L 471.467026 141.942854 
L 471.581717 141.942854 
L 471.696407 141.942853 
L 471.811098 141.942853 
L 471.925788 141.942853 
L 472.040479 141.942853 
L 472.15517 141.942853 
L 472.26986 141.942852 
L 472.384551 141.942852 
L 472.499241 141.942852 
L 472.613932 141.942851 
L 472.728622 141.942851 
L 472.843313 141.942851 
L 472.958003 141.942851 
L 473.072694 141.94285 
L 473.187384 141.94285 
L 473.302075 141.942849 
L 473.416765 141.942849 
L 473.531456 141.942849 
L 473.646146 141.942848 
L 473.760837 141.942848 
L 473.875527 141.942847 
L 473.990218 141.942847 
L 474.104908 141.942846 
L 474.219599 141.942846 
L 474.334289 141.942845 
L 474.44898 141.942844 
L 474.56367 141.942844 
L 474.678361 141.942843 
L 474.793051 141.942842 
L 474.907742 141.942842 
L 475.022432 141.942841 
L 475.137123 141.94284 
L 475.251813 141.942839 
L 475.366504 141.942838 
L 475.481194 141.942837 
L 475.595885 141.942836 
L 475.710575 141.942835 
L 475.825266 141.942834 
L 475.939956 141.942833 
L 476.054647 141.942832 
L 476.169337 141.942831 
L 476.284028 141.942829 
L 476.398718 141.942828 
L 476.513409 141.942827 
L 476.628099 141.942825 
L 476.74279 141.942823 
L 476.85748 141.942822 
L 476.972171 141.94282 
L 477.086861 141.942818 
L 477.201552 141.942816 
L 477.316242 141.942814 
L 477.430933 141.942812 
L 477.545623 141.94281 
L 477.660314 141.942808 
L 477.775004 141.942805 
L 477.889695 141.942803 
L 478.004385 141.9428 
L 478.119076 141.942798 
L 478.233766 141.942795 
L 478.348457 141.942792 
L 478.463147 141.942789 
L 478.577838 141.942785 
L 478.692528 141.942782 
L 478.807219 141.942778 
L 478.921909 141.942774 
L 479.0366 141.942771 
L 479.15129 141.942766 
L 479.265981 141.942762 
L 479.380671 141.942758 
L 479.495362 141.942753 
L 479.610052 141.942748 
L 479.724743 141.942743 
L 479.839433 141.942738 
L 479.954124 141.942732 
L 480.068814 141.942726 
L 480.183505 141.94272 
L 480.298195 141.942714 
L 480.412886 141.942707 
L 480.527576 141.9427 
L 480.642267 141.942693 
L 480.756957 141.942685 
" style="fill:none;stroke:#000000;stroke-dasharray:7.4,3.2;stroke-dashoffset:0;stroke-width:2;"/>
   </g>
   <g id="line2d_65">
    <path d="M 537.528757 101.389592 
L 537.643447 101.100968 
L 537.758138 100.812544 
L 537.872828 100.524345 
L 537.987519 100.236398 
L 538.102209 99.948727 
L 538.2169 99.661357 
L 538.33159 99.374313 
L 538.446281 99.08762 
L 538.560971 98.801304 
L 538.675662 98.515388 
L 538.790353 98.229899 
L 538.905043 97.944859 
L 539.019734 97.660293 
L 539.134424 97.376227 
L 539.249115 97.092684 
L 539.363805 96.809688 
L 539.478496 96.527262 
L 539.593186 96.245432 
L 539.707877 95.96422 
L 539.822567 95.68365 
L 539.937258 95.403745 
L 540.051948 95.124528 
L 540.166639 94.846022 
L 540.281329 94.56825 
L 540.39602 94.291234 
L 540.51071 94.014997 
L 540.625401 93.739561 
L 540.740091 93.464948 
L 540.854782 93.19118 
L 540.969472 92.918278 
L 541.084163 92.646263 
L 541.198853 92.375156 
L 541.313544 92.104979 
L 541.428234 91.835752 
L 541.542925 91.567495 
L 541.657615 91.300228 
L 541.772306 91.033972 
L 541.886996 90.768746 
L 542.001687 90.504569 
L 542.116377 90.24146 
L 542.231068 89.979439 
L 542.345758 89.718524 
L 542.460449 89.458732 
L 542.575139 89.200083 
L 542.68983 88.942593 
L 542.80452 88.686281 
L 542.919211 88.431163 
L 543.033901 88.177257 
L 543.148592 87.924578 
L 543.263282 87.673144 
L 543.377973 87.42297 
L 543.492663 87.174072 
L 543.607354 86.926464 
L 543.722044 86.680164 
L 543.836735 86.435184 
L 543.951425 86.19154 
L 544.066116 85.949245 
L 544.180806 85.708314 
L 544.295497 85.46876 
L 544.410187 85.230596 
L 544.524878 84.993835 
L 544.639568 84.75849 
L 544.754259 84.524572 
L 544.868949 84.292094 
L 544.98364 84.061067 
L 545.09833 83.831503 
L 545.213021 83.603411 
L 545.327711 83.376804 
L 545.442402 83.151691 
L 545.557092 82.928082 
L 545.671783 82.705986 
L 545.786473 82.485414 
L 545.901164 82.266373 
L 546.015854 82.048872 
L 546.130545 81.832921 
L 546.245235 81.618525 
L 546.359926 81.405694 
L 546.474616 81.194434 
L 546.589307 80.984753 
L 546.703997 80.776656 
L 546.818688 80.570151 
L 546.933378 80.365243 
L 547.048069 80.161938 
L 547.162759 79.96024 
L 547.27745 79.760156 
L 547.39214 79.561689 
L 547.506831 79.364844 
L 547.621521 79.169625 
L 547.736212 78.976036 
L 547.850902 78.78408 
L 547.965593 78.59376 
L 548.080283 78.405079 
L 548.194974 78.218038 
L 548.309664 78.032642 
L 548.424355 77.84889 
L 548.539045 77.666785 
L 548.653736 77.486328 
L 548.768426 77.307519 
L 548.883117 77.13036 
" style="fill:none;stroke:#000000;stroke-dasharray:7.4,3.2;stroke-dashoffset:0;stroke-width:2;"/>
   </g>
   <g id="line2d_66">
    <path clip-path="url(#p7b4c9615d2)" d="M 536.742572 141.942857 
L 536.742572 103.371434 
" style="fill:none;stroke:#000000;stroke-linecap:square;stroke-width:1.5;"/>
   </g>
   <g id="line2d_67">
    <path d="M 469.402597 64.80001 
L 548.883117 64.80001 
" style="fill:none;stroke:#000000;stroke-dasharray:1.5,2.475;stroke-dashoffset:0;stroke-width:1.5;"/>
   </g>
   <g id="line2d_68">
    <path d="M 469.402597 141.942857 
L 548.883117 141.942857 
" style="fill:none;stroke:#000000;stroke-dasharray:1.5,2.475;stroke-dashoffset:0;stroke-width:1.5;"/>
   </g>
   <g id="patch_12">
    <path d="M 465.428571 172.8 
L 465.428571 64.8 
" style="fill:none;stroke:#000000;stroke-linecap:square;stroke-linejoin:miter;stroke-width:0.25;"/>
   </g>
   <g id="patch_13">
    <path d="M 465.428571 172.8 
L 552.857143 172.8 
" style="fill:none;stroke:#000000;stroke-linecap:square;stroke-linejoin:miter;stroke-width:0.25;"/>
   </g>
   <g id="text_21">
    <text style="font-family:DejaVu Sans;font-size:6px;font-stretch:normal;font-style:normal;font-weight:normal;text-anchor:start;" transform="rotate(-0, 465.428571, 58.8)" x="465.428571" y="58.8">40 ((thr=3.94,slope=0.23))</text>
   </g>
  </g>
  <g id="axes_5">
   <g id="patch_14">
    <path d="M 596.571429 172.8 
L 684 172.8 
L 684 64.8 
L 596.571429 64.8 
z
" style="fill:#ffffff;"/>
   </g>
   <g id="matplotlib.axis_9">
    <g id="xtick_9">
     <g id="line2d_69">
      <g>
       <use style="stroke:#000000;stroke-width:0.25;" x="611.899814" xlink:href="#m60f56d2a06" y="172.8"/>
      </g>
     </g>
     <g id="text_22">
      <text style="font-family:DejaVu Sans;font-size:10px;font-stretch:normal;font-style:normal;font-weight:normal;text-anchor:middle;" transform="rotate(-0, 611.899814, 187.398438)" x="611.899814" y="187.398438">0</text>
     </g>
    </g>
    <g id="xtick_10">
     <g id="line2d_70">
      <g>
       <use style="stroke:#000000;stroke-width:0.25;" x="682.864564" xlink:href="#m60f56d2a06" y="172.8"/>
      </g>
     </g>
     <g id="text_23">
      <text style="font-family:DejaVu Sans;font-size:10px;font-stretch:normal;font-style:normal;font-weight:normal;text-anchor:middle;" transform="rotate(-0, 682.864564, 187.398438)" x="682.864564" y="187.398438">5</text>
     </g>
    </g>
    <g id="text_24">
     <text style="font-family:DejaVu Sans;font-size:15px;font-stretch:normal;font-style:normal;font-weight:normal;text-anchor:middle;" transform="rotate(-0, 640.285714, 204.875781)" x="640.285714" y="204.875781">Stimulus Level</text>
    </g>
   </g>
   <g id="matplotlib.axis_10">
    <g id="ytick_17">
     <g id="line2d_71">
      <g>
       <use style="stroke:#000000;stroke-width:0.25;" x="596.571429" xlink:href="#m2ea0b13167" y="157.371429"/>
      </g>
     </g>
    </g>
    <g id="ytick_18">
     <g id="line2d_72">
      <g>
       <use style="stroke:#000000;stroke-width:0.25;" x="596.571429" xlink:href="#m2ea0b13167" y="126.514286"/>
      </g>
     </g>
    </g>
    <g id="ytick_19">
     <g id="line2d_73">
      <g>
       <use style="stroke:#000000;stroke-width:0.25;" x="596.571429" xlink:href="#m2ea0b13167" y="95.657143"/>
      </g>
     </g>
    </g>
    <g id="ytick_20">
     <g id="line2d_74">
      <g>
       <use style="stroke:#000000;stroke-width:0.25;" x="596.571429" xlink:href="#m2ea0b13167" y="64.8"/>
      </g>
     </g>
    </g>
   </g>
   <g id="line2d_75">
    <g>
     <use style="fill:#0069aa;stroke:#0069aa;" x="611.899814" xlink:href="#mf57aff1a75" y="139.282759"/>
    </g>
   </g>
   <g id="line2d_76">
    <g>
     <use style="fill:#0069aa;stroke:#0069aa;" x="626.092764" xlink:href="#mf57aff1a75" y="128.642365"/>
    </g>
   </g>
   <g id="line2d_77">
    <g>
     <use style="fill:#0069aa;stroke:#0069aa;" x="640.285714" xlink:href="#mf57aff1a75" y="118.00197"/>
    </g>
   </g>
   <g id="line2d_78">
    <g>
     <use style="fill:#0069aa;stroke:#0069aa;" x="654.478664" xlink:href="#mf57aff1a75" y="128.642365"/>
    </g>
   </g>
   <g id="line2d_79">
    <g>
     <use style="fill:#0069aa;stroke:#0069aa;" x="668.671614" xlink:href="#mf57aff1a75" y="102.041379"/>
    </g>
   </g>
   <g id="line2d_80">
    <path d="M 611.899814 141.942856 
L 637.245383 141.833263 
L 641.109729 141.586643 
L 643.723846 141.209676 
L 645.826506 140.688514 
L 647.645022 140.008043 
L 649.236223 139.180972 
L 650.770596 138.12865 
L 652.248141 136.834259 
L 653.668856 135.29141 
L 655.089572 133.424056 
L 656.567116 131.111678 
L 658.101489 128.294501 
L 659.749519 124.797315 
L 661.568036 120.404431 
L 663.727523 114.567084 
L 666.625783 106.024608 
L 668.671614 99.825256 
L 668.671614 99.825256 
" style="fill:none;stroke:#000000;stroke-linecap:square;stroke-width:2;"/>
   </g>
   <g id="line2d_81">
    <path d="M 600.545455 141.942857 
L 600.660145 141.942857 
L 600.774836 141.942857 
L 600.889526 141.942857 
L 601.004217 141.942857 
L 601.118907 141.942857 
L 601.233598 141.942857 
L 601.348288 141.942857 
L 601.462979 141.942857 
L 601.577669 141.942857 
L 601.69236 141.942857 
L 601.80705 141.942857 
L 601.921741 141.942857 
L 602.036431 141.942857 
L 602.151122 141.942857 
L 602.265812 141.942857 
L 602.380503 141.942857 
L 602.495193 141.942857 
L 602.609884 141.942857 
L 602.724574 141.942857 
L 602.839265 141.942857 
L 602.953955 141.942857 
L 603.068646 141.942857 
L 603.183336 141.942857 
L 603.298027 141.942857 
L 603.412717 141.942857 
L 603.527408 141.942857 
L 603.642098 141.942857 
L 603.756789 141.942857 
L 603.871479 141.942857 
L 603.98617 141.942857 
L 604.10086 141.942857 
L 604.215551 141.942857 
L 604.330241 141.942857 
L 604.444932 141.942857 
L 604.559622 141.942857 
L 604.674313 141.942857 
L 604.789003 141.942857 
L 604.903694 141.942857 
L 605.018384 141.942857 
L 605.133075 141.942857 
L 605.247765 141.942857 
L 605.362456 141.942857 
L 605.477146 141.942857 
L 605.591837 141.942857 
L 605.706527 141.942857 
L 605.821218 141.942857 
L 605.935908 141.942857 
L 606.050599 141.942857 
L 606.165289 141.942857 
L 606.27998 141.942857 
L 606.39467 141.942857 
L 606.509361 141.942857 
L 606.624051 141.942857 
L 606.738742 141.942857 
L 606.853432 141.942857 
L 606.968123 141.942857 
L 607.082813 141.942857 
L 607.197504 141.942857 
L 607.312194 141.942857 
L 607.426885 141.942857 
L 607.541575 141.942857 
L 607.656266 141.942857 
L 607.770956 141.942857 
L 607.885647 141.942857 
L 608.000337 141.942857 
L 608.115028 141.942857 
L 608.229718 141.942857 
L 608.344409 141.942857 
L 608.459099 141.942857 
L 608.57379 141.942857 
L 608.68848 141.942857 
L 608.803171 141.942857 
L 608.917861 141.942857 
L 609.032552 141.942857 
L 609.147242 141.942857 
L 609.261933 141.942857 
L 609.376623 141.942857 
L 609.491314 141.942857 
L 609.606004 141.942857 
L 609.720695 141.942857 
L 609.835385 141.942857 
L 609.950076 141.942857 
L 610.064766 141.942857 
L 610.179457 141.942857 
L 610.294147 141.942856 
L 610.408838 141.942856 
L 610.523528 141.942856 
L 610.638219 141.942856 
L 610.752909 141.942856 
L 610.8676 141.942856 
L 610.98229 141.942856 
L 611.096981 141.942856 
L 611.211671 141.942856 
L 611.326362 141.942856 
L 611.441052 141.942856 
L 611.555743 141.942856 
L 611.670433 141.942856 
L 611.785124 141.942856 
L 611.899814 141.942856 
" style="fill:none;stroke:#000000;stroke-dasharray:7.4,3.2;stroke-dashoffset:0;stroke-width:2;"/>
   </g>
   <g id="line2d_82">
    <path d="M 668.671614 99.825256 
L 668.786305 99.479637 
L 668.900995 99.134513 
L 669.015686 98.789928 
L 669.130376 98.445925 
L 669.245067 98.102548 
L 669.359757 97.759837 
L 669.474448 97.417837 
L 669.589138 97.07659 
L 669.703829 96.736136 
L 669.818519 96.396519 
L 669.93321 96.057779 
L 670.0479 95.719957 
L 670.162591 95.383093 
L 670.277281 95.047229 
L 670.391972 94.712404 
L 670.506662 94.378657 
L 670.621353 94.046028 
L 670.736043 93.714556 
L 670.850734 93.384277 
L 670.965424 93.055231 
L 671.080115 92.727455 
L 671.194805 92.400985 
L 671.309496 92.075858 
L 671.424186 91.752111 
L 671.538877 91.429777 
L 671.653567 91.108893 
L 671.768258 90.789492 
L 671.882948 90.471608 
L 671.997639 90.155276 
L 672.112329 89.840526 
L 672.22702 89.527392 
L 672.34171 89.215905 
L 672.456401 88.906097 
L 672.571091 88.597997 
L 672.685782 88.291635 
L 672.800472 87.98704 
L 672.915163 87.684242 
L 673.029853 87.383268 
L 673.144544 87.084144 
L 673.259234 86.786899 
L 673.373925 86.491558 
L 673.488615 86.198146 
L 673.603306 85.906688 
L 673.717996 85.617208 
L 673.832687 85.329729 
L 673.947377 85.044274 
L 674.062068 84.760866 
L 674.176758 84.479525 
L 674.291449 84.200272 
L 674.406139 83.923127 
L 674.52083 83.64811 
L 674.63552 83.375238 
L 674.750211 83.104531 
L 674.864901 82.836004 
L 674.979592 82.569676 
L 675.094282 82.30556 
L 675.208973 82.043673 
L 675.323663 81.784029 
L 675.438354 81.526642 
L 675.553044 81.271525 
L 675.667735 81.018689 
L 675.782425 80.768148 
L 675.897116 80.519911 
L 676.011806 80.273989 
L 676.126497 80.030392 
L 676.241187 79.789128 
L 676.355878 79.550206 
L 676.470568 79.313633 
L 676.585259 79.079416 
L 676.699949 78.847562 
L 676.81464 78.618075 
L 676.92933 78.390962 
L 677.044021 78.166225 
L 677.158711 77.943869 
L 677.273402 77.723896 
L 677.388092 77.50631 
L 677.502783 77.29111 
L 677.617473 77.0783 
L 677.732164 76.867878 
L 677.846854 76.659845 
L 677.961545 76.4542 
L 678.076235 76.250941 
L 678.190926 76.050068 
L 678.305616 75.851576 
L 678.420307 75.655463 
L 678.534997 75.461725 
L 678.649688 75.270358 
L 678.764378 75.081357 
L 678.879069 74.894717 
L 678.993759 74.710432 
L 679.10845 74.528495 
L 679.22314 74.348899 
L 679.337831 74.171638 
L 679.452522 73.996703 
L 679.567212 73.824085 
L 679.681903 73.653776 
L 679.796593 73.485766 
L 679.911284 73.320045 
L 680.025974 73.156604 
" style="fill:none;stroke:#000000;stroke-dasharray:7.4,3.2;stroke-dashoffset:0;stroke-width:2;"/>
   </g>
   <g id="line2d_83">
    <path clip-path="url(#p0f7ed85a52)" d="M 667.500861 141.942857 
L 667.500861 103.371429 
" style="fill:none;stroke:#000000;stroke-linecap:square;stroke-width:1.5;"/>
   </g>
   <g id="line2d_84">
    <path d="M 600.545455 64.8 
L 680.025974 64.8 
" style="fill:none;stroke:#000000;stroke-dasharray:1.5,2.475;stroke-dashoffset:0;stroke-width:1.5;"/>
   </g>
   <g id="line2d_85">
    <path d="M 600.545455 141.942857 
L 680.025974 141.942857 
" style="fill:none;stroke:#000000;stroke-dasharray:1.5,2.475;stroke-dashoffset:0;stroke-width:1.5;"/>
   </g>
   <g id="patch_15">
    <path d="M 596.571429 172.8 
L 596.571429 64.8 
" style="fill:none;stroke:#000000;stroke-linecap:square;stroke-linejoin:miter;stroke-width:0.25;"/>
   </g>
   <g id="patch_16">
    <path d="M 596.571429 172.8 
L 684 172.8 
" style="fill:none;stroke:#000000;stroke-linecap:square;stroke-linejoin:miter;stroke-width:0.25;"/>
   </g>
   <g id="text_25">
    <text style="font-family:DejaVu Sans;font-size:6px;font-stretch:normal;font-style:normal;font-weight:normal;text-anchor:start;" transform="rotate(-0, 596.571429, 58.8)" x="596.571429" y="58.8">50 ((thr=3.92,slope=0.28))</text>
   </g>
  </g>
  <g id="text_26">
   <text style="font-family:DejaVu Sans;font-size:12px;font-stretch:normal;font-style:normal;font-weight:normal;text-anchor:start;" transform="rotate(-0, 36, 32.4)" x="36" y="32.4">Cell 50 (20190602_JC091_fov1, Li)</text>
  </g>
  <g id="text_27">
   <text style="font-family:DejaVu Sans;font-size:8px;font-stretch:normal;font-style:normal;font-weight:normal;text-anchor:start;" transform="rotate(-0, 0, 6.07875)" x="0" y="6.07875">neuraldata_traces001_dff_ROC-thr-0.05_plushalf_noRF</text>
  </g>
 </g>
 <defs>
  <clipPath id="p1a879857be">
   <rect height="108" width="87.428571" x="72" y="64.8"/>
  </clipPath>
  <clipPath id="p8b15e905c6">
   <rect height="108" width="87.428571" x="203.142857" y="64.8"/>
  </clipPath>
  <clipPath id="paa53a058e1">
   <rect height="108" width="87.428571" x="334.285714" y="64.8"/>
  </clipPath>
  <clipPath id="p7b4c9615d2">
   <rect height="108" width="87.428571" x="465.428571" y="64.8"/>
  </clipPath>
  <clipPath id="p0f7ed85a52">
   <rect height="108" width="87.428571" x="596.571429" y="64.8"/>
  </clipPath>
 </defs>
</svg>
